<svg version="1.1" xmlns="http://www.w3.org/2000/svg" viewBox="0 0 1620 920" width="3240" height="1840">
  <!-- svg-source:excalidraw -->
  
  <defs>
    <style class="style-fonts">
      
    </style>
    
  </defs>
  <g stroke-linecap="round" transform="translate(10 10) rotate(0 800 450)"><path d="M32 0 C364.06 -9.3, 694.47 -9.37, 1568 0 C1589.3 0.69, 1603.02 7.93, 1600 32 C1604.49 361.45, 1603.94 689.76, 1600 868 C1603.22 888.47, 1591.31 897.95, 1568 900 C1082.76 903.12, 596.32 901.82, 32 900 C11.58 896.71, 0.25 886.77, 0 868 C0.77 569.13, 0.45 268.81, 0 32 C3.56 8.59, 8.96 -2.86, 32 0" stroke="none" stroke-width="0" fill="#ffffff"></path><path d="M32 0 C489.65 1.48, 947.44 1.59, 1568 0 M32 0 C485.23 3.98, 937.87 4.59, 1568 0 M1568 0 C1589.68 0.55, 1600.21 12.37, 1600 32 M1568 0 C1589.85 -0.7, 1601.59 12.35, 1600 32 M1600 32 C1596.66 357.85, 1597.06 683.52, 1600 868 M1600 32 C1599.95 315.1, 1599.81 598.85, 1600 868 M1600 868 C1599.34 888.95, 1590.73 901.75, 1568 900 M1600 868 C1599.16 890.76, 1590.48 899.91, 1568 900 M1568 900 C1016.17 897.26, 462.85 897.9, 32 900 M1568 900 C1110.69 894.93, 653.3 895.07, 32 900 M32 900 C12.64 901.78, 0.37 890.46, 0 868 M32 900 C11.43 902.2, 1.55 889.61, 0 868 M0 868 C2.67 553.25, 1.47 239.82, 0 32 M0 868 C0.72 579.55, 0.84 292.11, 0 32 M0 32 C1.84 10.11, 12.51 -0.92, 32 0 M0 32 C0.09 11.7, 8.52 1.85, 32 0" stroke="#ffffff" stroke-width="4" fill="none"></path></g><g stroke-linecap="round" transform="translate(498.50967394583466 650) rotate(0 85.6069592239273 24.212530945259232)"><path d="M3.22 2.8 C3.22 2.8, 3.22 2.8, 3.22 2.8 M3.22 2.8 C3.22 2.8, 3.22 2.8, 3.22 2.8 M1.65 10.71 C4.96 6.08, 7.39 3.9, 10.18 0.9 M1.65 10.71 C3.81 8.85, 6.49 5.89, 10.18 0.9 M2.04 16.35 C7.07 12.16, 12.3 3.45, 14.51 2.01 M2.04 16.35 C5.53 11.02, 10.17 6.59, 14.51 2.01 M1.78 22.75 C4.9 16.92, 10.6 12.6, 19.5 2.37 M1.78 22.75 C6.84 17.24, 13.51 10.79, 19.5 2.37 M1.52 29.15 C7.21 24.01, 12.79 15.63, 25.14 1.98 M1.52 29.15 C10.91 18.27, 19.32 8.83, 25.14 1.98 M1.92 34.79 C10.74 25.23, 17.22 17.38, 30.13 2.34 M1.92 34.79 C8.96 28.24, 14.18 20.08, 30.13 2.34 M2.31 40.43 C13.22 26.61, 26.26 10.97, 35.77 1.94 M2.31 40.43 C15.29 25.8, 29.27 10.8, 35.77 1.94 M3.36 45.32 C17.23 31.12, 32.16 15.6, 40.76 2.3 M3.36 45.32 C16.82 29.01, 30.42 14.82, 40.76 2.3 M6.38 47.95 C17.83 38.08, 24.74 25.82, 46.4 1.91 M6.38 47.95 C20.09 32.33, 33.02 18.65, 46.4 1.91 M9.4 50.57 C21.01 36.25, 37.92 19.56, 51.39 2.27 M9.4 50.57 C22.42 35.13, 35.46 19.72, 51.39 2.27 M15.04 50.18 C26.41 36.25, 38.65 21.76, 56.37 2.63 M15.04 50.18 C28.93 33.87, 42.97 19.14, 56.37 2.63 M20.03 50.54 C30.65 39.72, 41.31 28.89, 62.02 2.23 M20.03 50.54 C31.51 36.39, 43.41 21.56, 62.02 2.23 M25.67 50.14 C33.28 40.92, 42.91 31.19, 67 2.59 M25.67 50.14 C39.99 34.72, 53.6 18.96, 67 2.59 M30.66 50.5 C41.88 40.16, 51.81 26.88, 72.65 2.2 M30.66 50.5 C44.87 32.89, 61.33 15.84, 72.65 2.2 M36.3 50.11 C44.59 39.03, 58.15 28.03, 77.63 2.56 M36.3 50.11 C46.43 39.56, 55.74 27.92, 77.63 2.56 M41.29 50.47 C53.26 36.17, 64.65 22.75, 83.28 2.17 M41.29 50.47 C50.56 40.3, 59.72 30.31, 83.28 2.17 M46.93 50.07 C57.09 39.39, 65.49 29.06, 88.26 2.53 M46.93 50.07 C59.93 34.01, 73.36 20.04, 88.26 2.53 M51.92 50.43 C59.79 39.01, 67.92 31.29, 93.91 2.13 M51.92 50.43 C66.14 33.07, 81.05 17.49, 93.91 2.13 M56.91 50.79 C64.32 39.51, 74.1 30.93, 98.89 2.49 M56.91 50.79 C68.78 38.31, 79.21 25.43, 98.89 2.49 M62.55 50.4 C72.5 39.25, 83.36 29.85, 103.88 2.85 M62.55 50.4 C73.04 36.33, 86.12 22.6, 103.88 2.85 M67.54 50.76 C75.8 40.54, 87.5 28, 109.52 2.46 M67.54 50.76 C78.87 36.22, 92.51 21.57, 109.52 2.46 M73.18 50.36 C83.87 38.13, 94.62 24.49, 114.51 2.82 M73.18 50.36 C83.27 39.28, 92.95 27.89, 114.51 2.82 M78.17 50.72 C92.59 31.82, 108.06 15.14, 120.15 2.42 M78.17 50.72 C88.96 39.5, 99.96 25.56, 120.15 2.42 M83.81 50.33 C93.34 37.31, 104.93 24.54, 125.14 2.78 M83.81 50.33 C99.28 31.62, 115.87 14.5, 125.14 2.78 M88.8 50.69 C105.3 30.09, 121.83 14.09, 130.78 2.39 M88.8 50.69 C102.39 35.34, 116 18.74, 130.78 2.39 M94.44 50.29 C103.29 40.66, 113.36 28.61, 135.77 2.75 M94.44 50.29 C110.71 33.3, 124.67 16.75, 135.77 2.75 M99.43 50.65 C117.04 31.96, 130.69 13.64, 141.41 2.35 M99.43 50.65 C112.62 35.46, 125.15 19.38, 141.41 2.35 M104.41 51.01 C119.43 34.16, 135.78 14.1, 146.4 2.71 M104.41 51.01 C113.38 38.98, 124.62 27.95, 146.4 2.71 M110.06 50.62 C122.07 37.48, 138.18 19.85, 151.39 3.07 M110.06 50.62 C124.91 33.15, 140.79 16.14, 151.39 3.07 M115.04 50.98 C123.05 38.94, 134.54 31.84, 157.03 2.68 M115.04 50.98 C126.63 36.8, 139.18 22.6, 157.03 2.68 M120.69 50.59 C130.49 38.64, 139.2 26.82, 162.02 3.04 M120.69 50.59 C129.65 38.78, 140.23 28.27, 162.02 3.04 M125.67 50.95 C137.33 37.77, 145.1 28.04, 167 3.4 M125.67 50.95 C135.39 39.51, 145.41 29.61, 167 3.4 M131.32 50.55 C144.46 36.35, 158.32 19.28, 170.68 5.27 M131.32 50.55 C139.11 40.33, 148.95 29.14, 170.68 5.27 M136.3 50.91 C144.22 40.41, 151.81 31.07, 171.73 10.16 M136.3 50.91 C143.74 41.4, 153.94 32.16, 171.73 10.16 M141.95 50.52 C148.5 42.09, 160.14 30.35, 171.47 16.55 M141.95 50.52 C149.73 42.18, 157.57 32.09, 171.47 16.55 M146.93 50.88 C154.42 43.8, 158.37 35.84, 171.86 22.2 M146.93 50.88 C154.08 43.19, 160.78 36.03, 171.86 22.2 M151.92 51.24 C155.73 45.51, 162.23 42.86, 171.6 28.6 M151.92 51.24 C157.28 46.81, 160.01 40.16, 171.6 28.6 M159.53 48.58 C164.55 43.45, 166.36 40.16, 171.34 34.99 M159.53 48.58 C164.03 42.98, 167.09 38.3, 171.34 34.99 M165.83 47.43 C168.07 45.64, 169.67 43.81, 170.42 42.15 M165.83 47.43 C167.83 45.17, 169.02 43.63, 170.42 42.15 M1.74 43.73 C1.74 43.73, 1.74 43.73, 1.74 43.73 M1.74 43.73 C1.74 43.73, 1.74 43.73, 1.74 43.73 M11.91 47.27 C8.96 44.07, 5.59 42.09, 0.59 37.43 M11.91 47.27 C7.69 44.35, 3.98 40.18, 0.59 37.43 M18.31 47.53 C12.95 43.31, 8.67 35.8, 0.19 31.79 M18.31 47.53 C14.33 42.54, 7.67 38.2, 0.19 31.79 M23.95 47.14 C17.6 39.08, 8.92 33.87, 0.55 26.8 M23.95 47.14 C18.2 42.15, 10.61 36.27, 0.55 26.8 M30.35 47.4 C24.34 40.58, 14.13 34.75, 0.91 21.81 M30.35 47.4 C23.63 41.81, 16.74 36.2, 0.91 21.81 M35.99 47 C26.06 39.02, 17.87 32.6, 0.52 16.17 M35.99 47 C27.66 39.64, 20.21 33.33, 0.52 16.17 M42.39 47.26 C30.67 38.83, 19.09 26.91, 0.88 11.18 M42.39 47.26 C30.6 37.67, 19.73 27.51, 0.88 11.18 M48.79 47.53 C36.85 36.15, 26.75 26.68, 1.24 6.19 M48.79 47.53 C33.06 34.83, 18.88 21.88, 1.24 6.19 M54.43 47.13 C39.89 35.22, 22.23 20.5, 3.11 2.52 M54.43 47.13 C40.26 34.55, 26.31 21.37, 3.11 2.52 M60.83 47.39 C45.81 36.03, 30.68 22.44, 8 1.47 M60.83 47.39 C42.68 32.74, 25.59 16.64, 8 1.47 M67.23 47.65 C51.63 36.37, 38.67 23.23, 12.13 -0.24 M67.23 47.65 C46.32 30.48, 26.61 12.27, 12.13 -0.24 M72.87 47.26 C58.09 35.37, 42.76 23.25, 18.53 0.02 M72.87 47.26 C52.77 27.66, 29.86 10.74, 18.53 0.02 M79.27 47.52 C65.96 33.78, 49.21 20.66, 24.17 -0.37 M79.27 47.52 C59.77 31.32, 41.33 14.82, 24.17 -0.37 M85.66 47.78 C72.66 34.69, 59.97 25.5, 30.57 -0.11 M85.66 47.78 C68.4 33.8, 51.22 17.77, 30.57 -0.11 M91.31 47.39 C70.8 28.25, 48.76 11.59, 36.97 0.15 M91.31 47.39 C70.68 29.41, 50.57 12.4, 36.97 0.15 M97.71 47.65 C78.11 28.41, 59.95 13.1, 42.61 -0.24 M97.71 47.65 C78.81 31.28, 58.41 14.32, 42.61 -0.24 M104.1 47.91 C86.11 32.3, 71.69 17.19, 49.01 0.02 M104.1 47.91 C85.66 32.92, 68.19 16.26, 49.01 0.02 M109.75 47.52 C93.01 32.01, 72.58 16.18, 55.41 0.28 M109.75 47.52 C91.76 30.98, 72.07 14.89, 55.41 0.28 M116.14 47.78 C102.41 35.25, 86.47 24.64, 61.05 -0.11 M116.14 47.78 C99.03 32.63, 83.2 19.79, 61.05 -0.11 M122.54 48.04 C104.56 30.29, 84.16 15.56, 67.45 0.15 M122.54 48.04 C104.71 31.73, 86.79 17.02, 67.45 0.15 M128.18 47.64 C111.47 35.5, 98.26 22.47, 73.85 0.41 M128.18 47.64 C113.86 34.78, 100.68 23.64, 73.85 0.41 M134.58 47.91 C111.81 29.9, 89.46 10.73, 79.49 0.01 M134.58 47.91 C114.85 33.11, 97.95 16.49, 79.49 0.01 M140.98 48.17 C120.65 30.07, 102.13 13.76, 85.89 0.28 M140.98 48.17 C120.16 29.57, 101.9 12.09, 85.89 0.28 M146.62 47.77 C126.97 33.55, 109.26 15.39, 92.28 0.54 M146.62 47.77 C135.08 37.89, 122.79 28.39, 92.28 0.54 M153.02 48.03 C138.32 35.05, 119.8 18.89, 97.93 0.14 M153.02 48.03 C138.26 34.44, 121.92 21.34, 97.93 0.14 M159.42 48.3 C136.82 30.21, 116.3 11.62, 104.33 0.4 M159.42 48.3 C140.34 31.52, 120.67 15.56, 104.33 0.4 M164.31 47.25 C153.85 38.24, 142.32 26.73, 110.72 0.66 M164.31 47.25 C150.04 33.07, 134.71 20.54, 110.72 0.66 M167.69 44.88 C154.36 31.69, 139.67 20.48, 116.37 0.27 M167.69 44.88 C147.42 28.55, 129.25 11.66, 116.37 0.27 M170.31 41.86 C157.5 26.99, 140.25 14.37, 122.76 0.53 M170.31 41.86 C156.03 29.75, 140.92 16.16, 122.76 0.53 M170.67 36.88 C160.18 26.6, 145.71 15.82, 128.41 0.14 M170.67 36.88 C156.54 24.86, 144.72 14.54, 128.41 0.14 M171.03 31.89 C159.85 21.75, 151.04 13.47, 134.8 0.4 M171.03 31.89 C160.54 22.6, 150.74 13.4, 134.8 0.4 M171.39 26.9 C164.03 22.06, 158.44 17.17, 141.2 0.66 M171.39 26.9 C161.02 18.04, 149.32 7.28, 141.2 0.66 M171 21.26 C167.47 16.7, 158.65 13.16, 146.85 0.27 M171 21.26 C163.6 14.39, 156.46 8.25, 146.85 0.27 M171.36 16.27 C162.39 10.08, 159.32 4.31, 153.24 0.53 M171.36 16.27 C165.95 10.9, 160.37 5.97, 153.24 0.53 M171.72 11.29 C167.65 8.44, 166.04 8.06, 159.64 0.79 M171.72 11.29 C167.13 7.48, 163.69 2.78, 159.64 0.79" stroke="#fa5252" stroke-width="0.5" fill="none"></path><path d="M12.11 0 C50.22 -1.72, 91.04 0.42, 159.11 0 M12.11 0 C50.79 -0.14, 89.16 -1.13, 159.11 0 M159.11 0 C168.11 -0.7, 169.36 4.94, 171.21 12.11 M159.11 0 C167.13 -1.48, 169.26 5.1, 171.21 12.11 M171.21 12.11 C173.36 22.09, 171.75 29.65, 171.21 36.32 M171.21 12.11 C171.56 20.93, 170.82 28.79, 171.21 36.32 M171.21 36.32 C172.64 43.37, 165.61 49.67, 159.11 48.43 M171.21 36.32 C172.24 43.66, 169.16 46.53, 159.11 48.43 M159.11 48.43 C128.34 49.31, 95.74 48.94, 12.11 48.43 M159.11 48.43 C115.25 46.21, 70.47 47.94, 12.11 48.43 M12.11 48.43 C4.7 49.15, -0.95 45.02, 0 36.32 M12.11 48.43 C4.02 48.86, 1.93 42.64, 0 36.32 M0 36.32 C0.85 28.01, 0.08 18.12, 0 12.11 M0 36.32 C-0.51 27.05, -0.5 17.74, 0 12.11 M0 12.11 C0.84 4.05, 4.04 -1.78, 12.11 0 M0 12.11 C0.58 1.93, 4.2 -1.64, 12.11 0" stroke="#000000" stroke-width="1" fill="none"></path></g><g stroke-linecap="round"><g transform="translate(226.24237534088763 69.7831452376272) rotate(0 1.8788123295561832 320.1084273811864)"><path d="M-1.81 -1.41 C-1.46 105.51, 2.98 533.58, 4.18 640.4 M2.41 3.99 C2.23 111.51, 1.83 537.76, 2.17 644.13" stroke="#000000" stroke-width="1" fill="none"></path></g></g><mask></mask><g stroke-linecap="round"><g transform="translate(222.80967182471613 709.3084857403628) rotate(0 612.5655380736579 0.07853690524029844)"><path d="M0.42 0.18 C205.19 0.32, 1022.57 -0.37, 1226.77 -0.56 M-2.79 -2.19 C201.91 -1.5, 1020.94 2.06, 1225.42 2.68" stroke="#000000" stroke-width="1" fill="none"></path></g></g><mask></mask><g stroke-linecap="round" transform="translate(990 110) rotate(0 84.23585483053671 293.96168394391384)"><path d="M7.86 8.16 C7.86 8.16, 7.86 8.16, 7.86 8.16 M7.86 8.16 C7.86 8.16, 7.86 8.16, 7.86 8.16 M3.66 19.09 C9.74 14.18, 14.54 10.83, 18.1 2.48 M3.66 19.09 C7.59 13.9, 13.41 8.81, 18.1 2.48 M2.75 26.24 C9.06 19.86, 10.54 15.85, 24.4 1.33 M2.75 26.24 C9.58 18.21, 15.07 11.47, 24.4 1.33 M1.83 33.39 C13.32 19.75, 25.66 9.41, 30.7 0.18 M1.83 33.39 C11.93 21.69, 22.89 9.96, 30.7 0.18 M1.57 39.79 C11.53 28.88, 20.41 16.16, 34.37 2.05 M1.57 39.79 C11.02 27.98, 22.25 15.11, 34.37 2.05 M1.96 45.43 C14.82 30.8, 30.93 12.69, 39.36 2.41 M1.96 45.43 C13.12 31.7, 24.05 19.16, 39.36 2.41 M1.7 51.83 C14.52 34.22, 31.35 18.82, 45 2.02 M1.7 51.83 C16.43 34.72, 32.15 18.08, 45 2.02 M1.44 58.23 C20.57 36.55, 37.69 14.97, 49.99 2.38 M1.44 58.23 C17.05 40.91, 33.97 21.27, 49.99 2.38 M1.83 63.87 C17.42 45.92, 33.65 26.41, 55.63 1.98 M1.83 63.87 C19.02 43.08, 36.74 25.03, 55.63 1.98 M1.57 70.27 C20.1 51.05, 35.03 31.67, 60.62 2.34 M1.57 70.27 C16.81 52.17, 32.15 34.52, 60.62 2.34 M1.97 75.91 C23.95 49.9, 45.76 24.47, 66.26 1.95 M1.97 75.91 C25.91 48.58, 50.81 21.16, 66.26 1.95 M1.71 82.31 C30.04 50.48, 55.31 19.44, 71.25 2.31 M1.71 82.31 C16.88 64.21, 33 47.2, 71.25 2.31 M2.1 87.95 C28.46 58.84, 55.31 28.41, 76.89 1.91 M2.1 87.95 C26.86 60.83, 50.89 33.4, 76.89 1.91 M1.84 94.35 C24.45 65.68, 47.42 41.42, 81.88 2.27 M1.84 94.35 C32.08 59.2, 62.55 26.46, 81.88 2.27 M1.58 100.75 C30.78 68.47, 60.8 34.6, 86.86 2.63 M1.58 100.75 C30.5 66.53, 60.39 32.13, 86.86 2.63 M1.97 106.39 C32.53 72.72, 62.88 38.9, 92.51 2.24 M1.97 106.39 C23.74 84.09, 43.16 60.61, 92.51 2.24 M1.71 112.79 C28.84 80.07, 55.59 48.22, 97.49 2.6 M1.71 112.79 C34.53 76.16, 64.71 39.95, 97.49 2.6 M2.1 118.43 C35.75 81.51, 64.78 45.95, 103.14 2.21 M2.1 118.43 C31.99 84.56, 60.19 51.91, 103.14 2.21 M1.84 124.83 C36.08 86.54, 71.79 45.33, 108.12 2.57 M1.84 124.83 C35.88 86.46, 69.62 48.51, 108.12 2.57 M1.58 131.23 C43.83 81.4, 83.23 36.88, 113.77 2.17 M1.58 131.23 C26.67 101.73, 51.37 74.77, 113.77 2.17 M1.98 136.87 C40.73 91.26, 77.39 50.33, 118.76 2.53 M1.98 136.87 C29.75 103.64, 58.84 71.09, 118.76 2.53 M1.72 143.27 C33.27 107.38, 65.59 70.93, 124.4 2.14 M1.72 143.27 C36.74 100.06, 72.95 58.2, 124.4 2.14 M2.11 148.91 C36.57 108.89, 74.58 69.13, 129.39 2.5 M2.11 148.91 C28.97 115.69, 57.16 84.23, 129.39 2.5 M1.85 155.31 C42.3 107.72, 81.78 62.19, 134.37 2.86 M1.85 155.31 C45.63 102.73, 90.84 50.33, 134.37 2.86 M1.59 161.71 C50.6 103.69, 102.19 45.66, 140.02 2.46 M1.59 161.71 C33.57 125.63, 66.16 89.57, 140.02 2.46 M1.98 167.35 C42.59 121.08, 85.78 70.61, 145.66 2.07 M1.98 167.35 C57.52 102.18, 114.89 35.46, 145.66 2.07 M1.72 173.75 C42.05 127.77, 81.08 81.05, 150.65 2.43 M1.72 173.75 C37.66 129.64, 75.6 86.92, 150.65 2.43 M2.11 179.39 C53.86 121.96, 100.38 68.26, 154.32 4.3 M2.11 179.39 C36.96 138.53, 73.29 99.18, 154.32 4.3 M1.85 185.79 C41.41 140.25, 80.25 96.06, 158 6.17 M1.85 185.79 C55.52 126.71, 105.62 68.61, 158 6.17 M1.59 192.19 C59.87 126.91, 114.95 62.77, 161.01 8.79 M1.59 192.19 C42.49 145.33, 81.75 99.07, 161.01 8.79 M1.99 197.83 C50.41 140.97, 97.93 86.99, 163.38 12.17 M1.99 197.83 C51.05 143.92, 98.62 87.55, 163.38 12.17 M1.72 204.23 C52.02 149.38, 99.2 94.47, 166.4 14.79 M1.72 204.23 C62.57 132.81, 126.61 60.69, 166.4 14.79 M2.12 209.87 C63.41 138.19, 123.63 70.39, 168.1 18.93 M2.12 209.87 C47.73 158.54, 90.9 107.57, 168.1 18.93 M1.86 216.27 C51 158.63, 99.46 106.03, 168.5 24.57 M1.86 216.27 C66.89 140.26, 131.52 67.34, 168.5 24.57 M1.6 222.66 C51.2 163.97, 104.22 105.39, 168.24 30.97 M1.6 222.66 C55.07 162.26, 108.42 100.44, 168.24 30.97 M1.99 228.31 C41.64 183.66, 80.21 139.03, 168.63 36.61 M1.99 228.31 C62.69 158.67, 123.04 90.4, 168.63 36.61 M1.73 234.71 C65.21 163.46, 129.61 88.31, 168.37 43.01 M1.73 234.71 C39.11 191.71, 76.72 147.61, 168.37 43.01 M2.12 240.35 C46.88 190.99, 88.51 138.15, 168.11 49.41 M2.12 240.35 C37.23 198.06, 75.13 155.42, 168.11 49.41 M1.86 246.75 C55.09 182.98, 110.44 116.55, 168.5 55.05 M1.86 246.75 C58.37 182.92, 114.03 116.96, 168.5 55.05 M2.26 252.39 C47.81 202.48, 94.4 148.29, 168.24 61.45 M2.26 252.39 C40.08 209.94, 76.63 166.96, 168.24 61.45 M2 258.79 C53.29 198.11, 106.67 137.22, 168.63 67.09 M2 258.79 C49.84 204.83, 96.44 151.2, 168.63 67.09 M1.73 265.19 C66.44 192.19, 133.94 115.82, 168.37 73.49 M1.73 265.19 C43.25 218.38, 84.58 170.65, 168.37 73.49 M2.13 270.83 C62.9 201.4, 125.49 130.7, 168.11 79.89 M2.13 270.83 C45.95 221.12, 89.87 170.76, 168.11 79.89 M1.87 277.23 C48.26 224.91, 94.62 171.14, 168.51 85.53 M1.87 277.23 C50.15 221.71, 98.54 165.5, 168.51 85.53 M2.26 282.87 C54.25 222.8, 108.79 158.78, 168.25 91.93 M2.26 282.87 C63.75 211.74, 124.86 141.84, 168.25 91.93 M2 289.27 C48.45 237.14, 92.2 184.71, 168.64 97.57 M2 289.27 C37.96 248.9, 73.27 208.81, 168.64 97.57 M1.74 295.66 C56.05 236.41, 106.29 173.95, 168.38 103.97 M1.74 295.66 C48.41 242.65, 94.42 191.13, 168.38 103.97 M2.13 301.31 C41.6 257, 80.1 211.87, 168.12 110.37 M2.13 301.31 C64.88 231.88, 125.49 161.82, 168.12 110.37 M1.87 307.71 C46.29 255.42, 89.84 206.54, 168.51 116.01 M1.87 307.71 C54.63 247.26, 106.69 187.08, 168.51 116.01 M2.27 313.35 C47.31 261.61, 92.36 208.57, 168.25 122.41 M2.27 313.35 C62.04 245.6, 121.74 176.01, 168.25 122.41 M2.01 319.75 C34.11 279.37, 70.03 240.51, 168.64 128.05 M2.01 319.75 C39.12 276.82, 76.97 232.72, 168.64 128.05 M1.74 326.14 C46.04 279.44, 85.34 230.4, 168.38 134.45 M1.74 326.14 C55.67 265.86, 109.34 203.15, 168.38 134.45 M2.14 331.79 C55.96 268.63, 111.2 205.58, 168.12 140.85 M2.14 331.79 C38.46 291.07, 73.06 250.08, 168.12 140.85 M1.88 338.19 C45.46 287.28, 87.01 237.18, 168.52 146.49 M1.88 338.19 C36.56 297.73, 70.94 257.84, 168.52 146.49 M2.27 343.83 C65.54 270.26, 128.47 200.38, 168.25 152.89 M2.27 343.83 C42.45 295.55, 84.15 247.58, 168.25 152.89 M2.01 350.23 C62.54 282.08, 120.47 214.68, 168.65 158.53 M2.01 350.23 C53.9 292.06, 104.48 233.64, 168.65 158.53 M1.75 356.62 C42.5 309.17, 83 263.54, 168.39 164.93 M1.75 356.62 C38.43 315.78, 74.71 274.02, 168.39 164.93 M2.14 362.27 C40.52 318.4, 76.45 273.85, 168.13 171.33 M2.14 362.27 C56.57 298.52, 111.67 234.79, 168.13 171.33 M1.88 368.66 C54.48 307.12, 109.91 241.97, 168.52 176.97 M1.88 368.66 C60.14 300.78, 118.03 234.7, 168.52 176.97 M2.28 374.31 C54.13 312.86, 105.8 253.29, 168.26 183.37 M2.28 374.31 C56.88 309.28, 112.83 244.48, 168.26 183.37 M2.02 380.71 C40.94 337.32, 77.15 293.03, 168.65 189.01 M2.02 380.71 C65.36 306.63, 128.11 233.42, 168.65 189.01 M1.75 387.1 C52.6 327.34, 102.41 267.81, 168.39 195.41 M1.75 387.1 C70.39 309.86, 135.67 234.47, 168.39 195.41 M2.15 392.75 C45.6 344.46, 86.32 298.83, 168.79 201.05 M2.15 392.75 C36.47 352.49, 71.28 312.94, 168.79 201.05 M1.89 399.14 C38.49 357.01, 77.62 315.49, 168.53 207.45 M1.89 399.14 C54.98 335.86, 107.52 274.47, 168.53 207.45 M2.28 404.79 C48.74 351.68, 92.56 300.12, 168.26 213.85 M2.28 404.79 C38.35 364.36, 75.79 321.74, 168.26 213.85 M2.02 411.18 C57.9 345.86, 115.78 281.62, 168.66 219.49 M2.02 411.18 C59.93 345.2, 117.41 278.66, 168.66 219.49 M2.41 416.83 C50.79 363.63, 94.91 309.19, 168.4 225.89 M2.41 416.83 C65.23 343.81, 129.09 270.95, 168.4 225.89 M2.15 423.23 C48.95 370.94, 94.46 319.2, 168.79 231.53 M2.15 423.23 C42.7 377.89, 81.86 334.09, 168.79 231.53 M1.89 429.62 C45.03 380.65, 84.89 331.25, 168.53 237.93 M1.89 429.62 C56.89 367.08, 110.54 303.2, 168.53 237.93 M2.29 435.27 C51.63 378.5, 101.24 322.94, 168.27 244.33 M2.29 435.27 C66.15 363.19, 128.76 290.6, 168.27 244.33 M2.02 441.66 C46.09 389.31, 91.71 339.11, 168.66 249.97 M2.02 441.66 C51.17 386.46, 100.94 330.69, 168.66 249.97 M2.42 447.31 C38.07 407.18, 71.82 365.49, 168.4 256.37 M2.42 447.31 C56.77 385.48, 108.17 324.33, 168.4 256.37 M2.16 453.71 C67.18 376.68, 134.03 302.31, 168.8 262.01 M2.16 453.71 C64.62 382.59, 125.61 311.66, 168.8 262.01 M1.9 460.1 C47.43 404.38, 93.07 352.57, 168.54 268.41 M1.9 460.1 C69.38 385.09, 135.71 307.84, 168.54 268.41 M2.29 465.75 C68.7 391.07, 133.74 316.18, 168.27 274.8 M2.29 465.75 C45.73 416.67, 87.16 367.92, 168.27 274.8 M2.03 472.14 C52.47 417.04, 100.66 359.61, 168.67 280.45 M2.03 472.14 C53.7 415.86, 104.64 356.45, 168.67 280.45 M2.42 477.79 C41.97 435.46, 77.93 391.46, 168.41 286.85 M2.42 477.79 C51.74 421.98, 102.17 366.24, 168.41 286.85 M2.16 484.18 C56.46 422.33, 106.14 363.51, 168.8 292.49 M2.16 484.18 C60.5 418.99, 119.27 351.83, 168.8 292.49 M1.9 490.58 C63.19 421.69, 120.97 349.88, 168.54 298.89 M1.9 490.58 C42.52 444.45, 82.62 397.45, 168.54 298.89 M2.3 496.23 C54.55 436.18, 107.49 376.98, 168.28 305.28 M2.3 496.23 C67.21 423.43, 131.32 349.62, 168.28 305.28 M2.03 502.62 C40.9 456.82, 79.81 412.93, 168.67 310.93 M2.03 502.62 C53.96 441.96, 106.89 381.51, 168.67 310.93 M2.43 508.27 C60.5 441.06, 117.28 378.86, 168.41 317.33 M2.43 508.27 C48.49 454.15, 93.52 401.75, 168.41 317.33 M2.17 514.66 C35.28 475.26, 70.18 437.22, 168.81 322.97 M2.17 514.66 C54.45 453.73, 106.27 393.45, 168.81 322.97 M1.91 521.06 C65.89 447.84, 127.03 376.68, 168.55 329.37 M1.91 521.06 C40.17 475.1, 79.95 429.11, 168.55 329.37 M2.3 526.71 C36.97 489.8, 68.1 451.01, 168.28 335.76 M2.3 526.71 C55.48 464.23, 109.09 404.11, 168.28 335.76 M2.04 533.1 C41.99 489.12, 82.43 442.15, 168.68 341.41 M2.04 533.1 C49.53 478.52, 97.57 422.17, 168.68 341.41 M2.43 538.75 C47.18 485.74, 93.45 435.59, 168.42 347.8 M2.43 538.75 C69.49 461.92, 134.92 385.43, 168.42 347.8 M2.17 545.14 C50.57 486.88, 102.31 426.96, 168.81 353.45 M2.17 545.14 C38.75 504.75, 73 463.04, 168.81 353.45 M1.91 551.54 C42.91 505.36, 82.53 458.03, 168.55 359.85 M1.91 551.54 C51.07 496.32, 97.95 440.58, 168.55 359.85 M2.31 557.18 C38.24 516.72, 71.69 480.53, 168.94 365.49 M2.31 557.18 C66.88 482.6, 130.83 410.32, 168.94 365.49 M1.39 564.34 C42.14 516.87, 81.75 470.56, 168.68 371.89 M1.39 564.34 C51.05 506.77, 102.68 447.58, 168.68 371.89 M3.09 568.47 C48.41 515.32, 97 460.39, 168.42 378.28 M3.09 568.47 C59.23 506.33, 112.77 444.43, 168.42 378.28 M4.15 573.36 C68.25 499.37, 132.38 424.35, 168.82 383.93 M4.15 573.36 C44.83 526.87, 87.37 479.39, 168.82 383.93 M6.51 576.74 C65.7 508.42, 121.07 441.52, 168.55 390.32 M6.51 576.74 C39.42 540.54, 72.33 503.08, 168.55 390.32 M8.87 580.12 C61.42 522, 110.97 464.3, 168.95 395.97 M8.87 580.12 C58.42 522.48, 107.86 466.18, 168.95 395.97 M11.89 582.74 C69.17 514.67, 129.73 446.25, 168.69 402.37 M11.89 582.74 C56.34 530.5, 102.9 478.84, 168.69 402.37 M15.56 584.61 C50.43 544.1, 85.95 504.04, 168.43 408.76 M15.56 584.61 C66.62 526.89, 118 467.67, 168.43 408.76 M19.24 586.48 C69.88 525.21, 123.54 465.66, 168.82 414.41 M19.24 586.48 C63.13 535.83, 107.39 485.6, 168.82 414.41 M23.57 587.6 C57.33 548.19, 94.11 508.21, 168.56 420.8 M23.57 587.6 C74.63 527.61, 128.86 466.52, 168.56 420.8 M27.25 589.46 C58.46 556.75, 86.36 523.37, 168.95 426.45 M27.25 589.46 C64.78 546.77, 101.52 501.86, 168.95 426.45 M32.23 589.82 C64.29 552.71, 97.11 513.84, 168.69 432.85 M32.23 589.82 C76.69 537.96, 120.09 487.52, 168.69 432.85 M37.88 589.43 C84.18 535.2, 128.53 482.07, 168.43 439.24 M37.88 589.43 C73.47 549.33, 108.04 508.89, 168.43 439.24 M42.86 589.79 C76.35 554.36, 105.58 518.15, 168.83 444.89 M42.86 589.79 C82.35 546.09, 122.31 501.29, 168.83 444.89 M48.51 589.4 C85.99 545.62, 123.95 505.51, 168.56 451.28 M48.51 589.4 C87.65 546.93, 124.53 504.53, 168.56 451.28 M53.49 589.76 C80.19 556.82, 110.61 524.37, 168.96 456.93 M53.49 589.76 C86.16 549.07, 121.41 510.66, 168.96 456.93 M59.14 589.36 C85.15 558.19, 113.66 523.38, 168.7 463.32 M59.14 589.36 C83.31 561.87, 107.09 534, 168.7 463.32 M64.12 589.72 C98.27 550.96, 133.21 510.56, 168.44 469.72 M64.12 589.72 C88.35 561.8, 113.62 531.56, 168.44 469.72 M69.77 589.33 C101.9 552.36, 134.03 512.34, 168.83 475.37 M69.77 589.33 C103.69 550.51, 138.41 510.53, 168.83 475.37 M74.75 589.69 C108.39 551.1, 144.19 507.2, 168.57 481.76 M74.75 589.69 C109.13 547.61, 145.39 505.85, 168.57 481.76 M80.4 589.29 C107.69 560.51, 132.96 527.18, 168.96 487.41 M80.4 589.29 C105.23 559.21, 132.62 529.74, 168.96 487.41 M85.38 589.65 C117.24 553.34, 148.51 515.51, 168.7 493.8 M85.38 589.65 C113.1 556.36, 142.84 524.02, 168.7 493.8 M90.37 590.01 C111.14 566.14, 133.12 538.76, 168.44 500.2 M90.37 590.01 C119.06 556.51, 148.19 522.56, 168.44 500.2 M96.01 589.62 C118.11 561.45, 139.36 538.61, 168.84 505.85 M96.01 589.62 C111.07 570.01, 126.98 552.25, 168.84 505.85 M101 589.98 C115.47 572.14, 129.43 553.94, 168.57 512.24 M101 589.98 C124.03 564.51, 146.87 537.76, 168.57 512.24 M106.64 589.58 C122.27 570.34, 135.86 553.84, 168.97 517.89 M106.64 589.58 C124.41 569.82, 142.05 550.33, 168.97 517.89 M111.63 589.94 C127.07 576.44, 138.9 558.2, 168.71 524.28 M111.63 589.94 C126.29 573.24, 142.56 554.75, 168.71 524.28 M117.27 589.55 C128.82 575.53, 142.67 561.84, 169.1 529.93 M117.27 589.55 C132.31 572.16, 145 555.99, 169.1 529.93 M122.26 589.91 C135.34 575.8, 150.88 560.33, 168.84 536.32 M122.26 589.91 C135.51 576.75, 146.25 561.72, 168.84 536.32 M127.9 589.51 C139.02 577.8, 148.36 567.93, 168.58 542.72 M127.9 589.51 C141.71 571.74, 157.77 556.28, 168.58 542.72 M132.89 589.87 C141.28 577.95, 151.32 567.03, 168.97 548.37 M132.89 589.87 C147 575.45, 159.01 559.82, 168.97 548.37 M138.53 589.48 C148.23 580.22, 154.47 572.5, 168.71 554.76 M138.53 589.48 C149.55 576.59, 158.88 565.14, 168.71 554.76 M144.83 588.33 C152.64 579.32, 160.75 568.29, 171.07 558.14 M144.83 588.33 C152.35 580.4, 158.71 573.94, 171.07 558.14 M152.44 585.67 C156.21 581.22, 162.6 571.31, 170.16 565.29 M152.44 585.67 C155.75 580.46, 159.75 576.87, 170.16 565.29 M8.38 580.25 C8.38 580.25, 8.38 580.25, 8.38 580.25 M8.38 580.25 C8.38 580.25, 8.38 580.25, 8.38 580.25 M20.81 585.76 C17.17 581.65, 12.33 575.78, 4.21 571.33 M20.81 585.76 C14.14 581.04, 8.13 573.61, 4.21 571.33 M27.96 586.68 C18.69 580.78, 13.95 574.21, 0.79 563.06 M27.96 586.68 C21.33 580.93, 15.3 574.84, 0.79 563.06 M34.36 586.94 C24.69 578.75, 17.42 572.23, 1.15 558.07 M34.36 586.94 C27.75 580.46, 20.59 573.81, 1.15 558.07 M40 586.54 C28.68 576.55, 13.79 565.84, 0.76 552.43 M40 586.54 C25.72 574.28, 10.07 561.83, 0.76 552.43 M46.4 586.81 C31.68 575.78, 19.57 562.39, 1.12 547.44 M46.4 586.81 C37.25 578.11, 26.34 568.85, 1.12 547.44 M52.8 587.07 C34.95 572.98, 17.16 558.15, 0.73 541.8 M52.8 587.07 C41.39 577.71, 28.67 566.82, 0.73 541.8 M58.44 586.67 C44.6 573.3, 31.99 564.88, 1.09 536.81 M58.44 586.67 C35.52 566.19, 13.12 547.42, 1.09 536.81 M64.84 586.93 C45.09 570.82, 30.22 555.49, 0.69 531.17 M64.84 586.93 C44.07 570.14, 23.5 550.6, 0.69 531.17 M70.48 586.54 C49.62 568.91, 27.2 548, 1.05 526.18 M70.48 586.54 C45.48 563.19, 18.12 541.24, 1.05 526.18 M76.88 586.8 C58.92 571.34, 36.48 554.63, 0.66 520.54 M76.88 586.8 C55.58 566.83, 32.64 548.98, 0.66 520.54 M83.28 587.06 C63.18 568.02, 39.65 549.23, 1.02 515.55 M83.28 587.06 C61.26 570.46, 42.36 551.28, 1.02 515.55 M88.92 586.67 C63.28 564.96, 40.7 545.81, 0.62 509.91 M88.92 586.67 C68.18 567.95, 44.61 549.45, 0.62 509.91 M95.32 586.93 C64.8 560.24, 34.79 536.77, 0.98 504.92 M95.32 586.93 C62.15 560.05, 31.46 530.72, 0.98 504.92 M100.96 586.53 C76 565.13, 51.79 540.11, 0.59 499.28 M100.96 586.53 C81.04 568.82, 61.88 551.52, 0.59 499.28 M107.36 586.8 C73.61 557.03, 35.64 525.13, 0.95 494.29 M107.36 586.8 C82.66 566.24, 56.23 544.13, 0.95 494.29 M113.76 587.06 C82.64 559.16, 48.91 529.18, 0.55 488.65 M113.76 587.06 C81.73 559.63, 51.78 531.18, 0.55 488.65 M119.4 586.66 C81.22 550.06, 39.84 518.27, 0.91 483.66 M119.4 586.66 C80.29 552.7, 40.36 518.12, 0.91 483.66 M125.8 586.92 C78.7 543.03, 30.99 503.71, 0.52 478.02 M125.8 586.92 C92.41 557.65, 59.05 528.25, 0.52 478.02 M131.44 586.53 C88.95 547.39, 45.79 510.16, 0.88 473.03 M131.44 586.53 C90.07 549.47, 48.47 512.55, 0.88 473.03 M137.84 586.79 C98.05 552.83, 61.1 518.3, 0.48 467.39 M137.84 586.79 C99.03 553.56, 61.46 521.11, 0.48 467.39 M144.24 587.05 C101.37 548.1, 54.49 510.01, 0.84 462.4 M144.24 587.05 C101.85 550.31, 58.87 512.32, 0.84 462.4 M148.37 585.35 C116.31 559.35, 87.57 531.51, 0.45 456.76 M148.37 585.35 C105.34 548.1, 60.73 509.04, 0.45 456.76 M153.26 584.3 C116.55 553.28, 82.13 521.2, 0.81 451.77 M153.26 584.3 C117.62 553.6, 83.88 524.07, 0.81 451.77 M157.39 582.59 C95.15 529.74, 35.9 476.6, 0.42 446.13 M157.39 582.59 C120.43 550.96, 85.8 520.04, 0.42 446.13 M160.02 579.57 C123.4 545.5, 84.52 516.58, 0.78 441.14 M160.02 579.57 C113.8 538.7, 68.09 498.51, 0.78 441.14 M162.64 576.55 C110.54 531.53, 55.24 482.9, 0.38 435.5 M162.64 576.55 C124.68 541.84, 84.79 507.32, 0.38 435.5 M164.51 572.88 C123.23 534.26, 80.93 497.88, 0.74 430.51 M164.51 572.88 C104.25 521.95, 42.91 469.38, 0.74 430.51 M166.38 569.2 C118.14 526.42, 66.89 484.83, 0.35 424.87 M166.38 569.2 C124.9 534.26, 86.84 499.75, 0.35 424.87 M167.5 564.87 C103.85 511.56, 37.84 453.88, 0.71 419.88 M167.5 564.87 C113.49 517.02, 59.54 470.21, 0.71 419.88 M168.61 560.54 C128.56 523.58, 88.82 487.16, 0.31 414.24 M168.61 560.54 C105.35 505.87, 42.33 450.54, 0.31 414.24 M168.97 555.55 C116.38 507.33, 60.49 462.46, 0.67 409.25 M168.97 555.55 C117.34 510.18, 65.24 464.42, 0.67 409.25 M168.58 549.91 C115.11 505.91, 64.55 461.01, 1.03 404.26 M168.58 549.91 C112.44 501.57, 53.17 449.97, 1.03 404.26 M168.94 544.92 C115.05 500.95, 64.56 454.47, 0.64 398.62 M168.94 544.92 C119.53 502.97, 70.7 460.91, 0.64 398.62 M168.54 539.28 C114.88 495.12, 59.95 449, 1 393.63 M168.54 539.28 C119.99 496.12, 69.2 451.25, 1 393.63 M168.9 534.29 C133.08 503.73, 98.22 470.92, 0.6 387.99 M168.9 534.29 C114.42 486.9, 59.65 440.54, 0.6 387.99 M168.51 528.65 C124.87 489.97, 81.36 453.39, 0.96 383 M168.51 528.65 C115.92 483.73, 61.95 437.63, 0.96 383 M168.87 523.66 C128.25 487.39, 88.73 452.55, 0.57 377.36 M168.87 523.66 C126.22 487.83, 84.47 450.14, 0.57 377.36 M168.47 518.02 C101.98 459.62, 33.31 403.37, 0.93 372.37 M168.47 518.02 C114.56 468.79, 58.9 420.88, 0.93 372.37 M168.83 513.03 C102.69 455.44, 35.5 397.63, 0.53 366.73 M168.83 513.03 C133.23 481.49, 95.46 449.72, 0.53 366.73 M169.19 508.05 C135.42 479.46, 99.41 447.68, 0.89 361.74 M169.19 508.05 C131.35 474.62, 94.6 442.58, 0.89 361.74 M168.8 502.4 C126.19 464.78, 80.48 424.1, 0.5 356.1 M168.8 502.4 C109.25 448.97, 48.27 396.25, 0.5 356.1 M169.16 497.42 C136.8 470.48, 100.89 438.44, 0.86 351.11 M169.16 497.42 C115.46 451.75, 60.18 404.89, 0.86 351.11 M168.76 491.77 C135.18 459.6, 98.6 430.42, 0.46 345.47 M168.76 491.77 C113.36 445.79, 60.57 399.73, 0.46 345.47 M169.13 486.78 C118.83 440.96, 66.11 398.94, 0.82 340.48 M169.13 486.78 C118.88 444.97, 71.44 402.33, 0.82 340.48 M168.73 481.14 C110.45 427.82, 50.39 375.08, 0.43 334.84 M168.73 481.14 C116.14 432.9, 61.81 386.3, 0.43 334.84 M169.09 476.15 C113.79 431.73, 62.66 383, 0.79 329.85 M169.09 476.15 C129.39 440.43, 88.53 405.45, 0.79 329.85 M168.7 470.51 C128.12 434.43, 83.35 395.15, 0.4 324.21 M168.7 470.51 C120.3 428.04, 72.1 386.53, 0.4 324.21 M169.06 465.52 C133.68 435.54, 99.84 405.46, 0.76 319.22 M169.06 465.52 C129.08 430.01, 87.59 394.64, 0.76 319.22 M168.66 459.88 C104.22 405.15, 41.36 349.84, 0.36 313.58 M168.66 459.88 C111.62 411.68, 55.34 362.97, 0.36 313.58 M169.02 454.89 C133.08 422.44, 95.42 390.79, 0.72 308.59 M169.02 454.89 C102.77 399.03, 36.84 341.84, 0.72 308.59 M168.63 449.25 C132.8 414.49, 94.98 383.1, 0.33 302.95 M168.63 449.25 C119.91 404.9, 71.17 362.91, 0.33 302.95 M168.99 444.26 C102.34 386.71, 35.67 327.71, 0.69 297.96 M168.99 444.26 C112.3 394.68, 55.03 345.24, 0.69 297.96 M168.59 438.62 C128.06 403.54, 87.93 370.27, 0.29 292.32 M168.59 438.62 C109.03 385.99, 48.88 332.62, 0.29 292.32 M168.95 433.63 C126.3 397.95, 84.64 360.66, 0.65 287.33 M168.95 433.63 C102.53 376.19, 35.77 320.21, 0.65 287.33 M168.56 427.99 C122.74 385.7, 74.13 343.31, 0.26 281.69 M168.56 427.99 C126.51 392.11, 86.8 355.78, 0.26 281.69 M168.92 423 C124.24 386.58, 81.95 345.56, 0.62 276.7 M168.92 423 C106.23 368.16, 42.69 313.58, 0.62 276.7 M168.52 417.36 C112.85 366.67, 51.54 315.29, 0.22 271.06 M168.52 417.36 C125.44 381.41, 85.63 344.39, 0.22 271.06 M168.88 412.37 C130.08 380.68, 95.35 349.12, 0.58 266.07 M168.88 412.37 C101.63 355.88, 35.39 298.29, 0.58 266.07 M168.49 406.73 C126.76 368.31, 81.74 330.85, 0.19 260.43 M168.49 406.73 C106.23 353.82, 45.1 299.81, 0.19 260.43 M168.85 401.74 C126.01 364.94, 83 326.17, 0.55 255.44 M168.85 401.74 C124.61 361.94, 79.63 324.86, 0.55 255.44 M168.45 396.1 C105.14 342.1, 41.69 287.63, 0.15 249.8 M168.45 396.1 C103.68 339.75, 35.92 281.67, 0.15 249.8 M168.81 391.11 C133.74 359.18, 95.57 324.78, 0.51 244.81 M168.81 391.11 C124.31 354.21, 78.18 314.87, 0.51 244.81 M168.42 385.47 C123.78 344.91, 79.37 305.81, 0.87 239.83 M168.42 385.47 C131.86 352.45, 94.35 321.68, 0.87 239.83 M168.78 380.48 C114.74 335.29, 62.25 286.91, 0.48 234.18 M168.78 380.48 C131.17 347.49, 93.73 314.98, 0.48 234.18 M168.39 374.84 C126.42 337.4, 79.5 299.53, 0.84 229.2 M168.39 374.84 C115.13 327.55, 61.6 280.82, 0.84 229.2 M168.75 369.85 C128.47 337.57, 89.97 303.92, 0.45 223.55 M168.75 369.85 C132.82 339.77, 98.49 308.43, 0.45 223.55 M168.35 364.21 C117.21 318.24, 66.6 276.54, 0.81 218.57 M168.35 364.21 C121.39 322.87, 73.61 281.32, 0.81 218.57 M168.71 359.22 C127.63 323.84, 87.42 289.88, 0.41 212.92 M168.71 359.22 C129.02 325.52, 91.57 292.79, 0.41 212.92 M168.32 353.58 C127.98 315.91, 86.22 278.32, 0.77 207.94 M168.32 353.58 C122.52 315.07, 77.59 276.86, 0.77 207.94 M168.68 348.59 C119.81 306.69, 71.19 264.76, 0.38 202.29 M168.68 348.59 C112.03 297.86, 53.93 248.62, 0.38 202.29 M169.04 343.61 C132.23 312.64, 96.46 281.22, 0.74 197.31 M169.04 343.61 C108.73 291.9, 49.89 239.87, 0.74 197.31 M168.64 337.96 C118.12 290.76, 65.98 247.91, 0.34 191.66 M168.64 337.96 C109.9 287.72, 49.07 234.6, 0.34 191.66 M169 332.98 C132.07 300.67, 91.97 265.83, 0.7 186.68 M169 332.98 C135.83 303.57, 101.61 273.19, 0.7 186.68 M168.61 327.33 C117 280.38, 66.95 237.17, 0.31 181.03 M168.61 327.33 C115.35 280.39, 62.6 232.59, 0.31 181.03 M168.97 322.35 C111.97 271.15, 53.69 221.51, 0.67 176.05 M168.97 322.35 C106.52 267.85, 43.34 213.56, 0.67 176.05 M168.57 316.7 C121.72 278.3, 75.78 236.14, 0.27 170.4 M168.57 316.7 C132.55 284.25, 94.28 251.65, 0.27 170.4 M168.93 311.72 C105.45 259.04, 46.12 204.79, 0.63 165.42 M168.93 311.72 C134.13 280.67, 97.95 250.12, 0.63 165.42 M168.54 306.07 C119.78 264.46, 72.47 221.65, 0.24 159.77 M168.54 306.07 C118.53 260.19, 66.25 215.34, 0.24 159.77 M168.9 301.09 C120.31 255.85, 68.49 209.78, 0.6 154.79 M168.9 301.09 C103.28 244.98, 40.31 190.86, 0.6 154.79 M168.5 295.44 C105.82 239.14, 39.79 184.43, 0.2 149.14 M168.5 295.44 C107.33 242.11, 47.72 189.74, 0.2 149.14 M168.86 290.46 C114.96 243.58, 61.78 196.07, 0.56 144.16 M168.86 290.46 C115.56 245.81, 63.73 199.91, 0.56 144.16 M168.47 284.81 C119.93 242.34, 72.79 202.59, 0.17 138.51 M168.47 284.81 C134.81 253.75, 99.04 222, 0.17 138.51 M168.83 279.83 C104.12 222.75, 40.69 167.56, 0.53 133.53 M168.83 279.83 C108.7 226.86, 47.4 173.84, 0.53 133.53 M168.44 274.18 C112.71 227.59, 61.4 183.87, 0.13 127.88 M168.44 274.18 C130.26 239.2, 93.04 206.32, 0.13 127.88 M168.8 269.2 C135.58 237.63, 101.13 208.84, 0.5 122.9 M168.8 269.2 C125.4 231.28, 82.83 194.97, 0.5 122.9 M168.4 263.55 C124.91 226.1, 82.71 190.64, 0.1 117.25 M168.4 263.55 C129.2 227.71, 88.74 192.41, 0.1 117.25 M168.76 258.57 C113.66 210.51, 54.99 158.57, 0.46 112.26 M168.76 258.57 C130.37 225.77, 92.04 192.83, 0.46 112.26 M168.37 252.92 C123.5 212.41, 75.32 173.93, 0.07 106.62 M168.37 252.92 C131.27 222.16, 95.61 190.53, 0.07 106.62 M168.73 247.94 C128.36 214.12, 89.48 177.09, 0.43 101.63 M168.73 247.94 C120.16 206.43, 70.6 162.77, 0.43 101.63 M168.33 242.29 C133.56 211.8, 99.28 179.79, 0.03 95.99 M168.33 242.29 C108.46 189.52, 47.72 137.02, 0.03 95.99 M168.69 237.31 C137.19 209.57, 101.57 178.8, 0.39 91 M168.69 237.31 C101.54 178.34, 35.53 122.28, 0.39 91 M168.3 231.66 C120.19 187.68, 69.25 144.59, 0 85.36 M168.3 231.66 C129.14 196.69, 89.55 163.5, 0 85.36 M168.66 226.68 C124.13 188.46, 76.59 149.01, 0.36 80.37 M168.66 226.68 C128.4 192.76, 90.96 159.36, 0.36 80.37 M168.26 221.03 C128.5 187.05, 87.43 151.67, 0.72 75.39 M168.26 221.03 C130.55 187.61, 91.13 152.9, 0.72 75.39 M168.62 216.05 C118.17 173.07, 69.21 129.48, 0.32 69.74 M168.62 216.05 C132.75 181.9, 95.68 149.44, 0.32 69.74 M168.23 210.4 C113.58 160.79, 56.79 114.2, 0.68 64.76 M168.23 210.4 C118.18 165.46, 65.46 120.05, 0.68 64.76 M168.59 205.42 C123.75 165.12, 76.53 126.72, 0.29 59.11 M168.59 205.42 C105.32 150.54, 40.9 95.84, 0.29 59.11 M168.19 199.77 C115.06 153.9, 58.78 106.43, 0.65 54.13 M168.19 199.77 C123.83 160.98, 82.08 124.59, 0.65 54.13 M168.55 194.79 C132.76 166.62, 97.93 137.21, 0.25 48.48 M168.55 194.79 C103.57 136.5, 36.3 79.05, 0.25 48.48 M168.16 189.14 C105.8 135.17, 43.36 82.1, 0.61 43.5 M168.16 189.14 C131.98 159.13, 96.99 129.51, 0.61 43.5 M168.52 184.16 C127.03 149.23, 86.26 112.37, 0.22 37.85 M168.52 184.16 C104.01 130.2, 42.73 75.64, 0.22 37.85 M168.88 179.17 C122.02 138.2, 73.02 93.28, 0.58 32.87 M168.88 179.17 C109.13 126.56, 49.41 73.95, 0.58 32.87 M168.48 173.53 C104.75 118.97, 38.78 64.04, 0.94 27.88 M168.48 173.53 C117.37 128.34, 64.99 83.55, 0.94 27.88 M168.84 168.54 C118.5 123.38, 68.64 82.46, 1.3 22.89 M168.84 168.54 C132.38 137.04, 95.16 105.21, 1.3 22.89 M168.45 162.9 C116.5 118.33, 66.63 73.61, 2.41 18.56 M168.45 162.9 C105.18 105.45, 39.92 49.48, 2.41 18.56 M168.81 157.91 C124.04 122.22, 80.86 82.62, 4.28 14.89 M168.81 157.91 C106.52 103.83, 44.33 50.09, 4.28 14.89 M168.42 152.27 C108.37 99.22, 46.53 45.12, 6.15 11.21 M168.42 152.27 C119.9 109.63, 71.77 66.81, 6.15 11.21 M168.78 147.28 C124.65 109.51, 82.59 71.98, 8.02 7.54 M168.78 147.28 C112.5 99.16, 57.47 50, 8.02 7.54 M168.38 141.64 C131.48 110.79, 96.87 79.55, 12.16 5.83 M168.38 141.64 C118.64 98.66, 70.62 55.43, 12.16 5.83 M168.74 136.65 C131.45 102.36, 95.4 72.9, 15.54 3.47 M168.74 136.65 C122.91 96.17, 76.9 55.77, 15.54 3.47 M168.35 131 C111.08 82.79, 52.21 29.94, 19.67 1.76 M168.35 131 C136.35 104.15, 106.43 75.81, 19.67 1.76 M168.71 126.02 C126.41 84.52, 77.89 46.4, 24.56 0.71 M168.71 126.02 C120.43 85.35, 72.06 43.5, 24.56 0.71 M168.31 120.37 C132.7 90.41, 98.49 59.27, 30.2 0.32 M168.31 120.37 C118.4 76.34, 68 32.75, 30.2 0.32 M168.67 115.39 C132.02 83.88, 92.31 50.94, 35.09 -0.73 M168.67 115.39 C141.11 91.21, 111.77 66.85, 35.09 -0.73 M168.28 109.74 C132.16 76.99, 92.41 44.84, 41.49 -0.47 M168.28 109.74 C138.03 83.73, 108.69 57.36, 41.49 -0.47 M168.64 104.76 C128.99 69.89, 87.87 33.41, 47.88 -0.21 M168.64 104.76 C139.59 81.68, 112.56 57.11, 47.88 -0.21 M168.24 99.11 C132.96 69.32, 95.36 37.7, 53.53 -0.61 M168.24 99.11 C135.01 70.59, 102.6 41.96, 53.53 -0.61 M168.6 94.13 C130.95 62.59, 95.95 32.77, 59.93 -0.34 M168.6 94.13 C131.99 60.18, 95.17 28.01, 59.93 -0.34 M168.21 88.48 C138.2 61.78, 109.69 36.26, 66.32 -0.08 M168.21 88.48 C141.38 62.98, 112.77 40.04, 66.32 -0.08 M168.57 83.5 C140.45 58.56, 108.95 29.59, 71.97 -0.48 M168.57 83.5 C145.61 64.04, 122.89 44.59, 71.97 -0.48 M168.17 77.85 C134.04 49.05, 96.36 18.31, 78.36 -0.22 M168.17 77.85 C136.48 52.41, 106.15 24.45, 78.36 -0.22 M168.53 72.87 C149.86 56.23, 132.19 41.84, 84.76 0.04 M168.53 72.87 C148.69 55.03, 127.03 37.47, 84.76 0.04 M168.14 67.22 C138.13 39.22, 107.32 15.73, 90.4 -0.35 M168.14 67.22 C140.82 44.24, 113.06 20.87, 90.4 -0.35 M168.5 62.24 C144.72 42.31, 123.5 21.28, 96.8 -0.09 M168.5 62.24 C150.42 46.57, 132.98 32.69, 96.8 -0.09 M168.11 56.59 C142.84 34.21, 119.7 14.98, 103.2 0.17 M168.11 56.59 C147.54 39.79, 124.75 20.94, 103.2 0.17 M168.47 51.61 C156.04 40.79, 143.4 28.48, 108.84 -0.22 M168.47 51.61 C145.78 32.8, 122.56 13.23, 108.84 -0.22 M168.07 45.96 C151.96 32.23, 138.29 19.31, 115.24 0.04 M168.07 45.96 C157.57 35.02, 145.53 26.32, 115.24 0.04 M168.43 40.98 C157.11 31.2, 144.12 18.58, 120.88 -0.35 M168.43 40.98 C153.26 28.59, 139.13 16.3, 120.88 -0.35 M168.04 35.33 C157.58 27.21, 151.56 22.05, 127.28 -0.09 M168.04 35.33 C153.92 23.17, 140.01 9.51, 127.28 -0.09 M168.4 30.35 C160.07 22.78, 147.87 12.81, 133.68 0.17 M168.4 30.35 C156.5 19.63, 145.3 9.95, 133.68 0.17 M168 24.7 C162.63 20.21, 155.71 14.32, 139.32 -0.23 M168 24.7 C158.49 15.03, 148.13 7.37, 139.32 -0.23 M166.85 18.4 C160.84 12.4, 151.9 6.78, 146.48 0.69 M166.85 18.4 C160.13 12.06, 151.17 4.89, 146.48 0.69" stroke="#15aabf" stroke-width="0.5" fill="none"></path><path d="M32 0 C73.46 -0.73, 114.11 -1.44, 136.47 0 M32 0 C58.23 0.82, 86.29 -0.28, 136.47 0 M136.47 0 C156.1 0.93, 169.25 12.1, 168.47 32 M136.47 0 C159.51 2.27, 170.51 11.09, 168.47 32 M168.47 32 C169.7 218.75, 169.77 404.81, 168.47 555.92 M168.47 32 C169.65 218.12, 170.14 403.62, 168.47 555.92 M168.47 555.92 C170.19 575.61, 156.24 586.87, 136.47 587.92 M168.47 555.92 C170.72 579.37, 157.16 590.05, 136.47 587.92 M136.47 587.92 C108.09 590, 81.75 589.77, 32 587.92 M136.47 587.92 C95.38 588.62, 55.22 588.49, 32 587.92 M32 587.92 C12.34 586.41, 1.86 578.51, 0 555.92 M32 587.92 C11.38 589.08, 1.39 577.52, 0 555.92 M0 555.92 C-1.43 376.41, -1.74 197.36, 0 32 M0 555.92 C-0.88 383.68, -0.78 211.79, 0 32 M0 32 C0.14 9.24, 11.85 0, 32 0 M0 32 C-0.94 11.88, 12.72 0.71, 32 0" stroke="#000000" stroke-width="1" fill="none"></path></g><g stroke-linecap="round"><g transform="translate(517.6039184008237 783.0031926408851) rotate(0 24.902832762697585 8.289450464262018)" fill-rule="evenodd"><path d="M0.34 -0.81 L5.93 -7.58 L1.56 -13.26 L10.05 -20.18 L14.66 -13.92 L22.99 -19.15 L24.79 -24.17 L32.24 -22.61 L34.43 -17.39 L39.09 -12.98 L48.58 -16.54 L51.96 -8.1 L49.74 -2.05 L49.77 6.44 L57.28 9.37 L56.95 16.87 L49.62 15 L45.62 24.53 L47.09 30.31 L41.66 34.3 L36.52 31.21 L28.42 32.31 L27.16 42.1 L15.84 40.79 L14.47 32.27 L6.89 29.33 L1.58 31.67 L-2.83 24.64 L0.53 19.96 L0.05 12.24 L-9.12 7.7 L-6.25 2.58 L1.33 -1.36" stroke="none" stroke-width="0" fill="#e1effc" fill-rule="evenodd"></path><path d="M0 0 C1.07 -2.26, 3.05 -5.49, 4.34 -7.07 M0 0 C1.26 -2.81, 3.49 -5.29, 4.34 -7.07 M4.34 -7.07 C3.07 -8.04, 3.03 -9.29, 1.81 -13.06 M4.34 -7.07 C3.53 -9.28, 2.3 -11.37, 1.81 -13.06 M1.81 -13.06 C2.87 -14.05, 6.62 -15.39, 9.7 -18.74 M1.81 -13.06 C3.45 -14.65, 5.83 -15.43, 9.7 -18.74 M9.7 -18.74 C11.8 -17.1, 13.01 -16.09, 14.49 -15.31 M9.7 -18.74 C11.44 -17.45, 12.57 -16.75, 14.49 -15.31 M14.49 -15.31 C16.9 -15.96, 19.63 -17.6, 22.16 -17.6 M14.49 -15.31 C16.81 -16.23, 19.86 -17.11, 22.16 -17.6 M22.16 -17.6 C23.22 -19.19, 23.03 -21.86, 24.23 -23.91 M22.16 -17.6 C22.8 -19.86, 23.31 -21.62, 24.23 -23.91 M24.23 -23.91 C26.56 -23.81, 28.99 -23.89, 32.41 -23 M24.23 -23.91 C25.7 -23.58, 27.73 -23.23, 32.41 -23 M32.41 -23 C32.91 -21.85, 32.57 -20.76, 33.36 -17.39 M32.41 -23 C32.78 -21.6, 33.01 -19.95, 33.36 -17.39 M33.36 -17.39 C35.76 -16.4, 37.02 -15.81, 40.78 -12.93 M33.36 -17.39 C35.28 -16.1, 37.66 -15.22, 40.78 -12.93 M40.78 -12.93 C42.94 -13.81, 44.14 -13.61, 47.62 -15.21 M40.78 -12.93 C43 -14.02, 45.22 -14.85, 47.62 -15.21 M47.62 -15.21 C48.72 -12.66, 51.28 -11.53, 52.56 -9.12 M47.62 -15.21 C49.05 -13.49, 50.85 -10.96, 52.56 -9.12 M52.56 -9.12 C50.82 -7.21, 49.63 -4.79, 49.05 -3.61 M52.56 -9.12 C51.37 -7.38, 50.24 -5.73, 49.05 -3.61 M49.05 -3.61 C49.89 -1.89, 50.98 0.92, 51.42 4.56 M49.05 -3.61 C49.68 -0.1, 50.97 2.79, 51.42 4.56 M51.42 4.56 C52.19 4.88, 54.43 5.13, 57.41 7.51 M51.42 4.56 C53.71 5.49, 55.62 6.91, 57.41 7.51 M57.41 7.51 C57.67 10.65, 57.2 14.02, 56.36 15.78 M57.41 7.51 C57.37 10.82, 56.33 12.95, 56.36 15.78 M56.36 15.78 C53.68 16.31, 52.3 16.82, 50.38 16.92 M56.36 15.78 C54.7 15.97, 52.37 16.43, 50.38 16.92 M50.38 16.92 C49.36 18.74, 48.94 21.78, 45.91 24.9 M50.38 16.92 C48.44 19.87, 47.64 22.37, 45.91 24.9 M45.91 24.9 C46.24 25.76, 46.9 27.34, 48.38 30.23 M45.91 24.9 C46.43 25.82, 47.23 27.39, 48.38 30.23 M48.38 30.23 C45.19 31.62, 43.6 35.16, 42.2 35.55 M48.38 30.23 C46.98 31.53, 45.01 33.03, 42.2 35.55 M42.2 35.55 C40.85 34.61, 39.11 34.11, 37.16 32.13 M42.2 35.55 C40.47 34.81, 38.99 33.29, 37.16 32.13 M37.16 32.13 C35.43 31.96, 32.69 33.03, 28.7 34.22 M37.16 32.13 C34.75 32.76, 31.57 33.41, 28.7 34.22 M28.7 34.22 C27.54 36.17, 27.08 36.85, 25.76 40.49 M28.7 34.22 C28.09 36.06, 27.57 37.54, 25.76 40.49 M25.76 40.49 C23.38 39.41, 22.69 40.52, 17.3 39.16 M25.76 40.49 C22.46 40.21, 19.62 39.84, 17.3 39.16 M17.3 39.16 C16.42 37.18, 16.83 35.67, 16.25 32.7 M17.3 39.16 C16.92 37.32, 16.86 34.76, 16.25 32.7 M16.25 32.7 C15.01 31.7, 12.8 30.77, 8.74 29.66 M16.25 32.7 C13.6 31.32, 10.64 30.1, 8.74 29.66 M8.74 29.66 C7.68 30.52, 6.5 30.18, 3.23 31.46 M8.74 29.66 C7.47 30.09, 5.58 30.81, 3.23 31.46 M3.23 31.46 C1.93 30.17, 0.52 28.79, -1.71 25.76 M3.23 31.46 C1.59 29.85, 0.85 28.74, -1.71 25.76 M-1.71 25.76 C-0.93 24.5, -0.59 22.37, 1.05 19.87 M-1.71 25.76 C-0.97 23.82, 0.3 21.85, 1.05 19.87 M1.05 19.87 C0.46 17.8, -0.17 16.3, -1.24 11.98 M1.05 19.87 C0.55 16.67, -0.69 13.64, -1.24 11.98 M-1.24 11.98 C-2.69 10.3, -5.16 10.4, -7.6 8.55 M-1.24 11.98 C-3.4 11.11, -5.24 9.78, -7.6 8.55 M-7.6 8.55 C-7.3 5.72, -6.02 2.34, -6.27 1.43 M-7.6 8.55 C-6.81 5.97, -6.49 3.08, -6.27 1.43 M-6.27 1.43 C-4.3 0.92, -1.4 0.35, 0 0 M-6.27 1.43 C-3.88 1.21, -1.37 0.62, 0 0 M0 0 C0 0, 0 0, 0 0 M0 0 C0 0, 0 0, 0 0" stroke="#aaa" stroke-width="1" fill="none"></path></g></g><mask></mask><g stroke-linecap="round" transform="translate(522.6162355086431 771.316884729406) rotate(0 19.686493995691265 19.686493995691308)"><path d="M15.14 0.08 C18.92 -1.06, 24.77 0.23, 28.5 2.28 C32.23 4.32, 35.85 8.54, 37.54 12.36 C39.22 16.18, 39.77 21.13, 38.62 25.2 C37.46 29.26, 34.23 34.37, 30.59 36.74 C26.95 39.11, 20.95 39.97, 16.76 39.41 C12.56 38.85, 8.24 36.52, 5.41 33.38 C2.58 30.25, 0.05 24.94, -0.22 20.62 C-0.49 16.3, 1.01 10.87, 3.78 7.48 C6.55 4.08, 14.13 1.42, 16.39 0.24 C18.65 -0.94, 17.32 0.1, 17.33 0.42 M21.07 -0.23 C25.06 -0.18, 29.34 2.39, 32.32 5.35 C35.3 8.31, 38.41 13.29, 38.96 17.55 C39.51 21.81, 37.77 27.36, 35.63 30.9 C33.49 34.44, 30.04 37.68, 26.12 38.78 C22.21 39.88, 16.16 39.2, 12.15 37.51 C8.15 35.82, 4.04 32.29, 2.1 28.64 C0.16 24.99, -0.48 19.76, 0.5 15.6 C1.48 11.44, 4.6 6.3, 7.96 3.67 C11.33 1.05, 18.65 0.45, 20.69 -0.17 C22.73 -0.79, 20.13 -0.46, 20.21 -0.03" stroke="none" stroke-width="0" fill="#c9d5e1"></path><path d="M17.5 -0.32 C21.37 -0.98, 27.02 1.3, 30.54 3.68 C34.07 6.06, 37.45 9.96, 38.68 13.95 C39.91 17.95, 39.75 23.7, 37.93 27.66 C36.12 31.62, 31.64 35.79, 27.79 37.72 C23.94 39.65, 18.79 40.27, 14.81 39.21 C10.83 38.16, 6.34 34.85, 3.92 31.38 C1.5 27.91, 0.07 22.68, 0.29 18.37 C0.51 14.05, 2.28 8.59, 5.23 5.49 C8.18 2.39, 15.72 0.61, 18 -0.23 C20.28 -1.07, 18.91 0.05, 18.93 0.45 M24.14 1.08 C27.98 1.79, 32.54 4.22, 35.17 7.6 C37.79 10.97, 40.02 17.18, 39.89 21.33 C39.76 25.49, 37.25 29.45, 34.38 32.53 C31.51 35.61, 26.82 39.22, 22.67 39.82 C18.52 40.42, 13.06 38.51, 9.48 36.13 C5.91 33.75, 2.55 29.59, 1.21 25.54 C-0.13 21.48, -0.25 15.64, 1.43 11.8 C3.12 7.97, 7.61 4.5, 11.3 2.51 C14.99 0.52, 21.38 0.12, 23.57 -0.12 C25.76 -0.37, 24.37 0.66, 24.44 1.06" stroke="transparent" stroke-width="1" fill="none"></path></g><g stroke-linecap="round"><g transform="translate(605.3148786006218 784.1910467933199) rotate(0 9.289463832266136 3.0922004340193325)" fill-rule="evenodd"><path d="M-0.12 -0.1 L1.79 -3.36 L0.76 -4.18 L4.03 -7.76 L5.69 -5.84 L8.18 -6.37 L9.57 -8.92 L11.25 -8.61 L12.93 -7.15 L14.91 -4.31 L18.11 -4.89 L18.78 -2.47 L18.23 -0.42 L19.48 2.25 L21.04 1.84 L20.88 5.7 L18.15 6.36 L16.85 8.66 L17.73 10.82 L15.6 12.31 L14.56 12.79 L9.98 13.58 L8.72 14.89 L5.52 14.44 L5.24 12.3 L2.7 10.5 L0.95 11.78 L0.01 9.74 L-0.37 6.98 L-0.45 5.04 L-2.17 2.51 L-1.37 1.16 L0.61 -0.4" stroke="none" stroke-width="0" fill="#e1effc" fill-rule="evenodd"></path><path d="M0 0 C0.67 -0.8, 1.04 -1.9, 1.62 -2.64 M0 0 C0.37 -0.65, 0.84 -1.47, 1.62 -2.64 M1.62 -2.64 C1.32 -3.41, 0.99 -4.24, 0.68 -4.87 M1.62 -2.64 C1.37 -3.21, 1.19 -3.75, 0.68 -4.87 M0.68 -4.87 C1.55 -5.62, 2.81 -6.4, 3.62 -6.99 M0.68 -4.87 C1.47 -5.5, 2.26 -5.9, 3.62 -6.99 M3.62 -6.99 C4.33 -6.53, 4.97 -5.95, 5.41 -5.71 M3.62 -6.99 C4.27 -6.52, 4.9 -6.09, 5.41 -5.71 M5.41 -5.71 C6.39 -5.93, 7.17 -6.36, 8.26 -6.57 M5.41 -5.71 C6.2 -5.91, 6.85 -6.11, 8.26 -6.57 M8.26 -6.57 C8.63 -7.43, 8.84 -8.45, 9.04 -8.92 M8.26 -6.57 C8.46 -7.11, 8.64 -7.76, 9.04 -8.92 M9.04 -8.92 C9.77 -8.7, 10.68 -8.85, 12.09 -8.58 M9.04 -8.92 C9.96 -8.75, 11.08 -8.67, 12.09 -8.58 M12.09 -8.58 C12.17 -7.95, 12.32 -7.3, 12.45 -6.49 M12.09 -8.58 C12.16 -8.1, 12.32 -7.52, 12.45 -6.49 M12.45 -6.49 C13.2 -6.05, 14.03 -5.56, 15.21 -4.82 M12.45 -6.49 C13.28 -6.03, 14.17 -5.4, 15.21 -4.82 M15.21 -4.82 C15.94 -5.17, 16.52 -5.34, 17.76 -5.67 M15.21 -4.82 C15.78 -4.95, 16.38 -5.23, 17.76 -5.67 M17.76 -5.67 C18.54 -4.78, 19.18 -4.06, 19.61 -3.4 M17.76 -5.67 C18.18 -5.28, 18.56 -4.81, 19.61 -3.4 M19.61 -3.4 C19.24 -2.82, 18.97 -2.3, 18.3 -1.35 M19.61 -3.4 C19.17 -2.79, 18.72 -2.08, 18.3 -1.35 M18.3 -1.35 C18.65 -0.48, 18.65 -0.05, 19.18 1.7 M18.3 -1.35 C18.57 -0.13, 19.03 0.97, 19.18 1.7 M19.18 1.7 C19.84 1.9, 20.38 2.35, 21.42 2.8 M19.18 1.7 C19.83 2, 20.38 2.33, 21.42 2.8 M21.42 2.8 C21.39 3.58, 21.24 4.79, 21.03 5.89 M21.42 2.8 C21.3 4.05, 21.17 5.15, 21.03 5.89 M21.03 5.89 C20.34 6.01, 19.61 6.23, 18.79 6.31 M21.03 5.89 C20.44 6, 19.92 6.11, 18.79 6.31 M18.79 6.31 C18.44 7.04, 17.92 7.79, 17.13 9.29 M18.79 6.31 C18.17 7.34, 17.62 8.3, 17.13 9.29 M17.13 9.29 C17.26 9.75, 17.57 10.27, 18.05 11.27 M17.13 9.29 C17.39 9.77, 17.59 10.11, 18.05 11.27 M18.05 11.27 C17.52 11.64, 16.99 12.2, 15.74 13.26 M18.05 11.27 C17.37 11.88, 16.74 12.4, 15.74 13.26 M15.74 13.26 C15.19 12.79, 14.59 12.42, 13.86 11.98 M15.74 13.26 C14.95 12.7, 14.25 12.24, 13.86 11.98 M13.86 11.98 C13.19 12.21, 12.42 12.48, 10.71 12.76 M13.86 11.98 C12.89 12.16, 12.07 12.37, 10.71 12.76 M10.71 12.76 C10.21 13.76, 9.97 14.61, 9.61 15.1 M10.71 12.76 C10.26 13.59, 9.91 14.46, 9.61 15.1 M9.61 15.1 C9.08 14.87, 8.45 14.87, 6.45 14.61 M9.61 15.1 C8.53 14.9, 7.5 14.7, 6.45 14.61 M6.45 14.61 C6.39 14, 6.25 13.33, 6.06 12.2 M6.45 14.61 C6.27 13.69, 6.15 12.78, 6.06 12.2 M6.06 12.2 C5.39 11.75, 4.59 11.6, 3.26 11.06 M6.06 12.2 C5.39 11.91, 4.75 11.71, 3.26 11.06 M3.26 11.06 C2.46 11.26, 1.75 11.63, 1.21 11.74 M3.26 11.06 C2.66 11.3, 2.09 11.45, 1.21 11.74 M1.21 11.74 C0.57 11.07, -0.02 10.26, -0.64 9.61 M1.21 11.74 C0.67 11.16, 0.19 10.54, -0.64 9.61 M-0.64 9.61 C-0.19 8.71, 0.03 7.87, 0.39 7.41 M-0.64 9.61 C-0.33 8.91, -0.02 8.16, 0.39 7.41 M0.39 7.41 C0.25 6.45, -0.21 5.79, -0.46 4.47 M0.39 7.41 C0.21 6.68, -0.06 6.09, -0.46 4.47 M-0.46 4.47 C-0.95 4.29, -1.63 3.91, -2.84 3.19 M-0.46 4.47 C-1.33 3.94, -2.27 3.45, -2.84 3.19 M-2.84 3.19 C-2.59 2.48, -2.43 1.73, -2.34 0.53 M-2.84 3.19 C-2.62 2.34, -2.51 1.37, -2.34 0.53 M-2.34 0.53 C-1.55 0.32, -0.93 0.24, 0 0 M-2.34 0.53 C-1.39 0.35, -0.45 0.08, 0 0 M0 0 C0 0, 0 0, 0 0 M0 0 C0 0, 0 0, 0 0" stroke="#aaa" stroke-width="1" fill="none"></path></g></g><mask></mask><g stroke-linecap="round" transform="translate(608.0408886369273 780.5946434175735) rotate(0 6.599133044407097 6.599133044407154)"><path d="M13.2 6.6 C13.2 6.98, 13.16 7.37, 13.1 7.75 C13.03 8.12, 12.93 8.5, 12.8 8.86 C12.67 9.22, 12.51 9.57, 12.31 9.9 C12.12 10.23, 11.9 10.55, 11.65 10.84 C11.41 11.13, 11.13 11.41, 10.84 11.65 C10.55 11.9, 10.23 12.12, 9.9 12.31 C9.57 12.51, 9.22 12.67, 8.86 12.8 C8.5 12.93, 8.12 13.03, 7.75 13.1 C7.37 13.16, 6.98 13.2, 6.6 13.2 C6.22 13.2, 5.83 13.16, 5.45 13.1 C5.08 13.03, 4.7 12.93, 4.34 12.8 C3.98 12.67, 3.63 12.51, 3.3 12.31 C2.97 12.12, 2.65 11.9, 2.36 11.65 C2.06 11.41, 1.79 11.13, 1.54 10.84 C1.3 10.55, 1.08 10.23, 0.88 9.9 C0.69 9.57, 0.53 9.22, 0.4 8.86 C0.27 8.5, 0.17 8.12, 0.1 7.75 C0.03 7.37, 0 6.98, 0 6.6 C0 6.22, 0.03 5.83, 0.1 5.45 C0.17 5.08, 0.27 4.7, 0.4 4.34 C0.53 3.98, 0.69 3.63, 0.88 3.3 C1.08 2.97, 1.3 2.65, 1.54 2.36 C1.79 2.06, 2.06 1.79, 2.36 1.54 C2.65 1.3, 2.97 1.08, 3.3 0.88 C3.63 0.69, 3.98 0.53, 4.34 0.4 C4.7 0.27, 5.08 0.17, 5.45 0.1 C5.83 0.03, 6.22 0, 6.6 0 C6.98 0, 7.37 0.03, 7.75 0.1 C8.12 0.17, 8.5 0.27, 8.86 0.4 C9.22 0.53, 9.57 0.69, 9.9 0.88 C10.23 1.08, 10.55 1.3, 10.84 1.54 C11.13 1.79, 11.41 2.06, 11.65 2.36 C11.9 2.65, 12.12 2.97, 12.31 3.3 C12.51 3.63, 12.67 3.98, 12.8 4.34 C12.93 4.7, 13.03 5.08, 13.1 5.45 C13.16 5.83, 13.18 6.41, 13.2 6.6 C13.21 6.79, 13.21 6.41, 13.2 6.6" stroke="none" stroke-width="0" fill="#c9d5e1"></path><path d="M13.2 6.6 C13.2 6.98, 13.16 7.37, 13.1 7.75 C13.03 8.12, 12.93 8.5, 12.8 8.86 C12.67 9.22, 12.51 9.57, 12.31 9.9 C12.12 10.23, 11.9 10.55, 11.65 10.84 C11.41 11.13, 11.13 11.41, 10.84 11.65 C10.55 11.9, 10.23 12.12, 9.9 12.31 C9.57 12.51, 9.22 12.67, 8.86 12.8 C8.5 12.93, 8.12 13.03, 7.75 13.1 C7.37 13.16, 6.98 13.2, 6.6 13.2 C6.22 13.2, 5.83 13.16, 5.45 13.1 C5.08 13.03, 4.7 12.93, 4.34 12.8 C3.98 12.67, 3.63 12.51, 3.3 12.31 C2.97 12.12, 2.65 11.9, 2.36 11.65 C2.06 11.41, 1.79 11.13, 1.54 10.84 C1.3 10.55, 1.08 10.23, 0.88 9.9 C0.69 9.57, 0.53 9.22, 0.4 8.86 C0.27 8.5, 0.17 8.12, 0.1 7.75 C0.03 7.37, 0 6.98, 0 6.6 C0 6.22, 0.03 5.83, 0.1 5.45 C0.17 5.08, 0.27 4.7, 0.4 4.34 C0.53 3.98, 0.69 3.63, 0.88 3.3 C1.08 2.97, 1.3 2.65, 1.54 2.36 C1.79 2.06, 2.06 1.79, 2.36 1.54 C2.65 1.3, 2.97 1.08, 3.3 0.88 C3.63 0.69, 3.98 0.53, 4.34 0.4 C4.7 0.27, 5.08 0.17, 5.45 0.1 C5.83 0.03, 6.22 0, 6.6 0 C6.98 0, 7.37 0.03, 7.75 0.1 C8.12 0.17, 8.5 0.27, 8.86 0.4 C9.22 0.53, 9.57 0.69, 9.9 0.88 C10.23 1.08, 10.55 1.3, 10.84 1.54 C11.13 1.79, 11.41 2.06, 11.65 2.36 C11.9 2.65, 12.12 2.97, 12.31 3.3 C12.51 3.63, 12.67 3.98, 12.8 4.34 C12.93 4.7, 13.03 5.08, 13.1 5.45 C13.16 5.83, 13.18 6.41, 13.2 6.6 C13.21 6.79, 13.21 6.41, 13.2 6.6" stroke="transparent" stroke-width="1" fill="none"></path></g><g stroke-linecap="round"><g transform="translate(557.2190213984663 743.1208641096091) rotate(0 13.664568791926001 4.548549443975162)" fill-rule="evenodd"><path d="M0.08 0.69 L2.79 -4.65 L1.28 -7.3 L5.24 -10.08 L8.48 -8.4 L11.31 -9.69 L13.78 -13.78 L17.48 -12.11 L18.66 -8.76 L21.55 -6.16 L26.07 -7.41 L29.14 -4.46 L26.53 -2.94 L28.07 2.32 L30.86 4.16 L30.66 8.03 L27.32 8.82 L25.05 12.71 L27.25 17.39 L22.43 20.32 L19.5 17.42 L14.82 18.61 L13.31 22.32 L8.93 20.93 L8.66 17.99 L5.44 16.4 L1.01 16.84 L-0.92 14.71 L1.24 10.22 L0.29 7.2 L-3.57 4.29 L-3.43 1.07 L0.21 -0.62" stroke="none" stroke-width="0" fill="#e1effc" fill-rule="evenodd"></path><path d="M0 0 C0.77 -1.24, 1.73 -2.91, 2.38 -3.88 M0 0 C0.92 -1.39, 1.79 -2.71, 2.38 -3.88 M2.38 -3.88 C1.8 -5.14, 1.3 -6.14, 1 -7.17 M2.38 -3.88 C2.09 -4.58, 1.76 -5.51, 1 -7.17 M1 -7.17 C2.11 -7.86, 3.66 -8.82, 5.32 -10.28 M1 -7.17 C2 -7.84, 2.88 -8.46, 5.32 -10.28 M5.32 -10.28 C6.14 -9.91, 6.64 -9.18, 7.95 -8.4 M5.32 -10.28 C6.18 -9.69, 6.93 -9.04, 7.95 -8.4 M7.95 -8.4 C9.26 -8.76, 10.6 -9.09, 12.16 -9.66 M7.95 -8.4 C9.43 -8.92, 10.74 -9.19, 12.16 -9.66 M12.16 -9.66 C12.5 -11.03, 13.11 -12.23, 13.3 -13.12 M12.16 -9.66 C12.58 -10.97, 12.98 -12.38, 13.3 -13.12 M13.3 -13.12 C15.03 -12.99, 16.78 -12.93, 17.78 -12.62 M13.3 -13.12 C15.04 -12.99, 16.76 -12.77, 17.78 -12.62 M17.78 -12.62 C17.86 -11.65, 18.07 -10.81, 18.31 -9.54 M17.78 -12.62 C17.92 -11.9, 17.99 -11.16, 18.31 -9.54 M18.31 -9.54 C19.42 -8.77, 20.31 -8.33, 22.37 -7.09 M18.31 -9.54 C19.1 -9.08, 20.07 -8.48, 22.37 -7.09 M22.37 -7.09 C23 -7.54, 23.76 -7.56, 26.13 -8.34 M22.37 -7.09 C23.85 -7.49, 25.15 -7.97, 26.13 -8.34 M26.13 -8.34 C26.78 -7.39, 27.88 -6.07, 28.84 -5.01 M26.13 -8.34 C26.69 -7.69, 27.32 -6.94, 28.84 -5.01 M28.84 -5.01 C28.3 -4.21, 27.71 -3.22, 26.91 -1.98 M28.84 -5.01 C28.34 -4.25, 27.96 -3.56, 26.91 -1.98 M26.91 -1.98 C27.62 -0.2, 28 1.33, 28.22 2.5 M26.91 -1.98 C27.32 -0.38, 27.69 1.11, 28.22 2.5 M28.22 2.5 C28.87 2.81, 29.78 3.35, 31.5 4.12 M28.22 2.5 C29.24 3.06, 30.29 3.55, 31.5 4.12 M31.5 4.12 C31.6 4.93, 31.04 6.18, 30.93 8.66 M31.5 4.12 C31.34 5.75, 31.15 7.29, 30.93 8.66 M30.93 8.66 C29.89 8.7, 29 8.97, 27.64 9.28 M30.93 8.66 C29.87 8.94, 28.92 9.09, 27.64 9.28 M27.64 9.28 C27.12 10.61, 26.35 11.29, 25.19 13.66 M27.64 9.28 C26.77 10.67, 26.08 11.99, 25.19 13.66 M25.19 13.66 C25.43 14.6, 26.02 15.39, 26.55 16.59 M25.19 13.66 C25.64 14.78, 26.3 15.86, 26.55 16.59 M26.55 16.59 C25.61 17.32, 24.78 18.05, 23.16 19.51 M26.55 16.59 C25.35 17.54, 24.23 18.64, 23.16 19.51 M23.16 19.51 C22.75 18.97, 21.9 18.57, 20.39 17.63 M23.16 19.51 C22.48 19.01, 21.92 18.7, 20.39 17.63 M20.39 17.63 C18.84 18.01, 17.29 18.2, 15.75 18.78 M20.39 17.63 C19.34 17.84, 18.07 18.12, 15.75 18.78 M15.75 18.78 C15.3 20.22, 14.65 21.18, 14.13 22.22 M15.75 18.78 C15.3 19.63, 15.09 20.41, 14.13 22.22 M14.13 22.22 C13.24 22.2, 12.35 21.84, 9.49 21.49 M14.13 22.22 C12.96 22.03, 11.87 21.88, 9.49 21.49 M9.49 21.49 C9.47 20.47, 9.05 19.1, 8.92 17.94 M9.49 21.49 C9.27 20.33, 9.06 19.12, 8.92 17.94 M8.92 17.94 C7.87 17.52, 6.93 17.13, 4.8 16.27 M8.92 17.94 C7.86 17.6, 6.55 16.98, 4.8 16.27 M4.8 16.27 C4 16.41, 3.37 16.71, 1.77 17.26 M4.8 16.27 C3.65 16.63, 2.49 17.01, 1.77 17.26 M1.77 17.26 C0.89 16.42, 0.27 15.28, -0.94 14.13 M1.77 17.26 C0.97 16.18, 0.04 15.31, -0.94 14.13 M-0.94 14.13 C-0.51 13.4, -0.11 12.52, 0.57 10.9 M-0.94 14.13 C-0.42 13.03, 0.15 12, 0.57 10.9 M0.57 10.9 C0.15 9.83, -0.21 8.92, -0.68 6.57 M0.57 10.9 C0.2 9.86, 0.08 8.82, -0.68 6.57 M-0.68 6.57 C-1.79 6.06, -3.18 5.36, -4.17 4.69 M-0.68 6.57 C-1.58 6.15, -2.55 5.68, -4.17 4.69 M-4.17 4.69 C-3.85 3.35, -3.7 2, -3.44 0.78 M-4.17 4.69 C-3.91 3.33, -3.65 1.99, -3.44 0.78 M-3.44 0.78 C-2.38 0.73, -1.52 0.48, 0 0 M-3.44 0.78 C-2.23 0.52, -1.08 0.25, 0 0 M0 0 C0 0, 0 0, 0 0 M0 0 C0 0, 0 0, 0 0" stroke="#aaa" stroke-width="1" fill="none"></path></g></g><mask></mask><g stroke-linecap="round" transform="translate(561.2289139327581 737.8306447580144) rotate(0 9.70715953908558 9.707159539085524)"><path d="M19.41 9.71 C19.41 10.27, 19.36 10.84, 19.27 11.39 C19.17 11.95, 19.02 12.5, 18.83 13.03 C18.64 13.56, 18.39 14.07, 18.11 14.56 C17.83 15.05, 17.5 15.52, 17.14 15.95 C16.78 16.38, 16.38 16.78, 15.95 17.14 C15.52 17.5, 15.05 17.83, 14.56 18.11 C14.07 18.39, 13.56 18.64, 13.03 18.83 C12.5 19.02, 11.95 19.17, 11.39 19.27 C10.84 19.36, 10.27 19.41, 9.71 19.41 C9.15 19.41, 8.57 19.36, 8.02 19.27 C7.47 19.17, 6.92 19.02, 6.39 18.83 C5.86 18.64, 5.34 18.39, 4.85 18.11 C4.37 17.83, 3.9 17.5, 3.47 17.14 C3.04 16.78, 2.63 16.38, 2.27 15.95 C1.91 15.52, 1.58 15.05, 1.3 14.56 C1.02 14.07, 0.78 13.56, 0.59 13.03 C0.39 12.5, 0.25 11.95, 0.15 11.39 C0.05 10.84, 0 10.27, 0 9.71 C0 9.15, 0.05 8.57, 0.15 8.02 C0.25 7.47, 0.39 6.92, 0.59 6.39 C0.78 5.86, 1.02 5.34, 1.3 4.85 C1.58 4.37, 1.91 3.9, 2.27 3.47 C2.63 3.04, 3.04 2.63, 3.47 2.27 C3.9 1.91, 4.37 1.58, 4.85 1.3 C5.34 1.02, 5.86 0.78, 6.39 0.59 C6.92 0.39, 7.47 0.25, 8.02 0.15 C8.57 0.05, 9.15 0, 9.71 0 C10.27 0, 10.84 0.05, 11.39 0.15 C11.95 0.25, 12.5 0.39, 13.03 0.59 C13.56 0.78, 14.07 1.02, 14.56 1.3 C15.05 1.58, 15.52 1.91, 15.95 2.27 C16.38 2.63, 16.78 3.04, 17.14 3.47 C17.5 3.9, 17.83 4.37, 18.11 4.85 C18.39 5.34, 18.64 5.86, 18.83 6.39 C19.02 6.92, 19.17 7.47, 19.27 8.02 C19.36 8.57, 19.39 9.43, 19.41 9.71 C19.44 9.99, 19.44 9.43, 19.41 9.71" stroke="none" stroke-width="0" fill="#c9d5e1"></path><path d="M19.41 9.71 C19.41 10.27, 19.36 10.84, 19.27 11.39 C19.17 11.95, 19.02 12.5, 18.83 13.03 C18.64 13.56, 18.39 14.07, 18.11 14.56 C17.83 15.05, 17.5 15.52, 17.14 15.95 C16.78 16.38, 16.38 16.78, 15.95 17.14 C15.52 17.5, 15.05 17.83, 14.56 18.11 C14.07 18.39, 13.56 18.64, 13.03 18.83 C12.5 19.02, 11.95 19.17, 11.39 19.27 C10.84 19.36, 10.27 19.41, 9.71 19.41 C9.15 19.41, 8.57 19.36, 8.02 19.27 C7.47 19.17, 6.92 19.02, 6.39 18.83 C5.86 18.64, 5.34 18.39, 4.85 18.11 C4.37 17.83, 3.9 17.5, 3.47 17.14 C3.04 16.78, 2.63 16.38, 2.27 15.95 C1.91 15.52, 1.58 15.05, 1.3 14.56 C1.02 14.07, 0.78 13.56, 0.59 13.03 C0.39 12.5, 0.25 11.95, 0.15 11.39 C0.05 10.84, 0 10.27, 0 9.71 C0 9.15, 0.05 8.57, 0.15 8.02 C0.25 7.47, 0.39 6.92, 0.59 6.39 C0.78 5.86, 1.02 5.34, 1.3 4.85 C1.58 4.37, 1.91 3.9, 2.27 3.47 C2.63 3.04, 3.04 2.63, 3.47 2.27 C3.9 1.91, 4.37 1.58, 4.85 1.3 C5.34 1.02, 5.86 0.78, 6.39 0.59 C6.92 0.39, 7.47 0.25, 8.02 0.15 C8.57 0.05, 9.15 0, 9.71 0 C10.27 0, 10.84 0.05, 11.39 0.15 C11.95 0.25, 12.5 0.39, 13.03 0.59 C13.56 0.78, 14.07 1.02, 14.56 1.3 C15.05 1.58, 15.52 1.91, 15.95 2.27 C16.38 2.63, 16.78 3.04, 17.14 3.47 C17.5 3.9, 17.83 4.37, 18.11 4.85 C18.39 5.34, 18.64 5.86, 18.83 6.39 C19.02 6.92, 19.17 7.47, 19.27 8.02 C19.36 8.57, 19.39 9.43, 19.41 9.71 C19.44 9.99, 19.44 9.43, 19.41 9.71" stroke="transparent" stroke-width="1" fill="none"></path></g><g stroke-linecap="round"><g transform="translate(570.0398032758544 783.157739603636) rotate(0 39.50953556924773 12.425046569919004)" fill-rule="evenodd"><path d="M-1.83 -0.24 L12.23 5.96 L13.87 11.11 L9.95 17.42 L-2.49 13.15 L-4.68 18.33 L3.52 25.71 L19.04 22.7 L20.55 18.39 L79.05 29.89 L81.94 22.16 L24.03 8.07 L20.38 0.15 L8.72 -7.36 L1.88 1.28" stroke="none" stroke-width="0" fill="#ced4da" fill-rule="evenodd"></path><path d="M0 0 C5.47 1.93, 7.95 5.08, 13.01 5.67 M0 0 C3.96 1.9, 7.57 2.72, 13.01 5.67 M13.01 5.67 C12.7 6.76, 12.59 7.96, 13.29 10.8 M13.01 5.67 C13.11 7.88, 13.15 9.59, 13.29 10.8 M13.29 10.8 C11.82 13.07, 11.7 14.76, 10.56 15.49 M13.29 10.8 C12.43 12.18, 11.84 13.77, 10.56 15.49 M10.56 15.49 C7.77 15.25, 4.03 14.43, -3.97 12.22 M10.56 15.49 C6.59 14.32, 1.54 13.37, -3.97 12.22 M-3.97 12.22 C-3.79 13.73, -3.58 16.6, -3.77 18.15 M-3.97 12.22 C-3.71 13.32, -3.87 14.57, -3.77 18.15 M-3.77 18.15 C-0.69 19.4, 0.52 21.17, 5.03 24.91 M-3.77 18.15 C-0.61 20.18, 1.29 22.65, 5.03 24.91 M5.03 24.91 C9.4 25.34, 12.13 23.99, 17.31 23.07 M5.03 24.91 C8.13 24.6, 11.4 23.68, 17.31 23.07 M17.31 23.07 C18.49 22.1, 20.89 19.71, 22.22 17.95 M17.31 23.07 C18.6 21.62, 19.99 20.26, 22.22 17.95 M22.22 17.95 C40.42 22.45, 63.49 26.2, 80.13 30.64 M22.22 17.95 C37.27 21.06, 53.53 23.78, 80.13 30.64 M80.13 30.64 C81.42 29.73, 80.76 28, 82.99 22.45 M80.13 30.64 C81.24 27.77, 81.85 24.41, 82.99 22.45 M82.99 22.45 C66.52 21.31, 52.46 16.18, 23.65 9.76 M82.99 22.45 C67.95 20.07, 52.49 16.21, 23.65 9.76 M23.65 9.76 C22.29 6.86, 22.68 4.69, 20.99 0.35 M23.65 9.76 C23.09 5.98, 21.22 3.06, 20.99 0.35 M20.99 0.35 C17.68 -0.91, 12.4 -4.09, 8.71 -5.79 M20.99 0.35 C15.88 -1.7, 12.19 -4.41, 8.71 -5.79 M8.71 -5.79 C6.44 -3.97, 4.67 -2.48, 0 0 M8.71 -5.79 C5.04 -3.45, 2.81 -0.99, 0 0 M0 0 C0 0, 0 0, 0 0 M0 0 C0 0, 0 0, 0 0" stroke="#495057" stroke-width="2" fill="none"></path></g></g><mask></mask><g stroke-linecap="round" transform="translate(1010 750) rotate(0 70 35)"><path d="M3.69 2.49 L136.3 -2.8 L140.64 71.94 L-1.1 70.07" stroke="none" stroke-width="0" fill="#40c057"></path><path d="M-0.72 3.67 C47.67 -2.24, 94.94 1.84, 138.48 -1.58 M0.4 -0.57 C46.87 -0.37, 89.42 2.18, 138.26 0.42 M140.03 0.03 C139.52 18.13, 139.44 31.86, 139.76 67.42 M139.65 -0.71 C140.81 18.03, 139.28 32.78, 140.96 70.64 M141.62 71.83 C106.55 65.53, 81.7 68.5, -0.73 70.29 M139.41 70.91 C104.49 67.27, 69.71 67.99, 0.43 69.17 M1.22 72.8 C-3.94 47.27, -4.99 29.04, 0.35 3.25 M1.6 71.5 C-0.8 53.59, 0.44 42.45, 0.75 -0.81" stroke="#2f9e44" stroke-width="4" fill="none"></path></g><g stroke-linecap="round" transform="translate(1059.1155562948275 758.3423763456594) rotate(0 21 28)"><path d="M29.82 3.11 C33.54 5.11, 37.34 11.32, 39.16 16.55 C40.98 21.77, 41.9 28.63, 40.76 34.44 C39.62 40.25, 35.82 47.74, 32.33 51.41 C28.83 55.08, 23.99 57.16, 19.79 56.45 C15.6 55.74, 10.44 51.44, 7.15 47.16 C3.87 42.87, 0.82 36.76, 0.09 30.74 C-0.63 24.72, 0.27 16.07, 2.8 11.06 C5.33 6.06, 10.4 1.99, 15.26 0.71 C20.13 -0.56, 28.9 2.55, 32 3.42 C35.1 4.29, 33.92 5.48, 33.85 5.91 M18.62 1.13 C22.62 0.35, 28.28 2.98, 32.04 5.87 C35.81 8.76, 39.63 12.73, 41.2 18.48 C42.76 24.23, 42.93 34.6, 41.41 40.36 C39.88 46.11, 36.26 50.61, 32.04 53.02 C27.82 55.43, 20.55 56.33, 16.09 54.81 C11.63 53.28, 8.18 48.47, 5.3 43.88 C2.42 39.3, -1.27 33.33, -1.19 27.28 C-1.11 21.23, 2.72 12.23, 5.8 7.58 C8.88 2.92, 15.13 0.35, 17.29 -0.63 C19.45 -1.61, 18.48 1.01, 18.75 1.69" stroke="none" stroke-width="0" fill="#40c057"></path><path d="M19.54 -0.5 C23.68 -1.28, 29.43 1.61, 33.23 5.25 C37.02 8.9, 41.09 15.49, 42.32 21.35 C43.54 27.21, 42.69 35.17, 40.59 40.41 C38.49 45.65, 34.07 50.26, 29.71 52.79 C25.36 55.33, 18.89 57.17, 14.47 55.63 C10.04 54.09, 5.55 48.87, 3.16 43.55 C0.77 38.24, -0.32 29.78, 0.14 23.73 C0.59 17.67, 2.06 11.21, 5.88 7.23 C9.7 3.25, 19.79 0.79, 23.05 -0.14 C26.32 -1.08, 25.42 1.06, 25.49 1.63 M29.6 4.33 C33.43 6.8, 39.13 12.83, 40.94 18.33 C42.74 23.82, 41.88 31.74, 40.43 37.29 C38.97 42.85, 35.77 48.56, 32.2 51.68 C28.62 54.8, 23.34 56.99, 18.96 56.02 C14.59 55.05, 9.27 50.42, 5.95 45.84 C2.63 41.26, -0.76 34.18, -0.94 28.56 C-1.12 22.95, 2.11 16.54, 4.86 12.15 C7.61 7.75, 11.26 3.65, 15.58 2.2 C19.9 0.76, 28.35 3.5, 30.78 3.48 C33.22 3.46, 30.28 1.83, 30.19 2.1" stroke="#2f9e44" stroke-width="4" fill="none"></path></g><g transform="translate(1087.2669667685955 769.8985612018946) rotate(0 -10.918698452407568 16.194024670986664)" stroke="none"><path fill="#ffffff" d="M 0,2.40 Q 0,2.40 -2.61,2.26 -5.22,2.12 -7.31,2.02 -9.41,1.92 -10.89,2.03 -12.37,2.14 -13.62,2.30 -14.86,2.46 -15.94,2.57 -17.01,2.68 -18.44,3.03 -19.86,3.39 -18.89,4.38 -17.92,5.37 -16.95,6.15 -15.97,6.94 -14.41,7.64 -12.86,8.34 -11.65,8.81 -10.45,9.28 -9.11,9.71 -7.77,10.14 -6.45,10.47 -5.13,10.80 -3.98,10.99 -2.83,11.18 -1.17,11.57 0.48,11.96 1.84,12.98 3.20,14.01 3.64,15.16 4.07,16.31 4.15,17.38 4.23,18.44 4.23,19.71 4.23,20.98 4.21,22.28 4.19,23.59 4.05,25.70 3.91,27.81 2.92,29.80 1.94,31.79 1.02,32.60 0.10,33.40 -1.17,33.97 -2.45,34.53 -3.61,34.82 -4.77,35.10 -6.64,35.29 -8.52,35.48 -9.61,35.35 -10.69,35.22 -12.50,34.37 -14.30,33.52 -15.16,32.69 -16.01,31.87 -17.03,28.90 -18.05,25.93 -17.99,25.39 -17.93,24.85 -17.70,24.36 -17.48,23.87 -17.10,23.48 -16.73,23.09 -16.25,22.84 -15.77,22.59 -15.24,22.50 -14.71,22.42 -14.17,22.51 -13.64,22.60 -13.16,22.85 -12.69,23.11 -12.32,23.50 -11.95,23.89 -11.72,24.38 -11.49,24.88 -11.44,25.41 -11.38,25.95 -11.50,26.48 -11.62,27.01 -11.90,27.47 -12.18,27.93 -12.59,28.28 -13.00,28.63 -13.51,28.82 -14.01,29.02 -14.55,29.05 -15.09,29.08 -15.61,28.93 -16.13,28.79 -16.58,28.48 -17.02,28.18 -17.35,27.74 -17.67,27.31 -17.84,26.80 -18.02,26.29 -18.01,25.75 -18.01,25.21 -17.84,24.69 -17.66,24.18 -17.33,23.75 -17.01,23.32 -16.56,23.02 -16.11,22.72 -15.59,22.58 -15.07,22.44 -14.53,22.47 -13.99,22.50 -13.49,22.70 -12.98,22.90 -12.57,23.25 -12.16,23.60 -11.89,24.07 -11.61,24.53 -11.49,25.06 -11.38,25.59 -11.38,25.59 -11.38,25.59 -11.11,26.75 -10.83,27.91 -9.82,28.54 -8.81,29.17 -7.49,29.09 -6.16,29.02 -4.91,28.74 -3.66,28.45 -2.84,27.60 -2.02,26.75 -1.89,25.18 -1.75,23.62 -1.79,22.34 -1.82,21.07 -1.52,19.27 -1.22,17.47 -2.48,17.07 -3.74,16.67 -5.04,16.45 -6.35,16.23 -7.82,15.93 -9.30,15.64 -10.88,15.25 -12.46,14.87 -13.81,14.42 -15.16,13.97 -16.32,13.49 -17.49,13.01 -18.58,12.40 -19.68,11.78 -21.14,10.42 -22.61,9.05 -23.51,7.73 -24.41,6.41 -25.11,4.71 -25.81,3.01 -25.31,1.72 -24.81,0.42 -23.80,-0.21 -22.79,-0.85 -20.94,-1.30 -19.08,-1.76 -17.14,-1.77 -15.19,-1.77 -13.87,-1.81 -12.55,-1.86 -10.98,-1.89 -9.41,-1.92 -7.31,-2.02 -5.22,-2.12 -2.61,-2.26 0,-2.40 0.28,-2.36 0.57,-2.33 0.84,-2.23 1.11,-2.12 1.35,-1.96 1.59,-1.79 1.78,-1.58 1.97,-1.36 2.11,-1.10 2.24,-0.85 2.31,-0.57 2.38,-0.28 2.38,0.00 2.38,0.28 2.31,0.57 2.24,0.85 2.11,1.10 1.97,1.36 1.78,1.58 1.59,1.80 1.35,1.96 1.11,2.12 0.84,2.23 0.57,2.33 0.28,2.36 -0.00,2.40 -0.00,2.40 L 0,2.40 Z"></path></g><g transform="translate(1082.6050505754329 766.463465059564) rotate(0 -0.2453640101664405 20.61057685398282)" stroke="none"><path fill="#ffffff" d="M 2.04,0 Q 2.04,0 1.94,2.46 1.84,4.93 1.77,7.53 1.70,10.14 1.58,12.88 1.45,15.63 1.38,18.26 1.31,20.89 1.27,23.07 1.23,25.24 1.33,26.66 1.42,28.08 1.44,29.37 1.46,30.66 1.50,32.00 1.53,33.34 1.59,34.48 1.65,35.62 1.77,38.42 1.88,41.22 1.82,41.60 1.75,41.98 1.57,42.32 1.39,42.66 1.11,42.92 0.83,43.18 0.48,43.34 0.14,43.50 -0.24,43.55 -0.62,43.59 -0.99,43.50 -1.37,43.42 -1.70,43.22 -2.03,43.02 -2.27,42.73 -2.52,42.44 -2.66,42.08 -2.81,41.72 -2.83,41.34 -2.85,40.96 -2.74,40.59 -2.64,40.22 -2.42,39.90 -2.21,39.58 -1.90,39.35 -1.59,39.12 -1.23,38.99 -0.87,38.87 -0.48,38.87 -0.10,38.87 0.26,39.00 0.62,39.12 0.93,39.35 1.23,39.59 1.45,39.90 1.66,40.22 1.76,40.59 1.87,40.96 1.84,41.35 1.82,41.73 1.68,42.09 1.54,42.44 1.29,42.74 1.04,43.03 0.71,43.23 0.38,43.42 0.00,43.51 -0.36,43.59 -0.74,43.55 -1.13,43.50 -1.47,43.34 -1.82,43.18 -2.10,42.91 -2.38,42.65 -2.56,42.31 -2.74,41.97 -2.80,41.59 -2.86,41.21 -2.86,41.21 -2.86,41.21 -2.73,38.39 -2.60,35.57 -2.51,34.41 -2.42,33.25 -2.33,31.85 -2.23,30.44 -2.06,29.26 -1.90,28.07 -1.79,26.65 -1.69,25.23 -1.70,23.04 -1.72,20.86 -1.73,18.20 -1.73,15.55 -1.72,12.84 -1.70,10.14 -1.77,7.53 -1.84,4.93 -1.94,2.46 -2.04,0 -2.01,-0.24 -1.98,-0.48 -1.89,-0.71 -1.81,-0.95 -1.67,-1.15 -1.53,-1.35 -1.34,-1.51 -1.16,-1.68 -0.94,-1.79 -0.72,-1.91 -0.48,-1.97 -0.24,-2.02 0.00,-2.02 0.24,-2.02 0.48,-1.97 0.72,-1.91 0.94,-1.79 1.16,-1.68 1.34,-1.51 1.53,-1.35 1.67,-1.15 1.81,-0.94 1.89,-0.71 1.98,-0.48 2.01,-0.24 2.04,0.00 2.04,0.00 L 2.04,0 Z"></path></g><g transform="translate(1075.2441302704387 765.236645008732) rotate(0 -0.3680460152497176 20.85594086414926)" stroke="none"><path fill="#ffffff" d="M 2.02,0 Q 2.02,0 1.93,3.45 1.83,6.91 1.69,10.44 1.55,13.97 1.33,16.98 1.10,19.98 0.99,22.63 0.88,25.28 0.82,27.46 0.77,29.65 0.83,31.28 0.89,32.92 0.97,34.32 1.05,35.72 1.39,38.54 1.74,41.36 1.74,41.69 1.74,42.01 1.64,42.32 1.54,42.63 1.35,42.90 1.15,43.16 0.88,43.34 0.62,43.53 0.30,43.62 -0.00,43.71 -0.33,43.70 -0.65,43.68 -0.96,43.56 -1.26,43.45 -1.51,43.24 -1.76,43.03 -1.94,42.75 -2.11,42.47 -2.18,42.15 -2.25,41.84 -2.22,41.51 -2.19,41.19 -2.06,40.89 -1.92,40.59 -1.70,40.35 -1.48,40.11 -1.19,39.96 -0.90,39.80 -0.58,39.75 -0.26,39.69 0.05,39.74 0.37,39.79 0.66,39.94 0.95,40.09 1.18,40.32 1.41,40.56 1.55,40.85 1.69,41.15 1.73,41.47 1.76,41.80 1.70,42.11 1.63,42.43 1.47,42.72 1.30,43.00 1.05,43.21 0.81,43.42 0.51,43.55 0.20,43.67 -0.11,43.69 -0.44,43.71 -0.75,43.63 -1.07,43.55 -1.34,43.37 -1.61,43.19 -1.81,42.93 -2.01,42.67 -2.12,42.36 -2.23,42.05 -2.23,42.05 -2.23,42.05 -2.39,39.97 -2.55,37.88 -2.53,36.79 -2.51,35.70 -2.42,34.30 -2.32,32.89 -2.23,31.25 -2.15,29.61 -2.14,27.40 -2.14,25.20 -2.10,22.50 -2.07,19.80 -1.95,16.85 -1.83,13.90 -1.83,10.41 -1.83,6.91 -1.93,3.45 -2.02,0 -2.00,-0.24 -1.97,-0.48 -1.88,-0.71 -1.79,-0.94 -1.65,-1.14 -1.51,-1.34 -1.33,-1.50 -1.15,-1.67 -0.93,-1.78 -0.71,-1.89 -0.48,-1.95 -0.24,-2.01 0.00,-2.01 0.24,-2.01 0.48,-1.95 0.71,-1.89 0.93,-1.78 1.15,-1.67 1.33,-1.50 1.51,-1.34 1.65,-1.14 1.79,-0.94 1.88,-0.71 1.97,-0.48 2.00,-0.24 2.02,0.00 2.02,0.00 L 2.02,0 Z"></path></g></svg>