<svg version="1.1" xmlns="http://www.w3.org/2000/svg" viewBox="0 0 1442.2222222222222 820" width="2884.4444444444443" height="1640">
  <!-- svg-source:excalidraw -->
  
  <defs>
    <style class="style-fonts">
      
    </style>
    
  </defs>
  <g stroke-linecap="round" transform="translate(10 10) rotate(0 711.1111111111111 400)"><path d="M32 0 C512.88 -1.37, 996.15 0.27, 1390.22 0 C1411.72 3.22, 1424.8 12.33, 1422.22 32 C1423.22 282.84, 1424.2 535.48, 1422.22 768 C1423.03 791.06, 1411.47 801.46, 1390.22 800 C1064.56 807.46, 738.75 807.43, 32 800 C12.78 799.34, 3.22 791.27, 0 768 C1.25 530.63, 1.21 294.15, 0 32 C-2.38 13.63, 7.2 1.76, 32 0" stroke="none" stroke-width="0" fill="#ffffff"></path><path d="M32 0 C496.7 4.81, 960.41 5.57, 1390.22 0 M32 0 C393.13 -1.83, 754.74 -1.9, 1390.22 0 M1390.22 0 C1411.03 -0.61, 1422.55 8.98, 1422.22 32 M1390.22 0 C1412.91 -0.24, 1424.28 8.55, 1422.22 32 M1422.22 32 C1421.36 276.74, 1422.31 522.79, 1422.22 768 M1422.22 32 C1420.33 253.09, 1420.36 474.32, 1422.22 768 M1422.22 768 C1421.93 789.66, 1412.13 800.21, 1390.22 800 M1422.22 768 C1420.31 788.95, 1409.92 800.2, 1390.22 800 M1390.22 800 C1038.55 802.96, 686.72 803.03, 32 800 M1390.22 800 C893.38 801.64, 396.69 801.69, 32 800 M32 800 C8.8 800.6, -0.92 789.98, 0 768 M32 800 C12.79 798.75, 1.17 789.13, 0 768 M0 768 C-1.72 581.32, -1.9 395.95, 0 32 M0 768 C2.08 620.39, 2.33 472.42, 0 32 M0 32 C-1.19 8.8, 12.17 -0.85, 32 0 M0 32 C0.01 9.07, 9.67 1.96, 32 0" stroke="#ffffff" stroke-width="4" fill="none"></path></g><g stroke-linecap="round" transform="translate(912.2222222222222 622.9068086549469) rotate(0 240 60)"><path d="M3.62 -1.7 L476.61 1.75 L483.91 118.12 L-0.59 122.03" stroke="none" stroke-width="0" fill="#ffffff"></path><path d="M-1.3 1.32 C171.45 -0.16, 342.97 -1.71, 480.58 -0.47 M-0.25 0.63 C120.44 -3.25, 241.6 -3.81, 480.38 0.84 M482.3 2.59 C482.28 48.29, 479.18 92.46, 482.27 121 M481.07 -0.2 C477.75 32.85, 477.4 62.14, 478.46 119.9 M480.24 118.65 C378.16 123.18, 278.05 122.04, 1.58 119.55 M479.91 119.48 C370.86 119.07, 262.42 119.04, 0.73 120.25 M-0.71 116.34 C-0.5 78.1, -0.94 32.75, 3.17 -3.22 M-1.94 119.83 C-2.22 88.84, -0.37 58.73, 1.75 1.25" stroke="#1e1e1e" stroke-width="4" fill="none"></path></g><g stroke-linecap="round" transform="translate(1032.2222222222222 422.9068086549469) rotate(0 120 100)"><path d="M-3.39 1.75 L243.91 -1.88 L239.41 202.03 L-1.17 198.07" stroke="none" stroke-width="0" fill="#ffffff"></path><path d="M0.9 0.54 C76.47 -5.48, 150.24 -3.95, 238.36 0.68 M0.01 1.61 C96.98 -2.38, 191.86 -1.3, 241.17 1.32 M240.33 3.51 C239.62 55.78, 244.11 105.87, 238.7 198.37 M238.95 1.05 C240.56 58.84, 240.53 119.77, 238.41 198.77 M239.35 202.05 C157.85 196.73, 74.66 196.01, -2.45 200.16 M239.25 201.33 C177.22 198.89, 116.12 198.1, 0.8 200.82 M0.61 199.86 C0.87 143.99, 3.5 91.87, -1.47 2 M-0.8 199.94 C4.37 145.27, 5.08 90.02, 1.63 -0.77" stroke="#1e1e1e" stroke-width="4" fill="none"></path></g><g stroke-linecap="round" transform="translate(1151.7622181513898 218.86447199710028) rotate(46.8842985988338 60 141.52249134948102)"><path d="M30 0 C56.71 -1.39, 75.04 1.78, 90 0 C106.44 -3.2, 123.66 13.01, 120 30 C127.19 99.23, 123.44 164.15, 120 253.04 C115.7 274.6, 114.49 282.61, 90 283.04 C79 279.16, 62.6 279.63, 30 283.04 C4.91 281.99, -1.06 276.63, 0 253.04 C0.51 182.72, 0.89 109.09, 0 30 C-3.92 4.54, 5.25 3.23, 30 0" stroke="none" stroke-width="0" fill="#ffffff"></path><path d="M30 0 C54.87 -3.11, 76.49 -1.27, 90 0 M30 0 C44.49 0.28, 60.12 0.75, 90 0 M90 0 C113.41 1.27, 121.77 13.85, 120 30 M90 0 C113.22 3.66, 118.27 12.64, 120 30 M120 30 C118.01 114.54, 122.31 193.62, 120 253.04 M120 30 C119.18 88.71, 117.26 148.77, 120 253.04 M120 253.04 C116.97 270.61, 106.91 282.84, 90 283.04 M120 253.04 C115.93 269.89, 112.34 283.67, 90 283.04 M90 283.04 C79.13 283.61, 67 282.74, 30 283.04 M90 283.04 C76.19 281.39, 61.91 284.17, 30 283.04 M30 283.04 C9.65 286.1, 3.36 274.19, 0 253.04 M30 283.04 C12.2 285.31, -1.7 272.22, 0 253.04 M0 253.04 C-0.44 203.31, 2.07 157.29, 0 30 M0 253.04 C-3.81 195.1, -2.89 137.39, 0 30 M0 30 C1.92 11.84, 13.51 2.5, 30 0 M0 30 C4.16 8.04, 6.1 2.01, 30 0" stroke="#1e1e1e" stroke-width="4" fill="none"></path></g><g stroke-linecap="round" transform="translate(1114.9530871554148 392.94019218713265) rotate(46.8842985988338 30 30)"><path d="M43.46 1.54 C48.95 4.12, 55.49 12.47, 58.04 18.4 C60.59 24.33, 60.47 31.22, 58.75 37.1 C57.03 42.97, 53.31 49.71, 47.74 53.67 C42.17 57.63, 32.02 61.74, 25.31 60.86 C18.6 59.97, 11.71 53.42, 7.47 48.36 C3.22 43.29, 0.09 36.4, -0.14 30.47 C-0.37 24.53, 2.02 17.4, 6.11 12.73 C10.2 8.07, 15.31 0.35, 24.38 2.47 C33.46 4.6, 55.93 18.14, 60.58 25.48 C65.22 32.82, 52.8 46.36, 52.25 46.49 M15.51 1.82 C20.99 -1.87, 31.46 -3.15, 37.58 -1.14 C43.7 0.88, 48.25 8.48, 52.25 13.92 C56.25 19.35, 61.22 24.88, 61.57 31.46 C61.92 38.04, 58.69 48.34, 54.34 53.39 C49.98 58.44, 42.31 61.26, 35.44 61.78 C28.56 62.29, 19.18 60.16, 13.11 56.47 C7.04 52.77, 0.39 46, -1 39.59 C-2.38 33.19, 2.37 24.59, 4.79 18.04 C7.22 11.49, 11.86 2.55, 13.54 0.29 C15.22 -1.96, 14.4 3.81, 14.84 4.5" stroke="none" stroke-width="0" fill="#ffffff"></path><path d="M23.98 0.51 C30.17 -1.55, 38.09 -0.33, 43.93 2.72 C49.77 5.78, 56.4 12.87, 59.02 18.82 C61.65 24.77, 61.29 32.26, 59.67 38.43 C58.05 44.61, 54.4 52.39, 49.32 55.84 C44.24 59.3, 35.74 59.68, 29.2 59.15 C22.66 58.62, 14.91 56.73, 10.1 52.67 C5.28 48.61, 1.35 41.1, 0.32 34.79 C-0.71 28.48, -2.21 20.42, 3.94 14.81 C10.08 9.2, 29.88 2.56, 37.17 1.11 C44.45 -0.34, 47.92 5.54, 47.63 6.13 M24.78 -1.68 C30.72 -2.98, 39.37 1.49, 44.61 5.08 C49.86 8.67, 53.86 13.57, 56.23 19.85 C58.61 26.14, 61.45 36.68, 58.85 42.78 C56.26 48.88, 46.38 53.44, 40.64 56.46 C34.9 59.48, 30.27 61.94, 24.41 60.9 C18.55 59.86, 9.67 56.11, 5.49 50.22 C1.3 44.32, -1.23 32.58, -0.7 25.52 C-0.16 18.46, 4.12 12.38, 8.69 7.86 C13.26 3.33, 23.88 -0.85, 26.72 -1.64 C29.56 -2.43, 25.69 1.95, 25.75 3.13" stroke="#1e1e1e" stroke-width="4" fill="none"></path></g><g stroke-linecap="round" transform="translate(1189.199882577198 102.51316753300671) rotate(329.8407845794689 54.28209276683225 128.03561673376225)"><path d="M27.14 0 C38.28 -3.62, 60.2 2.59, 81.42 0 C99.29 4.49, 114.02 12.39, 108.56 27.14 C103.79 102.52, 111.68 174.72, 108.56 228.93 C103.24 241.48, 96.12 257.38, 81.42 256.07 C62.83 254.37, 53.34 259.01, 27.14 256.07 C9.85 256.69, 2.35 248.31, 0 228.93 C-5.08 164.33, -5.82 112.42, 0 27.14 C-4.82 13.26, 4.67 1.09, 27.14 0" stroke="none" stroke-width="0" fill="#ffffff"></path><path d="M27.14 0 C37.51 1.11, 55.73 -0.84, 81.42 0 M27.14 0 C49.08 -0.41, 68.49 0.88, 81.42 0 M81.42 0 C102.32 3.18, 107.06 11.35, 108.56 27.14 M81.42 0 C102.5 0.42, 113.04 5.91, 108.56 27.14 M108.56 27.14 C109.32 104.54, 110.6 187.1, 108.56 228.93 M108.56 27.14 C105.1 84.6, 105.07 144.15, 108.56 228.93 M108.56 228.93 C105.02 244.28, 101.55 256.61, 81.42 256.07 M108.56 228.93 C104.98 246.12, 102.35 258.89, 81.42 256.07 M81.42 256.07 C62.44 255.98, 47.77 255.35, 27.14 256.07 M81.42 256.07 C68.19 258.46, 56.99 257.51, 27.14 256.07 M27.14 256.07 C10.96 258.04, -1.48 246.31, 0 228.93 M27.14 256.07 C4.84 256.86, -0.18 247.31, 0 228.93 M0 228.93 C-4.33 189.39, -3.67 142.38, 0 27.14 M0 228.93 C2.47 170.94, 3.18 112.42, 0 27.14 M0 27.14 C3.62 7.34, 5.66 1.75, 27.14 0 M0 27.14 C4.5 6.88, 8.37 2.33, 27.14 0" stroke="#1e1e1e" stroke-width="4" fill="none"></path></g><g stroke-linecap="round" transform="translate(1257.9403014034756 274.9997873158086) rotate(329.8407845794689 27.141046383416153 27.141046383416096)"><path d="M5.74 8.72 C9.04 3.87, 17.35 -0.22, 22.87 -0.97 C28.39 -1.73, 34.06 1.55, 38.87 4.19 C43.69 6.82, 49.45 9.79, 51.78 14.83 C54.11 19.87, 54.54 28.41, 52.85 34.44 C51.16 40.47, 46.37 47.44, 41.64 51 C36.92 54.57, 30.04 56.42, 24.5 55.8 C18.95 55.18, 12.59 52.14, 8.37 47.27 C4.15 42.41, -1.79 33.53, -0.83 26.61 C0.13 19.69, 10.33 10.11, 14.14 5.77 C17.95 1.43, 21.77 0.61, 22.03 0.58 M12.83 5.06 C17.7 2.49, 28.2 -0.9, 34.56 0.51 C40.93 1.91, 47.46 8.53, 51.04 13.49 C54.62 18.45, 56.78 24.72, 56.05 30.26 C55.32 35.8, 51.26 42.64, 46.66 46.74 C42.05 50.84, 33.72 54.36, 28.44 54.87 C23.17 55.39, 20.02 53.58, 15.02 49.84 C10.02 46.09, 0.89 37.78, -1.57 32.39 C-4.04 27.01, -2.21 22.65, 0.22 17.51 C2.65 12.38, 10.8 4.38, 13.02 1.6 C15.23 -1.18, 13.15 0.3, 13.52 0.85" stroke="none" stroke-width="0" fill="#ffffff"></path><path d="M21.47 2.79 C26.54 1.06, 33.38 0.89, 38.7 3.18 C44.03 5.47, 50.68 11.59, 53.41 16.53 C56.14 21.47, 56.61 27.2, 55.1 32.83 C53.58 38.47, 49.27 46.43, 44.34 50.32 C39.42 54.21, 31.78 56.46, 25.56 56.17 C19.33 55.88, 11.06 52.85, 7.02 48.58 C2.97 44.32, 1.82 36.84, 1.29 30.6 C0.77 24.36, -3.6 14.81, 3.85 11.16 C11.3 7.52, 37.88 5.14, 46.02 8.72 C54.16 12.29, 52.82 32.72, 52.7 32.62 M8.94 2.83 C13.91 -0.52, 25.22 -0.24, 31.06 0.51 C36.91 1.27, 39.85 3.03, 44.01 7.38 C48.18 11.74, 55.16 20.3, 56.03 26.64 C56.9 32.99, 53 41.38, 49.22 45.47 C45.44 49.55, 38.93 50.31, 33.35 51.16 C27.78 52.01, 20.98 52.95, 15.78 50.56 C10.59 48.16, 4.9 41.48, 2.2 36.8 C-0.5 32.12, -1.95 27.41, -0.42 22.47 C1.1 17.54, 8.86 9.89, 11.34 7.18 C13.81 4.47, 13.89 5.96, 14.43 6.2" stroke="#1e1e1e" stroke-width="4" fill="none"></path></g><g stroke-linecap="round" transform="translate(1110.2497201395934 80.93675719134444) rotate(236.51856405648897 40.56546225661208 95.68208802165123)"><path d="M20.28 0 C29.91 3.88, 45.44 2.73, 60.85 0 C78.1 -1.01, 83.58 2.46, 81.13 20.28 C79.2 64.16, 81.12 120.44, 81.13 171.08 C78.27 181.81, 71.98 186.28, 60.85 191.36 C50.25 192.71, 40.39 193.38, 20.28 191.36 C6.53 193.09, -4.29 180.69, 0 171.08 C-1.24 144.77, -0.79 111.12, 0 20.28 C2.04 9.43, 6.28 1.46, 20.28 0" stroke="none" stroke-width="0" fill="#ffffff"></path><path d="M20.28 0 C36.19 0.24, 50.14 3.64, 60.85 0 M20.28 0 C35.14 0.81, 46.45 0.37, 60.85 0 M60.85 0 C76.96 0.37, 85.03 4.04, 81.13 20.28 M60.85 0 C78.58 2.61, 82.28 5.1, 81.13 20.28 M81.13 20.28 C80.73 56.38, 83.45 94.1, 81.13 171.08 M81.13 20.28 C77.03 54.96, 79.82 92.64, 81.13 171.08 M81.13 171.08 C78.01 183.82, 76.83 193.81, 60.85 191.36 M81.13 171.08 C80.93 188.8, 73.17 187.99, 60.85 191.36 M60.85 191.36 C46.11 189.47, 39.31 190.93, 20.28 191.36 M60.85 191.36 C46.54 192.58, 29.58 191.24, 20.28 191.36 M20.28 191.36 C3.1 192.05, -0.16 184.85, 0 171.08 M20.28 191.36 C2.43 195.01, -3.7 182.72, 0 171.08 M0 171.08 C0.33 115.71, 0.54 65.8, 0 20.28 M0 171.08 C-0.83 118.06, -4.34 67.62, 0 20.28 M0 20.28 C3.91 4.88, 6.17 2.03, 20.28 0 M0 20.28 C-1.34 4.54, 8.02 -2.93, 20.28 0" stroke="#1e1e1e" stroke-width="4" fill="none"></path></g><g stroke-linecap="round" transform="translate(1071.3727264381325 189.7436546512372) rotate(236.51856405648897 20.282731128306068 20.282731128306068)"><path d="M10.67 2.76 C14.06 0.63, 20.34 -1.26, 24.63 -0.45 C28.92 0.36, 33.75 3.92, 36.4 7.64 C39.05 11.35, 40.64 17.27, 40.51 21.83 C40.37 26.39, 38.43 31.75, 35.57 35 C32.72 38.25, 27.84 41.08, 23.37 41.32 C18.91 41.56, 12.48 38.8, 8.8 36.44 C5.13 34.09, 2.6 31.22, 1.32 27.19 C0.04 23.15, -1.01 16.61, 1.14 12.21 C3.3 7.8, 11.77 2.65, 14.27 0.78 C16.78 -1.08, 16.26 0.74, 16.18 1.01 M28 2.54 C32.01 3.79, 36.5 7.17, 38.51 10.75 C40.52 14.34, 41.06 19.82, 40.06 24.02 C39.06 28.22, 35.53 33.21, 32.51 35.94 C29.49 38.68, 26.32 40.67, 21.93 40.44 C17.54 40.22, 9.91 37.26, 6.17 34.62 C2.43 31.98, 0.22 28.73, -0.52 24.59 C-1.26 20.46, -0.4 13.88, 1.73 9.78 C3.86 5.69, 8.15 1.52, 12.28 0.02 C16.42 -1.48, 23.96 0.51, 26.51 0.79 C29.07 1.07, 27.66 1.2, 27.63 1.67" stroke="none" stroke-width="0" fill="#ffffff"></path><path d="M29.63 2.51 C33.57 3.85, 37.56 7.24, 39.37 11.15 C41.18 15.06, 41.7 21.54, 40.5 25.98 C39.3 30.41, 35.92 35.18, 32.18 37.75 C28.44 40.32, 22.3 41.88, 18.04 41.42 C13.79 40.97, 9.71 38.29, 6.66 35.02 C3.6 31.75, 0.25 26.08, -0.26 21.81 C-0.78 17.53, 1.05 12.96, 3.55 9.35 C6.05 5.75, 9.75 1.12, 14.73 0.16 C19.71 -0.8, 29.98 2.4, 33.42 3.59 C36.85 4.78, 35.66 7.04, 35.34 7.28 M12.3 0.89 C16.12 -0.63, 24.01 0.4, 28.26 2.19 C32.52 3.97, 35.92 8.18, 37.85 11.62 C39.78 15.06, 40.6 18.88, 39.84 22.83 C39.08 26.78, 36.6 32.51, 33.29 35.32 C29.98 38.12, 24.46 39.4, 19.99 39.67 C15.52 39.94, 9.78 39.41, 6.47 36.93 C3.16 34.46, 0.56 29.24, 0.16 24.82 C-0.25 20.41, 1.7 14.28, 4.04 10.46 C6.38 6.64, 12.68 3.45, 14.18 1.92 C15.68 0.39, 13.28 1.06, 13.05 1.29" stroke="#1e1e1e" stroke-width="4" fill="none"></path></g><g stroke-linecap="round" transform="translate(1182.1423141955902 122.20033333364881) rotate(236.51856405648897 20.282731128306068 20.282731128306068)"><path d="M12.12 0.65 C15.87 -1.37, 21.92 -1.07, 26.11 0.44 C30.3 1.95, 34.79 5.84, 37.25 9.7 C39.71 13.56, 41.29 19.23, 40.88 23.61 C40.46 28, 38.08 33.33, 34.76 36.01 C31.43 38.69, 25.31 39.45, 20.94 39.69 C16.57 39.93, 12.01 39.97, 8.53 37.47 C5.05 34.98, 1.02 29.16, 0.05 24.72 C-0.92 20.27, 0.31 14.75, 2.71 10.8 C5.1 6.85, 12.04 2.8, 14.42 1 C16.81 -0.8, 16.71 -0.36, 16.99 0.01 M20.77 1 C24.65 0.53, 29.69 2.51, 32.74 5.14 C35.78 7.77, 37.94 12.64, 39.03 16.78 C40.12 20.91, 41.39 26.46, 39.25 29.95 C37.11 33.44, 30.58 36.07, 26.18 37.71 C21.77 39.36, 16.82 41.11, 12.82 39.83 C8.82 38.55, 4.36 34.03, 2.16 30.03 C-0.05 26.02, -1.15 20.02, -0.4 15.8 C0.35 11.58, 3.11 7.32, 6.65 4.72 C10.19 2.13, 18.6 0.83, 20.84 0.22 C23.07 -0.39, 20.15 0.75, 20.05 1.04" stroke="none" stroke-width="0" fill="#ffffff"></path><path d="M25.54 0.12 C29.56 0.77, 34.48 4.96, 36.99 8.64 C39.51 12.33, 41.05 17.83, 40.63 22.22 C40.22 26.6, 37.37 31.88, 34.51 34.96 C31.64 38.03, 27.68 40.33, 23.42 40.65 C19.17 40.97, 12.71 39.2, 8.96 36.9 C5.21 34.6, 2.16 31.02, 0.91 26.84 C-0.33 22.67, -0.3 16.09, 1.47 11.87 C3.25 7.65, 7.05 3.26, 11.57 1.5 C16.08 -0.27, 25.02 0.86, 28.56 1.28 C32.1 1.7, 32.97 3.49, 32.81 4.01 M22.58 0.97 C26.9 1.26, 31.37 4.36, 34.28 7.03 C37.19 9.71, 39.57 13.03, 40.06 17.02 C40.54 21.02, 39.58 27.37, 37.19 31.01 C34.8 34.65, 30.05 37.38, 25.75 38.88 C21.45 40.38, 15.36 41.44, 11.39 40.02 C7.42 38.6, 3.53 34.38, 1.94 30.35 C0.35 26.32, 0.67 20.13, 1.85 15.84 C3.04 11.56, 5.84 7.31, 9.05 4.64 C12.26 1.96, 19.24 0.43, 21.11 -0.22 C22.97 -0.88, 20.2 0.31, 20.26 0.71" stroke="#1e1e1e" stroke-width="4" fill="none"></path></g><g transform="translate(1067.1969284636684 236.53386216668378) rotate(0 -45.40467049089153 22.379553227738143)" stroke="none"><path d="M-4.11 3.46 C-4.38 6.06, -4.17 8.78, -1.79 15.86 C0.59 22.94, 10.58 40.83, 10.17 45.94 C9.76 51.05, 0.93 45.32, -4.25 46.54 C-9.42 47.75, -11.67 50.25, -20.87 53.23 C-30.07 56.21, -56.67 64.94, -59.44 64.41 C-62.21 63.89, -42.82 54.16, -37.49 50.08 C-32.16 45.99, -29.65 41.53, -27.46 39.89 C-25.28 38.24, -25.85 44.62, -24.36 40.21 C-22.87 35.8, -17.61 17.12, -18.54 13.44 C-19.46 9.76, -20.59 20.08, -29.91 18.14 C-39.22 16.19, -68.22 1.38, -74.44 1.77 C-80.66 2.15, -68.18 11.6, -67.23 20.46 C-66.29 29.32, -68.32 52.92, -68.78 54.93 C-69.23 56.94, -67.94 39.54, -69.96 32.53 C-71.97 25.52, -77.81 17.94, -80.85 12.86 C-83.89 7.78, -85.12 6.82, -88.2 2.05 C-91.28 -2.72, -100.72 -12.87, -99.34 -15.74 C-97.97 -18.6, -87.92 -15.56, -79.96 -15.14 C-72 -14.73, -59.2 -13.9, -51.59 -13.25 C-43.97 -12.59, -41.28 -12.8, -34.28 -11.21 C-27.27 -9.62, -14.66 -4.72, -9.53 -3.72 C-4.41 -2.71, -4.59 -5.58, -3.53 -5.19 C-2.46 -4.81, -3.61 -2.11, -3.16 -1.39 C-2.71 -0.66, -1.82 -1.17, -0.82 -0.83" stroke="none" stroke-width="0" fill="#ffffff" fill-rule="evenodd"></path><path fill="#1e1e1e" d="M 2.61,0 Q 2.61,0 2.64,0.98 2.67,1.97 2.92,3.37 3.16,4.76 3.46,6.66 3.76,8.56 3.97,10.67 4.18,12.78 4.29,14.05 4.40,15.32 4.57,16.45 4.74,17.58 4.92,18.97 5.09,20.36 5.29,21.52 5.49,22.69 5.99,24.97 6.48,27.26 7.04,28.92 7.59,30.58 7.85,31.64 8.11,32.71 8.48,34.69 8.86,36.67 9.21,37.85 9.56,39.04 9.83,40.19 10.10,41.35 10.31,42.58 10.53,43.81 10.76,44.87 11.00,45.94 11.02,46.34 11.04,46.74 10.97,47.14 10.90,47.53 10.73,47.90 10.57,48.27 10.32,48.59 10.07,48.90 9.75,49.15 9.44,49.40 9.07,49.57 8.70,49.73 8.31,49.80 7.91,49.88 7.51,49.85 7.11,49.83 6.72,49.71 6.34,49.59 5.99,49.38 5.65,49.17 5.36,48.89 5.08,48.60 4.87,48.26 4.66,47.91 4.54,47.53 4.42,47.14 7.71,46.52 11.00,45.90 11.02,46.30 11.05,46.70 10.97,47.10 10.90,47.49 10.74,47.86 10.57,48.22 10.32,48.54 10.08,48.85 9.76,49.10 9.45,49.35 9.08,49.51 8.72,49.68 8.32,49.75 7.93,49.82 7.53,49.80 7.13,49.77 6.75,49.65 6.36,49.53 6.02,49.33 5.68,49.12 5.39,48.84 5.11,48.55 4.90,48.21 4.70,47.87 4.58,47.48 4.46,47.10 5.86,48.46 7.27,49.81 6.07,49.86 4.87,49.90 3.31,50.01 1.75,50.12 -0.14,50.66 -2.05,51.19 -3.33,51.63 -4.61,52.07 -5.94,52.44 -7.27,52.81 -8.54,53.23 -9.82,53.66 -11.36,54.10 -12.90,54.53 -14.42,54.94 -15.95,55.34 -17.41,55.66 -18.88,55.97 -20.25,56.23 -21.62,56.49 -22.67,56.82 -23.72,57.15 -24.74,57.45 -25.76,57.76 -27.17,58.02 -28.57,58.28 -30.65,58.75 -32.72,59.22 -33.79,59.45 -34.86,59.68 -36.66,60.14 -38.45,60.60 -40.06,60.91 -41.67,61.22 -43.47,61.64 -45.27,62.05 -46.31,62.26 -47.35,62.47 -48.42,62.69 -49.48,62.90 -51.26,63.33 -53.04,63.76 -54.37,64.21 -55.69,64.66 -57.03,64.87 -58.36,65.09 -59.49,65.38 -60.62,65.68 -60.84,65.69 -61.06,65.71 -61.45,65.68 -61.85,65.65 -62.23,65.53 -62.62,65.40 -62.95,65.19 -63.29,64.98 -63.57,64.69 -63.85,64.41 -64.06,64.06 -64.26,63.72 -64.37,63.33 -64.49,62.95 -64.51,62.55 -64.53,62.15 -64.45,61.76 -64.37,61.37 -64.20,61.00 -64.03,60.64 -63.78,60.33 -63.53,60.02 -63.21,59.77 -62.90,59.53 -62.53,59.37 -62.16,59.21 -61.77,59.14 -61.37,59.08 -62.43,59.72 -63.49,60.36 -62.60,59.44 -61.71,58.52 -60.68,57.66 -59.64,56.79 -58.19,55.71 -56.73,54.62 -55.23,53.56 -53.73,52.51 -52.38,51.64 -51.04,50.77 -50.25,50.06 -49.45,49.35 -48.44,48.52 -47.43,47.70 -46.39,47.04 -45.35,46.38 -44.17,45.38 -43.00,44.38 -42.03,43.83 -41.06,43.29 -39.49,42.51 -37.92,41.73 -36.76,41.07 -35.60,40.42 -34.11,39.51 -32.63,38.60 -31.12,38.04 -29.62,37.48 -28.59,37.21 -27.55,36.94 -26.39,36.68 -25.22,36.43 -24.03,35.77 -22.83,35.12 -23.60,36.07 -24.37,37.02 -24.59,35.87 -24.80,34.73 -25.09,33.49 -25.39,32.24 -25.51,30.64 -25.63,29.04 -25.62,27.53 -25.61,26.03 -25.81,24.78 -26.01,23.54 -26.03,22.34 -26.06,21.14 -26.25,19.62 -26.44,18.11 -25.34,18.64 -24.23,19.17 -22.79,18.69 -21.34,18.21 -22.27,18.81 -23.20,19.41 -24.32,19.53 -25.44,19.65 -26.54,19.67 -27.65,19.68 -29.06,19.49 -30.48,19.29 -31.88,18.66 -33.29,18.04 -34.60,17.61 -35.91,17.19 -37.48,16.73 -39.04,16.27 -40.81,15.80 -42.58,15.32 -43.99,15.07 -45.40,14.81 -46.93,14.59 -48.46,14.37 -50.24,13.94 -52.03,13.51 -53.45,13.23 -54.87,12.95 -55.98,12.55 -57.09,12.15 -58.72,11.73 -60.36,11.30 -61.52,10.87 -62.68,10.44 -63.76,10.22 -64.83,9.99 -66.72,9.41 -68.60,8.83 -69.74,8.39 -70.88,7.96 -72.21,7.54 -73.53,7.12 -71.79,6.68 -70.05,6.23 -69.79,5.20 -69.53,4.17 -69.16,5.32 -68.80,6.46 -68.30,7.81 -67.79,9.16 -67.38,10.86 -66.96,12.55 -66.83,13.66 -66.69,14.76 -66.41,16.07 -66.13,17.38 -65.73,19.22 -65.34,21.07 -65.24,22.32 -65.14,23.57 -65.03,24.67 -64.92,25.77 -64.88,27.15 -64.84,28.53 -64.74,29.70 -64.64,30.88 -64.37,32.90 -64.11,34.93 -63.94,36.22 -63.77,37.51 -63.68,38.63 -63.60,39.75 -63.37,41.16 -63.14,42.57 -63.07,43.70 -62.99,44.83 -62.95,46.09 -62.91,47.34 -62.87,48.47 -62.82,49.60 -62.79,50.67 -62.76,51.74 -62.81,52.16 -62.86,52.58 -63.01,52.97 -63.16,53.37 -63.41,53.72 -63.65,54.07 -63.96,54.35 -64.28,54.63 -64.65,54.82 -65.03,55.02 -65.44,55.12 -65.85,55.22 -66.27,55.22 -66.70,55.22 -67.11,55.12 -67.52,55.02 -67.89,54.82 -68.27,54.63 -68.58,54.35 -68.90,54.07 -69.14,53.72 -69.38,53.37 -69.53,52.97 -69.68,52.58 -69.73,52.16 -69.78,51.74 -70.20,50.75 -70.61,49.77 -71.12,47.57 -71.63,45.37 -71.92,43.80 -72.22,42.22 -72.61,40.64 -73.01,39.06 -73.50,37.53 -74.00,36.01 -74.62,34.39 -75.25,32.77 -76.05,31.11 -76.84,29.46 -77.59,27.63 -78.34,25.81 -79.02,24.53 -79.71,23.24 -80.48,21.66 -81.25,20.07 -81.96,18.83 -82.67,17.60 -83.28,16.39 -83.90,15.18 -84.42,14.22 -84.94,13.27 -85.45,12.20 -85.96,11.13 -87.02,9.43 -88.09,7.74 -89.00,6.41 -89.91,5.09 -90.81,3.82 -91.72,2.56 -92.58,1.33 -93.45,0.10 -94.18,-1.21 -94.92,-2.53 -95.57,-3.81 -96.22,-5.08 -96.95,-6.44 -97.69,-7.79 -98.17,-8.89 -98.66,-9.99 -99.31,-11.24 -99.96,-12.49 -100.59,-13.66 -101.21,-14.82 -101.23,-16.71 -101.24,-18.60 -99.94,-19.81 -98.64,-21.02 -96.68,-20.91 -94.73,-20.79 -92.58,-20.72 -90.44,-20.64 -88.44,-20.43 -86.45,-20.22 -83.50,-19.76 -80.56,-19.30 -77.60,-18.78 -74.65,-18.26 -72.37,-17.73 -70.09,-17.20 -68.18,-16.86 -66.27,-16.52 -63.97,-16.07 -61.66,-15.62 -59.71,-15.31 -57.76,-15.01 -55.50,-14.45 -53.25,-13.90 -51.48,-13.60 -49.70,-13.30 -48.01,-12.95 -46.33,-12.60 -44.80,-12.37 -43.28,-12.14 -41.89,-11.82 -40.50,-11.49 -39.27,-11.28 -38.03,-11.08 -36.96,-10.90 -35.89,-10.71 -34.83,-10.55 -33.78,-10.38 -32.12,-10.02 -30.45,-9.66 -28.69,-9.53 -26.92,-9.39 -25.64,-9.22 -24.36,-9.04 -22.86,-9.07 -21.36,-9.11 -20.17,-8.94 -18.98,-8.78 -17.66,-8.84 -16.34,-8.91 -15.13,-8.94 -13.92,-8.97 -12.73,-8.80 -11.54,-8.63 -9.65,-8.33 -7.77,-8.02 -6.40,-7.81 -5.04,-7.60 -3.27,-7.19 -1.50,-6.78 -0.56,-6.16 0.38,-5.55 1.33,-4.33 2.28,-3.11 2.35,-1.94 2.42,-0.76 2.79,0.05 3.15,0.88 3.10,1.32 3.04,1.76 2.89,2.18 2.73,2.60 2.47,2.97 2.22,3.33 1.89,3.63 1.55,3.93 1.16,4.13 0.76,4.34 0.33,4.45 -0.09,4.56 -0.54,4.56 -0.99,4.56 -1.42,4.45 -1.85,4.34 -2.25,4.14 -2.65,3.93 -2.98,3.63 -3.31,3.34 -3.57,2.97 -3.82,2.60 -3.98,2.19 -4.14,1.77 -4.19,1.33 -4.25,0.88 -3.58,-0.54 -2.90,-1.97 -2.39,-2.27 -1.87,-2.57 -1.28,-2.69 -0.69,-2.81 -0.10,-2.74 0.49,-2.67 1.03,-2.41 1.57,-2.15 2.00,-1.73 2.43,-1.31 2.70,-0.78 2.97,-0.25 3.06,0.34 3.15,0.93 3.05,1.52 2.94,2.11 2.65,2.64 2.36,3.16 1.92,3.57 1.48,3.97 0.94,4.22 0.39,4.46 -0.20,4.52 -0.80,4.58 -1.38,4.44 -1.96,4.30 -2.47,3.99 -2.98,3.67 -3.36,3.21 -3.74,2.75 -3.96,2.19 -4.17,1.63 -4.20,1.03 -4.22,0.43 -4.05,-0.14 -3.88,-0.71 -3.54,-1.20 -3.20,-1.70 -2.72,-2.05 -2.23,-2.41 -1.66,-2.59 -1.09,-2.77 -0.49,-2.77 0.10,-2.76 0.66,-2.56 1.23,-2.36 1.70,-1.99 2.17,-1.62 2.50,-1.12 2.83,-0.62 2.98,-0.04 3.13,0.53 3.09,1.13 3.05,1.73 2.82,2.28 2.59,2.83 2.87,1.85 3.15,0.88 3.10,1.32 3.04,1.76 2.89,2.18 2.73,2.60 2.48,2.97 2.22,3.33 1.89,3.63 1.55,3.93 1.16,4.13 0.76,4.34 0.33,4.45 -0.09,4.56 -0.54,4.56 -0.99,4.56 -1.42,4.45 -1.85,4.34 -2.25,4.14 -2.65,3.93 -2.98,3.63 -3.31,3.34 -3.57,2.97 -3.82,2.60 -3.98,2.19 -4.14,1.77 -4.19,1.33 -4.25,0.88 -4.19,0.28 -4.12,-0.31 -5.20,-0.53 -6.28,-0.76 -7.75,-1.04 -9.22,-1.33 -10.58,-1.54 -11.95,-1.75 -13.37,-1.99 -14.80,-2.22 -15.87,-2.26 -16.95,-2.30 -18.05,-2.36 -19.16,-2.42 -20.30,-2.69 -21.43,-2.95 -22.61,-3.02 -23.79,-3.09 -25.26,-3.30 -26.74,-3.50 -27.85,-3.86 -28.97,-4.21 -30.44,-4.48 -31.92,-4.74 -33.34,-5.26 -34.76,-5.78 -36.85,-6.37 -38.93,-6.96 -40.27,-7.31 -41.61,-7.67 -42.78,-8.09 -43.95,-8.50 -45.55,-8.85 -47.14,-9.20 -48.72,-9.63 -50.30,-10.05 -52.12,-10.42 -53.95,-10.78 -56.09,-11.21 -58.24,-11.64 -60.23,-11.90 -62.22,-12.16 -64.53,-12.45 -66.84,-12.74 -68.82,-12.98 -70.79,-13.23 -72.99,-13.50 -75.19,-13.76 -78.10,-13.95 -81.02,-14.13 -83.74,-14.17 -86.46,-14.21 -88.48,-14.01 -90.49,-13.81 -92.72,-13.78 -94.96,-13.75 -96.10,-13.95 -97.25,-14.15 -96.52,-15.13 -95.79,-16.11 -95.96,-17.63 -96.13,-19.16 -95.23,-17.76 -94.34,-16.36 -93.71,-15.01 -93.08,-13.66 -92.63,-12.60 -92.17,-11.54 -91.61,-10.20 -91.04,-8.86 -90.54,-7.76 -90.05,-6.66 -89.49,-5.38 -88.93,-4.09 -88.41,-3.01 -87.88,-1.94 -86.97,-0.61 -86.07,0.72 -85.22,2.15 -84.38,3.58 -83.50,5.26 -82.62,6.95 -82.01,8.05 -81.41,9.15 -81.01,10.16 -80.62,11.17 -80.17,12.19 -79.73,13.21 -79.25,14.33 -78.77,15.45 -78.07,16.78 -77.36,18.10 -76.55,19.64 -75.74,21.18 -75.02,22.59 -74.31,23.99 -73.52,25.59 -72.73,27.18 -71.65,28.92 -70.57,30.65 -69.70,32.34 -68.83,34.03 -68.12,35.63 -67.42,37.24 -66.74,38.95 -66.06,40.67 -65.57,42.18 -65.09,43.69 -64.69,44.94 -64.30,46.20 -63.78,47.84 -63.26,49.48 -63.01,50.61 -62.76,51.74 -62.81,52.16 -62.86,52.58 -63.01,52.97 -63.16,53.37 -63.40,53.72 -63.65,54.07 -63.96,54.35 -64.28,54.63 -64.65,54.82 -65.03,55.02 -65.44,55.12 -65.85,55.22 -66.27,55.22 -66.70,55.22 -67.11,55.12 -67.52,55.02 -67.89,54.82 -68.27,54.63 -68.58,54.35 -68.90,54.07 -69.14,53.72 -69.38,53.37 -69.53,52.97 -69.68,52.58 -69.73,52.16 -69.78,51.74 -69.77,51.28 -69.76,50.81 -69.72,49.55 -69.67,48.29 -69.64,47.19 -69.60,46.08 -69.60,44.62 -69.59,43.16 -69.79,41.66 -69.98,40.17 -70.17,38.52 -70.36,36.88 -70.44,35.38 -70.51,33.89 -70.73,32.76 -70.94,31.63 -71.14,30.26 -71.35,28.89 -71.45,27.79 -71.55,26.68 -71.84,24.62 -72.14,22.56 -72.57,20.88 -73.01,19.20 -73.43,17.38 -73.86,15.56 -74.15,14.26 -74.44,12.95 -74.76,11.87 -75.09,10.78 -75.44,9.69 -75.79,8.60 -76.28,6.86 -76.78,5.11 -76.38,3.57 -75.99,2.02 -73.98,1.15 -71.96,0.28 -70.83,0.75 -69.70,1.22 -68.42,1.68 -67.13,2.14 -66.09,2.43 -65.04,2.71 -63.90,3.05 -62.76,3.39 -61.57,3.67 -60.38,3.95 -59.33,4.36 -58.29,4.77 -57.20,5.12 -56.12,5.46 -55.05,5.85 -53.98,6.24 -52.22,6.56 -50.45,6.88 -48.83,7.24 -47.21,7.59 -45.50,7.82 -43.80,8.04 -42.36,8.29 -40.91,8.54 -39.15,8.94 -37.40,9.33 -35.67,9.76 -33.93,10.18 -32.02,10.75 -30.11,11.31 -28.67,11.73 -27.22,12.16 -26.16,12.35 -25.10,12.55 -23.01,12.59 -20.92,12.63 -20.02,14.66 -19.11,16.69 -19.08,17.95 -19.05,19.21 -18.87,20.43 -18.69,21.66 -18.65,22.87 -18.62,24.07 -18.43,25.70 -18.24,27.32 -18.17,28.89 -18.10,30.46 -17.87,32.34 -17.63,34.21 -17.29,35.91 -16.95,37.61 -17.21,38.70 -17.46,39.80 -19.12,40.82 -20.79,41.84 -21.71,42.41 -22.64,42.98 -23.87,43.00 -25.10,43.03 -26.50,43.70 -27.90,44.38 -29.11,44.88 -30.31,45.37 -31.29,45.95 -32.26,46.52 -33.55,47.25 -34.84,47.99 -35.91,48.49 -36.98,48.98 -38.69,49.98 -40.40,50.99 -41.95,52.19 -43.50,53.39 -44.74,54.36 -45.99,55.33 -47.35,56.31 -48.70,57.30 -50.02,58.13 -51.33,58.97 -52.18,59.68 -53.03,60.38 -54.34,61.35 -55.66,62.31 -57.24,63.13 -58.82,63.94 -59.94,64.82 -61.06,65.71 -61.45,65.68 -61.85,65.65 -62.23,65.53 -62.61,65.40 -62.95,65.19 -63.29,64.98 -63.57,64.69 -63.85,64.41 -64.06,64.06 -64.26,63.72 -64.37,63.33 -64.49,62.95 -64.51,62.55 -64.53,62.15 -64.45,61.76 -64.37,61.37 -64.20,61.00 -64.03,60.64 -63.78,60.33 -63.53,60.02 -63.22,59.77 -62.90,59.53 -62.53,59.37 -62.16,59.21 -61.77,59.14 -61.37,59.08 -60.97,59.15 -60.57,59.22 -58.98,58.93 -57.38,58.65 -55.93,58.23 -54.47,57.82 -52.57,57.39 -50.67,56.97 -48.60,56.54 -46.52,56.11 -44.68,55.73 -42.84,55.35 -41.32,55.15 -39.80,54.95 -37.89,54.55 -35.99,54.14 -34.92,53.94 -33.85,53.74 -32.80,53.53 -31.75,53.33 -30.66,53.11 -29.58,52.90 -27.43,52.43 -25.28,51.97 -23.97,51.58 -22.65,51.20 -21.37,50.94 -20.09,50.68 -18.81,50.37 -17.54,50.06 -16.10,49.57 -14.66,49.08 -13.30,48.58 -11.94,48.08 -10.48,47.47 -9.02,46.86 -7.99,46.53 -6.95,46.20 -5.57,45.58 -4.20,44.96 -3.01,44.52 -1.83,44.08 -0.53,43.70 0.76,43.32 2.82,43.19 4.88,43.05 6.29,43.11 7.71,43.16 9.35,44.53 11.00,45.90 11.02,46.30 11.05,46.70 10.97,47.10 10.90,47.49 10.74,47.86 10.57,48.22 10.32,48.54 10.08,48.85 9.76,49.10 9.45,49.35 9.08,49.51 8.72,49.68 8.32,49.75 7.93,49.82 7.53,49.80 7.13,49.77 6.75,49.65 6.36,49.53 6.02,49.33 5.68,49.12 5.39,48.84 5.11,48.55 4.90,48.21 4.70,47.87 4.58,47.48 4.46,47.10 7.73,46.52 11.00,45.94 11.02,46.34 11.04,46.74 10.97,47.14 10.90,47.53 10.73,47.90 10.57,48.27 10.32,48.59 10.07,48.90 9.75,49.15 9.44,49.40 9.07,49.57 8.70,49.73 8.31,49.80 7.91,49.88 7.51,49.85 7.11,49.83 6.72,49.71 6.34,49.59 5.99,49.38 5.65,49.17 5.36,48.89 5.08,48.60 4.87,48.26 4.66,47.91 4.54,47.53 4.42,47.14 4.42,46.80 4.41,46.46 4.24,44.80 4.06,43.15 3.85,41.92 3.63,40.69 3.27,39.00 2.90,37.31 2.64,35.67 2.39,34.03 1.96,32.24 1.53,30.44 1.09,28.34 0.65,26.24 0.28,24.96 -0.09,23.67 -0.31,22.43 -0.53,21.19 -0.76,19.84 -0.99,18.48 -1.20,17.22 -1.40,15.97 -1.65,13.55 -1.90,11.13 -2.05,9.52 -2.21,7.91 -2.33,6.55 -2.46,5.18 -2.57,3.58 -2.67,1.98 -2.64,0.99 -2.61,0 -2.57,-0.31 -2.53,-0.62 -2.42,-0.91 -2.31,-1.21 -2.13,-1.47 -1.95,-1.73 -1.72,-1.94 -1.48,-2.15 -1.20,-2.29 -0.92,-2.44 -0.62,-2.51 -0.31,-2.59 0.00,-2.59 0.31,-2.59 0.62,-2.51 0.92,-2.44 1.20,-2.29 1.48,-2.15 1.72,-1.94 1.95,-1.73 2.13,-1.47 2.31,-1.21 2.42,-0.91 2.53,-0.62 2.57,-0.31 2.61,0.00 2.61,0.00 L 2.61,0 Z"></path></g><g stroke-linecap="round" transform="translate(52.22222222222217 630) rotate(0 410 50)"><path d="M25 0 C304.48 -3.28, 584.78 -2.69, 795 0 C813.53 1.36, 820.57 5.06, 820 25 C821.59 43.45, 817.54 61.44, 820 75 C822.64 91.84, 814.87 101.25, 795 100 C598.77 98.67, 405.77 99.83, 25 100 C8.59 100.04, -3.55 94.41, 0 75 C1.65 66.04, 0.85 53.79, 0 25 C2.69 7.9, 6.28 0.88, 25 0" stroke="none" stroke-width="0" fill="#ffffff"></path><path d="M25 0 C191.52 -1.49, 357.02 -1.55, 795 0 M25 0 C184.23 -2.85, 343.96 -3.18, 795 0 M795 0 C811.02 -1.72, 818.17 7.53, 820 25 M795 0 C813.96 -1.74, 820.91 6.14, 820 25 M820 25 C820.53 39.96, 818.3 59.3, 820 75 M820 25 C820.46 42.53, 819.49 59.78, 820 75 M820 75 C818.24 91.97, 812.02 101.6, 795 100 M820 75 C820.31 92.03, 812.7 100.48, 795 100 M795 100 C608.26 98.23, 423.05 99.17, 25 100 M795 100 C611.45 97.93, 428.33 97.95, 25 100 M25 100 C9.96 101.52, 1.9 90.56, 0 75 M25 100 C7.37 97.71, 0.55 92.4, 0 75 M0 75 C-1.26 64.54, 0.99 53.19, 0 25 M0 75 C-0.76 62.16, -0.18 47.54, 0 25 M0 25 C-1.02 9.17, 8.34 -0.49, 25 0 M0 25 C0.77 9.96, 9.91 -0.02, 25 0" stroke="#1e1e1e" stroke-width="4" fill="none"></path></g><g stroke-linecap="round" transform="translate(112.22222222222217 650) rotate(46.8842985988338 30 30)"><path d="M56.71 14.99 C60.67 20.13, 61.02 29.06, 60.21 35.07 C59.4 41.08, 56.5 47.07, 51.84 51.05 C47.19 55.03, 39.01 58.52, 32.27 58.96 C25.54 59.39, 16.62 57.31, 11.44 53.69 C6.26 50.06, 2.82 43.22, 1.17 37.2 C-0.48 31.18, -1.43 23.17, 1.55 17.57 C4.53 11.96, 13.02 6.41, 19.06 3.57 C25.1 0.74, 31.22 -2.11, 37.77 0.55 C44.33 3.21, 54.51 15.61, 58.37 19.54 C62.23 23.48, 61.24 23.98, 60.95 24.14 M15.14 3.98 C19.57 -0.19, 26.77 -3.36, 33.15 -2.46 C39.53 -1.56, 49.35 3.87, 53.42 9.39 C57.5 14.9, 58.05 24.09, 57.58 30.64 C57.1 37.19, 54.7 44.06, 50.56 48.67 C46.42 53.29, 38.85 56.74, 32.72 58.33 C26.6 59.91, 18.67 60.92, 13.8 58.19 C8.93 55.46, 5.04 48.36, 3.52 41.92 C1.99 35.49, 2.48 26.03, 4.64 19.58 C6.8 13.13, 15.18 5.68, 16.49 3.23 C17.8 0.77, 12.21 3.97, 12.51 4.85" stroke="none" stroke-width="0" fill="#ffffff"></path><path d="M12.62 5.06 C17.66 1.31, 26.43 0.92, 33.07 1.51 C39.71 2.1, 47.75 4.05, 52.43 8.62 C57.11 13.18, 60.6 22.74, 61.15 28.92 C61.7 35.11, 59.7 40.97, 55.76 45.73 C51.82 50.49, 43.81 55.36, 37.5 57.46 C31.18 59.56, 23.51 60.69, 17.87 58.31 C12.23 55.93, 6.78 48.97, 3.66 43.19 C0.54 37.41, -4.25 30.53, -0.85 23.64 C2.55 16.76, 17.33 5.48, 24.05 1.89 C30.77 -1.71, 39.41 1.77, 39.47 2.06 M51.11 6.31 C56.25 9.58, 61.51 18.81, 61.92 25.29 C62.32 31.76, 56.83 39.35, 53.55 45.17 C50.28 50.99, 48 58.11, 42.24 60.22 C36.48 62.34, 25.93 60.16, 18.98 57.85 C12.04 55.54, 3.98 52.19, 0.55 46.38 C-2.87 40.56, -3.14 29.42, -1.58 22.95 C-0.03 16.47, 4.13 11.27, 9.89 7.53 C15.64 3.79, 26.08 0.12, 32.96 0.52 C39.84 0.92, 48.46 8.96, 51.18 9.94 C53.9 10.93, 49.7 6.7, 49.3 6.44" stroke="#1e1e1e" stroke-width="4" fill="none"></path></g><g stroke-linecap="round" transform="translate(212.22222222222217 649.9999999999995) rotate(46.8842985988338 30 30)"><path d="M4.02 13.2 C6.89 8.1, 14.62 2.57, 20.79 0.74 C26.97 -1.1, 35.16 -0.84, 41.08 2.2 C46.99 5.24, 53.16 12.86, 56.3 18.98 C59.44 25.11, 61.16 33.06, 59.93 38.96 C58.69 44.87, 54.17 51.04, 48.89 54.41 C43.61 57.78, 35.26 59.75, 28.26 59.18 C21.26 58.62, 11.37 55.32, 6.91 51.03 C2.45 46.73, 0.62 40.83, 1.5 33.39 C2.38 25.95, 9.55 11.53, 12.19 6.38 C14.83 1.23, 17.38 1.84, 17.34 2.47 M43.66 4.83 C48.85 7.61, 54.07 12, 56.61 17.78 C59.15 23.56, 60.54 33.43, 58.9 39.52 C57.27 45.6, 53 51.37, 46.79 54.31 C40.58 57.24, 28.43 58.1, 21.66 57.13 C14.89 56.16, 9.47 53.08, 6.15 48.5 C2.82 43.92, 1.1 36.12, 1.71 29.64 C2.32 23.17, 6.34 14.31, 9.81 9.66 C13.28 5, 16.96 2.59, 22.51 1.7 C28.06 0.81, 39.37 4.22, 43.1 4.29 C46.83 4.37, 44.32 1.55, 44.89 2.15" stroke="none" stroke-width="0" fill="#ffffff"></path><path d="M26.7 1.6 C32.88 0.23, 40.17 0.74, 45.09 4.01 C50 7.28, 54.26 15.26, 56.19 21.2 C58.13 27.14, 58.76 33.73, 56.72 39.65 C54.68 45.57, 49.06 53.35, 43.96 56.73 C38.87 60.1, 32.16 60.87, 26.14 59.89 C20.11 58.91, 12.2 55.99, 7.8 50.83 C3.4 45.67, -0.19 35.78, -0.24 28.92 C-0.3 22.07, 0.13 14.08, 7.46 9.71 C14.8 5.34, 35.13 1.27, 43.79 2.73 C52.44 4.18, 59.43 17.51, 59.38 18.45 M54.88 10.47 C58.94 14.26, 60.84 22.81, 60.22 29.21 C59.59 35.61, 55.33 43.84, 51.12 48.89 C46.91 53.94, 41.45 58.23, 34.96 59.52 C28.48 60.82, 17.45 59.75, 12.21 56.68 C6.97 53.61, 5.33 47.49, 3.52 41.08 C1.71 34.67, -0.76 24.35, 1.35 18.21 C3.46 12.08, 9.96 7.61, 16.17 4.27 C22.39 0.93, 32.08 -3.06, 38.65 -1.85 C45.22 -0.63, 53.46 8.97, 55.58 11.55 C57.69 14.13, 51.84 13.31, 51.32 13.66" stroke="#1e1e1e" stroke-width="4" fill="none"></path></g><g stroke-linecap="round" transform="translate(312.2222222222222 649.9999999999995) rotate(46.8842985988338 30 30)"><path d="M47.4 6.93 C52.91 10.6, 58.58 17.63, 60.15 23.48 C61.72 29.33, 59.84 36.58, 56.8 42.03 C53.75 47.48, 47.5 53.18, 41.9 56.18 C36.31 59.18, 29.34 61.79, 23.21 60.02 C17.08 58.26, 9.17 51, 5.12 45.6 C1.07 40.19, -1.53 34.01, -1.1 27.58 C-0.67 21.15, 2.84 11.73, 7.71 7.01 C12.58 2.28, 19.47 -2.68, 28.15 -0.76 C36.82 1.16, 55.01 12.39, 59.76 18.54 C64.52 24.69, 57.46 35.8, 56.67 36.15 M45.51 1.85 C51.05 4, 57.93 12.03, 59.96 18.59 C61.99 25.14, 60.82 34.41, 57.69 41.19 C54.56 47.96, 46.7 56.08, 41.16 59.23 C35.63 62.38, 30.2 61.41, 24.49 60.08 C18.78 58.75, 10.69 56.42, 6.91 51.24 C3.12 46.06, 1.38 36.38, 1.77 29 C2.16 21.62, 5.46 12.15, 9.23 6.97 C13.01 1.79, 18.36 -1.68, 24.39 -2.08 C30.42 -2.48, 42.11 3.26, 45.43 4.59 C48.75 5.93, 44.14 5.08, 44.31 5.92" stroke="none" stroke-width="0" fill="#ffffff"></path><path d="M39.72 2.52 C45.13 4.26, 52.15 8.75, 55.24 14.63 C58.34 20.51, 59.53 31.3, 58.3 37.79 C57.06 44.29, 52.34 49.59, 47.83 53.59 C43.32 57.58, 37.42 61.63, 31.22 61.78 C25.01 61.94, 15.58 59.14, 10.6 54.52 C5.62 49.91, 2.35 40.91, 1.33 34.07 C0.32 27.23, 1.48 18.99, 4.49 13.48 C7.5 7.97, 10.58 0.4, 19.39 1 C28.2 1.59, 51.18 10.57, 57.36 17.03 C63.55 23.48, 56.79 39.33, 56.5 39.72 M23.67 3.59 C29.27 2.08, 35.35 3.21, 41.05 5.37 C46.75 7.52, 54.58 10.73, 57.87 16.51 C61.16 22.29, 62.6 33.67, 60.79 40.05 C58.97 46.44, 52.96 52, 46.98 54.82 C40.99 57.63, 31.21 57.83, 24.86 56.95 C18.51 56.08, 13.42 53.59, 8.88 49.57 C4.35 45.54, -1.43 39.09, -2.37 32.79 C-3.31 26.49, -0.5 17.31, 3.26 11.79 C7.02 6.27, 17.13 1.06, 20.2 -0.34 C23.27 -1.73, 20.81 2.51, 21.67 3.4" stroke="#1e1e1e" stroke-width="4" fill="none"></path></g><g stroke-linecap="round" transform="translate(412.2222222222222 649.9999999999995) rotate(46.8842985988338 30 30)"><path d="M25.18 2.02 C31.11 0.13, 39.13 -0.49, 44.8 2.23 C50.46 4.96, 56.95 12.02, 59.17 18.36 C61.38 24.71, 60.79 33.7, 58.09 40.28 C55.4 46.86, 48.48 54.55, 43 57.84 C37.52 61.13, 31.16 61.15, 25.22 60.03 C19.27 58.9, 11.35 56.1, 7.34 51.09 C3.33 46.08, 1.04 37.04, 1.16 29.97 C1.28 22.91, 3.62 13.95, 8.07 8.7 C12.52 3.45, 23.8 -0.2, 27.87 -1.54 C31.93 -2.88, 32.43 -0.16, 32.47 0.67 M46.87 8.92 C51.62 11.81, 57.57 15.09, 59.51 21.37 C61.45 27.65, 61.16 40.06, 58.51 46.6 C55.87 53.15, 49.7 58.37, 43.65 60.61 C37.6 62.86, 28.36 62.7, 22.2 60.08 C16.04 57.46, 9.99 50.76, 6.69 44.89 C3.4 39.03, 1.72 30.94, 2.44 24.88 C3.16 18.82, 6.88 12.83, 11.01 8.55 C15.14 4.26, 21.01 -0.45, 27.21 -0.82 C33.41 -1.2, 45.05 5.54, 48.2 6.28 C51.35 7.02, 46.71 3.59, 46.1 3.61" stroke="none" stroke-width="0" fill="#ffffff"></path><path d="M47.43 6.42 C52.44 10.17, 58.33 18.64, 59.61 25.08 C60.89 31.52, 58.07 39.8, 55.13 45.04 C52.19 50.28, 47.38 54.09, 41.96 56.53 C36.54 58.97, 28.75 61.38, 22.62 59.66 C16.49 57.94, 9.11 52.06, 5.19 46.2 C1.27 40.33, -1.68 30.94, -0.88 24.48 C-0.08 18.01, 5.38 11.36, 9.99 7.4 C14.6 3.45, 19.26 -0.8, 26.79 0.75 C34.32 2.29, 50.07 11.82, 55.18 16.67 C60.29 21.51, 57.79 29.34, 57.47 29.81 M44.39 5.83 C49.5 7.64, 54.84 11.16, 57.16 17.24 C59.49 23.32, 60.05 35.6, 58.32 42.32 C56.58 49.05, 52.42 54.91, 46.76 57.59 C41.1 60.27, 31.14 60.02, 24.36 58.37 C17.59 56.73, 9.89 52.18, 6.11 47.73 C2.33 43.28, 1.6 38.23, 1.69 31.7 C1.78 25.16, 3.12 13.66, 6.65 8.54 C10.18 3.42, 16.8 2.16, 22.88 0.98 C28.97 -0.19, 39.38 1.11, 43.16 1.48 C46.94 1.85, 45.13 2.69, 45.56 3.21" stroke="#1e1e1e" stroke-width="4" fill="none"></path></g><g stroke-linecap="round" transform="translate(512.2222222222222 649.9999999999995) rotate(46.8842985988338 30 30)"><path d="M55.73 14.45 C59.4 18.85, 61.65 26.47, 61.04 32.54 C60.43 38.61, 56.78 46.24, 52.06 50.86 C47.34 55.49, 39.51 59.85, 32.71 60.28 C25.9 60.72, 16.55 57.35, 11.25 53.48 C5.95 49.61, 2.41 43.55, 0.89 37.06 C-0.63 30.58, -0.56 20.58, 2.13 14.58 C4.81 8.58, 10.63 3.02, 16.98 1.09 C23.32 -0.85, 33 -1.8, 40.21 2.99 C47.41 7.77, 57.53 22.91, 60.19 29.79 C62.85 36.68, 56.78 44.04, 56.19 44.3 M49.5 6.31 C54.15 9.42, 58.01 15.34, 58.84 21.05 C59.67 26.75, 57.67 34.82, 54.49 40.55 C51.32 46.28, 45.11 52.45, 39.8 55.45 C34.49 58.45, 28.17 59.63, 22.64 58.53 C17.12 57.44, 10.07 54.61, 6.67 48.87 C3.27 43.13, 1.47 30.78, 2.25 24.1 C3.03 17.42, 6.73 12.79, 11.34 8.79 C15.96 4.79, 23.42 0.44, 29.96 0.11 C36.49 -0.22, 47.88 6.02, 50.58 6.81 C53.27 7.6, 46.84 5.01, 46.14 4.85" stroke="none" stroke-width="0" fill="#ffffff"></path><path d="M49.17 6.41 C53.76 9.73, 57.66 17.35, 58.96 24 C60.25 30.65, 60.16 40.86, 56.96 46.33 C53.77 51.8, 46.23 54.78, 39.78 56.8 C33.33 58.82, 24.43 60.72, 18.25 58.44 C12.07 56.15, 5.55 48.88, 2.69 43.08 C-0.16 37.28, -0.51 29.91, 1.12 23.65 C2.75 17.39, 7.89 9.73, 12.47 5.53 C17.04 1.33, 21.32 -3.18, 28.58 -1.54 C35.83 0.11, 50.71 10.78, 55.99 15.39 C61.27 20.01, 60.38 25.93, 60.26 26.14 M5.53 12.31 C8.09 7.94, 13.38 5.01, 19.77 3.58 C26.16 2.14, 37.51 0.87, 43.88 3.7 C50.25 6.52, 55.2 14.75, 58 20.52 C60.79 26.28, 62.26 33.06, 60.66 38.3 C59.05 43.54, 54.23 48.75, 48.37 51.95 C42.5 55.16, 32.2 57.7, 25.46 57.53 C18.72 57.36, 12.41 55.01, 7.93 50.94 C3.46 46.87, -1.32 39.09, -1.4 33.1 C-1.47 27.11, 6.09 18.57, 7.5 15.02 C8.9 11.46, 6.47 11.83, 7.03 11.76" stroke="#1e1e1e" stroke-width="4" fill="none"></path></g><g stroke-linecap="round" transform="translate(612.2222222222222 649.9999999999995) rotate(46.8842985988338 30 30)"><path d="M37.61 1.17 C43.33 1.8, 48.69 5.53, 52.45 10.16 C56.21 14.8, 59.83 22.55, 60.16 28.97 C60.49 35.39, 58.88 43.81, 54.42 48.67 C49.96 53.53, 40.4 57.09, 33.41 58.13 C26.43 59.18, 17.97 57.93, 12.5 54.93 C7.03 51.94, 2.33 45.94, 0.59 40.16 C-1.14 34.38, -0.2 26.25, 2.08 20.25 C4.37 14.26, 6.63 6.1, 14.32 4.19 C22.01 2.28, 41.08 5.73, 48.22 8.78 C55.37 11.83, 57.45 22.02, 57.18 22.48 M54.52 10.12 C59.52 14.72, 63.22 25.66, 62.49 32.58 C61.75 39.51, 55.19 46.83, 50.11 51.69 C45.03 56.55, 37.58 61.07, 32 61.77 C26.41 62.47, 21.38 59.94, 16.61 55.91 C11.85 51.88, 6.11 43.52, 3.41 37.59 C0.72 31.66, -1.74 25.99, 0.45 20.35 C2.65 14.7, 10.73 7.23, 16.58 3.71 C22.42 0.19, 28.97 -2.24, 35.53 -0.79 C42.08 0.67, 53.42 10.35, 55.91 12.45 C58.39 14.55, 50.91 12.11, 50.45 11.82" stroke="none" stroke-width="0" fill="#ffffff"></path><path d="M30.2 1.63 C36.56 0.81, 43.92 1.82, 49.09 5.53 C54.26 9.25, 60.22 17.28, 61.25 23.9 C62.27 30.52, 58.24 39.37, 55.24 45.24 C52.25 51.1, 48.67 56.77, 43.26 59.1 C37.85 61.42, 29.06 61.19, 22.77 59.21 C16.48 57.22, 9.42 52.49, 5.51 47.18 C1.61 41.87, -1.24 33.76, -0.67 27.35 C-0.1 20.94, 2.49 13.24, 8.93 8.71 C15.37 4.17, 31.98 0.77, 37.95 0.16 C43.93 -0.46, 44.95 4.58, 44.79 5.02 M7.57 15.74 C11.01 10.76, 15.9 3.44, 22.1 0.78 C28.3 -1.88, 39.03 -3.25, 44.77 -0.22 C50.5 2.81, 53.81 12.28, 56.51 18.95 C59.22 25.63, 62.61 33.68, 61 39.85 C59.4 46.01, 52.34 52.65, 46.87 55.94 C41.41 59.22, 34.85 60.7, 28.22 59.58 C21.59 58.45, 12.26 53.96, 7.1 49.19 C1.95 44.41, -2.05 36.73, -2.72 30.93 C-3.39 25.13, 1.73 16.99, 3.09 14.36 C4.46 11.74, 4.3 14.78, 5.45 15.2" stroke="#1e1e1e" stroke-width="4" fill="none"></path></g><g stroke-linecap="round" transform="translate(712.2222222222222 649.9999999999995) rotate(46.8842985988338 30 30)"><path d="M28.24 -1.61 C34.58 -2.85, 43.06 1.79, 48.37 5.44 C53.68 9.09, 58.81 14.51, 60.11 20.29 C61.41 26.07, 58.89 34.35, 56.18 40.11 C53.47 45.88, 49.66 51.87, 43.85 54.88 C38.04 57.88, 27.74 59.52, 21.32 58.15 C14.9 56.78, 8.99 51.84, 5.34 46.68 C1.69 41.53, -1.15 33.27, -0.56 27.22 C0.02 21.16, 1.95 14.58, 8.84 10.35 C15.73 6.12, 33.55 2.26, 40.76 1.85 C47.98 1.44, 52.82 7.31, 52.13 7.88 M16.88 1.89 C22.2 -1.04, 33.23 1.46, 39.07 2.75 C44.91 4.04, 48.53 5.14, 51.92 9.65 C55.31 14.16, 59.1 23.38, 59.42 29.81 C59.74 36.23, 57.81 43.69, 53.84 48.2 C49.88 52.7, 42.08 55.37, 35.63 56.86 C29.18 58.35, 20.55 60.15, 15.12 57.11 C9.68 54.07, 4.96 45.06, 3.04 38.64 C1.12 32.22, 1.07 24.52, 3.61 18.6 C6.14 12.67, 15.98 5.85, 18.24 3.07 C20.49 0.29, 17.04 1.67, 17.13 1.9" stroke="none" stroke-width="0" fill="#ffffff"></path><path d="M48.27 7.97 C53.39 11.04, 58.66 16.55, 59.88 22.55 C61.1 28.55, 58.93 37.82, 55.6 43.99 C52.26 50.15, 45.81 57.3, 39.86 59.54 C33.92 61.79, 26.03 60, 19.92 57.44 C13.81 54.87, 6.61 49.56, 3.2 44.18 C-0.2 38.79, -1.64 31.14, -0.48 25.11 C0.68 19.07, 5.15 12.35, 10.19 7.96 C15.23 3.58, 22.68 -1.19, 29.75 -1.19 C36.82 -1.19, 48.26 5.52, 52.63 7.96 C57 10.4, 56.22 13.05, 55.98 13.44 M53.83 11.22 C57.59 16.35, 58.73 25.71, 59.05 31.49 C59.37 37.27, 59.22 41.74, 55.76 45.92 C52.29 50.1, 44.55 54.49, 38.26 56.58 C31.97 58.66, 24.02 60.73, 18.03 58.46 C12.04 56.19, 5.45 49.49, 2.32 42.95 C-0.82 36.4, -2.91 25.38, -0.77 19.17 C1.37 12.97, 9.35 8.89, 15.16 5.73 C20.98 2.56, 28.16 -0.96, 34.13 0.19 C40.1 1.33, 47.81 11.3, 51 12.61 C54.19 13.91, 53.36 7.75, 53.27 8.01" stroke="#1e1e1e" stroke-width="4" fill="none"></path></g><g stroke-linecap="round" transform="translate(652.2222222222222 450) rotate(0 90 90)"><path d="M32 0 C57.99 -4.48, 91.98 -4.44, 148 0 C166.95 -2.7, 178.86 10.92, 180 32 C177.42 75.22, 178.76 123.56, 180 148 C179.78 166.7, 170.56 179.95, 148 180 C110.29 181.3, 67.8 180.44, 32 180 C11.08 176.53, 0.97 170.42, 0 148 C-0.48 102.18, -1.53 54.63, 0 32 C0.44 8.34, 9.72 -2.23, 32 0" stroke="none" stroke-width="0" fill="#ffffff"></path><path d="M32 0 C60.7 -0.91, 86.85 0, 148 0 M32 0 C62.9 0.68, 95.29 1.03, 148 0 M148 0 C169.66 2, 179.31 8.8, 180 32 M148 0 C170.41 -1.11, 181.66 11.1, 180 32 M180 32 C180.78 68.83, 178.07 107.69, 180 148 M180 32 C181.17 60.49, 181.02 91.47, 180 148 M180 148 C181.08 169.01, 170.25 179.98, 148 180 M180 148 C181.68 169.05, 169.95 178.41, 148 180 M148 180 C108.37 181.07, 68.6 181.6, 32 180 M148 180 C104.51 179.64, 58.57 180.16, 32 180 M32 180 C10.53 179.34, -0.65 169.99, 0 148 M32 180 C10.73 179.46, -0.93 167.89, 0 148 M0 148 C1.54 123.48, 2.17 99.3, 0 32 M0 148 C0.61 107.4, 0.54 67.3, 0 32 M0 32 C0.87 9.81, 10.04 1.01, 32 0 M0 32 C-0.03 9.53, 9.64 0.28, 32 0" stroke="#1e1e1e" stroke-width="4" fill="none"></path></g><g stroke-linecap="round" transform="translate(392.2222222222222 450) rotate(0 90 90)"><path d="M32 0 C65.98 1.77, 103.09 3.74, 148 0 C169.42 3.58, 182.26 10.96, 180 32 C178.52 77.31, 182.03 127.28, 180 148 C182.43 171.2, 170.01 177.07, 148 180 C117.64 183.8, 78.61 181.87, 32 180 C9.04 179.23, -2.09 172.34, 0 148 C1.17 118.61, 1.77 80.61, 0 32 C2.08 13.77, 8.01 1.34, 32 0" stroke="none" stroke-width="0" fill="#ffffff"></path><path d="M32 0 C73.9 0.56, 117.45 0.14, 148 0 M32 0 C68.84 0.62, 104.16 -0.21, 148 0 M148 0 C171.02 -0.7, 178.44 11.02, 180 32 M148 0 C169.17 -0.76, 179.25 11.42, 180 32 M180 32 C178.47 65.44, 179.04 101.94, 180 148 M180 32 C181 73.95, 180.52 114.72, 180 148 M180 148 C181.7 169.52, 170.89 181.39, 148 180 M180 148 C181 168.34, 168.61 181.17, 148 180 M148 180 C113.57 178.44, 78.26 181.35, 32 180 M148 180 C121.48 180.12, 95.59 180.47, 32 180 M32 180 C10.81 181.59, -0.86 170.76, 0 148 M32 180 C9.59 179.48, -0.21 171.56, 0 148 M0 148 C0.82 114.81, 1.06 80.56, 0 32 M0 148 C-0.26 105.91, -1.13 63.87, 0 32 M0 32 C0.6 12.54, 8.76 -1.23, 32 0 M0 32 C-1.58 10.57, 8.42 -1.31, 32 0" stroke="#1e1e1e" stroke-width="4" fill="none"></path></g><g stroke-linecap="round" transform="translate(112.22222222222217 450) rotate(0 90 90)"><path d="M32 0 C73.39 -4.32, 120.28 2.57, 148 0 C170.97 -2.59, 179.64 9.2, 180 32 C176.95 60.87, 177.51 85.43, 180 148 C183.57 165.76, 172.31 180.82, 148 180 C104.74 181.89, 60.87 178.03, 32 180 C11.92 180.44, -2.56 165.9, 0 148 C1.59 113.44, -4.92 75.46, 0 32 C-1.42 12.27, 12.64 1.15, 32 0" stroke="none" stroke-width="0" fill="#ffffff"></path><path d="M32 0 C61.79 -1.58, 90.73 -0.35, 148 0 M32 0 C60 -1.79, 90.22 -1.78, 148 0 M148 0 C168.01 -1.5, 179.37 10.81, 180 32 M148 0 C171.17 -0.99, 181.64 9.59, 180 32 M180 32 C179.77 62.72, 180.58 96.33, 180 148 M180 32 C180.76 72.15, 180.07 111.92, 180 148 M180 148 C180.23 167.4, 169.87 180.6, 148 180 M180 148 C182.15 167.14, 167.91 178.42, 148 180 M148 180 C113.95 178.05, 78.89 178.1, 32 180 M148 180 C109.29 182.02, 71.16 181.11, 32 180 M32 180 C12.65 179.07, 1.01 169.05, 0 148 M32 180 C10.04 181.92, 1.72 170.89, 0 148 M0 148 C-0.39 106.13, 0.4 68.32, 0 32 M0 148 C0.11 102.81, -0.01 58.88, 0 32 M0 32 C-0.5 12.24, 12.23 1.56, 32 0 M0 32 C1.62 12.85, 8.4 1.33, 32 0" stroke="#1e1e1e" stroke-width="4" fill="none"></path></g></svg>