<svg version="1.1" xmlns="http://www.w3.org/2000/svg" viewBox="0 0 540 760" width="1080" height="1520">
  <!-- svg-source:excalidraw -->
  
  <defs>
    <style class="style-fonts">
      
    </style>
    
  </defs>
  <g stroke-linecap="round" transform="translate(10 10) rotate(0 260 370)"><path d="M32 0 C148.82 0, 265.65 0, 488 0 M32 0 C154.33 0, 276.66 0, 488 0 M488 0 C509.33 0, 520 10.67, 520 32 M488 0 C509.33 0, 520 10.67, 520 32 M520 32 C520 200.92, 520 369.85, 520 708 M520 32 C520 284.53, 520 537.06, 520 708 M520 708 C520 729.33, 509.33 740, 488 740 M520 708 C520 729.33, 509.33 740, 488 740 M488 740 C332.51 740, 177.02 740, 32 740 M488 740 C314.25 740, 140.5 740, 32 740 M32 740 C10.67 740, 0 729.33, 0 708 M32 740 C10.67 740, 0 729.33, 0 708 M0 708 C0 571.11, 0 434.22, 0 32 M0 708 C0 552.16, 0 396.31, 0 32 M0 32 C0 10.67, 10.67 0, 32 0 M0 32 C0 10.67, 10.67 0, 32 0" stroke="transparent" stroke-width="4" fill="none"></path></g><g stroke-linecap="round" transform="translate(30 610) rotate(0 240 60)"><path d="M-3.12 0.52 L483.98 -3.18 L476.31 118.13 L-3.92 119.22" stroke="none" stroke-width="0" fill="#ffffff"></path><path d="M-0.14 1.02 C100.11 -3.13, 202.43 -1.59, 479.68 0.78 M0.66 -0.47 C166.44 -3.65, 333.78 -3.94, 479.57 0.37 M476.92 1.61 C482.93 33.27, 480.63 68.22, 483.77 123.95 M478.95 0.74 C479.52 26.62, 479.77 47.74, 480.82 121.92 M481.3 119 C322.54 122.9, 162.24 120.76, 1.56 118.37 M479.22 120.46 C289.61 115.8, 101.18 116.39, -0.84 119.29 M-2.47 116.15 C-3.37 81.2, 0.48 41.07, 3.27 1.76 M0.82 119.06 C-0.15 77.36, 0.96 33.47, 1.57 -1.17" stroke="#1e1e1e" stroke-width="4" fill="none"></path></g><g stroke-linecap="round" transform="translate(150 410) rotate(0 120 100)"><path d="M3.98 -3.18 L236.31 -1.87 L236.08 199.22 L0.84 196.97" stroke="none" stroke-width="0" fill="#ffffff"></path><path d="M-1.06 -1.65 C87.23 -1.05, 169.53 -0.87, 241.61 0.67 M-1.52 0.9 C94.41 2.52, 190.63 2.9, 239.86 -0.01 M242.65 -1.57 C237.81 43.55, 240.62 93.92, 236.6 198.6 M240.41 1.75 C238.74 53.84, 238.85 112.31, 240.56 198.61 M242.7 201.26 C155.01 194.85, 73.09 194.57, 3.16 200.97 M238.43 199.27 C190.67 202.52, 138.5 200.74, 0.23 200.41 M-2.5 198.94 C3.18 154.04, 5.16 116.28, 1.94 -1.26 M-0.89 199.84 C-1.37 122.46, -0.07 46.76, -1.41 0.23" stroke="#1e1e1e" stroke-width="4" fill="none"></path></g><g stroke-linecap="round" transform="translate(269.5399959291675 205.9576633421534) rotate(46.8842985988338 60 141.52249134948102)"><path d="M30 0 C41.37 2.82, 50.69 -3.28, 90 0 C112.03 3.14, 118.42 15.21, 120 30 C114.48 106.88, 115.12 192.43, 120 253.04 C114.94 276.52, 104.64 281.33, 90 283.04 C76.2 282.32, 61.02 276.44, 30 283.04 C6.51 278.03, -1.31 276.49, 0 253.04 C-4.95 207.94, -4.84 156.08, 0 30 C4.26 12.09, 15.08 0.02, 30 0" stroke="none" stroke-width="0" fill="#ffffff"></path><path d="M30 0 C54.12 2.16, 72.34 2.39, 90 0 M30 0 C52.43 -2.28, 69.98 -0.11, 90 0 M90 0 C106.83 0.8, 118 11.7, 120 30 M90 0 C109.62 -0.02, 116.59 6.45, 120 30 M120 30 C123.38 104.34, 126.08 185.2, 120 253.04 M120 30 C117.6 76.51, 118.9 123.4, 120 253.04 M120 253.04 C121.4 269.82, 111.64 286.88, 90 283.04 M120 253.04 C121.42 269.49, 112.48 286.49, 90 283.04 M90 283.04 C75.4 280.08, 64.49 279.74, 30 283.04 M90 283.04 C64.49 283, 40.73 281.06, 30 283.04 M30 283.04 C11.46 284.02, -3.9 269.75, 0 253.04 M30 283.04 C10.62 284.18, -3.99 270.21, 0 253.04 M0 253.04 C3.59 204.44, 5.49 163.69, 0 30 M0 253.04 C2.05 173.31, 0.49 95.05, 0 30 M0 30 C0.25 6.79, 13.14 -2.34, 30 0 M0 30 C-3.59 10.6, 14.58 -3.66, 30 0" stroke="#1e1e1e" stroke-width="4" fill="none"></path></g><g stroke-linecap="round" transform="translate(232.73086493319272 380.0333835321858) rotate(46.8842985988338 30 30)"><path d="M32.82 -1.65 C38.61 -1.01, 46.21 4.47, 50.82 9.25 C55.44 14.02, 59.76 20.33, 60.51 26.99 C61.27 33.66, 59.2 43.99, 55.35 49.26 C51.5 54.53, 43.72 57.27, 37.43 58.62 C31.15 59.97, 23.66 60.41, 17.63 57.37 C11.61 54.32, 4.02 46.43, 1.29 40.37 C-1.44 34.3, -0.59 26.67, 1.26 20.97 C3.11 15.28, 6.57 9.79, 12.4 6.19 C18.23 2.59, 31.51 -0.35, 36.23 -0.63 C40.95 -0.91, 40.9 4.07, 40.7 4.51 M17.14 0.93 C22.47 -1.88, 27.82 0.18, 34.25 1.89 C40.68 3.6, 50.98 5.92, 55.73 11.21 C60.48 16.51, 63.66 27.08, 62.74 33.66 C61.82 40.24, 55.35 46.8, 50.21 50.69 C45.07 54.57, 38.21 56.29, 31.89 56.98 C25.58 57.67, 17.88 57.59, 12.32 54.85 C6.76 52.1, 0.68 46.76, -1.44 40.49 C-3.57 34.22, -3.22 22.96, -0.43 17.23 C2.36 11.5, 12.8 8.21, 15.3 6.12 C17.79 4.03, 14.06 4.54, 14.54 4.69" stroke="none" stroke-width="0" fill="#ffffff"></path><path d="M44.97 4.48 C50.3 6.41, 53.74 10.47, 56.24 15.81 C58.74 21.15, 61.45 30.19, 59.96 36.51 C58.48 42.84, 52.67 49.91, 47.32 53.77 C41.97 57.63, 34.35 60.4, 27.89 59.69 C21.42 58.98, 13.42 53.92, 8.53 49.48 C3.64 45.05, -1.22 39.38, -1.46 33.07 C-1.7 26.77, 3.04 17.15, 7.1 11.64 C11.16 6.13, 14.68 -0.47, 22.89 0.03 C31.11 0.53, 50.62 10.3, 56.36 14.63 C62.1 18.96, 58.14 26.2, 57.33 25.99 M41.96 -0.37 C47.88 1.49, 54.48 12.82, 57.55 18.48 C60.61 24.13, 61.54 27.37, 60.35 33.57 C59.15 39.77, 55.83 50.86, 50.37 55.66 C44.91 60.47, 34.09 62.95, 27.59 62.42 C21.08 61.9, 16.3 56.7, 11.33 52.5 C6.36 48.3, -0.59 43.1, -2.22 37.23 C-3.85 31.36, -2.36 23.66, 1.55 17.26 C5.46 10.85, 15.16 1.09, 21.26 -1.18 C27.37 -3.45, 35.42 3.22, 38.19 3.63 C40.96 4.05, 37.41 0.97, 37.87 1.3" stroke="#1e1e1e" stroke-width="4" fill="none"></path></g><g stroke-linecap="round" transform="translate(306.9776603549758 89.60635887805961) rotate(329.8407845794689 54.28209276683225 128.03561673376237)"><path d="M27.14 0 C46.59 4.48, 60.4 6.55, 81.42 0 C103.16 -3.04, 108.79 6.03, 108.56 27.14 C101.96 71.86, 101.7 108.81, 108.56 228.93 C106.3 252.47, 95.33 257.85, 81.42 256.07 C61.13 249.6, 46.5 258.07, 27.14 256.07 C3.88 258.91, 3.5 244.44, 0 228.93 C6.04 165.07, 6.77 97.48, 0 27.14 C3.39 6.31, 12.12 3.87, 27.14 0" stroke="none" stroke-width="0" fill="#ffffff"></path><path d="M27.14 0 C47.49 0.31, 67.92 2.56, 81.42 0 M27.14 0 C38.87 -0.19, 52.77 0.26, 81.42 0 M81.42 0 C99.19 -0.02, 105.6 5.96, 108.56 27.14 M81.42 0 C101.37 3.38, 106.56 9.79, 108.56 27.14 M108.56 27.14 C108.59 77.14, 111.14 128.05, 108.56 228.93 M108.56 27.14 C110.02 93.74, 110.13 164.95, 108.56 228.93 M108.56 228.93 C109.8 243.93, 101.68 259.07, 81.42 256.07 M108.56 228.93 C105.92 250.75, 101.26 256.02, 81.42 256.07 M81.42 256.07 C73.58 256.21, 54.46 251.43, 27.14 256.07 M81.42 256.07 C63.01 256.08, 41.18 253.95, 27.14 256.07 M27.14 256.07 C9.59 257.06, -3.47 244.56, 0 228.93 M27.14 256.07 C4.62 252.88, -1.35 248.26, 0 228.93 M0 228.93 C-1.03 185.69, -0.07 146.43, 0 27.14 M0 228.93 C1.9 176.46, 3.19 125.82, 0 27.14 M0 27.14 C-3.12 9.57, 13.03 -3.18, 27.14 0 M0 27.14 C-4.24 6.9, 4.54 -0.9, 27.14 0" stroke="#1e1e1e" stroke-width="4" fill="none"></path></g><g stroke-linecap="round" transform="translate(375.7180791812535 262.0929786608617) rotate(329.8407845794689 27.141046383416125 27.141046383416096)"><path d="M5.4 9.8 C8.78 5.31, 15.97 3.16, 21.68 1.83 C27.38 0.5, 34.34 -0.62, 39.62 1.81 C44.89 4.24, 51.18 11.21, 53.32 16.42 C55.45 21.64, 54.22 27.6, 52.43 33.11 C50.65 38.61, 47.46 45.68, 42.6 49.46 C37.73 53.23, 29.21 56.53, 23.25 55.76 C17.29 54.99, 10.65 48.86, 6.83 44.83 C3.02 40.8, 0.46 38.02, 0.37 31.57 C0.28 25.13, 4.55 10.85, 6.3 6.16 C8.05 1.48, 10.36 2.75, 10.88 3.44 M10.19 6.56 C14.87 2.66, 23.09 2.18, 28.34 2 C33.59 1.82, 37.78 2.81, 41.71 5.48 C45.64 8.16, 50.52 12.45, 51.93 18.05 C53.34 23.65, 52.97 33.1, 50.18 39.07 C47.39 45.05, 40.81 51.72, 35.19 53.92 C29.58 56.11, 21.82 53.72, 16.5 52.23 C11.18 50.74, 6.35 49.53, 3.26 44.98 C0.17 40.44, -2.98 31.03, -2.06 24.96 C-1.14 18.89, 7.45 11.74, 8.79 8.57 C10.14 5.4, 6.2 5.91, 6.01 5.93" stroke="none" stroke-width="0" fill="#ffffff"></path><path d="M46.97 5.94 C51.45 9.64, 53.92 17.15, 54.52 23.16 C55.12 29.18, 53.86 37.28, 50.57 42.04 C47.27 46.8, 40.73 49.92, 34.75 51.71 C28.77 53.5, 19.77 55.03, 14.69 52.8 C9.61 50.56, 6.55 43.79, 4.28 38.29 C2.01 32.8, -0.35 24.98, 1.1 19.81 C2.54 14.63, 8.64 10.66, 12.96 7.24 C17.28 3.82, 20.34 -4.97, 27.01 -0.72 C33.68 3.53, 51.67 23.75, 52.98 32.74 C54.3 41.74, 34.95 53.07, 34.92 53.25 M8.46 6.06 C12.1 1.72, 20.47 2.25, 25.81 2.41 C31.14 2.57, 35.74 4.15, 40.5 7 C45.25 9.86, 52.85 13.88, 54.33 19.51 C55.82 25.14, 52.42 34.97, 49.42 40.77 C46.42 46.58, 40.97 52.67, 36.32 54.33 C31.68 55.99, 27.19 52.34, 21.56 50.75 C15.93 49.15, 6.59 49.22, 2.54 44.77 C-1.52 40.32, -3.78 30, -2.76 24.05 C-1.74 18.11, 7.34 12.07, 8.63 9.11 C9.93 6.14, 4.79 5.96, 5 6.28" stroke="#1e1e1e" stroke-width="4" fill="none"></path></g><g stroke-linecap="round" transform="translate(228.02749791737125 68.0299485363978) rotate(236.51856405648897 40.56546225661208 95.68208802165134)"><path d="M20.28 0 C38.37 -4.1, 49.4 -4.08, 60.85 0 C69.11 -2.27, 80.69 1.7, 81.13 20.28 C74.83 80.31, 72.9 131.24, 81.13 171.08 C81.67 186.78, 69.02 187.87, 60.85 191.36 C47.15 194.9, 47.28 189.48, 20.28 191.36 C8.2 188.91, -4.96 188.87, 0 171.08 C-0.44 117.47, -0.75 73.2, 0 20.28 C4.3 8.87, 6.06 -4.51, 20.28 0" stroke="none" stroke-width="0" fill="#ffffff"></path><path d="M20.28 0 C31.08 -4.27, 48.4 -3.79, 60.85 0 M20.28 0 C33.1 -0.35, 44.76 -1.89, 60.85 0 M60.85 0 C75.98 2.94, 79.39 7.41, 81.13 20.28 M60.85 0 C72.29 4.34, 85.67 2.42, 81.13 20.28 M81.13 20.28 C81.91 60.57, 84.3 100.42, 81.13 171.08 M81.13 20.28 C82.99 51.8, 83.45 87.91, 81.13 171.08 M81.13 171.08 C78.83 187.84, 75.88 191.32, 60.85 191.36 M81.13 171.08 C77.2 188.74, 70.05 195.73, 60.85 191.36 M60.85 191.36 C49.61 186.87, 32.39 192.09, 20.28 191.36 M60.85 191.36 C47.96 191.19, 32.79 189.46, 20.28 191.36 M20.28 191.36 C2.91 188.59, -1.18 185.68, 0 171.08 M20.28 191.36 C2.53 195.13, 2.03 187.08, 0 171.08 M0 171.08 C-4.31 129.14, -2.78 91.38, 0 20.28 M0 171.08 C-3.93 138.2, -0.38 103.2, 0 20.28 M0 20.28 C-3.69 4.9, 2.84 -0.78, 20.28 0 M0 20.28 C0.96 3.28, 2.71 1.67, 20.28 0" stroke="#1e1e1e" stroke-width="4" fill="none"></path></g><g stroke-linecap="round" transform="translate(189.1505042159103 176.83684599629032) rotate(236.51856405648897 20.28273112830604 20.282731128306068)"><path d="M11.82 1.76 C15.41 -0.31, 21.82 -0.02, 25.88 0.99 C29.93 1.99, 33.72 4.33, 36.15 7.77 C38.58 11.22, 40.77 17.09, 40.44 21.64 C40.1 26.19, 37.24 32.07, 34.15 35.07 C31.07 38.08, 26.1 39.15, 21.93 39.66 C17.77 40.18, 12.82 40.59, 9.17 38.16 C5.52 35.73, 1.34 29.56, 0.02 25.06 C-1.3 20.56, -1.07 15.14, 1.24 11.16 C3.55 7.18, 11.36 3.08, 13.87 1.18 C16.38 -0.71, 16.1 -0.59, 16.29 -0.21 M16.61 0.26 C20.3 -0.97, 26.47 -0.61, 30.19 1.66 C33.92 3.92, 37.7 9.35, 38.95 13.87 C40.21 18.39, 39.5 24.81, 37.74 28.78 C35.99 32.76, 32.11 35.58, 28.4 37.72 C24.69 39.85, 19.69 42.33, 15.49 41.59 C11.29 40.85, 5.75 36.84, 3.2 33.27 C0.64 29.71, 0.06 24.77, 0.15 20.19 C0.25 15.61, 1.1 9.19, 3.75 5.8 C6.41 2.41, 13.64 0.95, 16.08 -0.15 C18.53 -1.25, 18.01 -1.33, 18.41 -0.78" stroke="none" stroke-width="0" fill="#ffffff"></path><path d="M12.88 1.49 C16.56 -0.38, 22.36 -1.2, 26.31 0.18 C30.26 1.55, 34.11 6.02, 36.58 9.73 C39.05 13.44, 41.53 18.26, 41.14 22.43 C40.74 26.59, 37.36 31.55, 34.2 34.74 C31.04 37.92, 26.7 41.32, 22.18 41.53 C17.65 41.75, 10.7 38.91, 7.05 36.03 C3.39 33.14, 1 28.35, 0.26 24.22 C-0.48 20.08, 0.05 15.06, 2.63 11.21 C5.22 7.35, 13.46 2.8, 15.77 1.1 C18.08 -0.59, 16.39 0.72, 16.48 1.04 M11.78 2.71 C15.47 0.72, 23.01 -0.39, 27.07 0.96 C31.14 2.32, 34.2 6.93, 36.18 10.85 C38.16 14.77, 39.27 20.63, 38.96 24.48 C38.66 28.33, 37.54 31.14, 34.33 33.95 C31.11 36.76, 24.33 41.06, 19.68 41.34 C15.03 41.62, 9.53 38.37, 6.42 35.64 C3.31 32.9, 1.92 29.26, 1 24.91 C0.08 20.57, -1.08 13.41, 0.89 9.57 C2.86 5.72, 11.08 3.3, 12.85 1.86 C14.61 0.43, 11.64 0.87, 11.49 0.95" stroke="#1e1e1e" stroke-width="4" fill="none"></path></g><g stroke-linecap="round" transform="translate(299.92009197336813 109.29352467870194) rotate(236.51856405648897 20.28273112830604 20.282731128306068)"><path d="M25.52 0.9 C29.44 1.53, 33.44 4.08, 35.93 7.48 C38.42 10.88, 40.71 16.72, 40.46 21.28 C40.2 25.83, 37.43 31.75, 34.4 34.81 C31.38 37.86, 26.45 39.03, 22.3 39.62 C18.14 40.21, 13.17 40.73, 9.47 38.36 C5.78 35.99, 1.52 29.89, 0.13 25.41 C-1.27 20.94, -0.68 15.32, 1.1 11.5 C2.87 7.67, 6.51 4.33, 10.76 2.48 C15.02 0.63, 23.41 0.26, 26.64 0.41 C29.86 0.55, 30.15 2.74, 30.11 3.36 M25.95 -0.35 C29.98 0.7, 34.82 5.5, 36.99 9.6 C39.16 13.7, 39.77 20.01, 38.98 24.25 C38.19 28.49, 35.39 32.08, 32.26 35.04 C29.12 38, 24.46 41.76, 20.17 42.02 C15.88 42.28, 9.78 39.47, 6.5 36.61 C3.23 33.75, 1.45 29.37, 0.54 24.87 C-0.37 20.37, -0.79 13.6, 1.04 9.63 C2.88 5.66, 7.1 2.7, 11.54 1.04 C15.98 -0.61, 25.04 -0.55, 27.68 -0.32 C30.32 -0.1, 27.76 1.77, 27.39 2.38" stroke="none" stroke-width="0" fill="#ffffff"></path><path d="M15.25 -0.11 C18.98 -1.3, 24.25 0.47, 28.29 2.4 C32.33 4.33, 37.55 7.67, 39.5 11.48 C41.44 15.3, 41.11 20.88, 39.98 25.3 C38.84 29.72, 36.44 35.55, 32.67 38.01 C28.9 40.48, 21.87 40.76, 17.34 40.08 C12.82 39.4, 8.36 36.94, 5.55 33.94 C2.73 30.93, 0.56 26.24, 0.43 22.05 C0.3 17.86, 2.07 12.39, 4.77 8.81 C7.47 5.24, 14 1.96, 16.65 0.61 C19.3 -0.74, 20.61 0.37, 20.66 0.72 M28.27 1.39 C32.14 2.68, 35.07 7.88, 36.82 11.94 C38.56 16, 39.33 21.93, 38.75 25.73 C38.17 29.54, 36.75 32.16, 33.36 34.77 C29.97 37.37, 23.06 41.34, 18.41 41.35 C13.76 41.36, 8.38 37.77, 5.45 34.83 C2.51 31.88, 1.43 28.06, 0.77 23.66 C0.12 19.27, -0.69 12.17, 1.52 8.46 C3.73 4.76, 9.89 2.75, 14.03 1.42 C18.18 0.09, 24.39 0.59, 26.4 0.48 C28.41 0.37, 26.09 0.21, 26.11 0.74" stroke="#1e1e1e" stroke-width="4" fill="none"></path></g><g transform="translate(184.97470624144626 223.6270535117369) rotate(0 -45.40467049089152 22.379553227738143)" stroke="none"><path d="M-4.02 3.57 C-3.19 6.71, 1.94 12.19, 3.65 20 C5.35 27.81, 6.53 46.28, 6.22 50.43 C5.91 54.57, 6.35 44.43, 1.8 44.85 C-2.76 45.28, -10.58 50.64, -21.09 52.99 C-31.6 55.33, -58.47 60.27, -61.27 58.9 C-64.07 57.53, -42.29 47.55, -37.88 44.78 C-33.48 42.02, -38.42 43.97, -34.83 42.31 C-31.23 40.65, -17.64 39.64, -16.31 34.83 C-14.98 30.02, -23.97 16.75, -26.84 13.46 C-29.71 10.16, -25.98 17.22, -33.55 15.07 C-41.12 12.92, -65.8 -1.06, -72.25 0.57 C-78.71 2.19, -73.68 16.45, -72.28 24.83 C-70.87 33.2, -64.5 49.06, -63.83 50.84 C-63.15 52.63, -64.42 42.56, -68.24 35.55 C-72.06 28.54, -82.57 15.54, -86.72 8.79 C-90.88 2.03, -90.9 -0.5, -93.17 -4.96 C-95.43 -9.42, -102.43 -16.54, -100.33 -17.99 C-98.23 -19.44, -87.4 -14.27, -80.56 -13.65 C-73.71 -13.02, -67.38 -16.08, -59.27 -14.25 C-51.16 -12.41, -40.08 -4.46, -31.89 -2.64 C-23.7 -0.82, -15.32 -3.57, -10.15 -3.35 C-4.98 -3.13, -1.66 -1.85, -0.87 -1.32 C-0.09 -0.78, -4.96 -0.19, -5.47 -0.14 C-5.97 -0.09, -5.27 -0.38, -3.91 -1.03" stroke="none" stroke-width="0" fill="#ffffff" fill-rule="evenodd"></path><path fill="#1e1e1e" d="M 2.61,0 Q 2.61,0 2.64,0.98 2.67,1.97 2.92,3.37 3.16,4.76 3.46,6.66 3.76,8.56 3.97,10.67 4.18,12.78 4.29,14.05 4.40,15.32 4.57,16.45 4.74,17.58 4.92,18.97 5.09,20.36 5.29,21.52 5.49,22.69 5.99,24.97 6.48,27.26 7.04,28.92 7.59,30.58 7.85,31.64 8.11,32.71 8.48,34.69 8.86,36.67 9.21,37.85 9.56,39.04 9.83,40.19 10.10,41.35 10.31,42.58 10.53,43.81 10.76,44.87 11.00,45.94 11.02,46.34 11.04,46.74 10.97,47.14 10.90,47.53 10.73,47.90 10.57,48.27 10.32,48.59 10.07,48.90 9.75,49.15 9.44,49.40 9.07,49.57 8.70,49.73 8.31,49.80 7.91,49.88 7.51,49.85 7.11,49.83 6.72,49.71 6.34,49.59 5.99,49.38 5.65,49.17 5.36,48.89 5.08,48.60 4.87,48.26 4.66,47.91 4.54,47.53 4.42,47.14 7.71,46.52 11.00,45.90 11.02,46.30 11.05,46.70 10.97,47.10 10.90,47.49 10.74,47.86 10.57,48.22 10.32,48.54 10.08,48.85 9.76,49.10 9.45,49.35 9.08,49.51 8.72,49.68 8.32,49.75 7.93,49.82 7.53,49.80 7.13,49.77 6.75,49.65 6.36,49.53 6.02,49.33 5.68,49.12 5.39,48.84 5.11,48.55 4.90,48.21 4.70,47.87 4.58,47.48 4.46,47.10 5.86,48.46 7.27,49.81 6.07,49.86 4.87,49.90 3.31,50.01 1.75,50.12 -0.14,50.66 -2.05,51.19 -3.33,51.63 -4.61,52.07 -5.94,52.44 -7.27,52.81 -8.54,53.23 -9.82,53.66 -11.36,54.10 -12.90,54.53 -14.42,54.94 -15.95,55.34 -17.41,55.66 -18.88,55.97 -20.25,56.23 -21.62,56.49 -22.67,56.82 -23.72,57.15 -24.74,57.45 -25.76,57.76 -27.17,58.02 -28.57,58.28 -30.65,58.75 -32.72,59.22 -33.79,59.45 -34.86,59.68 -36.66,60.14 -38.45,60.60 -40.06,60.91 -41.67,61.22 -43.47,61.64 -45.27,62.05 -46.31,62.26 -47.35,62.47 -48.42,62.69 -49.48,62.90 -51.26,63.33 -53.04,63.76 -54.37,64.21 -55.69,64.66 -57.03,64.87 -58.36,65.09 -59.49,65.38 -60.62,65.68 -60.84,65.69 -61.06,65.71 -61.45,65.68 -61.85,65.65 -62.23,65.53 -62.62,65.40 -62.95,65.19 -63.29,64.98 -63.57,64.69 -63.85,64.41 -64.06,64.06 -64.26,63.72 -64.37,63.33 -64.49,62.95 -64.51,62.55 -64.53,62.15 -64.45,61.76 -64.37,61.37 -64.20,61.00 -64.03,60.64 -63.78,60.33 -63.53,60.02 -63.21,59.77 -62.90,59.53 -62.53,59.37 -62.16,59.21 -61.77,59.14 -61.37,59.08 -62.43,59.72 -63.49,60.36 -62.60,59.44 -61.71,58.52 -60.68,57.66 -59.64,56.79 -58.19,55.71 -56.73,54.62 -55.23,53.56 -53.73,52.51 -52.38,51.64 -51.04,50.77 -50.25,50.06 -49.45,49.35 -48.44,48.52 -47.43,47.70 -46.39,47.04 -45.35,46.38 -44.17,45.38 -43.00,44.38 -42.03,43.83 -41.06,43.29 -39.49,42.51 -37.92,41.73 -36.76,41.07 -35.60,40.42 -34.11,39.51 -32.63,38.60 -31.12,38.04 -29.62,37.48 -28.59,37.21 -27.55,36.94 -26.39,36.68 -25.22,36.43 -24.03,35.77 -22.83,35.12 -23.60,36.07 -24.37,37.02 -24.59,35.87 -24.80,34.73 -25.09,33.49 -25.39,32.24 -25.51,30.64 -25.63,29.04 -25.62,27.53 -25.61,26.03 -25.81,24.78 -26.01,23.54 -26.03,22.34 -26.06,21.14 -26.25,19.62 -26.44,18.11 -25.34,18.64 -24.23,19.17 -22.79,18.69 -21.34,18.21 -22.27,18.81 -23.20,19.41 -24.32,19.53 -25.44,19.65 -26.54,19.67 -27.65,19.68 -29.06,19.49 -30.48,19.29 -31.88,18.66 -33.29,18.04 -34.60,17.61 -35.91,17.19 -37.48,16.73 -39.04,16.27 -40.81,15.80 -42.58,15.32 -43.99,15.07 -45.40,14.81 -46.93,14.59 -48.46,14.37 -50.24,13.94 -52.03,13.51 -53.45,13.23 -54.87,12.95 -55.98,12.55 -57.09,12.15 -58.72,11.73 -60.36,11.30 -61.52,10.87 -62.68,10.44 -63.76,10.22 -64.83,9.99 -66.72,9.41 -68.60,8.83 -69.74,8.39 -70.88,7.96 -72.21,7.54 -73.53,7.12 -71.79,6.68 -70.05,6.23 -69.79,5.20 -69.53,4.17 -69.16,5.32 -68.80,6.46 -68.30,7.81 -67.79,9.16 -67.38,10.86 -66.96,12.55 -66.83,13.66 -66.69,14.76 -66.41,16.07 -66.13,17.38 -65.73,19.22 -65.34,21.07 -65.24,22.32 -65.14,23.57 -65.03,24.67 -64.92,25.77 -64.88,27.15 -64.84,28.53 -64.74,29.70 -64.64,30.88 -64.37,32.90 -64.11,34.93 -63.94,36.22 -63.77,37.51 -63.68,38.63 -63.60,39.75 -63.37,41.16 -63.14,42.57 -63.07,43.70 -62.99,44.83 -62.95,46.09 -62.91,47.34 -62.87,48.47 -62.82,49.60 -62.79,50.67 -62.76,51.74 -62.81,52.16 -62.86,52.58 -63.01,52.97 -63.16,53.37 -63.41,53.72 -63.65,54.07 -63.96,54.35 -64.28,54.63 -64.65,54.82 -65.03,55.02 -65.44,55.12 -65.85,55.22 -66.27,55.22 -66.70,55.22 -67.11,55.12 -67.52,55.02 -67.89,54.82 -68.27,54.63 -68.58,54.35 -68.90,54.07 -69.14,53.72 -69.38,53.37 -69.53,52.97 -69.68,52.58 -69.73,52.16 -69.78,51.74 -70.20,50.75 -70.61,49.77 -71.12,47.57 -71.63,45.37 -71.92,43.80 -72.22,42.22 -72.61,40.64 -73.01,39.06 -73.50,37.53 -74.00,36.01 -74.62,34.39 -75.25,32.77 -76.05,31.11 -76.84,29.46 -77.59,27.63 -78.34,25.81 -79.02,24.53 -79.71,23.24 -80.48,21.66 -81.25,20.07 -81.96,18.83 -82.67,17.60 -83.28,16.39 -83.90,15.18 -84.42,14.22 -84.94,13.27 -85.45,12.20 -85.96,11.13 -87.02,9.43 -88.09,7.74 -89.00,6.41 -89.91,5.09 -90.81,3.82 -91.72,2.56 -92.58,1.33 -93.45,0.10 -94.18,-1.21 -94.92,-2.53 -95.57,-3.81 -96.22,-5.08 -96.95,-6.44 -97.69,-7.79 -98.17,-8.89 -98.66,-9.99 -99.31,-11.24 -99.96,-12.49 -100.59,-13.66 -101.21,-14.82 -101.23,-16.71 -101.24,-18.60 -99.94,-19.81 -98.64,-21.02 -96.68,-20.91 -94.73,-20.79 -92.58,-20.72 -90.44,-20.64 -88.44,-20.43 -86.45,-20.22 -83.50,-19.76 -80.56,-19.30 -77.60,-18.78 -74.65,-18.26 -72.37,-17.73 -70.09,-17.20 -68.18,-16.86 -66.27,-16.52 -63.97,-16.07 -61.66,-15.62 -59.71,-15.31 -57.76,-15.01 -55.50,-14.45 -53.25,-13.90 -51.48,-13.60 -49.70,-13.30 -48.01,-12.95 -46.33,-12.60 -44.80,-12.37 -43.28,-12.14 -41.89,-11.82 -40.50,-11.49 -39.27,-11.28 -38.03,-11.08 -36.96,-10.90 -35.89,-10.71 -34.83,-10.55 -33.78,-10.38 -32.12,-10.02 -30.45,-9.66 -28.69,-9.53 -26.92,-9.39 -25.64,-9.22 -24.36,-9.04 -22.86,-9.07 -21.36,-9.11 -20.17,-8.94 -18.98,-8.78 -17.66,-8.84 -16.34,-8.91 -15.13,-8.94 -13.92,-8.97 -12.73,-8.80 -11.54,-8.63 -9.65,-8.33 -7.77,-8.02 -6.40,-7.81 -5.04,-7.60 -3.27,-7.19 -1.50,-6.78 -0.56,-6.16 0.38,-5.55 1.33,-4.33 2.28,-3.11 2.35,-1.94 2.42,-0.76 2.79,0.05 3.15,0.88 3.10,1.32 3.04,1.76 2.89,2.18 2.73,2.60 2.47,2.97 2.22,3.33 1.89,3.63 1.55,3.93 1.16,4.13 0.76,4.34 0.33,4.45 -0.09,4.56 -0.54,4.56 -0.99,4.56 -1.42,4.45 -1.85,4.34 -2.25,4.14 -2.65,3.93 -2.98,3.63 -3.31,3.34 -3.57,2.97 -3.82,2.60 -3.98,2.19 -4.14,1.77 -4.19,1.33 -4.25,0.88 -3.58,-0.54 -2.90,-1.97 -2.39,-2.27 -1.87,-2.57 -1.28,-2.69 -0.69,-2.81 -0.10,-2.74 0.49,-2.67 1.03,-2.41 1.57,-2.15 2.00,-1.73 2.43,-1.31 2.70,-0.78 2.97,-0.25 3.06,0.34 3.15,0.93 3.05,1.52 2.94,2.11 2.65,2.64 2.36,3.16 1.92,3.57 1.48,3.97 0.94,4.22 0.39,4.46 -0.20,4.52 -0.80,4.58 -1.38,4.44 -1.96,4.30 -2.47,3.99 -2.98,3.67 -3.36,3.21 -3.74,2.75 -3.96,2.19 -4.17,1.63 -4.20,1.03 -4.22,0.43 -4.05,-0.14 -3.88,-0.71 -3.54,-1.20 -3.20,-1.70 -2.72,-2.05 -2.23,-2.41 -1.66,-2.59 -1.09,-2.77 -0.49,-2.77 0.10,-2.76 0.66,-2.56 1.23,-2.36 1.70,-1.99 2.17,-1.62 2.50,-1.12 2.83,-0.62 2.98,-0.04 3.13,0.53 3.09,1.13 3.05,1.73 2.82,2.28 2.59,2.83 2.87,1.85 3.15,0.88 3.10,1.32 3.04,1.76 2.89,2.18 2.73,2.60 2.48,2.97 2.22,3.33 1.89,3.63 1.55,3.93 1.16,4.13 0.76,4.34 0.33,4.45 -0.09,4.56 -0.54,4.56 -0.99,4.56 -1.42,4.45 -1.85,4.34 -2.25,4.14 -2.65,3.93 -2.98,3.63 -3.31,3.34 -3.57,2.97 -3.82,2.60 -3.98,2.19 -4.14,1.77 -4.19,1.33 -4.25,0.88 -4.19,0.28 -4.12,-0.31 -5.20,-0.53 -6.28,-0.76 -7.75,-1.04 -9.22,-1.33 -10.58,-1.54 -11.95,-1.75 -13.37,-1.99 -14.80,-2.22 -15.87,-2.26 -16.95,-2.30 -18.05,-2.36 -19.16,-2.42 -20.30,-2.69 -21.43,-2.95 -22.61,-3.02 -23.79,-3.09 -25.26,-3.30 -26.74,-3.50 -27.85,-3.86 -28.97,-4.21 -30.44,-4.48 -31.92,-4.74 -33.34,-5.26 -34.76,-5.78 -36.85,-6.37 -38.93,-6.96 -40.27,-7.31 -41.61,-7.67 -42.78,-8.09 -43.95,-8.50 -45.55,-8.85 -47.14,-9.20 -48.72,-9.63 -50.30,-10.05 -52.12,-10.42 -53.95,-10.78 -56.09,-11.21 -58.24,-11.64 -60.23,-11.90 -62.22,-12.16 -64.53,-12.45 -66.84,-12.74 -68.82,-12.98 -70.79,-13.23 -72.99,-13.50 -75.19,-13.76 -78.10,-13.95 -81.02,-14.13 -83.74,-14.17 -86.46,-14.21 -88.48,-14.01 -90.49,-13.81 -92.72,-13.78 -94.96,-13.75 -96.10,-13.95 -97.25,-14.15 -96.52,-15.13 -95.79,-16.11 -95.96,-17.63 -96.13,-19.16 -95.23,-17.76 -94.34,-16.36 -93.71,-15.01 -93.08,-13.66 -92.63,-12.60 -92.17,-11.54 -91.61,-10.20 -91.04,-8.86 -90.54,-7.76 -90.05,-6.66 -89.49,-5.38 -88.93,-4.09 -88.41,-3.01 -87.88,-1.94 -86.97,-0.61 -86.07,0.72 -85.22,2.15 -84.38,3.58 -83.50,5.26 -82.62,6.95 -82.01,8.05 -81.41,9.15 -81.01,10.16 -80.62,11.17 -80.17,12.19 -79.73,13.21 -79.25,14.33 -78.77,15.45 -78.07,16.78 -77.36,18.10 -76.55,19.64 -75.74,21.18 -75.02,22.59 -74.31,23.99 -73.52,25.59 -72.73,27.18 -71.65,28.92 -70.57,30.65 -69.70,32.34 -68.83,34.03 -68.12,35.63 -67.42,37.24 -66.74,38.95 -66.06,40.67 -65.57,42.18 -65.09,43.69 -64.69,44.94 -64.30,46.20 -63.78,47.84 -63.26,49.48 -63.01,50.61 -62.76,51.74 -62.81,52.16 -62.86,52.58 -63.01,52.97 -63.16,53.37 -63.40,53.72 -63.65,54.07 -63.96,54.35 -64.28,54.63 -64.65,54.82 -65.03,55.02 -65.44,55.12 -65.85,55.22 -66.27,55.22 -66.70,55.22 -67.11,55.12 -67.52,55.02 -67.89,54.82 -68.27,54.63 -68.58,54.35 -68.90,54.07 -69.14,53.72 -69.38,53.37 -69.53,52.97 -69.68,52.58 -69.73,52.16 -69.78,51.74 -69.77,51.28 -69.76,50.81 -69.72,49.55 -69.67,48.29 -69.64,47.19 -69.60,46.08 -69.60,44.62 -69.59,43.16 -69.79,41.66 -69.98,40.17 -70.17,38.52 -70.36,36.88 -70.44,35.38 -70.51,33.89 -70.73,32.76 -70.94,31.63 -71.14,30.26 -71.35,28.89 -71.45,27.79 -71.55,26.68 -71.84,24.62 -72.14,22.56 -72.57,20.88 -73.01,19.20 -73.43,17.38 -73.86,15.56 -74.15,14.26 -74.44,12.95 -74.76,11.87 -75.09,10.78 -75.44,9.69 -75.79,8.60 -76.28,6.86 -76.78,5.11 -76.38,3.57 -75.99,2.02 -73.98,1.15 -71.96,0.28 -70.83,0.75 -69.70,1.22 -68.42,1.68 -67.13,2.14 -66.09,2.43 -65.04,2.71 -63.90,3.05 -62.76,3.39 -61.57,3.67 -60.38,3.95 -59.33,4.36 -58.29,4.77 -57.20,5.12 -56.12,5.46 -55.05,5.85 -53.98,6.24 -52.22,6.56 -50.45,6.88 -48.83,7.24 -47.21,7.59 -45.50,7.82 -43.80,8.04 -42.36,8.29 -40.91,8.54 -39.15,8.94 -37.40,9.33 -35.67,9.76 -33.93,10.18 -32.02,10.75 -30.11,11.31 -28.67,11.73 -27.22,12.16 -26.16,12.35 -25.10,12.55 -23.01,12.59 -20.92,12.63 -20.02,14.66 -19.11,16.69 -19.08,17.95 -19.05,19.21 -18.87,20.43 -18.69,21.66 -18.65,22.87 -18.62,24.07 -18.43,25.70 -18.24,27.32 -18.17,28.89 -18.10,30.46 -17.87,32.34 -17.63,34.21 -17.29,35.91 -16.95,37.61 -17.21,38.70 -17.46,39.80 -19.12,40.82 -20.79,41.84 -21.71,42.41 -22.64,42.98 -23.87,43.00 -25.10,43.03 -26.50,43.70 -27.90,44.38 -29.11,44.88 -30.31,45.37 -31.29,45.95 -32.26,46.52 -33.55,47.25 -34.84,47.99 -35.91,48.49 -36.98,48.98 -38.69,49.98 -40.40,50.99 -41.95,52.19 -43.50,53.39 -44.74,54.36 -45.99,55.33 -47.35,56.31 -48.70,57.30 -50.02,58.13 -51.33,58.97 -52.18,59.68 -53.03,60.38 -54.34,61.35 -55.66,62.31 -57.24,63.13 -58.82,63.94 -59.94,64.82 -61.06,65.71 -61.45,65.68 -61.85,65.65 -62.23,65.53 -62.61,65.40 -62.95,65.19 -63.29,64.98 -63.57,64.69 -63.85,64.41 -64.06,64.06 -64.26,63.72 -64.37,63.33 -64.49,62.95 -64.51,62.55 -64.53,62.15 -64.45,61.76 -64.37,61.37 -64.20,61.00 -64.03,60.64 -63.78,60.33 -63.53,60.02 -63.22,59.77 -62.90,59.53 -62.53,59.37 -62.16,59.21 -61.77,59.14 -61.37,59.08 -60.97,59.15 -60.57,59.22 -58.98,58.93 -57.38,58.65 -55.93,58.23 -54.47,57.82 -52.57,57.39 -50.67,56.97 -48.60,56.54 -46.52,56.11 -44.68,55.73 -42.84,55.35 -41.32,55.15 -39.80,54.95 -37.89,54.55 -35.99,54.14 -34.92,53.94 -33.85,53.74 -32.80,53.53 -31.75,53.33 -30.66,53.11 -29.58,52.90 -27.43,52.43 -25.28,51.97 -23.97,51.58 -22.65,51.20 -21.37,50.94 -20.09,50.68 -18.81,50.37 -17.54,50.06 -16.10,49.57 -14.66,49.08 -13.30,48.58 -11.94,48.08 -10.48,47.47 -9.02,46.86 -7.99,46.53 -6.95,46.20 -5.57,45.58 -4.20,44.96 -3.01,44.52 -1.83,44.08 -0.53,43.70 0.76,43.32 2.82,43.19 4.88,43.05 6.29,43.11 7.71,43.16 9.35,44.53 11.00,45.90 11.02,46.30 11.05,46.70 10.97,47.10 10.90,47.49 10.74,47.86 10.57,48.22 10.32,48.54 10.08,48.85 9.76,49.10 9.45,49.35 9.08,49.51 8.72,49.68 8.32,49.75 7.93,49.82 7.53,49.80 7.13,49.77 6.75,49.65 6.36,49.53 6.02,49.33 5.68,49.12 5.39,48.84 5.11,48.55 4.90,48.21 4.70,47.87 4.58,47.48 4.46,47.10 7.73,46.52 11.00,45.94 11.02,46.34 11.04,46.74 10.97,47.14 10.90,47.53 10.73,47.90 10.57,48.27 10.32,48.59 10.07,48.90 9.75,49.15 9.44,49.40 9.07,49.57 8.70,49.73 8.31,49.80 7.91,49.88 7.51,49.85 7.11,49.83 6.72,49.71 6.34,49.59 5.99,49.38 5.65,49.17 5.36,48.89 5.08,48.60 4.87,48.26 4.66,47.91 4.54,47.53 4.42,47.14 4.42,46.80 4.41,46.46 4.24,44.80 4.06,43.15 3.85,41.92 3.63,40.69 3.27,39.00 2.90,37.31 2.64,35.67 2.39,34.03 1.96,32.24 1.53,30.44 1.09,28.34 0.65,26.24 0.28,24.96 -0.09,23.67 -0.31,22.43 -0.53,21.19 -0.76,19.84 -0.99,18.48 -1.20,17.22 -1.40,15.97 -1.65,13.55 -1.90,11.13 -2.05,9.52 -2.21,7.91 -2.33,6.55 -2.46,5.18 -2.57,3.58 -2.67,1.98 -2.64,0.99 -2.61,0 -2.57,-0.31 -2.53,-0.62 -2.42,-0.91 -2.31,-1.21 -2.13,-1.47 -1.95,-1.73 -1.72,-1.94 -1.48,-2.15 -1.20,-2.29 -0.92,-2.44 -0.62,-2.51 -0.31,-2.59 0.00,-2.59 0.31,-2.59 0.62,-2.51 0.92,-2.44 1.20,-2.29 1.48,-2.15 1.72,-1.94 1.95,-1.73 2.13,-1.47 2.31,-1.21 2.42,-0.91 2.53,-0.62 2.57,-0.31 2.61,0.00 2.61,0.00 L 2.61,0 Z"></path></g></svg>