<svg version="1.1" xmlns="http://www.w3.org/2000/svg" viewBox="0 0 800 760" width="1600" height="1520">
  <!-- svg-source:excalidraw -->
  
  <defs>
    <style class="style-fonts">
      
    </style>
    
  </defs>
  <g stroke-linecap="round" transform="translate(10 10) rotate(0 390 370)"><path d="M32 0 C280.02 0, 528.04 0, 748 0 C769.33 0, 780 10.67, 780 32 C780 301, 780 570, 780 708 C780 729.33, 769.33 740, 748 740 C520.71 740, 293.41 740, 32 740 C10.67 740, 0 729.33, 0 708 C0 502.88, 0 297.76, 0 32 C0 10.67, 10.67 0, 32 0" stroke="none" stroke-width="0" fill="#ffffff"></path><path d="M32 0 C268.34 0, 504.67 0, 748 0 M32 0 C268.67 0, 505.34 0, 748 0 M748 0 C769.33 0, 780 10.67, 780 32 M748 0 C769.33 0, 780 10.67, 780 32 M780 32 C780 220.62, 780 409.24, 780 708 M780 32 C780 285.46, 780 538.91, 780 708 M780 708 C780 729.33, 769.33 740, 748 740 M780 708 C780 729.33, 769.33 740, 748 740 M748 740 C597.35 740, 446.69 740, 32 740 M748 740 C582.14 740, 416.28 740, 32 740 M32 740 C10.67 740, 0 729.33, 0 708 M32 740 C10.67 740, 0 729.33, 0 708 M0 708 C0 567.49, 0 426.97, 0 32 M0 708 C0 439, 0 170.01, 0 32 M0 32 C0 10.67, 10.67 0, 32 0 M0 32 C0 10.67, 10.67 0, 32 0" stroke="#ffffff" stroke-width="4" fill="none"></path></g><g stroke-linecap="round" transform="translate(30 610) rotate(0 370 60)"><path d="M30 0 C185.65 5.71, 344.91 5.92, 710 0 C728.78 0.63, 737.59 11.7, 740 30 C737.59 46.77, 744.98 57.04, 740 90 C738.92 104.99, 730.86 116.27, 710 120 C478.39 123.4, 246.86 124.14, 30 120 C11.42 124.71, -1.24 114.2, 0 90 C2.9 71.22, -3.51 62.65, 0 30 C1.5 13.88, 13.81 -4.17, 30 0" stroke="none" stroke-width="0" fill="#ffffff"></path><path d="M30 0 C223.7 4.08, 414.36 2.4, 710 0 M30 0 C250.45 -3.75, 470.11 -2.95, 710 0 M710 0 C732.62 1.88, 743.85 6.22, 740 30 M710 0 C732.22 1.28, 743.39 5.72, 740 30 M740 30 C738.19 44.16, 736.83 54.22, 740 90 M740 30 C741.27 52.59, 738.89 79.13, 740 90 M740 90 C743.34 111.57, 733.63 121.7, 710 120 M740 90 C735.81 112.41, 729.21 122.56, 710 120 M710 120 C530.7 120.15, 354.74 119.38, 30 120 M710 120 C557.9 121.28, 404.5 121.86, 30 120 M30 120 C7.84 120.12, -1.98 109.66, 0 90 M30 120 C12.42 119.7, 3.01 110.72, 0 90 M0 90 C-2.34 69.48, 1.05 53.24, 0 30 M0 90 C1.05 74.12, -2.26 62.01, 0 30 M0 30 C-3.07 8.85, 11.79 -1.07, 30 0 M0 30 C-1.24 11.65, 8.38 -4.13, 30 0" stroke="#1e1e1e" stroke-width="4" fill="none"></path></g><g stroke-linecap="round" transform="translate(70 640) rotate(0 30 30)"><path d="M5.46 10.02 C8.81 4.93, 16.01 -0.55, 22.5 -1.36 C28.98 -2.17, 38.33 2.04, 44.37 5.15 C50.41 8.26, 56.63 11.53, 58.75 17.3 C60.86 23.07, 59.02 33.31, 57.04 39.78 C55.06 46.24, 52.11 52.79, 46.89 56.08 C41.67 59.37, 32.29 60.33, 25.71 59.52 C19.13 58.71, 11.78 55.91, 7.39 51.23 C2.99 46.56, -3.06 39.61, -0.66 31.5 C1.74 23.38, 15.71 7.24, 21.79 2.55 C27.87 -2.15, 35.96 2.94, 35.84 3.35 M32.65 1.11 C38.65 0.87, 45.49 0.7, 49.52 4.87 C53.56 9.04, 56.01 19.11, 56.86 26.15 C57.71 33.18, 57.09 41.89, 54.63 47.06 C52.17 52.23, 47.77 54.99, 42.09 57.18 C36.41 59.36, 26.63 62.56, 20.55 60.17 C14.47 57.78, 8.64 48.66, 5.63 42.82 C2.62 36.98, 1.38 31.33, 2.48 25.11 C3.58 18.89, 7.8 9.56, 12.24 5.49 C16.67 1.41, 25.57 1.41, 29.1 0.64 C32.63 -0.12, 33.23 0.73, 33.43 0.89" stroke="none" stroke-width="0" fill="#ffffff"></path><path d="M45.3 5.43 C50.6 8.5, 54.62 13.99, 56.68 20.21 C58.74 26.43, 60.01 36.63, 57.68 42.75 C55.35 48.87, 48.52 54.41, 42.71 56.92 C36.9 59.42, 29.25 59.02, 22.82 57.77 C16.39 56.51, 7.79 54.36, 4.14 49.39 C0.5 44.42, 0.08 34.56, 0.94 27.95 C1.8 21.35, 4.91 14.17, 9.32 9.75 C13.73 5.34, 20.77 1.7, 27.4 1.46 C34.04 1.21, 45.52 6.98, 49.12 8.27 C52.73 9.57, 49.44 8.9, 49.02 9.24 M25.85 2.99 C31.84 1.07, 37.92 0.77, 43 3.88 C48.09 6.98, 53.33 15.44, 56.37 21.61 C59.42 27.77, 62.52 35.27, 61.27 40.89 C60.02 46.5, 54.39 51.77, 48.85 55.31 C43.31 58.84, 34.75 62.99, 28.02 62.08 C21.29 61.16, 13.14 54.87, 8.47 49.82 C3.8 44.77, 0.36 38.42, 0 31.79 C-0.37 25.16, 2.79 14.75, 6.3 10.02 C9.8 5.3, 17.96 4.84, 21.03 3.44 C24.09 2.04, 24.24 1.77, 24.69 1.63" stroke="#1e1e1e" stroke-width="4" fill="none"></path></g><g stroke-linecap="round" transform="translate(220 640) rotate(0 30 30)"><path d="M30.23 -0.1 C36.1 -0.32, 44.41 4.18, 49.18 8.46 C53.95 12.75, 57.46 19.37, 58.85 25.59 C60.23 31.82, 60.73 40.05, 57.49 45.79 C54.25 51.54, 45.7 57.89, 39.39 60.05 C33.09 62.22, 25.51 61.26, 19.65 58.8 C13.78 56.33, 7.65 50.72, 4.19 45.27 C0.72 39.81, -2.36 32.48, -1.17 26.06 C0.01 19.65, 5.68 11.39, 11.3 6.78 C16.92 2.18, 27.92 -0.67, 32.53 -1.57 C37.15 -2.47, 38.6 0.26, 38.97 1.38 M19.07 1.71 C24.41 -1.46, 33.21 0.61, 39.2 2.25 C45.2 3.9, 51.93 6.48, 55.06 11.58 C58.19 16.68, 58.18 26.23, 57.99 32.84 C57.79 39.44, 58.19 46.93, 53.91 51.2 C49.64 55.47, 39.62 58.1, 32.34 58.45 C25.06 58.8, 15.34 56.44, 10.23 53.31 C5.12 50.18, 2.5 45.93, 1.7 39.67 C0.91 33.4, 2.76 21.89, 5.46 15.69 C8.15 9.49, 15.95 4.69, 17.86 2.47 C19.77 0.25, 17.26 1.4, 16.91 2.36" stroke="none" stroke-width="0" fill="#ffffff"></path><path d="M10.57 7.35 C15.36 2.74, 23.48 0.16, 29.94 0.16 C36.41 0.16, 44.42 3.21, 49.37 7.36 C54.31 11.52, 58.67 18.99, 59.6 25.08 C60.53 31.16, 58.01 38.21, 54.95 43.87 C51.89 49.53, 46.94 56.75, 41.22 59.04 C35.51 61.32, 26.51 59.46, 20.64 57.57 C14.77 55.67, 9.15 53.02, 6.01 47.68 C2.86 42.34, -0.66 33.37, 1.78 25.54 C4.22 17.7, 15.17 4.5, 20.64 0.67 C26.12 -3.17, 34.32 1.57, 34.63 2.52 M30.09 -0.36 C35.84 -1.15, 43.91 3.42, 48.81 7.25 C53.71 11.08, 58.66 15.94, 59.47 22.6 C60.28 29.27, 56.63 41.29, 53.67 47.25 C50.72 53.21, 47.39 56.66, 41.74 58.34 C36.08 60.02, 25.72 59.53, 19.74 57.32 C13.76 55.12, 9.54 50.6, 5.87 45.13 C2.19 39.66, -2.73 31.12, -2.31 24.52 C-1.88 17.93, 3.41 10.08, 8.43 5.54 C13.45 1, 24.78 -1.83, 27.8 -2.7 C30.83 -3.57, 25.95 -0.81, 26.57 0.32" stroke="#1e1e1e" stroke-width="4" fill="none"></path></g><g stroke-linecap="round" transform="translate(370 640) rotate(0 30 30)"><path d="M38.79 2.19 C44.6 4.46, 51.91 10.75, 55.66 16.18 C59.42 21.61, 62.26 28.32, 61.33 34.76 C60.41 41.2, 55.18 50.78, 50.11 54.84 C45.05 58.9, 37.37 59.36, 30.95 59.14 C24.53 58.93, 16.6 57.74, 11.59 53.57 C6.57 49.41, 2.3 40.59, 0.86 34.17 C-0.58 27.74, -0.52 20.41, 2.96 15.02 C6.45 9.63, 13.51 2.7, 21.78 1.84 C30.06 0.98, 46.73 6.22, 52.59 9.86 C58.46 13.49, 57.22 23, 56.98 23.64 M53.67 11.94 C57.73 16.08, 58.68 22.67, 58.77 29.48 C58.86 36.28, 57.97 48.07, 54.21 52.76 C50.45 57.45, 43.27 57.55, 36.22 57.62 C29.16 57.69, 17.35 56.18, 11.86 53.17 C6.38 50.17, 4.68 45.66, 3.32 39.58 C1.97 33.51, 1.15 22.94, 3.73 16.73 C6.31 10.52, 12.86 4.92, 18.79 2.35 C24.72 -0.23, 33.69 -0.33, 39.31 1.27 C44.94 2.88, 49.99 10.45, 52.56 11.98 C55.12 13.51, 54.78 9.71, 54.72 10.46" stroke="none" stroke-width="0" fill="#ffffff"></path><path d="M49.91 10.4 C54.98 14.52, 60.49 21.98, 61.63 28.03 C62.77 34.09, 60.42 41.34, 56.76 46.74 C53.09 52.13, 46.06 58.66, 39.64 60.4 C33.22 62.14, 24.35 59.97, 18.24 57.17 C12.14 54.36, 5.91 49.47, 3.02 43.55 C0.13 37.63, -0.36 27.66, 0.91 21.66 C2.18 15.67, 5.34 11.12, 10.64 7.57 C15.94 4.01, 24.76 -4.73, 32.72 0.31 C40.68 5.35, 57.75 28.09, 58.4 37.8 C59.06 47.52, 37.38 58.73, 36.67 58.61 M9.96 2.65 C14.99 -0.57, 25.13 1.65, 32.17 2.17 C39.21 2.68, 47.91 1.55, 52.2 5.72 C56.49 9.9, 57.12 20.23, 57.89 27.21 C58.67 34.19, 60.07 42.34, 56.85 47.61 C53.62 52.87, 45.11 56.78, 38.55 58.78 C32 60.78, 23.64 62.02, 17.53 59.61 C11.41 57.2, 4.28 50.27, 1.88 44.31 C-0.53 38.35, 1.56 29.81, 3.1 23.82 C4.63 17.84, 9.51 11.25, 11.09 8.41 C12.68 5.58, 12.03 6.87, 12.6 6.82" stroke="#1e1e1e" stroke-width="4" fill="none"></path></g><g stroke-linecap="round" transform="translate(520 640) rotate(0 30 30)"><path d="M38.13 -0.29 C44.41 1.41, 53 9.7, 56.93 15.13 C60.86 20.57, 62.97 26.38, 61.71 32.33 C60.45 38.28, 54.18 46.12, 49.37 50.85 C44.55 55.59, 38.96 60.38, 32.84 60.75 C26.72 61.12, 17.75 57.18, 12.63 53.07 C7.51 48.96, 3.43 42.19, 2.12 36.1 C0.82 30.01, 2.27 22.19, 4.8 16.53 C7.34 10.87, 10.23 4.3, 17.33 2.15 C24.42 0, 41.42 1.85, 47.35 3.63 C53.28 5.41, 53.39 11.96, 52.89 12.84 M43.3 1.29 C48.62 4.43, 54.81 14.85, 57.06 21.72 C59.31 28.59, 58.79 36.73, 56.81 42.51 C54.83 48.29, 50.95 53.1, 45.18 56.42 C39.4 59.73, 29.03 63.92, 22.16 62.4 C15.29 60.88, 7.94 52.57, 3.98 47.29 C0.02 42, -1.7 36.74, -1.61 30.7 C-1.51 24.65, -0.27 16.24, 4.55 11.03 C9.37 5.83, 20.31 0.31, 27.32 -0.53 C34.32 -1.37, 43.19 4.9, 46.59 6.01 C49.98 7.13, 47.83 6.31, 47.67 6.15" stroke="none" stroke-width="0" fill="#ffffff"></path><path d="M14.38 5.65 C19.85 2.17, 29.29 -2.38, 35.45 -1.6 C41.61 -0.81, 47.01 5.09, 51.34 10.33 C55.68 15.57, 61.06 23.44, 61.45 29.86 C61.85 36.27, 58.01 43.6, 53.72 48.8 C49.44 53.99, 42.23 59.62, 35.74 61.02 C29.25 62.43, 20.16 60.44, 14.77 57.22 C9.37 54, 5.75 47.53, 3.39 41.68 C1.03 35.84, -2.1 28.7, 0.6 22.14 C3.29 15.58, 15.37 5.84, 19.54 2.32 C23.71 -1.19, 25.65 0.48, 25.6 1.04 M37.84 2.31 C43.64 4.79, 51.32 11.24, 55.39 16.57 C59.46 21.91, 63.05 27.8, 62.27 34.31 C61.48 40.82, 55.81 51.56, 50.7 55.62 C45.6 59.69, 38.07 58.99, 31.65 58.72 C25.23 58.45, 17.29 58.16, 12.2 54.02 C7.11 49.88, 2.75 40.34, 1.1 33.87 C-0.55 27.41, -1.26 20.55, 2.32 15.23 C5.9 9.9, 16.31 4.37, 22.59 1.93 C28.87 -0.51, 37.52 0.72, 40.02 0.57 C42.52 0.42, 37.55 0.08, 37.58 1.04" stroke="#1e1e1e" stroke-width="4" fill="none"></path></g><g stroke-linecap="round" transform="translate(670 640) rotate(0 30 30)"><path d="M12.29 4.98 C17.68 1.19, 28.79 -1.34, 35.6 -0.32 C42.4 0.71, 48.76 6.09, 53.12 11.12 C57.47 16.16, 61.44 23.87, 61.73 29.9 C62.02 35.94, 59.37 42.14, 54.86 47.32 C50.35 52.51, 40.95 59.45, 34.68 61.03 C28.4 62.61, 22.48 60.23, 17.2 56.79 C11.91 53.36, 5.32 46.11, 2.97 40.39 C0.63 34.67, 0.62 28.71, 3.14 22.48 C5.66 16.25, 14.84 6.31, 18.08 3.01 C21.32 -0.29, 22.29 2.12, 22.57 2.67 M22.26 0.91 C27.94 -0.35, 36.95 1.4, 42.72 4.39 C48.49 7.39, 54.7 13.4, 56.88 18.9 C59.06 24.41, 58.02 31.46, 55.81 37.45 C53.6 43.43, 49.31 51.42, 43.63 54.81 C37.95 58.21, 27.98 58.55, 21.74 57.84 C15.49 57.13, 9.55 55.41, 6.15 50.56 C2.76 45.71, 1.61 35.27, 1.35 28.73 C1.09 22.2, 0.71 16.45, 4.61 11.33 C8.52 6.22, 21.55 -0.36, 24.78 -1.96 C28 -3.55, 23.52 1.28, 23.94 1.77" stroke="none" stroke-width="0" fill="#ffffff"></path><path d="M41.61 3.33 C47.47 5.74, 56.09 12.1, 58.9 17.72 C61.71 23.34, 60.77 31.06, 58.47 37.06 C56.16 43.06, 50.24 49.75, 45.08 53.71 C39.93 57.68, 33.3 61.54, 27.53 60.87 C21.77 60.21, 14.97 54.52, 10.49 49.71 C6.02 44.91, 1.55 38.35, 0.7 32.04 C-0.16 25.72, 2.01 16.72, 5.36 11.82 C8.71 6.92, 12.03 1.56, 20.82 2.65 C29.61 3.74, 52 13.07, 58.1 18.38 C64.2 23.68, 58.29 34.35, 57.42 34.48 M43.51 1.51 C49.47 3.75, 56.42 10.74, 58.78 16.52 C61.14 22.3, 59.25 30.32, 57.67 36.17 C56.1 42.02, 54.08 47.25, 49.33 51.63 C44.58 56.01, 35.94 62.02, 29.19 62.45 C22.44 62.87, 13.37 59.02, 8.82 54.18 C4.27 49.34, 2.65 40.46, 1.88 33.41 C1.11 26.36, 1.51 17.41, 4.2 11.87 C6.88 6.32, 11.52 1.94, 17.99 0.13 C24.46 -1.68, 38.84 0.49, 43.02 1.03 C47.2 1.57, 43.47 3.06, 43.06 3.36" stroke="#1e1e1e" stroke-width="4" fill="none"></path></g><g stroke-linecap="round" transform="translate(90 510) rotate(0 60 50)"><path d="M-0.96 0.58 L116.46 3.53 L116.87 98.28 L-0.16 98.58" stroke="none" stroke-width="0" fill="#ffffff"></path><path d="M1 2.45 C32.18 -0.95, 67.57 1.45, 119.89 -0.35 M0.77 -0.98 C25.08 2.32, 49.49 0, 120.86 -0.91 M123.36 1.09 C122.4 25.25, 118.5 47.61, 122.41 100.27 M120.09 1.39 C120.18 30, 117.53 63.23, 120.4 98.14 M120.55 100.74 C75.07 101.2, 39.28 102.82, -2.9 100.05 M118.13 99.19 C90.51 99.77, 61.09 101.66, -0.99 100.14 M-0.37 98.44 C3 62.42, -1.77 25.41, 2.63 -2.09 M-1.18 99.05 C-0.39 79.79, -1.78 54.67, 1.11 0.52" stroke="#1e1e1e" stroke-width="4" fill="none"></path></g><g stroke-linecap="round" transform="translate(270 510) rotate(0 60 50)"><path d="M-2.62 -3.94 L116.94 1.47 L119.92 98.11 L1.93 100.19" stroke="none" stroke-width="0" fill="#ffffff"></path><path d="M-2.08 0.52 C41.68 -0.75, 78.91 -2.21, 116.25 0.17 M-1.88 1.33 C44.74 -0.72, 89.6 2.67, 119.58 0.27 M122.21 3.33 C115.37 31.89, 116.33 62.13, 120.3 96.25 M121.46 1.48 C119.71 26.09, 122.25 52.43, 120.34 99.81 M118.77 100.97 C91.32 98.03, 54.13 101.43, -3.87 97.64 M118.87 98.43 C90.79 102.53, 58.89 102.3, -1.77 101.76 M-1.42 97.08 C1.37 77.27, 4.36 55.64, -0.69 0.87 M-1.9 101.79 C1.67 66.47, -2.22 33.07, 0.92 1" stroke="#1e1e1e" stroke-width="4" fill="none"></path></g><g stroke-linecap="round" transform="translate(430 510) rotate(0 60 50)"><path d="M3 -1.54 L123.1 -0.56 L123.62 103.24 L-1.44 101.31" stroke="none" stroke-width="0" fill="#ffffff"></path><path d="M3.33 -2.9 C25.66 -3.27, 49.66 -1.03, 116.25 -1.62 M1.48 -0.99 C40.31 -0.19, 80.89 -1.4, 119.81 -0.78 M120.97 2.63 C118.01 35.61, 121.41 73.84, 117.64 98.1 M118.43 1.11 C122.19 30.83, 121.96 60.86, 121.76 98.44 M117.08 100.51 C88.6 102.65, 58.29 98.46, 0.87 101.07 M121.79 101.89 C81.8 95.72, 43.73 98.63, 1 98.69 M-0.08 98.11 C3.46 80.05, -0.77 56.99, 0.14 -0.78 M-1.46 99.91 C-0.9 62.78, -1.73 21.9, 1.34 0.49" stroke="#1e1e1e" stroke-width="4" fill="none"></path></g><g stroke-linecap="round" transform="translate(590 510) rotate(0 60 50)"><path d="M0.08 0.82 L121.22 -3.76 L121.69 101.18 L-2.05 98.51" stroke="none" stroke-width="0" fill="#ffffff"></path><path d="M3.53 -3.13 C31.39 1.97, 64.81 -0.8, 120.51 -0.55 M0.44 0.53 C46.72 0.52, 91.1 2.2, 121.89 -0.86 M122.01 -2.62 C114.46 16.95, 119.87 39.94, 118.11 101.93 M120.07 -0.39 C120.5 31.13, 119.55 59.5, 119.91 99.75 M122.68 100.98 C80.76 96.57, 38.63 97.55, 3.62 103.24 M118.14 100.18 C86.77 97.2, 55.21 98.38, 1.55 101.57 M-2.01 101.31 C-0.69 59.09, 2.2 20.35, 1.1 2.96 M-1.1 101.56 C2.7 70.64, -0.73 44.47, 1.51 -1.3" stroke="#1e1e1e" stroke-width="4" fill="none"></path></g><g transform="translate(700.8299981465916 671.0925637872087) rotate(0 0.00004999999998744897 0.00005000000010113581)" stroke="none"><path fill="#1e1e1e" d="M 6.28,-6.28 Q 6.28,-6.28 7.11,-5.11 7.95,-3.94 8.37,-2.57 8.80,-1.19 8.76,0.23 8.72,1.67 8.22,3.02 7.73,4.37 6.83,5.49 5.93,6.61 4.72,7.38 3.50,8.15 2.11,8.50 0.72,8.85 -0.71,8.73 -2.14,8.61 -3.46,8.05 -4.78,7.48 -5.85,6.52 -6.92,5.56 -7.63,4.31 -8.33,3.06 -8.60,1.65 -8.87,0.23 -8.68,-1.18 -8.49,-2.60 -7.85,-3.89 -7.21,-5.18 -6.19,-6.19 -5.18,-7.21 -3.89,-7.85 -2.60,-8.49 -1.18,-8.68 0.24,-8.87 1.65,-8.60 3.06,-8.33 4.31,-7.62 5.56,-6.92 6.52,-5.85 7.48,-4.78 8.05,-3.46 8.62,-2.14 8.73,-0.70 8.85,0.72 8.50,2.11 8.15,3.51 7.38,4.72 6.61,5.93 5.49,6.83 4.36,7.73 3.02,8.22 1.67,8.72 0.23,8.76 -1.20,8.80 -2.57,8.37 -3.94,7.95 -5.11,7.11 -6.28,6.27 -6.28,6.28 -6.28,6.28 -6.94,5.43 -7.60,4.59 -8.04,3.61 -8.48,2.64 -8.67,1.58 -8.86,0.53 -8.80,-0.53 -8.73,-1.60 -8.41,-2.62 -8.09,-3.64 -7.54,-4.56 -6.99,-5.47 -6.23,-6.23 -5.47,-6.99 -4.56,-7.54 -3.64,-8.10 -2.62,-8.41 -1.60,-8.73 -0.53,-8.80 0.53,-8.86 1.59,-8.67 2.64,-8.48 3.61,-8.04 4.59,-7.60 5.43,-6.94 6.28,-6.28 6.28,-6.28 L 6.28,-6.28 Z"></path></g><g transform="translate(548.532495500928 669.4371561497555) rotate(0 0.00005000000000165983 0.00005000000010113581)" stroke="none"><path fill="#1e1e1e" d="M 6.28,-6.28 Q 6.28,-6.28 7.11,-5.11 7.95,-3.94 8.37,-2.57 8.80,-1.19 8.76,0.23 8.72,1.67 8.22,3.02 7.73,4.37 6.83,5.49 5.93,6.61 4.72,7.38 3.50,8.15 2.11,8.50 0.72,8.85 -0.71,8.73 -2.14,8.61 -3.46,8.05 -4.78,7.48 -5.85,6.52 -6.92,5.56 -7.63,4.31 -8.33,3.06 -8.60,1.65 -8.87,0.23 -8.68,-1.18 -8.49,-2.60 -7.85,-3.89 -7.21,-5.18 -6.19,-6.19 -5.18,-7.21 -3.89,-7.85 -2.60,-8.49 -1.18,-8.68 0.24,-8.87 1.65,-8.60 3.06,-8.33 4.31,-7.62 5.56,-6.92 6.52,-5.85 7.48,-4.78 8.05,-3.46 8.62,-2.14 8.73,-0.70 8.85,0.72 8.50,2.11 8.15,3.51 7.38,4.72 6.61,5.93 5.49,6.83 4.36,7.73 3.02,8.22 1.67,8.72 0.23,8.76 -1.20,8.80 -2.57,8.37 -3.94,7.95 -5.11,7.11 -6.28,6.27 -6.28,6.28 -6.28,6.28 -6.94,5.43 -7.60,4.59 -8.04,3.61 -8.48,2.64 -8.67,1.58 -8.86,0.53 -8.80,-0.53 -8.73,-1.60 -8.41,-2.62 -8.09,-3.64 -7.54,-4.56 -6.99,-5.47 -6.23,-6.23 -5.47,-6.99 -4.56,-7.54 -3.64,-8.10 -2.62,-8.41 -1.60,-8.73 -0.53,-8.80 0.53,-8.86 1.59,-8.67 2.64,-8.48 3.61,-8.04 4.59,-7.60 5.43,-6.94 6.28,-6.28 6.28,-6.28 L 6.28,-6.28 Z"></path></g><g transform="translate(401.2012157676231 674.4033790621143) rotate(0 0.00004999999999988347 0.00005000000010113581)" stroke="none"><path fill="#1e1e1e" d="M 6.28,-6.28 Q 6.28,-6.28 7.11,-5.11 7.95,-3.94 8.37,-2.57 8.80,-1.19 8.76,0.23 8.72,1.67 8.22,3.02 7.73,4.37 6.83,5.49 5.93,6.61 4.72,7.38 3.50,8.15 2.11,8.50 0.72,8.85 -0.71,8.73 -2.14,8.61 -3.46,8.05 -4.78,7.48 -5.85,6.52 -6.92,5.56 -7.63,4.31 -8.33,3.06 -8.60,1.65 -8.87,0.23 -8.68,-1.18 -8.49,-2.60 -7.85,-3.89 -7.21,-5.18 -6.19,-6.19 -5.18,-7.21 -3.89,-7.85 -2.60,-8.49 -1.18,-8.68 0.24,-8.87 1.65,-8.60 3.06,-8.33 4.31,-7.62 5.56,-6.92 6.52,-5.85 7.48,-4.78 8.05,-3.46 8.62,-2.14 8.73,-0.70 8.85,0.72 8.50,2.11 8.15,3.51 7.38,4.72 6.61,5.93 5.49,6.83 4.36,7.73 3.02,8.22 1.67,8.72 0.23,8.76 -1.20,8.80 -2.57,8.37 -3.94,7.95 -5.11,7.11 -6.28,6.27 -6.28,6.28 -6.28,6.28 -6.94,5.43 -7.60,4.59 -8.04,3.61 -8.48,2.64 -8.67,1.58 -8.86,0.53 -8.80,-0.53 -8.73,-1.60 -8.41,-2.62 -8.09,-3.64 -7.54,-4.56 -6.99,-5.47 -6.23,-6.23 -5.47,-6.99 -4.56,-7.54 -3.64,-8.10 -2.62,-8.41 -1.60,-8.73 -0.53,-8.80 0.53,-8.86 1.59,-8.67 2.64,-8.48 3.61,-8.04 4.59,-7.60 5.43,-6.94 6.28,-6.28 6.28,-6.28 L 6.28,-6.28 Z"></path></g><g transform="translate(250.5591207594124 667.7817485123032) rotate(0 0.00005000000000165983 0.00005000000010113581)" stroke="none"><path fill="#1e1e1e" d="M 6.28,-6.28 Q 6.28,-6.28 7.11,-5.11 7.95,-3.94 8.37,-2.57 8.80,-1.19 8.76,0.23 8.72,1.67 8.22,3.02 7.73,4.37 6.83,5.49 5.93,6.61 4.72,7.38 3.50,8.15 2.11,8.50 0.72,8.85 -0.71,8.73 -2.14,8.61 -3.46,8.05 -4.78,7.48 -5.85,6.52 -6.92,5.56 -7.63,4.31 -8.33,3.06 -8.60,1.65 -8.87,0.23 -8.68,-1.18 -8.49,-2.60 -7.85,-3.89 -7.21,-5.18 -6.19,-6.19 -5.18,-7.21 -3.89,-7.85 -2.60,-8.49 -1.18,-8.68 0.24,-8.87 1.65,-8.60 3.06,-8.33 4.31,-7.62 5.56,-6.92 6.52,-5.85 7.48,-4.78 8.05,-3.46 8.62,-2.14 8.73,-0.70 8.85,0.72 8.50,2.11 8.15,3.51 7.38,4.72 6.61,5.93 5.49,6.83 4.36,7.73 3.02,8.22 1.67,8.72 0.23,8.76 -1.20,8.80 -2.57,8.37 -3.94,7.95 -5.11,7.11 -6.28,6.27 -6.28,6.28 -6.28,6.28 -6.94,5.43 -7.60,4.59 -8.04,3.61 -8.48,2.64 -8.67,1.58 -8.86,0.53 -8.80,-0.53 -8.73,-1.60 -8.41,-2.62 -8.09,-3.64 -7.54,-4.56 -6.99,-5.47 -6.23,-6.23 -5.47,-6.99 -4.56,-7.54 -3.64,-8.10 -2.62,-8.41 -1.60,-8.73 -0.53,-8.80 0.53,-8.86 1.59,-8.67 2.64,-8.48 3.61,-8.04 4.59,-7.60 5.43,-6.94 6.28,-6.28 6.28,-6.28 L 6.28,-6.28 Z"></path></g><g transform="translate(101.57243338865453 671.0925637872087) rotate(0 0.00004999999998744897 0.00005000000010113581)" stroke="none"><path fill="#1e1e1e" d="M 6.28,-6.28 Q 6.28,-6.28 7.11,-5.11 7.95,-3.94 8.37,-2.57 8.80,-1.19 8.76,0.23 8.72,1.67 8.22,3.02 7.73,4.37 6.83,5.49 5.93,6.61 4.72,7.38 3.50,8.15 2.11,8.50 0.72,8.85 -0.71,8.73 -2.14,8.61 -3.46,8.05 -4.78,7.48 -5.85,6.52 -6.92,5.56 -7.63,4.31 -8.33,3.06 -8.60,1.65 -8.87,0.23 -8.68,-1.18 -8.49,-2.60 -7.85,-3.89 -7.21,-5.18 -6.19,-6.19 -5.18,-7.21 -3.89,-7.85 -2.60,-8.49 -1.18,-8.68 0.24,-8.87 1.65,-8.60 3.06,-8.33 4.31,-7.62 5.56,-6.92 6.52,-5.85 7.48,-4.78 8.05,-3.46 8.62,-2.14 8.73,-0.70 8.85,0.72 8.50,2.11 8.15,3.51 7.38,4.72 6.61,5.93 5.49,6.83 4.36,7.73 3.02,8.22 1.67,8.72 0.23,8.76 -1.20,8.80 -2.57,8.37 -3.94,7.95 -5.11,7.11 -6.28,6.27 -6.28,6.28 -6.28,6.28 -6.94,5.43 -7.60,4.59 -8.04,3.61 -8.48,2.64 -8.67,1.58 -8.86,0.53 -8.80,-0.53 -8.73,-1.60 -8.41,-2.62 -8.09,-3.64 -7.54,-4.56 -6.99,-5.47 -6.23,-6.23 -5.47,-6.99 -4.56,-7.54 -3.64,-8.10 -2.62,-8.41 -1.60,-8.73 -0.53,-8.80 0.53,-8.86 1.59,-8.67 2.64,-8.48 3.61,-8.04 4.59,-7.60 5.43,-6.94 6.28,-6.28 6.28,-6.28 L 6.28,-6.28 Z"></path></g></svg>