<svg version="1.1" xmlns="http://www.w3.org/2000/svg" viewBox="0 0 1442.2222222222222 820" width="2884.4444444444443" height="1640">
  <!-- svg-source:excalidraw -->
  
  <defs>
    <style class="style-fonts">
      
    </style>
    
  </defs>
  <g stroke-linecap="round" transform="translate(10 10) rotate(0 711.1111111111111 400)"><path d="M32 0 C439.16 -4.16, 848.16 -3.9, 1390.22 0 M32 0 C536.35 4.92, 1041.36 5.07, 1390.22 0 M1390.22 0 C1412.33 1.12, 1422.92 12.25, 1422.22 32 M1390.22 0 C1412.45 -1.29, 1424.3 12.01, 1422.22 32 M1422.22 32 C1420.25 321.88, 1420.75 611.87, 1422.22 768 M1422.22 32 C1424.46 280.77, 1423.72 529.97, 1422.22 768 M1422.22 768 C1422 788.72, 1412.7 801.35, 1390.22 800 M1422.22 768 C1421.47 791.05, 1409.48 797.75, 1390.22 800 M1390.22 800 C1109.03 800.35, 828.79 800.02, 32 800 M1390.22 800 C1025.5 802.21, 660.26 802.01, 32 800 M32 800 C10.5 798.94, -1.1 790.96, 0 768 M32 800 C11.7 801.64, -1.01 788.44, 0 768 M0 768 C0.35 518.59, 1.07 269.63, 0 32 M0 768 C2.81 502.98, 2.48 237.74, 0 32 M0 32 C0.27 11.01, 11.67 1.56, 32 0 M0 32 C1.18 11.42, 10.1 -0.35, 32 0" stroke="transparent" stroke-width="4" fill="none"></path></g><g stroke-linecap="round" transform="translate(910 622.9068086549469) rotate(0 240 60)"><path d="M0 0 C0 0, 0 0, 0 0 M0 0 C0 0, 0 0, 0 0 M1.63 26.77 C5.64 18.12, 11.06 9.18, 21.47 -1.57 M0.01 23.38 C6.73 15.79, 12.91 10.49, 22.79 1.51 M-0.23 50.24 C12.98 27.2, 36.36 12.15, 43.31 3.48 M-1.14 50.43 C12.79 35.09, 22.52 21.2, 41.19 1.68 M3.46 74.18 C17.79 52.2, 41.05 24.35, 61.45 2.9 M-0.56 74.07 C12.41 56.36, 27.19 37.48, 62.97 -0.3 M1.8 98.44 C33.04 59.28, 62.17 30.73, 82.14 1.28 M0.4 96.17 C34.62 59.55, 67.66 22.91, 86.02 0.5 M2.79 123.02 C36.83 78.03, 71.81 38.77, 104.22 0.19 M0.96 121.2 C38.84 78.66, 76.11 34.5, 107.05 0.91 M21.06 120.52 C45.38 95.92, 66.57 66.52, 123.05 -3.65 M22.72 119.64 C50.48 85.67, 78.42 55.2, 125.59 0.72 M46.04 117.94 C73.12 86.18, 108.91 48.11, 149.8 3.95 M41.92 118.72 C68.91 88.96, 94.38 59.83, 149.33 0.02 M67.68 116.39 C90.98 87.13, 127 49.83, 172.09 0.56 M65.14 121.09 C91.1 94.72, 115.68 66.48, 170.88 1.97 M85.35 119.1 C115.43 88.57, 144.85 55.73, 189.27 -2.51 M86.33 121.7 C110.6 89.49, 135.25 61.49, 189.06 -1.83 M108.49 116.78 C128.83 94.53, 152.22 70.46, 208.37 -2.05 M109.51 120.19 C137.94 83.73, 167.21 51.29, 212.93 -0.33 M129.24 117.04 C160.86 75.77, 196.16 35.66, 236.76 -1.65 M129.46 119.17 C169.74 72.48, 209.08 23.3, 232.48 1.31 M147.05 121.71 C184.96 80.25, 222.38 36.31, 254.74 1.76 M150.38 120.52 C178.92 82.63, 210.82 45.27, 255.35 0.03 M173.31 116.25 C187.22 97.99, 208.78 73.48, 272.16 3.23 M170.59 119.72 C203.2 86.68, 231.93 55.17, 277.46 -0.84 M191.32 119.88 C220.9 95.96, 243.69 66.88, 293.09 3.18 M192.57 118.92 C216.26 88.82, 240.99 59.2, 295.75 -1.23 M211.54 123.91 C252.89 76.27, 290.41 29.52, 316.4 0.77 M214.28 122.21 C254.32 73.85, 297.43 25.52, 318.84 -0.04 M236.3 121.68 C263.46 78.7, 302.97 45.61, 340.4 -0.7 M235.87 120.49 C266.6 84.28, 298.78 44.76, 339.71 -0.83 M258.98 118.88 C283.94 82.55, 317.3 48.33, 362.81 0.31 M255.04 118.76 C290.03 75.79, 326.46 33.8, 361.76 1.25 M280.07 119.7 C305.64 88.99, 327.69 61.61, 380.03 -2.06 M277.04 121.15 C296.93 92.13, 323.4 62.39, 382.1 -1.24 M295.74 116.21 C330.07 79.53, 363.79 43.69, 399.78 0.85 M299.38 121.3 C332.46 79.67, 369.77 40.9, 402.32 0.82 M322.46 121.7 C339.7 92.9, 359.19 66.92, 424.39 2.57 M318.49 118.59 C357.25 77.13, 395.99 37.32, 423.76 0.37 M337.66 120.13 C365.17 90.51, 391.84 59.33, 442.76 -0.38 M342.44 120.53 C381.42 73.53, 418.91 23.55, 445.6 -0.72 M360.33 123.4 C399.11 82.55, 429.2 42.62, 466.98 -3.12 M361.59 119.02 C401.08 74.97, 439.32 30.3, 465.5 -1.38 M383.64 120.82 C407.03 90.61, 432.18 60.7, 477.73 9.29 M385.31 120.69 C420.12 77.25, 452.16 38.82, 479.09 7.3 M407.61 120.43 C420.57 100.06, 436.38 80.89, 476.79 34.17 M404.66 119.2 C432.9 85.64, 462 50.36, 480.55 31.34 M427.01 123.14 C445.97 98.09, 461.38 78.81, 482.71 54.67 M424.42 122.3 C444.44 98.98, 463.78 77.39, 480.28 56.24 M442.65 121.12 C460.99 102.27, 471.71 88.11, 479.9 81.4 M448.37 121.15 C452.46 111.69, 463.59 101.61, 482.12 81.6 M470.08 123.65 C470.59 119.97, 473.49 113.39, 477.12 102.5 M468.11 121.14 C472.08 115.13, 474.58 112.35, 479.88 106.03 M0.21 120.18 C0.21 120.18, 0.21 120.18, 0.21 120.18 M0.21 120.18 C0.21 120.18, 0.21 120.18, 0.21 120.18 M23.1 120.14 C12.3 112.19, 9.36 103.18, -3.59 102.24 M22.81 118.5 C17.45 113.62, 13.25 110.33, 2.05 100.32 M52.7 121.84 C34.38 105.74, 15.84 92.43, -2.24 81.01 M47.31 120.7 C31.69 105.97, 14.01 90.55, 1.29 78.32 M76.43 122.08 C45.91 97.32, 25.08 77.77, -1.08 57.89 M74.68 118.64 C42.04 96.75, 15.78 71.8, -0.84 54.43 M94.55 121.36 C69.53 96.04, 48.26 77.57, 0.12 34.96 M98.86 121.14 C74.68 97.93, 50.64 79.63, 0.15 34.54 M118.46 122.5 C92.76 89.99, 63.54 71.98, -2.93 14.23 M121.62 120.94 C94.13 99.95, 72.77 80.6, 1.38 12.66 M145.77 117.31 C113.28 88.13, 82.65 60.6, 10.68 -2.49 M146.62 121.45 C97.96 79.85, 54.5 40.49, 7.25 0.82 M171 123.77 C140.31 91.42, 109.39 72.77, 31.33 -0.88 M171.03 120.01 C128.39 80.15, 84.25 40.29, 32.7 -2.07 M196.88 121.44 C146.9 78.12, 92.25 31.86, 58.4 3.55 M195.77 119.34 C143.58 75.91, 89.09 30.52, 55.61 1.35 M221.03 120.66 C174.81 89.51, 136.37 49.52, 81.82 1.51 M221.12 118.79 C175.97 81.8, 130.45 43.57, 81.37 -0.84 M243.07 117.22 C212.99 90.46, 186.01 66.11, 108.18 -3.24 M244.78 121.12 C207.87 86.96, 169.1 53.55, 105.84 -1.04 M267.73 122.99 C217.38 72.48, 160.97 27.96, 127.81 0.73 M269.88 121.14 C230.48 89.4, 194.63 56.34, 129.42 -1.41 M295.5 119.18 C253.19 91.46, 223.46 57.92, 157.9 -0.76 M294.64 119.08 C258.37 87.93, 222.85 57.76, 153.08 -1.13 M313.96 123.67 C274.87 83.58, 233.91 51.45, 177.14 1.64 M316.57 121.94 C273.81 79.21, 230.95 43.03, 179.99 0.86 M344.48 120.25 C313.85 101.38, 284.46 76.57, 205.1 -3.78 M342.13 120.83 C295.15 78.92, 251.4 41.31, 203.76 -0.7 M365.28 121.3 C329.99 88.13, 292.56 63.92, 228.83 -0.54 M366.73 119.67 C324.59 87.06, 281.45 50.47, 226.03 -0.1 M390.56 122.4 C338.43 77.66, 293.9 36.79, 254.02 -1.36 M388.82 117.91 C356.54 91.71, 324.55 62.94, 252.56 0.07 M417.16 123.58 C386.96 98.85, 352.13 72.05, 272.09 2.49 M413.44 121.8 C386.01 92.94, 355.94 69.48, 275.24 -0.39 M435.92 120.68 C406.43 98.17, 381.14 71.18, 302.84 -1.52 M438.55 119.86 C402.45 92.33, 368.41 65.29, 299.72 0 M466.28 118.59 C407.08 73.7, 355.16 22.15, 325.81 0.1 M462.56 118.11 C430.93 92.12, 397.87 60.67, 323.64 -0.14 M483.91 111.32 C428.24 68.1, 378.11 26.43, 346.91 -3.85 M478.89 112.28 C449.68 87.59, 421.74 62.1, 348.26 -1.79 M477.82 93.91 C449.03 66.29, 421.2 42.51, 373.57 1.37 M482.03 93.75 C459.37 71.06, 437.6 52.63, 372.5 1.17 M483.41 70.63 C462.99 57.08, 439.14 36.98, 401.8 -0.91 M479.54 69.78 C453.12 48.99, 427.17 23.45, 396.98 -1.26 M478.65 48.22 C469.05 39.87, 454.57 23.38, 422.89 -1.54 M481.11 50.89 C461.89 35.79, 444.09 19.78, 421.62 -1.98 M482.7 31.61 C476.89 25.99, 464.22 16.37, 446.73 -2.17 M480.2 26.56 C468.8 18.74, 460.95 9.21, 445.94 0.67 M480.82 8.02 C477.31 3.76, 472.98 3.03, 469.45 0.91 M480.21 7.68 C477.82 4.11, 474.19 2.61, 470.74 -0.14" stroke="#868e96" stroke-width="2" fill="none"></path><path d="M0.87 0.23 C180.66 1.68, 357.23 0.07, 479.51 1.37 M0.3 0.69 C149.28 -2.81, 298.66 -1.82, 480.81 -0.61 M483.09 -0.3 C481.88 28.7, 477.5 55.92, 477.76 116.24 M481.14 1.35 C479.07 37.08, 477.92 69.22, 478.13 120.89 M479.78 119.09 C331.58 119.55, 184.83 120.88, 1.54 120.38 M479.52 120.7 C317.55 118.42, 153.95 117.46, 0.33 119.67 M-0.25 116.25 C4.69 74.85, -1.15 38.22, -0.04 -2.08 M1 121.56 C0.71 91.37, -0.81 61.13, 0.85 1.77" stroke="#1e1e1e" stroke-width="4" fill="none"></path></g><g stroke-linecap="round" transform="translate(1030 422.9068086549469) rotate(0 120 100)"><path d="M0 0 C0 0, 0 0, 0 0 M0 0 C0 0, 0 0, 0 0 M-3.58 25.58 C8.39 14.02, 15.17 10.73, 19.73 0.11 M0.53 22.16 C4.9 15.54, 14.61 9.19, 21.39 -0.77 M1.14 46.28 C15.42 32.77, 28.53 13.93, 44.71 -2.46 M0.37 49.74 C10.63 36.89, 17.87 27.88, 40.59 -1.69 M-3.21 75.33 C18.05 53.4, 39.47 31.25, 66.35 -4.01 M0.43 74.33 C13.5 55.28, 25.62 38.94, 63.81 0.68 M0.08 100.75 C27.96 66.96, 46.16 38.4, 84.02 -1.31 M-1.8 97.13 C24.77 65.91, 53.55 38.48, 85 1.29 M-1.2 118.67 C37.33 71.56, 80.98 27.73, 107.16 -3.62 M1.64 120.13 C24.94 92.55, 52.58 61.83, 108.18 -0.21 M3.83 147.96 C37.55 108.85, 78.44 62.23, 127.25 -2.61 M-0.68 147.78 C33.38 114.31, 66.71 77.3, 127.48 -0.48 M-0.24 169.59 C51.27 115.73, 96.91 53.67, 145.51 1.8 M-0.82 170.95 C32.04 135.68, 64.76 100.5, 148.36 0.78 M2.75 196.33 C37.92 147.38, 80.97 102.03, 170.95 -2.69 M0.49 193.49 C37.88 153.54, 72.69 110.1, 168.76 0.09 M16.31 203.63 C82.6 121.45, 146.67 46.96, 190.13 -0.39 M16.02 199.35 C83.82 120.66, 150.94 43.9, 191.13 -1.15 M34.85 198.86 C89.61 146.77, 143.23 83.91, 210.58 2.78 M37.2 200.09 C92.97 139.64, 146.92 74.31, 212.74 1.43 M58.03 201.68 C95.46 157.96, 132.56 114.98, 234.59 1.01 M59.02 201.1 C97.75 157.21, 134.11 115.31, 234.26 0.06 M78.72 201.01 C121.5 150.89, 168 98.53, 243.31 14.58 M79.11 201.79 C124.06 153.11, 166.78 105.78, 240.06 14.47 M100.58 203.51 C139.62 159.08, 177.14 120.18, 243.6 39.36 M102.79 200.02 C155.73 135.86, 214.14 74.05, 240.94 40.64 M118.52 202.01 C145.26 169.52, 175.55 138.49, 237.99 60.7 M121.78 199.11 C159.27 161.34, 192.92 121.56, 241.63 65.79 M145.8 199.84 C169.33 167.51, 192.03 144.69, 243.71 90.35 M142.47 200.72 C170.73 174.84, 193.23 143.86, 239.74 87.24 M166.91 200.14 C186.92 174.44, 207.17 153.39, 237.26 113.68 M163.71 199.21 C186.63 177.09, 210 150.99, 242.04 114.08 M182.36 201.22 C204.71 178.07, 223.61 149.98, 238.94 141.1 M184.26 200.62 C204.67 179.49, 225.8 157.38, 240.2 136.73 M209.24 198.43 C215.29 185.38, 225.14 177.29, 241.26 162.67 M205.71 198.9 C216.47 192.09, 224.06 182.96, 242.93 162.55 M229.72 197.74 C231.88 192.12, 235.53 192.58, 243.28 187.13 M229.08 198.43 C232.52 198.48, 234.31 195.29, 240.62 186.02 M-0.16 199.86 C-0.16 199.86, -0.16 199.86, -0.16 199.86 M-0.16 199.86 C-0.16 199.86, -0.16 199.86, -0.16 199.86 M24.57 198.45 C20.51 197.08, 12.04 184.24, 0.43 181.09 M24.33 200.34 C17.88 196.16, 15.26 192.54, 0.45 177.14 M51.8 200.73 C29.2 183.41, 18.54 173.87, 2.95 156.91 M46.88 198.58 C28.7 182.17, 10.14 167.72, 0.44 158.41 M70.88 201.16 C57.82 189.05, 42.33 170.74, 2.8 136.01 M73.64 198 C45.9 174.81, 18.38 150.99, -1.52 134.34 M96.75 202.33 C63.55 170.23, 22.18 133.88, -0.87 115.7 M97.3 198.25 C77.54 182.08, 54.6 164.43, -1.16 114.06 M124.71 203.66 C91.06 174.09, 55.2 143.44, 3.82 95.76 M122.43 198.69 C79.45 163.09, 33.6 125.36, -1.56 94.61 M145.06 202.67 C107.13 164.66, 63.7 127.48, 3.4 75 M147 199.69 C114.56 173.85, 80.88 143.27, 1.66 71.56 M173.94 198.54 C128.89 168.16, 95.27 138.32, -2.23 53.06 M170.69 200.05 C137.04 167.82, 102.08 137.13, 1.46 52.87 M197.87 200.05 C124.98 138.56, 54.75 79.34, -2.9 32.32 M196.14 198.58 C146.83 152.78, 97.09 111.35, -0.36 31.06 M222.37 202.36 C170.66 160, 122.27 121.83, -0.35 7.24 M218.91 201.06 C161.64 150.31, 104.22 98.09, 0.29 10.34 M239.1 195.96 C182.99 143.55, 122.38 92.89, 13.46 2.27 M241.64 196.89 C181.11 140.76, 118.9 85.33, 13.48 -0.47 M240.38 176.76 C167.33 119.59, 102.27 57.14, 39.71 1.23 M240.34 176.48 C164.57 109.92, 87.47 42.57, 38.84 -0.42 M243.01 152.33 C175.97 96.59, 109.44 41.43, 63.94 0.61 M240.17 154.98 C200 120.62, 159.65 87.64, 64.02 -0.96 M242.99 133.92 C184.09 83.94, 131.33 36.72, 86.38 -2.38 M239.67 134.76 C197.48 96.11, 155.81 58.32, 87.9 1.11 M238 113.49 C190.82 73.08, 142.07 24.82, 110.93 3.09 M241.67 111.06 C195.51 71.77, 150.11 33.61, 113.08 1.24 M242.27 89.71 C206.88 65.13, 177.73 43.55, 137.95 -1.38 M240.6 92.8 C217.61 73.2, 194.79 55.12, 137.09 -1.48 M240.48 67.62 C215.45 48.83, 196.36 25.5, 157.17 3.76 M242.08 68.74 C215.71 48.16, 187.96 25.4, 159.77 2.04 M240.13 50.5 C230.33 33.14, 215.97 28.86, 187.69 0.35 M241.71 49.42 C220.11 33.42, 205.58 17.25, 185.33 0.93 M241.24 28.6 C229.66 17.02, 220.16 13.33, 208.48 1.4 M241.23 27.99 C232.4 19.38, 224.49 13.98, 209.93 -0.23 M240.77 4.9 C238.04 4.51, 235.75 2.5, 233.48 1.1 M239.5 6.33 C238.45 3.99, 237.81 3.19, 232.69 -0.92" stroke="#868e96" stroke-width="2" fill="none"></path><path d="M2.86 1.52 C54.77 1.63, 115.53 -3.71, 242.83 1.13 M-0.55 -0.42 C88.19 -1.8, 176.32 -1.88, 239.79 -0.22 M239.23 2.08 C242.45 55.8, 242.8 105.98, 237.7 199.9 M241.6 0.27 C237.34 68.25, 236.74 133.27, 238.82 199.09 M237.04 199.72 C147.69 202.35, 60.36 196.77, -0.49 202.76 M239.79 198.96 C159.98 203.48, 80.8 203.05, 1.03 199.42 M-3.6 199.19 C1.91 129.18, 4.81 56.55, 3.32 1.85 M1.46 200.53 C-4.12 137.66, -1.27 73.22, -1.32 0.58" stroke="#1e1e1e" stroke-width="4" fill="none"></path></g><g stroke-linecap="round" transform="translate(1149.5399959291676 218.86447199710028) rotate(46.8842985988338 60 141.52249134948102)"><path d="M7.33 7.7 C7.33 7.7, 7.33 7.7, 7.33 7.7 M7.33 7.7 C7.33 7.7, 7.33 7.7, 7.33 7.7 M8.91 30.27 C21.79 19.2, 24.74 12.6, 33.18 2.34 M8.91 30.27 C17.23 20.39, 24.25 11.82, 33.18 2.34 M8.52 55.11 C19.83 41.3, 30.82 27.8, 53.79 3.03 M8.52 55.11 C21.7 43.02, 33.32 28.34, 53.79 3.03 M8.78 79.19 C21.12 57.44, 43.67 43.34, 75.05 2.96 M8.78 79.19 C28.62 53.68, 48.78 32.12, 75.05 2.96 M9.05 103.27 C38.76 68.01, 72.42 37.17, 97.62 1.38 M9.05 103.27 C29.71 77.24, 50 56.05, 97.62 1.38 M8.66 128.1 C32.2 100.05, 62.08 68.09, 112.97 8.11 M8.66 128.1 C45.76 83.91, 83.8 41.88, 112.97 8.11 M8.93 152.19 C51.35 106.04, 91.24 57.16, 123.08 20.87 M8.93 152.19 C52.46 105.48, 94.43 52.22, 123.08 20.87 M8.54 177.02 C47.65 132.03, 90.23 85.22, 129.25 38.16 M8.54 177.02 C49.02 132.55, 90.66 83.99, 129.25 38.16 M8.8 201.1 C40.39 164.36, 76.47 122.86, 129.52 62.24 M8.8 201.1 C56.57 146.62, 105.81 88.7, 129.52 62.24 M8.41 225.94 C50.77 181.42, 86.6 134.22, 129.13 87.07 M8.41 225.94 C46.81 178.44, 84.7 133.58, 129.13 87.07 M3.43 256.06 C42.84 208.47, 84.16 159.4, 129.39 111.16 M3.43 256.06 C47.31 207.36, 87.83 160.55, 129.39 111.16 M9.6 273.35 C40.99 239.97, 71.18 209.44, 129.01 135.99 M9.6 273.35 C37.01 237.8, 67.27 204.49, 129.01 135.99 M19.71 286.11 C52.23 249.29, 87.3 211.42, 129.27 160.07 M19.71 286.11 C62.92 242.7, 102.21 197.43, 129.27 160.07 M35.07 292.83 C62.17 260.78, 96.66 226.99, 129.54 184.16 M35.07 292.83 C67.11 258.94, 95.68 219.94, 129.54 184.16 M56.33 292.77 C76.37 269.4, 98.41 245.05, 129.15 208.99 M56.33 292.77 C78.42 272.44, 95.91 250.92, 129.15 208.99 M76.93 293.45 C96.08 266.86, 113.05 244.38, 129.41 233.07 M76.93 293.45 C91.21 274.25, 108.75 256.39, 129.41 233.07 M11.89 278.98 C11.89 278.98, 11.89 278.98, 11.89 278.98 M11.89 278.98 C11.89 278.98, 11.89 278.98, 11.89 278.98 M30.69 274.12 C16.96 262.32, 4.95 251.42, 2.77 249.84 M30.69 274.12 C25.21 269.15, 16.99 262.24, 2.77 249.84 M54.77 273.85 C38.03 262.6, 25.96 253.67, 2.7 228.58 M54.77 273.85 C35.97 258.47, 17.78 242.25, 2.7 228.58 M79.61 274.24 C62.97 258.18, 45.94 245.11, 2.63 207.32 M79.61 274.24 C57.08 250.87, 32.88 232.51, 2.63 207.32 M106.71 276.6 C74.28 252.65, 41.32 219.92, 2.56 186.06 M106.71 276.6 C72.04 249.06, 39.21 216.4, 2.56 186.06 M119.47 266.49 C95.74 239.52, 68.23 218.66, 3.25 165.46 M119.47 266.49 C73.79 224.56, 29.94 186.3, 3.25 165.46 M123.93 249.17 C76.1 206.25, 33.18 167.45, 3.18 144.2 M123.93 249.17 C78.44 211.54, 34.35 172.2, 3.18 144.2 M123.86 227.91 C101.97 205.25, 70.07 179.13, 3.11 122.94 M123.86 227.91 C76.08 187.3, 29.34 147.6, 3.11 122.94 M123.79 206.65 C79.83 168.74, 27.01 125.23, 3.04 101.68 M123.79 206.65 C86.95 174.98, 49.31 142.3, 3.04 101.68 M123.72 185.39 C77.72 150.07, 40.81 111.83, 2.97 80.42 M123.72 185.39 C88.19 156.21, 53.25 123.81, 2.97 80.42 M123.65 164.13 C81.29 124.22, 36.96 88.93, 2.9 59.16 M123.65 164.13 C90.8 135.21, 61.7 109.45, 2.9 59.16 M123.58 142.87 C81.91 108.87, 33.32 63.8, 2.83 37.9 M123.58 142.87 C92.75 116.14, 62.92 86.6, 2.83 37.9 M123.52 121.61 C75.97 87, 30.28 41.91, 4.27 17.95 M123.52 121.61 C76.33 81.84, 32.37 39.44, 4.27 17.95 M123.45 100.35 C88.71 63.38, 49.5 30.89, 11.75 3.25 M123.45 100.35 C86.66 67.78, 52.75 37.75, 11.75 3.25 M123.38 79.09 C95.49 53.8, 65.04 27.92, 31.3 -0.95 M123.38 79.09 C89.82 51.43, 58.51 21.31, 31.3 -0.95 M123.31 57.83 C103.21 41.08, 80.99 16.91, 55.38 -1.22 M123.31 57.83 C106.97 42.75, 90.05 24.9, 55.38 -1.22 M123.24 36.57 C111.95 23.47, 105.25 20, 80.22 -0.83 M123.24 36.57 C110.94 24.9, 96.32 14.17, 80.22 -0.83" stroke="#868e96" stroke-width="2" fill="none"></path><path d="M30 0 C45.09 -2.3, 66.46 2.55, 90 0 M30 0 C49.32 0.92, 68.02 -1.79, 90 0 M90 0 C113.61 2.33, 123.76 7.16, 120 30 M90 0 C106.23 0.66, 119.52 13.56, 120 30 M120 30 C119.02 98.36, 119.54 157.26, 120 253.04 M120 30 C120.55 97.32, 119 163.59, 120 253.04 M120 253.04 C116.39 269.12, 106.27 284.83, 90 283.04 M120 253.04 C120.37 269.98, 109.51 282.47, 90 283.04 M90 283.04 C76.5 286.08, 63.82 283.92, 30 283.04 M90 283.04 C68.54 284.03, 50.19 283.83, 30 283.04 M30 283.04 C8.24 281.5, 1.52 271.53, 0 253.04 M30 283.04 C12.11 278.67, -3.48 272.76, 0 253.04 M0 253.04 C-5.27 208.11, -2.34 159.28, 0 30 M0 253.04 C0.35 199.96, 0.37 144.75, 0 30 M0 30 C-0.99 9.38, 11.71 3.55, 30 0 M0 30 C-3.02 5.61, 14 2.3, 30 0" stroke="#1e1e1e" stroke-width="4" fill="none"></path></g><g stroke-linecap="round" transform="translate(1112.7308649331926 392.94019218713265) rotate(46.8842985988338 30 30)"><path d="M43.14 1.21 C49.3 3.52, 56.33 9.79, 58.66 16.09 C60.98 22.38, 59.09 32.7, 57.08 39 C55.08 45.3, 51.9 50.39, 46.65 53.9 C41.41 57.42, 31.95 60.45, 25.62 60.09 C19.29 59.73, 12.67 56.27, 8.67 51.75 C4.67 47.24, 2 39.66, 1.63 33 C1.26 26.33, 2.97 16.98, 6.46 11.77 C9.95 6.56, 14.55 2.16, 22.56 1.72 C30.56 1.27, 48.9 5.59, 54.49 9.09 C60.08 12.6, 56.59 21.91, 56.09 22.75 M18.2 3.78 C23.25 1.5, 29.06 1.2, 35.04 2.88 C41.02 4.57, 49.66 8.72, 54.09 13.9 C58.52 19.08, 62.27 27.76, 61.61 33.96 C60.95 40.17, 54.62 46.41, 50.13 51.14 C45.64 55.88, 40.55 62.2, 34.69 62.36 C28.82 62.52, 20.04 56.16, 14.95 52.12 C9.85 48.07, 6.53 43.32, 4.11 38.09 C1.69 32.86, -1.79 26.21, 0.44 20.73 C2.67 15.26, 14.88 7.92, 17.49 5.24 C20.1 2.56, 16.23 4.65, 16.12 4.64" stroke="none" stroke-width="0" fill="#868e96"></path><path d="M52.43 9.59 C57.23 13.66, 61.33 21.72, 61.49 28.31 C61.64 34.9, 57.15 43.7, 53.37 49.13 C49.59 54.56, 45.06 59.84, 38.79 60.89 C32.52 61.95, 21.73 58.58, 15.77 55.49 C9.81 52.39, 5.23 47.93, 3.04 42.34 C0.84 36.75, 0.83 27.9, 2.61 21.94 C4.38 15.99, 8.89 9.95, 13.68 6.62 C18.47 3.28, 24.3 0.52, 31.34 1.93 C38.37 3.34, 51.27 11.02, 55.9 15.08 C60.53 19.14, 59.49 25.58, 59.13 26.3 M46.06 3.66 C50.76 7.03, 54.87 19.02, 56.62 25.48 C58.37 31.94, 59.22 37.07, 56.55 42.42 C53.87 47.77, 46.85 55.07, 40.56 57.58 C34.27 60.09, 24.83 59.3, 18.8 57.47 C12.76 55.64, 7.03 51.49, 4.34 46.59 C1.64 41.7, 1.54 34.43, 2.63 28.1 C3.72 21.78, 6.47 13.57, 10.88 8.63 C15.29 3.68, 23.05 -1.65, 29.09 -1.58 C35.13 -1.51, 43.67 7.24, 47.12 9.03 C50.56 10.83, 50 9.41, 49.75 9.21" stroke="#1e1e1e" stroke-width="4" fill="none"></path></g><g stroke-linecap="round" transform="translate(1186.9776603549758 102.51316753300671) rotate(329.8407845794689 54.28209276683219 128.03561673376225)"><path d="M6.57 7.03 C6.57 7.03, 6.57 7.03, 6.57 7.03 M6.57 7.03 C6.57 7.03, 6.57 7.03, 6.57 7.03 M9.46 28.1 C17.22 23.43, 21.11 14.93, 31.11 3.19 M9.46 28.1 C14.62 21.54, 20.31 14.51, 31.11 3.19 M9.07 52.93 C19.95 37.85, 36.59 27.47, 52.37 3.12 M9.07 52.93 C23.34 33.98, 41.7 13.48, 52.37 3.12 M9.34 77.02 C22.66 64.53, 35.17 45.05, 72.97 3.81 M9.34 77.02 C25.71 58.55, 38.15 41.56, 72.97 3.81 M8.95 101.85 C23.73 78.44, 49.71 57.65, 92.92 5.25 M8.95 101.85 C24.24 80.64, 44.65 60.24, 92.92 5.25 M9.21 125.93 C44.55 83.07, 79.61 43, 107.62 12.73 M9.21 125.93 C38.23 93.43, 66.57 64.24, 107.62 12.73 M8.82 150.77 C43.08 116.03, 69.8 78.57, 113.14 30.77 M8.82 150.77 C50.67 104.32, 91.46 58.01, 113.14 30.77 M9.09 174.85 C49.03 131.7, 82.28 87.87, 112.75 55.61 M9.09 174.85 C41.78 134.63, 77.28 94.38, 112.75 55.61 M8.7 199.69 C44.22 163.25, 74.72 125.67, 113.01 79.69 M8.7 199.69 C45.65 159.54, 81.13 116.57, 113.01 79.69 M2.4 231.32 C39.42 194.14, 71.85 151.82, 113.28 103.77 M2.4 231.32 C28.26 207.08, 50.25 179.33, 113.28 103.77 M9.23 247.85 C46.43 205.05, 80.4 168.41, 112.89 128.61 M9.23 247.85 C39.64 210.28, 72.05 177.19, 112.89 128.61 M22.62 256.84 C48.84 220.74, 81.8 183.7, 113.15 152.69 M22.62 256.84 C43.02 233.42, 64.7 211.65, 113.15 152.69 M43.88 256.77 C65.71 229.93, 80.55 211.72, 112.77 177.53 M43.88 256.77 C66.86 228, 88.16 201.1, 112.77 177.53 M65.8 255.95 C80.61 240.14, 94.1 226.17, 113.03 201.61 M65.8 255.95 C83.97 235.14, 102.43 214.58, 113.03 201.61 M87.06 255.88 C91.3 246.69, 96.23 245.89, 109.36 230.22 M87.06 255.88 C96.29 245.5, 103.87 237.14, 109.36 230.22 M10.23 251.93 C10.23 251.93, 10.23 251.93, 10.23 251.93 M10.23 251.93 C10.23 251.93, 10.23 251.93, 10.23 251.93 M38.08 254.94 C26.49 243.33, 12.85 240.46, 0.35 222.14 M38.08 254.94 C27.02 242.35, 12.05 230.95, 0.35 222.14 M61.41 254.02 C45.46 243.48, 30.72 230.83, 0.28 200.88 M61.41 254.02 C37.63 235.63, 17.11 213.74, 0.28 200.88 M85.49 253.75 C62.63 229.46, 33.25 207.87, 0.21 179.62 M85.49 253.75 C56.31 227.67, 28.11 203.88, 0.21 179.62 M102.03 246.93 C69.26 222.67, 34.84 197.76, 0.14 158.36 M102.03 246.93 C78.27 226.37, 57.45 207.62, 0.14 158.36 M108 230.92 C73.3 193.9, 35.54 160.45, 0.07 137.1 M108 230.92 C65.72 192.62, 25.37 158.87, 0.07 137.1 M108.68 210.31 C86.19 187.65, 55.18 164.82, 0.76 116.5 M108.68 210.31 C84.51 187.89, 57.84 164.17, 0.76 116.5 M108.61 189.05 C87.69 168.93, 64.41 146.65, 0.69 95.24 M108.61 189.05 C77.29 158.98, 46.47 134.47, 0.69 95.24 M108.54 167.79 C76.73 135.94, 37.26 102.03, 0.62 73.98 M108.54 167.79 C80.51 140.3, 47.75 115.91, 0.62 73.98 M108.47 146.53 C68.8 110.02, 27.83 75.08, 0.55 52.72 M108.47 146.53 C75.53 118.08, 39.1 86.24, 0.55 52.72 M108.41 125.27 C67.12 90.94, 27.02 54.97, 0.48 31.46 M108.41 125.27 C70.01 89.41, 28.45 56.15, 0.48 31.46 M108.34 104.01 C77.75 83.15, 49.51 53.35, 4.19 13.48 M108.34 104.01 C86.66 83.25, 63.71 64.94, 4.19 13.48 M109.02 83.41 C72.06 49.57, 35.65 18.84, 15.44 2.06 M109.02 83.41 C74.27 52.05, 38.21 20.09, 15.44 2.06 M108.95 62.15 C83.65 35.43, 48.89 8.83, 36.5 -0.83 M108.95 62.15 C80.19 35.4, 50.69 12.86, 36.5 -0.83 M108.88 40.89 C99.56 32.83, 89.21 20.96, 61.34 -0.44 M108.88 40.89 C99.76 31.17, 88.5 23.91, 61.34 -0.44 M108.06 18.97 C102.96 14.91, 91.5 6.04, 86.17 -0.06 M108.06 18.97 C100.23 9.89, 91.24 5.2, 86.17 -0.06" stroke="#868e96" stroke-width="2" fill="none"></path><path d="M27.14 0 C41.54 0.68, 57.35 0.54, 81.42 0 M27.14 0 C49.54 1.77, 70.21 -0.81, 81.42 0 M81.42 0 C96.24 0.58, 108.15 12.14, 108.56 27.14 M81.42 0 C99.17 1.76, 111.5 5.77, 108.56 27.14 M108.56 27.14 C106.42 105.47, 105.43 186.67, 108.56 228.93 M108.56 27.14 C105.76 99.56, 105.7 176.3, 108.56 228.93 M108.56 228.93 C108.89 244.36, 99.09 255.57, 81.42 256.07 M108.56 228.93 C106.16 245.59, 99.49 257.64, 81.42 256.07 M81.42 256.07 C62.58 255.98, 38.48 254.1, 27.14 256.07 M81.42 256.07 C59.85 256.07, 40.81 256.09, 27.14 256.07 M27.14 256.07 C10.88 252.26, -3.03 246.78, 0 228.93 M27.14 256.07 C4.73 258.83, -4.2 243.07, 0 228.93 M0 228.93 C-1.97 162.74, 0.65 97.4, 0 27.14 M0 228.93 C-2.31 152.34, -1.09 77.89, 0 27.14 M0 27.14 C-2.63 5.23, 12.52 2, 27.14 0 M0 27.14 C4.16 6.89, 8.35 -4.31, 27.14 0" stroke="#1e1e1e" stroke-width="4" fill="none"></path></g><g stroke-linecap="round" transform="translate(1255.7180791812534 274.9997873158086) rotate(329.8407845794689 27.141046383416096 27.141046383416096)"><path d="M3.53 11.7 C6.31 7.17, 14.92 1.18, 20.67 -0.26 C26.41 -1.7, 32.74 0.15, 38.02 3.06 C43.3 5.97, 49.53 11.76, 52.32 17.21 C55.11 22.66, 56.34 30.43, 54.76 35.76 C53.19 41.09, 48.03 46.01, 42.88 49.21 C37.73 52.41, 29.48 55.74, 23.88 54.98 C18.29 54.21, 13.6 48.65, 9.31 44.6 C5.02 40.55, -2.46 37.02, -1.85 30.66 C-1.23 24.3, 9.41 11.36, 13.01 6.42 C16.61 1.48, 19.98 0.77, 19.76 1.04 M32.24 2.35 C38.31 3.06, 46.41 7.94, 49.79 12.23 C53.18 16.52, 52.7 22.2, 52.54 28.06 C52.39 33.93, 52.13 43.59, 48.86 47.4 C45.59 51.21, 38.37 50.52, 32.91 50.93 C27.46 51.35, 21.69 51.95, 16.13 49.9 C10.57 47.86, 1.78 43.73, -0.45 38.67 C-2.68 33.62, 0.49 25.3, 2.76 19.58 C5.04 13.86, 8.48 7.67, 13.22 4.36 C17.96 1.05, 28.02 0.47, 31.18 -0.28 C34.35 -1.03, 32.11 -0.48, 32.22 -0.12" stroke="none" stroke-width="0" fill="#868e96"></path><path d="M35.33 3.45 C40.57 5.2, 48.97 11.01, 51.83 15.47 C54.68 19.94, 53.61 24.86, 52.45 30.24 C51.28 35.62, 48.82 43.76, 44.86 47.74 C40.89 51.72, 34.4 53.89, 28.66 54.13 C22.93 54.37, 15.39 52.61, 10.44 49.19 C5.5 45.77, 0.3 39.89, -1.02 33.63 C-2.34 27.38, -0.61 17.04, 2.53 11.67 C5.67 6.29, 9.52 0.05, 17.81 1.4 C26.11 2.76, 46.83 13.17, 52.3 19.8 C57.78 26.43, 50.75 41.52, 50.67 41.17 M4.84 10.03 C8.04 4.96, 13.99 2.14, 19.27 0.7 C24.56 -0.75, 31.18 -1.2, 36.55 1.38 C41.92 3.96, 48.28 10.38, 51.48 16.2 C54.69 22.02, 57.05 30.62, 55.77 36.3 C54.5 41.97, 48.93 47.51, 43.82 50.23 C38.7 52.96, 31.26 52.81, 25.07 52.63 C18.88 52.45, 10.61 52.56, 6.68 49.15 C2.76 45.74, 2.07 38.57, 1.51 32.19 C0.94 25.81, 2.5 14.36, 3.28 10.86 C4.06 7.36, 5.37 11.22, 6.19 11.19" stroke="#1e1e1e" stroke-width="4" fill="none"></path></g><g stroke-linecap="round" transform="translate(1108.0274979173712 80.93675719134444) rotate(236.51856405648897 40.56546225661208 95.68208802165123)"><path d="M4.74 5.45 C4.74 5.45, 4.74 5.45, 4.74 5.45 M4.74 5.45 C4.74 5.45, 4.74 5.45, 4.74 5.45 M1.07 34.06 C10.5 20.7, 22.61 8.01, 29.94 0.85 M1.07 34.06 C9.94 23.25, 18.87 12.83, 29.94 0.85 M1.34 58.14 C17.73 44.85, 28.54 22.86, 51.2 0.78 M1.34 58.14 C14.13 43.7, 30.9 25.27, 51.2 0.78 M0.95 82.98 C25.71 49.69, 58.5 21.88, 70.49 2.98 M0.95 82.98 C20.74 62.24, 42.1 36.24, 70.49 2.98 M1.22 107.06 C18.57 82.93, 44.16 52.4, 79.94 16.49 M1.22 107.06 C19.87 87.45, 37.16 65.39, 79.94 16.49 M1.48 131.14 C15.66 112.4, 32.62 96.92, 80.21 40.57 M1.48 131.14 C19.05 110.11, 35.87 88.39, 80.21 40.57 M1.75 155.22 C32.45 123.18, 52.03 96.21, 80.48 64.66 M1.75 155.22 C19.06 136.44, 35.81 118.03, 80.48 64.66 M1.36 180.06 C30.85 151.57, 54.46 117.06, 80.74 88.74 M1.36 180.06 C21.84 158.43, 39.94 136.28, 80.74 88.74 M13.43 190.55 C34.3 171.48, 47 148.56, 81.01 112.82 M13.43 190.55 C39.37 160.46, 63.69 133.69, 81.01 112.82 M34.69 190.49 C48.45 166.42, 68.42 151.92, 81.27 136.9 M34.69 190.49 C51.73 170.66, 68.02 153.59, 81.27 136.9 M55.95 190.42 C61.52 181.33, 70.01 174.26, 81.54 160.98 M55.95 190.42 C61.8 184.71, 68.77 176.26, 81.54 160.98 M5.04 186.26 C5.04 186.26, 5.04 186.26, 5.04 186.26 M5.04 186.26 C5.04 186.26, 5.04 186.26, 5.04 186.26 M33.65 189.93 C27.08 186.82, 19.96 175.45, 1.95 162.38 M33.65 189.93 C27.97 183.72, 20.56 177.94, 1.95 162.38 M57.73 189.67 C38.13 172.24, 21.32 159.7, 1.88 141.12 M57.73 189.67 C43.68 174.45, 26.38 161.37, 1.88 141.12 M76.53 184.81 C57.36 173.04, 42.5 152.04, 1.06 119.2 M76.53 184.81 C47.26 157.95, 21.46 134.87, 1.06 119.2 M81.74 168.14 C57.53 142.82, 34.2 118.59, 0.99 97.94 M81.74 168.14 C61.35 152.87, 42.02 133.35, 0.99 97.94 M81.67 146.88 C66.05 131.08, 47.16 119.37, 0.92 76.68 M81.67 146.88 C62.39 128.06, 43.71 113.29, 0.92 76.68 M80.85 124.96 C53.06 101.08, 20.34 70.82, 0.85 55.42 M80.85 124.96 C52.48 99.23, 26.43 77.02, 0.85 55.42 M80.78 103.7 C66.29 84.22, 48.13 70.68, 0.78 34.16 M80.78 103.7 C60.22 88.4, 41.3 68.76, 0.78 34.16 M80.71 82.44 C52.22 64.41, 31.04 38.67, 1.46 13.56 M80.71 82.44 C64.48 65.77, 45.93 54.21, 1.46 13.56 M80.64 61.18 C67.63 44.94, 45.49 29.37, 11.21 0.83 M80.64 61.18 C61.3 48.06, 44.86 32.7, 11.21 0.83 M80.57 39.92 C66.68 27.95, 56.09 21.5, 34.53 -0.1 M80.57 39.92 C62.61 28.06, 48.01 14.16, 34.53 -0.1 M80.5 18.66 C73.47 8.86, 64.44 3.6, 58.62 -0.36 M80.5 18.66 C76.22 13.29, 69.4 11.67, 58.62 -0.36" stroke="#868e96" stroke-width="2" fill="none"></path><path d="M20.28 0 C37.19 1.28, 45.51 3.33, 60.85 0 M20.28 0 C33.18 0.86, 49.15 2.12, 60.85 0 M60.85 0 C74.07 1.53, 83.68 3.91, 81.13 20.28 M60.85 0 C78.52 -2.58, 76.8 6.6, 81.13 20.28 M81.13 20.28 C82.9 62.5, 83.18 103.74, 81.13 171.08 M81.13 20.28 C78.48 49.41, 78.1 80.95, 81.13 171.08 M81.13 171.08 C79.04 183.35, 74.34 192.73, 60.85 191.36 M81.13 171.08 C84.63 188.68, 75.39 193.17, 60.85 191.36 M60.85 191.36 C52.26 192.72, 40.04 189.15, 20.28 191.36 M60.85 191.36 C51.16 189.15, 38.13 190.93, 20.28 191.36 M20.28 191.36 C3.01 193.77, -3.65 181.17, 0 171.08 M20.28 191.36 C8.16 191.32, -2.39 182.03, 0 171.08 M0 171.08 C2.61 125.89, 0.8 75.6, 0 20.28 M0 171.08 C-2.6 126.26, 0.45 86.25, 0 20.28 M0 20.28 C3.61 4.89, 6.16 -3.75, 20.28 0 M0 20.28 C2.66 7.62, 3.99 3.21, 20.28 0" stroke="#1e1e1e" stroke-width="4" fill="none"></path></g><g stroke-linecap="round" transform="translate(1069.1505042159104 189.7436546512372) rotate(236.51856405648897 20.282731128306068 20.282731128306068)"><path d="M22.79 0.37 C26.94 0.91, 32.6 4.07, 35.69 7.4 C38.78 10.73, 41.22 16.12, 41.34 20.34 C41.47 24.56, 39.31 29.34, 36.44 32.72 C33.57 36.09, 28.27 39.82, 24.1 40.6 C19.93 41.38, 15.37 39.43, 11.43 37.42 C7.48 35.4, 2.07 32.31, 0.43 28.52 C-1.21 24.73, 0.1 18.97, 1.57 14.68 C3.05 10.4, 5.66 5.09, 9.28 2.8 C12.89 0.51, 20.63 1.37, 23.27 0.96 C25.92 0.55, 24.94 0.12, 25.15 0.36 M25.66 1.29 C29.62 2.34, 35.47 7.42, 38.04 10.8 C40.6 14.18, 41.51 17.54, 41.06 21.59 C40.6 25.63, 38.79 31.67, 35.29 35.05 C31.78 38.42, 24.52 41.45, 20.03 41.83 C15.53 42.2, 11.64 40.1, 8.33 37.29 C5.01 34.48, 1.21 29.44, 0.14 24.96 C-0.94 20.49, -0.23 14.42, 1.87 10.41 C3.97 6.4, 8.61 2.6, 12.74 0.93 C16.86 -0.75, 24.38 0.31, 26.62 0.35 C28.87 0.39, 26.42 0.77, 26.21 1.18" stroke="none" stroke-width="0" fill="#868e96"></path><path d="M28.42 1.21 C32.18 2.61, 36.91 7.8, 38.94 11.89 C40.96 15.98, 41.71 21.45, 40.57 25.75 C39.42 30.06, 35.89 35.11, 32.05 37.71 C28.2 40.31, 21.98 42.07, 17.5 41.36 C13.02 40.65, 8.08 36.75, 5.16 33.46 C2.25 30.18, 0.29 25.71, 0.02 21.63 C-0.25 17.55, 0.87 12.53, 3.54 8.97 C6.2 5.41, 11.35 1.45, 16.01 0.29 C20.66 -0.88, 28.98 1.5, 31.48 2 C33.99 2.5, 31.26 2.85, 31.04 3.31 M12.86 0.65 C16.71 -0.83, 23.13 0, 27.51 1.85 C31.89 3.7, 36.98 7.94, 39.15 11.75 C41.32 15.56, 41.56 20.8, 40.53 24.71 C39.5 28.62, 36.51 32.39, 32.95 35.23 C29.38 38.08, 23.34 41.54, 19.13 41.78 C14.92 42.02, 10.93 39.83, 7.68 36.68 C4.42 33.54, 0.3 27.47, -0.41 22.91 C-1.11 18.34, 0.99 13.17, 3.45 9.3 C5.91 5.43, 12.8 1, 14.34 -0.31 C15.87 -1.63, 12.88 0.7, 12.65 1.41" stroke="#1e1e1e" stroke-width="4" fill="none"></path></g><g stroke-linecap="round" transform="translate(1179.920091973368 122.20033333364881) rotate(236.51856405648897 20.282731128306068 20.282731128306068)"><path d="M15.23 1.19 C19.38 -0.06, 25.7 0.71, 29.67 2.43 C33.63 4.15, 37.33 7.57, 39.01 11.49 C40.68 15.42, 40.75 21.86, 39.71 25.99 C38.67 30.12, 36.47 33.7, 32.78 36.26 C29.08 38.82, 21.92 41.48, 17.53 41.35 C13.14 41.23, 9.41 38.75, 6.42 35.51 C3.43 32.26, 0.22 26.25, -0.39 21.87 C-1.01 17.48, -0.37 12.93, 2.75 9.2 C5.87 5.47, 15.13 0.97, 18.33 -0.49 C21.53 -1.95, 21.84 -0.08, 21.94 0.45 M28.41 2.75 C32.6 3.75, 36.67 5.66, 38.86 9.24 C41.05 12.81, 42.72 19.46, 41.54 24.17 C40.37 28.89, 35.38 34.62, 31.81 37.52 C28.24 40.42, 24.35 41.84, 20.12 41.56 C15.89 41.28, 9.83 38.95, 6.43 35.82 C3.02 32.69, 0.26 27.24, -0.29 22.77 C-0.84 18.3, 0.75 12.74, 3.14 9 C5.54 5.27, 9.99 1.66, 14.08 0.37 C18.16 -0.92, 25.48 1.05, 27.66 1.27 C29.84 1.49, 27.38 1.42, 27.17 1.71" stroke="none" stroke-width="0" fill="#868e96"></path><path d="M29.61 2.09 C33.66 3.86, 37.97 8.14, 39.72 12.26 C41.46 16.38, 41.58 22.5, 40.07 26.82 C38.56 31.14, 34.44 36.07, 30.64 38.18 C26.84 40.29, 21.48 40.17, 17.28 39.48 C13.08 38.78, 8.36 36.95, 5.43 34.02 C2.51 31.1, -0.16 26.32, -0.28 21.94 C-0.39 17.57, 1.96 11.49, 4.74 7.77 C7.53 4.05, 11.72 0.18, 16.44 -0.38 C21.16 -0.93, 29.52 2.72, 33.06 4.45 C36.6 6.17, 37.86 9.59, 37.68 9.98 M19 0.55 C23.43 0.33, 29.91 2.7, 33.46 5.29 C37.02 7.88, 39.52 12.24, 40.33 16.11 C41.14 19.98, 40.45 24.51, 38.32 28.51 C36.2 32.51, 31.42 38.04, 27.57 40.09 C23.72 42.14, 19.37 42.34, 15.23 40.81 C11.09 39.28, 5.15 34.82, 2.73 30.92 C0.3 27.03, -0.01 21.91, 0.7 17.45 C1.41 12.99, 4.12 7.08, 6.99 4.16 C9.85 1.25, 16.1 0.42, 17.88 -0.05 C19.65 -0.52, 17.65 1.21, 17.63 1.35" stroke="#1e1e1e" stroke-width="4" fill="none"></path></g><g transform="translate(1064.9747062414463 236.53386216668378) rotate(0 -45.40467049089153 22.379553227738143)" stroke="none"><path d="M1.33 -0.04 C1.9 3.12, -1.72 7.25, -0.55 15.2 C0.62 23.15, 7.87 41.8, 8.33 47.66 C8.79 53.51, 6.36 49.14, 2.19 50.33 C-1.98 51.52, -5.89 52.9, -16.69 54.8 C-27.49 56.7, -58.83 62.33, -62.62 61.73 C-66.42 61.13, -44.17 55.24, -39.45 51.21 C-34.73 47.19, -38.05 39.37, -34.29 37.58 C-30.52 35.79, -19.43 44.51, -16.86 40.49 C-14.29 36.47, -16.69 18.23, -18.86 13.45 C-21.04 8.67, -21.29 13.29, -29.92 11.83 C-38.55 10.37, -63.79 2.28, -70.64 4.69 C-77.5 7.1, -71.81 17.93, -71.07 26.29 C-70.32 34.64, -66.37 53.18, -66.17 54.81 C-65.98 56.44, -66.43 43.6, -69.89 36.05 C-73.34 28.5, -83.67 15.02, -86.89 9.49 C-90.1 3.97, -87.55 8.13, -89.16 2.89 C-90.77 -2.36, -99.34 -18.65, -96.56 -22 C-93.78 -25.34, -78.92 -19.34, -72.49 -17.2 C-66.06 -15.07, -65.28 -11.41, -57.97 -9.2 C-50.66 -7, -37.01 -4.91, -28.64 -3.95 C-20.28 -3, -12.11 -3.43, -7.79 -3.45 C-3.47 -3.48, -3.84 -4.83, -2.72 -4.1 C-1.6 -3.37, -1.56 0.57, -1.06 0.95 C-0.56 1.32, 0.19 -1.6, 0.28 -1.85" stroke="none" stroke-width="0" fill="#868e96" fill-rule="evenodd"></path><path fill="#1e1e1e" d="M 2.61,0 Q 2.61,0 2.64,0.98 2.67,1.97 2.92,3.37 3.16,4.76 3.46,6.66 3.76,8.56 3.97,10.67 4.18,12.78 4.29,14.05 4.40,15.32 4.57,16.45 4.74,17.58 4.92,18.97 5.09,20.36 5.29,21.52 5.49,22.69 5.99,24.97 6.48,27.26 7.04,28.92 7.59,30.58 7.85,31.64 8.11,32.71 8.48,34.69 8.86,36.67 9.21,37.85 9.56,39.04 9.83,40.19 10.10,41.35 10.31,42.58 10.53,43.81 10.76,44.87 11.00,45.94 11.02,46.34 11.04,46.74 10.97,47.14 10.90,47.53 10.73,47.90 10.57,48.27 10.32,48.59 10.07,48.90 9.75,49.15 9.44,49.40 9.07,49.57 8.70,49.73 8.31,49.80 7.91,49.88 7.51,49.85 7.11,49.83 6.72,49.71 6.34,49.59 5.99,49.38 5.65,49.17 5.36,48.89 5.08,48.60 4.87,48.26 4.66,47.91 4.54,47.53 4.42,47.14 7.71,46.52 11.00,45.90 11.02,46.30 11.05,46.70 10.97,47.10 10.90,47.49 10.74,47.86 10.57,48.22 10.32,48.54 10.08,48.85 9.76,49.10 9.45,49.35 9.08,49.51 8.72,49.68 8.32,49.75 7.93,49.82 7.53,49.80 7.13,49.77 6.75,49.65 6.36,49.53 6.02,49.33 5.68,49.12 5.39,48.84 5.11,48.55 4.90,48.21 4.70,47.87 4.58,47.48 4.46,47.10 5.86,48.46 7.27,49.81 6.07,49.86 4.87,49.90 3.31,50.01 1.75,50.12 -0.14,50.66 -2.05,51.19 -3.33,51.63 -4.61,52.07 -5.94,52.44 -7.27,52.81 -8.54,53.23 -9.82,53.66 -11.36,54.10 -12.90,54.53 -14.42,54.94 -15.95,55.34 -17.41,55.66 -18.88,55.97 -20.25,56.23 -21.62,56.49 -22.67,56.82 -23.72,57.15 -24.74,57.45 -25.76,57.76 -27.17,58.02 -28.57,58.28 -30.65,58.75 -32.72,59.22 -33.79,59.45 -34.86,59.68 -36.66,60.14 -38.45,60.60 -40.06,60.91 -41.67,61.22 -43.47,61.64 -45.27,62.05 -46.31,62.26 -47.35,62.47 -48.42,62.69 -49.48,62.90 -51.26,63.33 -53.04,63.76 -54.37,64.21 -55.69,64.66 -57.03,64.87 -58.36,65.09 -59.49,65.38 -60.62,65.68 -60.84,65.69 -61.06,65.71 -61.45,65.68 -61.85,65.65 -62.23,65.53 -62.62,65.40 -62.95,65.19 -63.29,64.98 -63.57,64.69 -63.85,64.41 -64.06,64.06 -64.26,63.72 -64.37,63.33 -64.49,62.95 -64.51,62.55 -64.53,62.15 -64.45,61.76 -64.37,61.37 -64.20,61.00 -64.03,60.64 -63.78,60.33 -63.53,60.02 -63.21,59.77 -62.90,59.53 -62.53,59.37 -62.16,59.21 -61.77,59.14 -61.37,59.08 -62.43,59.72 -63.49,60.36 -62.60,59.44 -61.71,58.52 -60.68,57.66 -59.64,56.79 -58.19,55.71 -56.73,54.62 -55.23,53.56 -53.73,52.51 -52.38,51.64 -51.04,50.77 -50.25,50.06 -49.45,49.35 -48.44,48.52 -47.43,47.70 -46.39,47.04 -45.35,46.38 -44.17,45.38 -43.00,44.38 -42.03,43.83 -41.06,43.29 -39.49,42.51 -37.92,41.73 -36.76,41.07 -35.60,40.42 -34.11,39.51 -32.63,38.60 -31.12,38.04 -29.62,37.48 -28.59,37.21 -27.55,36.94 -26.39,36.68 -25.22,36.43 -24.03,35.77 -22.83,35.12 -23.60,36.07 -24.37,37.02 -24.59,35.87 -24.80,34.73 -25.09,33.49 -25.39,32.24 -25.51,30.64 -25.63,29.04 -25.62,27.53 -25.61,26.03 -25.81,24.78 -26.01,23.54 -26.03,22.34 -26.06,21.14 -26.25,19.62 -26.44,18.11 -25.34,18.64 -24.23,19.17 -22.79,18.69 -21.34,18.21 -22.27,18.81 -23.20,19.41 -24.32,19.53 -25.44,19.65 -26.54,19.67 -27.65,19.68 -29.06,19.49 -30.48,19.29 -31.88,18.66 -33.29,18.04 -34.60,17.61 -35.91,17.19 -37.48,16.73 -39.04,16.27 -40.81,15.80 -42.58,15.32 -43.99,15.07 -45.40,14.81 -46.93,14.59 -48.46,14.37 -50.24,13.94 -52.03,13.51 -53.45,13.23 -54.87,12.95 -55.98,12.55 -57.09,12.15 -58.72,11.73 -60.36,11.30 -61.52,10.87 -62.68,10.44 -63.76,10.22 -64.83,9.99 -66.72,9.41 -68.60,8.83 -69.74,8.39 -70.88,7.96 -72.21,7.54 -73.53,7.12 -71.79,6.68 -70.05,6.23 -69.79,5.20 -69.53,4.17 -69.16,5.32 -68.80,6.46 -68.30,7.81 -67.79,9.16 -67.38,10.86 -66.96,12.55 -66.83,13.66 -66.69,14.76 -66.41,16.07 -66.13,17.38 -65.73,19.22 -65.34,21.07 -65.24,22.32 -65.14,23.57 -65.03,24.67 -64.92,25.77 -64.88,27.15 -64.84,28.53 -64.74,29.70 -64.64,30.88 -64.37,32.90 -64.11,34.93 -63.94,36.22 -63.77,37.51 -63.68,38.63 -63.60,39.75 -63.37,41.16 -63.14,42.57 -63.07,43.70 -62.99,44.83 -62.95,46.09 -62.91,47.34 -62.87,48.47 -62.82,49.60 -62.79,50.67 -62.76,51.74 -62.81,52.16 -62.86,52.58 -63.01,52.97 -63.16,53.37 -63.41,53.72 -63.65,54.07 -63.96,54.35 -64.28,54.63 -64.65,54.82 -65.03,55.02 -65.44,55.12 -65.85,55.22 -66.27,55.22 -66.70,55.22 -67.11,55.12 -67.52,55.02 -67.89,54.82 -68.27,54.63 -68.58,54.35 -68.90,54.07 -69.14,53.72 -69.38,53.37 -69.53,52.97 -69.68,52.58 -69.73,52.16 -69.78,51.74 -70.20,50.75 -70.61,49.77 -71.12,47.57 -71.63,45.37 -71.92,43.80 -72.22,42.22 -72.61,40.64 -73.01,39.06 -73.50,37.53 -74.00,36.01 -74.62,34.39 -75.25,32.77 -76.05,31.11 -76.84,29.46 -77.59,27.63 -78.34,25.81 -79.02,24.53 -79.71,23.24 -80.48,21.66 -81.25,20.07 -81.96,18.83 -82.67,17.60 -83.28,16.39 -83.90,15.18 -84.42,14.22 -84.94,13.27 -85.45,12.20 -85.96,11.13 -87.02,9.43 -88.09,7.74 -89.00,6.41 -89.91,5.09 -90.81,3.82 -91.72,2.56 -92.58,1.33 -93.45,0.10 -94.18,-1.21 -94.92,-2.53 -95.57,-3.81 -96.22,-5.08 -96.95,-6.44 -97.69,-7.79 -98.17,-8.89 -98.66,-9.99 -99.31,-11.24 -99.96,-12.49 -100.59,-13.66 -101.21,-14.82 -101.23,-16.71 -101.24,-18.60 -99.94,-19.81 -98.64,-21.02 -96.68,-20.91 -94.73,-20.79 -92.58,-20.72 -90.44,-20.64 -88.44,-20.43 -86.45,-20.22 -83.50,-19.76 -80.56,-19.30 -77.60,-18.78 -74.65,-18.26 -72.37,-17.73 -70.09,-17.20 -68.18,-16.86 -66.27,-16.52 -63.97,-16.07 -61.66,-15.62 -59.71,-15.31 -57.76,-15.01 -55.50,-14.45 -53.25,-13.90 -51.48,-13.60 -49.70,-13.30 -48.01,-12.95 -46.33,-12.60 -44.80,-12.37 -43.28,-12.14 -41.89,-11.82 -40.50,-11.49 -39.27,-11.28 -38.03,-11.08 -36.96,-10.90 -35.89,-10.71 -34.83,-10.55 -33.78,-10.38 -32.12,-10.02 -30.45,-9.66 -28.69,-9.53 -26.92,-9.39 -25.64,-9.22 -24.36,-9.04 -22.86,-9.07 -21.36,-9.11 -20.17,-8.94 -18.98,-8.78 -17.66,-8.84 -16.34,-8.91 -15.13,-8.94 -13.92,-8.97 -12.73,-8.80 -11.54,-8.63 -9.65,-8.33 -7.77,-8.02 -6.40,-7.81 -5.04,-7.60 -3.27,-7.19 -1.50,-6.78 -0.56,-6.16 0.38,-5.55 1.33,-4.33 2.28,-3.11 2.35,-1.94 2.42,-0.76 2.79,0.05 3.15,0.88 3.10,1.32 3.04,1.76 2.89,2.18 2.73,2.60 2.47,2.97 2.22,3.33 1.89,3.63 1.55,3.93 1.16,4.13 0.76,4.34 0.33,4.45 -0.09,4.56 -0.54,4.56 -0.99,4.56 -1.42,4.45 -1.85,4.34 -2.25,4.14 -2.65,3.93 -2.98,3.63 -3.31,3.34 -3.57,2.97 -3.82,2.60 -3.98,2.19 -4.14,1.77 -4.19,1.33 -4.25,0.88 -3.58,-0.54 -2.90,-1.97 -2.39,-2.27 -1.87,-2.57 -1.28,-2.69 -0.69,-2.81 -0.10,-2.74 0.49,-2.67 1.03,-2.41 1.57,-2.15 2.00,-1.73 2.43,-1.31 2.70,-0.78 2.97,-0.25 3.06,0.34 3.15,0.93 3.05,1.52 2.94,2.11 2.65,2.64 2.36,3.16 1.92,3.57 1.48,3.97 0.94,4.22 0.39,4.46 -0.20,4.52 -0.80,4.58 -1.38,4.44 -1.96,4.30 -2.47,3.99 -2.98,3.67 -3.36,3.21 -3.74,2.75 -3.96,2.19 -4.17,1.63 -4.20,1.03 -4.22,0.43 -4.05,-0.14 -3.88,-0.71 -3.54,-1.20 -3.20,-1.70 -2.72,-2.05 -2.23,-2.41 -1.66,-2.59 -1.09,-2.77 -0.49,-2.77 0.10,-2.76 0.66,-2.56 1.23,-2.36 1.70,-1.99 2.17,-1.62 2.50,-1.12 2.83,-0.62 2.98,-0.04 3.13,0.53 3.09,1.13 3.05,1.73 2.82,2.28 2.59,2.83 2.87,1.85 3.15,0.88 3.10,1.32 3.04,1.76 2.89,2.18 2.73,2.60 2.48,2.97 2.22,3.33 1.89,3.63 1.55,3.93 1.16,4.13 0.76,4.34 0.33,4.45 -0.09,4.56 -0.54,4.56 -0.99,4.56 -1.42,4.45 -1.85,4.34 -2.25,4.14 -2.65,3.93 -2.98,3.63 -3.31,3.34 -3.57,2.97 -3.82,2.60 -3.98,2.19 -4.14,1.77 -4.19,1.33 -4.25,0.88 -4.19,0.28 -4.12,-0.31 -5.20,-0.53 -6.28,-0.76 -7.75,-1.04 -9.22,-1.33 -10.58,-1.54 -11.95,-1.75 -13.37,-1.99 -14.80,-2.22 -15.87,-2.26 -16.95,-2.30 -18.05,-2.36 -19.16,-2.42 -20.30,-2.69 -21.43,-2.95 -22.61,-3.02 -23.79,-3.09 -25.26,-3.30 -26.74,-3.50 -27.85,-3.86 -28.97,-4.21 -30.44,-4.48 -31.92,-4.74 -33.34,-5.26 -34.76,-5.78 -36.85,-6.37 -38.93,-6.96 -40.27,-7.31 -41.61,-7.67 -42.78,-8.09 -43.95,-8.50 -45.55,-8.85 -47.14,-9.20 -48.72,-9.63 -50.30,-10.05 -52.12,-10.42 -53.95,-10.78 -56.09,-11.21 -58.24,-11.64 -60.23,-11.90 -62.22,-12.16 -64.53,-12.45 -66.84,-12.74 -68.82,-12.98 -70.79,-13.23 -72.99,-13.50 -75.19,-13.76 -78.10,-13.95 -81.02,-14.13 -83.74,-14.17 -86.46,-14.21 -88.48,-14.01 -90.49,-13.81 -92.72,-13.78 -94.96,-13.75 -96.10,-13.95 -97.25,-14.15 -96.52,-15.13 -95.79,-16.11 -95.96,-17.63 -96.13,-19.16 -95.23,-17.76 -94.34,-16.36 -93.71,-15.01 -93.08,-13.66 -92.63,-12.60 -92.17,-11.54 -91.61,-10.20 -91.04,-8.86 -90.54,-7.76 -90.05,-6.66 -89.49,-5.38 -88.93,-4.09 -88.41,-3.01 -87.88,-1.94 -86.97,-0.61 -86.07,0.72 -85.22,2.15 -84.38,3.58 -83.50,5.26 -82.62,6.95 -82.01,8.05 -81.41,9.15 -81.01,10.16 -80.62,11.17 -80.17,12.19 -79.73,13.21 -79.25,14.33 -78.77,15.45 -78.07,16.78 -77.36,18.10 -76.55,19.64 -75.74,21.18 -75.02,22.59 -74.31,23.99 -73.52,25.59 -72.73,27.18 -71.65,28.92 -70.57,30.65 -69.70,32.34 -68.83,34.03 -68.12,35.63 -67.42,37.24 -66.74,38.95 -66.06,40.67 -65.57,42.18 -65.09,43.69 -64.69,44.94 -64.30,46.20 -63.78,47.84 -63.26,49.48 -63.01,50.61 -62.76,51.74 -62.81,52.16 -62.86,52.58 -63.01,52.97 -63.16,53.37 -63.40,53.72 -63.65,54.07 -63.96,54.35 -64.28,54.63 -64.65,54.82 -65.03,55.02 -65.44,55.12 -65.85,55.22 -66.27,55.22 -66.70,55.22 -67.11,55.12 -67.52,55.02 -67.89,54.82 -68.27,54.63 -68.58,54.35 -68.90,54.07 -69.14,53.72 -69.38,53.37 -69.53,52.97 -69.68,52.58 -69.73,52.16 -69.78,51.74 -69.77,51.28 -69.76,50.81 -69.72,49.55 -69.67,48.29 -69.64,47.19 -69.60,46.08 -69.60,44.62 -69.59,43.16 -69.79,41.66 -69.98,40.17 -70.17,38.52 -70.36,36.88 -70.44,35.38 -70.51,33.89 -70.73,32.76 -70.94,31.63 -71.14,30.26 -71.35,28.89 -71.45,27.79 -71.55,26.68 -71.84,24.62 -72.14,22.56 -72.57,20.88 -73.01,19.20 -73.43,17.38 -73.86,15.56 -74.15,14.26 -74.44,12.95 -74.76,11.87 -75.09,10.78 -75.44,9.69 -75.79,8.60 -76.28,6.86 -76.78,5.11 -76.38,3.57 -75.99,2.02 -73.98,1.15 -71.96,0.28 -70.83,0.75 -69.70,1.22 -68.42,1.68 -67.13,2.14 -66.09,2.43 -65.04,2.71 -63.90,3.05 -62.76,3.39 -61.57,3.67 -60.38,3.95 -59.33,4.36 -58.29,4.77 -57.20,5.12 -56.12,5.46 -55.05,5.85 -53.98,6.24 -52.22,6.56 -50.45,6.88 -48.83,7.24 -47.21,7.59 -45.50,7.82 -43.80,8.04 -42.36,8.29 -40.91,8.54 -39.15,8.94 -37.40,9.33 -35.67,9.76 -33.93,10.18 -32.02,10.75 -30.11,11.31 -28.67,11.73 -27.22,12.16 -26.16,12.35 -25.10,12.55 -23.01,12.59 -20.92,12.63 -20.02,14.66 -19.11,16.69 -19.08,17.95 -19.05,19.21 -18.87,20.43 -18.69,21.66 -18.65,22.87 -18.62,24.07 -18.43,25.70 -18.24,27.32 -18.17,28.89 -18.10,30.46 -17.87,32.34 -17.63,34.21 -17.29,35.91 -16.95,37.61 -17.21,38.70 -17.46,39.80 -19.12,40.82 -20.79,41.84 -21.71,42.41 -22.64,42.98 -23.87,43.00 -25.10,43.03 -26.50,43.70 -27.90,44.38 -29.11,44.88 -30.31,45.37 -31.29,45.95 -32.26,46.52 -33.55,47.25 -34.84,47.99 -35.91,48.49 -36.98,48.98 -38.69,49.98 -40.40,50.99 -41.95,52.19 -43.50,53.39 -44.74,54.36 -45.99,55.33 -47.35,56.31 -48.70,57.30 -50.02,58.13 -51.33,58.97 -52.18,59.68 -53.03,60.38 -54.34,61.35 -55.66,62.31 -57.24,63.13 -58.82,63.94 -59.94,64.82 -61.06,65.71 -61.45,65.68 -61.85,65.65 -62.23,65.53 -62.61,65.40 -62.95,65.19 -63.29,64.98 -63.57,64.69 -63.85,64.41 -64.06,64.06 -64.26,63.72 -64.37,63.33 -64.49,62.95 -64.51,62.55 -64.53,62.15 -64.45,61.76 -64.37,61.37 -64.20,61.00 -64.03,60.64 -63.78,60.33 -63.53,60.02 -63.22,59.77 -62.90,59.53 -62.53,59.37 -62.16,59.21 -61.77,59.14 -61.37,59.08 -60.97,59.15 -60.57,59.22 -58.98,58.93 -57.38,58.65 -55.93,58.23 -54.47,57.82 -52.57,57.39 -50.67,56.97 -48.60,56.54 -46.52,56.11 -44.68,55.73 -42.84,55.35 -41.32,55.15 -39.80,54.95 -37.89,54.55 -35.99,54.14 -34.92,53.94 -33.85,53.74 -32.80,53.53 -31.75,53.33 -30.66,53.11 -29.58,52.90 -27.43,52.43 -25.28,51.97 -23.97,51.58 -22.65,51.20 -21.37,50.94 -20.09,50.68 -18.81,50.37 -17.54,50.06 -16.10,49.57 -14.66,49.08 -13.30,48.58 -11.94,48.08 -10.48,47.47 -9.02,46.86 -7.99,46.53 -6.95,46.20 -5.57,45.58 -4.20,44.96 -3.01,44.52 -1.83,44.08 -0.53,43.70 0.76,43.32 2.82,43.19 4.88,43.05 6.29,43.11 7.71,43.16 9.35,44.53 11.00,45.90 11.02,46.30 11.05,46.70 10.97,47.10 10.90,47.49 10.74,47.86 10.57,48.22 10.32,48.54 10.08,48.85 9.76,49.10 9.45,49.35 9.08,49.51 8.72,49.68 8.32,49.75 7.93,49.82 7.53,49.80 7.13,49.77 6.75,49.65 6.36,49.53 6.02,49.33 5.68,49.12 5.39,48.84 5.11,48.55 4.90,48.21 4.70,47.87 4.58,47.48 4.46,47.10 7.73,46.52 11.00,45.94 11.02,46.34 11.04,46.74 10.97,47.14 10.90,47.53 10.73,47.90 10.57,48.27 10.32,48.59 10.07,48.90 9.75,49.15 9.44,49.40 9.07,49.57 8.70,49.73 8.31,49.80 7.91,49.88 7.51,49.85 7.11,49.83 6.72,49.71 6.34,49.59 5.99,49.38 5.65,49.17 5.36,48.89 5.08,48.60 4.87,48.26 4.66,47.91 4.54,47.53 4.42,47.14 4.42,46.80 4.41,46.46 4.24,44.80 4.06,43.15 3.85,41.92 3.63,40.69 3.27,39.00 2.90,37.31 2.64,35.67 2.39,34.03 1.96,32.24 1.53,30.44 1.09,28.34 0.65,26.24 0.28,24.96 -0.09,23.67 -0.31,22.43 -0.53,21.19 -0.76,19.84 -0.99,18.48 -1.20,17.22 -1.40,15.97 -1.65,13.55 -1.90,11.13 -2.05,9.52 -2.21,7.91 -2.33,6.55 -2.46,5.18 -2.57,3.58 -2.67,1.98 -2.64,0.99 -2.61,0 -2.57,-0.31 -2.53,-0.62 -2.42,-0.91 -2.31,-1.21 -2.13,-1.47 -1.95,-1.73 -1.72,-1.94 -1.48,-2.15 -1.20,-2.29 -0.92,-2.44 -0.62,-2.51 -0.31,-2.59 0.00,-2.59 0.31,-2.59 0.62,-2.51 0.92,-2.44 1.20,-2.29 1.48,-2.15 1.72,-1.94 1.95,-1.73 2.13,-1.47 2.31,-1.21 2.42,-0.91 2.53,-0.62 2.57,-0.31 2.61,0.00 2.61,0.00 L 2.61,0 Z"></path></g><g stroke-linecap="round" transform="translate(50 630) rotate(0 410 50)"><path d="M6 6.54 C6 6.54, 6 6.54, 6 6.54 M6 6.54 C6 6.54, 6 6.54, 6 6.54 M6.26 30.62 C11.51 23.67, 17.18 16.61, 29.23 4.21 M6.26 30.62 C15.14 21.01, 21.85 11.51, 29.23 4.21 M6.53 54.7 C23.37 38.52, 36.64 23.19, 50.49 4.14 M6.53 54.7 C18.61 41.26, 32.06 25.85, 50.49 4.14 M5.49 80.29 C21.35 64.97, 32 48.25, 71.75 4.07 M5.49 80.29 C31.18 51.58, 55.38 21.94, 71.75 4.07 M11.66 97.58 C44.24 61.11, 74.8 24.59, 93.01 4 M11.66 97.58 C41.85 63.6, 72.31 28.93, 93.01 4 M25.7 105.82 C61.48 63.9, 96.28 26.35, 114.27 3.93 M25.7 105.82 C45.05 81.16, 65.91 57.89, 114.27 3.93 M46.96 105.75 C79.17 69.57, 112.19 32.71, 135.53 3.86 M46.96 105.75 C67.11 82.26, 85.94 59.43, 135.53 3.86 M68.22 105.68 C96.11 73.16, 123.76 44.07, 156.79 3.79 M68.22 105.68 C99.11 69.58, 128.92 36.58, 156.79 3.79 M89.48 105.61 C107.81 82.63, 129.18 61.03, 178.05 3.72 M89.48 105.61 C112.68 78.17, 138.37 51.01, 178.05 3.72 M110.74 105.54 C137.03 74.49, 166.05 41.45, 199.31 3.65 M110.74 105.54 C138.37 73.65, 166.59 39.79, 199.31 3.65 M132 105.47 C163.34 71.89, 191.96 34.54, 219.91 4.34 M132 105.47 C161.82 71.83, 191.07 38.28, 219.91 4.34 M153.26 105.4 C186.71 68.02, 217.67 31.02, 241.17 4.27 M153.26 105.4 C172.07 83.77, 191.14 60.42, 241.17 4.27 M174.52 105.33 C195.86 82.73, 215.07 60.58, 262.43 4.2 M174.52 105.33 C200.47 72.52, 227.67 41.95, 262.43 4.2 M195.78 105.26 C221.15 76.25, 243.26 48.76, 283.69 4.13 M195.78 105.26 C215.79 81.59, 237.46 56.19, 283.69 4.13 M216.39 105.95 C247.25 67.72, 281.66 31.32, 304.95 4.06 M216.39 105.95 C245.84 73.18, 274.98 40, 304.95 4.06 M237.65 105.88 C259.08 82.48, 281.58 55.14, 326.21 4 M237.65 105.88 C259.87 81.02, 280.63 58.33, 326.21 4 M258.91 105.81 C277.56 81.75, 296.78 59.89, 347.47 3.93 M258.91 105.81 C294.46 65.71, 328.5 25.28, 347.47 3.93 M280.17 105.74 C309.86 70.7, 341.65 37.39, 368.73 3.86 M280.17 105.74 C300.09 83.84, 318.71 62.43, 368.73 3.86 M301.43 105.67 C324.41 80.88, 349.01 52.89, 389.99 3.79 M301.43 105.67 C330.46 72.06, 360.91 37.7, 389.99 3.79 M322.69 105.6 C340.65 83.77, 355.98 65.55, 411.25 3.72 M322.69 105.6 C343.9 82.47, 362.98 58.41, 411.25 3.72 M343.95 105.54 C365.32 80.19, 389.61 54.27, 431.86 4.4 M343.95 105.54 C367.44 79.18, 391.16 53.4, 431.86 4.4 M365.21 105.47 C392.2 73.2, 422.68 38.73, 453.12 4.34 M365.21 105.47 C391.27 74.85, 417.09 44.56, 453.12 4.34 M386.47 105.4 C408.66 79.42, 428 58.24, 474.38 4.27 M386.47 105.4 C414.14 73.18, 442.46 42.46, 474.38 4.27 M407.07 106.08 C429.58 80.11, 449.11 58.24, 495.64 4.2 M407.07 106.08 C431.6 77.62, 456.27 49.58, 495.64 4.2 M428.33 106.01 C460.19 73.45, 488.52 39.04, 516.9 4.13 M428.33 106.01 C456.5 74.46, 483.11 43.38, 516.9 4.13 M449.59 105.95 C471.89 80, 495.67 53.33, 538.16 4.06 M449.59 105.95 C482.75 67.86, 516.68 29.64, 538.16 4.06 M470.85 105.88 C498.5 74.03, 521.75 43.45, 559.42 3.99 M470.85 105.88 C496.22 78.91, 518.93 51.77, 559.42 3.99 M492.11 105.81 C522.35 72.59, 549.03 40.89, 580.68 3.92 M492.11 105.81 C517.3 79.83, 539.89 52.59, 580.68 3.92 M513.37 105.74 C530.93 83.29, 551.13 60.14, 601.94 3.85 M513.37 105.74 C541.16 73.17, 570.09 40.38, 601.94 3.85 M534.63 105.67 C559.35 78.34, 582.39 52.9, 622.54 4.54 M534.63 105.67 C567.13 70.36, 597.41 34.25, 622.54 4.54 M555.89 105.6 C575.7 85.03, 591.71 62.41, 643.8 4.47 M555.89 105.6 C574.77 85.76, 591.18 64.33, 643.8 4.47 M577.15 105.53 C597.76 82.06, 622.07 56.04, 665.06 4.4 M577.15 105.53 C605.07 72.97, 632.65 42.05, 665.06 4.4 M598.41 105.46 C622.13 76.92, 650.26 49.8, 686.32 4.33 M598.41 105.46 C627.36 72.47, 654.65 37.65, 686.32 4.33 M619.02 106.15 C646.29 71.32, 675.61 42.07, 707.58 4.26 M619.02 106.15 C650.06 70.02, 681.88 34.23, 707.58 4.26 M640.28 106.08 C665.7 75.53, 695 43.85, 728.84 4.19 M640.28 106.08 C670.57 70.77, 702.08 36.85, 728.84 4.19 M661.54 106.01 C690.29 71.57, 717.83 41.07, 750.1 4.12 M661.54 106.01 C694.35 69.17, 726.05 31.66, 750.1 4.12 M682.8 105.94 C703.76 79.46, 725.37 57.18, 771.36 4.06 M682.8 105.94 C716 67.48, 749.2 29.04, 771.36 4.06 M704.06 105.87 C735.8 70.76, 763.95 34.2, 792.63 3.99 M704.06 105.87 C734.73 71.16, 765.16 37.72, 792.63 3.99 M725.32 105.8 C754.14 72.87, 780.28 42.02, 812.57 5.43 M725.32 105.8 C756.61 68.76, 788.28 34.12, 812.57 5.43 M746.58 105.73 C767.02 82.22, 786.78 60.11, 822.68 18.19 M746.58 105.73 C774.88 74.39, 802.27 41.23, 822.68 18.19 M767.84 105.67 C780.28 90.72, 796.71 75.89, 830.16 33.97 M767.84 105.67 C790.11 81.28, 810.75 57.77, 830.16 33.97 M789.1 105.6 C800.16 95.83, 808.41 84.8, 829.77 58.8 M789.1 105.6 C799.92 91.99, 811.41 78.82, 829.77 58.8 M6.08 93.6 C6.08 93.6, 6.08 93.6, 6.08 93.6 M6.08 93.6 C6.08 93.6, 6.08 93.6, 6.08 93.6 M36.2 98.59 C20.94 88.13, 8.45 75.86, 0.73 67.75 M36.2 98.59 C27.69 91.03, 16.83 81.7, 0.73 67.75 M61.04 98.98 C38.27 79.8, 17.05 62.23, 0.66 46.49 M61.04 98.98 C47.38 86.83, 34.98 75.76, 0.66 46.49 M85.12 98.71 C56.42 74.18, 29.91 52.85, -0.16 24.58 M85.12 98.71 C52.99 71.93, 20.93 44.79, -0.16 24.58 M109.96 99.1 C74.33 68.88, 37.21 39.01, 5.05 7.91 M109.96 99.1 C72.54 68.3, 36.69 36.21, 5.05 7.91 M134.04 98.83 C106.62 75.56, 76.97 50.07, 20.83 0.42 M134.04 98.83 C90.16 60.87, 47.58 22.87, 20.83 0.42 M158.87 99.22 C119.73 67.4, 79.12 30.56, 44.16 -0.5 M158.87 99.22 C114.37 61.47, 70.72 24.41, 44.16 -0.5 M182.96 98.96 C147.12 67.97, 113.99 39.19, 68.24 -0.76 M182.96 98.96 C148.17 67.28, 113.89 38.21, 68.24 -0.76 M207.04 98.69 C168.64 64.08, 125.68 27.49, 93.08 -0.37 M207.04 98.69 C181.29 74.06, 153.04 50.86, 93.08 -0.37 M231.87 99.08 C186.36 62.13, 145.44 21.71, 117.16 -0.64 M231.87 99.08 C194.72 66, 155.7 30.67, 117.16 -0.64 M255.96 98.81 C228.45 73.66, 199.95 48.59, 141.24 -0.91 M255.96 98.81 C215.24 64.55, 176.22 29.09, 141.24 -0.91 M280.79 99.2 C242.2 67.91, 205.34 33.99, 166.08 -0.52 M280.79 99.2 C241.38 64.9, 202.44 29.79, 166.08 -0.52 M304.87 98.94 C280.64 78.01, 256.75 56, 190.16 -0.78 M304.87 98.94 C281.87 78.99, 258.58 57.99, 190.16 -0.78 M329.71 99.33 C294.04 67.28, 256.58 35.71, 214.99 -0.39 M329.71 99.33 C285.92 61.77, 243.86 24.72, 214.99 -0.39 M353.79 99.06 C316.15 68.6, 281.26 34.3, 239.08 -0.66 M353.79 99.06 C311.51 62.81, 269.02 25.71, 239.08 -0.66 M377.87 98.79 C341.27 67.53, 305.48 36.88, 263.91 -0.27 M377.87 98.79 C341.6 66.3, 303.5 33.89, 263.91 -0.27 M402.71 99.18 C358.43 60.12, 316.96 23.31, 287.99 -0.54 M402.71 99.18 C371.13 71.86, 339.74 44.75, 287.99 -0.54 M426.79 98.92 C399.61 76.72, 374.58 54.25, 312.08 -0.8 M426.79 98.92 C392.56 67.86, 358.42 37.68, 312.08 -0.8 M451.63 99.31 C425.71 77.13, 397.2 54.6, 336.91 -0.41 M451.63 99.31 C423.28 74.68, 396.08 50.75, 336.91 -0.41 M475.71 99.04 C443.6 71.01, 409.09 42.89, 360.99 -0.68 M475.71 99.04 C446.21 74.06, 418.39 51.17, 360.99 -0.68 M500.55 99.43 C462.75 66.82, 427.57 38.35, 385.83 -0.29 M500.55 99.43 C473.2 74.87, 444.77 50.46, 385.83 -0.29 M524.63 99.16 C488.5 71, 456.68 40.21, 409.91 -0.56 M524.63 99.16 C489.3 68.54, 453.16 37.82, 409.91 -0.56 M548.71 98.9 C514.07 70, 484.3 43.99, 433.99 -0.82 M548.71 98.9 C510.7 65.27, 470.47 30.05, 433.99 -0.82 M573.55 99.29 C529.5 58.98, 483.57 22.38, 458.83 -0.43 M573.55 99.29 C541.78 72.07, 510.94 45.47, 458.83 -0.43 M597.63 99.02 C558.98 66.32, 520.11 31.79, 482.91 -0.7 M597.63 99.02 C568.58 71.76, 537.48 44.78, 482.91 -0.7 M622.46 99.41 C584.68 69.21, 549.61 36.36, 507.75 -0.31 M622.46 99.41 C584.29 65.99, 545.21 31.82, 507.75 -0.31 M646.55 99.15 C605.19 60.99, 565.12 25.35, 531.83 -0.58 M646.55 99.15 C618.83 74.83, 592.77 52.84, 531.83 -0.58 M671.38 99.54 C638.84 69.47, 604.83 43.57, 556.67 -0.19 M671.38 99.54 C630.43 63.95, 589.42 27.91, 556.67 -0.19 M695.46 99.27 C651.54 61.25, 612.17 26.14, 580.75 -0.45 M695.46 99.27 C661.9 70.45, 627.56 41.99, 580.75 -0.45 M719.55 99 C680.03 65.87, 642.25 30.52, 604.83 -0.72 M719.55 99 C680.62 64.06, 639.43 28.49, 604.83 -0.72 M744.38 99.39 C718.61 73.3, 689.88 52.43, 629.67 -0.33 M744.38 99.39 C717.54 76.38, 691.52 53.86, 629.67 -0.33 M768.46 99.13 C743.03 76.83, 720.88 56.86, 653.75 -0.59 M768.46 99.13 C743.59 76.77, 717.44 55.72, 653.75 -0.59 M793.3 99.52 C751.46 59.7, 705.07 22.85, 678.58 -0.2 M793.3 99.52 C764.36 73.96, 738.17 49.94, 678.58 -0.2 M812.1 94.66 C788.44 72.79, 762.75 50.27, 702.67 -0.47 M812.1 94.66 C786.43 71.89, 759.94 49.53, 702.67 -0.47 M820.33 80.61 C794.77 59.85, 767.91 35.55, 727.5 -0.08 M820.33 80.61 C795.98 60.45, 772.71 40.46, 727.5 -0.08 M820.26 59.35 C804.47 46.89, 789.52 30.94, 751.58 -0.35 M820.26 59.35 C794.75 38.4, 770.4 16.09, 751.58 -0.35 M820.19 38.09 C804.01 24.83, 790.99 12.35, 775.67 -0.61 M820.19 38.09 C810.7 30.01, 802.06 22, 775.67 -0.61 M818.62 15.52 C814.2 10.05, 809.53 6.99, 801.26 0.43 M818.62 15.52 C813.81 11.48, 807.88 7.13, 801.26 0.43" stroke="#ced4da" stroke-width="2" fill="none"></path><path d="M25 0 C328.47 2.44, 632.34 2.47, 795 0 M25 0 C285.85 1.97, 545.61 2.18, 795 0 M795 0 C811.44 -0.62, 821.14 9.69, 820 25 M795 0 C810.91 1.71, 817.92 6.08, 820 25 M820 25 C818.89 35.12, 819.97 44.62, 820 75 M820 25 C820.76 39.32, 820.22 52.27, 820 75 M820 75 C819.83 90.61, 810.56 101.62, 795 100 M820 75 C821.04 93.31, 810.65 99.11, 795 100 M795 100 C533.94 100.8, 274.35 100.66, 25 100 M795 100 C517.86 97.35, 240.27 97.13, 25 100 M25 100 C8.6 100.34, 1 93.23, 0 75 M25 100 C9.52 100.76, -0.57 91.31, 0 75 M0 75 C-2.35 59.6, 0.56 42.53, 0 25 M0 75 C0.65 62.53, -0.53 50.38, 0 25 M0 25 C0.05 9.58, 9.44 1.53, 25 0 M0 25 C-1.33 8.8, 9.2 1.97, 25 0" stroke="#1e1e1e" stroke-width="4" fill="none"></path></g><g stroke-linecap="round" transform="translate(110 650) rotate(46.8842985988338 30 30)"><path d="M44.45 4.73 C50.14 7.27, 57.88 12, 59.87 18.16 C61.85 24.33, 58.65 35.15, 56.38 41.73 C54.11 48.31, 51.62 54.72, 46.25 57.65 C40.87 60.57, 30.95 60.46, 24.13 59.29 C17.31 58.13, 9.29 55.69, 5.33 50.65 C1.37 45.62, -0.11 35.69, 0.37 29.08 C0.86 22.46, 4 15.56, 8.23 10.98 C12.46 6.4, 16.88 -1.41, 25.76 1.61 C34.65 4.64, 58.42 19.95, 61.53 29.12 C64.63 38.29, 44.85 56.28, 44.39 56.62 M2.84 16.24 C5.53 11.34, 15.84 5.5, 22.21 3.34 C28.58 1.17, 35.47 1.21, 41.06 3.25 C46.65 5.29, 52.67 10.21, 55.73 15.6 C58.79 20.99, 60.64 29.41, 59.4 35.59 C58.15 41.77, 53.49 48.67, 48.28 52.67 C43.06 56.66, 34.72 59.73, 28.09 59.57 C21.46 59.41, 13.39 56.13, 8.51 51.71 C3.63 47.29, -0.87 39.01, -1.2 33.05 C-1.53 27.1, 5.07 18.73, 6.55 15.99 C8.03 13.25, 7.55 17.04, 7.69 16.61" stroke="none" stroke-width="0" fill="#ffffff"></path><path d="M26.34 1.89 C32.09 0.52, 40.95 0.35, 46.4 3.76 C51.84 7.18, 57.34 15.64, 59.01 22.38 C60.67 29.11, 58.96 38.44, 56.41 44.16 C53.86 49.88, 49.19 54.54, 43.69 56.69 C38.18 58.84, 30.1 59.02, 23.36 57.07 C16.62 55.13, 6.97 50.01, 3.25 45.03 C-0.47 40.04, 0.3 33.29, 1.04 27.17 C1.79 21.05, -0.51 11.63, 7.72 8.31 C15.96 4.99, 41.94 3.49, 50.44 7.24 C58.95 10.98, 58.95 29.97, 58.76 30.76 M53 9.45 C56.77 14.15, 58.16 25.81, 58.34 32.86 C58.52 39.9, 58.2 47.48, 54.06 51.74 C49.91 56.01, 39.85 57.97, 33.47 58.45 C27.09 58.93, 20.85 58.2, 15.78 54.63 C10.71 51.06, 5.72 42.92, 3.04 37.01 C0.36 31.09, -1.9 24.39, -0.32 19.16 C1.27 13.93, 7.02 9.15, 12.55 5.61 C18.09 2.08, 25.95 -2.95, 32.89 -2.05 C39.82 -1.15, 51.11 9.05, 54.16 11.01 C57.22 12.98, 51.7 9.34, 51.22 9.74" stroke="#1e1e1e" stroke-width="4" fill="none"></path></g><g stroke-linecap="round" transform="translate(210 649.9999999999995) rotate(46.8842985988338 30 30)"><path d="M24.43 -0.4 C29.99 -2.12, 35.5 1.41, 41.16 4.73 C46.82 8.05, 55.58 14, 58.37 19.52 C61.16 25.05, 60.16 31.8, 57.93 37.88 C55.69 43.96, 50.08 52.51, 44.98 55.97 C39.88 59.43, 33.18 59.48, 27.33 58.64 C21.48 57.8, 14.21 55.18, 9.88 50.95 C5.55 46.73, 1.78 39.9, 1.33 33.29 C0.89 26.68, -0.33 15.92, 7.2 11.28 C14.74 6.64, 37.65 3.11, 46.55 5.47 C55.45 7.83, 61.27 24.84, 60.6 25.45 M25.23 2.58 C31.37 0.75, 38.56 1.96, 43.86 4.61 C49.16 7.25, 54.55 12.78, 57 18.44 C59.45 24.1, 60.43 32.58, 58.54 38.58 C56.66 44.58, 51.29 50.96, 45.7 54.41 C40.11 57.86, 31.55 60.08, 24.99 59.25 C18.44 58.43, 10.75 54.36, 6.35 49.48 C1.94 44.59, -1.76 35.95, -1.42 29.95 C-1.08 23.95, 3.71 17.93, 8.38 13.47 C13.04 9, 23.91 5.53, 26.58 3.16 C29.25 0.78, 24.7 -0.99, 24.39 -0.76" stroke="none" stroke-width="0" fill="#ffffff"></path><path d="M46.74 4.01 C52.1 7, 57.52 16.03, 59.11 22.78 C60.69 29.54, 58.86 38.86, 56.22 44.54 C53.59 50.22, 48.85 54.79, 43.3 56.86 C37.76 58.93, 29.67 58.99, 22.96 56.96 C16.24 54.93, 6.66 49.71, 3.02 44.68 C-0.63 39.65, 0.25 32.86, 1.09 26.75 C1.92 20.64, 3.55 12.64, 8.03 8.02 C12.5 3.39, 19.54 -3.38, 27.93 -0.99 C36.32 1.4, 53.45 14.94, 58.39 22.35 C63.32 29.75, 57.63 43.26, 57.55 43.46 M39.82 4.71 C45.87 7.32, 54.93 13.18, 57.96 18.28 C60.98 23.38, 59.39 29.59, 57.97 35.32 C56.54 41.05, 54.06 49.03, 49.41 52.66 C44.76 56.29, 37.06 57.24, 30.07 57.12 C23.08 57, 12.91 55.5, 7.47 51.94 C2.03 48.37, -1.64 42.5, -2.56 35.73 C-3.48 28.96, -2.12 17.04, 1.95 11.31 C6.03 5.58, 15.56 3.15, 21.88 1.36 C28.21 -0.42, 36.62 0.27, 39.91 0.6 C43.2 0.93, 41.32 2.21, 41.64 3.35" stroke="#1e1e1e" stroke-width="4" fill="none"></path></g><g stroke-linecap="round" transform="translate(310 649.9999999999995) rotate(46.8842985988338 30 30)"><path d="M40.53 4.44 C46.12 7.14, 55.15 13.43, 58.08 18.89 C61.01 24.35, 60.2 31.09, 58.11 37.21 C56.02 43.32, 50.56 51.99, 45.55 55.58 C40.54 59.16, 33.89 59.39, 28.02 58.7 C22.16 58.01, 14.81 55.57, 10.37 51.45 C5.93 47.33, 1.98 40.58, 1.39 33.99 C0.8 27.39, 3.3 17.21, 6.8 11.85 C10.3 6.5, 14.52 2.02, 22.39 1.85 C30.25 1.68, 48.42 7.38, 54 10.83 C59.58 14.28, 56.6 22.57, 55.88 22.54 M51.89 11.06 C55.88 14.93, 58.73 22.45, 59.01 28.54 C59.29 34.63, 57.41 42.68, 53.59 47.61 C49.77 52.54, 42.49 56.75, 36.1 58.14 C29.71 59.53, 21.09 58.85, 15.24 55.94 C9.39 53.03, 3.52 46.7, 1 40.67 C-1.51 34.64, -2.37 25.44, 0.15 19.77 C2.67 14.1, 10 9.48, 16.12 6.68 C22.24 3.87, 30.8 2.67, 36.88 2.93 C42.96 3.2, 50.06 6.82, 52.58 8.26 C55.1 9.7, 52.79 11.33, 51.99 11.57" stroke="none" stroke-width="0" fill="#ffffff"></path><path d="M53.47 11.17 C57.64 16.23, 59.32 25.67, 59.37 32.02 C59.42 38.38, 57.68 44.99, 53.76 49.3 C49.83 53.61, 42.74 57.15, 35.83 57.88 C28.92 58.61, 17.85 56.71, 12.28 53.66 C6.71 50.61, 4.33 45.41, 2.41 39.59 C0.5 33.76, -1.39 24.88, 0.79 18.7 C2.98 12.53, 9.74 5.56, 15.52 2.54 C21.3 -0.47, 28.38 -2.14, 35.45 0.61 C42.52 3.35, 53.75 14.97, 57.95 19.01 C62.15 23.05, 61.07 24.92, 60.64 24.85 M16.2 6.25 C21.33 2.23, 27.41 -1.27, 33.71 -0.74 C40.02 -0.2, 49.4 4.83, 54.01 9.45 C58.62 14.06, 61.9 20.38, 61.37 26.97 C60.84 33.55, 55.62 43.24, 50.82 48.96 C46.02 54.69, 38.97 60.56, 32.57 61.32 C26.17 62.07, 17.38 56.98, 12.41 53.49 C7.45 50, 4.82 46.27, 2.78 40.4 C0.74 34.52, -1.89 24.19, 0.19 18.23 C2.27 12.26, 12.5 6.49, 15.25 4.62 C17.99 2.74, 16.22 6.46, 16.66 6.97" stroke="#1e1e1e" stroke-width="4" fill="none"></path></g><g stroke-linecap="round" transform="translate(410 649.9999999999995) rotate(46.8842985988338 30 30)"><path d="M12.69 8.04 C17.46 3.67, 24.37 -0.43, 30.31 -0.28 C36.26 -0.12, 43.38 4.81, 48.35 9 C53.31 13.18, 58.71 18.63, 60.11 24.82 C61.5 31, 60.03 40.3, 56.73 46.12 C53.43 51.93, 46.43 57.96, 40.33 59.7 C34.23 61.44, 26.19 59.09, 20.1 56.58 C14.02 54.07, 6.77 50.01, 3.82 44.66 C0.88 39.31, -3.74 31.14, 2.41 24.48 C8.57 17.82, 31.31 4.21, 40.74 4.72 C50.16 5.23, 58.59 27.31, 58.99 27.56 M47.67 5.76 C52.82 8.92, 58.07 16.66, 59.55 22.87 C61.03 29.08, 59.72 37.25, 56.57 43.02 C53.42 48.8, 46.82 54.99, 40.64 57.52 C34.45 60.05, 25.72 60.28, 19.45 58.2 C13.18 56.13, 5.91 50.11, 3.01 45.06 C0.11 40, 0.48 33.7, 2.06 27.89 C3.64 22.07, 7.94 15.11, 12.47 10.14 C17.01 5.18, 23.24 -1.46, 29.25 -1.9 C35.27 -2.34, 45.82 6.43, 48.57 7.5 C51.33 8.57, 45.62 4.2, 45.77 4.5" stroke="none" stroke-width="0" fill="#ffffff"></path><path d="M5.14 13.47 C8.66 8.24, 17.55 2.26, 24.14 0.22 C30.73 -1.81, 39.46 -1.37, 44.68 1.25 C49.91 3.88, 52.96 9.77, 55.47 15.97 C57.97 22.18, 61.4 32.02, 59.72 38.48 C58.04 44.93, 50.93 51.3, 45.4 54.69 C39.88 58.07, 32.84 59.43, 26.57 58.79 C20.29 58.14, 12.06 55, 7.76 50.79 C3.46 46.59, -0.48 41.12, 0.75 33.57 C1.98 26.01, 11.27 10.87, 15.13 5.48 C18.99 0.1, 24.12 1.09, 23.93 1.24 M50.43 8.18 C54.88 11.8, 60.24 20.89, 61.08 27.02 C61.93 33.15, 59.89 39.65, 55.5 44.98 C51.11 50.31, 41.69 56.7, 34.74 58.98 C27.8 61.26, 19.64 61.92, 13.81 58.66 C7.98 55.39, 1.7 45.59, -0.25 39.4 C-2.19 33.2, 0.12 27.48, 2.14 21.46 C4.16 15.45, 6.6 6.77, 11.87 3.31 C17.14 -0.15, 26.89 -0.69, 33.78 0.7 C40.68 2.1, 50.08 10.01, 53.26 11.69 C56.44 13.36, 53.6 10.86, 52.86 10.74" stroke="#1e1e1e" stroke-width="4" fill="none"></path></g><g stroke-linecap="round" transform="translate(510 649.9999999999995) rotate(46.8842985988338 30 30)"><path d="M51.97 10.32 C55.73 14.63, 57.88 24.76, 58.13 31.04 C58.37 37.31, 57 43.23, 53.43 47.99 C49.86 52.74, 42.9 58.05, 36.72 59.57 C30.54 61.1, 21.91 60.54, 16.35 57.15 C10.8 53.75, 5.74 45.3, 3.38 39.21 C1.02 33.12, -0.03 26.31, 2.17 20.6 C4.38 14.9, 11.46 8.04, 16.61 4.99 C21.77 1.94, 26.86 1.27, 33.1 2.32 C39.34 3.37, 50.08 9.07, 54.07 11.31 C58.06 13.54, 57.14 15.3, 57.02 15.74 M38.83 0.16 C44.98 1.47, 51.86 6.8, 55.29 12.3 C58.72 17.8, 60.38 26.61, 59.41 33.16 C58.44 39.72, 54.34 47.26, 49.48 51.61 C44.62 55.97, 36.2 58.53, 30.25 59.31 C24.29 60.1, 18.28 59.63, 13.76 56.32 C9.25 53, 4.91 46.4, 3.16 39.44 C1.42 32.48, 0.8 20.56, 3.29 14.56 C5.78 8.55, 12.62 6.05, 18.1 3.42 C23.58 0.79, 32.31 -1.01, 36.16 -1.2 C40 -1.38, 40.78 0.96, 41.16 2.3" stroke="none" stroke-width="0" fill="#ffffff"></path><path d="M27.96 -0.46 C34.34 -2.03, 43.25 -0.17, 48.05 3.18 C52.86 6.53, 55.08 13.13, 56.81 19.62 C58.53 26.11, 60.86 35.96, 58.4 42.13 C55.94 48.3, 47.99 53.97, 42.05 56.64 C36.1 59.3, 28.87 59.59, 22.74 58.12 C16.61 56.66, 8.92 52.57, 5.26 47.83 C1.59 43.09, -0.06 36.02, 0.74 29.68 C1.53 23.34, 3.99 14.66, 10.02 9.79 C16.04 4.92, 31.28 1.52, 36.88 0.46 C42.48 -0.6, 43.57 2.75, 43.61 3.42 M50.76 6.16 C56.08 9.58, 60.54 15.86, 60.99 22.36 C61.45 28.87, 57.48 38.89, 53.49 45.19 C49.5 51.49, 43.19 58.43, 37.04 60.14 C30.89 61.85, 21.98 58.05, 16.59 55.46 C11.21 52.87, 7.65 50.06, 4.72 44.59 C1.78 39.13, -2.15 28.91, -1.03 22.68 C0.1 16.46, 5.96 10.64, 11.45 7.25 C16.95 3.86, 25.32 2.18, 31.94 2.35 C38.56 2.52, 48.4 7.46, 51.16 8.29 C53.91 9.11, 48.85 6.64, 48.48 7.29" stroke="#1e1e1e" stroke-width="4" fill="none"></path></g><g stroke-linecap="round" transform="translate(610 649.9999999999995) rotate(46.8842985988338 30 30)"><path d="M51.69 12.59 C55.99 17, 60.01 23.48, 60.36 29.72 C60.7 35.96, 57.9 44.85, 53.77 50.03 C49.63 55.21, 41.88 60.08, 35.54 60.8 C29.21 61.52, 21.34 57.79, 15.73 54.35 C10.13 50.9, 3.89 45.9, 1.91 40.14 C-0.07 34.38, 1.87 25.57, 3.86 19.79 C5.84 14, 8.51 8.87, 13.82 5.45 C19.13 2.04, 28.07 -6.64, 35.73 -0.69 C43.4 5.26, 59.61 31.3, 59.81 41.16 C60 51.01, 37.55 58.85, 36.9 58.45 M22.8 -0.34 C28.53 -2.1, 37.06 -0.37, 42.64 2.59 C48.23 5.55, 53.82 11.6, 56.29 17.41 C58.76 23.23, 58.73 30.88, 57.45 37.49 C56.17 44.1, 53.3 52.93, 48.62 57.09 C43.95 61.24, 36.05 63.79, 29.38 62.44 C22.7 61.1, 13.48 53.89, 8.58 49.02 C3.69 44.16, 0.91 39.73, 0 33.23 C-0.91 26.72, -1.08 15.31, 3.13 10 C7.34 4.69, 21.9 2.34, 25.27 1.37 C28.64 0.41, 23.74 3.81, 23.35 4.22" stroke="none" stroke-width="0" fill="#ffffff"></path><path d="M47.69 2.95 C52.49 5.72, 54.87 12.74, 56.68 19.21 C58.49 25.67, 60.95 35.53, 58.57 41.74 C56.2 47.94, 48.33 53.7, 42.43 56.44 C36.53 59.19, 29.31 59.6, 23.16 58.22 C17.01 56.84, 9.25 52.86, 5.51 48.17 C1.77 43.49, 0.01 36.46, 0.71 30.11 C1.42 23.77, 5.35 15.11, 9.72 10.1 C14.1 5.1, 19.73 -0.1, 26.97 0.08 C34.2 0.25, 47.62 7.3, 53.13 11.14 C58.63 14.99, 59.98 22.84, 59.99 23.17 M20.05 -0.64 C24.99 -3.14, 31.49 -1.49, 36.91 1.25 C42.33 4, 49.23 10.78, 52.58 15.83 C55.92 20.87, 57.24 25.44, 56.98 31.51 C56.73 37.57, 55.62 47.74, 51.05 52.2 C46.49 56.67, 36.09 57.97, 29.58 58.3 C23.07 58.63, 16.57 57.48, 12 54.21 C7.44 50.94, 3.35 44.88, 2.18 38.67 C1.02 32.47, 2.39 23.14, 5.01 16.98 C7.64 10.83, 15.4 3.68, 17.93 1.76 C20.46 -0.17, 20.2 5.37, 20.18 5.43" stroke="#1e1e1e" stroke-width="4" fill="none"></path></g><g stroke-linecap="round" transform="translate(710 649.9999999999995) rotate(46.8842985988338 30 30)"><path d="M25.87 -0.87 C32.4 -2.35, 41.38 0.7, 47.01 4.43 C52.65 8.17, 57.6 15.63, 59.68 21.52 C61.76 27.41, 61.95 33.85, 59.47 39.77 C56.98 45.7, 50.39 53.66, 44.78 57.09 C39.17 60.51, 32.5 61.4, 25.8 60.32 C19.1 59.25, 8.93 56.01, 4.57 50.61 C0.21 45.22, -1.15 34.59, -0.38 27.96 C0.39 21.33, 2.61 15.41, 9.18 10.85 C15.76 6.29, 32.47 1.35, 39.1 0.6 C45.72 -0.14, 49.36 5.79, 48.92 6.36 M18.66 1.69 C23.99 -0.73, 32.58 -0.7, 38.5 1.31 C44.42 3.31, 50.35 7.81, 54.17 13.71 C57.99 19.62, 61.72 29.87, 61.4 36.77 C61.07 43.66, 57.32 51.53, 52.22 55.08 C47.13 58.64, 37.65 58.18, 30.81 58.08 C23.98 57.97, 16.67 58.55, 11.21 54.45 C5.76 50.35, -1.1 39.86, -1.92 33.47 C-2.74 27.08, 2.72 20.88, 6.31 16.1 C9.91 11.32, 17.54 7.03, 19.63 4.79 C21.72 2.55, 19.1 2.91, 18.85 2.67" stroke="none" stroke-width="0" fill="#ffffff"></path><path d="M18.38 -0.27 C23.94 -2.27, 35.65 -0.41, 41.75 2.19 C47.85 4.8, 52.05 9.91, 54.96 15.34 C57.86 20.77, 60.31 28.45, 59.18 34.79 C58.05 41.13, 53.02 48.92, 48.17 53.37 C43.31 57.83, 36.07 61.57, 30.05 61.51 C24.02 61.45, 16.83 57.53, 12.01 53.01 C7.19 48.5, 2.59 41.03, 1.14 34.42 C-0.32 27.81, -5.03 17.75, 3.28 13.35 C11.6 8.95, 41.49 4.59, 51.01 8.01 C60.54 11.43, 61.16 33.52, 60.44 33.88 M16.63 1.94 C21.46 0.1, 30.57 1.7, 36.6 3.32 C42.62 4.94, 48.78 6.49, 52.78 11.65 C56.78 16.82, 61.33 27.78, 60.6 34.3 C59.87 40.81, 53.28 46.35, 48.4 50.72 C43.52 55.08, 37.21 59.63, 31.3 60.5 C25.38 61.36, 17.77 59.8, 12.92 55.89 C8.06 51.99, 3.85 43.84, 2.17 37.08 C0.49 30.31, -0.16 20.7, 2.84 15.32 C5.84 9.94, 17.8 7.37, 20.18 4.79 C22.57 2.2, 16.75 -0.45, 17.15 -0.17" stroke="#1e1e1e" stroke-width="4" fill="none"></path></g><g stroke-linecap="round" transform="translate(650 450) rotate(0 90 90)"><path d="M7.86 8.16 C7.86 8.16, 7.86 8.16, 7.86 8.16 M7.86 8.16 C7.86 8.16, 7.86 8.16, 7.86 8.16 M0.91 40.54 C8.65 33.44, 15.68 22.8, 36.34 -0.21 M0.91 40.54 C9.78 30.55, 16.85 21.08, 36.34 -0.21 M1.18 64.62 C12.23 49.09, 28.59 34.82, 57.6 -0.28 M1.18 64.62 C12.03 50.5, 25.26 36.82, 57.6 -0.28 M0.79 89.46 C28.53 56.54, 55.98 25.09, 78.2 0.41 M0.79 89.46 C23.02 64.2, 45.02 40.6, 78.2 0.41 M1.05 113.54 C32.81 79.35, 60.75 43.85, 99.46 0.34 M1.05 113.54 C39.8 69.74, 78.05 26.05, 99.46 0.34 M0.66 138.38 C45.6 88.06, 87.14 37.47, 120.72 0.27 M0.66 138.38 C39.84 91.92, 80.55 45.39, 120.72 0.27 M2.24 160.95 C47.14 111.37, 89.97 61, 141.98 0.2 M2.24 160.95 C52.21 104.54, 101.77 46.59, 141.98 0.2 M11.69 174.47 C59.68 121.73, 105.56 66.8, 161.28 2.39 M11.69 174.47 C43.94 140.26, 74.15 104.46, 161.28 2.39 M28.36 179.68 C78.45 122.27, 126.89 67.59, 174.66 11.38 M28.36 179.68 C71.39 129.13, 115.05 80.71, 174.66 11.38 M48.97 180.37 C89.57 130.1, 133.74 79.73, 179.52 30.18 M48.97 180.37 C78.29 147.13, 108.12 114.41, 179.52 30.18 M70.23 180.3 C103.48 140.91, 133.68 105.61, 180.44 53.51 M70.23 180.3 C106.98 136.5, 142.96 93.9, 180.44 53.51 M91.49 180.23 C118.25 149.84, 144.56 120.35, 180.05 78.34 M91.49 180.23 C126 141.16, 160.47 101.85, 180.05 78.34 M112.75 180.16 C129.7 158.47, 147.33 140.63, 180.32 102.42 M112.75 180.16 C136.93 152.13, 160.26 125.46, 180.32 102.42 M134.01 180.09 C144.66 168.18, 155.34 155.37, 180.59 126.51 M134.01 180.09 C146.28 166.14, 156.49 153.71, 180.59 126.51 M155.92 179.27 C163.49 170.28, 169.41 160.18, 179.54 152.1 M155.92 179.27 C165.47 169.74, 173.39 158.28, 179.54 152.1 M8.09 172.08 C8.09 172.08, 8.09 172.08, 8.09 172.08 M8.09 172.08 C8.09 172.08, 8.09 172.08, 8.09 172.08 M41.23 179.69 C30.22 167.73, 16.09 157.42, 0.47 144.26 M41.23 179.69 C26.96 167.13, 13.51 155.8, 0.47 144.26 M66.07 180.08 C45.43 163.64, 23.67 147.23, 0.41 123 M66.07 180.08 C51.2 166.82, 37.55 154.63, 0.41 123 M90.15 179.81 C60.21 150.62, 28.87 123.07, 0.34 101.74 M90.15 179.81 C55.19 148.8, 21.25 119.95, 0.34 101.74 M114.23 179.54 C89.29 156.34, 60.12 133.05, 0.27 80.48 M114.23 179.54 C87.57 155.64, 59.66 131.11, 0.27 80.48 M139.07 179.93 C111.18 154.76, 82.34 128.66, 0.2 59.22 M139.07 179.93 C98.92 143.18, 58.78 109.43, 0.2 59.22 M160.88 177.7 C109.2 130.52, 53.92 82.64, 0.88 38.61 M160.88 177.7 C116.68 137.86, 70.21 99.26, 0.88 38.61 M174.4 168.25 C109.16 110.47, 42.96 53.21, 2.32 18.67 M174.4 168.25 C120.96 121.95, 66.06 74.15, 2.32 18.67 M179.61 151.58 C116.26 97.37, 53.5 42.34, 12.07 5.93 M179.61 151.58 C118.68 97.42, 56.4 44.52, 12.07 5.93 M180.3 130.97 C137.96 97.23, 96.79 58.81, 30.11 0.42 M180.3 130.97 C148.05 101.82, 115.25 74.13, 30.11 0.42 M180.23 109.71 C131.19 65.88, 82.32 23.85, 53.44 -0.5 M180.23 109.71 C132.13 67.3, 83.5 24.72, 53.44 -0.5 M180.16 88.45 C141.36 52.31, 97.84 16.29, 78.27 -0.11 M180.16 88.45 C139.38 52.25, 98.37 18.15, 78.27 -0.11 M180.09 67.19 C164.48 53.5, 148.45 38.13, 102.36 -0.38 M180.09 67.19 C164.75 52.71, 148.32 39.69, 102.36 -0.38 M180.02 45.93 C163.32 31.62, 143.38 14.83, 126.44 -0.65 M180.02 45.93 C159.88 27.36, 139.3 11.04, 126.44 -0.65 M179.2 24.02 C168.23 13.12, 157.63 6.58, 152.03 0.4 M179.2 24.02 C168.64 14.79, 158.68 6.44, 152.03 0.4" stroke="#846358" stroke-width="2" fill="none"></path><path d="M32 0 C74.91 -1.42, 112.88 -1.49, 148 0 M32 0 C71.88 0.65, 111.45 0.46, 148 0 M148 0 C169.32 0.68, 181.52 12.44, 180 32 M148 0 C169.84 0.9, 179.81 9.45, 180 32 M180 32 C182.37 59.51, 180.17 89.55, 180 148 M180 32 C179.77 62.34, 179.59 93.41, 180 148 M180 148 C178.17 167.62, 169.94 179.98, 148 180 M180 148 C178.8 168.05, 169.64 180.39, 148 180 M148 180 C108.03 180.1, 66.44 181.45, 32 180 M148 180 C103.79 179.39, 58.74 178.43, 32 180 M32 180 C10.37 178.13, 1.15 169.71, 0 148 M32 180 C9.28 181.6, 0.06 170.77, 0 148 M0 148 C-0.48 107.54, 0.83 66.48, 0 32 M0 148 C-1.75 125.6, -0.75 102.18, 0 32 M0 32 C-0.42 11.25, 10.01 -0.5, 32 0 M0 32 C0.12 9.81, 10.81 -0.97, 32 0" stroke="#1e1e1e" stroke-width="4" fill="none"></path></g><g stroke-linecap="round" transform="translate(390 450) rotate(0 90 90)"><path d="M7.86 8.16 C7.86 8.16, 7.86 8.16, 7.86 8.16 M7.86 8.16 C7.86 8.16, 7.86 8.16, 7.86 8.16 M0.91 40.54 C11.72 27.41, 21.83 13.54, 36.34 -0.21 M0.91 40.54 C13.18 25.22, 26.7 10.91, 36.34 -0.21 M1.18 64.62 C21.19 44.76, 35.58 24.72, 57.6 -0.28 M1.18 64.62 C18.59 45.63, 34.56 28.24, 57.6 -0.28 M0.79 89.46 C22.12 64.58, 40.9 42.17, 78.2 0.41 M0.79 89.46 C24.21 64.14, 46.3 38.11, 78.2 0.41 M1.05 113.54 C19.28 90.33, 43.04 65.08, 99.46 0.34 M1.05 113.54 C23.6 87.85, 45.98 62.78, 99.46 0.34 M0.66 138.38 C40.52 90.3, 84.7 42.81, 120.72 0.27 M0.66 138.38 C32.41 102.38, 63.86 67.28, 120.72 0.27 M2.24 160.95 C30.68 127.42, 60.15 95.4, 141.98 0.2 M2.24 160.95 C29.56 128.13, 58.83 94.27, 141.98 0.2 M11.69 174.47 C56.34 121.36, 100.68 67.03, 161.28 2.39 M11.69 174.47 C51.52 127.13, 92.04 80.54, 161.28 2.39 M28.36 179.68 C75.67 126.1, 122.65 70.43, 174.66 11.38 M28.36 179.68 C81.52 121.05, 133.23 61.62, 174.66 11.38 M48.97 180.37 C101.63 119.78, 150.62 62.28, 179.52 30.18 M48.97 180.37 C78.57 148.26, 106.74 116.23, 179.52 30.18 M70.23 180.3 C94.53 151.46, 123.63 120.05, 180.44 53.51 M70.23 180.3 C109.75 133.68, 150.94 88.52, 180.44 53.51 M91.49 180.23 C117.54 151.48, 145.3 119.09, 180.05 78.34 M91.49 180.23 C110.48 158.69, 129.36 137.54, 180.05 78.34 M112.75 180.16 C126.79 165.06, 143.98 146.02, 180.32 102.42 M112.75 180.16 C138.4 150.83, 162.49 120.74, 180.32 102.42 M134.01 180.09 C144.82 166.65, 153.71 156.67, 180.59 126.51 M134.01 180.09 C144.79 166.95, 157.19 153.23, 180.59 126.51 M155.92 179.27 C163.9 166.68, 176.29 158.87, 179.54 152.1 M155.92 179.27 C161.65 171.5, 168.3 163.25, 179.54 152.1" stroke="#846358" stroke-width="2" fill="none"></path><path d="M32 0 C61.04 -0.82, 94.89 1.21, 148 0 M32 0 C58.55 -0.17, 86.13 0.49, 148 0 M148 0 C170.85 1.77, 180.44 11.45, 180 32 M148 0 C169.14 -1.22, 178.73 12.53, 180 32 M180 32 C180.05 72.78, 180.07 112.96, 180 148 M180 32 C178.18 56.36, 178.21 78.65, 180 148 M180 148 C180.61 169.31, 168.29 178.88, 148 180 M180 148 C180.31 169.73, 170.49 181.8, 148 180 M148 180 C106.93 180.57, 68.24 178.4, 32 180 M148 180 C125.16 180.11, 100.37 179.64, 32 180 M32 180 C11.82 180.37, -1.21 170.73, 0 148 M32 180 C10.72 181.44, 1.27 171.09, 0 148 M0 148 C1.48 120.84, -2.23 93.73, 0 32 M0 148 C1.11 116.12, 0.56 83.2, 0 32 M0 32 C-0.65 10.17, 10.77 -0.75, 32 0 M0 32 C0.15 9.69, 10.37 -0.3, 32 0" stroke="#1e1e1e" stroke-width="4" fill="none"></path></g><g stroke-linecap="round" transform="translate(110 450) rotate(0 90 90)"><path d="M7.86 8.16 C7.86 8.16, 7.86 8.16, 7.86 8.16 M7.86 8.16 C7.86 8.16, 7.86 8.16, 7.86 8.16 M0.91 40.54 C13.49 23.61, 30.15 9.41, 36.34 -0.21 M0.91 40.54 C10.64 29.93, 21.51 16.72, 36.34 -0.21 M1.18 64.62 C14.93 47.03, 32.6 26.16, 57.6 -0.28 M1.18 64.62 C14.82 49.93, 27.59 34.16, 57.6 -0.28 M0.79 89.46 C15.74 71.04, 32.08 54.27, 78.2 0.41 M0.79 89.46 C18.74 68.42, 36.3 47.03, 78.2 0.41 M1.05 113.54 C36.03 75.06, 65.29 39.18, 99.46 0.34 M1.05 113.54 C22.38 89.59, 43.56 65.65, 99.46 0.34 M0.66 138.38 C42.74 93, 81.51 44.72, 120.72 0.27 M0.66 138.38 C31.36 104.24, 60.87 69.63, 120.72 0.27 M2.24 160.95 C42.08 117.07, 78.62 71.38, 141.98 0.2 M2.24 160.95 C54.09 101.29, 104.69 43.62, 141.98 0.2 M11.69 174.47 C66.11 108.54, 122.92 46.8, 161.28 2.39 M11.69 174.47 C64.72 113.6, 117.5 53.6, 161.28 2.39 M28.36 179.68 C62.19 139.24, 97.52 99.77, 174.66 11.38 M28.36 179.68 C60.08 142.88, 92.87 104.98, 174.66 11.38 M48.97 180.37 C84.07 138.34, 121.15 95.86, 179.52 30.18 M48.97 180.37 C76.33 148.97, 103.98 116.23, 179.52 30.18 M70.23 180.3 C94.53 154.12, 117.75 128.04, 180.44 53.51 M70.23 180.3 C96.81 152.27, 122.35 122.66, 180.44 53.51 M91.49 180.23 C120.89 146.86, 145.11 115.18, 180.05 78.34 M91.49 180.23 C115.75 152.89, 139.59 123.93, 180.05 78.34 M112.75 180.16 C129.97 161.34, 146.42 144.7, 180.32 102.42 M112.75 180.16 C127.85 160.48, 144.32 142.53, 180.32 102.42 M134.01 180.09 C145.55 166.16, 158.34 152.86, 180.59 126.51 M134.01 180.09 C144.22 168.58, 154.85 157.6, 180.59 126.51 M155.92 179.27 C164.61 172.72, 169.19 164.98, 179.54 152.1 M155.92 179.27 C164.82 167.86, 174.02 156.72, 179.54 152.1 M8.09 172.08 C8.09 172.08, 8.09 172.08, 8.09 172.08 M8.09 172.08 C8.09 172.08, 8.09 172.08, 8.09 172.08 M41.23 179.69 C33.63 170.11, 24.39 163.2, 0.47 144.26 M41.23 179.69 C30.78 171.68, 21.13 161.69, 0.47 144.26 M66.07 180.08 C43.16 163.47, 23.98 143.13, 0.41 123 M66.07 180.08 C52.79 167.25, 38.26 156.9, 0.41 123 M90.15 179.81 C70.8 160.38, 46.93 141.46, 0.34 101.74 M90.15 179.81 C66.23 161, 43.75 140.92, 0.34 101.74 M114.23 179.54 C83.61 152.1, 54.2 127.92, 0.27 80.48 M114.23 179.54 C74.26 146.93, 36.34 113.37, 0.27 80.48 M139.07 179.93 C96.81 140.65, 53.84 104.59, 0.2 59.22 M139.07 179.93 C106.97 151.68, 73.09 124.38, 0.2 59.22 M160.88 177.7 C109.71 132.17, 59.64 90.45, 0.88 38.61 M160.88 177.7 C124.36 145.14, 86.46 113.5, 0.88 38.61 M174.4 168.25 C126.24 126.81, 78.19 85.73, 2.32 18.67 M174.4 168.25 C119.11 117.37, 61.53 67.47, 2.32 18.67 M179.61 151.58 C128.66 106.28, 75.02 62.03, 12.07 5.93 M179.61 151.58 C137.49 114.84, 95.69 77.61, 12.07 5.93 M180.3 130.97 C122.11 81.24, 65.74 32.6, 30.11 0.42 M180.3 130.97 C135.51 92.53, 88.94 53.42, 30.11 0.42 M180.23 109.71 C148.18 80.56, 111.35 51.61, 53.44 -0.5 M180.23 109.71 C138.8 73.42, 96.02 38.13, 53.44 -0.5 M180.16 88.45 C155.53 65.19, 126.37 41.42, 78.27 -0.11 M180.16 88.45 C156.32 69.66, 133.86 49.7, 78.27 -0.11 M180.09 67.19 C152.92 44.59, 128.13 23.18, 102.36 -0.38 M180.09 67.19 C160.27 49.21, 139.49 31.98, 102.36 -0.38 M180.02 45.93 C162.78 30.39, 141.9 13.44, 126.44 -0.65 M180.02 45.93 C169.61 36.8, 157.29 26.32, 126.44 -0.65 M179.2 24.02 C175.12 20.4, 167.26 13.35, 152.03 0.4 M179.2 24.02 C171.82 18.65, 166.51 12.25, 152.03 0.4" stroke="#846358" stroke-width="2" fill="none"></path><path d="M32 0 C57.22 1.24, 79.33 0.87, 148 0 M32 0 C65.34 0.7, 99.45 1.25, 148 0 M148 0 C169.78 0.78, 179.83 9.61, 180 32 M148 0 C168.06 1.87, 181.04 12.31, 180 32 M180 32 C178.79 62.6, 177.65 89.86, 180 148 M180 32 C178 65.22, 179.22 100.16, 180 148 M180 148 C178.96 168.21, 169.6 180.34, 148 180 M180 148 C181.16 171.13, 170.52 180.76, 148 180 M148 180 C117.84 179.18, 82.23 182.23, 32 180 M148 180 C107.24 178.52, 67.36 179.64, 32 180 M32 180 C9.46 181.39, 0.05 170.58, 0 148 M32 180 C11.94 181.76, -1.33 169.8, 0 148 M0 148 C-2.99 110.71, -1.38 68.33, 0 32 M0 148 C-0.6 103.65, -0.72 58.46, 0 32 M0 32 C0.1 9.92, 10.79 -0.85, 32 0 M0 32 C-0.29 10.37, 9.86 -0.2, 32 0" stroke="#1e1e1e" stroke-width="4" fill="none"></path></g></svg>