<svg version="1.1" xmlns="http://www.w3.org/2000/svg" viewBox="0 0 1620 920" width="3240" height="1840">
  <!-- svg-source:excalidraw -->
  
  <defs>
    <style class="style-fonts">
      
    </style>
    
  </defs>
  <g stroke-opacity="0.5" fill-opacity="0.5" stroke-linecap="round" transform="translate(10 10) rotate(0 800 450)"><path d="M32 0 C364.06 -9.3, 694.47 -9.37, 1568 0 C1589.3 0.69, 1603.02 7.93, 1600 32 C1604.49 361.45, 1603.94 689.76, 1600 868 C1603.22 888.47, 1591.31 897.95, 1568 900 C1082.76 903.12, 596.32 901.82, 32 900 C11.58 896.71, 0.25 886.77, 0 868 C0.77 569.13, 0.45 268.81, 0 32 C3.56 8.59, 8.96 -2.86, 32 0" stroke="none" stroke-width="0" fill="#ffffff"></path><path d="M32 0 C489.65 1.48, 947.44 1.59, 1568 0 M32 0 C485.23 3.98, 937.87 4.59, 1568 0 M1568 0 C1589.68 0.55, 1600.21 12.37, 1600 32 M1568 0 C1589.85 -0.7, 1601.59 12.35, 1600 32 M1600 32 C1596.66 357.85, 1597.06 683.52, 1600 868 M1600 32 C1599.95 315.1, 1599.81 598.85, 1600 868 M1600 868 C1599.34 888.95, 1590.73 901.75, 1568 900 M1600 868 C1599.16 890.76, 1590.48 899.91, 1568 900 M1568 900 C1016.17 897.26, 462.85 897.9, 32 900 M1568 900 C1110.69 894.93, 653.3 895.07, 32 900 M32 900 C12.64 901.78, 0.37 890.46, 0 868 M32 900 C11.43 902.2, 1.55 889.61, 0 868 M0 868 C2.67 553.25, 1.47 239.82, 0 32 M0 868 C0.72 579.55, 0.84 292.11, 0 32 M0 32 C1.84 10.11, 12.51 -0.92, 32 0 M0 32 C0.09 11.7, 8.52 1.85, 32 0" stroke="#ffffff" stroke-width="4" fill="none"></path></g><g stroke-opacity="0.5" fill-opacity="0.5" stroke-linecap="round" transform="translate(498.50967394583466 110) rotate(0 85.6069592239273 294.21253094525923)"><path d="M7.86 8.16 C7.86 8.16, 7.86 8.16, 7.86 8.16 M7.86 8.16 C7.86 8.16, 7.86 8.16, 7.86 8.16 M3.66 19.09 C9.21 11.43, 13.41 7.56, 18.1 2.48 M3.66 19.09 C7.32 15.84, 11.76 10.91, 18.1 2.48 M2.75 26.24 C11.37 18.05, 20.2 5.07, 24.4 1.33 M2.75 26.24 C9.17 17.3, 16.86 9.4, 24.4 1.33 M1.83 33.39 C8.16 23.77, 17.08 15.75, 30.7 0.18 M1.83 33.39 C10.39 23.96, 20.45 13.6, 30.7 0.18 M1.57 39.79 C9.57 31.99, 17.47 20.93, 34.37 2.05 M1.57 39.79 C14.49 24.92, 26.36 11.5, 34.37 2.05 M1.96 45.43 C13.41 32.87, 22.56 21.93, 39.36 2.41 M1.96 45.43 C11.17 36.53, 18.48 25.96, 39.36 2.41 M1.7 51.83 C16.37 33.52, 33.24 13.45, 45 2.02 M1.7 51.83 C18.63 32.81, 36.49 13.34, 45 2.02 M1.44 58.23 C19.44 39.31, 38.47 19.08, 49.99 2.38 M1.44 58.23 C18.82 37.32, 36.4 18.55, 49.99 2.38 M1.83 63.87 C16.7 50.17, 26.99 34.02, 55.63 1.98 M1.83 63.87 C19.99 43.22, 37.37 24.42, 55.63 1.98 M1.57 70.27 C18.54 49.71, 40.87 26.78, 60.62 2.34 M1.57 70.27 C19.81 48.57, 38.14 27.06, 60.62 2.34 M1.97 75.91 C20.4 53.79, 39.72 31.16, 66.26 1.95 M1.97 75.91 C23.79 50.8, 45.51 27.23, 66.26 1.95 M1.71 82.31 C19.13 63.91, 36.49 45.37, 71.25 2.31 M1.71 82.31 C21.05 58.82, 40.89 34.86, 71.25 2.31 M2.1 87.95 C16.78 70.73, 33.55 52.79, 76.89 1.91 M2.1 87.95 C27.58 59.82, 52.22 31.39, 76.89 1.91 M1.84 94.35 C21.88 73.33, 40.93 49.55, 81.88 2.27 M1.84 94.35 C29.76 60.67, 60.15 27.6, 81.88 2.27 M1.58 100.75 C20.66 77.64, 44.81 54.46, 86.86 2.63 M1.58 100.75 C22.46 78.15, 42.22 54.48, 86.86 2.63 M1.97 106.39 C28.26 75.78, 54.07 45.77, 92.51 2.24 M1.97 106.39 C21.64 85.13, 40.64 63.82, 92.51 2.24 M1.71 112.79 C23.94 88.16, 44.12 64.28, 97.49 2.6 M1.71 112.79 C32.44 76.85, 63.3 42.84, 97.49 2.6 M2.1 118.43 C21.54 93.15, 41.51 71.81, 103.14 2.21 M2.1 118.43 C36.47 77.76, 71.21 39.38, 103.14 2.21 M1.84 124.83 C22.77 97.94, 46.09 73.78, 108.12 2.57 M1.84 124.83 C31.17 92.93, 58.69 60.39, 108.12 2.57 M1.58 131.23 C27.98 101.42, 55.26 73.13, 113.77 2.17 M1.58 131.23 C31.52 93.92, 64.57 57.22, 113.77 2.17 M1.98 136.87 C27.38 105.89, 57.02 72.71, 118.76 2.53 M1.98 136.87 C35.03 96.7, 70.67 56.73, 118.76 2.53 M1.72 143.27 C33.46 106.78, 65.91 68.18, 124.4 2.14 M1.72 143.27 C30.23 110.25, 59.25 76.63, 124.4 2.14 M2.11 148.91 C46.89 94.57, 93.53 42.03, 129.39 2.5 M2.11 148.91 C35.11 113.27, 67.82 74.35, 129.39 2.5 M1.85 155.31 C36.17 113.95, 73 72.08, 134.37 2.86 M1.85 155.31 C51.89 96.54, 103.05 39.46, 134.37 2.86 M1.59 161.71 C55.97 97.98, 110.53 37.87, 140.02 2.46 M1.59 161.71 C46.7 110.66, 91.73 58.03, 140.02 2.46 M1.98 167.35 C35.25 130.75, 69.03 91.49, 146.97 0.56 M1.98 167.35 C56.38 107.16, 108.3 47, 146.97 0.56 M1.72 173.75 C59.64 108.79, 114.34 43.63, 151.3 1.67 M1.72 173.75 C47.98 118.88, 94.6 63.82, 151.3 1.67 M2.11 179.39 C59.37 112.89, 118.58 43.74, 154.98 3.54 M2.11 179.39 C36.73 137.61, 72.97 97.53, 154.98 3.54 M1.85 185.79 C50.65 130.77, 102.64 71.71, 158.65 5.41 M1.85 185.79 C59.48 119.58, 117.19 54.24, 158.65 5.41 M1.59 192.19 C34.51 151.71, 69.82 116.14, 161.67 8.04 M1.59 192.19 C47.87 138.56, 93.94 85.77, 161.67 8.04 M1.99 197.83 C40.97 150.7, 80.13 104.17, 165.34 9.91 M1.99 197.83 C39.46 153.35, 78.72 109.54, 165.34 9.91 M1.72 204.23 C43.86 157.06, 81.96 112.6, 167.71 13.28 M1.72 204.23 C41.27 159.32, 79.94 116.16, 167.71 13.28 M2.12 209.87 C62.9 142.79, 123.25 72.45, 169.41 17.42 M2.12 209.87 C38.72 165.31, 78.07 120.15, 169.41 17.42 M1.86 216.27 C40.96 168.76, 80.31 123.01, 170.47 22.31 M1.86 216.27 C40.46 169.8, 82.33 123.64, 170.47 22.31 M1.6 222.66 C49.27 165.12, 102.1 105.67, 172.83 25.69 M1.6 222.66 C48.7 169.76, 95.89 114.61, 172.83 25.69 M1.99 228.31 C44.28 181.52, 83.76 133.37, 172.57 32.08 M1.99 228.31 C47.03 175.39, 92.83 123.14, 172.57 32.08 M1.73 234.71 C38.88 191.42, 78.49 149.72, 172.3 38.48 M1.73 234.71 C41.04 190.61, 78.76 144.41, 172.3 38.48 M2.12 240.35 C52.67 183.06, 100.76 126.67, 172.7 44.12 M2.12 240.35 C63.2 170.07, 121.84 101.58, 172.7 44.12 M1.86 246.75 C65.61 175.95, 128.32 103.82, 172.44 50.52 M1.86 246.75 C65.06 173.42, 127.84 100.82, 172.44 50.52 M2.26 252.39 C58.18 188.68, 110.23 125.93, 172.83 56.17 M2.26 252.39 C54.91 194.67, 104.69 135.38, 172.83 56.17 M2 258.79 C54.23 198.22, 105.57 138.4, 172.57 62.56 M2 258.79 C58.1 194.52, 114.53 129.87, 172.57 62.56 M1.73 265.19 C45.44 214.52, 89.64 165.26, 172.31 68.96 M1.73 265.19 C37.42 226.97, 71.26 185.58, 172.31 68.96 M2.13 270.83 C43.85 224.69, 83.2 176.72, 172.7 74.6 M2.13 270.83 C61.24 204.33, 119.52 136.38, 172.7 74.6 M1.87 277.23 C58.48 213.53, 114.21 147.28, 172.44 81 M1.87 277.23 C62.18 209.06, 121.13 141.07, 172.44 81 M2.26 282.87 C61.72 214.65, 120.2 148.05, 172.84 86.64 M2.26 282.87 C69.45 207.96, 134.09 133.24, 172.84 86.64 M2 289.27 C61.68 218.95, 124.08 149.47, 172.58 93.04 M2 289.27 C49.2 234.49, 95.9 180.74, 172.58 93.04 M1.74 295.66 C37.58 253.96, 74.64 213.06, 172.31 99.44 M1.74 295.66 C47.25 242.38, 91.25 191.07, 172.31 99.44 M2.13 301.31 C43.43 253.46, 87.69 203.25, 172.71 105.08 M2.13 301.31 C57.26 237.84, 111.78 175.12, 172.71 105.08 M1.87 307.71 C37.39 267.54, 71.91 227.61, 172.45 111.48 M1.87 307.71 C54.63 245.48, 109.39 184.23, 172.45 111.48 M2.27 313.35 C57.17 248.93, 113.11 186.86, 172.84 117.12 M2.27 313.35 C52.9 254.51, 103.57 196.47, 172.84 117.12 M2.01 319.75 C55.8 259.56, 106.43 198.83, 172.58 123.52 M2.01 319.75 C51.68 262.19, 102.93 201.66, 172.58 123.52 M1.74 326.14 C67.24 251.83, 130.86 175.39, 172.32 129.92 M1.74 326.14 C36.19 284.98, 69.86 245.63, 172.32 129.92 M2.14 331.79 C48.74 280.54, 91.22 229.39, 172.71 135.56 M2.14 331.79 C56.89 269.32, 111.75 206.28, 172.71 135.56 M1.88 338.19 C39.95 293.57, 76.61 248.18, 172.45 141.96 M1.88 338.19 C51.83 278.36, 102.77 219.23, 172.45 141.96 M2.27 343.83 C45.73 292.38, 89.67 241.92, 172.85 147.6 M2.27 343.83 C51.11 286.19, 102.21 227.72, 172.85 147.6 M2.01 350.23 C62.12 280.28, 122.75 212.45, 172.59 154 M2.01 350.23 C43.51 301.37, 85.59 253.64, 172.59 154 M1.75 356.62 C42.43 310.31, 82.28 261.59, 172.32 160.4 M1.75 356.62 C47.73 302.66, 94.96 247.53, 172.32 160.4 M2.14 362.27 C47.61 311.33, 91.74 258.59, 172.72 166.04 M2.14 362.27 C64.77 288.58, 127.05 216.85, 172.72 166.04 M1.88 368.66 C63.28 297.88, 124.15 225.74, 172.46 172.44 M1.88 368.66 C61.71 300.9, 120.04 232.53, 172.46 172.44 M2.28 374.31 C57.34 308.25, 116.22 245.1, 172.85 178.08 M2.28 374.31 C66.99 299.19, 132.23 225.26, 172.85 178.08 M2.02 380.71 C63.54 309.55, 124.44 238.25, 172.59 184.48 M2.02 380.71 C58.33 314.61, 114.54 251.31, 172.59 184.48 M1.75 387.1 C59.06 318.16, 117.53 251.26, 172.99 190.12 M1.75 387.1 C46.85 333.44, 92.65 281.59, 172.99 190.12 M2.15 392.75 C35.32 351.04, 71.8 311.69, 172.72 196.52 M2.15 392.75 C46.72 341.38, 91.77 290.09, 172.72 196.52 M1.89 399.14 C66.28 324.65, 132.25 247.87, 172.46 202.92 M1.89 399.14 C38.03 359.41, 74.36 317.58, 172.46 202.92 M2.28 404.79 C67.84 324.97, 136.26 247.77, 172.86 208.56 M2.28 404.79 C53.5 343.61, 105.85 282.84, 172.86 208.56 M2.02 411.18 C57.89 351.24, 110.38 289.9, 172.6 214.96 M2.02 411.18 C44.59 363.11, 87.53 313.65, 172.6 214.96 M2.41 416.83 C54.05 357.49, 104.94 297.5, 172.99 220.6 M2.41 416.83 C49.17 360.66, 96.01 307.16, 172.99 220.6 M2.15 423.23 C54.12 364.03, 106.31 301.21, 172.73 227 M2.15 423.23 C39.72 379.98, 77.57 336.14, 172.73 227 M1.89 429.62 C38.82 386.25, 78.99 340.26, 172.47 233.4 M1.89 429.62 C53.52 368.43, 105.01 309.7, 172.47 233.4 M2.29 435.27 C60.37 367.17, 116.13 301.97, 172.86 239.04 M2.29 435.27 C40.92 391.2, 80.08 347.21, 172.86 239.04 M2.02 441.66 C56.07 378.88, 110.18 318.21, 172.6 245.44 M2.02 441.66 C60.2 373.97, 120.02 305.28, 172.6 245.44 M2.42 447.31 C45.9 400.17, 89.14 348.29, 172.99 251.08 M2.42 447.31 C64.3 375.09, 125.42 304.16, 172.99 251.08 M2.16 453.71 C45.16 400.34, 88.6 352.83, 172.73 257.48 M2.16 453.71 C51.97 396.07, 103.32 337.85, 172.73 257.48 M1.9 460.1 C53.94 397.89, 107.21 338.84, 172.47 263.88 M1.9 460.1 C67.11 382.56, 134.82 306.55, 172.47 263.88 M2.29 465.75 C38.59 426.14, 71.01 388, 172.87 269.52 M2.29 465.75 C50.76 410.87, 98.34 356.04, 172.87 269.52 M2.03 472.14 C44.38 421.4, 86.84 371.11, 172.61 275.92 M2.03 472.14 C49.15 419.06, 94.35 367.18, 172.61 275.92 M2.42 477.79 C44.63 433.34, 81.43 385.42, 173 281.56 M2.42 477.79 C61.77 409.94, 119.4 344.52, 173 281.56 M2.16 484.18 C43.28 439.96, 85.26 391.68, 172.74 287.96 M2.16 484.18 C36.66 440.94, 73.41 400.09, 172.74 287.96 M1.9 490.58 C51.54 437.44, 98.27 384.46, 172.48 294.36 M1.9 490.58 C62.89 418.96, 122.45 349.48, 172.48 294.36 M2.3 496.23 C54.1 436.98, 104.09 377.75, 172.87 300 M2.3 496.23 C43.05 449.97, 84.18 403.6, 172.87 300 M2.03 502.62 C37.9 462.78, 72.13 420.82, 172.61 306.4 M2.03 502.62 C60.86 434.85, 120.4 368.08, 172.61 306.4 M2.43 508.27 C49.22 455.12, 95.73 401.97, 173 312.04 M2.43 508.27 C40.33 462.57, 81.35 416.24, 173 312.04 M2.17 514.66 C60.21 444.13, 121.11 374.83, 172.74 318.44 M2.17 514.66 C60.1 448.16, 118.92 380.93, 172.74 318.44 M1.91 521.06 C51.57 462.34, 101.54 406.74, 172.48 324.84 M1.91 521.06 C45.16 469.06, 89.66 417.19, 172.48 324.84 M2.3 526.71 C64.77 455.21, 126.23 380.69, 172.88 330.48 M2.3 526.71 C58.37 462.52, 112.61 400.7, 172.88 330.48 M2.04 533.1 C48.75 477.67, 99.78 421.68, 172.61 336.88 M2.04 533.1 C48.98 480.76, 94.16 427.48, 172.61 336.88 M2.43 538.75 C68.19 463.8, 131.56 391.23, 173.01 342.52 M2.43 538.75 C48.34 485.97, 95.67 432.62, 173.01 342.52 M2.17 545.14 C46.7 491.61, 91.35 441.2, 172.75 348.92 M2.17 545.14 C69.12 470.31, 134.4 394.55, 172.75 348.92 M1.91 551.54 C40.84 506.07, 76.29 460.86, 172.49 355.32 M1.91 551.54 C58.38 485.04, 114.91 418.58, 172.49 355.32 M2.31 557.18 C45.53 505.77, 87.31 454.92, 172.88 360.96 M2.31 557.18 C37.72 514.57, 75.62 472.58, 172.88 360.96 M1.39 564.34 C37.33 521.44, 76.79 474.93, 172.62 367.36 M1.39 564.34 C44.89 512.41, 89.76 461.1, 172.62 367.36 M2.44 569.23 C65.62 499.17, 126.46 426.38, 173.01 373 M2.44 569.23 C60.71 502.89, 118.73 434.81, 173.01 373 M4.15 573.36 C40.54 530.72, 77.5 489.68, 172.75 379.4 M4.15 573.36 C62.32 506.57, 119.9 440.12, 172.75 379.4 M5.85 577.49 C58.33 521.2, 109.31 462.84, 173.15 385.04 M5.85 577.49 C43.98 530.34, 83.53 484.52, 173.15 385.04 M8.22 580.87 C58.77 525.34, 107.76 469.34, 172.89 391.44 M8.22 580.87 C57.46 523.91, 106.47 468.31, 172.89 391.44 M11.89 582.74 C54.27 532.35, 99.08 483.22, 172.62 397.84 M11.89 582.74 C66.39 520.5, 121.28 457.11, 172.62 397.84 M15.56 584.61 C61.48 533.12, 108.96 476.48, 173.02 403.48 M15.56 584.61 C72.18 518.49, 129.85 452.21, 173.02 403.48 M18.58 587.24 C61.83 539.45, 102.78 491.65, 172.76 409.88 M18.58 587.24 C76.59 520.48, 135.48 451.99, 172.76 409.88 M22.91 588.35 C69.14 534.83, 116.92 480.37, 173.15 415.52 M22.91 588.35 C57.75 549.96, 92.23 509.98, 173.15 415.52 M26.59 590.22 C86.12 525.38, 144.13 456.41, 172.89 421.92 M26.59 590.22 C65.4 545.44, 103.66 501.54, 172.89 421.92 M32.23 589.82 C83.89 530.32, 131.2 472.21, 172.63 428.32 M32.23 589.82 C75.25 541.35, 116.99 493.39, 172.63 428.32 M37.22 590.18 C80.64 536.71, 126.93 487.26, 173.02 433.96 M37.22 590.18 C85.2 532.77, 134.09 475.71, 173.02 433.96 M42.86 589.79 C85.31 540.93, 127.18 493.36, 172.76 440.36 M42.86 589.79 C70.77 557.4, 97.67 526.23, 172.76 440.36 M47.85 590.15 C82.09 554.39, 114.94 515.22, 173.16 446 M47.85 590.15 C78.7 554.36, 111.42 517.44, 173.16 446 M53.49 589.76 C78.8 560.79, 104.65 531.45, 172.9 452.4 M53.49 589.76 C91.63 546.44, 130.3 501.04, 172.9 452.4 M58.48 590.12 C98.11 543.52, 141.84 493.79, 172.63 458.8 M58.48 590.12 C101.96 541.18, 143.56 491.91, 172.63 458.8 M64.12 589.72 C95.37 553.79, 125.78 517.33, 173.03 464.44 M64.12 589.72 C90.4 560.03, 115.96 528.83, 173.03 464.44 M69.11 590.08 C104.34 550.68, 135.58 514.78, 172.77 470.84 M69.11 590.08 C105.36 547.89, 140.64 507.26, 172.77 470.84 M74.75 589.69 C113.58 548.06, 149.88 505.37, 173.16 476.48 M74.75 589.69 C104.11 557.58, 130.57 526.77, 173.16 476.48 M79.74 590.05 C116.73 546.25, 153.92 505.57, 172.9 482.88 M79.74 590.05 C107.61 558.99, 132.67 528.9, 172.9 482.88 M85.38 589.65 C113.01 559.07, 142.02 526.76, 172.64 489.28 M85.38 589.65 C103.82 568.12, 121.61 547.68, 172.64 489.28 M90.37 590.01 C119.57 556.87, 151.04 521.65, 173.03 494.92 M90.37 590.01 C111.81 565.63, 131.8 542.14, 173.03 494.92 M96.01 589.62 C121.51 560.27, 146.01 531.19, 172.77 501.32 M96.01 589.62 C118.1 561.81, 143.21 534.64, 172.77 501.32 M101 589.98 C125.07 559.47, 152.42 527.62, 173.17 506.96 M101 589.98 C117.39 569.89, 133.8 551.69, 173.17 506.96 M106.64 589.58 C123.98 571.04, 138.96 550.93, 172.91 513.36 M106.64 589.58 C124.21 567.39, 143.35 545.71, 172.91 513.36 M111.63 589.94 C128.97 572.04, 146.37 549.74, 172.64 519.76 M111.63 589.94 C134.93 564.33, 155.5 538.91, 172.64 519.76 M116.62 590.3 C132.15 575.59, 143.96 555.99, 173.04 525.4 M116.62 590.3 C138.42 565.97, 160.45 539.59, 173.04 525.4 M122.26 589.91 C137.87 568, 155.84 549.9, 172.78 531.8 M122.26 589.91 C135.72 576.45, 148.18 561.26, 172.78 531.8 M127.25 590.27 C137.39 578.27, 144.14 567.87, 173.17 537.44 M127.25 590.27 C141.17 574.4, 155.71 559.61, 173.17 537.44 M132.89 589.87 C143.52 577.36, 158.44 561.77, 172.91 543.84 M132.89 589.87 C144.67 575.81, 156.83 563.06, 172.91 543.84 M137.88 590.23 C148.57 578.86, 156.63 568.02, 173.3 549.48 M137.88 590.23 C145.1 581.52, 153.05 573.7, 173.3 549.48 M143.52 589.84 C150.15 579.54, 159.42 569.97, 171.73 557.39 M143.52 589.84 C149.6 582.83, 154.65 576, 171.73 557.39 M149.16 589.45 C153.86 584.54, 161.39 576.4, 170.81 564.54 M149.16 589.45 C157.8 580.48, 163.64 571.11, 170.81 564.54 M158.74 584.52 C160.95 580.63, 165.4 576.5, 167.93 573.96 M158.74 584.52 C160.34 582.28, 163.25 579.84, 167.93 573.96 M8.13 580.54 C8.13 580.54, 8.13 580.54, 8.13 580.54 M8.13 580.54 C8.13 580.54, 8.13 580.54, 8.13 580.54 M19.05 584.73 C17.23 581.88, 10.65 578.5, 6.22 573.58 M19.05 584.73 C14.93 581.41, 10.45 576.08, 6.22 573.58 M26.21 585.65 C17.21 577.49, 7.05 569.37, 0.55 563.35 M26.21 585.65 C16.54 577.06, 7.33 568.16, 0.55 563.35 M32.6 585.91 C24.96 581.08, 16.92 573.47, 0.91 558.36 M32.6 585.91 C22.74 576.63, 12.35 568.52, 0.91 558.36 M38.25 585.52 C24.92 572.79, 11.91 562.5, 0.51 552.72 M38.25 585.52 C29.26 577.33, 18.87 567.56, 0.51 552.72 M44.64 585.78 C31.07 574.31, 16.63 563.81, 0.87 547.73 M44.64 585.78 C29.55 571.97, 14.41 558.46, 0.87 547.73 M51.04 586.04 C33.35 567.74, 12.29 551.73, 0.48 542.09 M51.04 586.04 C32.42 571.57, 16.83 556.92, 0.48 542.09 M56.69 585.65 C34.09 569.11, 15.27 549.01, 0.84 537.1 M56.69 585.65 C46.06 576.16, 35.1 565.73, 0.84 537.1 M63.08 585.91 C48.5 572.27, 29.9 558.79, 0.44 531.46 M63.08 585.91 C47.91 572.51, 30.77 558.58, 0.44 531.46 M68.73 585.51 C47.61 566.66, 27.54 548.45, 0.8 526.47 M68.73 585.51 C49.68 567.59, 29.6 550.84, 0.8 526.47 M75.12 585.77 C51.96 565.72, 31.87 546.48, 0.41 520.83 M75.12 585.77 C52.76 566.99, 30.66 547.38, 0.41 520.83 M81.52 586.04 C51.82 560.36, 18.41 531, 0.77 515.84 M81.52 586.04 C54.52 562.32, 29.18 539.5, 0.77 515.84 M87.17 585.64 C67.04 567.58, 48.64 552.25, 1.13 510.85 M87.17 585.64 C62.79 563.32, 39.91 543.87, 1.13 510.85 M93.56 585.9 C58.63 554.5, 18.36 520.17, 0.73 505.21 M93.56 585.9 C60.55 557.12, 24.56 525.49, 0.73 505.21 M99.21 585.51 C75.2 568.01, 54.11 547.99, 1.09 500.22 M99.21 585.51 C73.02 562.04, 45.09 537.91, 1.09 500.22 M105.6 585.77 C65.05 549.2, 22.56 514.91, 0.7 494.58 M105.6 585.77 C82.95 567.03, 59.13 545.74, 0.7 494.58 M112 586.03 C85.98 563.46, 57.18 538.69, 1.06 489.59 M112 586.03 C76.48 555.55, 42.11 525.25, 1.06 489.59 M117.64 585.64 C81.09 551.36, 40.84 519.73, 0.66 483.95 M117.64 585.64 C86.08 560.38, 56.95 532.75, 0.66 483.95 M124.04 585.9 C83.89 549.26, 40.97 514.48, 1.02 478.96 M124.04 585.9 C90.72 558.95, 58.5 529.93, 1.02 478.96 M129.69 585.5 C100.48 561.26, 71.56 535.65, 0.63 473.32 M129.69 585.5 C84.45 544.7, 37.57 504.35, 0.63 473.32 M136.08 585.77 C92.27 547.37, 49.58 508.74, 0.99 468.33 M136.08 585.77 C93.64 547.68, 49.85 510.41, 0.99 468.33 M142.48 586.03 C91.53 540.48, 36.06 493.42, 0.6 462.69 M142.48 586.03 C87.67 538.89, 32.51 490.87, 0.6 462.69 M148.12 585.63 C102.56 544.94, 53.75 504.82, 0.96 457.7 M148.12 585.63 C96.53 539.89, 43.93 494.15, 0.96 457.7 M153.01 584.58 C101.56 536.98, 49.27 493.09, 0.56 452.06 M153.01 584.58 C105.88 543.99, 59.41 502.33, 0.56 452.06 M157.15 582.87 C98.6 531.67, 39.05 477.41, 0.92 447.07 M157.15 582.87 C101.99 535.57, 49.03 488.69, 0.92 447.07 M161.28 581.17 C123.97 549.36, 87.61 516.48, 0.53 441.43 M161.28 581.17 C116.15 541.55, 69.56 502.42, 0.53 441.43 M163.9 578.15 C117.34 537.52, 68.07 495.63, 0.89 436.44 M163.9 578.15 C105.2 528.61, 46.31 477.47, 0.89 436.44 M167.28 575.79 C110.37 527.54, 53.98 478.74, 0.49 430.8 M167.28 575.79 C104.55 522.18, 43.1 468.85, 0.49 430.8 M168.4 571.46 C101.67 514.67, 36.04 457.93, 0.85 425.81 M168.4 571.46 C104.87 516.79, 40.1 461.94, 0.85 425.81 M169.51 567.12 C117.84 518.86, 64.32 473.54, 0.46 420.17 M169.51 567.12 C133.3 534.56, 95.41 502.48, 0.46 420.17 M171.38 563.45 C120.76 519.16, 69.63 476.22, 0.82 415.18 M171.38 563.45 C129.34 527.94, 89.16 492.49, 0.82 415.18 M171.74 558.46 C134.48 522.49, 94.17 489.53, 0.42 409.54 M171.74 558.46 C105.93 502.2, 40.87 445.12, 0.42 409.54 M172.86 554.13 C137.69 524.16, 100.04 493.88, 0.78 404.55 M172.86 554.13 C115.27 504.14, 58.21 454.68, 0.78 404.55 M173.22 549.14 C121.29 505.49, 72.49 461.51, 0.39 398.91 M173.22 549.14 C104.84 490.32, 37.03 431.73, 0.39 398.91 M172.82 543.5 C138.76 510.9, 99.71 479.71, 0.75 393.92 M172.82 543.5 C126.86 504.53, 80.37 464.01, 0.75 393.92 M173.18 538.51 C114.9 490.01, 59.57 438.73, 0.35 388.28 M173.18 538.51 C122.71 492.83, 72.38 449.79, 0.35 388.28 M172.79 532.87 C110.54 479.02, 47.48 424.78, 0.71 383.29 M172.79 532.87 C133.39 496.51, 93.86 462.49, 0.71 383.29 M173.15 527.88 C119.37 481.18, 63.09 434.58, 0.32 377.65 M173.15 527.88 C118.3 480.4, 64.9 434.16, 0.32 377.65 M172.75 522.24 C137.45 491.46, 102.25 462.54, 0.68 372.66 M172.75 522.24 C131.39 487.68, 91.57 451.96, 0.68 372.66 M173.11 517.25 C133.56 481.09, 93.51 445.92, 0.29 367.02 M173.11 517.25 C106.61 460.47, 39.16 402.37, 0.29 367.02 M172.72 511.61 C127.18 472.27, 83.66 431.63, 0.65 362.03 M172.72 511.61 C131.59 475.33, 88.68 440.2, 0.65 362.03 M173.08 506.62 C137.05 476.91, 101.72 442.85, 0.25 356.39 M173.08 506.62 C133.66 472.49, 93.28 439.33, 0.25 356.39 M172.68 500.98 C115.62 451.41, 59.18 402.23, 0.61 351.4 M172.68 500.98 C127.61 462.12, 82.77 422.96, 0.61 351.4 M173.04 495.99 C103.94 437.94, 37.66 377.67, 0.97 346.41 M173.04 495.99 C126.63 458.57, 83.65 419.44, 0.97 346.41 M172.65 490.35 C106.45 432.25, 39.14 374.86, 0.58 340.77 M172.65 490.35 C128.98 454.35, 85.19 415.87, 0.58 340.77 M173.01 485.36 C127.24 446.25, 80.77 405.9, 0.94 335.78 M173.01 485.36 C121.66 440.22, 69.71 394.91, 0.94 335.78 M172.62 479.72 C121.48 438.72, 71.85 392.88, 0.54 330.14 M172.62 479.72 C136.67 449.26, 99.89 418.35, 0.54 330.14 M172.98 474.73 C112.33 421.89, 52.12 368.31, 0.9 325.15 M172.98 474.73 C131.48 436.17, 89.01 399.14, 0.9 325.15 M173.34 469.75 C125.78 426.05, 75.64 385.03, 0.51 319.51 M173.34 469.75 C125.97 426.85, 78.66 386.76, 0.51 319.51 M172.94 464.1 C124.19 420.57, 77.7 379.01, 0.87 314.52 M172.94 464.1 C137.5 431.62, 100.74 400.52, 0.87 314.52 M173.3 459.12 C121.71 413.14, 71.31 369.18, 0.47 308.88 M173.3 459.12 C133.41 425.3, 93.22 388.9, 0.47 308.88 M172.91 453.47 C117.93 407.21, 64.44 361.17, 0.83 303.89 M172.91 453.47 C138.57 421.72, 103.42 392.59, 0.83 303.89 M173.27 448.49 C136.86 418.38, 103.5 386.54, 0.44 298.25 M173.27 448.49 C131.35 411.55, 91.42 377.12, 0.44 298.25 M172.87 442.84 C128.5 401.63, 79.19 360.67, 0.8 293.26 M172.87 442.84 C104.93 382.92, 35.46 323.99, 0.8 293.26 M173.23 437.86 C103.37 379.91, 37.91 320.24, 0.4 287.62 M173.23 437.86 C131.16 400.89, 87.45 363.16, 0.4 287.62 M172.84 432.21 C110.3 375.47, 43.67 318.59, 0.76 282.63 M172.84 432.21 C121.55 387.19, 68.29 342.14, 0.76 282.63 M173.2 427.23 C131.89 394.81, 94.19 359.66, 0.37 276.99 M173.2 427.23 C139.67 397.1, 104.24 366.95, 0.37 276.99 M172.8 421.58 C108.64 364.11, 40.38 304.14, 0.73 272 M172.8 421.58 C103.73 361.81, 36.22 303.86, 0.73 272 M173.16 416.6 C113.54 362.2, 53.9 311.64, 0.33 266.36 M173.16 416.6 C127.38 377.55, 81.32 337.94, 0.33 266.36 M172.77 410.95 C121.83 365.59, 71.24 322.51, 0.7 261.37 M172.77 410.95 C127.83 373.39, 83.92 335.13, 0.7 261.37 M173.13 405.97 C111.96 352.85, 53.38 301.99, 0.3 255.73 M173.13 405.97 C112.73 351.62, 50.59 298.81, 0.3 255.73 M172.73 400.32 C137.59 368.53, 101 337.29, 0.66 250.74 M172.73 400.32 C128.99 363.28, 83.5 324.06, 0.66 250.74 M173.09 395.34 C112.1 341.63, 49.51 289.39, 0.27 245.1 M173.09 395.34 C131.61 359.44, 90.24 322.42, 0.27 245.1 M172.7 389.69 C121.64 344.86, 73.29 301.98, 0.63 240.11 M172.7 389.69 C124.38 345.97, 74.69 303.56, 0.63 240.11 M173.06 384.71 C135.7 348.04, 97.05 314.56, 0.23 234.47 M173.06 384.71 C135.52 352.96, 98.62 321.29, 0.23 234.47 M172.67 379.06 C134.05 345.89, 95.93 310.48, 0.59 229.48 M172.67 379.06 C105.1 320.23, 37.96 261.18, 0.59 229.48 M173.03 374.08 C118.18 323.59, 60.19 275.54, 0.2 223.84 M173.03 374.08 C131.43 336.08, 91.19 300.86, 0.2 223.84 M172.63 368.43 C120.77 322.32, 67.05 276.37, 0.56 218.85 M172.63 368.43 C113.25 315.85, 54.24 264.07, 0.56 218.85 M172.99 363.45 C108.51 305.91, 43.52 247.19, 0.16 213.21 M172.99 363.45 C137.94 332.82, 101.56 301.27, 0.16 213.21 M172.6 357.8 C105.87 302.75, 42.99 245.28, 0.52 208.22 M172.6 357.8 C120.27 311.09, 67.88 266.56, 0.52 208.22 M172.96 352.82 C135.93 318.85, 100.21 286.23, 0.13 202.58 M172.96 352.82 C127.09 311.63, 81.62 273.24, 0.13 202.58 M172.56 347.17 C122.17 301.06, 69.2 254.75, 0.49 197.59 M172.56 347.17 C117.58 300.49, 63.37 252.8, 0.49 197.59 M172.92 342.19 C134.99 307.75, 94.54 274.45, 0.09 191.95 M172.92 342.19 C123.99 297.95, 72.24 253.76, 0.09 191.95 M172.53 336.54 C124.19 294.72, 72.34 250.64, 0.45 186.96 M172.53 336.54 C130.88 299.92, 90.01 263.59, 0.45 186.96 M172.89 331.56 C127.82 291.52, 77.85 249.8, 0.81 181.97 M172.89 331.56 C133.36 296.53, 93.5 262.3, 0.81 181.97 M172.49 325.91 C113.01 271.48, 50.66 218.84, 0.42 176.33 M172.49 325.91 C136.16 292.26, 98.72 260.4, 0.42 176.33 M172.85 320.93 C132.12 286.07, 92.25 253.99, 0.78 171.34 M172.85 320.93 C110.59 265.82, 47.93 210.84, 0.78 171.34 M172.46 315.28 C126.62 275.38, 81.55 235.96, 0.38 165.7 M172.46 315.28 C110.11 259.81, 45.75 204.43, 0.38 165.7 M172.82 310.3 C136.71 278.64, 99.08 245.84, 0.74 160.71 M172.82 310.3 C139.12 281.89, 103.91 252.24, 0.74 160.71 M173.18 305.31 C102.96 243.92, 36.3 185.34, 0.35 155.07 M173.18 305.31 C112.82 253.42, 52.62 201.95, 0.35 155.07 M172.78 299.67 C109.42 247.51, 48 192.64, 0.71 150.08 M172.78 299.67 C136.62 264.59, 98.19 232.61, 0.71 150.08 M173.14 294.68 C125.68 253.2, 78.35 210.54, 0.32 144.44 M173.14 294.68 C106.25 238.67, 41.51 180.05, 0.32 144.44 M172.75 289.04 C134.03 253.28, 89.86 219.25, 0.68 139.45 M172.75 289.04 C115.43 238.95, 58.05 189.2, 0.68 139.45 M173.11 284.05 C130.99 246.84, 89.21 212.06, 0.28 133.81 M173.11 284.05 C104.93 224.81, 39.3 165.94, 0.28 133.81 M172.72 278.41 C131.56 243.16, 91.41 204.31, 0.64 128.82 M172.72 278.41 C138.22 248.37, 103.66 216.99, 0.64 128.82 M173.08 273.42 C108.72 219.04, 46.59 162.14, 0.25 123.18 M173.08 273.42 C121.9 229.46, 72.86 185.48, 0.25 123.18 M172.68 267.78 C137.27 238.9, 101.84 206.98, 0.61 118.19 M172.68 267.78 C116.3 218.58, 57.07 168.13, 0.61 118.19 M173.04 262.79 C111.17 205.96, 47.07 151.93, 0.21 112.55 M173.04 262.79 C122.01 217.2, 70.31 171.84, 0.21 112.55 M172.65 257.15 C107.01 202.33, 41.79 143.25, 0.57 107.56 M172.65 257.15 C109.42 200.75, 43.12 144.21, 0.57 107.56 M173.01 252.16 C126.6 214.43, 78.96 170.7, 0.18 101.92 M173.01 252.16 C131.42 216.81, 89.67 181.02, 0.18 101.92 M172.61 246.52 C129.08 207.03, 84.03 166.56, 0.54 96.93 M172.61 246.52 C134.36 214.22, 95.05 181.32, 0.54 96.93 M172.97 241.53 C114.03 187.46, 57.38 137.52, 0.14 91.29 M172.97 241.53 C137.46 212.43, 103.01 181.31, 0.14 91.29 M172.58 235.88 C110.8 182.33, 50.95 130.12, 0.5 86.3 M172.58 235.88 C117.97 188.52, 62.77 140.29, 0.5 86.3 M172.94 230.9 C106.67 174.56, 41.84 115.4, 0.11 80.66 M172.94 230.9 C121.34 188.09, 70.63 142.9, 0.11 80.66 M172.54 225.25 C135.76 190.43, 95.28 158.54, 0.47 75.67 M172.54 225.25 C110.25 173.09, 49.63 119.46, 0.47 75.67 M172.9 220.27 C137.94 191.47, 103.14 160.63, 0.07 70.03 M172.9 220.27 C118.92 173.82, 65.72 127.27, 0.07 70.03 M172.51 214.62 C135.87 181.61, 96.71 148.76, 0.43 65.04 M172.51 214.62 C113.37 162.41, 53.86 111.82, 0.43 65.04 M172.87 209.64 C110.64 154.76, 47.64 101.08, 0.04 59.4 M172.87 209.64 C130.49 171.96, 87.44 135.08, 0.04 59.4 M172.47 203.99 C107.54 146.83, 43.43 87.16, 0.4 54.41 M172.47 203.99 C106.44 144.59, 39.84 88.27, 0.4 54.41 M172.83 199.01 C130.02 160.16, 85.61 123.94, 0.01 48.77 M172.83 199.01 C106.45 141.14, 39.57 81.89, 0.01 48.77 M172.44 193.36 C116.48 143.71, 64.45 97.29, 0.37 43.78 M172.44 193.36 C123.14 150.07, 72.49 106.54, 0.37 43.78 M172.8 188.38 C104.17 130.52, 37.43 71.16, -0.03 38.14 M172.8 188.38 C134.42 157.47, 95.78 124.6, -0.03 38.14 M172.4 182.73 C120.79 137.51, 66.74 92.52, 0.33 33.15 M172.4 182.73 C115.49 132.88, 58.87 84.3, 0.33 33.15 M172.76 177.75 C122.49 134.07, 72.34 90.98, 2.2 29.48 M172.76 177.75 C120.57 130.83, 68.64 84.39, 2.2 29.48 M172.37 172.1 C131.41 135.69, 92.36 102.82, 2.56 24.49 M172.37 172.1 C117.55 125.99, 64.04 79.57, 2.56 24.49 M172.73 167.12 C128.46 130.02, 84.98 91.85, 3.68 20.16 M172.73 167.12 C131.62 129.66, 89.81 95.01, 3.68 20.16 M172.34 161.47 C132.05 123.95, 92.31 90.92, 4.04 15.17 M172.34 161.47 C122.07 116.32, 69.96 72.54, 4.04 15.17 M172.7 156.49 C112.4 104.54, 48.04 48.22, 6.66 12.15 M172.7 156.49 C125.32 114.36, 78.35 74.29, 6.66 12.15 M172.3 150.84 C131.16 114.43, 87.87 74.4, 8.53 8.48 M172.3 150.84 C122.9 107.15, 73.46 64.25, 8.53 8.48 M172.66 145.86 C127.87 104.8, 80.75 63.52, 10.4 4.8 M172.66 145.86 C124.86 104.5, 78.73 63.05, 10.4 4.8 M173.02 140.87 C127.07 98.57, 77.88 58.87, 14.53 3.1 M173.02 140.87 C117.65 91.2, 59.68 42.18, 14.53 3.1 M172.63 135.23 C136.51 103.46, 98.46 70.1, 18.67 1.39 M172.63 135.23 C136.98 104.62, 101.68 74.66, 18.67 1.39 M172.99 130.24 C118.95 86.12, 66.21 38.33, 23.55 0.34 M172.99 130.24 C132.63 95.5, 93.18 62.15, 23.55 0.34 M172.59 124.6 C139.6 95.52, 106.7 65.47, 29.2 -0.05 M172.59 124.6 C134.79 92.36, 98 60.28, 29.2 -0.05 M172.95 119.61 C132.13 85.58, 93.22 51.73, 33.33 -1.76 M172.95 119.61 C136.02 89.45, 100.43 57.32, 33.33 -1.76 M172.56 113.97 C135.37 81, 96.02 46.65, 39.73 -1.5 M172.56 113.97 C144.11 88.88, 115.03 63.81, 39.73 -1.5 M172.92 108.98 C130.32 72.39, 86.88 33.21, 45.37 -1.89 M172.92 108.98 C130.68 71.68, 87.98 35.62, 45.37 -1.89 M172.52 103.34 C127.8 67.53, 83.97 28.12, 51.77 -1.63 M172.52 103.34 C129.88 66.06, 88.29 29.44, 51.77 -1.63 M172.88 98.35 C143.47 75.21, 115.19 48.27, 58.17 -1.37 M172.88 98.35 C137.09 67.68, 101.61 36, 58.17 -1.37 M172.49 92.71 C147.81 70.41, 125.57 50.59, 63.81 -1.77 M172.49 92.71 C150.16 74.66, 126.44 53.76, 63.81 -1.77 M172.85 87.72 C140.5 57.73, 107.35 31.18, 70.21 -1.5 M172.85 87.72 C134.45 55.07, 96.32 22.81, 70.21 -1.5 M172.45 82.08 C136.31 50.02, 96.43 14.9, 76.61 -1.24 M172.45 82.08 C141.46 54.77, 111.36 27.84, 76.61 -1.24 M172.81 77.09 C142.18 48.06, 110.23 24.2, 82.25 -1.64 M172.81 77.09 C141.49 50.71, 112.58 25.13, 82.25 -1.64 M172.42 71.45 C140.79 41.77, 107.51 13.87, 88.65 -1.38 M172.42 71.45 C146.5 48.14, 119.24 24.23, 88.65 -1.38 M172.78 66.46 C149.22 45.01, 129.17 28.1, 95.04 -1.11 M172.78 66.46 C144.09 42.18, 116.75 17.22, 95.04 -1.11 M172.39 60.82 C150.9 39.49, 127.08 19.79, 100.69 -1.51 M172.39 60.82 C156.87 46.45, 139.88 33.11, 100.69 -1.51 M172.75 55.83 C147.72 31.4, 121.22 10.58, 107.09 -1.25 M172.75 55.83 C153.8 40.85, 136.06 23.29, 107.09 -1.25 M172.35 50.19 C156.42 37.82, 144.02 23.95, 112.73 -1.64 M172.35 50.19 C150.48 31.61, 127.36 12.04, 112.73 -1.64 M172.71 45.2 C156.48 29.5, 141.04 15.8, 119.13 -1.38 M172.71 45.2 C160 34.64, 149.19 24.25, 119.13 -1.38 M172.32 39.56 C163.32 31.23, 150.63 21.68, 125.52 -1.12 M172.32 39.56 C160.4 29.23, 147.44 18.73, 125.52 -1.12 M172.68 34.57 C159.85 25.55, 149.38 12.42, 131.17 -1.51 M172.68 34.57 C164.1 27.06, 155.08 20, 131.17 -1.51 M172.28 28.93 C160.93 21.84, 153.51 12.9, 137.57 -1.25 M172.28 28.93 C161.27 19.04, 150.29 10.15, 137.57 -1.25 M171.89 23.28 C165.25 15.25, 156.54 11.52, 143.96 -0.99 M171.89 23.28 C160.74 12.82, 150.8 4.06, 143.96 -0.99 M169.23 15.67 C164.12 12.9, 162.89 9.27, 153.38 1.89 M169.23 15.67 C163.3 11.66, 157.13 5.73, 153.38 1.89" stroke="#fa5252" stroke-width="0.5" fill="none"></path><path d="M32 0 C59.62 -1.36, 89.95 0.78, 139.21 0 M32 0 C60.2 0.06, 88.09 -0.93, 139.21 0 M139.21 0 C161.48 -0.7, 169.36 11.57, 171.21 32 M139.21 0 C160.5 -1.48, 169.26 11.73, 171.21 32 M171.21 32 C173.5 210.52, 172.86 388.07, 171.21 556.43 M171.21 32 C173.27 207.02, 172.97 381.65, 171.21 556.43 M171.21 556.43 C172.64 576.73, 158.98 589.67, 139.21 588.43 M171.21 556.43 C172.24 577.03, 162.53 586.53, 139.21 588.43 M139.21 588.43 C117.27 588.92, 93.5 588.55, 32 588.43 M139.21 588.43 C107.44 586.59, 74.75 588.31, 32 588.43 M32 588.43 C11.33 589.15, -0.95 578.39, 0 556.43 M32 588.43 C10.65 588.86, 1.93 576.01, 0 556.43 M0 556.43 C-0.91 350.79, -1.22 144.52, 0 32 M0 556.43 C0.28 352.28, 0.28 148.12, 0 32 M0 32 C0.84 10.69, 10.67 -1.78, 32 0 M0 32 C0.58 8.56, 10.83 -1.64, 32 0" stroke="#000000" stroke-width="1" fill="none"></path></g><g stroke-linecap="round"><g stroke-opacity="0.5" fill-opacity="0.5" transform="translate(226.24237534088763 69.7831452376272) rotate(0 1.8788123295561832 320.1084273811864)"><path d="M-1.81 -1.41 C-1.46 105.51, 2.98 533.58, 4.18 640.4 M2.41 3.99 C2.23 111.51, 1.83 537.76, 2.17 644.13" stroke="#000000" stroke-width="1" fill="none"></path></g></g><mask></mask><g stroke-linecap="round"><g stroke-opacity="0.5" fill-opacity="0.5" transform="translate(222.80967182471613 709.3084857403628) rotate(0 612.5655380736579 0.07853690524029844)"><path d="M0.42 0.18 C205.19 0.32, 1022.57 -0.37, 1226.77 -0.56 M-2.79 -2.19 C201.91 -1.5, 1020.94 2.06, 1225.42 2.68" stroke="#000000" stroke-width="1" fill="none"></path></g></g><mask></mask><g stroke-opacity="0.5" fill-opacity="0.5" stroke-linecap="round" transform="translate(991.50161520335 650) rotate(0 84.23585483053671 23.96168394391384)"><path d="M3.19 2.77 C3.19 2.77, 3.19 2.77, 3.19 2.77 M3.19 2.77 C3.19 2.77, 3.19 2.77, 3.19 2.77 M1.62 10.68 C5.3 7.79, 8.16 5.91, 10.14 0.87 M1.62 10.68 C3.91 7.62, 7.41 4.62, 10.14 0.87 M2.01 16.32 C6.38 12.24, 6.12 10.34, 14.48 1.98 M2.01 16.32 C6.21 11.33, 9.14 7.56, 14.48 1.98 M1.75 22.72 C8.92 13.97, 16.93 8.61, 19.46 2.34 M1.75 22.72 C7.91 15.49, 15.01 8.22, 19.46 2.34 M1.49 29.12 C8.68 21.44, 14.7 12, 25.11 1.95 M1.49 29.12 C8.01 20.73, 16.33 11.21, 25.11 1.95 M1.88 34.76 C11.32 23.92, 24.07 9.67, 30.09 2.31 M1.88 34.76 C10.47 24.17, 18.72 14.71, 30.09 2.31 M2.28 40.4 C11.85 26.59, 25.32 15.05, 35.74 1.91 M2.28 40.4 C13.67 27.19, 25.99 14.46, 35.74 1.91 M3.33 45.29 C18.12 28.74, 30.83 12.23, 40.72 2.27 M3.33 45.29 C15.24 32.13, 28.53 16.66, 40.72 2.27 M7 47.16 C18.08 34.45, 29.75 20.17, 46.37 1.88 M7 47.16 C19.59 31.74, 32.68 19.01, 46.37 1.88 M11.99 47.52 C24.94 34.85, 34.26 21.91, 51.35 2.24 M11.99 47.52 C22.2 35.23, 32.51 23.38, 51.35 2.24 M17.63 47.13 C30.78 31.15, 43.65 16.01, 56.34 2.6 M17.63 47.13 C31.85 30.73, 47.18 14.3, 56.34 2.6 M22.62 47.49 C39.34 29.04, 53.04 11.3, 61.98 2.21 M22.62 47.49 C30.93 37, 40.47 27.55, 61.98 2.21 M28.26 47.09 C41.98 32.53, 56.07 16.78, 66.97 2.57 M28.26 47.09 C41.31 33.41, 53.86 19.19, 66.97 2.57 M33.25 47.45 C44.49 32.42, 55.78 21.6, 72.61 2.17 M33.25 47.45 C47.95 29.69, 63.17 14.51, 72.61 2.17 M38.24 47.81 C51.75 32.94, 66.41 16.74, 77.6 2.53 M38.24 47.81 C51.29 31.91, 65.33 15.74, 77.6 2.53 M43.88 47.42 C56.61 33.1, 69.71 19.12, 83.24 2.14 M43.88 47.42 C53.75 38.01, 61.76 27.64, 83.24 2.14 M48.87 47.78 C59.61 33.79, 69.85 20.94, 88.23 2.5 M48.87 47.78 C62.58 32.62, 74.29 17.66, 88.23 2.5 M54.51 47.38 C68.47 33.1, 77.56 20.49, 93.22 2.86 M54.51 47.38 C65.99 33.97, 76.43 21.75, 93.22 2.86 M59.5 47.74 C71.71 34.15, 85.65 17.98, 98.86 2.46 M59.5 47.74 C71.89 33.64, 84.52 19.99, 98.86 2.46 M65.14 47.35 C80.24 29.03, 92.65 15.57, 103.85 2.82 M65.14 47.35 C73.9 36.73, 82.79 27.96, 103.85 2.82 M70.13 47.71 C83.76 31.2, 95.35 19.11, 109.49 2.43 M70.13 47.71 C78.92 36.51, 89.32 25.45, 109.49 2.43 M75.77 47.32 C85.2 37, 96 25.3, 114.48 2.79 M75.77 47.32 C86.48 33.51, 97.75 20.34, 114.48 2.79 M80.76 47.68 C90.51 35.11, 104.27 23.24, 120.12 2.39 M80.76 47.68 C88.45 36.86, 97.71 27.18, 120.12 2.39 M85.74 48.04 C98.2 33.62, 108.71 21.41, 125.11 2.75 M85.74 48.04 C98.32 32.42, 111.48 16.85, 125.11 2.75 M91.39 47.64 C104.48 30.95, 120.21 14.36, 130.75 2.36 M91.39 47.64 C100.03 37.08, 110.16 27.04, 130.75 2.36 M96.37 48 C106.88 36.83, 119.59 21.3, 135.74 2.72 M96.37 48 C111.11 30.83, 127.01 11.69, 135.74 2.72 M102.02 47.61 C113.44 36.17, 123.14 22.88, 140.72 3.08 M102.02 47.61 C111.33 35.77, 121.88 24.71, 140.72 3.08 M107 47.97 C121.84 31.98, 131.44 20.71, 146.37 2.68 M107 47.97 C115.77 36.98, 126.07 28, 146.37 2.68 M112.65 47.57 C123.22 35.54, 132.08 25.94, 151.35 3.04 M112.65 47.57 C126.69 32.62, 137.75 19.34, 151.35 3.04 M117.63 47.93 C133.41 30.6, 145.52 15.72, 157 2.65 M117.63 47.93 C128.18 36.31, 137.48 24.29, 157 2.65 M123.28 47.54 C134.71 32.44, 145.95 20.35, 163.3 1.5 M123.28 47.54 C135.41 34.77, 146.57 19.94, 163.3 1.5 M128.26 47.9 C140.74 34.85, 150.4 22.96, 166.32 4.12 M128.26 47.9 C141.55 30.84, 157.83 14, 166.32 4.12 M133.25 48.26 C146.43 31.68, 159.33 18.66, 168.02 8.26 M133.25 48.26 C143.48 37.34, 151.66 26.33, 168.02 8.26 M138.89 47.86 C148.36 35.69, 157.91 28.6, 170.38 11.64 M138.89 47.86 C151.74 32.66, 164.16 20.12, 170.38 11.64 M143.88 48.22 C150.62 38.08, 161.96 28.03, 170.78 17.28 M143.88 48.22 C152.06 39.11, 161.03 28.24, 170.78 17.28 M149.52 47.83 C154.92 43.41, 159.51 37.81, 170.52 23.68 M149.52 47.83 C156.55 38.82, 164.43 31.17, 170.52 23.68 M154.51 48.19 C160.05 43.16, 167.94 32.76, 170.26 30.08 M154.51 48.19 C157.51 44.95, 160.96 39.96, 170.26 30.08 M158.19 50.06 C162.66 47.07, 162.89 41.32, 170 36.47 M158.19 50.06 C159.84 47.72, 163.5 44.57, 170 36.47 M1.96 43.48 C1.96 43.48, 1.96 43.48, 1.96 43.48 M1.96 43.48 C1.96 43.48, 1.96 43.48, 1.96 43.48 M12.13 47.02 C10.16 44.9, 5.2 40.03, 0.81 37.18 M12.13 47.02 C8.76 44.33, 5.06 41.27, 0.81 37.18 M17.77 46.63 C13.06 40.54, 7.38 36.14, 0.41 31.54 M17.77 46.63 C13.37 43.02, 9.18 39.83, 0.41 31.54 M24.17 46.89 C20.68 44.53, 13.29 37.25, 0.77 26.55 M24.17 46.89 C19.11 42.89, 12.17 37.73, 0.77 26.55 M29.81 46.49 C20.92 39.22, 10.78 28.27, 0.38 20.91 M29.81 46.49 C20.34 39.31, 10.57 29.72, 0.38 20.91 M36.21 46.75 C24.66 36.35, 12.28 25.38, 0.74 15.92 M36.21 46.75 C24.26 35.93, 11.95 25.88, 0.74 15.92 M42.61 47.02 C28.1 32.4, 9.57 20.02, 0.34 10.28 M42.61 47.02 C27.21 34.24, 13.7 21.12, 0.34 10.28 M48.25 46.62 C35.33 33.92, 22.54 22.7, 1.46 5.95 M48.25 46.62 C37.56 37.19, 27.98 29.12, 1.46 5.95 M54.65 46.88 C42.79 33.96, 26.87 23.21, 3.33 2.27 M54.65 46.88 C41.49 36.41, 30.19 24.28, 3.33 2.27 M61.04 47.14 C44.31 33.43, 26.82 19.32, 8.22 1.22 M61.04 47.14 C50.98 37.95, 40.41 28.46, 8.22 1.22 M66.69 46.75 C48.56 31.13, 34.23 17.45, 12.35 -0.49 M66.69 46.75 C49.2 30.98, 32.6 16.34, 12.35 -0.49 M73.09 47.01 C58.18 32.09, 40.77 19.82, 18.75 -0.23 M73.09 47.01 C57.51 32.21, 40.16 17.2, 18.75 -0.23 M79.48 47.27 C61.43 34.13, 44.15 16.48, 24.39 -0.62 M79.48 47.27 C58.82 30.12, 37.18 10.73, 24.39 -0.62 M85.13 46.88 C75.49 37.48, 62.45 28.73, 30.79 -0.36 M85.13 46.88 C71.65 34.44, 55.9 22.29, 30.79 -0.36 M91.52 47.14 C74.66 30.33, 57.84 14.71, 37.19 -0.1 M91.52 47.14 C79.36 36.95, 65.89 25.63, 37.19 -0.1 M97.92 47.4 C80.53 31.88, 63.35 16.93, 42.83 -0.49 M97.92 47.4 C82.78 34.71, 67.66 22.86, 42.83 -0.49 M103.57 47.01 C86.25 34.52, 72.88 18.49, 49.23 -0.23 M103.57 47.01 C83.88 29.07, 64.49 13.51, 49.23 -0.23 M109.96 47.27 C96.78 35.09, 84.21 24.37, 55.62 0.03 M109.96 47.27 C97.26 37.03, 83.9 24.51, 55.62 0.03 M116.36 47.53 C99.92 35.4, 85.27 19.57, 61.27 -0.36 M116.36 47.53 C102.29 35.18, 87.61 21.76, 61.27 -0.36 M122 47.13 C101.64 29.75, 80.46 13.51, 67.66 -0.1 M122 47.13 C102.18 31.1, 81.77 13.4, 67.66 -0.1 M128.4 47.4 C110.86 30.91, 88.47 15.08, 74.06 0.16 M128.4 47.4 C109.67 31.12, 93.44 16.5, 74.06 0.16 M134.04 47 C111.8 28.57, 92.39 12.03, 79.71 -0.24 M134.04 47 C114.76 29.13, 94.57 11.85, 79.71 -0.24 M140.44 47.26 C124.12 30.23, 106.23 18.05, 86.1 0.03 M140.44 47.26 C121.18 31.03, 102.39 15.24, 86.1 0.03 M146.84 47.52 C131.03 32.73, 114.76 23.44, 91.75 -0.37 M146.84 47.52 C135.11 37.67, 125.3 28.16, 91.75 -0.37 M152.48 47.13 C136.99 35.51, 125.89 21.38, 98.14 -0.11 M152.48 47.13 C131.56 30.27, 111.72 10.9, 98.14 -0.11 M158.13 46.73 C146.64 37.83, 136.05 27.05, 104.54 0.15 M158.13 46.73 C136.16 28.29, 115.57 10.13, 104.54 0.15 M163.01 45.68 C145.81 32.34, 130.03 16.47, 110.18 -0.24 M163.01 45.68 C147.68 31.44, 130.68 17.07, 110.18 -0.24 M166.39 43.32 C152.52 33.45, 140.2 22.2, 116.58 0.02 M166.39 43.32 C151.29 30.76, 135.9 17.2, 116.58 0.02 M168.26 39.65 C156.93 28.32, 143.07 19.83, 122.98 0.28 M168.26 39.65 C153.72 28.38, 139.24 14.93, 122.98 0.28 M167.87 34 C159.24 26.71, 151.28 17.67, 128.62 -0.11 M167.87 34 C158.16 27.38, 150.6 18.46, 128.62 -0.11 M168.23 29.02 C157.8 18.63, 146.72 12.23, 135.02 0.15 M168.23 29.02 C157.31 19.06, 145.14 9.85, 135.02 0.15 M168.59 24.03 C161.7 18.54, 156.39 14.82, 141.42 0.41 M168.59 24.03 C160 16.28, 152.19 9.17, 141.42 0.41 M168.19 18.39 C160.65 13.29, 154.82 5.49, 147.06 0.02 M168.19 18.39 C162.78 14.56, 157.84 8.22, 147.06 0.02 M168.55 13.4 C163.46 8.91, 156.43 4.42, 153.46 0.28 M168.55 13.4 C164.75 9.19, 160.55 7.71, 153.46 0.28 M168.91 8.41 C165.27 6.54, 163.36 4.56, 159.86 0.54 M168.91 8.41 C165.65 5.54, 163.27 3.51, 159.86 0.54" stroke="#15aabf" stroke-width="0.5" fill="none"></path><path d="M11.98 0 C68.94 -0.98, 125.1 -1.69, 156.49 0 M11.98 0 C48.62 0.96, 87.09 -0.14, 156.49 0 M156.49 0 C162.78 0.93, 169.25 5.42, 168.47 11.98 M156.49 0 C166.19 2.27, 170.51 4.42, 168.47 11.98 M168.47 11.98 C169.9 20.75, 170.07 27.8, 168.47 35.94 M168.47 11.98 C167.86 21.11, 169.09 28.67, 168.47 35.94 M168.47 35.94 C170.19 42.28, 162.91 46.87, 156.49 47.92 M168.47 35.94 C170.72 46.05, 163.84 50.05, 156.49 47.92 M156.49 47.92 C117.95 50.18, 81.44 49.95, 11.98 47.92 M156.49 47.92 C99.83 48.77, 44.11 48.64, 11.98 47.92 M11.98 47.92 C5.67 46.41, 1.86 45.18, 0 35.94 M11.98 47.92 C4.71 49.08, 1.39 44.19, 0 35.94 M0 35.94 C0.89 26.62, 0.11 18.45, 0 11.98 M0 35.94 C-0.1 27.19, 0.15 19.31, 0 11.98 M0 11.98 C0.14 2.57, 5.17 0, 11.98 0 M0 11.98 C-0.94 5.21, 6.05 0.71, 11.98 0" stroke="#000000" stroke-width="1" fill="none"></path></g><g stroke-linecap="round"><g stroke-opacity="0.5" fill-opacity="0.5" transform="translate(517.6039184008237 783.0031926408851) rotate(0 24.902832762697585 8.289450464262018)" fill-rule="evenodd"><path d="M0.34 -0.81 L5.93 -7.58 L1.56 -13.26 L10.05 -20.18 L14.66 -13.92 L22.99 -19.15 L24.79 -24.17 L32.24 -22.61 L34.43 -17.39 L39.09 -12.98 L48.58 -16.54 L51.96 -8.1 L49.74 -2.05 L49.77 6.44 L57.28 9.37 L56.95 16.87 L49.62 15 L45.62 24.53 L47.09 30.31 L41.66 34.3 L36.52 31.21 L28.42 32.31 L27.16 42.1 L15.84 40.79 L14.47 32.27 L6.89 29.33 L1.58 31.67 L-2.83 24.64 L0.53 19.96 L0.05 12.24 L-9.12 7.7 L-6.25 2.58 L1.33 -1.36" stroke="none" stroke-width="0" fill="#e1effc" fill-rule="evenodd"></path><path d="M0 0 C1.07 -2.26, 3.05 -5.49, 4.34 -7.07 M0 0 C1.26 -2.81, 3.49 -5.29, 4.34 -7.07 M4.34 -7.07 C3.07 -8.04, 3.03 -9.29, 1.81 -13.06 M4.34 -7.07 C3.53 -9.28, 2.3 -11.37, 1.81 -13.06 M1.81 -13.06 C2.87 -14.05, 6.62 -15.39, 9.7 -18.74 M1.81 -13.06 C3.45 -14.65, 5.83 -15.43, 9.7 -18.74 M9.7 -18.74 C11.8 -17.1, 13.01 -16.09, 14.49 -15.31 M9.7 -18.74 C11.44 -17.45, 12.57 -16.75, 14.49 -15.31 M14.49 -15.31 C16.9 -15.96, 19.63 -17.6, 22.16 -17.6 M14.49 -15.31 C16.81 -16.23, 19.86 -17.11, 22.16 -17.6 M22.16 -17.6 C23.22 -19.19, 23.03 -21.86, 24.23 -23.91 M22.16 -17.6 C22.8 -19.86, 23.31 -21.62, 24.23 -23.91 M24.23 -23.91 C26.56 -23.81, 28.99 -23.89, 32.41 -23 M24.23 -23.91 C25.7 -23.58, 27.73 -23.23, 32.41 -23 M32.41 -23 C32.91 -21.85, 32.57 -20.76, 33.36 -17.39 M32.41 -23 C32.78 -21.6, 33.01 -19.95, 33.36 -17.39 M33.36 -17.39 C35.76 -16.4, 37.02 -15.81, 40.78 -12.93 M33.36 -17.39 C35.28 -16.1, 37.66 -15.22, 40.78 -12.93 M40.78 -12.93 C42.94 -13.81, 44.14 -13.61, 47.62 -15.21 M40.78 -12.93 C43 -14.02, 45.22 -14.85, 47.62 -15.21 M47.62 -15.21 C48.72 -12.66, 51.28 -11.53, 52.56 -9.12 M47.62 -15.21 C49.05 -13.49, 50.85 -10.96, 52.56 -9.12 M52.56 -9.12 C50.82 -7.21, 49.63 -4.79, 49.05 -3.61 M52.56 -9.12 C51.37 -7.38, 50.24 -5.73, 49.05 -3.61 M49.05 -3.61 C49.89 -1.89, 50.98 0.92, 51.42 4.56 M49.05 -3.61 C49.68 -0.1, 50.97 2.79, 51.42 4.56 M51.42 4.56 C52.19 4.88, 54.43 5.13, 57.41 7.51 M51.42 4.56 C53.71 5.49, 55.62 6.91, 57.41 7.51 M57.41 7.51 C57.67 10.65, 57.2 14.02, 56.36 15.78 M57.41 7.51 C57.37 10.82, 56.33 12.95, 56.36 15.78 M56.36 15.78 C53.68 16.31, 52.3 16.82, 50.38 16.92 M56.36 15.78 C54.7 15.97, 52.37 16.43, 50.38 16.92 M50.38 16.92 C49.36 18.74, 48.94 21.78, 45.91 24.9 M50.38 16.92 C48.44 19.87, 47.64 22.37, 45.91 24.9 M45.91 24.9 C46.24 25.76, 46.9 27.34, 48.38 30.23 M45.91 24.9 C46.43 25.82, 47.23 27.39, 48.38 30.23 M48.38 30.23 C45.19 31.62, 43.6 35.16, 42.2 35.55 M48.38 30.23 C46.98 31.53, 45.01 33.03, 42.2 35.55 M42.2 35.55 C40.85 34.61, 39.11 34.11, 37.16 32.13 M42.2 35.55 C40.47 34.81, 38.99 33.29, 37.16 32.13 M37.16 32.13 C35.43 31.96, 32.69 33.03, 28.7 34.22 M37.16 32.13 C34.75 32.76, 31.57 33.41, 28.7 34.22 M28.7 34.22 C27.54 36.17, 27.08 36.85, 25.76 40.49 M28.7 34.22 C28.09 36.06, 27.57 37.54, 25.76 40.49 M25.76 40.49 C23.38 39.41, 22.69 40.52, 17.3 39.16 M25.76 40.49 C22.46 40.21, 19.62 39.84, 17.3 39.16 M17.3 39.16 C16.42 37.18, 16.83 35.67, 16.25 32.7 M17.3 39.16 C16.92 37.32, 16.86 34.76, 16.25 32.7 M16.25 32.7 C15.01 31.7, 12.8 30.77, 8.74 29.66 M16.25 32.7 C13.6 31.32, 10.64 30.1, 8.74 29.66 M8.74 29.66 C7.68 30.52, 6.5 30.18, 3.23 31.46 M8.74 29.66 C7.47 30.09, 5.58 30.81, 3.23 31.46 M3.23 31.46 C1.93 30.17, 0.52 28.79, -1.71 25.76 M3.23 31.46 C1.59 29.85, 0.85 28.74, -1.71 25.76 M-1.71 25.76 C-0.93 24.5, -0.59 22.37, 1.05 19.87 M-1.71 25.76 C-0.97 23.82, 0.3 21.85, 1.05 19.87 M1.05 19.87 C0.46 17.8, -0.17 16.3, -1.24 11.98 M1.05 19.87 C0.55 16.67, -0.69 13.64, -1.24 11.98 M-1.24 11.98 C-2.69 10.3, -5.16 10.4, -7.6 8.55 M-1.24 11.98 C-3.4 11.11, -5.24 9.78, -7.6 8.55 M-7.6 8.55 C-7.3 5.72, -6.02 2.34, -6.27 1.43 M-7.6 8.55 C-6.81 5.97, -6.49 3.08, -6.27 1.43 M-6.27 1.43 C-4.3 0.92, -1.4 0.35, 0 0 M-6.27 1.43 C-3.88 1.21, -1.37 0.62, 0 0 M0 0 C0 0, 0 0, 0 0 M0 0 C0 0, 0 0, 0 0" stroke="#aaa" stroke-width="1" fill="none"></path></g></g><mask></mask><g stroke-opacity="0.5" fill-opacity="0.5" stroke-linecap="round" transform="translate(522.6162355086431 771.316884729406) rotate(0 19.686493995691265 19.686493995691308)"><path d="M15.14 0.08 C18.92 -1.06, 24.77 0.23, 28.5 2.28 C32.23 4.32, 35.85 8.54, 37.54 12.36 C39.22 16.18, 39.77 21.13, 38.62 25.2 C37.46 29.26, 34.23 34.37, 30.59 36.74 C26.95 39.11, 20.95 39.97, 16.76 39.41 C12.56 38.85, 8.24 36.52, 5.41 33.38 C2.58 30.25, 0.05 24.94, -0.22 20.62 C-0.49 16.3, 1.01 10.87, 3.78 7.48 C6.55 4.08, 14.13 1.42, 16.39 0.24 C18.65 -0.94, 17.32 0.1, 17.33 0.42 M21.07 -0.23 C25.06 -0.18, 29.34 2.39, 32.32 5.35 C35.3 8.31, 38.41 13.29, 38.96 17.55 C39.51 21.81, 37.77 27.36, 35.63 30.9 C33.49 34.44, 30.04 37.68, 26.12 38.78 C22.21 39.88, 16.16 39.2, 12.15 37.51 C8.15 35.82, 4.04 32.29, 2.1 28.64 C0.16 24.99, -0.48 19.76, 0.5 15.6 C1.48 11.44, 4.6 6.3, 7.96 3.67 C11.33 1.05, 18.65 0.45, 20.69 -0.17 C22.73 -0.79, 20.13 -0.46, 20.21 -0.03" stroke="none" stroke-width="0" fill="#c9d5e1"></path><path d="M17.5 -0.32 C21.37 -0.98, 27.02 1.3, 30.54 3.68 C34.07 6.06, 37.45 9.96, 38.68 13.95 C39.91 17.95, 39.75 23.7, 37.93 27.66 C36.12 31.62, 31.64 35.79, 27.79 37.72 C23.94 39.65, 18.79 40.27, 14.81 39.21 C10.83 38.16, 6.34 34.85, 3.92 31.38 C1.5 27.91, 0.07 22.68, 0.29 18.37 C0.51 14.05, 2.28 8.59, 5.23 5.49 C8.18 2.39, 15.72 0.61, 18 -0.23 C20.28 -1.07, 18.91 0.05, 18.93 0.45 M24.14 1.08 C27.98 1.79, 32.54 4.22, 35.17 7.6 C37.79 10.97, 40.02 17.18, 39.89 21.33 C39.76 25.49, 37.25 29.45, 34.38 32.53 C31.51 35.61, 26.82 39.22, 22.67 39.82 C18.52 40.42, 13.06 38.51, 9.48 36.13 C5.91 33.75, 2.55 29.59, 1.21 25.54 C-0.13 21.48, -0.25 15.64, 1.43 11.8 C3.12 7.97, 7.61 4.5, 11.3 2.51 C14.99 0.52, 21.38 0.12, 23.57 -0.12 C25.76 -0.37, 24.37 0.66, 24.44 1.06" stroke="transparent" stroke-width="1" fill="none"></path></g><g stroke-linecap="round"><g stroke-opacity="0.5" fill-opacity="0.5" transform="translate(605.3148786006218 784.1910467933199) rotate(0 9.289463832266136 3.0922004340193325)" fill-rule="evenodd"><path d="M-0.12 -0.1 L1.79 -3.36 L0.76 -4.18 L4.03 -7.76 L5.69 -5.84 L8.18 -6.37 L9.57 -8.92 L11.25 -8.61 L12.93 -7.15 L14.91 -4.31 L18.11 -4.89 L18.78 -2.47 L18.23 -0.42 L19.48 2.25 L21.04 1.84 L20.88 5.7 L18.15 6.36 L16.85 8.66 L17.73 10.82 L15.6 12.31 L14.56 12.79 L9.98 13.58 L8.72 14.89 L5.52 14.44 L5.24 12.3 L2.7 10.5 L0.95 11.78 L0.01 9.74 L-0.37 6.98 L-0.45 5.04 L-2.17 2.51 L-1.37 1.16 L0.61 -0.4" stroke="none" stroke-width="0" fill="#e1effc" fill-rule="evenodd"></path><path d="M0 0 C0.67 -0.8, 1.04 -1.9, 1.62 -2.64 M0 0 C0.37 -0.65, 0.84 -1.47, 1.62 -2.64 M1.62 -2.64 C1.32 -3.41, 0.99 -4.24, 0.68 -4.87 M1.62 -2.64 C1.37 -3.21, 1.19 -3.75, 0.68 -4.87 M0.68 -4.87 C1.55 -5.62, 2.81 -6.4, 3.62 -6.99 M0.68 -4.87 C1.47 -5.5, 2.26 -5.9, 3.62 -6.99 M3.62 -6.99 C4.33 -6.53, 4.97 -5.95, 5.41 -5.71 M3.62 -6.99 C4.27 -6.52, 4.9 -6.09, 5.41 -5.71 M5.41 -5.71 C6.39 -5.93, 7.17 -6.36, 8.26 -6.57 M5.41 -5.71 C6.2 -5.91, 6.85 -6.11, 8.26 -6.57 M8.26 -6.57 C8.63 -7.43, 8.84 -8.45, 9.04 -8.92 M8.26 -6.57 C8.46 -7.11, 8.64 -7.76, 9.04 -8.92 M9.04 -8.92 C9.77 -8.7, 10.68 -8.85, 12.09 -8.58 M9.04 -8.92 C9.96 -8.75, 11.08 -8.67, 12.09 -8.58 M12.09 -8.58 C12.17 -7.95, 12.32 -7.3, 12.45 -6.49 M12.09 -8.58 C12.16 -8.1, 12.32 -7.52, 12.45 -6.49 M12.45 -6.49 C13.2 -6.05, 14.03 -5.56, 15.21 -4.82 M12.45 -6.49 C13.28 -6.03, 14.17 -5.4, 15.21 -4.82 M15.21 -4.82 C15.94 -5.17, 16.52 -5.34, 17.76 -5.67 M15.21 -4.82 C15.78 -4.95, 16.38 -5.23, 17.76 -5.67 M17.76 -5.67 C18.54 -4.78, 19.18 -4.06, 19.61 -3.4 M17.76 -5.67 C18.18 -5.28, 18.56 -4.81, 19.61 -3.4 M19.61 -3.4 C19.24 -2.82, 18.97 -2.3, 18.3 -1.35 M19.61 -3.4 C19.17 -2.79, 18.72 -2.08, 18.3 -1.35 M18.3 -1.35 C18.65 -0.48, 18.65 -0.05, 19.18 1.7 M18.3 -1.35 C18.57 -0.13, 19.03 0.97, 19.18 1.7 M19.18 1.7 C19.84 1.9, 20.38 2.35, 21.42 2.8 M19.18 1.7 C19.83 2, 20.38 2.33, 21.42 2.8 M21.42 2.8 C21.39 3.58, 21.24 4.79, 21.03 5.89 M21.42 2.8 C21.3 4.05, 21.17 5.15, 21.03 5.89 M21.03 5.89 C20.34 6.01, 19.61 6.23, 18.79 6.31 M21.03 5.89 C20.44 6, 19.92 6.11, 18.79 6.31 M18.79 6.31 C18.44 7.04, 17.92 7.79, 17.13 9.29 M18.79 6.31 C18.17 7.34, 17.62 8.3, 17.13 9.29 M17.13 9.29 C17.26 9.75, 17.57 10.27, 18.05 11.27 M17.13 9.29 C17.39 9.77, 17.59 10.11, 18.05 11.27 M18.05 11.27 C17.52 11.64, 16.99 12.2, 15.74 13.26 M18.05 11.27 C17.37 11.88, 16.74 12.4, 15.74 13.26 M15.74 13.26 C15.19 12.79, 14.59 12.42, 13.86 11.98 M15.74 13.26 C14.95 12.7, 14.25 12.24, 13.86 11.98 M13.86 11.98 C13.19 12.21, 12.42 12.48, 10.71 12.76 M13.86 11.98 C12.89 12.16, 12.07 12.37, 10.71 12.76 M10.71 12.76 C10.21 13.76, 9.97 14.61, 9.61 15.1 M10.71 12.76 C10.26 13.59, 9.91 14.46, 9.61 15.1 M9.61 15.1 C9.08 14.87, 8.45 14.87, 6.45 14.61 M9.61 15.1 C8.53 14.9, 7.5 14.7, 6.45 14.61 M6.45 14.61 C6.39 14, 6.25 13.33, 6.06 12.2 M6.45 14.61 C6.27 13.69, 6.15 12.78, 6.06 12.2 M6.06 12.2 C5.39 11.75, 4.59 11.6, 3.26 11.06 M6.06 12.2 C5.39 11.91, 4.75 11.71, 3.26 11.06 M3.26 11.06 C2.46 11.26, 1.75 11.63, 1.21 11.74 M3.26 11.06 C2.66 11.3, 2.09 11.45, 1.21 11.74 M1.21 11.74 C0.57 11.07, -0.02 10.26, -0.64 9.61 M1.21 11.74 C0.67 11.16, 0.19 10.54, -0.64 9.61 M-0.64 9.61 C-0.19 8.71, 0.03 7.87, 0.39 7.41 M-0.64 9.61 C-0.33 8.91, -0.02 8.16, 0.39 7.41 M0.39 7.41 C0.25 6.45, -0.21 5.79, -0.46 4.47 M0.39 7.41 C0.21 6.68, -0.06 6.09, -0.46 4.47 M-0.46 4.47 C-0.95 4.29, -1.63 3.91, -2.84 3.19 M-0.46 4.47 C-1.33 3.94, -2.27 3.45, -2.84 3.19 M-2.84 3.19 C-2.59 2.48, -2.43 1.73, -2.34 0.53 M-2.84 3.19 C-2.62 2.34, -2.51 1.37, -2.34 0.53 M-2.34 0.53 C-1.55 0.32, -0.93 0.24, 0 0 M-2.34 0.53 C-1.39 0.35, -0.45 0.08, 0 0 M0 0 C0 0, 0 0, 0 0 M0 0 C0 0, 0 0, 0 0" stroke="#aaa" stroke-width="1" fill="none"></path></g></g><mask></mask><g stroke-opacity="0.5" fill-opacity="0.5" stroke-linecap="round" transform="translate(608.0408886369273 780.5946434175735) rotate(0 6.599133044407097 6.599133044407154)"><path d="M13.2 6.6 C13.2 6.98, 13.16 7.37, 13.1 7.75 C13.03 8.12, 12.93 8.5, 12.8 8.86 C12.67 9.22, 12.51 9.57, 12.31 9.9 C12.12 10.23, 11.9 10.55, 11.65 10.84 C11.41 11.13, 11.13 11.41, 10.84 11.65 C10.55 11.9, 10.23 12.12, 9.9 12.31 C9.57 12.51, 9.22 12.67, 8.86 12.8 C8.5 12.93, 8.12 13.03, 7.75 13.1 C7.37 13.16, 6.98 13.2, 6.6 13.2 C6.22 13.2, 5.83 13.16, 5.45 13.1 C5.08 13.03, 4.7 12.93, 4.34 12.8 C3.98 12.67, 3.63 12.51, 3.3 12.31 C2.97 12.12, 2.65 11.9, 2.36 11.65 C2.06 11.41, 1.79 11.13, 1.54 10.84 C1.3 10.55, 1.08 10.23, 0.88 9.9 C0.69 9.57, 0.53 9.22, 0.4 8.86 C0.27 8.5, 0.17 8.12, 0.1 7.75 C0.03 7.37, 0 6.98, 0 6.6 C0 6.22, 0.03 5.83, 0.1 5.45 C0.17 5.08, 0.27 4.7, 0.4 4.34 C0.53 3.98, 0.69 3.63, 0.88 3.3 C1.08 2.97, 1.3 2.65, 1.54 2.36 C1.79 2.06, 2.06 1.79, 2.36 1.54 C2.65 1.3, 2.97 1.08, 3.3 0.88 C3.63 0.69, 3.98 0.53, 4.34 0.4 C4.7 0.27, 5.08 0.17, 5.45 0.1 C5.83 0.03, 6.22 0, 6.6 0 C6.98 0, 7.37 0.03, 7.75 0.1 C8.12 0.17, 8.5 0.27, 8.86 0.4 C9.22 0.53, 9.57 0.69, 9.9 0.88 C10.23 1.08, 10.55 1.3, 10.84 1.54 C11.13 1.79, 11.41 2.06, 11.65 2.36 C11.9 2.65, 12.12 2.97, 12.31 3.3 C12.51 3.63, 12.67 3.98, 12.8 4.34 C12.93 4.7, 13.03 5.08, 13.1 5.45 C13.16 5.83, 13.18 6.41, 13.2 6.6 C13.21 6.79, 13.21 6.41, 13.2 6.6" stroke="none" stroke-width="0" fill="#c9d5e1"></path><path d="M13.2 6.6 C13.2 6.98, 13.16 7.37, 13.1 7.75 C13.03 8.12, 12.93 8.5, 12.8 8.86 C12.67 9.22, 12.51 9.57, 12.31 9.9 C12.12 10.23, 11.9 10.55, 11.65 10.84 C11.41 11.13, 11.13 11.41, 10.84 11.65 C10.55 11.9, 10.23 12.12, 9.9 12.31 C9.57 12.51, 9.22 12.67, 8.86 12.8 C8.5 12.93, 8.12 13.03, 7.75 13.1 C7.37 13.16, 6.98 13.2, 6.6 13.2 C6.22 13.2, 5.83 13.16, 5.45 13.1 C5.08 13.03, 4.7 12.93, 4.34 12.8 C3.98 12.67, 3.63 12.51, 3.3 12.31 C2.97 12.12, 2.65 11.9, 2.36 11.65 C2.06 11.41, 1.79 11.13, 1.54 10.84 C1.3 10.55, 1.08 10.23, 0.88 9.9 C0.69 9.57, 0.53 9.22, 0.4 8.86 C0.27 8.5, 0.17 8.12, 0.1 7.75 C0.03 7.37, 0 6.98, 0 6.6 C0 6.22, 0.03 5.83, 0.1 5.45 C0.17 5.08, 0.27 4.7, 0.4 4.34 C0.53 3.98, 0.69 3.63, 0.88 3.3 C1.08 2.97, 1.3 2.65, 1.54 2.36 C1.79 2.06, 2.06 1.79, 2.36 1.54 C2.65 1.3, 2.97 1.08, 3.3 0.88 C3.63 0.69, 3.98 0.53, 4.34 0.4 C4.7 0.27, 5.08 0.17, 5.45 0.1 C5.83 0.03, 6.22 0, 6.6 0 C6.98 0, 7.37 0.03, 7.75 0.1 C8.12 0.17, 8.5 0.27, 8.86 0.4 C9.22 0.53, 9.57 0.69, 9.9 0.88 C10.23 1.08, 10.55 1.3, 10.84 1.54 C11.13 1.79, 11.41 2.06, 11.65 2.36 C11.9 2.65, 12.12 2.97, 12.31 3.3 C12.51 3.63, 12.67 3.98, 12.8 4.34 C12.93 4.7, 13.03 5.08, 13.1 5.45 C13.16 5.83, 13.18 6.41, 13.2 6.6 C13.21 6.79, 13.21 6.41, 13.2 6.6" stroke="transparent" stroke-width="1" fill="none"></path></g><g stroke-linecap="round"><g stroke-opacity="0.5" fill-opacity="0.5" transform="translate(557.2190213984663 743.1208641096091) rotate(0 13.664568791926001 4.548549443975162)" fill-rule="evenodd"><path d="M0.08 0.69 L2.79 -4.65 L1.28 -7.3 L5.24 -10.08 L8.48 -8.4 L11.31 -9.69 L13.78 -13.78 L17.48 -12.11 L18.66 -8.76 L21.55 -6.16 L26.07 -7.41 L29.14 -4.46 L26.53 -2.94 L28.07 2.32 L30.86 4.16 L30.66 8.03 L27.32 8.82 L25.05 12.71 L27.25 17.39 L22.43 20.32 L19.5 17.42 L14.82 18.61 L13.31 22.32 L8.93 20.93 L8.66 17.99 L5.44 16.4 L1.01 16.84 L-0.92 14.71 L1.24 10.22 L0.29 7.2 L-3.57 4.29 L-3.43 1.07 L0.21 -0.62" stroke="none" stroke-width="0" fill="#e1effc" fill-rule="evenodd"></path><path d="M0 0 C0.77 -1.24, 1.73 -2.91, 2.38 -3.88 M0 0 C0.92 -1.39, 1.79 -2.71, 2.38 -3.88 M2.38 -3.88 C1.8 -5.14, 1.3 -6.14, 1 -7.17 M2.38 -3.88 C2.09 -4.58, 1.76 -5.51, 1 -7.17 M1 -7.17 C2.11 -7.86, 3.66 -8.82, 5.32 -10.28 M1 -7.17 C2 -7.84, 2.88 -8.46, 5.32 -10.28 M5.32 -10.28 C6.14 -9.91, 6.64 -9.18, 7.95 -8.4 M5.32 -10.28 C6.18 -9.69, 6.93 -9.04, 7.95 -8.4 M7.95 -8.4 C9.26 -8.76, 10.6 -9.09, 12.16 -9.66 M7.95 -8.4 C9.43 -8.92, 10.74 -9.19, 12.16 -9.66 M12.16 -9.66 C12.5 -11.03, 13.11 -12.23, 13.3 -13.12 M12.16 -9.66 C12.58 -10.97, 12.98 -12.38, 13.3 -13.12 M13.3 -13.12 C15.03 -12.99, 16.78 -12.93, 17.78 -12.62 M13.3 -13.12 C15.04 -12.99, 16.76 -12.77, 17.78 -12.62 M17.78 -12.62 C17.86 -11.65, 18.07 -10.81, 18.31 -9.54 M17.78 -12.62 C17.92 -11.9, 17.99 -11.16, 18.31 -9.54 M18.31 -9.54 C19.42 -8.77, 20.31 -8.33, 22.37 -7.09 M18.31 -9.54 C19.1 -9.08, 20.07 -8.48, 22.37 -7.09 M22.37 -7.09 C23 -7.54, 23.76 -7.56, 26.13 -8.34 M22.37 -7.09 C23.85 -7.49, 25.15 -7.97, 26.13 -8.34 M26.13 -8.34 C26.78 -7.39, 27.88 -6.07, 28.84 -5.01 M26.13 -8.34 C26.69 -7.69, 27.32 -6.94, 28.84 -5.01 M28.84 -5.01 C28.3 -4.21, 27.71 -3.22, 26.91 -1.98 M28.84 -5.01 C28.34 -4.25, 27.96 -3.56, 26.91 -1.98 M26.91 -1.98 C27.62 -0.2, 28 1.33, 28.22 2.5 M26.91 -1.98 C27.32 -0.38, 27.69 1.11, 28.22 2.5 M28.22 2.5 C28.87 2.81, 29.78 3.35, 31.5 4.12 M28.22 2.5 C29.24 3.06, 30.29 3.55, 31.5 4.12 M31.5 4.12 C31.6 4.93, 31.04 6.18, 30.93 8.66 M31.5 4.12 C31.34 5.75, 31.15 7.29, 30.93 8.66 M30.93 8.66 C29.89 8.7, 29 8.97, 27.64 9.28 M30.93 8.66 C29.87 8.94, 28.92 9.09, 27.64 9.28 M27.64 9.28 C27.12 10.61, 26.35 11.29, 25.19 13.66 M27.64 9.28 C26.77 10.67, 26.08 11.99, 25.19 13.66 M25.19 13.66 C25.43 14.6, 26.02 15.39, 26.55 16.59 M25.19 13.66 C25.64 14.78, 26.3 15.86, 26.55 16.59 M26.55 16.59 C25.61 17.32, 24.78 18.05, 23.16 19.51 M26.55 16.59 C25.35 17.54, 24.23 18.64, 23.16 19.51 M23.16 19.51 C22.75 18.97, 21.9 18.57, 20.39 17.63 M23.16 19.51 C22.48 19.01, 21.92 18.7, 20.39 17.63 M20.39 17.63 C18.84 18.01, 17.29 18.2, 15.75 18.78 M20.39 17.63 C19.34 17.84, 18.07 18.12, 15.75 18.78 M15.75 18.78 C15.3 20.22, 14.65 21.18, 14.13 22.22 M15.75 18.78 C15.3 19.63, 15.09 20.41, 14.13 22.22 M14.13 22.22 C13.24 22.2, 12.35 21.84, 9.49 21.49 M14.13 22.22 C12.96 22.03, 11.87 21.88, 9.49 21.49 M9.49 21.49 C9.47 20.47, 9.05 19.1, 8.92 17.94 M9.49 21.49 C9.27 20.33, 9.06 19.12, 8.92 17.94 M8.92 17.94 C7.87 17.52, 6.93 17.13, 4.8 16.27 M8.92 17.94 C7.86 17.6, 6.55 16.98, 4.8 16.27 M4.8 16.27 C4 16.41, 3.37 16.71, 1.77 17.26 M4.8 16.27 C3.65 16.63, 2.49 17.01, 1.77 17.26 M1.77 17.26 C0.89 16.42, 0.27 15.28, -0.94 14.13 M1.77 17.26 C0.97 16.18, 0.04 15.31, -0.94 14.13 M-0.94 14.13 C-0.51 13.4, -0.11 12.52, 0.57 10.9 M-0.94 14.13 C-0.42 13.03, 0.15 12, 0.57 10.9 M0.57 10.9 C0.15 9.83, -0.21 8.92, -0.68 6.57 M0.57 10.9 C0.2 9.86, 0.08 8.82, -0.68 6.57 M-0.68 6.57 C-1.79 6.06, -3.18 5.36, -4.17 4.69 M-0.68 6.57 C-1.58 6.15, -2.55 5.68, -4.17 4.69 M-4.17 4.69 C-3.85 3.35, -3.7 2, -3.44 0.78 M-4.17 4.69 C-3.91 3.33, -3.65 1.99, -3.44 0.78 M-3.44 0.78 C-2.38 0.73, -1.52 0.48, 0 0 M-3.44 0.78 C-2.23 0.52, -1.08 0.25, 0 0 M0 0 C0 0, 0 0, 0 0 M0 0 C0 0, 0 0, 0 0" stroke="#aaa" stroke-width="1" fill="none"></path></g></g><mask></mask><g stroke-opacity="0.5" fill-opacity="0.5" stroke-linecap="round" transform="translate(561.2289139327581 737.8306447580144) rotate(0 9.70715953908558 9.707159539085524)"><path d="M19.41 9.71 C19.41 10.27, 19.36 10.84, 19.27 11.39 C19.17 11.95, 19.02 12.5, 18.83 13.03 C18.64 13.56, 18.39 14.07, 18.11 14.56 C17.83 15.05, 17.5 15.52, 17.14 15.95 C16.78 16.38, 16.38 16.78, 15.95 17.14 C15.52 17.5, 15.05 17.83, 14.56 18.11 C14.07 18.39, 13.56 18.64, 13.03 18.83 C12.5 19.02, 11.95 19.17, 11.39 19.27 C10.84 19.36, 10.27 19.41, 9.71 19.41 C9.15 19.41, 8.57 19.36, 8.02 19.27 C7.47 19.17, 6.92 19.02, 6.39 18.83 C5.86 18.64, 5.34 18.39, 4.85 18.11 C4.37 17.83, 3.9 17.5, 3.47 17.14 C3.04 16.78, 2.63 16.38, 2.27 15.95 C1.91 15.52, 1.58 15.05, 1.3 14.56 C1.02 14.07, 0.78 13.56, 0.59 13.03 C0.39 12.5, 0.25 11.95, 0.15 11.39 C0.05 10.84, 0 10.27, 0 9.71 C0 9.15, 0.05 8.57, 0.15 8.02 C0.25 7.47, 0.39 6.92, 0.59 6.39 C0.78 5.86, 1.02 5.34, 1.3 4.85 C1.58 4.37, 1.91 3.9, 2.27 3.47 C2.63 3.04, 3.04 2.63, 3.47 2.27 C3.9 1.91, 4.37 1.58, 4.85 1.3 C5.34 1.02, 5.86 0.78, 6.39 0.59 C6.92 0.39, 7.47 0.25, 8.02 0.15 C8.57 0.05, 9.15 0, 9.71 0 C10.27 0, 10.84 0.05, 11.39 0.15 C11.95 0.25, 12.5 0.39, 13.03 0.59 C13.56 0.78, 14.07 1.02, 14.56 1.3 C15.05 1.58, 15.52 1.91, 15.95 2.27 C16.38 2.63, 16.78 3.04, 17.14 3.47 C17.5 3.9, 17.83 4.37, 18.11 4.85 C18.39 5.34, 18.64 5.86, 18.83 6.39 C19.02 6.92, 19.17 7.47, 19.27 8.02 C19.36 8.57, 19.39 9.43, 19.41 9.71 C19.44 9.99, 19.44 9.43, 19.41 9.71" stroke="none" stroke-width="0" fill="#c9d5e1"></path><path d="M19.41 9.71 C19.41 10.27, 19.36 10.84, 19.27 11.39 C19.17 11.95, 19.02 12.5, 18.83 13.03 C18.64 13.56, 18.39 14.07, 18.11 14.56 C17.83 15.05, 17.5 15.52, 17.14 15.95 C16.78 16.38, 16.38 16.78, 15.95 17.14 C15.52 17.5, 15.05 17.83, 14.56 18.11 C14.07 18.39, 13.56 18.64, 13.03 18.83 C12.5 19.02, 11.95 19.17, 11.39 19.27 C10.84 19.36, 10.27 19.41, 9.71 19.41 C9.15 19.41, 8.57 19.36, 8.02 19.27 C7.47 19.17, 6.92 19.02, 6.39 18.83 C5.86 18.64, 5.34 18.39, 4.85 18.11 C4.37 17.83, 3.9 17.5, 3.47 17.14 C3.04 16.78, 2.63 16.38, 2.27 15.95 C1.91 15.52, 1.58 15.05, 1.3 14.56 C1.02 14.07, 0.78 13.56, 0.59 13.03 C0.39 12.5, 0.25 11.95, 0.15 11.39 C0.05 10.84, 0 10.27, 0 9.71 C0 9.15, 0.05 8.57, 0.15 8.02 C0.25 7.47, 0.39 6.92, 0.59 6.39 C0.78 5.86, 1.02 5.34, 1.3 4.85 C1.58 4.37, 1.91 3.9, 2.27 3.47 C2.63 3.04, 3.04 2.63, 3.47 2.27 C3.9 1.91, 4.37 1.58, 4.85 1.3 C5.34 1.02, 5.86 0.78, 6.39 0.59 C6.92 0.39, 7.47 0.25, 8.02 0.15 C8.57 0.05, 9.15 0, 9.71 0 C10.27 0, 10.84 0.05, 11.39 0.15 C11.95 0.25, 12.5 0.39, 13.03 0.59 C13.56 0.78, 14.07 1.02, 14.56 1.3 C15.05 1.58, 15.52 1.91, 15.95 2.27 C16.38 2.63, 16.78 3.04, 17.14 3.47 C17.5 3.9, 17.83 4.37, 18.11 4.85 C18.39 5.34, 18.64 5.86, 18.83 6.39 C19.02 6.92, 19.17 7.47, 19.27 8.02 C19.36 8.57, 19.39 9.43, 19.41 9.71 C19.44 9.99, 19.44 9.43, 19.41 9.71" stroke="transparent" stroke-width="1" fill="none"></path></g><g stroke-linecap="round"><g stroke-opacity="0.5" fill-opacity="0.5" transform="translate(570.0398032758544 783.157739603636) rotate(0 39.50953556924773 12.425046569919004)" fill-rule="evenodd"><path d="M-1.83 -0.24 L12.23 5.96 L13.87 11.11 L9.95 17.42 L-2.49 13.15 L-4.68 18.33 L3.52 25.71 L19.04 22.7 L20.55 18.39 L79.05 29.89 L81.94 22.16 L24.03 8.07 L20.38 0.15 L8.72 -7.36 L1.88 1.28" stroke="none" stroke-width="0" fill="#ced4da" fill-rule="evenodd"></path><path d="M0 0 C5.47 1.93, 7.95 5.08, 13.01 5.67 M0 0 C3.96 1.9, 7.57 2.72, 13.01 5.67 M13.01 5.67 C12.7 6.76, 12.59 7.96, 13.29 10.8 M13.01 5.67 C13.11 7.88, 13.15 9.59, 13.29 10.8 M13.29 10.8 C11.82 13.07, 11.7 14.76, 10.56 15.49 M13.29 10.8 C12.43 12.18, 11.84 13.77, 10.56 15.49 M10.56 15.49 C7.77 15.25, 4.03 14.43, -3.97 12.22 M10.56 15.49 C6.59 14.32, 1.54 13.37, -3.97 12.22 M-3.97 12.22 C-3.79 13.73, -3.58 16.6, -3.77 18.15 M-3.97 12.22 C-3.71 13.32, -3.87 14.57, -3.77 18.15 M-3.77 18.15 C-0.69 19.4, 0.52 21.17, 5.03 24.91 M-3.77 18.15 C-0.61 20.18, 1.29 22.65, 5.03 24.91 M5.03 24.91 C9.4 25.34, 12.13 23.99, 17.31 23.07 M5.03 24.91 C8.13 24.6, 11.4 23.68, 17.31 23.07 M17.31 23.07 C18.49 22.1, 20.89 19.71, 22.22 17.95 M17.31 23.07 C18.6 21.62, 19.99 20.26, 22.22 17.95 M22.22 17.95 C40.42 22.45, 63.49 26.2, 80.13 30.64 M22.22 17.95 C37.27 21.06, 53.53 23.78, 80.13 30.64 M80.13 30.64 C81.42 29.73, 80.76 28, 82.99 22.45 M80.13 30.64 C81.24 27.77, 81.85 24.41, 82.99 22.45 M82.99 22.45 C66.52 21.31, 52.46 16.18, 23.65 9.76 M82.99 22.45 C67.95 20.07, 52.49 16.21, 23.65 9.76 M23.65 9.76 C22.29 6.86, 22.68 4.69, 20.99 0.35 M23.65 9.76 C23.09 5.98, 21.22 3.06, 20.99 0.35 M20.99 0.35 C17.68 -0.91, 12.4 -4.09, 8.71 -5.79 M20.99 0.35 C15.88 -1.7, 12.19 -4.41, 8.71 -5.79 M8.71 -5.79 C6.44 -3.97, 4.67 -2.48, 0 0 M8.71 -5.79 C5.04 -3.45, 2.81 -0.99, 0 0 M0 0 C0 0, 0 0, 0 0 M0 0 C0 0, 0 0, 0 0" stroke="#495057" stroke-width="2" fill="none"></path></g></g><mask></mask><g stroke-opacity="0.5" fill-opacity="0.5" stroke-linecap="round" transform="translate(1010 750) rotate(0 70 35)"><path d="M3.69 2.49 L136.3 -2.8 L140.64 71.94 L-1.1 70.07" stroke="none" stroke-width="0" fill="#40c057"></path><path d="M-0.72 3.67 C47.67 -2.24, 94.94 1.84, 138.48 -1.58 M0.4 -0.57 C46.87 -0.37, 89.42 2.18, 138.26 0.42 M140.03 0.03 C139.52 18.13, 139.44 31.86, 139.76 67.42 M139.65 -0.71 C140.81 18.03, 139.28 32.78, 140.96 70.64 M141.62 71.83 C106.55 65.53, 81.7 68.5, -0.73 70.29 M139.41 70.91 C104.49 67.27, 69.71 67.99, 0.43 69.17 M1.22 72.8 C-3.94 47.27, -4.99 29.04, 0.35 3.25 M1.6 71.5 C-0.8 53.59, 0.44 42.45, 0.75 -0.81" stroke="#2f9e44" stroke-width="4" fill="none"></path></g><g stroke-opacity="0.5" fill-opacity="0.5" stroke-linecap="round" transform="translate(1059.1155562948275 758.3423763456594) rotate(0 21 28)"><path d="M29.82 3.11 C33.54 5.11, 37.34 11.32, 39.16 16.55 C40.98 21.77, 41.9 28.63, 40.76 34.44 C39.62 40.25, 35.82 47.74, 32.33 51.41 C28.83 55.08, 23.99 57.16, 19.79 56.45 C15.6 55.74, 10.44 51.44, 7.15 47.16 C3.87 42.87, 0.82 36.76, 0.09 30.74 C-0.63 24.72, 0.27 16.07, 2.8 11.06 C5.33 6.06, 10.4 1.99, 15.26 0.71 C20.13 -0.56, 28.9 2.55, 32 3.42 C35.1 4.29, 33.92 5.48, 33.85 5.91 M18.62 1.13 C22.62 0.35, 28.28 2.98, 32.04 5.87 C35.81 8.76, 39.63 12.73, 41.2 18.48 C42.76 24.23, 42.93 34.6, 41.41 40.36 C39.88 46.11, 36.26 50.61, 32.04 53.02 C27.82 55.43, 20.55 56.33, 16.09 54.81 C11.63 53.28, 8.18 48.47, 5.3 43.88 C2.42 39.3, -1.27 33.33, -1.19 27.28 C-1.11 21.23, 2.72 12.23, 5.8 7.58 C8.88 2.92, 15.13 0.35, 17.29 -0.63 C19.45 -1.61, 18.48 1.01, 18.75 1.69" stroke="none" stroke-width="0" fill="#40c057"></path><path d="M19.54 -0.5 C23.68 -1.28, 29.43 1.61, 33.23 5.25 C37.02 8.9, 41.09 15.49, 42.32 21.35 C43.54 27.21, 42.69 35.17, 40.59 40.41 C38.49 45.65, 34.07 50.26, 29.71 52.79 C25.36 55.33, 18.89 57.17, 14.47 55.63 C10.04 54.09, 5.55 48.87, 3.16 43.55 C0.77 38.24, -0.32 29.78, 0.14 23.73 C0.59 17.67, 2.06 11.21, 5.88 7.23 C9.7 3.25, 19.79 0.79, 23.05 -0.14 C26.32 -1.08, 25.42 1.06, 25.49 1.63 M29.6 4.33 C33.43 6.8, 39.13 12.83, 40.94 18.33 C42.74 23.82, 41.88 31.74, 40.43 37.29 C38.97 42.85, 35.77 48.56, 32.2 51.68 C28.62 54.8, 23.34 56.99, 18.96 56.02 C14.59 55.05, 9.27 50.42, 5.95 45.84 C2.63 41.26, -0.76 34.18, -0.94 28.56 C-1.12 22.95, 2.11 16.54, 4.86 12.15 C7.61 7.75, 11.26 3.65, 15.58 2.2 C19.9 0.76, 28.35 3.5, 30.78 3.48 C33.22 3.46, 30.28 1.83, 30.19 2.1" stroke="#2f9e44" stroke-width="4" fill="none"></path></g><g stroke-opacity="0.5" fill-opacity="0.5" transform="translate(1087.2669667685955 769.8985612018946) rotate(0 -10.918698452407568 16.194024670986664)" stroke="none"><path fill="#ffffff" d="M 0,2.40 Q 0,2.40 -2.61,2.26 -5.22,2.12 -7.31,2.02 -9.41,1.92 -10.89,2.03 -12.37,2.14 -13.62,2.30 -14.86,2.46 -15.94,2.57 -17.01,2.68 -18.44,3.03 -19.86,3.39 -18.89,4.38 -17.92,5.37 -16.95,6.15 -15.97,6.94 -14.41,7.64 -12.86,8.34 -11.65,8.81 -10.45,9.28 -9.11,9.71 -7.77,10.14 -6.45,10.47 -5.13,10.80 -3.98,10.99 -2.83,11.18 -1.17,11.57 0.48,11.96 1.84,12.98 3.20,14.01 3.64,15.16 4.07,16.31 4.15,17.38 4.23,18.44 4.23,19.71 4.23,20.98 4.21,22.28 4.19,23.59 4.05,25.70 3.91,27.81 2.92,29.80 1.94,31.79 1.02,32.60 0.10,33.40 -1.17,33.97 -2.45,34.53 -3.61,34.82 -4.77,35.10 -6.64,35.29 -8.52,35.48 -9.61,35.35 -10.69,35.22 -12.50,34.37 -14.30,33.52 -15.16,32.69 -16.01,31.87 -17.03,28.90 -18.05,25.93 -17.99,25.39 -17.93,24.85 -17.70,24.36 -17.48,23.87 -17.10,23.48 -16.73,23.09 -16.25,22.84 -15.77,22.59 -15.24,22.50 -14.71,22.42 -14.17,22.51 -13.64,22.60 -13.16,22.85 -12.69,23.11 -12.32,23.50 -11.95,23.89 -11.72,24.38 -11.49,24.88 -11.44,25.41 -11.38,25.95 -11.50,26.48 -11.62,27.01 -11.90,27.47 -12.18,27.93 -12.59,28.28 -13.00,28.63 -13.51,28.82 -14.01,29.02 -14.55,29.05 -15.09,29.08 -15.61,28.93 -16.13,28.79 -16.58,28.48 -17.02,28.18 -17.35,27.74 -17.67,27.31 -17.84,26.80 -18.02,26.29 -18.01,25.75 -18.01,25.21 -17.84,24.69 -17.66,24.18 -17.33,23.75 -17.01,23.32 -16.56,23.02 -16.11,22.72 -15.59,22.58 -15.07,22.44 -14.53,22.47 -13.99,22.50 -13.49,22.70 -12.98,22.90 -12.57,23.25 -12.16,23.60 -11.89,24.07 -11.61,24.53 -11.49,25.06 -11.38,25.59 -11.38,25.59 -11.38,25.59 -11.11,26.75 -10.83,27.91 -9.82,28.54 -8.81,29.17 -7.49,29.09 -6.16,29.02 -4.91,28.74 -3.66,28.45 -2.84,27.60 -2.02,26.75 -1.89,25.18 -1.75,23.62 -1.79,22.34 -1.82,21.07 -1.52,19.27 -1.22,17.47 -2.48,17.07 -3.74,16.67 -5.04,16.45 -6.35,16.23 -7.82,15.93 -9.30,15.64 -10.88,15.25 -12.46,14.87 -13.81,14.42 -15.16,13.97 -16.32,13.49 -17.49,13.01 -18.58,12.40 -19.68,11.78 -21.14,10.42 -22.61,9.05 -23.51,7.73 -24.41,6.41 -25.11,4.71 -25.81,3.01 -25.31,1.72 -24.81,0.42 -23.80,-0.21 -22.79,-0.85 -20.94,-1.30 -19.08,-1.76 -17.14,-1.77 -15.19,-1.77 -13.87,-1.81 -12.55,-1.86 -10.98,-1.89 -9.41,-1.92 -7.31,-2.02 -5.22,-2.12 -2.61,-2.26 0,-2.40 0.28,-2.36 0.57,-2.33 0.84,-2.23 1.11,-2.12 1.35,-1.96 1.59,-1.79 1.78,-1.58 1.97,-1.36 2.11,-1.10 2.24,-0.85 2.31,-0.57 2.38,-0.28 2.38,0.00 2.38,0.28 2.31,0.57 2.24,0.85 2.11,1.10 1.97,1.36 1.78,1.58 1.59,1.80 1.35,1.96 1.11,2.12 0.84,2.23 0.57,2.33 0.28,2.36 -0.00,2.40 -0.00,2.40 L 0,2.40 Z"></path></g><g stroke-opacity="0.5" fill-opacity="0.5" transform="translate(1082.6050505754329 766.463465059564) rotate(0 -0.2453640101664405 20.61057685398282)" stroke="none"><path fill="#ffffff" d="M 2.04,0 Q 2.04,0 1.94,2.46 1.84,4.93 1.77,7.53 1.70,10.14 1.58,12.88 1.45,15.63 1.38,18.26 1.31,20.89 1.27,23.07 1.23,25.24 1.33,26.66 1.42,28.08 1.44,29.37 1.46,30.66 1.50,32.00 1.53,33.34 1.59,34.48 1.65,35.62 1.77,38.42 1.88,41.22 1.82,41.60 1.75,41.98 1.57,42.32 1.39,42.66 1.11,42.92 0.83,43.18 0.48,43.34 0.14,43.50 -0.24,43.55 -0.62,43.59 -0.99,43.50 -1.37,43.42 -1.70,43.22 -2.03,43.02 -2.27,42.73 -2.52,42.44 -2.66,42.08 -2.81,41.72 -2.83,41.34 -2.85,40.96 -2.74,40.59 -2.64,40.22 -2.42,39.90 -2.21,39.58 -1.90,39.35 -1.59,39.12 -1.23,38.99 -0.87,38.87 -0.48,38.87 -0.10,38.87 0.26,39.00 0.62,39.12 0.93,39.35 1.23,39.59 1.45,39.90 1.66,40.22 1.76,40.59 1.87,40.96 1.84,41.35 1.82,41.73 1.68,42.09 1.54,42.44 1.29,42.74 1.04,43.03 0.71,43.23 0.38,43.42 0.00,43.51 -0.36,43.59 -0.74,43.55 -1.13,43.50 -1.47,43.34 -1.82,43.18 -2.10,42.91 -2.38,42.65 -2.56,42.31 -2.74,41.97 -2.80,41.59 -2.86,41.21 -2.86,41.21 -2.86,41.21 -2.73,38.39 -2.60,35.57 -2.51,34.41 -2.42,33.25 -2.33,31.85 -2.23,30.44 -2.06,29.26 -1.90,28.07 -1.79,26.65 -1.69,25.23 -1.70,23.04 -1.72,20.86 -1.73,18.20 -1.73,15.55 -1.72,12.84 -1.70,10.14 -1.77,7.53 -1.84,4.93 -1.94,2.46 -2.04,0 -2.01,-0.24 -1.98,-0.48 -1.89,-0.71 -1.81,-0.95 -1.67,-1.15 -1.53,-1.35 -1.34,-1.51 -1.16,-1.68 -0.94,-1.79 -0.72,-1.91 -0.48,-1.97 -0.24,-2.02 0.00,-2.02 0.24,-2.02 0.48,-1.97 0.72,-1.91 0.94,-1.79 1.16,-1.68 1.34,-1.51 1.53,-1.35 1.67,-1.15 1.81,-0.94 1.89,-0.71 1.98,-0.48 2.01,-0.24 2.04,0.00 2.04,0.00 L 2.04,0 Z"></path></g><g stroke-opacity="0.5" fill-opacity="0.5" transform="translate(1075.2441302704387 765.236645008732) rotate(0 -0.3680460152497176 20.85594086414926)" stroke="none"><path fill="#ffffff" d="M 2.02,0 Q 2.02,0 1.93,3.45 1.83,6.91 1.69,10.44 1.55,13.97 1.33,16.98 1.10,19.98 0.99,22.63 0.88,25.28 0.82,27.46 0.77,29.65 0.83,31.28 0.89,32.92 0.97,34.32 1.05,35.72 1.39,38.54 1.74,41.36 1.74,41.69 1.74,42.01 1.64,42.32 1.54,42.63 1.35,42.90 1.15,43.16 0.88,43.34 0.62,43.53 0.30,43.62 -0.00,43.71 -0.33,43.70 -0.65,43.68 -0.96,43.56 -1.26,43.45 -1.51,43.24 -1.76,43.03 -1.94,42.75 -2.11,42.47 -2.18,42.15 -2.25,41.84 -2.22,41.51 -2.19,41.19 -2.06,40.89 -1.92,40.59 -1.70,40.35 -1.48,40.11 -1.19,39.96 -0.90,39.80 -0.58,39.75 -0.26,39.69 0.05,39.74 0.37,39.79 0.66,39.94 0.95,40.09 1.18,40.32 1.41,40.56 1.55,40.85 1.69,41.15 1.73,41.47 1.76,41.80 1.70,42.11 1.63,42.43 1.47,42.72 1.30,43.00 1.05,43.21 0.81,43.42 0.51,43.55 0.20,43.67 -0.11,43.69 -0.44,43.71 -0.75,43.63 -1.07,43.55 -1.34,43.37 -1.61,43.19 -1.81,42.93 -2.01,42.67 -2.12,42.36 -2.23,42.05 -2.23,42.05 -2.23,42.05 -2.39,39.97 -2.55,37.88 -2.53,36.79 -2.51,35.70 -2.42,34.30 -2.32,32.89 -2.23,31.25 -2.15,29.61 -2.14,27.40 -2.14,25.20 -2.10,22.50 -2.07,19.80 -1.95,16.85 -1.83,13.90 -1.83,10.41 -1.83,6.91 -1.93,3.45 -2.02,0 -2.00,-0.24 -1.97,-0.48 -1.88,-0.71 -1.79,-0.94 -1.65,-1.14 -1.51,-1.34 -1.33,-1.50 -1.15,-1.67 -0.93,-1.78 -0.71,-1.89 -0.48,-1.95 -0.24,-2.01 0.00,-2.01 0.24,-2.01 0.48,-1.95 0.71,-1.89 0.93,-1.78 1.15,-1.67 1.33,-1.50 1.51,-1.34 1.65,-1.14 1.79,-0.94 1.88,-0.71 1.97,-0.48 2.00,-0.24 2.02,0.00 2.02,0.00 L 2.02,0 Z"></path></g></svg>