<!DOCTYPE svg PUBLIC "-//W3C//DTD SVG 1.1//EN" "http://www.w3.org/Graphics/SVG/1.1/DTD/svg11.dtd">
<!-- Uploaded to: SVG Repo, www.svgrepo.com, Transformed by: SVG Repo Mixer Tools -->
<svg width="800px" height="800px" viewBox="-10.24 -10.24 276.48 276.48" version="1.1" xmlns="http://www.w3.org/2000/svg" xmlns:xlink="http://www.w3.org/1999/xlink" preserveAspectRatio="xMidYMid" fill="#000" transform="rotate(270)matrix(-1, 0, 0, -1, 0, 0)" stroke="#000" stroke-width="9.984">
<g id="SVGRepo_bgCarrier" stroke-width="0"/>
<g id="SVGRepo_tracerCarrier" stroke-linecap="round" stroke-linejoin="round" stroke="#CCCCCC" stroke-width="0.512"/>
<g id="SVGRepo_iconCarrier"> <g> <polygon fill="#fff" points="150.261818 245.516364 105.825455 202.185455 201.258182 104.730909 247.265455 149.821818"> </polygon> <path d="M150.450909,53.9381818 L106.174545,8.73090909 L9.36,104.629091 C-3.12,117.109091 -3.12,137.341818 9.36,149.836364 L104.72,245.821818 L149.810909,203.64 L77.1563636,127.232727 L150.450909,53.9381818 Z" fill="#fff"> </path> <path d="M246.625455,105.370909 L150.625455,9.37090909 C138.130909,-3.12363636 117.869091,-3.12363636 105.374545,9.37090909 C92.88,21.8654545 92.88,42.1272727 105.374545,54.6218182 L201.374545,150.621818 C213.869091,163.116364 234.130909,163.116364 246.625455,150.621818 C259.12,138.127273 259.12,117.865455 246.625455,105.370909 Z" fill="#fff"> </path> <circle fill="#fff" cx="127.265455" cy="224.730909" r="31.2727273"> </circle> </g> </g>
</svg>