<svg version="1.1" xmlns="http://www.w3.org/2000/svg" viewBox="0 0 540 760" width="1080" height="1520">
  <!-- svg-source:excalidraw -->
  
  <defs>
    <style class="style-fonts">
      
    </style>
    
  </defs>
  <g stroke-linecap="round" transform="translate(10 10) rotate(0 260 370)"><path d="M32 0 C148.82 0, 265.65 0, 488 0 M32 0 C154.33 0, 276.66 0, 488 0 M488 0 C509.33 0, 520 10.67, 520 32 M488 0 C509.33 0, 520 10.67, 520 32 M520 32 C520 200.92, 520 369.85, 520 708 M520 32 C520 284.53, 520 537.06, 520 708 M520 708 C520 729.33, 509.33 740, 488 740 M520 708 C520 729.33, 509.33 740, 488 740 M488 740 C332.51 740, 177.02 740, 32 740 M488 740 C314.25 740, 140.5 740, 32 740 M32 740 C10.67 740, 0 729.33, 0 708 M32 740 C10.67 740, 0 729.33, 0 708 M0 708 C0 571.11, 0 434.22, 0 32 M0 708 C0 552.16, 0 396.31, 0 32 M0 32 C0 10.67, 10.67 0, 32 0 M0 32 C0 10.67, 10.67 0, 32 0" stroke="transparent" stroke-width="4" fill="none"></path></g><g stroke-linecap="round"><g transform="translate(338.36107872120135 249.87579475647908) rotate(0 -70.40961169483603 43.79810491253579)" fill-rule="evenodd"><path d="M-132.54 -10.54 C-132.54 -10.54, -132.54 -10.54, -132.54 -10.54 M-132.54 -10.54 C-132.54 -10.54, -132.54 -10.54, -132.54 -10.54 M-152.61 36.94 C-136.83 16.17, -118.03 -0.19, -107.34 -15.13 M-152.61 36.94 C-135.42 16.87, -116.55 -3.26, -107.34 -15.13 M-149.72 58 C-127.94 34.91, -108.25 10.41, -87.39 -13.69 M-149.72 58 C-131.41 39.32, -115.55 19.52, -87.39 -13.69 M-140.92 72.27 C-125.87 53.91, -109.54 34.58, -68.76 -10.74 M-140.92 72.27 C-115.16 42.95, -90.14 14.37, -68.76 -10.74 M-129.5 83.53 C-105.72 60.32, -84.42 33.12, -50.12 -7.79 M-129.5 83.53 C-111.51 62.94, -95.15 41.45, -50.12 -7.79 M-116.12 92.51 C-91.37 65.31, -66.5 38.09, -31.49 -4.84 M-116.12 92.51 C-91.79 63.76, -65.16 33.37, -31.49 -4.84 M-98.79 96.97 C-68.34 59.3, -33.42 24.31, -12.85 -1.89 M-98.79 96.97 C-79.92 76.71, -60.93 53.95, -12.85 -1.89 M-80.81 100.68 C-49.22 62.98, -15.51 24.91, 2.51 4.83 M-80.81 100.68 C-51.68 65.02, -19.47 30.12, 2.51 4.83 M-62.83 104.38 C-33.54 72.16, -5.83 38.48, 9.99 20.61 M-62.83 104.38 C-38.07 76.03, -12.81 47.1, 9.99 20.61 M-39.61 102.05 C-27.21 87.37, -11.5 68.95, 14.19 40.16 M-39.61 102.05 C-27.19 88.59, -14.97 75.49, 14.19 40.16" stroke="#ced4da" stroke-width="2" fill="none"></path><path d="M0.94 -0.7 C2.75 3.36, 8.82 14.06, 10.89 23.44 C12.97 32.82, 17.36 45.55, 13.39 55.59 C9.42 65.64, -2.93 75.7, -12.93 83.71 C-22.94 91.72, -35.04 100.97, -46.64 103.62 C-58.24 106.28, -69.5 102.04, -82.54 99.62 C-95.58 97.21, -113.98 95.45, -124.87 89.14 C-135.77 82.83, -143.4 71.98, -147.91 61.75 C-152.41 51.52, -153.53 37.92, -151.9 27.76 C-150.27 17.6, -144.13 8.31, -138.14 0.79 C-132.15 -6.74, -138.91 -17.24, -115.96 -17.39 C-93.02 -17.54, -19.63 -3.12, -0.49 -0.09 M-0.02 1.54 C2.14 5.91, 10.9 15.92, 13.11 25.06 C15.32 34.2, 17.65 46.5, 13.25 56.41 C8.85 66.32, -3.55 76.61, -13.27 84.52 C-22.99 92.43, -33.78 101.02, -45.07 103.89 C-56.36 106.77, -67.71 104.41, -81 101.77 C-94.28 99.12, -113.52 94.78, -124.79 88.02 C-136.05 81.27, -143.88 71.44, -148.58 61.24 C-153.28 51.03, -154.8 36.93, -152.99 26.79 C-151.18 16.64, -143.89 7.66, -137.72 0.36 C-131.55 -6.94, -139.19 -16.84, -115.98 -16.99 C-92.78 -17.15, -17.59 -3.45, 1.5 -0.57" stroke="#1e1e1e" stroke-width="4" fill="none"></path></g></g><mask></mask><g stroke-linecap="round"><g transform="translate(214.4564810069088 296.6238939175096) rotate(0 49.92171872362374 9.13821339157198)"><path d="M-0.94 0.16 C7.51 3.16, 35.01 17.33, 51.62 17.32 C68.24 17.31, 90.9 2.93, 98.74 0.12 M0.77 -0.81 C9.08 2.38, 34.59 18.03, 51.3 18.36 C68.01 18.68, 93.22 3.96, 101.05 1.14" stroke="#1e1e1e" stroke-width="4" fill="none"></path></g></g><mask></mask><g stroke-linecap="round"><g transform="translate(232.16648623392086 277.27228377158326) rotate(0 7.33584326580953 -3.159706548968188)"><path d="M0.55 -0.44 C2.1 -1.62, 6.62 -7.13, 8.88 -7 C11.15 -6.88, 13.15 -0.85, 14.13 0.32 M0.16 0.53 C1.92 -0.59, 7.36 -6.49, 9.86 -6.44 C12.36 -6.38, 14.32 -0.26, 15.17 0.86" stroke="#1e1e1e" stroke-width="4" fill="none"></path></g></g><mask></mask><g stroke-linecap="round"><g transform="translate(279.17990487995644 277.53646043240815) rotate(0 7.33584326580953 -3.159706548968188)"><path d="M-0.51 -0.26 C0.88 -1.33, 6.3 -6.9, 8.85 -6.85 C11.4 -6.81, 13.9 -1.24, 14.79 0.01 M0.23 0.8 C1.73 -0.15, 7.43 -6.14, 9.81 -6.21 C12.19 -6.28, 13.79 -0.84, 14.5 0.4" stroke="#1e1e1e" stroke-width="4" fill="none"></path></g></g><mask></mask><g stroke-linecap="round"><g transform="translate(241.53267399816184 390.37518910371) rotate(0 -102.04338287255442 28.59922080995557)"><path d="M-1.18 -0.23 C-18.72 3.88, -72.37 14.49, -106.36 24.14 C-140.36 33.78, -188.97 52.18, -205.14 57.63 M0.41 -1.4 C-17.18 2.89, -73.31 15.71, -107.18 25.2 C-141.05 34.69, -186.86 50.09, -202.8 55.52" stroke="#1e1e1e" stroke-width="4" fill="none"></path></g></g><mask></mask><g stroke-linecap="round"><g transform="translate(278.4239747479127 385.2983883930506) rotate(0 105.42790118654145 27.41464017471617)"><path d="M0.25 -0.91 C18.21 2.59, 71.36 11.51, 106.57 20.74 C141.78 29.98, 193.96 48.68, 211.53 54.49 M-1.08 1.23 C17.34 4.38, 73.36 9.78, 108.73 18.85 C144.09 27.92, 194.38 49.86, 211.12 55.63" stroke="#1e1e1e" stroke-width="4" fill="none"></path></g></g><mask></mask><g stroke-linecap="round"><g transform="translate(264.8858705057277 407.6362433502263) rotate(0 -2.03071408701598 143.16535088118803)"><path d="M-1.06 0.44 C-1.66 21.23, -3.41 76.09, -3.39 123.87 C-3.36 171.65, -1.03 260.03, -0.91 287.11 M0.59 -0.38 C-0.14 20.67, -3.7 77.64, -3.98 125.23 C-4.26 172.83, -1.3 258.13, -1.09 285.18" stroke="#1e1e1e" stroke-width="4" fill="none"></path></g></g><mask></mask><g stroke-linecap="round"><g transform="translate(239.50194441802705 717.6586120433099) rotate(0 -41.9680859672912 -0.338454930022408)"><path d="M0.67 -0.34 C-12.95 -0.39, -68.61 0.15, -82.82 0.1 M-0.43 -1.56 C-14.03 -1.99, -68.97 -1.99, -83.18 -1.61" stroke="#1e1e1e" stroke-width="4" fill="none"></path></g></g><mask></mask><g stroke-linecap="round"><g transform="translate(275.71636629397005 716.6432549998012) rotate(0 43.66035287084418 -0.5076785217540873)"><path d="M1.12 0.78 C15.45 0.67, 72.41 -0.48, 86.67 -0.97 M0.24 0.14 C14.91 0.28, 74.82 0.86, 89.04 0.6" stroke="#1e1e1e" stroke-width="4" fill="none"></path></g></g><mask></mask><g stroke-linecap="round"><g transform="translate(168.15053843151242 222.43276041471245) rotate(0 112.6400451406445 16.405658141770118)"><path d="M-0.65 0.05 C36.6 5.2, 187.06 26.24, 224.63 31.69 M1.21 -0.97 C38.76 4.22, 189.91 26.81, 227.01 32.63" stroke="#1e1e1e" stroke-width="4" fill="none"></path></g></g><mask></mask><g stroke-linecap="round"><g transform="translate(223.23976613143515 228.84281361625972) rotate(0 12.619737032130843 -58.050780719706836)"><path d="M-0.65 -1.13 C1.76 -9, 9.68 -28.17, 13.81 -47.21 C17.95 -66.25, 22.44 -103.81, 24.15 -115.36 M1.21 0.9 C3.48 -6.79, 8.4 -26.02, 12.61 -45.72 C16.82 -65.42, 24.63 -105.67, 26.48 -117.31" stroke="#1e1e1e" stroke-width="4" fill="none"></path></g></g><mask></mask><g stroke-linecap="round"><g transform="translate(333.4521875618866 246.51046471743302) rotate(0 7.571803706897384 -58.05079997589746)"><path d="M-0.49 -0.09 C-0.84 -9.88, -5.46 -40.43, -2.77 -59.83 C-0.07 -79.23, 12.49 -107.28, 15.68 -116.47 M1.46 -1.19 C1.52 -11.21, -3.38 -42.54, -0.62 -61.56 C2.13 -80.59, 15.14 -106.12, 17.97 -115.34" stroke="#1e1e1e" stroke-width="4" fill="none"></path></g></g><mask></mask><g stroke-linecap="round"><g transform="translate(356.1676371949602 135.45677883468124) rotate(0 -55.94747516752636 -10.09578962570481)"><path d="M-1.08 0.74 C-11.85 -2.67, -46.54 -17.4, -65.09 -20.56 C-83.64 -23.71, -104.43 -18.45, -112.38 -18.18 M0.55 0.09 C-9.83 -3.14, -43.99 -15.88, -62.98 -19.21 C-81.97 -22.55, -105.06 -20.17, -113.4 -19.91" stroke="#1e1e1e" stroke-width="4" fill="none"></path></g></g><mask></mask></svg>