<svg version="1.1" xmlns="http://www.w3.org/2000/svg" viewBox="0 0 1442.2222222222222 820" width="2884.4444444444443" height="1640">
  <!-- svg-source:excalidraw -->
  
  <defs>
    <style class="style-fonts">
      
    </style>
    
  </defs>
  <g stroke-linecap="round" transform="translate(10 10) rotate(0 711.1111111111111 400)"><path d="M32 0 C496.7 4.81, 960.41 5.57, 1390.22 0 M32 0 C393.13 -1.83, 754.74 -1.9, 1390.22 0 M1390.22 0 C1411.03 -0.61, 1422.55 8.98, 1422.22 32 M1390.22 0 C1412.91 -0.24, 1424.28 8.55, 1422.22 32 M1422.22 32 C1421.36 276.74, 1422.31 522.79, 1422.22 768 M1422.22 32 C1420.33 253.09, 1420.36 474.32, 1422.22 768 M1422.22 768 C1421.93 789.66, 1412.13 800.21, 1390.22 800 M1422.22 768 C1420.31 788.95, 1409.92 800.2, 1390.22 800 M1390.22 800 C1038.55 802.96, 686.72 803.03, 32 800 M1390.22 800 C893.38 801.64, 396.69 801.69, 32 800 M32 800 C8.8 800.6, -0.92 789.98, 0 768 M32 800 C12.79 798.75, 1.17 789.13, 0 768 M0 768 C-1.72 581.32, -1.9 395.95, 0 32 M0 768 C2.08 620.39, 2.33 472.42, 0 32 M0 32 C-1.19 8.8, 12.17 -0.85, 32 0 M0 32 C0.01 9.07, 9.67 1.96, 32 0" stroke="transparent" stroke-width="4" fill="none"></path></g><g stroke-linecap="round" transform="translate(972.3332037369876 90) rotate(0 108.9171050942017 83.60691432335489)"><path d="M9.57 49.4 C9.57 49.4, 9.57 49.4, 9.57 49.4 M9.57 49.4 C9.57 49.4, 9.57 49.4, 9.57 49.4 M0.65 84.04 C24.78 58.33, 49.19 28.36, 66.26 8.57 M0.65 84.04 C26.07 54.75, 50.98 26.16, 66.26 8.57 M5.51 102.84 C32.55 72.48, 56.22 44.86, 90.8 4.73 M5.51 102.84 C31.08 74.42, 56.17 44.62, 90.8 4.73 M12.34 119.38 C51.47 76.15, 92.09 28.82, 114.68 1.64 M12.34 119.38 C51.8 72.58, 92.68 26.22, 114.68 1.64 M23.1 131.38 C52.07 100.15, 79.9 70.22, 133.32 4.59 M23.1 131.38 C56.91 93.88, 89.24 57.3, 133.32 4.59 M33.86 143.39 C60.3 112.41, 90.22 81.13, 151.95 7.54 M33.86 143.39 C73.93 95.66, 114.3 49.93, 151.95 7.54 M48.56 150.87 C93.22 97.31, 142.17 42.58, 166.65 15.02 M48.56 150.87 C74.55 122.75, 98.97 94.01, 166.65 15.02 M62.61 159.1 C99.5 115.87, 137.75 69.89, 180.7 23.25 M62.61 159.1 C94.83 122.44, 124.66 87.41, 180.7 23.25 M80.59 162.8 C111.71 125.78, 141.55 89.92, 192.77 33.75 M80.59 162.8 C115.27 122.49, 148.26 85.06, 192.77 33.75 M98.57 166.51 C124.34 137.08, 150.38 105.13, 203.54 45.76 M98.57 166.51 C132.94 128.1, 166.16 90.31, 203.54 45.76 M120.48 165.69 C147 134.41, 169.31 107.92, 212.33 60.03 M120.48 165.69 C145.86 137.06, 170.76 106.03, 212.33 60.03 M144.37 162.6 C166.28 137.51, 187.15 113.54, 217.19 78.82 M144.37 162.6 C162.21 140.57, 181.13 119.85, 217.19 78.82 M178.75 147.43 C187.39 135.9, 199.17 123.93, 212.21 108.94 M178.75 147.43 C192.82 133.04, 204.19 117.66, 212.21 108.94" stroke="#ffffff" stroke-width="2" fill="none"></path><path d="M111.55 0.9 C124.7 -0.14, 138.77 2.42, 151.34 6.66 C163.91 10.91, 177.14 18.58, 186.96 26.37 C196.79 34.17, 205.11 43.62, 210.3 53.46 C215.49 63.3, 218.35 74.72, 218.11 85.4 C217.87 96.07, 214.5 107.76, 208.88 117.51 C203.26 127.25, 194.23 136.58, 184.37 143.86 C174.51 151.14, 162.74 157.22, 149.73 161.17 C136.72 165.12, 120.41 167.74, 106.31 167.57 C92.21 167.4, 77.63 164.54, 65.13 160.17 C52.63 155.8, 40.93 149.09, 31.31 141.36 C21.69 133.63, 12.63 123.67, 7.41 113.8 C2.19 103.94, -0.35 92.86, -0.02 82.17 C0.3 71.48, 3.88 59.45, 9.36 49.64 C14.84 39.83, 22.87 30.48, 32.87 23.32 C42.86 16.16, 55.95 10.72, 69.33 6.68 C82.72 2.65, 105.49 0, 113.17 -0.89 C120.85 -1.78, 115.68 -0.19, 115.4 1.36 M72.11 3.7 C83.97 -0.68, 99.67 -0.22, 113.52 0.54 C127.38 1.29, 142.85 3.69, 155.25 8.23 C167.66 12.78, 178.81 19.87, 187.96 27.83 C197.11 35.8, 205.02 46.06, 210.15 56.02 C215.29 65.98, 219.31 76.99, 218.74 87.59 C218.18 98.2, 212.67 110.02, 206.76 119.63 C200.84 129.24, 193.32 138.38, 183.24 145.24 C173.15 152.11, 159.28 157.42, 146.25 160.82 C133.21 164.22, 118.67 165.82, 105.01 165.67 C91.36 165.52, 77.12 164.08, 64.33 159.91 C51.55 155.74, 38.09 148.75, 28.31 140.62 C18.54 132.5, 10.61 121.31, 5.67 111.17 C0.73 101.03, -1.86 90.41, -1.34 79.78 C-0.82 69.15, 2.67 57.19, 8.8 47.38 C14.93 37.58, 25.2 28.14, 35.44 20.94 C45.68 13.73, 63.95 6.73, 70.26 4.16 C76.58 1.58, 72.73 3.93, 73.32 5.5" stroke="#1e1e1e" stroke-width="4" fill="none"></path></g><g stroke-linecap="round"><g transform="translate(1010.7294319016055 177.81033563391884) rotate(0 64.87347151941185 11.875144553384871)"><path d="M0.04 -0.58 C10.79 3.74, 42.88 24.69, 64.68 24.75 C86.47 24.81, 120.02 3.8, 130.82 -0.22 M-1.4 1.73 C9.71 5.84, 44.94 23.35, 66.94 23.15 C88.94 22.95, 120.18 4.12, 130.61 0.52" stroke="#1e1e1e" stroke-width="4" fill="none"></path></g></g><mask></mask><g stroke-linecap="round"><g transform="translate(1033.7436539492032 152.6628414819911) rotate(0 9.532957425004668 -4.106051194851716)"><path d="M-0.39 0.46 C1.72 -1.04, 9.47 -9.27, 12.7 -9.27 C15.92 -9.28, 17.79 -1.22, 18.93 0.43 M0.41 0.22 C2.49 -1.21, 9.5 -8.95, 12.52 -8.83 C15.53 -8.71, 17.56 -0.7, 18.52 0.96" stroke="#1e1e1e" stroke-width="4" fill="none"></path></g></g><mask></mask><g stroke-linecap="round"><g transform="translate(1094.8377779806447 153.00614010071422) rotate(0 9.532957425004668 -4.106051194851716)"><path d="M0.49 -0.5 C2.57 -2.06, 8.89 -9.08, 12.07 -8.9 C15.25 -8.71, 18.34 -1, 19.56 0.6 M0.08 0.43 C2.11 -0.81, 8.34 -8.4, 11.57 -8.26 C14.81 -8.13, 18.12 -0.37, 19.47 1.22" stroke="#1e1e1e" stroke-width="4" fill="none"></path></g></g><mask></mask><g stroke-linecap="round"><g transform="translate(1045.9150521042397 299.64051563715384) rotate(0 -132.60578084613203 37.16480089484685)"><path d="M-0.29 -0.28 C-23.38 5.34, -93.42 20.15, -137.46 32.65 C-181.5 45.14, -243.32 67.72, -264.53 74.68 M1.76 -1.47 C-21.48 4.46, -93.39 21.9, -137.84 34.24 C-182.29 46.57, -243.88 65.64, -264.94 72.52" stroke="#1e1e1e" stroke-width="4" fill="none"></path></g></g><mask></mask><g stroke-linecap="round"><g transform="translate(1093.8554437752998 293.0431929741253) rotate(0 137.00397582144774 35.62543366015484)"><path d="M1.08 0.1 C24.55 4.6, 94.97 14.87, 140.54 26.74 C186.11 38.61, 252.12 63.94, 274.49 71.3 M0.19 -0.89 C23.59 3.26, 94.32 12.55, 139.95 24.8 C185.58 37.06, 251.41 64.8, 273.98 72.64" stroke="#1e1e1e" stroke-width="4" fill="none"></path></g></g><mask></mask><g stroke-linecap="round"><g transform="translate(1076.2626236072992 322.07132410462145) rotate(0 -2.6389210118633173 186.04394140304908)"><path d="M0.68 0.35 C-0.3 27.24, -4.37 99.56, -4.79 161.46 C-5.22 223.36, -2.27 336.49, -1.88 371.75 M-0.43 -0.51 C-1.61 26.58, -5.18 100.79, -5.49 163.03 C-5.79 225.26, -2.82 338.23, -2.25 372.9" stroke="#1e1e1e" stroke-width="4" fill="none"></path></g></g><mask></mask><g stroke-linecap="round"><g transform="translate(1043.276110959007 724.9466220713543) rotate(0 -54.537694200718875 -0.4398235242053943)"><path d="M0.49 0.05 C-17.68 -0.21, -90.09 -1.22, -108.32 -1.21 M-0.72 -0.97 C-19.04 -1.09, -90.73 0.28, -108.87 0.15" stroke="#1e1e1e" stroke-width="4" fill="none"></path></g></g><mask></mask><g stroke-linecap="round"><g transform="translate(1090.3368958483943 723.6271615654218) rotate(0 56.736801755061435 -0.6597302529658009)"><path d="M0.76 -0.33 C19.62 -0.4, 94.93 -0.03, 113.67 -0.35 M-0.31 -1.55 C18.38 -1.95, 94.05 -1.98, 112.83 -1.97" stroke="#1e1e1e" stroke-width="4" fill="none"></path></g></g><mask></mask><g stroke-linecap="round" transform="translate(646.5722322845218 115.51384027346103) rotate(0 104.47832891513755 80.19962233388628)"><path d="M8.99 47.56 C8.99 47.56, 8.99 47.56, 8.99 47.56 M8.99 47.56 C8.99 47.56, 8.99 47.56, 8.99 47.56 M1.38 80.7 C19.02 61.51, 36.7 40.02, 64.36 8.25 M1.38 80.7 C23.39 55.23, 46.66 28.92, 64.36 8.25 M5.59 100.26 C32.82 68.15, 65.88 32.52, 90.22 2.9 M5.59 100.26 C29.12 74.45, 52.46 47.86, 90.22 2.9 M13.07 116.04 C42.39 78.81, 73.71 44.58, 112.79 1.32 M13.07 116.04 C49.54 73.49, 85.69 31.15, 112.79 1.32 M23.18 128.8 C54.59 90.89, 84.69 57.41, 131.42 4.27 M23.18 128.8 C56.54 90.94, 89.38 52.4, 131.42 4.27 M35.25 139.29 C72.04 96.9, 110.17 55.41, 149.4 7.97 M35.25 139.29 C75.21 94.98, 111.91 51.09, 149.4 7.97 M49.29 147.53 C84.76 105.81, 117.97 68.73, 163.45 16.21 M49.29 147.53 C92.87 96.06, 139.15 44.98, 163.45 16.21 M63.99 155 C101.69 112.79, 140.88 66.16, 177.49 24.44 M63.99 155 C105.42 106.76, 146.91 59.8, 177.49 24.44 M82.63 157.95 C118.96 117.49, 153.62 78.08, 188.91 35.69 M82.63 157.95 C105.18 131.24, 129.48 104.28, 188.91 35.69 M101.27 160.9 C128.39 130.15, 157.72 97.98, 199.02 48.45 M101.27 160.9 C125.21 132.74, 150.47 104.37, 199.02 48.45 M125.15 157.82 C148.64 127.74, 177.37 97.04, 205.19 65.74 M125.15 157.82 C142.26 138.82, 159.01 120.24, 205.19 65.74 M152.97 150.2 C173.13 124.53, 195.94 100.2, 208.08 86.8 M152.97 150.2 C173.15 128.03, 193.6 105.15, 208.08 86.8" stroke="#ffffff" stroke-width="2" fill="none"></path><path d="M106.99 0.16 C119.74 -0.79, 135.31 2.22, 147.32 6.32 C159.33 10.42, 169.98 17.27, 179.04 24.76 C188.1 32.24, 196.82 41.64, 201.68 51.23 C206.55 60.82, 208.38 71.95, 208.24 82.29 C208.1 92.62, 206.04 104.09, 200.84 113.24 C195.63 122.39, 186.7 130.21, 177.03 137.19 C167.35 144.17, 155.27 151.18, 142.78 155.11 C130.28 159.05, 115.32 160.89, 102.07 160.78 C88.81 160.68, 75.55 158.71, 63.26 154.51 C50.96 150.31, 37.67 143.09, 28.29 135.6 C18.91 128.11, 11.63 119.16, 6.97 109.56 C2.3 99.96, -0.07 88.36, 0.29 78 C0.65 67.65, 3.8 56.62, 9.12 47.41 C14.44 38.2, 22.48 29.63, 32.2 22.73 C41.92 15.84, 52.18 9.56, 67.45 6.04 C82.73 2.53, 111.93 1.68, 123.85 1.64 C135.77 1.61, 139.39 4.57, 138.95 5.83 M155.08 10.35 C166.55 14.21, 175.64 22.61, 184.11 30.46 C192.59 38.32, 201.98 47.66, 205.94 57.47 C209.89 67.27, 209.52 79.31, 207.84 89.27 C206.15 99.24, 202.18 108.43, 195.85 117.26 C189.53 126.09, 180.37 135.8, 169.89 142.23 C159.4 148.66, 145.84 152.97, 132.95 155.82 C120.06 158.67, 105.64 160.17, 92.54 159.32 C79.45 158.47, 65.9 155.43, 54.38 150.71 C42.86 146, 31.9 139.01, 23.43 131.01 C14.96 123.02, 7.16 112.46, 3.54 102.76 C-0.07 93.05, 0.12 83.02, 1.74 72.79 C3.36 62.56, 7.13 50.72, 13.27 41.36 C19.41 31.99, 28.28 22.89, 38.58 16.61 C48.87 10.33, 62.03 6.23, 75.04 3.67 C88.05 1.11, 103.27 0.35, 116.64 1.27 C130.01 2.18, 148.99 7.74, 155.28 9.16 C161.56 10.57, 155.62 8.57, 154.36 9.74" stroke="#1e1e1e" stroke-width="4" fill="none"></path></g><g stroke-linecap="round"><g transform="translate(683.4036716788565 209.44779495020066) rotate(0 39.517688439556935 11.61167261264859)"><path d="M0.05 0.65 C3.81 4.42, 10.21 22.68, 23.4 23.62 C36.6 24.56, 70.03 9.5, 79.21 6.27 M-1.38 -0.06 C2.66 3.26, 12.22 20.95, 25.54 21.7 C38.86 22.46, 69.71 7.28, 78.54 4.46" stroke="#1e1e1e" stroke-width="4" fill="none"></path></g></g><mask></mask><g stroke-linecap="round"><g transform="translate(688.7216270194399 173.85889610890445) rotate(0 9.14445403706074 -3.9387143727983585)"><path d="M-0.5 0.18 C1.46 -1.19, 8.7 -7.92, 11.79 -7.94 C14.88 -7.96, 16.96 -1.33, 18.05 0.07 M0.24 -0.2 C2.14 -1.74, 8.51 -8.77, 11.4 -8.67 C14.29 -8.56, 16.4 -1.17, 17.57 0.43" stroke="#1e1e1e" stroke-width="4" fill="none"></path></g></g><mask></mask><g stroke-linecap="round"><g transform="translate(747.325938801492 174.18820403507652) rotate(0 9.14445403706074 -3.9387143727983585)"><path d="M0.08 0.47 C2.07 -1.04, 8.42 -8.87, 11.46 -8.87 C14.51 -8.88, 17.17 -1.05, 18.33 0.46 M-0.54 0.23 C1.4 -1.24, 7.82 -8.55, 10.91 -8.41 C14 -8.28, 16.73 -0.46, 18 1.02" stroke="#1e1e1e" stroke-width="4" fill="none"></path></g></g><mask></mask><g stroke-linecap="round"><g transform="translate(717.1553472989021 316.61072700887144) rotate(0 -62.92383450296532 61.724150495197364)"><path d="M-0.53 -1.01 C-18.46 19.69, -86.55 125.53, -107.4 125.23 C-128.25 124.94, -122.66 18.28, -125.65 -2.77 M1.39 1.07 C-16.7 22.48, -87.02 127.18, -108.31 126.68 C-129.59 126.19, -123.55 19.76, -126.31 -1.89" stroke="#1e1e1e" stroke-width="4" fill="none"></path></g></g><mask></mask><g stroke-linecap="round"><g transform="translate(763.1419901223368 310.2822697243073) rotate(0 47.648616763383416 91.72458092210672)"><path d="M0.08 -0.16 C16.09 14.3, 91.48 55.03, 95.5 85.77 C99.51 116.51, 35.97 167.95, 24.16 184.28 M-1.33 -1.29 C14.58 13.39, 90.49 56.27, 94.65 86.88 C98.82 117.49, 35.2 166.02, 23.66 182.37" stroke="#1e1e1e" stroke-width="4" fill="none"></path></g></g><mask></mask><g stroke-linecap="round"><g transform="translate(746.2661426558852 338.12739679980814) rotate(0 -2.531375188681892 178.4619604585057)"><path d="M0.2 -0.83 C-0.58 25.14, -4.27 95.99, -4.57 155.66 C-4.86 215.33, -1.73 323.59, -1.57 357.2 M-1.16 1.35 C-2.05 27, -5.14 94.42, -5.25 153.97 C-5.37 213.53, -2.05 324.55, -1.82 358.66" stroke="#1e1e1e" stroke-width="4" fill="none"></path></g></g><mask></mask><g stroke-linecap="round"><g transform="translate(714.6239527973605 724.5840314702518) rotate(0 -52.31508079513981 -0.4218990835902332)"><path d="M0.5 0.83 C-16.81 0.87, -85.96 -0.36, -103.66 -0.57 M-0.7 0.22 C-18.1 -0.05, -86.99 -2.08, -104.1 -2.54" stroke="#1e1e1e" stroke-width="4" fill="none"></path></g></g><mask></mask><g stroke-linecap="round"><g transform="translate(759.7668360793335 723.3183438759115) rotate(0 54.424566556661375 -0.632843797170608)"><path d="M0.97 0.28 C18.85 0, 89.76 -0.55, 107.78 -0.85 M0.01 -0.62 C18.21 -1.35, 91.85 -2.8, 109.92 -2.76" stroke="#1e1e1e" stroke-width="4" fill="none"></path></g></g><mask></mask><g stroke-linecap="round"><g transform="translate(370.3698913746613 290.7344193961558) rotate(0 -69.48789326620212 61.67901581638125)"><path d="M-0.86 -0.39 C-24.16 4.94, -138.6 11.07, -139.14 31.54 C-139.68 52, -26.68 107.15, -4.09 122.39 M0.88 -1.64 C-22.65 3.83, -139.74 11.68, -140.17 32.49 C-140.61 53.3, -24.47 107.96, -1.72 123.21" stroke="#1e1e1e" stroke-width="4" fill="none"></path></g></g><mask></mask><g stroke-linecap="round" transform="translate(297.03213947063136 80.68527966713009) rotate(0 109.2570665146221 83.86787540312048)"><path d="M30.26 24.98 C30.26 24.98, 30.26 24.98, 30.26 24.98 M30.26 24.98 C30.26 24.98, 30.26 24.98, 30.26 24.98 M1.66 82.27 C16.65 65.85, 32.5 47.98, 67.27 6.8 M1.66 82.27 C15.44 64.61, 29.74 49.16, 67.27 6.8 M5.87 101.82 C30.79 70.49, 60.24 39.79, 91.81 2.96 M5.87 101.82 C34.68 70.04, 63.98 37.1, 91.81 2.96 M11.38 119.87 C47.57 81.05, 79.33 44.31, 114.38 1.38 M11.38 119.87 C44.88 80.77, 79.67 42.09, 114.38 1.38 M22.14 131.87 C51.94 97.29, 82.95 60.27, 133.67 3.57 M22.14 131.87 C58.6 91.18, 94.83 49.53, 133.67 3.57 M32.91 143.88 C80.93 91.85, 127.4 36.29, 151.65 7.28 M32.91 143.88 C63.54 109.19, 94.31 73.77, 151.65 7.28 M47.61 151.36 C92.11 101.74, 136.24 45.56, 166.35 14.76 M47.61 151.36 C73.39 122.07, 99.54 93.71, 166.35 14.76 M62.31 158.84 C104.47 111.02, 147.19 64.95, 181.05 22.23 M62.31 158.84 C86.36 132.23, 109.9 103.91, 181.05 22.23 M79.63 163.3 C109.26 132.55, 132.79 97.86, 193.78 31.98 M79.63 163.3 C111.43 126.85, 143.13 91.27, 193.78 31.98 M98.92 165.49 C136.92 122.04, 176.14 77.41, 204.55 43.98 M98.92 165.49 C139.08 119.59, 180.26 73.36, 204.55 43.98 M120.18 165.42 C147.15 134.4, 174.77 104.8, 212.69 59.01 M120.18 165.42 C153.39 125.34, 189.56 83.13, 212.69 59.01 M144.07 162.34 C169.4 134.52, 192.34 103.57, 217.54 77.81 M144.07 162.34 C170.77 132.28, 198.22 102.66, 217.54 77.81 M177.14 148.68 C186.36 138.12, 190.74 132.35, 213.87 106.42 M177.14 148.68 C186.88 137.73, 198.12 124.99, 213.87 106.42" stroke="#ffffff" stroke-width="2" fill="none"></path><path d="M65.33 6.96 C76.93 1.81, 93.38 0.4, 107.27 0.17 C121.16 -0.07, 135.57 1.59, 148.67 5.57 C161.77 9.55, 175.67 16.65, 185.88 24.04 C196.08 31.43, 204.45 40.32, 209.88 49.89 C215.32 59.45, 218.27 70.62, 218.49 81.43 C218.72 92.24, 216.16 104.55, 211.23 114.76 C206.29 124.96, 198.47 135.02, 188.87 142.64 C179.27 150.25, 166.46 156.39, 153.65 160.42 C140.85 164.46, 126.27 166.65, 112.05 166.84 C97.84 167.04, 81.53 165.46, 68.34 161.59 C55.15 157.72, 42.68 150.85, 32.92 143.63 C23.16 136.41, 15.11 128.06, 9.76 118.26 C4.42 108.45, 1.14 95.64, 0.86 84.79 C0.57 73.93, 3.16 63.06, 8.03 53.14 C12.89 43.21, 20.13 32.98, 30.05 25.22 C39.98 17.47, 60.76 9.65, 67.58 6.59 C74.4 3.53, 70.13 5.68, 70.98 6.85 M64.32 8.42 C75.35 3.14, 90.22 1.32, 104.16 0.84 C118.09 0.36, 134.66 1.86, 147.92 5.54 C161.18 9.21, 173.36 15.75, 183.73 22.89 C194.1 30.03, 204.22 38.45, 210.14 48.37 C216.05 58.29, 219.1 71.8, 219.23 82.42 C219.36 93.05, 215.72 102.12, 210.91 112.12 C206.1 122.12, 199.75 134.45, 190.38 142.4 C181.01 150.36, 167.51 155.77, 154.7 159.84 C141.89 163.91, 127.3 166.3, 113.51 166.82 C99.72 167.33, 84.88 166.45, 71.96 162.95 C59.03 159.44, 46.29 153.16, 35.96 145.8 C25.64 138.44, 16.08 128.88, 10 118.78 C3.91 108.69, 0.15 96.23, -0.54 85.25 C-1.23 74.27, 0.8 62.51, 5.85 52.9 C10.9 43.29, 20.11 34.97, 29.76 27.57 C39.42 20.16, 57.97 11.55, 63.79 8.47 C69.61 5.39, 64.01 8.07, 64.68 9.09" stroke="#1e1e1e" stroke-width="4" fill="none"></path></g><g stroke-linecap="round"><g transform="translate(395.2409637999632 194.5803247171143) rotate(0 38.07209682016723 -12.281700407014569)"><path d="M-0.99 -0.96 C6.67 -0.65, 32.94 4.86, 45.79 0.75 C58.64 -3.36, 71.03 -21.12, 76.12 -25.63 M0.7 1.14 C8.17 1.73, 32.13 6.36, 44.57 2.12 C57.01 -2.12, 69.98 -19.69, 75.33 -24.3" stroke="#1e1e1e" stroke-width="4" fill="none"></path></g></g><mask></mask><g stroke-linecap="round"><g transform="translate(418.93368515887244 284.1165046031647) rotate(0 42.43519139420442 -21.853484203675407)"><path d="M-0.52 -0.33 C13.78 6.06, 78.31 50.95, 84.84 37.39 C91.37 23.82, 46.42 -62.14, 38.64 -81.73 M1.4 -1.55 C15.63 5.13, 77.78 52.14, 83.88 38.94 C89.97 25.74, 45.58 -60.56, 37.97 -80.75" stroke="#1e1e1e" stroke-width="4" fill="none"></path></g></g><mask></mask><g stroke-linecap="round"><g transform="translate(401.28595276998374 313.23524082900076) rotate(0 -2.647157838712431 186.6246377273344)"><path d="M-0.03 0.02 C-0.79 26.95, -4.63 98.9, -5.11 161.27 C-5.6 223.63, -3.46 338.77, -2.94 374.2 M-1.5 -1.01 C-2.36 26.1, -5.57 100.23, -5.96 162.46 C-6.36 224.69, -4.62 337.5, -3.86 372.35" stroke="#1e1e1e" stroke-width="4" fill="none"></path></g></g><mask></mask><g stroke-linecap="round"><g transform="translate(368.19647978607645 717.3680277680164) rotate(0 -54.70792193465373 -0.4411963391539757)"><path d="M0.18 -0.65 C-18.1 -0.64, -91.55 0.01, -109.71 0.07 M-1.18 1.62 C-19.64 1.3, -92.81 -0.89, -110.81 -1.56" stroke="#1e1e1e" stroke-width="4" fill="none"></path></g></g><mask></mask><g stroke-linecap="round"><g transform="translate(415.4041548380634 716.0444488486614) rotate(0 56.91389353231793 -0.6617894596781753)"><path d="M-0.29 0.95 C18.76 0.93, 95.56 -0.38, 114.49 -0.76 M1.76 0.4 C20.69 0.08, 95.48 -2.52, 113.89 -2.59" stroke="#1e1e1e" stroke-width="4" fill="none"></path></g></g><mask></mask><g stroke-linecap="round"><g transform="translate(437.20148018071814 130.2248032461548) rotate(0 9.562712510252396 -4.118867354400891)"><path d="M0.3 0.26 C2.32 -1.28, 8.93 -8.87, 11.99 -8.79 C15.04 -8.72, 17.42 -0.94, 18.63 0.71 M-0.21 -0.09 C1.73 -1.57, 8.1 -8.06, 11.42 -8.1 C14.74 -8.13, 18.36 -1.66, 19.69 -0.28" stroke="#1e1e1e" stroke-width="4" fill="none"></path></g></g><mask></mask><g stroke-linecap="round"><g transform="translate(401.02869472050367 133.88406792638307) rotate(0 9.562712510252396 -4.118867354400891)"><path d="M-0.26 0 C1.65 -1.48, 8.5 -8.82, 11.75 -8.64 C15 -8.46, 17.96 -0.52, 19.25 1.08 M0.61 -0.48 C2.65 -2.15, 9.67 -9.65, 12.73 -9.53 C15.79 -9.4, 17.8 -1.3, 18.96 0.28" stroke="#1e1e1e" stroke-width="4" fill="none"></path></g></g><mask></mask></svg>