<svg version="1.1" xmlns="http://www.w3.org/2000/svg" viewBox="0 0 800 760" width="1600" height="1520">
  <!-- svg-source:excalidraw -->
  
  <defs>
    <style class="style-fonts">
      
    </style>
    
  </defs>
  <g stroke-linecap="round" transform="translate(10 10) rotate(0 390 370)"><path d="M32 0 C280.02 0, 528.04 0, 748 0 C769.33 0, 780 10.67, 780 32 C780 301, 780 570, 780 708 C780 729.33, 769.33 740, 748 740 C520.71 740, 293.41 740, 32 740 C10.67 740, 0 729.33, 0 708 C0 502.88, 0 297.76, 0 32 C0 10.67, 10.67 0, 32 0" stroke="none" stroke-width="0" fill="#ffffff"></path><path d="M32 0 C268.34 0, 504.67 0, 748 0 M32 0 C268.67 0, 505.34 0, 748 0 M748 0 C769.33 0, 780 10.67, 780 32 M748 0 C769.33 0, 780 10.67, 780 32 M780 32 C780 220.62, 780 409.24, 780 708 M780 32 C780 285.46, 780 538.91, 780 708 M780 708 C780 729.33, 769.33 740, 748 740 M780 708 C780 729.33, 769.33 740, 748 740 M748 740 C597.35 740, 446.69 740, 32 740 M748 740 C582.14 740, 416.28 740, 32 740 M32 740 C10.67 740, 0 729.33, 0 708 M32 740 C10.67 740, 0 729.33, 0 708 M0 708 C0 567.49, 0 426.97, 0 32 M0 708 C0 439, 0 170.01, 0 32 M0 32 C0 10.67, 10.67 0, 32 0 M0 32 C0 10.67, 10.67 0, 32 0" stroke="#ffffff" stroke-width="4" fill="none"></path></g><g stroke-linecap="round"><g transform="translate(200.18433103082128 307.4904429537164) rotate(0 -64.53852319328759 57.73552861822782)"><path d="M1.11 -0.66 C-20.54 4.47, -129.12 10.68, -129.73 29.99 C-130.34 49.3, -23.87 100.69, -2.54 115.22 M0.23 1.6 C-21.51 6.95, -129.63 12.07, -130.18 31.15 C-130.74 50.24, -24.04 102.12, -3.11 116.13" stroke="#1e1e1e" stroke-width="4" fill="none"></path></g></g><mask></mask><g stroke-linecap="round" transform="translate(131.2313939826568 110) rotate(0 102.72465999923676 78.8534715463087)"><path d="M15.21 38.39 C15.21 38.39, 15.21 38.39, 15.21 38.39 M15.21 38.39 C15.21 38.39, 15.21 38.39, 15.21 38.39 M1.69 78.32 C22.82 55.73, 42.09 33.34, 64.02 6.63 M1.69 78.32 C16.53 61.35, 31.62 43.58, 64.02 6.63 M4.59 99.39 C27.72 71.03, 55.8 42.3, 89.87 1.27 M4.59 99.39 C26.64 73.72, 49.52 49.2, 89.87 1.27 M13.38 113.66 C43.66 78.5, 70.6 45.97, 111.13 1.21 M13.38 113.66 C44.51 77.01, 76.36 40.05, 111.13 1.21 M22.83 127.17 C51.77 94.11, 79.74 62.4, 129.77 4.16 M22.83 127.17 C57.77 87.09, 93.81 44.4, 129.77 4.16 M36.22 136.16 C73.45 92.36, 109.92 51.62, 146.44 9.37 M36.22 136.16 C69.22 98.77, 103.13 60.5, 146.44 9.37 M48.95 145.9 C76.91 112.41, 106.04 81.34, 161.79 16.09 M48.95 145.9 C91.49 98.7, 131.48 51.15, 161.79 16.09 M65.62 151.12 C97.14 117.71, 126.71 80.78, 175.18 25.08 M65.62 151.12 C96.51 114.99, 128.18 78.35, 175.18 25.08 M82.94 155.58 C112.12 125.89, 137.66 95, 187.91 34.82 M82.94 155.58 C124.4 109.38, 164.83 64.72, 187.91 34.82 M103.55 156.26 C126.32 130.37, 147.97 105.8, 196.05 49.85 M103.55 156.26 C131.46 123.08, 161.66 90.5, 196.05 49.85 M125.46 155.44 C148.85 128.03, 174.19 98.38, 202.88 66.38 M125.46 155.44 C141.19 138.07, 158.18 118.24, 202.88 66.38 M154.59 146.31 C166.21 132.09, 178.02 119.72, 204.46 88.95 M154.59 146.31 C172.81 127.05, 188.69 106.73, 204.46 88.95" stroke="#ced4da" stroke-width="2" fill="none"></path><path d="M119.77 1.12 C132.47 1.39, 145.62 7.13, 156.68 12.41 C167.74 17.7, 178.49 24.81, 186.11 32.81 C193.73 40.81, 199.36 50.65, 202.39 60.39 C205.43 70.13, 206.33 81.42, 204.32 91.25 C202.3 101.09, 197.16 110.82, 190.28 119.4 C183.41 127.97, 173.75 136.8, 163.09 142.7 C152.43 148.61, 139.08 152.45, 126.33 154.84 C113.57 157.22, 99.42 158.56, 86.56 157.03 C73.7 155.49, 60.22 150.9, 49.17 145.62 C38.11 140.34, 28.03 133.56, 20.22 125.35 C12.41 117.13, 5.58 106.08, 2.32 96.34 C-0.94 86.6, -1.51 76.6, 0.69 66.89 C2.88 57.17, 8.51 46.83, 15.51 38.04 C22.51 29.26, 32.12 20.26, 42.67 14.16 C53.22 8.06, 65.24 3.57, 78.81 1.47 C92.38 -0.62, 115.65 0.96, 124.09 1.59 C132.52 2.21, 129.87 4.01, 129.43 5.24 M108.81 0.25 C121.43 -0.61, 136.06 3.26, 147.79 7.64 C159.52 12.01, 170.68 18.86, 179.19 26.49 C187.7 34.13, 194.63 43.81, 198.85 53.46 C203.07 63.11, 205.12 74.45, 204.5 84.39 C203.89 94.32, 200.89 104.46, 195.15 113.08 C189.4 121.7, 179.84 129.18, 170.03 136.12 C160.22 143.05, 148.24 151, 136.29 154.69 C124.33 158.38, 111.23 159.03, 98.3 158.27 C85.37 157.51, 70.85 154.75, 58.71 150.12 C46.57 145.5, 34.13 138.25, 25.45 130.51 C16.77 122.77, 10.92 112.83, 6.65 103.66 C2.37 94.48, -0.96 85.23, -0.21 75.44 C0.54 65.65, 5.53 54.21, 11.14 44.92 C16.75 35.63, 23.8 26.45, 33.45 19.7 C43.11 12.96, 56.59 7.51, 69.08 4.46 C81.58 1.4, 101.83 1.8, 108.43 1.39 C115.03 0.99, 108.77 0.72, 108.66 2.03" stroke="#1e1e1e" stroke-width="4" fill="none"></path></g><g stroke-linecap="round"><g transform="translate(223.5683787652862 217.0853369176957) rotate(0 35.444063293954564 -11.23018628493378)"><path d="M0.38 -0.76 C7.66 -0.28, 32.77 6.05, 44.67 2.22 C56.57 -1.61, 67.12 -19.42, 71.77 -23.75 M-0.89 1.45 C6.26 1.7, 32.31 5.28, 44.31 0.72 C56.31 -3.83, 66.27 -22.04, 71.1 -25.9" stroke="#1e1e1e" stroke-width="4" fill="none"></path></g></g><mask></mask><g stroke-linecap="round"><g transform="translate(245.84452825100286 301.2682088346719) rotate(0 40.75426868596428 94.93316364467)"><path d="M1.12 1.2 C1.78 19.51, -9.66 77.78, 4.34 109.09 C18.34 140.41, 71.75 175.85, 85.12 189.08 M0.25 0.78 C0.74 18.79, -10.62 76.14, 3.48 107.16 C17.59 138.19, 71.28 173.21, 84.86 186.93" stroke="#1e1e1e" stroke-width="4" fill="none"></path></g></g><mask></mask><g stroke-linecap="round"><g transform="translate(229.2519419109376 328.6459554082194) rotate(0 -2.1487673559857114 175.68231054632406)"><path d="M0.18 0.36 C-0.67 25.59, -3.63 94.2, -4.01 152.59 C-4.39 210.97, -2.35 317.59, -2.1 350.68 M-1.18 -0.49 C-2.21 24.87, -4.21 91.93, -4.45 150.65 C-4.7 209.38, -3.03 318.25, -2.67 351.86" stroke="#1e1e1e" stroke-width="4" fill="none"></path></g></g><mask></mask><g stroke-linecap="round"><g transform="translate(198.14086625917747 708.6159148551756) rotate(0 -51.13542956781916 -0.36733206285589404)"><path d="M0.96 0.35 C-16.15 0.11, -85.18 -0.92, -102.49 -1.09 M0.01 -0.51 C-17.24 -0.6, -85.95 0.11, -103.24 0.32" stroke="#1e1e1e" stroke-width="4" fill="none"></path></g></g><mask></mask><g stroke-linecap="round"><g transform="translate(242.52602617394422 707.3714718291058) rotate(0 53.052243965407776 -0.4556022742863206)"><path d="M0.38 -0.26 C18.05 -0.5, 89.19 -0.92, 106.98 -1.09 M-0.87 -1.44 C16.55 -1.49, 88.13 0.29, 106.01 0.53" stroke="#1e1e1e" stroke-width="4" fill="none"></path></g></g><mask></mask><g stroke-linecap="round"><g transform="translate(263.0201040962843 156.57758878688628) rotate(0 9.034737737190738 -3.599551758359212)"><path d="M-0.02 0.07 C1.88 -1.29, 8.61 -8.36, 11.56 -8.29 C14.5 -8.22, 16.55 -0.93, 17.63 0.5 M-0.69 -0.37 C1.12 -1.63, 7.9 -7.84, 11.15 -7.6 C14.39 -7.36, 17.6 -0.29, 18.76 1.09" stroke="#1e1e1e" stroke-width="4" fill="none"></path></g></g><mask></mask><g stroke-linecap="round"><g transform="translate(229.0100651471919 160.01806849327954) rotate(0 8.710858726593727 -3.7500717403656836)"><path d="M0.04 -0.02 C1.91 -1.41, 8.16 -8.34, 11.16 -8.29 C14.15 -8.23, 16.94 -1.15, 18.02 0.3 M-0.6 -0.51 C1.44 -1.82, 9.16 -7.82, 12.21 -7.6 C15.26 -7.38, 16.8 -0.63, 17.69 0.79" stroke="#1e1e1e" stroke-width="4" fill="none"></path></g></g><mask></mask><g stroke-linecap="round" transform="translate(493.3351831077118 76.97261918399909) rotate(0 110.94682129453203 85.16496444151551)"><path d="M16.99 39.94 C16.99 39.94, 16.99 39.94, 16.99 39.94 M16.99 39.94 C16.99 39.94, 16.99 39.94, 16.99 39.94 M6.76 76.1 C23.9 57.4, 35.51 40.05, 52.68 23.27 M6.76 76.1 C20.68 60.42, 35.03 44.52, 52.68 23.27 M7.68 99.43 C28.81 76.29, 47.47 53.24, 89.03 5.85 M7.68 99.43 C25.46 78.02, 43.55 57.21, 89.03 5.85 M14.51 115.96 C37.12 86.45, 62.36 59.42, 110.95 5.02 M14.51 115.96 C47.84 77.44, 81.3 38.16, 110.95 5.02 M23.3 130.23 C63.29 84.97, 103.68 37.8, 132.87 4.2 M23.3 130.23 C46.24 103.25, 70.18 75.11, 132.87 4.2 M32.1 144.5 C71.71 96.09, 117.28 48.73, 150.19 8.66 M32.1 144.5 C57.91 114.7, 83.97 84.55, 150.19 8.66 M44.83 154.25 C91.8 103.05, 134.07 48.61, 166.86 13.87 M44.83 154.25 C77.07 117.9, 107.81 80.48, 166.86 13.87 M58.22 163.23 C99.5 116.43, 136.01 72.62, 180.9 22.1 M58.22 163.23 C85.21 131.38, 111.59 100.54, 180.9 22.1 M75.54 167.69 C100.27 138.99, 129.94 107.42, 193.63 31.85 M75.54 167.69 C99.99 137.49, 127.07 107.91, 193.63 31.85 M94.18 170.64 C123.89 133, 159.01 95.3, 206.36 41.59 M94.18 170.64 C133.05 125.39, 172.63 79.11, 206.36 41.59 M116.09 169.82 C136.39 144.22, 159.43 117.94, 215.16 55.86 M116.09 169.82 C144.1 136.23, 173.18 103.2, 215.16 55.86 M138.01 169 C160.03 143.99, 180.67 121.41, 223.95 70.13 M138.01 169 C170.94 129.79, 205 90.73, 223.95 70.13 M168.46 158.36 C184.01 141.32, 199.84 121.77, 220.28 98.74 M168.46 158.36 C188.45 134.44, 208.54 111.16, 220.28 98.74" stroke="#ced4da" stroke-width="2" fill="none"></path><path d="M128 0.18 C141.74 0.33, 157.14 5.56, 169.24 11.52 C181.33 17.49, 192.39 27.1, 200.57 35.97 C208.75 44.84, 215.09 54.32, 218.31 64.75 C221.54 75.17, 222.12 87.75, 219.92 98.49 C217.72 109.24, 212.31 119.92, 205.11 129.24 C197.91 138.56, 188.06 147.81, 176.7 154.4 C165.35 160.98, 150.8 166.1, 136.99 168.74 C123.18 171.37, 107.91 172.08, 93.82 170.22 C79.73 168.36, 64.53 163.35, 52.43 157.57 C40.33 151.79, 29.36 144.14, 21.2 135.53 C13.04 126.91, 6.75 116.43, 3.46 105.86 C0.18 95.29, -0.74 83.06, 1.51 72.09 C3.75 61.13, 9.62 49.34, 16.9 40.04 C24.19 30.75, 33.86 22.52, 45.24 16.31 C56.62 10.1, 70.74 5.18, 85.18 2.78 C99.63 0.39, 123.51 1.67, 131.93 1.91 C140.34 2.16, 135.89 3.07, 135.69 4.28 M79.87 3.96 C91.85 0.1, 107.61 0.02, 121.57 0.97 C135.53 1.91, 151.13 4.43, 163.62 9.63 C176.12 14.84, 187.57 23.58, 196.54 32.19 C205.51 40.8, 213.42 51.05, 217.46 61.31 C221.49 71.57, 222.1 82.95, 220.76 93.75 C219.43 104.55, 215.89 116.61, 209.44 126.12 C202.98 135.63, 193.07 144.03, 182.03 150.82 C170.99 157.61, 157.05 163.74, 143.22 166.87 C129.38 170.01, 113.26 170.57, 99.04 169.65 C84.82 168.72, 70.17 166.75, 57.91 161.33 C45.64 155.92, 34.19 145.67, 25.45 137.16 C16.7 128.64, 9.52 120.39, 5.43 110.24 C1.33 100.1, -0.3 87.33, 0.88 76.28 C2.06 65.23, 5.91 53.27, 12.5 43.93 C19.09 34.59, 29.1 26.72, 40.41 20.21 C51.72 13.71, 73.64 7.5, 80.37 4.89 C87.1 2.28, 80.42 3.43, 80.8 4.57" stroke="#1e1e1e" stroke-width="4" fill="none"></path></g><g stroke-linecap="round"><g transform="translate(532.4469411817021 176.72223990653038) rotate(0 42.18855935113385 12.508129306749197)"><path d="M0.37 -0.9 C4.76 3.31, 12.24 23.3, 25.99 24.47 C39.75 25.64, 73.45 9.27, 82.91 6.12 M-0.89 1.24 C3.37 5.71, 10.68 25.44, 25.04 25.91 C39.4 26.38, 75.7 7.27, 85.27 4.05" stroke="#1e1e1e" stroke-width="4" fill="none"></path></g></g><mask></mask><g stroke-linecap="round"><g transform="translate(538.0941433043857 138.9299509140294) rotate(0 9.629014959247911 -4.204661909635433)"><path d="M-0.01 -0.09 C1.96 -1.47, 8.82 -8.79, 11.97 -8.68 C15.11 -8.58, 17.56 -0.96, 18.89 0.54 M-0.68 -0.61 C1.44 -2.11, 9.52 -9.81, 12.96 -9.52 C16.39 -9.24, 18.98 -0.58, 19.93 1.12" stroke="#1e1e1e" stroke-width="4" fill="none"></path></g></g><mask></mask><g stroke-linecap="round"><g transform="translate(600.326782109832 139.27964704733517) rotate(0 9.73993608221285 -4.097033847150556)"><path d="M-0.47 0.25 C1.52 -1.23, 8.5 -8.97, 11.9 -8.96 C15.3 -8.95, 18.73 -1.23, 19.95 0.3 M0.29 -0.1 C2.44 -1.48, 9.6 -8.42, 12.86 -8.27 C16.13 -8.13, 18.82 -0.7, 19.87 0.76" stroke="#1e1e1e" stroke-width="4" fill="none"></path></g></g><mask></mask><g stroke-linecap="round"><g transform="translate(568.288260259937 290.51987426732285) rotate(0 -67.37678062532102 65.4935858708269)"><path d="M-1.16 -0.06 C-19.82 21.95, -90.83 133.04, -112.99 132.58 C-135.16 132.12, -130.73 19.72, -134.15 -2.83 M0.43 -1.14 C-18.2 20.98, -90.73 133.94, -113.34 133.82 C-135.94 133.69, -131.88 20.71, -135.19 -1.91" stroke="#1e1e1e" stroke-width="4" fill="none"></path></g></g><mask></mask><g stroke-linecap="round"><g transform="translate(617.1220413535381 283.79960771337664) rotate(0 50.575848516138535 97.30482684956928)"><path d="M1.15 -0.58 C18.12 14.63, 96.66 58.74, 100.68 91.2 C104.71 123.66, 37.93 176.84, 25.28 194.19 M0.29 1.73 C17.17 17.09, 95.42 60.1, 99.47 92.34 C103.52 124.58, 37.03 178.41, 24.59 195.19" stroke="#1e1e1e" stroke-width="4" fill="none"></path></g></g><mask></mask><g stroke-linecap="round"><g transform="translate(599.2013715601403 313.3686903130647) rotate(0 -2.4502513966314723 189.38427040737997)"><path d="M-0.51 -0.76 C-1.58 26.64, -4.8 100.43, -5.23 163.81 C-5.66 227.19, -3.58 343.66, -3.08 379.53 M1.42 1.45 C0.11 29.05, -5.19 102.36, -6.1 165.02 C-7.02 227.69, -4.78 341.6, -4.05 377.45" stroke="#1e1e1e" stroke-width="4" fill="none"></path></g></g><mask></mask><g stroke-linecap="round"><g transform="translate(565.6001413332203 723.7517394111619) rotate(0 -56.2538713787818 -0.28350263871902825)"><path d="M0.14 -0.61 C-18.35 -0.55, -93.04 -0.34, -111.5 -0.39 M-1.24 1.68 C-19.88 1.44, -94.33 -2.03, -112.65 -2.24" stroke="#1e1e1e" stroke-width="4" fill="none"></path></g></g><mask></mask><g stroke-linecap="round"><g transform="translate(613.5379238017081 722.4076902020852) rotate(0 57.83725273301205 -0.4183171986137495)"><path d="M-0.39 0.51 C18.93 0.39, 96.58 -1.05, 116.07 -1.34 M1.61 -0.27 C20.8 -0.13, 96.26 0.13, 115.37 0.19" stroke="#1e1e1e" stroke-width="4" fill="none"></path></g></g><mask></mask></svg>