<svg version="1.1" xmlns="http://www.w3.org/2000/svg" viewBox="0 0 1442.2222222222222 820" width="2884.4444444444443" height="1640">
  <!-- svg-source:excalidraw -->
  
  <defs>
    <style class="style-fonts">
      
    </style>
    
  </defs>
  <g stroke-linecap="round" transform="translate(10 10) rotate(0 711.1111111111111 400)"><path d="M32 0 C493.6 -3.69, 952.96 -4.71, 1390.22 0 M32 0 C407.6 -0.74, 783.19 -1.11, 1390.22 0 M1390.22 0 C1411.73 0.63, 1423.75 12.18, 1422.22 32 M1390.22 0 C1411.88 0.91, 1423.14 12.57, 1422.22 32 M1422.22 32 C1421.84 227.95, 1421.7 423.79, 1422.22 768 M1422.22 32 C1420.61 201.97, 1420.74 372.16, 1422.22 768 M1422.22 768 C1420.72 789.6, 1413.36 798.55, 1390.22 800 M1422.22 768 C1420.49 788.61, 1409.62 802.24, 1390.22 800 M1390.22 800 C1076.54 803.84, 763.57 804.47, 32 800 M1390.22 800 C854.41 800.79, 319.19 801.15, 32 800 M32 800 C9.8 800.24, 0.89 790.66, 0 768 M32 800 C10.75 801.76, -1.87 787.64, 0 768 M0 768 C1.67 592.86, 1.08 417.23, 0 32 M0 768 C-1.42 562.82, -1.26 356.63, 0 32 M0 32 C0.97 12.24, 11.78 -0.39, 32 0 M0 32 C1.11 9.02, 9.19 -1.12, 32 0" stroke="transparent" stroke-width="4" fill="none"></path></g><g stroke-linecap="round" transform="translate(894.2356219267626 96.94608764123677) rotate(0 108.9171050942017 83.60691432335489)"><path d="M71.83 4.49 C83.73 -0.2, 100.31 -0.42, 113.98 0.13 C127.66 0.67, 141.24 3.31, 153.88 7.77 C166.52 12.23, 180.12 19.12, 189.82 26.89 C199.52 34.66, 207.43 44.44, 212.08 54.4 C216.73 64.35, 218.4 75.94, 217.73 86.63 C217.06 97.31, 213.89 108.64, 208.06 118.51 C202.23 128.38, 193 138.5, 182.75 145.85 C172.5 153.2, 159.57 159.09, 146.58 162.62 C133.58 166.15, 118.68 167.72, 104.79 167.04 C90.91 166.37, 75.83 163.16, 63.29 158.57 C50.75 153.99, 38.98 147.39, 29.55 139.52 C20.12 131.66, 11.52 121.32, 6.7 111.41 C1.89 101.49, 0.01 90.7, 0.66 80.03 C1.3 69.36, 4.91 56.99, 10.58 47.39 C16.26 37.79, 21.49 30.15, 34.73 22.44 C47.96 14.72, 77.78 4.54, 89.97 1.09 C102.16 -2.36, 107.45 0.39, 107.88 1.73 M59.36 11.04 C70.32 4.96, 85.51 0.36, 99.38 -0.68 C113.26 -1.72, 129.34 1.27, 142.62 4.81 C155.9 8.36, 168.63 14.01, 179.06 20.58 C189.49 27.16, 198.68 34.88, 205.2 44.26 C211.72 53.64, 216.67 66.19, 218.17 76.87 C219.67 87.55, 218.2 98.2, 214.19 108.35 C210.17 118.5, 202.94 129.32, 194.09 137.76 C185.24 146.19, 173.51 154.29, 161.08 158.96 C148.65 163.62, 133.37 164.85, 119.51 165.74 C105.65 166.62, 91.44 167.26, 77.93 164.25 C64.42 161.24, 49.51 154.53, 38.45 147.66 C27.38 140.8, 18.03 132.42, 11.53 123.05 C5.04 113.69, 0.47 102.1, -0.54 91.48 C-1.55 80.87, 1.41 69.58, 5.46 59.37 C9.52 49.16, 14.94 38.48, 23.78 30.23 C32.63 21.97, 52.55 12.9, 58.55 9.83 C64.56 6.76, 58.94 10.68, 59.82 11.81" stroke="none" stroke-width="0" fill="#ffffff"></path><path d="M74.99 3.89 C87.14 -0.54, 103.82 -1.28, 117.58 -0.42 C131.35 0.44, 145.24 4, 157.6 9.04 C169.96 14.07, 182.49 21.71, 191.75 29.8 C201 37.89, 208.75 47.5, 213.11 57.57 C217.48 67.64, 218.95 79.65, 217.93 90.21 C216.91 100.76, 213.36 111.52, 207 120.91 C200.65 130.29, 190.45 139.54, 179.82 146.5 C169.19 153.47, 156.4 159.42, 143.24 162.71 C130.09 166.01, 114.89 167.08, 100.88 166.26 C86.88 165.45, 71.6 162.6, 59.2 157.8 C46.8 153.01, 35.54 145.58, 26.5 137.52 C17.46 129.47, 9.41 119.62, 4.96 109.47 C0.51 99.33, -1.34 87.09, -0.2 76.66 C0.94 66.22, 5.57 56.4, 11.79 46.87 C18.01 37.35, 26.3 26.85, 37.1 19.51 C47.9 12.18, 69.35 5.41, 76.6 2.85 C83.85 0.29, 79.92 2.54, 80.6 4.13 M92.54 2.54 C105.3 -0.41, 120.73 0.25, 133.92 2.41 C147.12 4.56, 160.29 9.09, 171.71 15.46 C183.12 21.83, 195.05 31.52, 202.39 40.63 C209.73 49.74, 213.51 59.65, 215.72 70.14 C217.94 80.63, 218.7 93.01, 215.66 103.56 C212.63 114.11, 205.93 125.11, 197.52 133.43 C189.12 141.75, 177.2 148.18, 165.24 153.49 C153.28 158.8, 139.2 163.34, 125.77 165.29 C112.33 167.25, 97.95 167.66, 84.63 165.22 C71.32 162.79, 57.26 156.96, 45.85 150.67 C34.44 144.37, 23.48 136.32, 16.19 127.47 C8.91 118.62, 4.42 107.83, 2.12 97.56 C-0.18 87.3, -0.67 76.54, 2.4 65.88 C5.46 55.22, 12.24 42.27, 20.53 33.59 C28.81 24.91, 40.19 19.27, 52.1 13.81 C64.01 8.34, 85.29 2.85, 91.98 0.83 C98.67 -1.19, 92.23 0.39, 92.22 1.69" stroke="#1e1e1e" stroke-width="4" fill="none"></path></g><g stroke-linecap="round"><g transform="translate(932.6318500913806 184.7564232751556) rotate(0 64.87347151941185 11.875144553384871)"><path d="M-0.76 -0.28 C9.95 3.91, 43.35 23.65, 65.04 23.96 C86.72 24.28, 118.71 5.5, 129.37 1.59 M1.04 -1.47 C11.48 2.44, 42.6 21.77, 63.83 21.95 C85.05 22.14, 117.58 3.05, 128.41 -0.39" stroke="#1e1e1e" stroke-width="4" fill="none"></path></g></g><mask></mask><g stroke-linecap="round"><g transform="translate(955.6460721389784 159.60892912322788) rotate(0 9.532957425004668 -4.106051194851716)"><path d="M-0.23 0.1 C1.84 -1.29, 8.88 -8.49, 12.03 -8.44 C15.19 -8.4, 17.53 -1.16, 18.71 0.36 M0.66 -0.33 C2.66 -1.86, 8.32 -9.44, 11.51 -9.24 C14.71 -9.04, 18.55 -0.89, 19.84 0.87" stroke="#1e1e1e" stroke-width="4" fill="none"></path></g></g><mask></mask><g stroke-linecap="round"><g transform="translate(1016.7401961704197 159.952227741951) rotate(0 9.532957425004668 -4.106051194851716)"><path d="M-0.17 0.32 C1.84 -1.19, 8.63 -9.02, 11.85 -8.96 C15.06 -8.89, 17.84 -0.93, 19.11 0.73 M0.74 0.01 C2.95 -1.43, 9.89 -8.31, 12.9 -8.36 C15.91 -8.4, 17.64 -1.65, 18.79 -0.25" stroke="#1e1e1e" stroke-width="4" fill="none"></path></g></g><mask></mask><g stroke-linecap="round"><g transform="translate(967.8174702940148 306.5866032783906) rotate(0 -132.605780846132 37.16480089484685)"><path d="M-0.78 -0.42 C-23.79 4.95, -94.52 20.31, -138.44 32.92 C-182.36 45.53, -243.19 68.26, -264.29 75.24 M1.01 -1.68 C-22.12 3.26, -95.07 18.49, -139.33 31 C-183.6 43.51, -243.68 65.85, -264.58 73.37" stroke="#1e1e1e" stroke-width="4" fill="none"></path></g></g><mask></mask><g stroke-linecap="round"><g transform="translate(1015.7578619650749 299.9892806153621) rotate(0 137.00397582144774 35.62543366015484)"><path d="M0.1 0.38 C23.7 5, 95.1 15.41, 140.78 27.3 C186.46 39.19, 251.89 64.24, 274.18 71.73 M-1.3 -0.47 C22.28 3.86, 94.51 13.97, 140.31 25.65 C186.11 37.34, 251.06 62.21, 273.5 69.63" stroke="#1e1e1e" stroke-width="4" fill="none"></path></g></g><mask></mask><g stroke-linecap="round"><g transform="translate(998.1650417970743 329.0174117458582) rotate(0 -2.6389210118633173 186.04394140304908)"><path d="M0.92 0.91 C0.05 27.83, -4.59 99.86, -5.11 161.89 C-5.62 223.92, -2.51 338.09, -2.16 373.08 M-0.06 0.34 C-1.08 26.86, -5.53 98.2, -5.97 160.02 C-6.4 221.84, -3.17 335.79, -2.68 371.26" stroke="#1e1e1e" stroke-width="4" fill="none"></path></g></g><mask></mask><g stroke-linecap="round"><g transform="translate(965.178529148782 731.8927097125911) rotate(0 -54.537694200718875 -0.4398235242053943)"><path d="M0.17 0.48 C-18.08 0.34, -90.32 0.38, -108.6 0.12 M-1.2 -0.32 C-19.65 -0.85, -91.09 -1.55, -109.29 -1.49" stroke="#1e1e1e" stroke-width="4" fill="none"></path></g></g><mask></mask><g stroke-linecap="round"><g transform="translate(1012.2393140381694 730.5732492066586) rotate(0 56.736801755061435 -0.6597302529658009)"><path d="M0.48 0.99 C19.3 0.66, 94.33 -1.21, 113.07 -1.55 M-0.73 0.47 C17.88 0.28, 93.14 -0.12, 111.91 -0.13" stroke="#1e1e1e" stroke-width="4" fill="none"></path></g></g><mask></mask><g stroke-linecap="round" transform="translate(568.4746504742968 122.4599279146978) rotate(0 104.47832891513752 80.19962233388628)"><path d="M139.41 4.38 C151.9 6.2, 164.32 12.79, 174.33 19.51 C184.33 26.23, 193.67 35.5, 199.43 44.71 C205.19 53.92, 208.17 64.44, 208.88 74.76 C209.59 85.07, 208.01 96.96, 203.68 106.61 C199.34 116.25, 191.92 124.92, 182.87 132.63 C173.81 140.33, 161.43 148.26, 149.36 152.84 C137.3 157.41, 123.85 159.56, 110.47 160.08 C97.08 160.6, 81.53 159.38, 69.06 155.98 C56.58 152.57, 45.58 146.45, 35.64 139.64 C25.7 132.83, 15.29 124.13, 9.41 115.11 C3.53 106.09, 0.82 95.7, 0.38 85.52 C-0.06 75.35, 2.55 63.68, 6.79 54.05 C11.03 44.42, 17.01 35.36, 25.84 27.73 C34.67 20.11, 47.52 12.91, 59.78 8.3 C72.04 3.68, 85.01 0.23, 99.38 0.06 C113.76 -0.12, 137.08 5.31, 146.03 7.24 C154.98 9.17, 153.75 10.32, 153.09 11.61 M128.71 0.95 C141.39 1.85, 155.95 9.65, 166.55 15.75 C177.15 21.85, 185.65 28.91, 192.32 37.55 C198.98 46.18, 204.39 57.4, 206.55 67.56 C208.71 77.73, 208.01 88.58, 205.26 98.55 C202.5 108.52, 197.85 119.1, 190.04 127.4 C182.22 135.7, 169.7 142.98, 158.36 148.34 C147.01 153.7, 134.78 157.75, 121.96 159.53 C109.15 161.32, 94.42 161.46, 81.47 159.04 C68.53 156.62, 55.05 151, 44.3 145.02 C33.56 139.03, 24.03 131.6, 17.02 123.15 C10.02 114.7, 4.54 104.59, 2.27 94.32 C0.01 84.05, 0.63 71.88, 3.43 61.51 C6.23 51.13, 11.6 40.24, 19.08 32.08 C26.56 23.91, 37.17 17.58, 48.31 12.52 C59.45 7.46, 72.57 3.65, 85.92 1.72 C99.28 -0.22, 121.24 0.35, 128.43 0.92 C135.62 1.48, 129.67 3.73, 129.07 5.11" stroke="none" stroke-width="0" fill="#ffffff"></path><path d="M81.61 1.23 C93.46 -2.13, 108.49 -1.04, 121.63 0.72 C134.77 2.47, 149.16 6.28, 160.45 11.78 C171.74 17.27, 181.79 25.35, 189.37 33.69 C196.94 42.04, 202.88 51.68, 205.91 61.86 C208.94 72.04, 209.87 84.71, 207.56 94.79 C205.24 104.87, 199.24 113.98, 192.03 122.34 C184.83 130.69, 174.95 139.02, 164.34 144.92 C153.73 150.82, 141.22 155.26, 128.37 157.75 C115.51 160.25, 100.56 161.51, 87.21 159.91 C73.86 158.3, 59.59 153.54, 48.28 148.11 C36.96 142.68, 26.78 135.68, 19.31 127.32 C11.85 118.97, 6.42 108.2, 3.49 97.99 C0.55 87.79, -0.41 76.09, 1.69 66.09 C3.79 56.09, 8.85 46.62, 16.08 37.98 C23.32 29.33, 33.15 20.29, 45.1 14.21 C57.04 8.13, 79.51 3.52, 87.77 1.49 C96.04 -0.54, 94.3 0.94, 94.68 2.05 M67.24 5.58 C78.68 0.9, 94.12 -1.05, 107.33 -0.89 C120.54 -0.73, 134.28 2.21, 146.52 6.55 C158.76 10.9, 171.61 17.51, 180.77 25.18 C189.93 32.84, 196.78 43.26, 201.5 52.53 C206.22 61.8, 209.21 70.57, 209.09 80.79 C208.96 91.01, 206.02 104.32, 200.74 113.84 C195.46 123.37, 187.05 131.28, 177.4 137.96 C167.75 144.64, 155.59 150.32, 142.86 153.93 C130.13 157.55, 114.26 159.48, 101.01 159.65 C87.75 159.81, 75.54 158.92, 63.34 154.9 C51.13 150.87, 37.16 143.06, 27.8 135.49 C18.44 127.93, 11.96 118.96, 7.19 109.53 C2.41 100.11, -1.15 89.47, -0.84 78.94 C-0.54 68.4, 3.48 55.61, 9.02 46.32 C14.55 37.02, 22.77 29.78, 32.36 23.18 C41.96 16.57, 60.84 9.4, 66.58 6.68 C72.32 3.96, 66.26 5.75, 66.8 6.87" stroke="#1e1e1e" stroke-width="4" fill="none"></path></g><g stroke-linecap="round"><g transform="translate(605.3060898686316 216.39388259143743) rotate(0 39.517688439556935 11.61167261264859)"><path d="M-0.53 0.27 C3.56 4.19, 11.02 22.58, 24.14 23.28 C37.26 23.97, 69.12 7.41, 78.17 4.43 M1.39 -0.64 C5.33 3.51, 9.8 23.85, 23.01 24.84 C36.21 25.83, 71.38 8.36, 80.61 5.31" stroke="#1e1e1e" stroke-width="4" fill="none"></path></g></g><mask></mask><g stroke-linecap="round"><g transform="translate(610.624045209215 180.80498375014122) rotate(0 9.14445403706074 -3.9387143727983585)"><path d="M-0.16 0.02 C1.76 -1.46, 8.28 -8.88, 11.31 -8.79 C14.35 -8.69, 16.93 -0.92, 18.04 0.59 M0.76 -0.44 C2.87 -1.87, 9.54 -8.56, 12.34 -8.28 C15.14 -8.01, 16.64 -0.27, 17.56 1.21" stroke="#1e1e1e" stroke-width="4" fill="none"></path></g></g><mask></mask><g stroke-linecap="round"><g transform="translate(669.2283569912671 181.1342916763133) rotate(0 9.144454037060768 -3.9387143727983585)"><path d="M-0.4 -0.38 C1.54 -1.77, 8.4 -8.46, 11.46 -8.35 C14.51 -8.25, 16.82 -1.19, 17.93 0.25 M0.4 0.62 C2.26 -0.68, 7.79 -7.64, 10.89 -7.63 C14 -7.61, 17.85 -0.67, 19.06 0.7" stroke="#1e1e1e" stroke-width="4" fill="none"></path></g></g><mask></mask><g stroke-linecap="round"><g transform="translate(639.0577654886772 323.5568146501082) rotate(0 -62.92383450296532 61.724150495197364)"><path d="M-0.55 0.12 C-18.45 21.05, -87.33 125.22, -108.27 124.77 C-129.22 124.33, -123.14 18.54, -126.22 -2.55 M1.36 -0.86 C-16.08 20.29, -84.55 126.1, -105.98 125.98 C-127.4 125.87, -123.68 19.55, -127.18 -1.55" stroke="#1e1e1e" stroke-width="4" fill="none"></path></g></g><mask></mask><g stroke-linecap="round"><g transform="translate(685.0444083121118 317.22835736554407) rotate(0 47.648616763383416 91.72458092210672)"><path d="M-0.79 -0.62 C15.12 13.69, 91 55.29, 94.92 86 C98.85 116.7, 34.46 167.51, 22.77 183.61 M1 1.67 C16.77 16.12, 89.75 56.66, 93.78 87.22 C97.81 117.78, 37.17 169.01, 25.19 185.01" stroke="#1e1e1e" stroke-width="4" fill="none"></path></g></g><mask></mask><g stroke-linecap="round"><g transform="translate(668.1685608456603 345.0734844410449) rotate(0 -2.531375188681892 178.4619604585057)"><path d="M-0.37 -0.6 C-1.24 25.33, -5.78 95.55, -5.96 155 C-6.14 214.44, -1.87 322.46, -1.45 356.05 M1.63 1.7 C1.21 27.91, -3.18 97.41, -3.72 156.62 C-4.27 215.82, -1.66 323.44, -1.65 356.91" stroke="#1e1e1e" stroke-width="4" fill="none"></path></g></g><mask></mask><g stroke-linecap="round"><g transform="translate(636.5263709871356 731.5301191114886) rotate(0 -52.31508079513981 -0.4218990835902332)"><path d="M-0.9 0.16 C-18.1 -0.03, -86.11 -1.49, -103.55 -1.72 M0.83 -0.8 C-16.4 -0.81, -86.61 -0.75, -103.93 -0.64" stroke="#1e1e1e" stroke-width="4" fill="none"></path></g></g><mask></mask><g stroke-linecap="round"><g transform="translate(681.6692542691086 730.2644315171483) rotate(0 54.424566556661375 -0.632843797170608)"><path d="M1.08 -0.87 C19.22 -1.17, 90.15 -1.77, 107.94 -1.64 M0.19 1.28 C18.78 1.14, 91.85 0.21, 110.18 -0.31" stroke="#1e1e1e" stroke-width="4" fill="none"></path></g></g><mask></mask><g stroke-linecap="round"><g transform="translate(292.27230956443634 297.68050703739254) rotate(0 -69.48789326620212 61.67901581638125)"><path d="M-0.9 -0.38 C-24.42 5.4, -139.48 13.08, -139.98 33.82 C-140.49 54.56, -26.89 109.18, -3.94 124.04 M0.82 -1.62 C-22.42 3.93, -137.42 11.7, -137.8 32.31 C-138.19 52.93, -24.18 106.8, -1.48 122.06" stroke="#1e1e1e" stroke-width="4" fill="none"></path></g></g><mask></mask><g stroke-linecap="round" transform="translate(218.93455766040643 87.63136730836686) rotate(0 109.2570665146221 83.86787540312048)"><path d="M111.43 0.1 C124.63 -0.71, 141.13 3.69, 154.16 8.11 C167.2 12.52, 180.24 18.77, 189.65 26.58 C199.07 34.38, 205.75 44.94, 210.67 54.94 C215.59 64.95, 219.32 76.08, 219.17 86.61 C219.02 97.13, 215.65 108.31, 209.79 118.1 C203.92 127.9, 194.15 137.88, 183.98 145.38 C173.81 152.88, 161.74 159.2, 148.75 163.08 C135.77 166.96, 120.03 168.94, 106.08 168.66 C92.12 168.37, 77.58 165.83, 65.02 161.37 C52.46 156.9, 40.48 149.66, 30.72 141.86 C20.95 134.07, 11.43 124.76, 6.41 114.6 C1.38 104.44, 0.08 91.86, 0.58 80.91 C1.08 69.96, 3.74 58.68, 9.41 48.9 C15.08 39.12, 24.42 29.39, 34.6 22.22 C44.79 15.05, 57.12 9.71, 70.52 5.87 C83.92 2.03, 107.29 -0.2, 114.99 -0.83 C122.7 -1.46, 116.87 0.49, 116.74 2.1 M136.21 2.88 C149.52 4.25, 163.36 10.97, 174.54 17.09 C185.72 23.22, 196.24 30.91, 203.28 39.64 C210.32 48.37, 214.93 58.73, 216.81 69.46 C218.68 80.19, 218 93.26, 214.54 104.01 C211.09 114.76, 204.1 125.57, 196.08 133.95 C188.07 142.34, 177.89 148.61, 166.47 154.32 C155.05 160.03, 141.54 166.48, 127.55 168.21 C113.57 169.94, 96.33 167.38, 82.57 164.69 C68.82 162.01, 56.13 158.48, 45.03 152.09 C33.93 145.7, 23.15 135.42, 15.97 126.35 C8.79 117.28, 3.85 108, 1.94 97.69 C0.04 87.38, 1.38 75.18, 4.56 64.5 C7.73 53.82, 13.03 42.36, 20.99 33.59 C28.94 24.82, 40.35 17.53, 52.3 11.87 C64.24 6.2, 78.81 1.02, 92.65 -0.39 C106.49 -1.8, 128.22 2.89, 135.33 3.4 C142.44 3.92, 135.81 1.72, 135.31 2.71" stroke="none" stroke-width="0" fill="#ffffff"></path><path d="M71.85 5.12 C83.68 0.5, 100.44 0.51, 114.57 1.02 C128.71 1.53, 144.06 3.84, 156.66 8.16 C169.26 12.49, 180.96 18.98, 190.17 26.97 C199.38 34.95, 207.08 46.01, 211.92 56.08 C216.76 66.14, 219.8 76.68, 219.19 87.33 C218.58 97.98, 214.21 110.21, 208.26 119.97 C202.32 129.73, 193.7 138.9, 183.5 145.9 C173.31 152.89, 160.44 158.43, 147.1 161.95 C133.75 165.47, 117.58 167.34, 103.44 167.03 C89.3 166.71, 74.74 164.46, 62.27 160.05 C49.8 155.65, 38.02 148.56, 28.62 140.58 C19.22 132.6, 10.66 122.19, 5.87 112.16 C1.09 102.13, -0.87 91.12, -0.09 80.41 C0.69 69.7, 4.48 57.65, 10.58 47.91 C16.67 38.17, 24.86 29.42, 36.5 21.98 C48.13 14.54, 71.17 6.37, 80.37 3.28 C89.58 0.19, 91.14 2.1, 91.72 3.45 M72.04 6.7 C83.84 2.04, 98.15 -0.2, 111.92 0.01 C125.68 0.22, 141.92 3.4, 154.64 7.95 C167.35 12.49, 178.72 19.77, 188.22 27.28 C197.72 34.79, 206.6 42.92, 211.63 53 C216.67 63.08, 218.94 76.6, 218.42 87.75 C217.89 98.89, 214.37 110.3, 208.48 119.87 C202.59 129.43, 193.34 137.96, 183.06 145.14 C172.79 152.32, 159.83 159.16, 146.82 162.96 C133.82 166.76, 118.66 168.31, 105.03 167.92 C91.4 167.54, 77.53 164.99, 65.05 160.65 C52.57 156.3, 39.85 149.69, 30.14 141.87 C20.43 134.06, 12.03 123.67, 6.81 113.74 C1.58 103.81, -1.55 93.04, -1.21 82.3 C-0.87 71.56, 3.08 59.11, 8.83 49.3 C14.59 39.49, 23 30.64, 33.34 23.42 C43.67 16.21, 64.71 8.87, 70.86 5.99 C77 3.11, 69.46 4.93, 70.21 6.14" stroke="#1e1e1e" stroke-width="4" fill="none"></path></g><g stroke-linecap="round"><g transform="translate(317.14338198973826 201.52641235835108) rotate(0 38.07209682016723 -12.281700407014569)"><path d="M-0.83 0.68 C7.19 0.6, 34.28 5.03, 47.14 0.69 C59.99 -3.65, 71.3 -21.16, 76.32 -25.36 M0.93 0 C8.96 0.6, 34.17 6, 46.62 2.02 C59.07 -1.96, 71.01 -19.14, 75.64 -23.89" stroke="#1e1e1e" stroke-width="4" fill="none"></path></g></g><mask></mask><g stroke-linecap="round"><g transform="translate(340.8361033486475 291.06259224440146) rotate(0 42.43519139420442 -21.853484203675407)"><path d="M0.82 -0.39 C15.13 5.77, 78.59 50.91, 85.04 37.65 C91.5 24.4, 47.3 -60.18, 39.58 -79.94 M-0.21 -1.65 C14.04 4.08, 77.59 49.02, 84.19 35.68 C90.79 22.34, 46.92 -62.46, 39.4 -81.69" stroke="#1e1e1e" stroke-width="4" fill="none"></path></g></g><mask></mask><g stroke-linecap="round"><g transform="translate(323.1883709597588 320.18132847023753) rotate(0 -2.647157838712431 186.6246377273344)"><path d="M0.17 0.29 C-0.66 27.53, -3.75 100.86, -4.18 163.05 C-4.61 225.24, -2.57 338.42, -2.4 373.43 M-1.19 -0.61 C-2.16 26.36, -4.23 98.95, -4.54 161.52 C-4.85 224.1, -3.27 339.41, -3.04 374.85" stroke="#1e1e1e" stroke-width="4" fill="none"></path></g></g><mask></mask><g stroke-linecap="round"><g transform="translate(290.0988979758515 724.3141154092532) rotate(0 -54.70792193465373 -0.4411963391539757)"><path d="M1.12 1.13 C-17.11 0.97, -90.66 -0.34, -109.17 -0.7 M0.24 0.68 C-18.13 0.71, -91.46 1.01, -109.99 0.94" stroke="#1e1e1e" stroke-width="4" fill="none"></path></g></g><mask></mask><g stroke-linecap="round"><g transform="translate(337.30657302783845 722.9905364898982) rotate(0 56.91389353231793 -0.6617894596781753)"><path d="M0.25 0.18 C18.95 -0.25, 94.26 -1.37, 113.33 -1.46 M-1.08 -0.77 C17.32 -0.49, 92.89 0.25, 112.12 0.01" stroke="#1e1e1e" stroke-width="4" fill="none"></path></g></g><mask></mask><g stroke-linecap="round"><g transform="translate(359.1038983704932 137.17089088739158) rotate(0 9.562712510252396 -4.118867354400891)"><path d="M-0.23 -0.06 C1.85 -1.47, 9.42 -8.47, 12.61 -8.36 C15.8 -8.24, 17.76 -0.92, 18.89 0.62 M0.65 -0.57 C2.69 -2.13, 9.41 -9.4, 12.37 -9.1 C15.33 -8.79, 17.21 -0.25, 18.42 1.25" stroke="#1e1e1e" stroke-width="4" fill="none"></path></g></g><mask></mask><g stroke-linecap="round"><g transform="translate(322.9311129102787 140.83015556761984) rotate(0 9.562712510252396 -4.118867354400891)"><path d="M0.37 0.44 C2.41 -1.01, 8.84 -8.81, 12.01 -8.73 C15.17 -8.65, 18.18 -0.7, 19.37 0.92 M-0.11 0.19 C1.86 -1.15, 8.24 -7.97, 11.45 -8 C14.66 -8.02, 17.84 -1.3, 19.15 0.04" stroke="#1e1e1e" stroke-width="4" fill="none"></path></g></g><mask></mask></svg>