<svg version="1.1" xmlns="http://www.w3.org/2000/svg" viewBox="0 0 1620 920" width="3240" height="1840">
  <!-- svg-source:excalidraw -->
  
  <defs>
    <style class="style-fonts">
      
    </style>
    
  </defs>
  <g stroke-linecap="round" transform="translate(10 10) rotate(0 800 450)"><path d="M32 0 C470.98 1.86, 910.63 2.32, 1568 0 M32 0 C360.75 0.36, 689.52 0.53, 1568 0 M1568 0 C1589.21 1.83, 1601.35 9.46, 1600 32 M1568 0 C1589.24 -1.49, 1599.63 11.12, 1600 32 M1600 32 C1597.31 243.28, 1597.21 453.55, 1600 868 M1600 32 C1599.77 305.1, 1599.48 577.34, 1600 868 M1600 868 C1599.26 890.31, 1588.57 898.02, 1568 900 M1600 868 C1600.85 889.51, 1591.01 898.45, 1568 900 M1568 900 C1238.97 905.4, 911.54 905.96, 32 900 M1568 900 C1053.36 900.45, 538.92 900.46, 32 900 M32 900 C8.71 898.33, 1.47 887.46, 0 868 M32 900 C11.29 900.14, 0.21 889.85, 0 868 M0 868 C-2.83 560.15, -1.87 252, 0 32 M0 868 C-2.77 549.64, -2.77 232, 0 32 M0 32 C0.15 12.1, 10.69 0.13, 32 0 M0 32 C1.44 12.13, 12.5 -2.08, 32 0" stroke="transparent" stroke-width="4" fill="none"></path></g><g stroke-linecap="round" transform="translate(384.3766229480505 419.5844152987004) rotate(0 75.20779235064978 75.20779235064981)"><path d="M49.76 4.92 C59.19 0.44, 72.03 -0.41, 82.9 0.62 C93.76 1.65, 105.81 5.42, 114.95 11.09 C124.09 16.76, 132.02 25.52, 137.73 34.63 C143.44 43.75, 147.81 54.96, 149.23 65.8 C150.65 76.63, 149.69 89.22, 146.25 99.63 C142.8 110.04, 136.19 120.62, 128.53 128.25 C120.88 135.87, 110.52 141.62, 100.32 145.4 C90.11 149.19, 78.15 152.04, 67.32 150.96 C56.48 149.87, 44.45 144.92, 35.32 138.89 C26.19 132.85, 18.41 123.8, 12.54 114.74 C6.67 105.68, 1.41 95.14, 0.12 84.54 C-1.17 73.94, 1.12 61.51, 4.82 51.16 C8.51 40.81, 13.19 30.59, 22.3 22.41 C31.42 14.24, 51.48 5.5, 59.51 2.13 C67.55 -1.25, 70 0.94, 70.53 2.14 M96.52 2.19 C107.14 4.08, 118.2 11.44, 126.17 18.75 C134.14 26.05, 140.55 35.86, 144.34 46.01 C148.13 56.15, 149.45 68.6, 148.88 79.63 C148.32 90.66, 146.07 102.62, 140.96 112.18 C135.86 121.73, 126.99 130.85, 118.26 136.95 C109.52 143.04, 98.95 147.01, 88.56 148.76 C78.16 150.52, 66.61 150.27, 55.89 147.48 C45.17 144.69, 32.34 139.46, 24.23 132.04 C16.12 124.61, 11.43 113.25, 7.21 102.91 C2.99 92.57, -1.23 80.64, -1.08 70.02 C-0.94 59.4, 2.42 48.63, 8.07 39.19 C13.71 29.75, 23.65 19.92, 32.79 13.38 C41.94 6.85, 52.59 1.66, 62.96 -0.02 C73.32 -1.69, 89.43 2.81, 94.97 3.33 C100.52 3.85, 96.34 2.16, 96.23 3.12" stroke="none" stroke-width="0" fill="#a5d8ff"></path><path d="M94.53 1.85 C104.7 3.41, 116.34 10.87, 124.64 18.03 C132.94 25.19, 140.09 34.72, 144.33 44.8 C148.58 54.88, 150.55 67.43, 150.11 78.5 C149.68 89.56, 146.73 101.71, 141.71 111.17 C136.68 120.62, 128.88 128.76, 119.98 135.23 C111.07 141.69, 99.06 147.86, 88.27 149.99 C77.49 152.12, 65.74 151.19, 55.25 148 C44.77 144.81, 33.7 138.11, 25.35 130.86 C17.01 123.6, 9.4 114.32, 5.18 104.45 C0.96 94.59, -0.57 82.65, 0.03 71.68 C0.63 60.72, 3.56 48.15, 8.8 38.68 C14.04 29.2, 22.75 21.13, 31.46 14.83 C40.17 8.52, 50.3 2.72, 61.07 0.84 C71.85 -1.04, 89.94 2.89, 96.12 3.57 C102.31 4.24, 98.35 3.83, 98.16 4.86 M42.62 6.63 C51.42 1.47, 66.05 1.34, 76.95 1.38 C87.84 1.42, 98.6 2.35, 107.98 6.88 C117.36 11.41, 126.34 20.03, 133.22 28.56 C140.11 37.08, 146.68 47.54, 149.27 58.04 C151.87 68.54, 151.67 80.95, 148.81 91.54 C145.95 102.12, 139.24 112.86, 132.11 121.56 C124.97 130.25, 115.81 138.73, 106 143.73 C96.2 148.74, 83.85 151.73, 73.28 151.56 C62.71 151.4, 51.94 147.67, 42.59 142.73 C33.23 137.78, 24.01 130.52, 17.15 121.89 C10.3 113.26, 3.95 101.81, 1.45 90.95 C-1.05 80.09, -0.53 67.5, 2.16 56.73 C4.85 45.95, 10.84 34.38, 17.58 26.3 C24.32 18.22, 38 11.39, 42.61 8.24 C47.22 5.09, 44.53 6.36, 45.22 7.4" stroke="#1e1e1e" stroke-width="4" fill="none"></path></g><g stroke-linecap="round"><g transform="translate(130 830) rotate(0 690 0)"><path d="M-0.3 -0.39 C229.51 -0.26, 1149.8 0.71, 1379.7 0.98 M1.75 -1.64 C231.3 -1.84, 1148.63 -0.82, 1378.59 -0.63" stroke="#1e1e1e" stroke-width="4" fill="none"></path></g></g><mask></mask><g stroke-linecap="round" transform="translate(561.0621993638575 770.9491006015148) rotate(0 250.00000000000006 30)"><path d="M15 0 C135.45 1.28, 256.67 2.49, 485 0 M15 0 C148.52 0.04, 282.6 -0.03, 485 0 M485 0 C495.99 1.23, 499.08 3, 500 15 M485 0 C496.26 1.94, 500.06 3.13, 500 15 M500 15 C499.24 23.55, 499.32 29.38, 500 45 M500 15 C500.31 26.37, 499.79 38.41, 500 45 M500 45 C500.49 55.81, 495.56 59.34, 485 60 M500 45 C498.18 54.67, 495.32 61.99, 485 60 M485 60 C351.71 61.28, 220.26 61.32, 15 60 M485 60 C301.28 61.24, 117.31 61.43, 15 60 M15 60 C4.79 61.53, -1.25 56.1, 0 45 M15 60 C5.68 60.58, 1.3 53.74, 0 45 M0 45 C-1.92 34.31, 1.77 24.37, 0 15 M0 45 C0.86 37.17, 1.07 27.81, 0 15 M0 15 C0.85 5.6, 4.85 -0.33, 15 0 M0 15 C-2.07 6.74, 6.91 -1.98, 15 0" stroke="#1e1e1e" stroke-width="4" fill="none"></path></g><g stroke-linecap="round" transform="translate(801.0621993638575 230.94910060151483) rotate(0 10 270)"><path d="M5 0 C7.63 0.54, 9.2 0.25, 15 0 M5 0 C7.73 0.54, 10.65 -0.02, 15 0 M15 0 C16.48 -1.09, 21.16 2.61, 20 5 M15 0 C20.15 -1.34, 20.98 2.35, 20 5 M20 5 C20.26 160.72, 18.96 315.73, 20 535 M20 5 C17.82 147.38, 17.56 290.65, 20 535 M20 535 C21.24 538.51, 16.34 541.51, 15 540 M20 535 C19.84 540.55, 17.43 541.64, 15 540 M15 540 C11.32 539.23, 8.15 540.58, 5 540 M15 540 C11.83 540.43, 7.93 540.4, 5 540 M5 540 C0.16 539.52, -1.8 536.85, 0 535 M5 540 C2.99 539.62, -1.02 538.96, 0 535 M0 535 C-2.7 336.78, -1.77 137.57, 0 5 M0 535 C2.25 404.89, 2.25 275.1, 0 5 M0 5 C1.62 3.15, 3.1 -0.03, 5 0 M0 5 C1.46 3.23, 2.38 -1.79, 5 0" stroke="#1e1e1e" stroke-width="4" fill="none"></path></g><g stroke-linecap="round" transform="translate(791.0621993638575 181.3445072342456) rotate(0 20 20)"><path d="M21.47 -0.1 C25.43 -0.14, 30.41 2.23, 33.4 5.28 C36.39 8.33, 38.9 13.9, 39.4 18.2 C39.91 22.49, 38.64 27.57, 36.41 31.03 C34.17 34.48, 30.17 37.67, 26 38.92 C21.83 40.17, 15.45 40.25, 11.38 38.54 C7.31 36.84, 3.46 32.62, 1.6 28.68 C-0.26 24.73, -0.82 18.95, 0.21 14.86 C1.25 10.77, 4.17 6.62, 7.79 4.15 C11.42 1.69, 19.4 0.66, 21.94 0.05 C24.48 -0.55, 23.11 0.22, 23.04 0.54 M20.41 0.13 C24.31 0.02, 29.85 2.37, 33.09 5.2 C36.34 8.02, 39.38 12.7, 39.89 17.09 C40.4 21.49, 38.4 27.98, 36.16 31.56 C33.91 35.14, 30.29 37.47, 26.41 38.59 C22.53 39.7, 16.96 39.93, 12.87 38.27 C8.78 36.61, 3.92 32.43, 1.88 28.63 C-0.15 24.83, -0.25 19.61, 0.66 15.46 C1.58 11.31, 3.99 6.29, 7.39 3.73 C10.79 1.18, 18.74 0.65, 21.07 0.13 C23.4 -0.39, 21.32 0.19, 21.36 0.59" stroke="#1e1e1e" stroke-width="4" fill="none"></path></g><g stroke-linecap="round"><g transform="translate(450.7621259158943 290.94910060151483) rotate(0 360 -90)"><path d="M0.46 -0.57 C120.17 -30.63, 599.31 -149.4, 719.11 -179.23 M-0.76 1.74 C119.26 -28.15, 601.54 -150.38, 721.36 -180.95" stroke="#1e1e1e" stroke-width="4" fill="none"></path></g></g><mask></mask><g stroke-linecap="round"><g transform="translate(450 290) rotate(0 60 120)"><path d="M-0.3 0.73 C19.74 40.54, 100.16 199.97, 120.17 239.77 M1.74 0.07 C21.65 39.99, 99.8 201.1, 119.32 241.19" stroke="#1e1e1e" stroke-width="4" fill="none"></path></g></g><mask></mask><g stroke-linecap="round" transform="translate(350 530) rotate(0 110 20)"><path d="M10 0 C68.24 -2.87, 125.44 1.69, 210 0 C216.44 2.18, 220.16 3.02, 220 10 C222.35 19.44, 222.94 23.18, 220 30 C221.52 39.78, 215.43 40.84, 210 40 C136.77 36.96, 63.21 35.33, 10 40 C5.85 39.58, -2.85 38.15, 0 30 C-3.43 22.27, 2.68 18.24, 0 10 C0.91 0.01, 3.63 2.16, 10 0" stroke="none" stroke-width="0" fill="#ffffff"></path><path d="M10 0 C63.22 1.2, 117.73 0.03, 210 0 M10 0 C52.62 -1.53, 93.69 -2.21, 210 0 M210 0 C217.86 0.34, 219.81 5.13, 220 10 M210 0 C218.89 -0.33, 219.97 1.96, 220 10 M220 10 C219.03 14.32, 219.54 18.99, 220 30 M220 10 C219.41 14.4, 219.65 18.71, 220 30 M220 30 C220.85 35, 218.5 41.57, 210 40 M220 30 C218.11 38.81, 218.15 41.75, 210 40 M210 40 C158.43 41.23, 105.87 41.7, 10 40 M210 40 C142.9 39.01, 76.98 40.02, 10 40 M10 40 C3.99 38.39, 0.66 35.72, 0 30 M10 40 C2.8 40.85, 0.31 36.34, 0 30 M0 30 C1.44 22.58, -2 18.67, 0 10 M0 30 C0.3 26.29, 0.19 22.5, 0 10 M0 10 C-1.39 2.87, 3.53 -1.1, 10 0 M0 10 C1.39 1.88, 1.44 1.91, 10 0" stroke="#1e1e1e" stroke-width="4" fill="none"></path></g><g stroke-linecap="round"><g transform="translate(450 290) rotate(0 -50 120)"><path d="M0.08 0.58 C-16.81 40.69, -84.39 199.7, -101 239.65 M-1.34 -0.16 C-17.89 40.21, -82.34 200.69, -98.82 241" stroke="#1e1e1e" stroke-width="4" fill="none"></path></g></g><mask></mask><g stroke-linecap="round" transform="translate(1090 322.5743118489888) rotate(0 20.15825111799063 20.15825111799063)"><path d="M16.57 0.03 C20.53 -0.84, 26.68 0.79, 30.52 3.02 C34.36 5.25, 38.12 9.3, 39.62 13.41 C41.11 17.52, 41.02 23.68, 39.48 27.67 C37.93 31.65, 34.14 35.29, 30.35 37.34 C26.57 39.39, 21.12 40.65, 16.76 39.94 C12.41 39.23, 7.03 36.44, 4.2 33.08 C1.38 29.72, -0.23 24.16, -0.2 19.79 C-0.17 15.43, 1.25 10.23, 4.39 6.88 C7.53 3.52, 16.07 0.71, 18.63 -0.32 C21.18 -1.35, 19.7 0.38, 19.73 0.7 M22.01 0.52 C26.1 0.31, 31.13 1.96, 34.26 4.94 C37.39 7.92, 40.38 14.08, 40.77 18.39 C41.17 22.7, 39.25 27.18, 36.65 30.8 C34.05 34.43, 29.22 38.89, 25.17 40.14 C21.12 41.39, 16.34 40.17, 12.37 38.3 C8.39 36.43, 3.23 32.61, 1.33 28.91 C-0.58 25.2, -0.25 20.34, 0.95 16.06 C2.15 11.79, 5.15 5.88, 8.53 3.25 C11.91 0.63, 19.01 0.82, 21.23 0.33 C23.45 -0.17, 21.82 0.11, 21.85 0.29" stroke="none" stroke-width="0" fill="#ffec99"></path><path d="M17.71 -0.08 C21.8 -0.94, 27.26 0.73, 30.82 3.06 C34.38 5.4, 37.67 9.87, 39.06 13.96 C40.46 18.06, 40.83 23.68, 39.21 27.64 C37.59 31.59, 33.14 35.6, 29.32 37.7 C25.51 39.79, 20.44 41.03, 16.33 40.2 C12.21 39.37, 7.38 36.15, 4.62 32.73 C1.86 29.3, -0.39 24.04, -0.24 19.65 C-0.09 15.26, 2.4 9.62, 5.53 6.37 C8.67 3.13, 16.31 1.22, 18.57 0.2 C20.83 -0.83, 19.08 -0.1, 19.1 0.22 M23.84 0.79 C27.84 1.48, 32.48 4.66, 35.34 7.97 C38.2 11.27, 41.15 16.28, 41.03 20.61 C40.91 24.95, 37.62 30.86, 34.64 33.98 C31.66 37.11, 27.43 38.88, 23.17 39.38 C18.9 39.87, 12.78 39.15, 9.05 36.94 C5.32 34.73, 2.17 30.03, 0.77 26.11 C-0.63 22.2, -0.93 17.42, 0.66 13.46 C2.26 9.49, 6.36 4.6, 10.32 2.32 C14.27 0.05, 22.19 0.01, 24.4 -0.19 C26.62 -0.39, 23.83 0.61, 23.61 1.14" stroke="#1e1e1e" stroke-width="2" fill="none"></path></g><g stroke-linecap="round" transform="translate(1132.8854521329483 322.5743118489888) rotate(0 20.15825111799063 20.15825111799063)"><path d="M18.89 0.15 C22.96 -0.24, 29.12 2, 32.67 4.67 C36.22 7.35, 39.28 12.14, 40.18 16.22 C41.08 20.29, 40.08 25.29, 38.07 29.1 C36.07 32.91, 32.19 37.43, 28.15 39.07 C24.11 40.72, 18.07 40.25, 13.83 38.95 C9.59 37.66, 4.94 34.93, 2.71 31.31 C0.48 27.68, -0.14 21.59, 0.43 17.23 C1 12.87, 2.86 7.93, 6.13 5.14 C9.41 2.35, 17.7 1.36, 20.09 0.5 C22.48 -0.36, 20.55 -0.29, 20.48 -0.01 M21.88 0.07 C26 0.3, 31.88 3.18, 34.82 6.37 C37.76 9.56, 39.36 14.89, 39.53 19.21 C39.71 23.53, 38.3 28.82, 35.84 32.29 C33.39 35.76, 28.81 38.96, 24.81 40.04 C20.8 41.12, 15.61 40.76, 11.83 38.79 C8.04 36.81, 4.06 32.38, 2.12 28.18 C0.18 23.99, -0.91 17.68, 0.2 13.61 C1.31 9.53, 5.13 6.04, 8.79 3.74 C12.44 1.44, 19.86 0.32, 22.13 -0.2 C24.41 -0.72, 22.52 0.28, 22.43 0.61" stroke="none" stroke-width="0" fill="#b2f2bb"></path><path d="M20.22 0.4 C24.34 0.06, 29.74 1.71, 33 4.46 C36.26 7.21, 39.08 12.58, 39.78 16.91 C40.48 21.25, 39.25 26.78, 37.21 30.47 C35.17 34.16, 31.59 37.55, 27.53 39.04 C23.47 40.53, 16.99 40.95, 12.86 39.41 C8.72 37.86, 4.88 33.59, 2.73 29.76 C0.57 25.92, -0.79 20.62, -0.07 16.39 C0.65 12.17, 3.55 7.08, 7.02 4.43 C10.49 1.78, 18.24 1.16, 20.76 0.5 C23.29 -0.17, 22.07 0.26, 22.16 0.45 M17.43 0.92 C21.46 0.02, 27.17 0.23, 30.89 2.27 C34.61 4.31, 38.44 9.07, 39.73 13.16 C41.03 17.25, 40.23 22.67, 38.66 26.81 C37.09 30.95, 33.89 35.83, 30.32 38.02 C26.74 40.22, 21.38 40.68, 17.21 39.96 C13.04 39.23, 8.08 37.1, 5.28 33.69 C2.48 30.27, 0.41 23.92, 0.4 19.48 C0.39 15.04, 2.59 10.22, 5.22 7.05 C7.85 3.87, 14.3 1.54, 16.19 0.43 C18.08 -0.68, 16.51 0.14, 16.56 0.39" stroke="#1e1e1e" stroke-width="2" fill="none"></path></g><g stroke-linecap="round" transform="translate(1175.7709042658964 322.5743118489888) rotate(0 20.15825111799063 20.15825111799063)"><path d="M22.09 0.09 C26.21 0.32, 31.88 3.19, 34.83 6.36 C37.77 9.54, 39.59 14.83, 39.78 19.15 C39.98 23.46, 38.5 28.8, 36 32.27 C33.5 35.74, 28.87 38.9, 24.8 39.95 C20.73 41, 15.39 40.54, 11.58 38.58 C7.77 36.61, 3.82 32.28, 1.96 28.16 C0.1 24.04, -0.74 17.95, 0.42 13.86 C1.57 9.76, 5.12 5.9, 8.89 3.59 C12.67 1.29, 20.55 0.48, 23.07 0.02 C25.59 -0.44, 24.11 0.5, 24.02 0.84 M16.15 -0.28 C20.22 -1.33, 26.45 0.76, 30.35 2.88 C34.26 4.99, 38.02 8.54, 39.59 12.39 C41.16 16.25, 41.31 21.92, 39.77 26.02 C38.23 30.11, 34.12 34.73, 30.36 36.96 C26.6 39.18, 21.52 39.99, 17.21 39.38 C12.9 38.77, 7.28 36.5, 4.51 33.29 C1.73 30.08, 0.57 24.28, 0.54 20.11 C0.52 15.95, 1.72 11.48, 4.35 8.28 C6.97 5.07, 14.31 2.05, 16.3 0.88 C18.28 -0.28, 16.34 1.03, 16.27 1.3" stroke="none" stroke-width="0" fill="#eebefa"></path><path d="M17.21 0.71 C21.24 -0.21, 26.99 0.35, 30.71 2.44 C34.43 4.52, 38.19 9.15, 39.54 13.24 C40.89 17.32, 40.34 22.82, 38.79 26.93 C37.25 31.05, 33.89 35.74, 30.25 37.91 C26.62 40.08, 21.18 40.71, 16.98 39.97 C12.78 39.23, 7.85 36.85, 5.07 33.46 C2.28 30.08, 0.26 24.06, 0.27 19.66 C0.27 15.26, 2.32 10.29, 5.08 7.06 C7.84 3.84, 14.76 1.43, 16.84 0.31 C18.91 -0.81, 17.5 0.08, 17.54 0.36 M23.77 0.72 C27.84 1.16, 31.85 3.86, 34.65 7.15 C37.44 10.45, 40.28 16.12, 40.55 20.49 C40.83 24.85, 39.03 30.2, 36.3 33.33 C33.56 36.46, 28.34 38.45, 24.11 39.26 C19.89 40.06, 14.78 40.24, 10.94 38.16 C7.1 36.08, 2.82 30.76, 1.09 26.77 C-0.65 22.77, -0.99 18.22, 0.52 14.19 C2.03 10.16, 6.48 4.92, 10.16 2.58 C13.84 0.24, 20.35 0.33, 22.6 0.13 C24.84 -0.07, 23.51 1.14, 23.62 1.39" stroke="#1e1e1e" stroke-width="2" fill="none"></path></g><g stroke-linecap="round" transform="translate(1218.6563563988445 322.5743118489888) rotate(0 20.15825111799063 20.15825111799063)"><path d="M17.92 0.49 C21.94 -0.1, 27.88 1.27, 31.49 3.65 C35.11 6.03, 38.49 10.65, 39.62 14.75 C40.75 18.86, 40.04 24.44, 38.29 28.27 C36.53 32.1, 32.82 35.88, 29.08 37.75 C25.35 39.62, 20.13 40.38, 15.87 39.47 C11.62 38.57, 6.21 35.77, 3.55 32.31 C0.89 28.85, -0.48 22.98, -0.09 18.71 C0.31 14.45, 2.89 9.89, 5.93 6.71 C8.97 3.52, 16.1 0.69, 18.16 -0.39 C20.21 -1.47, 18.22 -0.15, 18.27 0.23 M17.29 0.36 C21.43 -0.55, 27.35 0.93, 31 3.21 C34.66 5.5, 37.81 9.96, 39.22 14.04 C40.62 18.12, 40.95 23.72, 39.43 27.7 C37.91 31.68, 34 35.86, 30.1 37.92 C26.21 39.97, 20.32 40.84, 16.07 40.02 C11.81 39.21, 7.21 36.39, 4.57 33.04 C1.94 29.68, 0.18 24.2, 0.26 19.89 C0.35 15.57, 2.33 10.39, 5.08 7.15 C7.83 3.91, 14.7 1.52, 16.76 0.45 C18.81 -0.63, 17.43 0.42, 17.4 0.69" stroke="none" stroke-width="0" fill="#ffc9c9"></path><path d="M16.43 0.2 C20.38 -0.94, 25.54 0.2, 29.32 2.38 C33.11 4.56, 37.48 9.34, 39.17 13.3 C40.85 17.27, 40.88 22.14, 39.43 26.18 C37.98 30.22, 34.13 35.25, 30.46 37.55 C26.78 39.85, 21.61 40.73, 17.37 39.98 C13.14 39.23, 7.95 36.28, 5.04 33.05 C2.14 29.83, 0.06 24.96, -0.04 20.63 C-0.14 16.3, 1.58 10.52, 4.42 7.08 C7.27 3.63, 14.82 1.04, 17.04 -0.05 C19.26 -1.13, 17.67 0.11, 17.73 0.58 M23.68 -0.31 C27.61 0.35, 33.01 4.7, 35.72 8.17 C38.42 11.64, 40.01 16.25, 39.91 20.51 C39.81 24.76, 38.04 30.49, 35.1 33.7 C32.16 36.91, 26.64 39.17, 22.27 39.77 C17.89 40.37, 12.38 39.48, 8.86 37.28 C5.34 35.08, 2.51 30.55, 1.15 26.56 C-0.2 22.57, -0.93 17.24, 0.74 13.33 C2.42 9.42, 7.3 5.17, 11.19 3.1 C15.08 1.02, 21.99 1.34, 24.1 0.88 C26.22 0.43, 23.94 0.13, 23.86 0.36" stroke="#1e1e1e" stroke-width="2" fill="none"></path></g><g stroke-linecap="round" transform="translate(1111.442726066474 285.0495412326593) rotate(0 20.15825111799063 20.15825111799063)"><path d="M24.32 0.28 C28.43 0.74, 33.47 4.28, 36.07 7.57 C38.67 10.86, 40.06 15.82, 39.92 20.02 C39.77 24.23, 38.01 29.51, 35.19 32.81 C32.37 36.11, 27.23 39.07, 22.99 39.83 C18.76 40.59, 13.38 39.6, 9.78 37.38 C6.18 35.16, 2.73 30.53, 1.39 26.51 C0.05 22.49, 0.21 17.32, 1.75 13.28 C3.29 9.24, 6.73 4.39, 10.6 2.29 C14.47 0.18, 22.48 0.79, 24.94 0.65 C27.41 0.51, 25.46 1.19, 25.41 1.47 M16.12 0.99 C20.04 -0.21, 26.17 -0.16, 29.96 1.76 C33.75 3.68, 37.41 8.28, 38.85 12.51 C40.3 16.73, 40.06 23.01, 38.61 27.12 C37.16 31.24, 33.61 34.97, 30.14 37.21 C26.67 39.45, 21.86 41.09, 17.79 40.55 C13.73 40.01, 8.82 37.25, 5.75 33.98 C2.67 30.72, -0.56 25.27, -0.67 20.96 C-0.78 16.65, 2.32 11.54, 5.11 8.12 C7.9 4.71, 14.13 1.69, 16.08 0.47 C18.02 -0.75, 16.77 0.48, 16.77 0.83" stroke="none" stroke-width="0" fill="#a5d8ff"></path><path d="M20.86 0.14 C24.96 -0.13, 30.52 1.81, 33.74 4.62 C36.95 7.43, 39.61 12.59, 40.15 16.99 C40.68 21.39, 39.25 27.37, 36.96 31.01 C34.67 34.65, 30.37 37.53, 26.39 38.84 C22.4 40.14, 17.07 40.26, 13.05 38.83 C9.04 37.41, 4.33 34.05, 2.29 30.28 C0.25 26.5, 0.02 20.53, 0.81 16.17 C1.6 11.8, 3.72 6.77, 7.03 4.08 C10.35 1.38, 18.36 0.68, 20.71 0.02 C23.05 -0.64, 21.1 -0.26, 21.09 0.12 M22.77 0.14 C26.94 0.33, 32.27 3.55, 35.25 6.7 C38.23 9.84, 40.43 14.83, 40.64 19.02 C40.86 23.21, 39.15 28.37, 36.53 31.83 C33.92 35.29, 29.16 38.69, 24.96 39.8 C20.76 40.91, 15.22 40.37, 11.34 38.47 C7.47 36.57, 3.44 32.43, 1.72 28.39 C-0.01 24.36, -0.24 18.37, 1 14.26 C2.25 10.16, 5.62 6.22, 9.2 3.75 C12.77 1.28, 20.28 -0.05, 22.45 -0.57 C24.62 -1.1, 22.31 0.18, 22.21 0.63" stroke="#1e1e1e" stroke-width="2" fill="none"></path></g><g stroke-linecap="round" transform="translate(1154.3281781994222 285.0495412326593) rotate(0 20.15825111799063 20.15825111799063)"><path d="M15.23 0.89 C19.11 -0.26, 24.99 0.18, 28.98 2.13 C32.96 4.09, 37.32 8.58, 39.13 12.63 C40.95 16.67, 41.29 22.3, 39.87 26.4 C38.46 30.51, 34.27 34.91, 30.65 37.26 C27.03 39.61, 22.36 41.05, 18.15 40.5 C13.93 39.94, 8.31 37.13, 5.35 33.91 C2.39 30.69, 0.66 25.48, 0.4 21.19 C0.14 16.89, 1 11.6, 3.78 8.12 C6.57 4.64, 14.78 1.61, 17.12 0.32 C19.47 -0.98, 17.85 0.07, 17.87 0.36 M16.83 0.82 C20.77 -0.13, 25.75 0.72, 29.45 2.86 C33.15 5, 37.4 9.65, 39.04 13.64 C40.69 17.63, 40.88 22.83, 39.31 26.81 C37.74 30.78, 33.51 35.19, 29.65 37.48 C25.8 39.78, 20.33 41.35, 16.18 40.58 C12.02 39.8, 7.36 36.15, 4.74 32.83 C2.12 29.51, 0.48 24.81, 0.45 20.65 C0.43 16.49, 1.99 11.29, 4.57 7.87 C7.15 4.45, 13.94 1.46, 15.91 0.15 C17.87 -1.17, 16.18 -0.38, 16.34 -0.03" stroke="none" stroke-width="0" fill="#ffc9c9"></path><path d="M23.19 0.02 C27.25 0.35, 32.39 3.5, 35.27 6.79 C38.14 10.08, 40.29 15.42, 40.41 19.75 C40.53 24.08, 38.67 29.44, 35.99 32.78 C33.31 36.11, 28.56 38.87, 24.35 39.77 C20.14 40.67, 14.53 40.26, 10.71 38.15 C6.9 36.05, 3.08 31.18, 1.45 27.13 C-0.18 23.08, -0.39 17.9, 0.92 13.88 C2.24 9.85, 5.4 5.26, 9.35 2.98 C13.29 0.7, 21.91 0.51, 24.6 0.22 C27.29 -0.07, 25.55 0.79, 25.49 1.23 M18.94 -0.51 C22.89 -1.06, 28.85 0.92, 32.23 3.63 C35.61 6.34, 38.29 11.41, 39.21 15.73 C40.13 20.04, 39.61 25.73, 37.74 29.5 C35.87 33.28, 31.86 36.68, 28 38.36 C24.13 40.05, 18.62 40.97, 14.54 39.62 C10.46 38.28, 5.83 34, 3.52 30.31 C1.21 26.62, 0.11 21.59, 0.68 17.49 C1.25 13.39, 3.67 8.66, 6.93 5.7 C10.19 2.75, 18.23 0.56, 20.23 -0.25 C22.24 -1.05, 19.03 0.51, 18.95 0.89" stroke="#1e1e1e" stroke-width="2" fill="none"></path></g><g stroke-linecap="round" transform="translate(1197.2136303323705 285.0495412326593) rotate(0 20.15825111799063 20.15825111799063)"><path d="M20.33 0.01 C24.52 -0.22, 29.96 2.02, 33.15 4.77 C36.34 7.51, 38.78 12.19, 39.49 16.48 C40.2 20.77, 39.51 26.69, 37.41 30.51 C35.3 34.32, 30.95 38.03, 26.86 39.39 C22.77 40.74, 16.87 40.11, 12.88 38.66 C8.89 37.2, 4.99 34.37, 2.93 30.66 C0.86 26.95, -0.27 20.77, 0.49 16.4 C1.25 12.03, 4.09 7.21, 7.47 4.45 C10.85 1.69, 18.53 0.58, 20.78 -0.15 C23.02 -0.88, 21.05 -0.37, 20.95 0.06 M16.68 1.01 C20.5 -0.05, 25.34 0.99, 28.93 3.03 C32.53 5.06, 36.5 9.25, 38.23 13.23 C39.97 17.21, 40.55 22.89, 39.35 26.9 C38.15 30.92, 34.69 35.19, 31.05 37.33 C27.4 39.47, 21.89 40.43, 17.48 39.76 C13.07 39.08, 7.52 36.41, 4.59 33.29 C1.66 30.16, 0.06 25.21, -0.1 21 C-0.25 16.78, 0.91 11.31, 3.68 7.99 C6.44 4.67, 14.45 2.26, 16.48 1.1 C18.5 -0.07, 15.92 0.85, 15.83 0.97" stroke="none" stroke-width="0" fill="#a5d8ff"></path><path d="M19.67 -0.04 C23.68 -0.4, 29.47 1.53, 32.92 4.25 C36.37 6.96, 39.62 11.85, 40.39 16.25 C41.16 20.64, 39.72 26.72, 37.55 30.6 C35.38 34.49, 31.38 38.2, 27.39 39.54 C23.4 40.88, 17.69 40.13, 13.6 38.66 C9.52 37.2, 5.05 34.43, 2.89 30.76 C0.73 27.1, -0.09 20.94, 0.64 16.66 C1.36 12.39, 3.79 7.94, 7.21 5.12 C10.64 2.29, 18.68 0.44, 21.2 -0.28 C23.72 -0.99, 22.35 0.46, 22.34 0.82 M17.98 -0.36 C22.04 -0.84, 28.17 1.5, 31.87 3.94 C35.56 6.39, 39.05 10.19, 40.17 14.32 C41.28 18.45, 40.43 24.69, 38.57 28.75 C36.71 32.8, 33 36.96, 29.01 38.66 C25.02 40.37, 18.89 40.22, 14.64 38.96 C10.39 37.7, 5.81 34.53, 3.48 31.08 C1.15 27.63, 0.28 22.4, 0.64 18.27 C1 14.13, 2.6 9.33, 5.65 6.28 C8.7 3.22, 16.7 1.04, 18.95 -0.04 C21.2 -1.12, 19.24 -0.52, 19.17 -0.22" stroke="#1e1e1e" stroke-width="2" fill="none"></path></g><g stroke-linecap="round" transform="translate(1132.8854521329483 247.52477061632953) rotate(0 20.15825111799063 20.15825111799063)"><path d="M22.76 0.21 C26.93 0.41, 31.83 3.14, 34.72 6.21 C37.6 9.29, 39.73 14.29, 40.08 18.64 C40.43 22.99, 39.29 28.76, 36.82 32.32 C34.36 35.88, 29.56 39.06, 25.3 40 C21.03 40.94, 15.1 39.9, 11.23 37.93 C7.36 35.96, 3.8 32.01, 2.07 28.19 C0.33 24.37, -0.3 19.16, 0.82 15.01 C1.94 10.85, 5.03 5.71, 8.81 3.25 C12.59 0.79, 20.78 0.65, 23.49 0.25 C26.19 -0.14, 25.04 0.58, 25.04 0.88 M21.86 -0.05 C25.89 0.34, 30.91 3.58, 34.06 6.67 C37.21 9.76, 40.4 14.19, 40.76 18.49 C41.13 22.79, 38.9 29.03, 36.25 32.46 C33.6 35.89, 29.14 38.09, 24.86 39.07 C20.57 40.06, 14.46 40.24, 10.56 38.39 C6.67 36.53, 3.2 31.98, 1.51 27.96 C-0.18 23.94, -0.91 18.47, 0.44 14.28 C1.8 10.09, 5.93 5.07, 9.64 2.83 C13.36 0.59, 20.58 1.33, 22.73 0.84 C24.87 0.34, 22.5 -0.31, 22.54 -0.14" stroke="none" stroke-width="0" fill="#b2f2bb"></path><path d="M17.81 -0.31 C21.7 -1.03, 26.83 0.88, 30.48 3.31 C34.12 5.73, 38.37 10.12, 39.7 14.27 C41.02 18.41, 40.18 24.2, 38.43 28.2 C36.67 32.19, 32.96 36.32, 29.16 38.24 C25.37 40.17, 19.9 40.76, 15.68 39.74 C11.45 38.72, 6.37 35.58, 3.82 32.11 C1.27 28.64, 0.13 23.11, 0.39 18.89 C0.65 14.68, 2.37 9.89, 5.38 6.82 C8.4 3.75, 16.37 1.48, 18.49 0.49 C20.6 -0.49, 18.2 0.58, 18.09 0.93 M20.31 0.1 C24.27 -0.28, 29.58 1.39, 32.8 4.15 C36.02 6.9, 38.82 12.35, 39.64 16.61 C40.46 20.87, 39.76 25.87, 37.69 29.71 C35.62 33.56, 31.18 38.13, 27.21 39.66 C23.24 41.19, 17.92 40.54, 13.85 38.89 C9.78 37.23, 5.15 33.43, 2.8 29.74 C0.45 26.06, -0.87 20.98, -0.24 16.78 C0.4 12.58, 3.17 7.27, 6.62 4.53 C10.06 1.78, 18.2 0.89, 20.41 0.31 C22.62 -0.27, 19.92 0.76, 19.9 1.06" stroke="#1e1e1e" stroke-width="2" fill="none"></path></g><g stroke-linecap="round" transform="translate(1175.7709042658964 247.52477061632953) rotate(0 20.15825111799063 20.15825111799063)"><path d="M14.88 0.83 C18.92 -0.43, 25.45 -0.13, 29.4 1.77 C33.34 3.67, 36.86 8.31, 38.55 12.24 C40.23 16.17, 40.78 21.21, 39.52 25.34 C38.26 29.48, 34.58 34.6, 30.97 37.05 C27.36 39.5, 22.13 40.56, 17.86 40.05 C13.59 39.55, 8.24 37.16, 5.33 34.01 C2.43 30.86, 0.65 25.35, 0.44 21.14 C0.23 16.92, 1.46 12.23, 4.08 8.71 C6.69 5.18, 13.93 1.34, 16.13 -0.02 C18.33 -1.39, 17.26 0.15, 17.27 0.51 M18.25 0.29 C22.38 -0.46, 28.55 0.69, 32.21 3.13 C35.87 5.57, 39.2 10.58, 40.2 14.93 C41.2 19.27, 40.09 25.39, 38.19 29.19 C36.3 32.99, 32.71 36.07, 28.83 37.72 C24.96 39.37, 19.22 40.17, 14.93 39.09 C10.63 38.01, 5.49 34.63, 3.06 31.24 C0.64 27.85, -0.09 22.94, 0.38 18.74 C0.84 14.53, 2.86 9.15, 5.83 6.02 C8.81 2.89, 16.21 0.89, 18.24 -0.05 C20.27 -0.99, 18.05 0.13, 18 0.39" stroke="none" stroke-width="0" fill="#d0bfff"></path><path d="M21.13 -0.37 C25.19 -0.4, 30.59 2.48, 33.77 5.46 C36.96 8.43, 39.7 13.12, 40.26 17.48 C40.81 21.84, 39.44 27.99, 37.12 31.64 C34.8 35.28, 30.48 38.23, 26.33 39.35 C22.17 40.48, 16.31 40.04, 12.22 38.36 C8.12 36.68, 3.77 33.12, 1.75 29.28 C-0.26 25.45, -0.96 19.55, 0.13 15.36 C1.22 11.18, 4.59 6.63, 8.28 4.17 C11.97 1.7, 19.73 1.14, 22.28 0.57 C24.83 0, 23.57 0.41, 23.58 0.74 M22.98 0.26 C27.19 0.47, 31.89 3.17, 34.73 6.23 C37.56 9.28, 39.6 14.19, 39.99 18.56 C40.37 22.93, 39.44 28.86, 37.02 32.45 C34.6 36.05, 29.76 39.25, 25.45 40.13 C21.15 41.02, 15.08 39.77, 11.21 37.77 C7.34 35.77, 3.97 31.89, 2.24 28.13 C0.51 24.37, -0.25 19.39, 0.83 15.23 C1.92 11.07, 5.17 5.7, 8.75 3.17 C12.33 0.65, 19.93 0.52, 22.3 0.08 C24.67 -0.37, 22.93 0.19, 22.97 0.48" stroke="#1e1e1e" stroke-width="2" fill="none"></path></g><g stroke-linecap="round" transform="translate(1154.3281781994222 210) rotate(0 20.15825111799063 20.15825111799063)"><path d="M23.32 -0.11 C27.33 0.31, 32.13 3.27, 34.99 6.62 C37.86 9.98, 40.38 15.66, 40.51 20.04 C40.64 24.43, 38.54 29.63, 35.77 32.93 C33 36.23, 28.17 39.06, 23.88 39.86 C19.6 40.66, 13.91 39.88, 10.08 37.74 C6.26 35.59, 2.41 30.99, 0.93 26.99 C-0.56 22.99, -0.27 17.71, 1.19 13.76 C2.66 9.81, 5.95 5.47, 9.74 3.29 C13.53 1.11, 21.51 1.13, 23.93 0.67 C26.35 0.21, 24.37 0.31, 24.27 0.53 M18.12 -0.14 C22.09 -0.9, 26.82 1.13, 30.49 3.52 C34.16 5.91, 38.9 9.97, 40.15 14.18 C41.41 18.4, 39.9 24.84, 38.01 28.83 C36.12 32.82, 32.56 36.31, 28.8 38.11 C25.04 39.91, 19.6 40.59, 15.46 39.65 C11.31 38.71, 6.55 35.97, 3.95 32.47 C1.35 28.97, -0.36 23.08, -0.15 18.66 C0.05 14.23, 2.31 9.03, 5.2 5.92 C8.1 2.81, 15.26 0.92, 17.24 -0.01 C19.23 -0.94, 17.07 0.04, 17.13 0.32" stroke="none" stroke-width="0" fill="#ffec99"></path><path d="M22.82 -0.14 C26.93 0.09, 32.5 3.15, 35.42 6.48 C38.34 9.8, 40.23 15.5, 40.33 19.81 C40.42 24.12, 38.63 28.99, 35.98 32.33 C33.33 35.66, 28.56 38.89, 24.43 39.83 C20.31 40.77, 15.02 40.02, 11.25 37.98 C7.48 35.94, 3.49 31.61, 1.81 27.58 C0.13 23.56, 0 17.97, 1.19 13.83 C2.37 9.68, 5.16 5.05, 8.91 2.72 C12.67 0.39, 21.04 0.09, 23.71 -0.15 C26.39 -0.4, 25.05 0.85, 24.96 1.25 M21.55 0.29 C25.63 0.52, 31.36 2.81, 34.41 5.84 C37.46 8.88, 39.41 14.23, 39.86 18.49 C40.32 22.75, 39.54 27.74, 37.14 31.39 C34.73 35.04, 29.69 39.35, 25.43 40.39 C21.17 41.44, 15.38 39.7, 11.56 37.66 C7.74 35.63, 4.38 32.1, 2.5 28.2 C0.62 24.31, -0.7 18.39, 0.31 14.29 C1.31 10.18, 4.83 5.98, 8.52 3.58 C12.21 1.18, 20.13 0.33, 22.43 -0.1 C24.72 -0.54, 22.48 0.49, 22.31 0.95" stroke="#1e1e1e" stroke-width="2" fill="none"></path></g><g stroke-linecap="round" transform="translate(1071.0043867580594 350.1629168597143) rotate(0 110 20)"><path d="M10 0 C79.83 -1.73, 147.58 4.34, 210 0 C217.33 0.92, 216.68 5.01, 220 10 C220.42 20.13, 217.78 27.83, 220 30 C219.37 37.46, 216.41 37.8, 210 40 C145.61 42.1, 81.44 39.43, 10 40 C4.05 41.51, -2.89 39.08, 0 30 C-2.11 25.37, -2.58 19.6, 0 10 C-1.94 0.35, 3.19 -2.46, 10 0" stroke="none" stroke-width="0" fill="#ffffff"></path><path d="M10 0 C81.94 -2.03, 153 -0.73, 210 0 M10 0 C64.06 1.14, 118.72 0.67, 210 0 M210 0 C216.32 -0.77, 219.17 4.34, 220 10 M210 0 C217.42 -1.86, 218.6 1.47, 220 10 M220 10 C220.84 16.13, 221.7 25.55, 220 30 M220 10 C219.91 16.81, 219.03 24.41, 220 30 M220 30 C219.57 36.19, 216.61 39.19, 210 40 M220 30 C220.28 38.2, 216.92 42.23, 210 40 M210 40 C135.79 41.45, 64.78 42.28, 10 40 M210 40 C151.96 38.73, 94.54 39.84, 10 40 M10 40 C5.02 40.93, 1.05 37.42, 0 30 M10 40 C1.57 38.15, 0.48 35.74, 0 30 M0 30 C1.16 24.22, 0.73 17.38, 0 10 M0 30 C0.41 25.63, 0.1 20.42, 0 10 M0 10 C0.33 4.2, 3.67 1.07, 10 0 M0 10 C-1.58 2.25, 1.05 2.18, 10 0" stroke="#1e1e1e" stroke-width="4" fill="none"></path></g><g stroke-linecap="round"><g transform="translate(1171.0043867580594 110.1629168597143) rotate(0 60 120)"><path d="M-0.24 -0.73 C19.67 39.22, 100.66 199.59, 120.62 239.64 M1.83 1.49 C21.55 41.63, 100.56 201.13, 120 240.99" stroke="#1e1e1e" stroke-width="4" fill="none"></path></g></g><mask></mask><g stroke-linecap="round"><g transform="translate(1171.0043867580594 110.1629168597143) rotate(0 -50 120)"><path d="M0.62 -0.36 C-16.08 39.69, -83.72 199.4, -100.48 239.57 M-0.51 -1.6 C-17.39 38.69, -84.99 200.84, -101.68 240.88" stroke="#1e1e1e" stroke-width="4" fill="none"></path></g></g><mask></mask></svg>