<svg version="1.1" xmlns="http://www.w3.org/2000/svg" viewBox="0 0 520 760" width="1040" height="1520">
  <!-- svg-source:excalidraw -->
  
  <defs>
    <style class="style-fonts">
      
    </style>
    
  </defs>
  <g stroke-linecap="round" transform="translate(10 10) rotate(0 250 370)"><path d="M32 0 C183.03 0, 334.06 0, 468 0 C489.33 0, 500 10.67, 500 32 C500 301, 500 570, 500 708 C500 729.33, 489.33 740, 468 740 C329.59 740, 191.18 740, 32 740 C10.67 740, 0 729.33, 0 708 C0 502.88, 0 297.76, 0 32 C0 10.67, 10.67 0, 32 0" stroke="none" stroke-width="0" fill="#ffffff"></path><path d="M32 0 C175.91 0, 319.83 0, 468 0 M32 0 C176.12 0, 320.23 0, 468 0 M468 0 C489.33 0, 500 10.67, 500 32 M468 0 C489.33 0, 500 10.67, 500 32 M500 32 C500 220.62, 500 409.24, 500 708 M500 32 C500 285.46, 500 538.91, 500 708 M500 708 C500 729.33, 489.33 740, 468 740 M500 708 C500 729.33, 489.33 740, 468 740 M468 740 C376.26 740, 284.52 740, 32 740 M468 740 C367 740, 266 740, 32 740 M32 740 C10.67 740, 0 729.33, 0 708 M32 740 C10.67 740, 0 729.33, 0 708 M0 708 C0 567.49, 0 426.97, 0 32 M0 708 C0 439, 0 170.01, 0 32 M0 32 C0 10.67, 10.67 0, 32 0 M0 32 C0 10.67, 10.67 0, 32 0" stroke="#ffffff" stroke-width="4" fill="none"></path></g><g transform="translate(147.6877379668706 424.43682580673067) rotate(0 143.192760639673 -48.006821486133276)" stroke="none"><path d="M-0.09 0.29 C2.24 0.05, 11.56 -3.85, 16.08 -4.18 C20.59 -4.51, 18.76 -2.06, 27.01 -1.7 C35.26 -1.34, 51.21 -1.33, 65.58 -2.02 C79.94 -2.71, 103.49 -3.79, 113.18 -5.85 C122.88 -7.92, 119.77 -11.15, 123.75 -14.43 C127.73 -17.71, 134.39 -21.16, 137.06 -25.55 C139.74 -29.94, 138.73 -32.58, 139.8 -40.79 C140.86 -48.99, 143.78 -67.7, 143.45 -74.76 C143.11 -81.83, 141.71 -79.85, 137.76 -83.19 C133.82 -86.53, 130.07 -88.35, 119.79 -94.81 C109.51 -101.26, 87.89 -115.33, 76.08 -121.94 C64.27 -128.54, 55.02 -132.24, 48.94 -134.46 C42.86 -136.67, 43.43 -133.81, 39.6 -135.24 C35.78 -136.68, 31.41 -143.78, 26 -143.05 C20.59 -142.32, 10.95 -133.77, 7.14 -130.84 C3.33 -127.91, 4.67 -126.64, 3.11 -125.45 C1.56 -124.26, -1.5 -124.44, -2.18 -123.68 C-2.87 -122.92, -0.05 -121.08, -1 -120.87 C-1.95 -120.67, -6.13 -122.55, -7.87 -122.45 C-9.61 -122.34, -10.7 -120.47, -11.43 -120.24 C-12.16 -120.01, -11.85 -121.86, -12.27 -121.07 C-12.69 -120.29, -14.67 -110, -13.94 -115.54 C-13.22 -121.07, -8.39 -146.08, -7.92 -154.29 C-7.46 -162.51, -9.57 -162.75, -11.16 -164.84 C-12.75 -166.94, -16.82 -165.96, -17.46 -166.87 C-18.1 -167.79, -14.99 -166.36, -15.01 -170.33 C-15.03 -174.31, -16.92 -187.36, -17.57 -190.74 C-18.21 -194.11, -17.78 -189.04, -18.89 -190.58 C-20 -192.13, -23.59 -196.82, -24.22 -200.03 C-24.85 -203.23, -22.05 -207.72, -22.65 -209.83 C-23.24 -211.95, -26.54 -211.92, -27.77 -212.71 C-29 -213.5, -49.6 -214.56, -30.03 -214.59 C-10.46 -214.62, 65.91 -213.28, 89.65 -212.9 C113.38 -212.52, 99.86 -212.62, 112.36 -212.31 C124.86 -212, 151.88 -209.65, 164.64 -211.05 C177.39 -212.45, 169.83 -219.55, 188.92 -220.71 C208 -221.87, 263.17 -218.33, 279.14 -218 C295.11 -217.66, 283.11 -218.79, 284.74 -218.67 C286.37 -218.55, 289.58 -217.22, 288.92 -217.28 C288.25 -217.33, 282.31 -219.76, 280.74 -218.99 C279.18 -218.22, 280.09 -214.27, 279.54 -212.66 C278.98 -211.05, 277 -225.45, 277.41 -209.31 C277.82 -193.17, 280.69 -141.24, 282 -115.82 C283.31 -90.4, 283.43 -74.15, 285.26 -56.79 C287.09 -39.43, 291.32 -23.42, 292.96 -11.68 C294.6 0.07, 294.92 4.34, 295.11 13.7 C295.3 23.07, 293.1 38.29, 294.08 44.51 C295.05 50.73, 298.52 43.27, 300.96 51.02 C303.4 58.78, 307.09 83.56, 308.71 91.03 C310.33 98.5, 310.21 93.22, 310.66 95.86 C311.12 98.51, 311.22 106.02, 311.46 106.88 C311.7 107.74, 312.01 100.63, 312.1 101.03 C312.2 101.42, 311.78 108.98, 312.04 109.25 C312.29 109.52, 335.35 103.69, 313.63 102.67 C291.9 101.65, 207.04 102.02, 181.69 103.14 C156.34 104.26, 166.66 108.6, 161.51 109.38 C156.37 110.15, 158.62 107.99, 150.8 107.82 C142.97 107.64, 123.3 107.23, 114.58 108.35 C105.86 109.47, 104.21 113.95, 98.46 114.54 C92.72 115.13, 88.57 111.53, 80.12 111.91 C71.66 112.29, 53.08 115.57, 47.71 116.8 C42.33 118.02, 49.14 118.54, 47.87 119.27 C46.6 120, 44.34 120.52, 40.09 121.17 C35.84 121.81, 26.56 123.5, 22.37 123.14 C18.19 122.78, 15.9 118.79, 14.96 118.99 C14.03 119.19, 20.53 124.42, 16.77 124.33 C13.02 124.25, -3.68 118.2, -7.59 118.47 C-11.49 118.73, -5.05 125.45, -6.66 125.92 C-8.28 126.39, -15.07 121.74, -17.27 121.3 C-19.47 120.85, -20.56 123.24, -19.86 123.27 C-19.16 123.3, -13.72 121.84, -13.09 121.47 C-12.46 121.11, -16.14 122.38, -16.1 121.07 C-16.07 119.76, -13.13 120.81, -12.87 113.59 C-12.61 106.37, -15.63 89.35, -14.55 77.76 C-13.47 66.17, -7.76 49.7, -6.39 44.05 C-5.02 38.41, -5.41 44.04, -6.33 43.9 C-7.24 43.75, -11.73 44.71, -11.88 43.17 C-12.03 41.62, -8.41 35.74, -7.25 34.63 C-6.09 33.52, -6.2 39.9, -4.94 36.52 C-3.68 33.15, -0.43 17.93, 0.31 14.39 C1.06 10.86, -0.22 16.16, -0.45 15.33 C-0.67 14.5, -0.91 11.8, -1.06 9.44 C-1.21 7.08, -2.39 3.05, -1.37 1.17 C-0.34 -0.72, 3.91 -0.58, 5.1 -1.86 C6.29 -3.14, 5.83 -5.82, 5.77 -6.53 C5.7 -7.23, 5.85 -7.52, 4.7 -6.07 C3.56 -4.61, -1.03 1.76, -1.09 2.22" stroke="none" stroke-width="0" fill="#ffffff" fill-rule="evenodd"></path><path fill="#1e1e1e" d="M 0,-3.36 Q 0,-3.36 3.80,-3.36 7.61,-3.37 12.25,-2.78 16.89,-2.19 19.70,-2.17 22.51,-2.15 26.02,-2.09 29.53,-2.04 36.26,-1.88 42.99,-1.71 48.71,-1.60 54.44,-1.49 58.77,-1.42 63.10,-1.34 70.88,-2.70 78.67,-4.05 83.09,-4.63 87.51,-5.20 94.07,-6.38 100.63,-7.55 105.19,-8.96 109.75,-10.37 113.54,-11.89 117.33,-13.41 119.51,-15.45 121.69,-17.48 123.56,-19.41 125.43,-21.35 127.54,-23.90 129.64,-26.45 130.79,-28.81 131.95,-31.17 133.48,-34.45 135.01,-37.73 135.68,-41.58 136.35,-45.43 137.22,-49.67 138.09,-53.92 138.46,-57.92 138.82,-61.93 138.82,-65.02 138.82,-68.11 137.52,-70.69 136.22,-73.27 134.35,-75.72 132.48,-78.17 129.47,-81.67 126.46,-85.17 122.48,-88.49 118.50,-91.82 112.53,-96.12 106.57,-100.43 101.68,-103.70 96.79,-106.98 92.35,-109.80 87.90,-112.63 83.13,-115.77 78.37,-118.90 74.09,-121.12 69.82,-123.34 65.63,-125.23 61.45,-127.13 57.71,-128.89 53.96,-130.64 50.58,-131.72 47.20,-132.79 44.25,-133.62 41.30,-134.45 38.89,-134.63 36.47,-134.81 32.74,-134.71 29.02,-134.61 26.33,-134.01 23.64,-133.41 21.56,-132.11 19.47,-130.81 16.30,-128.94 13.12,-127.07 10.76,-125.54 8.40,-124.02 5.13,-122.29 1.87,-120.57 -0.35,-119.02 -2.58,-117.47 -4.92,-115.89 -7.25,-114.32 -7.95,-113.33 -8.65,-112.35 -9.41,-112.14 -10.18,-111.93 -10.97,-111.92 -11.76,-111.90 -12.53,-112.07 -13.30,-112.24 -14.01,-112.59 -14.72,-112.95 -15.32,-113.46 -15.92,-113.97 -16.39,-114.61 -16.85,-115.25 -17.15,-115.98 -17.44,-116.71 -17.55,-117.50 -17.67,-118.28 -17.59,-119.06 -17.51,-119.85 -17.25,-120.60 -16.98,-121.34 -16.55,-122.00 -16.11,-122.66 -15.53,-123.20 -14.95,-123.74 -14.26,-124.12 -13.57,-124.50 -15.30,-120.10 -17.03,-115.71 -17.60,-118.46 -18.18,-121.21 -18.27,-123.72 -18.35,-126.23 -18.28,-130.00 -18.20,-133.76 -18.05,-136.71 -17.90,-139.66 -17.62,-143.29 -17.35,-146.92 -17.42,-151.05 -17.50,-155.18 -18.11,-157.69 -18.73,-160.21 -19.03,-163.66 -19.34,-167.11 -19.90,-169.57 -20.47,-172.02 -21.14,-175.05 -21.82,-178.09 -22.60,-180.10 -23.39,-182.11 -23.88,-184.94 -24.38,-187.78 -25.41,-191.49 -26.43,-195.21 -27.40,-198.58 -28.36,-201.96 -29.01,-204.25 -29.65,-206.55 -30.59,-207.38 -31.52,-208.21 -31.61,-208.94 -31.70,-209.66 -31.62,-210.39 -31.53,-211.11 -31.27,-211.80 -31.01,-212.48 -30.60,-213.08 -30.18,-213.69 -29.64,-214.17 -29.09,-214.66 -28.44,-215.00 -27.80,-215.34 -27.09,-215.51 -26.38,-215.69 -25.65,-215.69 -24.92,-215.69 -24.21,-215.52 -23.50,-215.34 -22.85,-215.00 -22.20,-214.67 -21.65,-214.18 -21.11,-213.70 -20.69,-213.10 -20.27,-212.50 -20.01,-211.81 -19.75,-211.13 -24.02,-213.10 -28.28,-215.07 -24.04,-215.67 -19.81,-216.27 -17.44,-216.26 -15.08,-216.24 -11.21,-215.95 -7.35,-215.65 -1.43,-215.30 4.49,-214.95 11.76,-214.67 19.04,-214.40 31.65,-214.20 44.26,-213.99 57.23,-213.84 70.21,-213.69 82.74,-214.52 95.27,-215.36 107.38,-215.68 119.49,-216.01 128.84,-216.59 138.19,-217.18 146.53,-217.41 154.86,-217.65 160.66,-218.20 166.47,-218.76 172.77,-219.46 179.06,-220.16 182.73,-220.59 186.40,-221.01 190.88,-221.10 195.36,-221.19 200.12,-221.21 204.87,-221.24 209.27,-221.23 213.66,-221.23 217.43,-221.33 221.21,-221.43 225.19,-221.46 229.17,-221.48 231.82,-221.69 234.46,-221.91 237.02,-222.08 239.57,-222.26 243.90,-222.57 248.23,-222.88 251.92,-223.12 255.62,-223.37 259.48,-223.54 263.33,-223.71 267.42,-223.82 271.51,-223.94 274.48,-224.07 277.46,-224.21 281.15,-224.57 284.83,-224.93 283.82,-224.98 282.81,-225.04 283.54,-225.12 284.27,-225.19 285.00,-225.09 285.73,-224.99 286.41,-224.72 287.10,-224.45 287.70,-224.02 288.30,-223.59 288.78,-223.03 289.25,-222.47 289.59,-221.81 289.92,-221.16 290.08,-220.44 290.25,-219.72 290.23,-218.98 290.22,-218.25 290.03,-217.54 289.85,-216.82 289.49,-216.18 289.14,-215.53 288.64,-214.99 288.14,-214.45 287.53,-214.04 286.92,-213.63 286.23,-213.38 285.53,-213.13 287.39,-214.67 289.25,-216.20 288.46,-213.07 287.66,-209.95 287.65,-205.66 287.63,-201.37 287.23,-197.26 286.82,-193.15 286.46,-188.55 286.10,-183.94 285.83,-177.70 285.56,-171.45 285.36,-162.61 285.16,-153.77 285.01,-142.88 284.85,-131.98 285.22,-119.32 285.58,-106.66 286.18,-92.70 286.78,-78.74 287.95,-64.76 289.13,-50.79 290.56,-38.68 291.99,-26.58 293.07,-15.19 294.15,-3.80 295.07,4.32 295.99,12.45 296.84,18.26 297.70,24.06 298.53,28.89 299.36,33.73 299.79,37.80 300.22,41.88 300.94,45.34 301.66,48.80 302.49,52.14 303.32,55.49 304.20,58.81 305.07,62.12 305.95,65.42 306.83,68.72 307.71,72.02 308.58,75.32 309.45,78.62 310.32,81.93 311.23,84.66 312.14,87.40 313.05,89.35 313.96,91.31 314.55,93.52 315.14,95.72 315.58,98.17 316.02,100.62 316.64,104.28 317.26,107.94 314.58,109.86 311.90,111.77 309.45,111.84 306.99,111.90 304.26,112.01 301.53,112.11 296.54,111.91 291.55,111.71 285.30,111.32 279.06,110.93 271.17,110.62 263.28,110.32 254.22,110.09 245.15,109.85 235.59,109.68 226.02,109.51 218.15,109.38 210.28,109.26 203.13,109.16 195.98,109.07 189.23,109.47 182.49,109.88 176.30,110.50 170.11,111.12 164.04,111.38 157.96,111.64 152.16,112.21 146.36,112.77 141.41,113.02 136.47,113.26 131.14,113.82 125.81,114.38 121.54,114.64 117.28,114.89 112.59,114.99 107.90,115.09 104.49,115.29 101.08,115.50 96.43,115.93 91.78,116.37 87.95,117.07 84.12,117.76 79.43,118.03 74.74,118.30 70.39,118.39 66.03,118.48 61.80,118.52 57.57,118.56 54.06,119.14 50.54,119.73 46.97,120.06 43.40,120.40 40.20,121.04 37.00,121.69 33.75,122.46 30.50,123.24 26.98,123.65 23.46,124.06 20.85,124.75 18.25,125.43 14.90,125.79 11.55,126.15 9.21,126.40 6.88,126.65 4.28,126.97 1.69,127.28 -1.20,128.23 -4.10,129.17 -6.27,129.50 -8.45,129.82 -11.05,130.00 -13.65,130.18 -14.83,129.79 -16.02,129.40 -16.76,129.31 -17.50,129.22 -18.20,128.96 -18.90,128.69 -19.52,128.27 -20.13,127.84 -20.63,127.29 -21.13,126.73 -21.47,126.07 -21.82,125.40 -22.00,124.68 -22.18,123.95 -22.18,123.21 -22.19,122.46 -22.01,121.73 -21.83,121.01 -21.48,120.35 -21.14,119.68 -20.64,119.12 -20.15,118.56 -19.53,118.14 -18.92,117.71 -18.22,117.45 -17.52,117.18 -16.78,117.09 -16.04,117.00 -18.60,118.59 -21.17,120.18 -19.63,116.77 -18.09,113.36 -18.77,108.61 -19.44,103.85 -19.01,98.75 -18.57,93.64 -18.22,88.13 -17.88,82.63 -17.13,75.39 -16.39,68.15 -15.50,63.12 -14.61,58.08 -14.43,55.11 -14.24,52.13 -13.72,48.43 -13.20,44.74 -12.69,41.49 -12.17,38.23 -11.58,34.22 -10.98,30.20 -10.24,27.69 -9.51,25.18 -8.67,21.30 -7.84,17.43 -7.07,13.38 -6.30,9.33 -5.45,6.83 -4.60,4.32 -3.81,0.93 -3.03,-2.45 -2.76,-4.56 -2.50,-6.67 -2.30,-6.58 -2.09,-6.49 -1.94,-7.23 -1.78,-7.98 -1.45,-8.67 -1.11,-9.35 -0.63,-9.94 -0.14,-10.53 0.46,-10.98 1.08,-11.44 1.78,-11.73 2.48,-12.02 3.24,-12.14 3.99,-12.26 4.75,-12.19 5.51,-12.12 6.23,-11.87 6.95,-11.63 7.59,-11.22 8.24,-10.80 8.76,-10.25 9.28,-9.70 9.66,-9.03 10.04,-8.37 10.24,-7.63 10.45,-6.90 10.47,-6.14 10.50,-5.38 7.58,-1.03 4.66,3.30 4.01,3.96 3.36,4.62 2.54,5.03 1.71,5.45 0.80,5.58 -0.11,5.71 -1.02,5.55 -1.93,5.38 -2.74,4.93 -3.55,4.48 -4.17,3.79 -4.79,3.11 -5.17,2.26 -5.54,1.41 -5.62,0.49 -5.70,-0.42 -5.48,-1.32 -5.27,-2.22 -4.77,-3.00 -4.28,-3.79 -3.56,-4.37 -2.84,-4.96 -1.98,-5.28 -1.11,-5.61 -0.19,-5.64 0.73,-5.67 1.61,-5.40 2.50,-5.14 3.26,-4.60 4.01,-4.07 4.56,-3.32 5.10,-2.57 5.38,-1.69 5.66,-0.81 5.64,0.11 5.62,1.03 5.31,1.91 4.99,2.78 4.42,3.50 3.84,4.23 3.07,4.73 2.29,5.23 1.39,5.46 0.50,5.69 -0.41,5.62 -1.34,5.56 -2.19,5.20 -3.04,4.84 -3.74,4.22 -4.43,3.61 -4.89,2.81 -5.35,2.00 -5.53,1.10 -5.71,0.19 -5.59,-0.72 -5.48,-1.64 -5.07,-2.47 -4.66,-3.30 -4.66,-3.30 -4.66,-3.30 -3.38,-4.89 -2.09,-6.49 -1.94,-7.23 -1.78,-7.98 -1.45,-8.67 -1.11,-9.35 -0.63,-9.94 -0.14,-10.53 0.46,-10.98 1.07,-11.43 1.78,-11.73 2.48,-12.02 3.24,-12.14 3.99,-12.26 4.75,-12.19 5.51,-12.12 6.23,-11.87 6.95,-11.63 7.59,-11.22 8.23,-10.80 8.76,-10.25 9.28,-9.70 9.66,-9.03 10.04,-8.37 10.24,-7.64 10.45,-6.90 10.47,-6.14 10.50,-5.38 9.78,-3.63 9.07,-1.88 8.57,0.33 8.08,2.54 7.54,4.62 7.00,6.71 6.34,9.00 5.67,11.30 4.61,13.39 3.55,15.49 2.59,19.56 1.64,23.62 1.20,25.93 0.76,28.24 -0.47,32.44 -1.70,36.64 -2.61,39.95 -3.53,43.27 -4.22,45.77 -4.90,48.27 -5.69,50.57 -6.47,52.87 -6.86,55.98 -7.25,59.09 -7.72,63.90 -8.19,68.71 -8.40,75.67 -8.61,82.63 -8.27,88.14 -7.93,93.65 -7.50,98.79 -7.08,103.92 -6.97,108.83 -6.86,113.74 -7.11,116.27 -7.36,118.79 -8.20,120.97 -9.03,123.16 -10.18,125.06 -11.34,126.97 -13.68,128.19 -16.02,129.40 -16.76,129.31 -17.50,129.22 -18.20,128.96 -18.90,128.69 -19.52,128.27 -20.13,127.85 -20.63,127.29 -21.13,126.73 -21.47,126.07 -21.82,125.41 -22.00,124.68 -22.18,123.95 -22.18,123.21 -22.19,122.46 -22.01,121.73 -21.83,121.01 -21.48,120.35 -21.14,119.68 -20.64,119.12 -20.15,118.56 -19.53,118.14 -18.92,117.71 -18.22,117.45 -17.52,117.18 -16.78,117.09 -16.04,117.00 -14.05,117.60 -12.06,118.20 -9.17,118.49 -6.28,118.78 -2.37,118.21 1.52,117.65 3.99,117.83 6.46,118.01 8.67,118.05 10.88,118.08 13.75,117.92 16.62,117.77 19.70,117.24 22.78,116.72 25.90,116.52 29.02,116.32 32.45,115.66 35.88,115.01 39.45,114.52 43.01,114.03 46.38,113.95 49.75,113.86 53.63,113.44 57.50,113.03 61.68,112.96 65.87,112.90 70.12,112.74 74.38,112.59 78.74,112.27 83.11,111.96 87.15,111.28 91.18,110.60 96.09,110.05 100.99,109.50 104.38,109.61 107.77,109.73 112.37,109.61 116.96,109.50 121.09,109.26 125.23,109.01 130.71,108.41 136.18,107.81 140.99,107.54 145.80,107.27 151.75,106.64 157.69,106.01 163.59,105.69 169.48,105.37 175.78,104.64 182.07,103.91 189.02,103.36 195.97,102.81 203.13,102.72 210.28,102.63 218.15,102.50 226.02,102.37 235.59,102.20 245.15,102.03 254.22,101.80 263.28,101.57 271.17,101.26 279.06,100.96 285.30,100.57 291.55,100.18 296.56,99.98 301.57,99.78 304.71,99.97 307.86,100.15 309.84,101.26 311.82,102.36 309.71,103.88 307.60,105.40 306.93,102.53 306.25,99.65 306.14,96.99 306.02,94.33 305.28,91.97 304.53,89.61 303.79,86.68 303.04,83.74 302.26,80.41 301.48,77.08 300.71,73.74 299.95,70.40 299.20,67.04 298.46,63.68 297.75,60.27 297.04,56.86 296.38,53.34 295.73,49.83 295.19,46.11 294.65,42.39 294.36,38.52 294.06,34.65 293.20,29.76 292.33,24.86 291.43,18.98 290.53,13.09 289.56,4.91 288.59,-3.26 287.46,-14.57 286.33,-25.89 284.80,-38.08 283.27,-50.27 281.97,-64.36 280.67,-78.44 279.91,-92.43 279.15,-106.42 278.56,-119.20 277.98,-131.98 277.83,-142.88 277.68,-153.77 277.48,-162.62 277.28,-171.46 277.01,-177.70 276.74,-183.95 276.40,-188.57 276.06,-193.19 275.68,-197.36 275.30,-201.53 275.33,-206.51 275.36,-211.50 276.32,-215.31 277.28,-219.12 280.04,-222.08 282.81,-225.04 283.54,-225.12 284.27,-225.19 285.00,-225.09 285.73,-224.99 286.41,-224.72 287.10,-224.45 287.70,-224.02 288.30,-223.59 288.78,-223.03 289.25,-222.47 289.59,-221.81 289.92,-221.16 290.08,-220.44 290.25,-219.72 290.23,-218.98 290.22,-218.25 290.03,-217.54 289.85,-216.82 289.49,-216.18 289.14,-215.53 288.64,-214.99 288.14,-214.45 287.53,-214.04 286.92,-213.63 286.23,-213.38 285.53,-213.13 284.89,-213.63 284.25,-214.13 280.86,-213.47 277.46,-212.81 274.48,-212.94 271.51,-213.08 267.42,-213.20 263.33,-213.31 259.48,-213.48 255.62,-213.65 251.92,-213.89 248.23,-214.14 243.90,-214.45 239.57,-214.75 237.02,-214.93 234.47,-215.11 231.82,-215.32 229.18,-215.52 225.20,-215.54 221.22,-215.56 217.46,-215.64 213.69,-215.71 209.31,-215.67 204.93,-215.62 200.23,-215.53 195.54,-215.44 191.22,-215.26 186.90,-215.09 183.30,-214.90 179.69,-214.70 173.36,-213.95 167.03,-213.20 161.04,-212.56 155.05,-211.93 146.82,-211.62 138.60,-211.30 129.15,-210.59 119.70,-209.88 107.73,-209.40 95.76,-208.91 82.98,-207.84 70.21,-206.78 57.23,-206.62 44.26,-206.47 31.65,-206.26 19.04,-206.06 11.76,-205.79 4.49,-205.51 -1.42,-205.15 -7.33,-204.80 -11.17,-204.49 -15.01,-204.19 -18.54,-204.55 -22.06,-204.92 -26.79,-206.56 -31.52,-208.21 -31.61,-208.94 -31.70,-209.66 -31.62,-210.39 -31.53,-211.11 -31.27,-211.80 -31.01,-212.48 -30.60,-213.08 -30.18,-213.68 -29.64,-214.17 -29.09,-214.66 -28.44,-215.00 -27.80,-215.34 -27.09,-215.51 -26.38,-215.69 -25.65,-215.69 -24.92,-215.69 -24.21,-215.52 -23.50,-215.34 -22.85,-215.00 -22.20,-214.67 -21.65,-214.18 -21.11,-213.70 -20.69,-213.10 -20.27,-212.50 -20.01,-211.81 -19.75,-211.13 -19.30,-210.48 -18.85,-209.84 -18.09,-207.84 -17.33,-205.85 -17.22,-203.52 -17.10,-201.19 -16.36,-197.59 -15.63,-193.98 -14.82,-189.66 -14.01,-185.33 -13.22,-182.83 -12.43,-180.33 -11.64,-177.22 -10.86,-174.11 -10.23,-171.07 -9.60,-168.03 -9.33,-165.27 -9.06,-162.52 -8.31,-159.39 -7.57,-156.26 -6.69,-151.60 -5.81,-146.93 -5.54,-143.29 -5.27,-139.66 -5.12,-136.71 -4.97,-133.76 -4.89,-130.01 -4.81,-126.27 -5.27,-124.14 -5.73,-122.02 -7.19,-117.18 -8.65,-112.35 -9.41,-112.14 -10.18,-111.93 -10.97,-111.92 -11.76,-111.90 -12.53,-112.07 -13.30,-112.24 -14.01,-112.59 -14.72,-112.95 -15.32,-113.46 -15.92,-113.97 -16.39,-114.61 -16.85,-115.25 -17.14,-115.98 -17.44,-116.71 -17.55,-117.50 -17.67,-118.28 -17.59,-119.06 -17.51,-119.85 -17.25,-120.60 -16.98,-121.34 -16.55,-122.00 -16.11,-122.66 -15.53,-123.20 -14.95,-123.74 -14.26,-124.12 -13.57,-124.50 -13.23,-124.92 -12.89,-125.34 -9.77,-127.16 -6.65,-128.97 -3.86,-130.55 -1.07,-132.14 1.07,-133.52 3.23,-134.90 5.65,-135.89 8.06,-136.89 10.94,-138.25 13.82,-139.61 17.45,-141.18 21.07,-142.74 23.42,-143.17 25.77,-143.59 29.49,-143.19 33.22,-142.78 35.42,-142.41 37.61,-142.03 40.52,-141.37 43.43,-140.70 46.30,-139.54 49.16,-138.37 52.74,-136.99 56.32,-135.61 60.00,-133.83 63.67,-132.06 68.00,-130.12 72.32,-128.19 76.85,-125.87 81.38,-123.55 86.14,-120.48 90.90,-117.42 95.44,-114.62 99.97,-111.82 105.01,-108.58 110.04,-105.33 116.25,-101.01 122.45,-96.70 126.92,-93.18 131.40,-89.65 134.86,-86.00 138.32,-82.35 140.47,-79.17 142.61,-75.99 144.05,-72.04 145.49,-68.09 145.22,-64.78 144.95,-61.46 144.66,-57.12 144.38,-52.79 143.73,-48.59 143.08,-44.39 142.42,-39.58 141.76,-34.76 140.15,-31.10 138.54,-27.44 136.78,-24.66 135.02,-21.88 132.52,-19.05 130.02,-16.23 127.76,-14.48 125.51,-12.73 122.46,-10.57 119.42,-8.41 115.39,-6.78 111.37,-5.16 106.50,-3.63 101.63,-2.11 94.96,-0.86 88.29,0.37 83.98,1.01 79.68,1.64 71.39,3.14 63.11,4.63 58.77,4.70 54.42,4.76 48.69,4.84 42.95,4.92 36.16,5.01 29.36,5.10 25.69,4.98 22.02,4.86 19.12,4.48 16.22,4.10 11.91,3.73 7.61,3.37 3.80,3.36 0,3.36 -0.40,3.31 -0.80,3.26 -1.18,3.11 -1.56,2.97 -1.89,2.74 -2.22,2.51 -2.49,2.21 -2.76,1.90 -2.95,1.55 -3.14,1.19 -3.23,0.79 -3.33,0.40 -3.33,-0.00 -3.33,-0.40 -3.23,-0.79 -3.14,-1.19 -2.95,-1.55 -2.76,-1.90 -2.49,-2.21 -2.22,-2.51 -1.89,-2.74 -1.56,-2.97 -1.18,-3.11 -0.80,-3.26 -0.40,-3.31 0.00,-3.36 0.00,-3.36 L 0,-3.36 Z"></path></g></svg>