<svg version="1.1" xmlns="http://www.w3.org/2000/svg" viewBox="0 0 520 760" width="1040" height="1520">
  <!-- svg-source:excalidraw -->
  
  <defs>
    <style class="style-fonts">
      
    </style>
    
  </defs>
  <g stroke-linecap="round" transform="translate(10 10) rotate(0 250 370)"><path d="M32 0 C183.03 0, 334.06 0, 468 0 C489.33 0, 500 10.67, 500 32 C500 301, 500 570, 500 708 C500 729.33, 489.33 740, 468 740 C329.59 740, 191.18 740, 32 740 C10.67 740, 0 729.33, 0 708 C0 502.88, 0 297.76, 0 32 C0 10.67, 10.67 0, 32 0" stroke="none" stroke-width="0" fill="#ffffff"></path><path d="M32 0 C175.91 0, 319.83 0, 468 0 M32 0 C176.12 0, 320.23 0, 468 0 M468 0 C489.33 0, 500 10.67, 500 32 M468 0 C489.33 0, 500 10.67, 500 32 M500 32 C500 220.62, 500 409.24, 500 708 M500 32 C500 285.46, 500 538.91, 500 708 M500 708 C500 729.33, 489.33 740, 468 740 M500 708 C500 729.33, 489.33 740, 468 740 M468 740 C376.26 740, 284.52 740, 32 740 M468 740 C367 740, 266 740, 32 740 M32 740 C10.67 740, 0 729.33, 0 708 M32 740 C10.67 740, 0 729.33, 0 708 M0 708 C0 567.49, 0 426.97, 0 32 M0 708 C0 439, 0 170.01, 0 32 M0 32 C0 10.67, 10.67 0, 32 0 M0 32 C0 10.67, 10.67 0, 32 0" stroke="#ffffff" stroke-width="4" fill="none"></path></g><g transform="translate(288.6489164943439 214.96622291235872) rotate(0 -18.2094840119816 158.0914293767487)" stroke="none"><path d="M1.29 1.93 C0.68 1.84, -0.78 -0.63, -0.16 0.49 C0.45 1.61, 4.97 7.49, 4.98 8.65 C4.99 9.82, -0.11 6.66, -0.11 7.47 C-0.11 8.27, 3.79 13.14, 4.98 13.5 C6.16 13.87, 7.58 9.42, 7.02 9.65 C6.47 9.88, 1.18 14.33, 1.65 14.86 C2.12 15.38, 8.71 11.87, 9.85 12.8 C10.99 13.73, 8.72 19.59, 8.49 20.42 C8.27 21.26, 7.58 16.9, 8.48 17.83 C9.37 18.75, 13.21 23.95, 13.86 25.98 C14.5 28.01, 12.28 28.55, 12.34 30 C12.41 31.45, 12.28 30.15, 14.25 34.69 C16.22 39.24, 22.76 52.62, 24.15 57.27 C25.55 61.93, 23.22 61.82, 22.62 62.62 C22.02 63.43, 20.14 54.32, 20.55 62.12 C20.97 69.92, 25.26 101.29, 25.11 109.41 C24.96 117.53, 20.6 109.31, 19.64 110.86 C18.68 112.41, 18.02 118.56, 19.35 118.71 C20.68 118.86, 24.85 115.41, 27.62 111.75 C30.39 108.09, 33.93 98.99, 35.94 96.74 C37.96 94.5, 38.67 97.97, 39.72 98.26 C40.78 98.56, 40.59 98.7, 42.28 98.5 C43.97 98.3, 46.99 98.57, 49.86 97.07 C52.74 95.58, 48.88 91.09, 59.54 89.52 C70.2 87.96, 102.41 86.33, 113.82 87.71 C125.23 89.09, 125.05 96.86, 127.99 97.82 C130.93 98.79, 128.13 91.26, 131.47 93.51 C134.8 95.76, 143.3 103.94, 147.98 111.34 C152.65 118.74, 157.2 128.99, 159.53 137.93 C161.85 146.86, 161.56 158.85, 161.93 164.95 C162.3 171.06, 162.67 172.82, 161.73 174.56 C160.8 176.3, 159.03 173.57, 156.32 175.38 C153.61 177.2, 148.38 182.46, 145.47 185.44 C142.56 188.43, 142.16 189.37, 138.84 193.3 C135.52 197.23, 131.22 203.92, 125.53 209.02 C119.85 214.11, 114.06 220.18, 104.74 223.85 C95.42 227.53, 80.29 232.87, 69.62 231.05 C58.94 229.23, 48.97 216.58, 40.67 212.93 C32.36 209.27, 21.96 209.75, 19.78 209.12 C17.59 208.49, 27.49 209.26, 27.53 209.15 C27.58 209.03, 22.05 207.86, 20.07 208.42 C18.08 208.98, 15.45 211.61, 15.62 212.53 C15.79 213.44, 19.35 214.4, 21.07 213.89 C22.8 213.38, 26.16 209.05, 25.99 209.49 C25.83 209.92, 21.06 215.42, 20.08 216.48 C19.09 217.53, 20.11 214.8, 20.09 215.82 C20.06 216.84, 21.1 221.16, 19.94 222.61 C18.77 224.06, 14.63 221.96, 13.12 224.54 C11.61 227.12, 11.16 236.05, 10.88 238.09 C10.6 240.13, 11.32 235.71, 11.45 236.78 C11.57 237.85, 11.86 237.09, 11.61 244.49 C11.37 251.9, 9.31 274.34, 9.99 281.2 C10.68 288.06, 14.86 284.44, 15.72 285.65 C16.58 286.86, 15.62 287.04, 15.15 288.46 C14.68 289.89, 12.87 291.63, 12.89 294.18 C12.91 296.73, 15.23 302.59, 15.25 303.74 C15.27 304.9, 12.4 299.33, 13 301.1 C13.6 302.88, 18.03 313.17, 18.84 314.4 C19.64 315.64, 17.67 307.86, 17.82 308.51 C17.96 309.17, 18.47 317.78, 19.71 318.32 C20.94 318.85, 25.56 312.46, 25.22 311.73 C24.89 311, 18.02 312.87, 17.7 313.95 C17.38 315.03, 23.07 318.06, 23.31 318.23 C23.55 318.4, 22.32 315.01, 19.15 314.95 C15.98 314.89, 7.35 317.07, 4.29 317.87 C1.22 318.67, 4.82 320.88, 0.76 319.74 C-3.3 318.6, -3.02 311.76, -20.07 311.02 C-37.12 310.28, -82.19 314.44, -101.55 315.29 C-120.91 316.13, -128.06 316.09, -136.25 316.1 C-144.45 316.11, -146.69 314.09, -150.75 315.32 C-154.8 316.56, -158 322.85, -160.57 323.51 C-163.14 324.17, -163.85 319.51, -166.17 319.28 C-168.49 319.05, -168.88 321.43, -174.5 322.12 C-180.13 322.8, -195.4 324.14, -199.93 323.4 C-204.47 322.65, -201.55 319.12, -201.71 317.64 C-201.87 316.17, -201.35 315.4, -200.9 314.56 C-200.45 313.73, -199.79 313.43, -199.03 312.63 C-198.26 311.83, -197.89 312.37, -196.32 309.76 C-194.75 307.14, -191.36 299.81, -189.62 296.94 C-187.88 294.06, -186.02 294.5, -185.87 292.53 C-185.71 290.56, -188.65 289.12, -188.68 285.12 C-188.72 281.12, -187.41 274.16, -186.1 268.51 C-184.78 262.86, -180.52 256.52, -180.82 251.2 C-181.12 245.87, -187.93 241.63, -187.91 236.57 C-187.9 231.5, -181.22 231.49, -180.73 220.81 C-180.23 210.13, -183.94 182.75, -184.93 172.52 C-185.92 162.28, -187.21 163.55, -186.68 159.39 C-186.14 155.23, -182.21 151.96, -181.73 147.56 C-181.25 143.16, -183.44 137.72, -183.81 133 C-184.18 128.29, -182.71 126.5, -183.94 119.27 C-185.16 112.03, -188.85 96.51, -191.15 89.58 C-193.45 82.65, -197.31 80.9, -197.75 77.69 C-198.19 74.48, -193.55 71.37, -193.8 70.33 C-194.05 69.28, -199.67 73.61, -199.24 71.41 C-198.8 69.22, -190.84 59.65, -191.16 57.15 C-191.49 54.66, -200.7 61.94, -201.19 56.43 C-201.67 50.92, -194.82 30.25, -194.06 24.1 C-193.3 17.96, -196.45 20.18, -196.65 19.57 C-196.84 18.97, -196.4 24.2, -195.23 20.47 C-194.07 16.74, -192.02 0.73, -189.64 -2.81 C-187.25 -6.36, -183.59 -1.15, -180.92 -0.81 C-178.25 -0.47, -182.29 -0.47, -173.63 -0.76 C-164.96 -1.04, -141.96 -1.45, -128.93 -2.53 C-115.89 -3.6, -103.04 -6.67, -95.4 -7.2 C-87.77 -7.74, -93.07 -7.74, -83.11 -5.74 C-73.16 -3.74, -44.28 2.35, -35.67 4.81 C-27.06 7.26, -34.17 8.84, -31.47 8.98 C-28.76 9.11, -24.35 5.41, -19.44 5.6 C-14.53 5.79, -5.52 10.76, -2 10.13 C1.53 9.49, 1.21 3.25, 1.73 1.78" stroke="none" stroke-width="0" fill="#ffffff" fill-rule="evenodd"></path><path fill="#1e1e1e" d="M 4.34,-2.89 Q 4.34,-2.89 5.37,-1.50 6.39,-0.10 7.51,2.88 8.63,5.87 10.36,8.84 12.10,11.81 13.11,14.25 14.12,16.69 15.29,19.05 16.47,21.40 17.68,23.80 18.89,26.21 20.61,28.72 22.33,31.24 22.66,33.34 23.00,35.44 23.66,39.72 24.33,43.99 25.06,48.29 25.79,52.59 26.31,55.56 26.83,58.53 27.33,61.33 27.83,64.14 27.90,68.00 27.96,71.86 27.88,74.52 27.79,77.19 27.73,79.74 27.66,82.30 27.68,85.95 27.71,89.61 27.78,92.03 27.85,94.45 27.95,97.09 28.05,99.73 28.13,102.22 28.21,104.72 27.34,108.03 26.47,111.34 26.64,113.15 26.81,114.96 26.67,115.78 26.53,116.60 26.20,117.37 25.87,118.14 25.37,118.80 24.86,119.47 24.21,120.00 23.56,120.52 22.81,120.88 22.05,121.23 21.23,121.40 20.41,121.56 19.58,121.52 18.74,121.49 17.94,121.25 17.14,121.01 16.42,120.59 15.70,120.17 15.10,119.59 14.50,119.01 14.05,118.30 13.61,117.60 13.35,116.80 13.09,116.01 13.02,115.18 12.96,114.34 15.02,111.92 17.07,109.49 19.19,106.23 21.31,102.98 24.20,100.86 27.09,98.74 30.81,97.18 34.52,95.61 37.02,94.36 39.51,93.10 43.03,91.92 46.54,90.75 49.65,89.55 52.75,88.35 56.04,87.61 59.33,86.86 61.70,86.51 64.07,86.15 66.60,86.00 69.13,85.84 71.62,85.77 74.12,85.70 76.60,85.67 79.09,85.64 83.01,85.89 86.92,86.14 89.53,86.10 92.14,86.06 96.59,86.36 101.03,86.66 103.88,86.61 106.74,86.55 111.25,87.78 115.76,89.01 119.00,89.88 122.25,90.76 125.08,91.55 127.92,92.34 132.06,93.12 136.19,93.90 139.29,95.64 142.38,97.38 144.92,98.88 147.46,100.37 149.97,103.08 152.49,105.78 154.70,109.40 156.92,113.03 158.12,115.71 159.32,118.39 161.46,122.99 163.59,127.60 164.64,133.32 165.68,139.04 166.11,142.00 166.54,144.96 166.80,147.99 167.05,151.02 167.22,153.26 167.39,155.49 167.02,159.93 166.64,164.37 165.94,166.69 165.24,169.01 163.69,171.58 162.15,174.15 160.62,176.38 159.10,178.61 156.60,180.96 154.09,183.31 152.49,185.24 150.88,187.16 148.58,189.85 146.28,192.53 143.09,195.60 139.90,198.67 135.69,203.14 131.48,207.60 127.12,211.49 122.76,215.38 119.43,218.00 116.11,220.61 113.30,222.77 110.50,224.94 106.82,227.44 103.14,229.95 98.78,230.66 94.42,231.38 92.02,231.50 89.62,231.62 87.17,231.70 84.73,231.78 81.78,231.77 78.84,231.76 75.68,231.71 72.53,231.67 67.96,231.29 63.38,230.91 60.14,229.58 56.90,228.24 53.05,226.54 49.20,224.84 45.50,223.07 41.80,221.31 38.90,220.23 36.00,219.15 31.84,218.23 27.69,217.31 25.42,216.97 23.14,216.63 20.98,215.76 18.82,214.89 19.22,214.90 19.63,214.91 18.98,214.74 18.32,214.58 17.72,214.26 17.13,213.94 16.62,213.49 16.12,213.04 15.74,212.48 15.35,211.92 15.12,211.29 14.88,210.66 14.80,209.99 14.72,209.31 14.81,208.64 14.89,207.97 15.13,207.34 15.38,206.71 15.76,206.15 16.15,205.60 16.66,205.15 17.17,204.71 17.77,204.39 18.37,204.08 19.03,203.92 19.69,203.76 20.36,203.77 21.04,203.77 22.90,206.50 24.76,209.22 26.41,210.45 28.07,211.69 28.15,212.39 28.24,213.10 28.15,213.80 28.06,214.50 27.81,215.16 27.56,215.83 27.16,216.41 26.75,216.99 26.22,217.46 25.69,217.93 25.06,218.26 24.43,218.59 23.75,218.76 23.06,218.93 22.35,218.93 21.64,218.93 20.95,218.75 20.26,218.58 19.64,218.25 19.01,217.92 18.48,217.45 17.95,216.98 17.55,216.40 17.14,215.81 16.89,215.15 16.64,214.49 20.56,216.51 24.48,218.54 23.59,221.24 22.70,223.94 21.45,227.90 20.20,231.86 19.28,235.74 18.36,239.63 17.74,241.95 17.12,244.27 16.93,247.03 16.73,249.79 16.70,252.84 16.67,255.90 16.62,259.64 16.56,263.38 16.56,266.50 16.57,269.61 16.63,272.40 16.70,275.18 17.34,278.49 17.98,281.81 18.45,284.37 18.92,286.93 19.41,289.72 19.89,292.52 20.59,294.60 21.29,296.67 22.09,299.08 22.89,301.48 23.80,304.01 24.71,306.53 26.35,309.70 27.98,312.88 28.11,316.42 28.25,319.95 23.91,322.49 19.57,325.03 17.06,325.08 14.55,325.13 10.28,324.91 6.01,324.69 2.76,324.03 -0.48,323.37 -3.60,322.95 -6.72,322.52 -11.68,321.53 -16.64,320.54 -20.89,319.98 -25.14,319.42 -28.86,319.19 -32.59,318.96 -36.54,318.77 -40.49,318.58 -44.55,318.42 -48.62,318.27 -52.25,318.26 -55.88,318.25 -59.33,318.28 -62.77,318.31 -66.14,318.35 -69.51,318.39 -72.37,318.49 -75.23,318.59 -78.35,318.64 -81.47,318.69 -85.17,318.62 -88.88,318.55 -92.35,318.55 -95.83,318.54 -100.95,318.82 -106.08,319.10 -109.82,319.31 -113.55,319.51 -116.10,319.76 -118.64,320.01 -122.39,320.40 -126.14,320.80 -129.84,321.03 -133.54,321.27 -137.51,321.30 -141.48,321.33 -145.06,321.39 -148.63,321.45 -150.73,322.06 -152.83,322.67 -155.00,323.06 -157.17,323.46 -160.83,323.85 -164.50,324.24 -168.15,325.11 -171.80,325.98 -175.10,326.27 -178.40,326.57 -181.25,326.78 -184.11,327.00 -186.27,327.10 -188.43,327.20 -191.24,327.33 -194.05,327.45 -197.70,326.16 -201.34,324.86 -202.53,321.64 -203.72,318.41 -202.66,315.15 -201.61,311.89 -199.16,309.08 -196.71,306.27 -197.78,304.33 -198.86,302.39 -198.23,299.79 -197.61,297.19 -196.76,293.64 -195.91,290.09 -195.64,287.79 -195.38,285.50 -194.57,282.00 -193.76,278.50 -192.76,274.77 -191.75,271.04 -191.32,267.83 -190.90,264.62 -189.97,260.19 -189.03,255.77 -188.56,251.26 -188.08,246.76 -187.88,242.91 -187.69,239.07 -187.04,234.86 -186.40,230.64 -186.06,226.22 -185.72,221.80 -185.54,217.52 -185.35,213.24 -185.25,209.05 -185.15,204.85 -185.09,199.73 -185.02,194.62 -184.97,189.11 -184.93,183.61 -185.00,179.84 -185.08,176.07 -185.50,171.77 -185.92,167.46 -186.09,161.66 -186.26,155.86 -186.79,151.16 -187.32,146.47 -188.00,142.11 -188.69,137.74 -189.00,133.36 -189.30,128.98 -189.99,125.41 -190.67,121.83 -191.07,118.23 -191.46,114.63 -192.13,111.42 -192.79,108.20 -193.21,105.21 -193.64,102.22 -194.28,99.29 -194.92,96.36 -195.31,93.44 -195.70,90.52 -196.34,88.20 -196.99,85.88 -197.38,83.10 -197.76,80.32 -198.53,76.94 -199.30,73.56 -199.89,70.32 -200.49,67.08 -200.70,64.91 -200.91,62.74 -201.09,60.13 -201.27,57.53 -202.20,54.53 -203.12,51.53 -203.21,47.94 -203.30,44.36 -203.33,40.83 -203.35,37.30 -203.40,34.43 -203.44,31.55 -203.45,28.84 -203.46,26.13 -202.70,23.88 -201.94,21.63 -200.08,19.06 -198.22,16.49 -198.61,13.80 -198.99,11.11 -199.03,8.65 -199.07,6.18 -198.52,2.54 -197.97,-1.09 -196.52,-3.21 -195.08,-5.32 -190.81,-6.16 -186.54,-6.99 -184.31,-6.95 -182.07,-6.91 -179.76,-7.19 -177.45,-7.47 -173.49,-7.44 -169.52,-7.40 -165.83,-7.62 -162.14,-7.83 -156.88,-7.74 -151.62,-7.65 -146.27,-7.95 -140.93,-8.25 -134.18,-8.30 -127.43,-8.35 -117.91,-8.30 -108.39,-8.26 -99.98,-7.71 -91.57,-7.17 -86.03,-6.42 -80.50,-5.67 -75.30,-4.85 -70.11,-4.03 -65.50,-3.18 -60.90,-2.33 -55.65,-1.49 -50.41,-0.65 -46.21,0.19 -42.01,1.04 -38.02,1.36 -34.02,1.69 -30.66,2.16 -27.29,2.64 -24.64,2.70 -21.99,2.76 -19.46,2.70 -16.93,2.64 -13.57,2.40 -10.20,2.15 -7.55,1.90 -4.90,1.66 -4.77,-0.74 -4.65,-3.14 -4.02,-3.80 -3.40,-4.46 -2.60,-4.89 -1.80,-5.31 -0.90,-5.46 -0.00,-5.61 0.88,-5.46 1.78,-5.32 2.58,-4.90 3.39,-4.47 4.01,-3.81 4.64,-3.15 5.02,-2.33 5.40,-1.51 5.50,-0.60 5.60,0.29 5.41,1.18 5.21,2.06 4.75,2.84 4.28,3.62 3.59,4.21 2.90,4.80 2.05,5.14 1.21,5.48 0.30,5.53 -0.59,5.58 -1.47,5.34 -2.34,5.10 -3.10,4.59 -3.85,4.08 -4.40,3.36 -4.95,2.63 -5.24,1.77 -5.53,0.91 -5.54,0.00 -5.54,-0.89 -5.25,-1.76 -4.96,-2.62 -4.41,-3.34 -3.86,-4.07 -3.11,-4.58 -2.36,-5.09 -1.49,-5.33 -0.61,-5.58 0.29,-5.53 1.19,-5.48 2.04,-5.15 2.88,-4.81 3.58,-4.22 4.27,-3.64 4.74,-2.86 5.21,-2.08 5.40,-1.19 5.60,-0.31 5.50,0.59 5.41,1.49 5.03,2.31 4.65,3.14 4.65,3.14 4.65,3.14 4.04,3.57 3.43,4.01 1.70,6.94 -0.02,9.87 -2.15,10.72 -4.28,11.57 -7.31,11.30 -10.34,11.02 -13.80,10.64 -17.26,10.26 -19.96,9.98 -22.65,9.69 -25.56,9.22 -28.48,8.75 -31.49,7.98 -34.49,7.20 -38.79,6.83 -43.08,6.45 -47.17,5.66 -51.26,4.86 -56.57,4.07 -61.88,3.29 -66.42,2.54 -70.96,1.79 -76.10,1.10 -81.24,0.41 -86.57,-0.15 -91.90,-0.72 -100.11,-1.04 -108.31,-1.36 -117.73,-1.10 -127.15,-0.85 -133.60,-0.41 -140.05,0.02 -145.61,0.88 -151.16,1.74 -155.88,2.31 -160.60,2.87 -164.71,3.79 -168.82,4.71 -172.01,5.15 -175.20,5.60 -180.09,5.89 -184.97,6.19 -185.02,8.69 -185.06,11.18 -185.16,13.87 -185.25,16.56 -185.71,19.19 -186.18,21.83 -188.35,24.30 -190.52,26.76 -190.53,29.16 -190.53,31.55 -190.57,34.42 -190.61,37.28 -190.62,40.77 -190.63,44.26 -190.78,47.73 -190.94,51.20 -190.17,53.33 -189.40,55.45 -189.50,58.15 -189.60,60.84 -189.75,63.63 -189.90,66.41 -189.86,68.63 -189.83,70.85 -189.35,75.15 -188.86,79.45 -188.75,81.74 -188.65,84.02 -188.13,86.90 -187.61,89.78 -187.51,92.37 -187.41,94.96 -186.88,98.27 -186.36,101.58 -186.29,104.32 -186.21,107.06 -185.71,110.62 -185.20,114.17 -185.08,117.53 -184.96,120.90 -184.44,124.75 -183.91,128.60 -183.61,132.74 -183.31,136.87 -182.57,141.35 -181.82,145.83 -181.23,150.74 -180.63,155.65 -180.40,161.25 -180.17,166.85 -179.64,171.46 -179.11,176.07 -179.19,179.85 -179.27,183.62 -179.24,189.13 -179.21,194.64 -179.18,199.77 -179.14,204.91 -179.12,209.14 -179.11,213.38 -179.11,217.75 -179.11,222.12 -179.22,226.84 -179.33,231.56 -179.73,235.42 -180.13,239.28 -180.15,243.24 -180.17,247.19 -180.21,252.09 -180.25,256.99 -180.53,261.25 -180.81,265.51 -181.00,269.29 -181.19,273.07 -181.62,276.83 -182.06,280.60 -182.41,283.54 -182.75,286.48 -183.37,291.42 -183.99,296.37 -184.63,299.52 -185.26,302.67 -185.35,306.42 -185.44,310.18 -187.36,313.09 -189.27,316.00 -190.89,318.03 -192.52,320.07 -194.13,317.42 -195.74,314.76 -193.12,314.88 -190.50,315.00 -188.16,315.09 -185.82,315.18 -183.25,315.34 -180.68,315.50 -178.48,315.60 -176.28,315.70 -172.85,315.64 -169.41,315.59 -165.43,315.19 -161.44,314.79 -157.92,314.82 -154.40,314.85 -151.57,314.47 -148.74,314.10 -145.19,314.08 -141.65,314.06 -137.83,313.91 -134.00,313.75 -130.56,313.55 -127.11,313.35 -123.01,312.72 -118.92,312.10 -116.43,312.17 -113.95,312.24 -110.34,312.04 -106.73,311.84 -101.28,311.18 -95.83,310.51 -92.35,310.50 -88.88,310.49 -85.17,310.42 -81.46,310.35 -78.35,310.40 -75.23,310.45 -72.37,310.56 -69.51,310.66 -66.14,310.70 -62.76,310.75 -59.31,310.78 -55.86,310.82 -52.22,310.83 -48.58,310.83 -44.49,310.71 -40.41,310.60 -36.38,310.49 -32.36,310.38 -28.50,310.36 -24.65,310.33 -20.04,310.25 -15.43,310.17 -10.73,310.30 -6.03,310.44 -2.11,310.42 1.81,310.40 3.94,310.69 6.06,310.99 9.05,310.80 12.03,310.62 14.56,310.64 17.10,310.67 20.66,311.81 24.22,312.95 19.39,314.42 14.57,315.89 13.03,313.18 11.49,310.46 10.21,307.17 8.92,303.87 8.33,301.12 7.73,298.36 6.89,294.73 6.04,291.09 5.19,286.63 4.34,282.17 3.75,278.67 3.15,275.17 3.22,272.39 3.29,269.61 3.29,266.49 3.30,263.37 3.25,259.60 3.20,255.83 3.23,252.60 3.25,249.36 3.49,246.45 3.72,243.53 4.56,240.32 5.39,237.10 6.28,233.73 7.17,230.35 8.01,227.83 8.85,225.30 9.79,222.89 10.74,220.48 11.71,217.99 12.68,215.50 13.77,213.64 14.86,211.77 17.06,209.97 19.27,208.16 23.67,209.92 28.07,211.69 28.15,212.39 28.24,213.09 28.15,213.80 28.06,214.50 27.81,215.16 27.56,215.83 27.16,216.41 26.75,216.99 26.22,217.46 25.69,217.93 25.06,218.26 24.43,218.59 23.75,218.76 23.06,218.93 22.35,218.93 21.64,218.93 20.95,218.75 20.26,218.58 19.64,218.25 19.01,217.92 18.48,217.45 17.95,216.98 17.55,216.40 17.14,215.81 16.89,215.15 16.64,214.49 16.58,214.75 16.52,215.02 15.94,212.75 15.36,210.49 17.50,212.70 19.63,214.91 18.98,214.74 18.32,214.58 17.72,214.26 17.13,213.94 16.62,213.49 16.12,213.04 15.74,212.48 15.35,211.93 15.12,211.29 14.88,210.66 14.80,209.99 14.72,209.31 14.81,208.64 14.89,207.97 15.13,207.34 15.38,206.71 15.76,206.15 16.15,205.60 16.66,205.15 17.17,204.71 17.77,204.39 18.37,204.08 19.03,203.92 19.68,203.77 20.36,203.77 21.04,203.77 22.09,204.81 23.14,205.85 25.47,206.68 27.80,207.51 30.91,208.71 34.02,209.91 36.51,210.61 38.99,211.31 42.03,212.51 45.07,213.71 48.63,215.08 52.19,216.44 56.46,217.63 60.74,218.81 63.17,219.78 65.61,220.76 69.06,221.32 72.52,221.89 75.66,221.84 78.81,221.79 81.73,221.77 84.65,221.74 87.04,221.78 89.43,221.82 93.62,221.88 97.80,221.94 100.24,221.83 102.67,221.71 104.48,220.48 106.28,219.24 109.03,217.29 111.78,215.34 114.80,212.75 117.82,210.16 121.67,206.28 125.53,202.41 129.44,197.56 133.36,192.71 135.84,189.55 138.33,186.39 140.44,183.37 142.55,180.35 144.59,177.80 146.64,175.26 148.25,173.82 149.85,172.38 152.21,168.98 154.57,165.58 155.64,162.56 156.71,159.55 156.69,155.74 156.67,151.93 156.43,149.38 156.20,146.82 155.47,143.36 154.74,139.90 154.16,136.21 153.58,132.51 152.13,129.80 150.68,127.08 148.89,123.16 147.10,119.23 145.00,115.71 142.90,112.18 141.08,109.93 139.26,107.69 136.96,105.92 134.65,104.16 132.41,102.87 130.17,101.58 127.80,101.03 125.44,100.48 122.74,99.57 120.04,98.66 116.98,97.77 113.91,96.89 110.30,96.21 106.68,95.53 103.86,95.48 101.03,95.42 96.60,95.73 92.16,96.04 89.55,96.01 86.94,95.97 83.06,96.24 79.18,96.50 76.75,96.51 74.33,96.52 71.98,96.54 69.63,96.57 65.59,96.79 61.54,97.02 59.26,97.48 56.98,97.95 53.69,99.60 50.41,101.26 47.85,102.32 45.28,103.38 42.43,105.14 39.58,106.90 37.43,107.95 35.29,109.01 32.28,111.76 29.26,114.52 26.91,116.92 24.57,119.32 25.69,117.13 26.81,114.95 26.67,115.78 26.53,116.60 26.20,117.37 25.87,118.14 25.37,118.80 24.86,119.47 24.21,119.99 23.56,120.52 22.81,120.88 22.05,121.23 21.23,121.39 20.41,121.56 19.58,121.52 18.75,121.49 17.94,121.25 17.14,121.01 16.42,120.59 15.70,120.17 15.10,119.59 14.50,119.01 14.05,118.30 13.61,117.60 13.35,116.80 13.09,116.01 13.02,115.18 12.96,114.34 13.06,112.49 13.16,110.63 13.99,107.67 14.82,104.72 14.90,102.22 14.98,99.73 15.08,97.09 15.18,94.45 15.25,92.03 15.32,89.61 15.34,85.96 15.36,82.31 15.29,79.77 15.22,77.22 15.10,72.90 14.99,68.59 14.82,65.40 14.66,62.21 14.02,59.78 13.38,57.35 13.10,54.13 12.83,50.90 11.93,46.35 11.03,41.80 9.80,37.80 8.57,33.80 7.58,31.70 6.59,29.61 5.04,26.40 3.49,23.19 2.91,21.11 2.32,19.02 1.10,16.78 -0.11,14.54 -0.93,12.55 -1.75,10.56 -2.17,8.18 -2.59,5.81 -3.47,4.35 -4.34,2.89 -4.63,2.33 -4.91,1.77 -5.05,1.16 -5.19,0.54 -5.18,-0.08 -5.17,-0.71 -5.01,-1.32 -4.85,-1.93 -4.55,-2.48 -4.25,-3.03 -3.82,-3.50 -3.40,-3.96 -2.87,-4.31 -2.35,-4.66 -1.76,-4.88 -1.16,-5.09 -0.54,-5.16 0.08,-5.22 0.70,-5.14 1.33,-5.05 1.91,-4.82 2.50,-4.58 3.01,-4.22 3.52,-3.85 3.93,-3.37 4.34,-2.89 4.34,-2.89 L 4.34,-2.89 Z"></path></g></svg>