<svg version="1.1" xmlns="http://www.w3.org/2000/svg" viewBox="0 0 800 360" width="1600" height="720">
  <!-- svg-source:excalidraw -->
  
  <defs>
    <style class="style-fonts">
      
    </style>
    
  </defs>
  <g stroke-linecap="round" transform="translate(10 10) rotate(0 390 170)"><path d="M32 0 C224.68 -2.14, 417.04 -0.7, 748 0 C771.7 1.01, 778.64 11.94, 780 32 C779.62 136.79, 780.51 243, 780 308 C776.83 328.27, 768.48 341.12, 748 340 C487.55 336.01, 228.16 335.97, 32 340 C14.04 342.6, -2.55 326.35, 0 308 C0.19 226.55, 1.21 141.21, 0 32 C2.93 8.6, 7.08 1.19, 32 0" stroke="none" stroke-width="0" fill="#ffffff"></path><path d="M32 0 C198.89 -0.12, 366.9 -0.69, 748 0 M32 0 C192.89 -0.53, 353.86 -1.03, 748 0 M748 0 C769.72 -1.5, 781.39 9.47, 780 32 M748 0 C768.43 -2.26, 777.85 10.11, 780 32 M780 32 C781.48 125.51, 781.6 218.13, 780 308 M780 32 C778.91 127.6, 779.21 223.2, 780 308 M780 308 C780.18 329.82, 770.47 340.19, 748 340 M780 308 C780.96 330.88, 769.9 340.16, 748 340 M748 340 C494.71 339.3, 241.17 339.49, 32 340 M748 340 C547.35 339.59, 346.36 339.86, 32 340 M32 340 C11.17 338.3, -2 328.72, 0 308 M32 340 C8.72 340.28, -1.47 330.22, 0 308 M0 308 C-1.34 201.63, -1.72 97.56, 0 32 M0 308 C-1 223.3, -1.19 138.06, 0 32 M0 32 C1.77 11, 10.6 0.55, 32 0 M0 32 C1.73 8.66, 9.5 -0.04, 32 0" stroke="#ffffff" stroke-width="4" fill="none"></path></g><g stroke-linecap="round"><g transform="translate(230 170) rotate(0 80 0)"><path d="M0.27 0.19 C26.78 0.22, 133.45 1.26, 159.9 1.19 M-1.05 -0.76 C25.23 -0.51, 131.83 -0.59, 158.9 -0.3" stroke="#868e96" stroke-width="4" fill="none"></path></g><g transform="translate(230 170) rotate(0 80 0)"><path d="M157.65 -2.29 L144.7 6.19 L146.78 -8.07 L159.15 1.02" stroke="none" stroke-width="0" fill="#868e96" fill-rule="evenodd"></path><path d="M158.9 -0.3 C154.17 1.91, 150.43 3.07, 145.28 5.98 M158.9 -0.3 C154.8 1.62, 151.57 3.18, 145.28 5.98 M145.28 5.98 C145.99 2.96, 146.46 -1.44, 145.33 -6.7 M145.28 5.98 C145.35 2.13, 145.44 -1.6, 145.33 -6.7 M145.33 -6.7 C146.97 -5.54, 151.25 -2.81, 158.9 -0.3 M145.33 -6.7 C148.94 -4.02, 154.25 -3.22, 158.9 -0.3 M158.9 -0.3 C158.9 -0.3, 158.9 -0.3, 158.9 -0.3 M158.9 -0.3 C158.9 -0.3, 158.9 -0.3, 158.9 -0.3" stroke="#868e96" stroke-width="4" fill="none"></path></g></g><mask></mask><g stroke-linecap="round" transform="translate(45.09255575368303 70) rotate(0 76.57925242434453 104.36214200032487)"><path d="M0.63 1.27 L153.43 -0.39 L151.3 210.4 L1.25 209.02" stroke="none" stroke-width="0" fill="#edf2f9"></path><path d="M0 0 C34.76 -0.95, 71.3 -2.53, 153.16 0 M0 0 C45.8 -0.8, 90.41 -0.76, 153.16 0 M153.16 0 C150.55 62.72, 152.09 130.22, 153.16 208.72 M153.16 0 C152.42 66.99, 152.83 132.76, 153.16 208.72 M153.16 208.72 C95.5 208.96, 39.74 211.85, 0 208.72 M153.16 208.72 C113.66 210.2, 74.74 209.9, 0 208.72 M0 208.72 C-2.65 144.47, 0.34 83.49, 0 0 M0 208.72 C-1.66 165.81, -1.54 122.95, 0 0" stroke="#000000" stroke-width="4" fill="none"></path></g><g stroke-linecap="round"><g transform="translate(47.85993408332399 103.8584301514611) rotate(0 74.95109976491474 0)"><path d="M0 0 C54.32 -1.6, 106.72 0.67, 149.9 0 M0 0 C59.75 -0.29, 118.75 -1.7, 149.9 0" stroke="#000" stroke-width="4" fill="none"></path></g></g><mask></mask><g stroke-linecap="round" transform="translate(67.54975634180073 93.74815925700113) rotate(0 9.476344077626123 9.476344077626209)"><path d="M11.66 -0.01 C13.55 0.32, 15.93 1.96, 17.14 3.69 C18.36 5.42, 19.13 8.35, 18.95 10.39 C18.77 12.43, 17.43 14.59, 16.05 15.94 C14.68 17.28, 12.73 18.25, 10.71 18.44 C8.69 18.63, 5.67 18.13, 3.93 17.07 C2.18 16.02, 0.83 13.94, 0.23 12.12 C-0.37 10.3, -0.52 7.95, 0.3 6.16 C1.13 4.37, 3.26 2.28, 5.19 1.37 C7.12 0.46, 10.68 0.84, 11.88 0.71 C13.08 0.58, 12.45 0.49, 12.41 0.6 M12 0.25 C13.92 0.59, 15.63 2.82, 16.68 4.29 C17.74 5.77, 18.4 7.16, 18.32 9.07 C18.24 10.99, 17.49 14.1, 16.2 15.78 C14.9 17.47, 12.55 18.82, 10.54 19.17 C8.54 19.53, 5.86 19.06, 4.19 17.91 C2.51 16.76, 0.99 14.35, 0.49 12.28 C0 10.21, 0.5 7.36, 1.21 5.47 C1.92 3.59, 3.04 1.93, 4.77 0.98 C6.49 0.02, 10.51 -0.17, 11.54 -0.27 C12.57 -0.37, 11.03 0.22, 10.96 0.37" stroke="none" stroke-width="0" fill="#edf2f9"></path><path d="M10.52 0.24 C12.44 0.2, 15.11 1.28, 16.45 2.74 C17.79 4.2, 18.47 7.06, 18.55 9 C18.63 10.93, 18.01 12.7, 16.93 14.38 C15.86 16.05, 13.98 18.47, 12.1 19.06 C10.22 19.64, 7.48 18.79, 5.66 17.88 C3.83 16.98, 1.98 15.38, 1.16 13.64 C0.35 11.89, 0.26 9.34, 0.76 7.42 C1.27 5.5, 2.67 3.28, 4.2 2.13 C5.74 0.98, 8.93 0.87, 9.97 0.52 C11.01 0.16, 10.38 -0.18, 10.43 -0.03 M8.58 0.02 C10.65 -0.47, 13.71 0.13, 15.38 1.36 C17.05 2.6, 18.21 5.5, 18.61 7.4 C19.02 9.3, 18.72 10.89, 17.82 12.77 C16.92 14.65, 14.89 17.83, 13.21 18.69 C11.53 19.56, 9.55 18.5, 7.75 17.97 C5.94 17.45, 3.69 17.01, 2.37 15.54 C1.04 14.07, -0.23 11.13, -0.2 9.14 C-0.17 7.16, 1.05 5.05, 2.54 3.61 C4.03 2.18, 7.72 1.11, 8.73 0.53 C9.75 -0.06, 8.76 -0.09, 8.62 0.09" stroke="#000" stroke-width="4" fill="none"></path></g><g stroke-linecap="round"><g transform="translate(46.99098902481188 140.53336103631273) rotate(0 74.95109976491474 0)"><path d="M0 0 C34.41 1.16, 66.32 0.38, 149.9 0 M0 0 C56.45 0.32, 110.19 1.19, 149.9 0" stroke="#000" stroke-width="4" fill="none"></path></g></g><mask></mask><g stroke-linecap="round" transform="translate(66.68081128328868 130.42309014185275) rotate(0 9.476344077626123 9.476344077626209)"><path d="M8.21 0.41 C10.05 0.05, 12.5 0.44, 14.24 1.39 C15.98 2.34, 18.05 4.24, 18.67 6.14 C19.29 8.03, 18.76 10.81, 17.94 12.76 C17.11 14.71, 15.56 16.75, 13.73 17.82 C11.91 18.9, 8.95 19.57, 6.98 19.21 C5.01 18.85, 3.13 17.29, 1.92 15.66 C0.71 14.03, -0.35 11.54, -0.29 9.42 C-0.22 7.31, 0.87 4.54, 2.3 2.99 C3.73 1.44, 7.13 0.62, 8.29 0.13 C9.46 -0.36, 9.2 -0.17, 9.29 0.04 M8.99 -0.72 C10.91 -0.92, 13.75 0.79, 15.35 2.29 C16.94 3.79, 18.24 6.22, 18.57 8.29 C18.9 10.36, 18.32 13.06, 17.33 14.73 C16.33 16.4, 14.39 17.77, 12.61 18.29 C10.82 18.81, 8.57 18.59, 6.62 17.86 C4.68 17.14, 2.01 15.72, 0.95 13.95 C-0.11 12.17, -0.08 9.19, 0.28 7.22 C0.63 5.24, 1.52 3.39, 3.06 2.1 C4.6 0.81, 8.44 -0.31, 9.5 -0.53 C10.55 -0.75, 9.35 0.57, 9.39 0.8" stroke="none" stroke-width="0" fill="#edf2f9"></path><path d="M10.11 0.51 C11.92 0.51, 14.44 0.98, 15.92 2.44 C17.4 3.91, 18.78 7.21, 19 9.27 C19.21 11.33, 18.4 13.24, 17.23 14.82 C16.06 16.39, 13.91 18.15, 12 18.73 C10.09 19.3, 7.61 19.13, 5.79 18.28 C3.97 17.44, 2.06 15.51, 1.07 13.68 C0.09 11.86, -0.59 9.39, -0.12 7.33 C0.36 5.27, 2.05 2.45, 3.92 1.33 C5.78 0.2, 9.82 0.75, 11.09 0.57 C12.36 0.39, 11.48 0.13, 11.54 0.23 M9.39 0.53 C11.17 0.33, 13.68 0.26, 15.18 1.57 C16.68 2.89, 17.86 6.44, 18.38 8.42 C18.9 10.39, 19.14 11.69, 18.31 13.43 C17.48 15.16, 15.42 17.96, 13.39 18.85 C11.35 19.74, 8.14 19.39, 6.11 18.76 C4.08 18.12, 2.16 16.76, 1.2 15.04 C0.24 13.31, 0 10.56, 0.36 8.42 C0.73 6.27, 2.02 3.44, 3.4 2.14 C4.79 0.85, 7.6 0.94, 8.67 0.63 C9.74 0.32, 9.6 0.22, 9.84 0.3" stroke="#000" stroke-width="4" fill="none"></path></g><g stroke-linecap="round"><g transform="translate(44.407792219165856 176.19884663411358) rotate(0 74.95109976491474 0)"><path d="M0 0 C58.51 -0.46, 112.78 1.19, 149.9 0 M0 0 C34.83 -0.03, 67.37 0.26, 149.9 0" stroke="#000" stroke-width="4" fill="none"></path></g></g><mask></mask><g stroke-linecap="round" transform="translate(64.09761447764254 166.08857573965452) rotate(0 9.476344077626123 9.476344077626209)"><path d="M11.18 -0.32 C13.1 -0.17, 15.08 1.39, 16.35 3 C17.62 4.61, 18.8 7.17, 18.79 9.33 C18.79 11.48, 17.59 14.31, 16.32 15.95 C15.05 17.59, 13.13 18.81, 11.17 19.17 C9.2 19.52, 6.33 19.13, 4.54 18.06 C2.76 16.98, 1.15 14.64, 0.45 12.71 C-0.26 10.77, -0.47 8.35, 0.3 6.43 C1.07 4.5, 3.18 2.13, 5.06 1.15 C6.93 0.18, 10.43 0.71, 11.53 0.57 C12.63 0.42, 11.65 0.25, 11.66 0.28 M6.96 0.59 C8.82 0.08, 11.52 0.54, 13.39 1.37 C15.26 2.19, 17.23 3.81, 18.18 5.53 C19.13 7.24, 19.71 9.72, 19.1 11.66 C18.48 13.61, 16.25 16.09, 14.49 17.22 C12.73 18.35, 10.6 18.63, 8.55 18.42 C6.5 18.22, 3.63 17.48, 2.19 16.01 C0.75 14.53, -0.01 11.48, -0.1 9.56 C-0.2 7.64, 0.36 6.04, 1.61 4.48 C2.85 2.92, 6.38 0.88, 7.38 0.19 C8.38 -0.5, 7.56 0.17, 7.59 0.32" stroke="none" stroke-width="0" fill="#edf2f9"></path><path d="M11.68 0.7 C13.66 1.05, 15.88 1.99, 17.13 3.55 C18.38 5.1, 19.21 7.92, 19.17 10.03 C19.12 12.14, 18.25 14.7, 16.87 16.23 C15.49 17.76, 13.05 18.95, 10.88 19.23 C8.71 19.51, 5.62 19.1, 3.83 17.89 C2.04 16.67, 0.68 13.9, 0.16 11.95 C-0.36 10, -0.09 8.06, 0.71 6.2 C1.51 4.34, 3.03 1.76, 4.97 0.79 C6.91 -0.19, 11.16 0.33, 12.33 0.35 C13.5 0.38, 12.13 0.79, 11.98 0.94 M10.73 0.84 C12.8 1.04, 15.85 1.18, 17.32 2.7 C18.78 4.23, 19.66 7.79, 19.52 10 C19.38 12.2, 17.92 14.33, 16.5 15.92 C15.08 17.51, 12.91 19.17, 10.98 19.54 C9.06 19.91, 6.68 19.31, 4.96 18.15 C3.24 16.99, 1.51 14.44, 0.67 12.56 C-0.18 10.67, -0.88 8.72, -0.12 6.85 C0.64 4.99, 3.22 2.46, 5.22 1.37 C7.21 0.29, 10.89 0.53, 11.85 0.35 C12.8 0.17, 11.16 0.14, 10.95 0.28" stroke="#000" stroke-width="4" fill="none"></path></g><g stroke-linecap="round"><g transform="translate(46.683530617341376 210.31303982469763) rotate(0 74.95109976491474 0)"><path d="M0 0 C44.7 -3.15, 92.62 0.47, 149.9 0 M0 0 C47.62 0.26, 95.61 -0.18, 149.9 0" stroke="#000" stroke-width="4" fill="none"></path></g></g><mask></mask><g stroke-linecap="round" transform="translate(66.37335287581811 200.2027689302381) rotate(0 9.476344077626123 9.476344077626209)"><path d="M7.21 0.2 C9.04 -0.22, 11.49 0.52, 13.32 1.52 C15.14 2.51, 17.32 4.33, 18.14 6.17 C18.96 8.02, 18.85 10.73, 18.24 12.59 C17.62 14.45, 16.15 16.26, 14.45 17.32 C12.76 18.38, 9.98 19.22, 8.06 18.96 C6.15 18.7, 4.25 17.19, 2.94 15.75 C1.63 14.31, 0.37 12.35, 0.2 10.33 C0.04 8.3, 0.62 5.35, 1.95 3.59 C3.29 1.82, 7.26 0.32, 8.22 -0.27 C9.19 -0.86, 7.79 -0.14, 7.74 0.05 M10.5 -0.09 C12.56 -0.15, 15.46 0.97, 16.82 2.43 C18.19 3.89, 18.61 6.66, 18.68 8.68 C18.75 10.71, 18.47 12.92, 17.25 14.58 C16.02 16.24, 13.34 18.17, 11.33 18.65 C9.32 19.13, 6.98 18.25, 5.19 17.46 C3.4 16.67, 1.37 15.71, 0.59 13.93 C-0.19 12.15, -0.13 8.85, 0.52 6.78 C1.17 4.7, 2.82 2.62, 4.5 1.49 C6.19 0.35, 9.75 0.25, 10.62 -0.02 C11.5 -0.29, 9.9 -0.32, 9.77 -0.15" stroke="none" stroke-width="0" fill="#edf2f9"></path><path d="M11.85 0.3 C13.82 0.71, 16.3 2.41, 17.52 4.08 C18.75 5.75, 19.46 8.28, 19.19 10.34 C18.92 12.4, 17.38 15.04, 15.91 16.42 C14.44 17.79, 12.3 18.35, 10.35 18.59 C8.41 18.82, 5.95 18.94, 4.26 17.84 C2.56 16.74, 0.7 13.99, 0.2 11.98 C-0.3 9.98, 0.43 7.57, 1.26 5.81 C2.09 4.05, 3.43 2.33, 5.17 1.42 C6.91 0.51, 10.5 0.51, 11.72 0.33 C12.93 0.15, 12.53 0.26, 12.46 0.36 M12.22 0.76 C13.99 1.25, 15.74 2.49, 16.84 4.15 C17.94 5.81, 18.85 8.69, 18.81 10.74 C18.78 12.79, 17.97 15.11, 16.61 16.45 C15.26 17.78, 12.86 18.48, 10.69 18.74 C8.52 19.01, 5.22 19.1, 3.58 18.03 C1.95 16.96, 1.22 14.33, 0.87 12.32 C0.52 10.3, 0.78 7.83, 1.48 5.93 C2.18 4.04, 3.43 1.89, 5.06 0.96 C6.69 0.02, 10.19 0.4, 11.24 0.32 C12.3 0.23, 11.26 0.39, 11.37 0.46" stroke="#000" stroke-width="4" fill="none"></path></g><g stroke-linecap="round"><g transform="translate(45.41163381162926 246.75285493521278) rotate(0 74.95109976491474 0)"><path d="M0 0 C31.93 -2.28, 64.08 -1.15, 149.9 0 M0 0 C59.68 -1.72, 118.9 -1.27, 149.9 0" stroke="#000" stroke-width="4" fill="none"></path></g></g><mask></mask><g stroke-linecap="round" transform="translate(65.101456070106 236.6425840407528) rotate(0 9.476344077626123 9.476344077626209)"><path d="M9.23 0.38 C11.19 0.2, 13.57 1.23, 15.14 2.42 C16.7 3.61, 18.21 5.58, 18.61 7.54 C19.01 9.49, 18.42 12.37, 17.54 14.14 C16.65 15.91, 15.13 17.37, 13.3 18.15 C11.48 18.93, 8.58 19.48, 6.59 18.82 C4.61 18.16, 2.4 16.07, 1.39 14.2 C0.39 12.33, 0.33 9.6, 0.56 7.59 C0.79 5.57, 1.27 3.41, 2.77 2.11 C4.27 0.82, 8.33 0.17, 9.54 -0.18 C10.75 -0.53, 9.97 -0.18, 10.01 0.01 M8.79 -0.13 C10.64 -0.34, 13.75 0.22, 15.33 1.47 C16.92 2.73, 17.88 5.41, 18.29 7.38 C18.69 9.35, 18.67 11.39, 17.77 13.3 C16.87 15.21, 14.72 17.97, 12.89 18.83 C11.06 19.69, 8.65 19.17, 6.8 18.44 C4.95 17.71, 2.91 16.16, 1.82 14.45 C0.72 12.75, 0.14 10.24, 0.23 8.19 C0.32 6.13, 1 3.47, 2.38 2.11 C3.76 0.75, 7.33 0.44, 8.53 0.02 C9.73 -0.4, 9.53 -0.68, 9.57 -0.41" stroke="none" stroke-width="0" fill="#edf2f9"></path><path d="M9.99 0.35 C11.76 0.31, 13.85 1.61, 15.28 2.85 C16.72 4.1, 18.22 5.79, 18.59 7.79 C18.96 9.8, 18.56 13.13, 17.51 14.86 C16.45 16.6, 14.1 17.64, 12.26 18.22 C10.42 18.8, 8.34 18.98, 6.49 18.34 C4.63 17.7, 2.2 16.17, 1.12 14.38 C0.04 12.59, -0.45 9.68, 0.02 7.59 C0.49 5.5, 2.32 3.15, 3.94 1.85 C5.56 0.54, 8.57 -0.05, 9.74 -0.25 C10.91 -0.45, 10.97 0.36, 10.95 0.63 M10.94 0.86 C12.94 1.09, 15.58 2.41, 16.93 3.82 C18.29 5.22, 19.2 7.22, 19.05 9.27 C18.91 11.33, 17.31 14.55, 16.08 16.15 C14.84 17.76, 13.41 18.62, 11.65 18.91 C9.88 19.2, 7.37 18.95, 5.5 17.91 C3.63 16.88, 1.33 14.64, 0.44 12.72 C-0.45 10.79, -0.52 8.25, 0.14 6.35 C0.81 4.46, 2.55 2.43, 4.45 1.32 C6.35 0.21, 10.47 -0.18, 11.55 -0.3 C12.63 -0.43, 11.14 0.42, 10.92 0.57" stroke="#000" stroke-width="4" fill="none"></path></g><g stroke-linecap="round" transform="translate(412.4462752738417 70) rotate(0 176.92612317954814 106.22798914651048)"><path d="M0 0 C120.23 1.12, 238.14 0.55, 353.85 0 M0 0 C128.09 1.69, 257.08 1.89, 353.85 0 M353.85 0 C354.28 59.33, 354.17 118.67, 353.85 212.46 M353.85 0 C354.58 82.67, 355.35 165.96, 353.85 212.46 M353.85 212.46 C234.46 209.18, 116.92 209.5, 0 212.46 M353.85 212.46 C213.79 211.61, 75.28 211.1, 0 212.46 M0 212.46 C2.66 142.44, -0.17 67.52, 0 0 M0 212.46 C-1.34 137.46, -0.24 61.75, 0 0" stroke="#000000" stroke-width="4" fill="none"></path></g><g transform="translate(434.4916673068228 84.04622387274048) rotate(0 0.00004148618609178811 0.00004148618609178811)" stroke="none"><path fill="#e67700" d="M 3.14,-3.14 Q 3.14,-3.14 3.55,-2.55 3.97,-1.97 4.18,-1.28 4.40,-0.59 4.38,0.11 4.36,0.83 4.11,1.51 3.86,2.18 3.41,2.74 2.96,3.30 2.36,3.69 1.75,4.07 1.05,4.25 0.36,4.42 -0.35,4.36 -1.07,4.30 -1.73,4.02 -2.39,3.74 -2.92,3.26 -3.46,2.78 -3.81,2.15 -4.16,1.53 -4.30,0.82 -4.43,0.11 -4.34,-0.59 -4.24,-1.30 -3.92,-1.94 -3.60,-2.59 -3.09,-3.09 -2.59,-3.60 -1.94,-3.92 -1.30,-4.24 -0.59,-4.34 0.12,-4.43 0.82,-4.30 1.53,-4.16 2.15,-3.81 2.78,-3.46 3.26,-2.92 3.74,-2.39 4.02,-1.73 4.31,-1.07 4.36,-0.35 4.42,0.36 4.25,1.05 4.07,1.75 3.69,2.36 3.30,2.96 2.74,3.41 2.18,3.86 1.51,4.11 0.83,4.36 0.11,4.38 -0.60,4.40 -1.28,4.18 -1.97,3.97 -2.55,3.55 -3.14,3.13 -3.14,3.14 -3.14,3.14 -3.47,2.71 -3.80,2.29 -4.02,1.80 -4.24,1.32 -4.33,0.79 -4.43,0.26 -4.40,-0.26 -4.36,-0.80 -4.20,-1.31 -4.04,-1.82 -3.77,-2.28 -3.49,-2.73 -3.11,-3.11 -2.73,-3.49 -2.28,-3.77 -1.82,-4.05 -1.31,-4.20 -0.80,-4.36 -0.26,-4.40 0.26,-4.43 0.79,-4.33 1.32,-4.24 1.80,-4.02 2.29,-3.80 2.71,-3.47 3.14,-3.14 3.14,-3.14 L 3.14,-3.14 Z"></path></g><g transform="translate(422.18242419352646 84.22194609537019) rotate(0 0.00004148618609178811 0.00004148618609178811)" stroke="none"><path fill="#c92a2a" d="M 3.14,-3.14 Q 3.14,-3.14 3.55,-2.55 3.97,-1.97 4.18,-1.28 4.40,-0.59 4.38,0.11 4.36,0.83 4.11,1.51 3.86,2.18 3.41,2.74 2.96,3.30 2.36,3.69 1.75,4.07 1.05,4.25 0.36,4.42 -0.35,4.36 -1.07,4.30 -1.73,4.02 -2.39,3.74 -2.92,3.26 -3.46,2.78 -3.81,2.15 -4.16,1.53 -4.30,0.82 -4.43,0.11 -4.34,-0.59 -4.24,-1.30 -3.92,-1.94 -3.60,-2.59 -3.09,-3.09 -2.59,-3.60 -1.94,-3.92 -1.30,-4.24 -0.59,-4.34 0.12,-4.43 0.82,-4.30 1.53,-4.16 2.15,-3.81 2.78,-3.46 3.26,-2.92 3.74,-2.39 4.02,-1.73 4.31,-1.07 4.36,-0.35 4.42,0.36 4.25,1.05 4.07,1.75 3.69,2.36 3.30,2.96 2.74,3.41 2.18,3.86 1.51,4.11 0.83,4.36 0.11,4.38 -0.60,4.40 -1.28,4.18 -1.97,3.97 -2.55,3.55 -3.14,3.13 -3.14,3.14 -3.14,3.14 -3.47,2.71 -3.80,2.29 -4.02,1.80 -4.24,1.32 -4.33,0.79 -4.43,0.26 -4.40,-0.26 -4.36,-0.80 -4.20,-1.31 -4.04,-1.82 -3.77,-2.28 -3.49,-2.73 -3.11,-3.11 -2.73,-3.49 -2.28,-3.77 -1.82,-4.05 -1.31,-4.20 -0.80,-4.36 -0.26,-4.40 0.26,-4.43 0.79,-4.33 1.32,-4.24 1.80,-4.02 2.29,-3.80 2.71,-3.47 3.14,-3.14 3.14,-3.14 L 3.14,-3.14 Z"></path></g><g transform="translate(445.76087145869406 84.0899695873477) rotate(0 0.00004148618609178811 0.00004148618609178811)" stroke="none"><path fill="#087f5b" d="M 3.14,-3.14 Q 3.14,-3.14 3.55,-2.55 3.97,-1.97 4.18,-1.28 4.40,-0.59 4.38,0.11 4.36,0.83 4.11,1.51 3.86,2.18 3.41,2.74 2.96,3.30 2.36,3.69 1.75,4.07 1.05,4.25 0.36,4.42 -0.35,4.36 -1.07,4.30 -1.73,4.02 -2.39,3.74 -2.92,3.26 -3.46,2.78 -3.81,2.15 -4.16,1.53 -4.30,0.82 -4.43,0.11 -4.34,-0.59 -4.24,-1.30 -3.92,-1.94 -3.60,-2.59 -3.09,-3.09 -2.59,-3.60 -1.94,-3.92 -1.30,-4.24 -0.59,-4.34 0.12,-4.43 0.82,-4.30 1.53,-4.16 2.15,-3.81 2.78,-3.46 3.26,-2.92 3.74,-2.39 4.02,-1.73 4.31,-1.07 4.36,-0.35 4.42,0.36 4.25,1.05 4.07,1.75 3.69,2.36 3.30,2.96 2.74,3.41 2.18,3.86 1.51,4.11 0.83,4.36 0.11,4.38 -0.60,4.40 -1.28,4.18 -1.97,3.97 -2.55,3.55 -3.14,3.13 -3.14,3.14 -3.14,3.14 -3.47,2.71 -3.80,2.29 -4.02,1.80 -4.24,1.32 -4.33,0.79 -4.43,0.26 -4.40,-0.26 -4.36,-0.80 -4.20,-1.31 -4.04,-1.82 -3.77,-2.28 -3.49,-2.73 -3.11,-3.11 -2.73,-3.49 -2.28,-3.77 -1.82,-4.05 -1.31,-4.20 -0.80,-4.36 -0.26,-4.40 0.26,-4.43 0.79,-4.33 1.32,-4.24 1.80,-4.02 2.29,-3.80 2.71,-3.47 3.14,-3.14 3.14,-3.14 L 3.14,-3.14 Z"></path></g><g stroke-linecap="round" transform="translate(510 77.49732393000158) rotate(0 107.94189836801888 7.729590509962463)"><path d="M3.86 0 C64.89 -0.65, 131.57 2.04, 212.02 0 C217.04 0.32, 216.37 -1.84, 215.88 3.86 C217.16 6.37, 215.06 8.2, 215.88 11.59 C213.22 15, 211.13 16.03, 212.02 15.46 C149.08 12.27, 92.85 11.82, 3.86 15.46 C0.6 16.91, -2.93 16.06, 0 11.59 C-0.96 7.56, 1.08 6.07, 0 3.86 C-3.2 3.23, -2.21 -0.64, 3.86 0" stroke="none" stroke-width="0" fill="#ced4da"></path><path d="M3.86 0 C75.04 1.54, 147.48 0.73, 212.02 0 M3.86 0 C61.35 1.33, 119.94 2.42, 212.02 0 M212.02 0 C215.7 -0.96, 214.02 2.04, 215.88 3.86 M212.02 0 C215.87 -0.96, 216.75 -0.28, 215.88 3.86 M215.88 3.86 C215.31 5.19, 216.38 8.31, 215.88 11.59 M215.88 3.86 C216.25 7.22, 216.19 9.94, 215.88 11.59 M215.88 11.59 C215.6 12.7, 216.3 14.4, 212.02 15.46 M215.88 11.59 C217.84 12.94, 212.75 16.27, 212.02 15.46 M212.02 15.46 C159.3 15.41, 102.06 14.65, 3.86 15.46 M212.02 15.46 C157.48 14.27, 101.99 15.3, 3.86 15.46 M3.86 15.46 C0.7 13.55, -0.35 16.14, 0 11.59 M3.86 15.46 C2.58 14.4, 1.84 14.58, 0 11.59 M0 11.59 C0.63 8.63, -0.17 6.89, 0 3.86 M0 11.59 C0.36 8.39, -0.22 6.23, 0 3.86 M0 3.86 C-0.51 2.96, 3.12 -1.46, 3.86 0 M0 3.86 C-2.12 2.11, 1.8 -1.46, 3.86 0" stroke="#000000" stroke-width="2" fill="none"></path></g><g stroke-linecap="round"><g transform="translate(458.0232725607601 85.28075761147193) rotate(89.99999999999994 6.113969126957841 3.2586316296810764)"><path d="M0.44 0.35 C1.54 1.42, 4.68 6.45, 6.56 6.41 C8.44 6.37, 10.89 1.08, 11.74 0.08 M0 0.05 C1.05 1.21, 4.09 6.99, 6.23 7.05 C8.36 7.12, 11.93 1.48, 12.81 0.44" stroke="#000000" stroke-width="2" fill="none"></path></g></g><mask></mask><g stroke-linecap="round"><g transform="translate(467.9653722409083 94.45897077707923) rotate(90.26145384971288 -0.23335979689346686 -6.698560558743566)"><path d="M0.19 -0.11 C-0.04 -2.48, -0.75 -11.63, -0.95 -13.87 M-0.38 -0.64 C-0.48 -2.99, -0.03 -11.35, 0.03 -13.41" stroke="#000000" stroke-width="2" fill="none"></path></g></g><mask></mask><g stroke-linecap="round"><g transform="translate(488.90950722953664 84.0008873907318) rotate(270 6.113969126957841 3.2586316296810764)"><path d="M-0.48 -0.47 C0.46 0.61, 3.78 6.1, 5.83 6.36 C7.88 6.62, 10.7 2.08, 11.82 1.07 M0.27 0.47 C1.35 1.64, 4.67 7.01, 6.78 6.98 C8.89 6.95, 11.92 1.33, 12.93 0.27" stroke="#000000" stroke-width="2" fill="none"></path></g></g><mask></mask><g stroke-linecap="round"><g transform="translate(489.65172102798886 95.5289040667194) rotate(90.26145384971288 -0.23335979689346686 -6.698560558743566)"><path d="M-0.55 -0.16 C-0.61 -2.22, -0.94 -10.63, -0.87 -12.88 M0.18 -0.71 C0.32 -2.88, 0.24 -11.5, 0.15 -13.58" stroke="#000000" stroke-width="2" fill="none"></path></g></g><mask></mask><g stroke-linecap="round"><g transform="translate(737.8816291937163 80.38237588103948) rotate(0 8.0335358317555 -0.426223351995759)"><path d="M0 0 C2.68 -0.14, 13.39 -0.71, 16.07 -0.85 M0 0 C2.68 -0.14, 13.39 -0.71, 16.07 -0.85" stroke="#000000" stroke-width="4" fill="none"></path></g></g><mask></mask><g stroke-linecap="round"><g transform="translate(737.5558978105527 86.67984928887017) rotate(0 7.564746749295921 -0.8240517827800886)"><path d="M0 0 C2.52 -0.27, 12.61 -1.37, 15.13 -1.65 M0 0 C2.52 -0.27, 12.61 -1.37, 15.13 -1.65" stroke="#000000" stroke-width="4" fill="none"></path></g></g><mask></mask><g stroke-linecap="round"><g transform="translate(737.8848703020066 91.5042389788141) rotate(0 7.564746749295921 -0.8240517827800886)"><path d="M0 0 C2.52 -0.27, 12.61 -1.37, 15.13 -1.65 M0 0 C2.52 -0.27, 12.61 -1.37, 15.13 -1.65" stroke="#000000" stroke-width="4" fill="none"></path></g></g><mask></mask><g stroke-linecap="round"><g transform="translate(410.44139685054313 98.74159844548558) rotate(0 176.25625922287696 0.21561708208059827)"><path d="M0.67 -0.5 C59.68 -0.64, 294.41 -0.7, 352.96 -0.39 M-0.44 -1.81 C58.55 -1.85, 293.68 0.5, 352.25 0.72" stroke="#000000" stroke-width="4" fill="none"></path></g></g><mask></mask><g stroke-linecap="round" transform="translate(528.0299932530614 81.28921171760157) rotate(0 3.559488294399614 3.559488294399671)"><path d="M1.1 0.96 C1.1 0.96, 1.1 0.96, 1.1 0.96 M1.1 0.96 C1.1 0.96, 1.1 0.96, 1.1 0.96" stroke="#c8c8c8" stroke-width="1" fill="none"></path><path d="M7.12 3.56 C7.12 3.77, 7.1 3.97, 7.06 4.18 C7.03 4.38, 6.97 4.58, 6.9 4.78 C6.83 4.97, 6.75 5.16, 6.64 5.34 C6.54 5.52, 6.42 5.69, 6.29 5.85 C6.15 6.01, 6.01 6.15, 5.85 6.29 C5.69 6.42, 5.52 6.54, 5.34 6.64 C5.16 6.75, 4.97 6.83, 4.78 6.9 C4.58 6.97, 4.38 7.03, 4.18 7.06 C3.97 7.1, 3.77 7.12, 3.56 7.12 C3.35 7.12, 3.14 7.1, 2.94 7.06 C2.74 7.03, 2.54 6.97, 2.34 6.9 C2.15 6.83, 1.96 6.75, 1.78 6.64 C1.6 6.54, 1.43 6.42, 1.27 6.29 C1.11 6.15, 0.97 6.01, 0.83 5.85 C0.7 5.69, 0.58 5.52, 0.48 5.34 C0.37 5.16, 0.29 4.97, 0.21 4.78 C0.14 4.58, 0.09 4.38, 0.05 4.18 C0.02 3.97, 0 3.77, 0 3.56 C0 3.35, 0.02 3.14, 0.05 2.94 C0.09 2.74, 0.14 2.54, 0.21 2.34 C0.29 2.15, 0.37 1.96, 0.48 1.78 C0.58 1.6, 0.7 1.43, 0.83 1.27 C0.97 1.11, 1.11 0.97, 1.27 0.83 C1.43 0.7, 1.6 0.58, 1.78 0.48 C1.96 0.37, 2.15 0.29, 2.34 0.21 C2.54 0.14, 2.74 0.09, 2.94 0.05 C3.14 0.02, 3.35 0, 3.56 0 C3.77 0, 3.97 0.02, 4.18 0.05 C4.38 0.09, 4.58 0.14, 4.78 0.21 C4.97 0.29, 5.16 0.37, 5.34 0.48 C5.52 0.58, 5.69 0.7, 5.85 0.83 C6.01 0.97, 6.15 1.11, 6.29 1.27 C6.42 1.43, 6.54 1.6, 6.64 1.78 C6.75 1.96, 6.83 2.15, 6.9 2.34 C6.97 2.54, 7.03 2.74, 7.06 2.94 C7.1 3.14, 7.11 3.46, 7.12 3.56 C7.13 3.66, 7.13 3.46, 7.12 3.56" stroke="#000000" stroke-width="2" fill="none"></path></g><g stroke-linecap="round"><g transform="translate(534.3348662838279 87.89715881063603) rotate(0 2.250208345398562 1.8739302403971578)"><path d="M0 0 C0.75 0.62, 3.75 3.12, 4.5 3.75 M0 0 C0.75 0.62, 3.75 3.12, 4.5 3.75" stroke="#000000" stroke-width="2" fill="none"></path></g></g><mask></mask><g stroke-linecap="round" transform="translate(426.99731332373074 111.10295616330404) rotate(0 159.66242559682183 11.246254804374075)"><path d="M0 0 C0 0, 0 0, 0 0 M0 0 C0 0, 0 0, 0 0 M1.58 22.57 C6.35 17.09, 11.12 11.6, 21.26 -0.07 M1.58 22.57 C6.49 16.92, 11.4 11.27, 21.26 -0.07 M22.84 22.5 C30.63 13.54, 38.42 4.58, 42.52 -0.14 M22.84 22.5 C30.68 13.49, 38.51 4.47, 42.52 -0.14 M44.1 22.43 C48.3 17.6, 52.5 12.77, 63.78 -0.21 M44.1 22.43 C51.27 14.18, 58.45 5.93, 63.78 -0.21 M65.36 22.37 C69.74 17.33, 74.12 12.29, 85.04 -0.28 M65.36 22.37 C69.82 17.24, 74.28 12.11, 85.04 -0.28 M86.62 22.3 C94.07 13.73, 101.52 5.16, 106.3 -0.34 M86.62 22.3 C93.13 14.81, 99.64 7.32, 106.3 -0.34 M107.22 22.98 C113.56 15.7, 119.89 8.41, 126.91 0.34 M107.22 22.98 C113.84 15.37, 120.46 7.75, 126.91 0.34 M128.48 22.91 C133.07 17.63, 137.66 12.35, 148.17 0.27 M128.48 22.91 C133.56 17.07, 138.64 11.23, 148.17 0.27 M149.74 22.84 C155.47 16.26, 161.2 9.67, 169.43 0.2 M149.74 22.84 C155.86 15.81, 161.97 8.77, 169.43 0.2 M171 22.78 C177.43 15.38, 183.85 7.99, 190.69 0.13 M171 22.78 C177.95 14.79, 184.89 6.8, 190.69 0.13 M192.26 22.71 C197.79 16.35, 203.31 10, 211.95 0.06 M192.26 22.71 C198.75 15.24, 205.24 7.78, 211.95 0.06 M213.52 22.64 C218.64 16.75, 223.77 10.86, 233.21 0 M213.52 22.64 C219.79 15.43, 226.06 8.22, 233.21 0 M234.78 22.57 C242.54 13.64, 250.3 4.72, 254.47 -0.07 M234.78 22.57 C242.07 14.18, 249.36 5.8, 254.47 -0.07 M256.04 22.5 C261.74 15.94, 267.44 9.39, 275.73 -0.14 M256.04 22.5 C263.04 14.45, 270.04 6.4, 275.73 -0.14 M277.3 22.43 C282.98 15.9, 288.65 9.37, 296.99 -0.21 M277.3 22.43 C281.36 17.76, 285.42 13.09, 296.99 -0.21 M298.56 22.36 C304.92 15.05, 311.28 7.74, 318.25 -0.28 M298.56 22.36 C305.67 14.19, 312.77 6.01, 318.25 -0.28 M0.18 22.65 C0.18 22.65, 0.18 22.65, 0.18 22.65 M0.18 22.65 C0.18 22.65, 0.18 22.65, 0.18 22.65 M24.27 22.39 C16.5 15.64, 8.74 8.89, 0.11 1.39 M24.27 22.39 C16.32 15.48, 8.37 8.56, 0.11 1.39 M49.1 22.78 C43.53 17.93, 37.95 13.09, 22.69 -0.19 M49.1 22.78 C40.03 14.89, 30.96 7, 22.69 -0.19 M73.18 22.51 C65.49 15.82, 57.79 9.13, 47.52 0.2 M73.18 22.51 C64.18 14.68, 55.17 6.85, 47.52 0.2 M97.27 22.24 C89.09 15.14, 80.92 8.03, 71.61 -0.06 M97.27 22.24 C87.6 13.84, 77.93 5.44, 71.61 -0.06 M122.1 22.63 C113.5 15.16, 104.9 7.68, 95.69 -0.33 M122.1 22.63 C116.44 17.71, 110.78 12.8, 95.69 -0.33 M146.18 22.37 C136.83 14.23, 127.47 6.1, 120.52 0.06 M146.18 22.37 C139.28 16.36, 132.37 10.36, 120.52 0.06 M171.02 22.76 C162.58 15.42, 154.13 8.08, 144.61 -0.21 M171.02 22.76 C165.64 18.08, 160.26 13.41, 144.61 -0.21 M195.1 22.49 C185.56 14.2, 176.02 5.9, 169.44 0.18 M195.1 22.49 C185.38 14.04, 175.65 5.58, 169.44 0.18 M219.18 22.22 C212.62 16.52, 206.06 10.82, 193.52 -0.08 M219.18 22.22 C211.47 15.52, 203.75 8.81, 193.52 -0.08 M244.02 22.61 C235.93 15.58, 227.84 8.55, 218.36 0.31 M244.02 22.61 C237.32 16.79, 230.61 10.96, 218.36 0.31 M268.1 22.35 C258.85 14.3, 249.59 6.26, 242.44 0.04 M268.1 22.35 C258.24 13.78, 248.39 5.21, 242.44 0.04 M292.94 22.74 C284.39 15.3, 275.83 7.87, 266.52 -0.22 M292.94 22.74 C285.87 16.59, 278.79 10.44, 266.52 -0.22 M317.02 22.47 C308.94 15.45, 300.86 8.42, 291.36 0.16 M317.02 22.47 C311.14 17.36, 305.27 12.25, 291.36 0.16 M319.97 3.83 C318.71 2.74, 317.44 1.64, 315.44 -0.1 M319.97 3.83 C318.4 2.47, 316.82 1.1, 315.44 -0.1" stroke="#40c057" stroke-width="2" fill="none"></path><path d="M0 0 C87.96 0, 175.92 0, 319.32 0 M0 0 C103.33 0, 206.66 0, 319.32 0 M319.32 0 C319.32 8.19, 319.32 16.39, 319.32 22.49 M319.32 0 C319.32 4.91, 319.32 9.83, 319.32 22.49 M319.32 22.49 C211.77 22.49, 104.21 22.49, 0 22.49 M319.32 22.49 C243.42 22.49, 167.51 22.49, 0 22.49 M0 22.49 C0 17.49, 0 12.49, 0 0 M0 22.49 C0 14.11, 0 5.72, 0 0" stroke="#c8c8c8" stroke-width="4" fill="none"></path></g><g stroke-linecap="round" transform="translate(432.66795660868945 146.33310109701415) rotate(0 27.557782539615232 62.496186079401014)"><path d="M0 0 C0 0, 0 0, 0 0 M0 0 C0 0, 0 0, 0 0 M0.27 24.08 C6.23 13.84, 14.72 4.35, 21.26 -0.07 M0.27 24.08 C8.99 13.88, 17.03 4.08, 21.26 -0.07 M-0.12 48.92 C12.14 31.9, 26.19 18.71, 42.52 -0.14 M-0.12 48.92 C9.89 36.92, 22.04 24.94, 42.52 -0.14 M0.14 73 C20.04 53.09, 34.33 33.64, 55.25 9.6 M0.14 73 C11.09 58.87, 21.98 47.77, 55.25 9.6 M-0.25 97.84 C22.1 72.49, 42.41 48.18, 55.52 33.69 M-0.25 97.84 C21.68 73.6, 42.53 48.03, 55.52 33.69 M0.02 121.92 C11.31 109.96, 22.94 97.47, 55.13 58.52 M0.02 121.92 C20.74 97.94, 41.99 73.4, 55.13 58.52 M18 125.62 C29.31 108.92, 44.87 97.03, 55.39 82.6 M18 125.62 C28.41 113.78, 39.33 100.9, 55.39 82.6 M39.26 125.55 C45.26 119.48, 53.14 109.21, 55.66 106.69 M39.26 125.55 C44.14 119.13, 49.01 114.12, 55.66 106.69 M0 124.99 C0 124.99, 0 124.99, 0 124.99 M0 124.99 C0 124.99, 0 124.99, 0 124.99 M24.08 124.72 C16.36 117.72, 9.36 109.02, -0.07 103.73 M24.08 124.72 C17.83 119.77, 9.78 112.44, -0.07 103.73 M48.92 125.11 C35.16 114.59, 21.79 101.67, -0.14 82.47 M48.92 125.11 C36.47 113.71, 22.96 103.09, -0.14 82.47 M55.64 109.76 C41.19 97.54, 25.46 83.63, -0.21 61.21 M55.64 109.76 C39.99 95.64, 22.81 82.03, -0.21 61.21 M55.57 88.5 C35.86 69.61, 17.23 53.5, -0.28 39.95 M55.57 88.5 C41.62 75.46, 26.66 62.8, -0.28 39.95 M55.5 67.24 C42.81 54.24, 29.7 44.01, -0.35 18.69 M55.5 67.24 C35.23 48.53, 13.74 30.97, -0.35 18.69 M55.43 45.98 C41.67 32.01, 24.93 17, 1.85 -0.6 M55.43 45.98 C40.61 32.07, 23.56 16.8, 1.85 -0.6 M55.36 24.72 C42.61 15.88, 34.95 7.4, 26.68 -0.21 M55.36 24.72 C44.02 15.14, 35.29 6.42, 26.68 -0.21 M55.29 3.46 C54.01 1.9, 52.78 0.84, 50.77 -0.48 M55.29 3.46 C54.34 2.67, 52.55 1.52, 50.77 -0.48" stroke="#40c057" stroke-width="2" fill="none"></path><path d="M0 0 C22.98 1.66, 45.47 -0.05, 55.12 0 M0 0 C22.11 -0.35, 42.4 -1.24, 55.12 0 M55.12 0 C53.39 46.55, 55.16 95.54, 55.12 124.99 M55.12 0 C55.13 43.92, 54.71 89.1, 55.12 124.99 M55.12 124.99 C33.9 126, 15.37 124.79, 0 124.99 M55.12 124.99 C44.41 125.07, 33.39 125.71, 0 124.99 M0 124.99 C1.59 80.75, -0.46 39.7, 0 0 M0 124.99 C1.79 78.12, 0.26 33.93, 0 0" stroke="#c8c8c8" stroke-width="4" fill="none"></path></g><g stroke-linecap="round" transform="translate(502.40972538730955 148.29733844513976) rotate(0 121.2452542348899 12.498338693229016)"><path d="M0 0 C0 0, 0 0, 0 0 M0 0 C0 0, 0 0, 0 0 M0.27 24.08 C6.09 14.71, 15.58 10.08, 21.26 -0.07 M0.27 24.08 C5.52 17.35, 10.6 12.26, 21.26 -0.07 M11.69 35.33 C17.68 28.6, 23.85 20.4, 42.52 -0.14 M11.69 35.33 C23.07 23.99, 33.2 10.42, 42.52 -0.14 M32.95 35.26 C37.35 28.88, 43.66 19.99, 63.78 -0.21 M32.95 35.26 C43.59 23.55, 56.11 9.53, 63.78 -0.21 M54.21 35.2 C66.92 20.14, 80.19 6.29, 85.04 -0.28 M54.21 35.2 C62.25 24.74, 70.28 15.3, 85.04 -0.28 M75.47 35.13 C84.94 25.89, 95.16 12.95, 106.3 -0.34 M75.47 35.13 C84.63 24.16, 95.46 13.07, 106.3 -0.34 M96.73 35.06 C107.59 25.61, 115.46 11.86, 126.91 0.34 M96.73 35.06 C108.78 20.92, 121.32 7.69, 126.91 0.34 M117.99 34.99 C125.96 25.2, 131.81 17.36, 148.17 0.27 M117.99 34.99 C129.71 21.53, 140.42 8.62, 148.17 0.27 M139.25 34.92 C147.3 28.17, 155.02 17.67, 169.43 0.2 M139.25 34.92 C149.52 22.96, 158.43 12.05, 169.43 0.2 M159.85 35.61 C171.62 24.53, 181.16 9.51, 190.69 0.13 M159.85 35.61 C170.96 22.73, 179.91 11.18, 190.69 0.13 M181.11 35.54 C194.75 21.61, 205.21 7.3, 211.95 0.06 M181.11 35.54 C191.18 21.97, 202.35 10.03, 211.95 0.06 M202.37 35.47 C212.38 27.47, 220.05 17.15, 233.21 0 M202.37 35.47 C210.8 25.79, 219.76 16.84, 233.21 0 M223.63 35.4 C230.78 26.15, 240.68 13.94, 249.22 5.96 M223.63 35.4 C230.75 26.35, 238.72 16.17, 249.22 5.96 M-0.3 24.73 C-0.3 24.73, -0.3 24.73, -0.3 24.73 M-0.3 24.73 C-0.3 24.73, -0.3 24.73, -0.3 24.73 M24.54 25.12 C18.38 17.81, 11.66 12.91, -0.37 3.47 M24.54 25.12 C18.84 19.67, 14.18 15.96, -0.37 3.47 M48.62 24.86 C38.47 16.29, 25.94 2.23, 8.62 -9.91 M48.62 24.86 C40.46 16.92, 29.88 7.61, 8.62 -9.91 M73.45 25.25 C64.75 16.1, 55.84 12.06, 32.7 -10.18 M73.45 25.25 C61.49 16.97, 51.54 7.48, 32.7 -10.18 M97.53 24.98 C83.36 12.76, 67.85 -0.56, 57.54 -9.79 M97.53 24.98 C84.8 14.06, 72.05 2.92, 57.54 -9.79 M121.62 24.72 C107.07 10.27, 91.62 -3.85, 81.62 -10.06 M121.62 24.72 C107.33 12.4, 92.74 -0.11, 81.62 -10.06 M146.45 25.11 C135.85 15.07, 120.54 5.41, 106.45 -9.67 M146.45 25.11 C131.28 12.64, 116.88 0.29, 106.45 -9.67 M170.53 24.84 C157.72 15.53, 146.01 5.14, 130.54 -9.93 M170.53 24.84 C155.6 12.31, 141.99 -0.39, 130.54 -9.93 M195.37 25.23 C187.83 19.22, 178.77 9.56, 154.62 -10.2 M195.37 25.23 C185.17 14.95, 172.73 5.03, 154.62 -10.2 M219.45 24.96 C203.77 11.01, 191.3 1.63, 179.45 -9.81 M219.45 24.96 C209.87 16.14, 198.81 7.43, 179.45 -9.81 M242.78 24.04 C227.28 12.56, 212.43 -3.37, 203.54 -10.08 M242.78 24.04 C234.67 18.35, 226.79 10.58, 203.54 -10.08 M243.47 3.44 C240.5 0.43, 236.73 -3.03, 228.37 -9.69 M243.47 3.44 C238.61 -2.16, 231.46 -6.81, 228.37 -9.69" stroke="#40c057" stroke-width="2" fill="none"></path><path d="M0 0 C53.42 -1.63, 105.32 0.45, 242.49 0 M0 0 C94.88 -0.92, 190.7 -0.75, 242.49 0 M242.49 0 C243.06 8.84, 243.51 19.72, 242.49 25 M242.49 0 C241.72 9.34, 243.2 18.82, 242.49 25 M242.49 25 C154.44 25.14, 61.56 25.34, 0 25 M242.49 25 C146.59 24.22, 49.77 24.09, 0 25 M0 25 C-0.63 17.56, 1.15 5, 0 0 M0 25 C-0.94 16.79, -0.45 7.79, 0 0" stroke="#c8c8c8" stroke-width="4" fill="none"></path></g><g stroke-linecap="round" transform="translate(503.4844438751096 186.69004177288662) rotate(0 121.2452542348899 41.90342068466725)"><path d="M0 0 C0 0, 0 0, 0 0 M0 0 C0 0, 0 0, 0 0 M0.27 24.08 C7.22 19.65, 9.1 14.04, 21.26 -0.07 M0.27 24.08 C5.11 18.71, 8.79 12.74, 21.26 -0.07 M-0.12 48.92 C7.81 38.41, 18.32 27.11, 42.52 -0.14 M-0.12 48.92 C14.84 30.65, 28.74 14.83, 42.52 -0.14 M0.14 73 C18.12 50.13, 40.58 27.63, 63.78 -0.21 M0.14 73 C14.51 56.96, 27.91 42.8, 63.78 -0.21 M12.22 83.5 C32.59 61.26, 49.38 40.66, 85.04 -0.28 M12.22 83.5 C35.98 55.73, 61.23 27.84, 85.04 -0.28 M32.82 84.18 C59.54 53.38, 83.33 23.94, 106.3 -0.34 M32.82 84.18 C59.09 55.26, 83.94 25.35, 106.3 -0.34 M54.08 84.11 C68.47 64.38, 86 47.79, 126.91 0.34 M54.08 84.11 C79.98 55.42, 103.43 26.49, 126.91 0.34 M75.34 84.04 C101.23 52.77, 129.71 23.69, 148.17 0.27 M75.34 84.04 C89.54 67.03, 104.01 51.02, 148.17 0.27 M96.6 83.98 C113.73 64.17, 128.19 49, 169.43 0.2 M96.6 83.98 C123 52.98, 151.59 20.18, 169.43 0.2 M117.86 83.91 C140.56 55.14, 166.63 28.53, 190.69 0.13 M117.86 83.91 C142.56 54.19, 170.08 23.64, 190.69 0.13 M139.12 83.84 C159.83 58.52, 182.22 35.68, 211.95 0.06 M139.12 83.84 C162.59 57.37, 186.14 29.9, 211.95 0.06 M160.38 83.77 C187.27 53.38, 210.82 23.65, 233.21 0 M160.38 83.77 C187.99 53.4, 214.4 21.98, 233.21 0 M181.64 83.7 C200.29 60.83, 220.34 40.98, 243.31 12.76 M181.64 83.7 C204.1 56.74, 227.9 30.66, 243.31 12.76 M202.9 83.63 C214.96 70.88, 228.94 54.84, 242.92 37.59 M202.9 83.63 C219.42 64.97, 234.6 46.28, 242.92 37.59 M224.16 83.56 C229.65 75.22, 237.5 65.32, 243.19 61.68 M224.16 83.56 C230.84 75.69, 239.49 66.15, 243.19 61.68 M0.01 83.82 C0.01 83.82, 0.01 83.82, 0.01 83.82 M0.01 83.82 C0.01 83.82, 0.01 83.82, 0.01 83.82 M24.1 83.55 C17.99 80.51, 12.41 75.82, -0.06 62.56 M24.1 83.55 C14.52 75.8, 6.07 66.79, -0.06 62.56 M48.93 83.94 C29.65 67.36, 11.96 52.5, -0.12 41.3 M48.93 83.94 C29.67 66.63, 11.56 50.1, -0.12 41.3 M73.01 83.68 C55.94 66.52, 39.89 52.41, -0.19 20.04 M73.01 83.68 C56.1 70.06, 39.63 55.38, -0.19 20.04 M97.85 84.07 C68.18 61.96, 43.5 37.87, 0.49 -0.57 M97.85 84.07 C63.07 54.14, 27.94 23.82, 0.49 -0.57 M121.93 83.8 C90 57.28, 61.61 30.31, 24.57 -0.83 M121.93 83.8 C85.09 50.23, 46.47 18.87, 24.57 -0.83 M146.01 83.53 C119.47 60.36, 91.31 35.94, 49.41 -0.44 M146.01 83.53 C114.4 56.04, 84.06 29.96, 49.41 -0.44 M170.85 83.92 C143.4 59.61, 114.87 33.92, 73.49 -0.71 M170.85 83.92 C146.47 63.66, 125.03 44.21, 73.49 -0.71 M194.93 83.66 C166.16 58.02, 135.97 33.73, 98.33 -0.32 M194.93 83.66 C161.49 55.64, 128.24 27.31, 98.33 -0.32 M219.77 84.05 C187.92 56.29, 154.88 26.82, 122.41 -0.59 M219.77 84.05 C197.03 64.5, 176.59 46.71, 122.41 -0.59 M243.09 83.12 C208.1 53.93, 174.81 20.08, 146.49 -0.85 M243.09 83.12 C217.03 59.88, 190.1 37.05, 146.49 -0.85 M243.03 61.86 C222.6 44.37, 201.97 25.96, 171.33 -0.46 M243.03 61.86 C228.87 49.92, 212.85 37.41, 171.33 -0.46 M242.96 40.6 C222.52 22.3, 205.58 6.25, 195.41 -0.73 M242.96 40.6 C230.25 29.28, 216.15 16.97, 195.41 -0.73 M242.89 19.34 C238.32 13.51, 229.13 7.58, 220.25 -0.34 M242.89 19.34 C235.23 11.43, 227.33 5.04, 220.25 -0.34" stroke="#40c057" stroke-width="2" fill="none"></path><path d="M0 0 C88.6 2.17, 175.87 1.9, 242.49 0 M0 0 C77.25 1.04, 153.8 1.03, 242.49 0 M242.49 0 C243.94 18.88, 244.54 36.28, 242.49 83.81 M242.49 0 C242.69 17.84, 242.6 36.62, 242.49 83.81 M242.49 83.81 C160.57 82.93, 83.46 84.15, 0 83.81 M242.49 83.81 C181.35 84.19, 119.97 84.84, 0 83.81 M0 83.81 C1.53 60.04, 1.39 41.05, 0 0 M0 83.81 C0.36 67.32, 1.54 48.42, 0 0" stroke="#c8c8c8" stroke-width="4" fill="none"></path></g><g stroke-linecap="round" transform="translate(291.47133474043767 124.32532478374651) rotate(0 7.258546051364476 5.83013490788835)"><path d="M2.16 1.88 C2.16 1.88, 2.16 1.88, 2.16 1.88 M2.16 1.88 C2.16 1.88, 2.16 1.88, 2.16 1.88 M1.62 8.81 C1.62 8.81, 1.62 8.81, 1.62 8.81 M1.62 8.81 C1.62 8.81, 1.62 8.81, 1.62 8.81" stroke="#ffffff" stroke-width="2" fill="none"></path><path d="M6.75 0.07 C8.15 -0.22, 9.8 0.01, 11.04 0.73 C12.28 1.45, 13.77 3.11, 14.18 4.41 C14.6 5.71, 14.11 7.38, 13.52 8.52 C12.93 9.67, 11.92 10.77, 10.64 11.29 C9.35 11.81, 7.3 12.04, 5.8 11.63 C4.29 11.21, 2.5 9.82, 1.62 8.82 C0.74 7.82, 0.42 6.79, 0.51 5.63 C0.59 4.47, 1.09 2.88, 2.16 1.87 C3.23 0.86, 6.22 -0.19, 6.95 -0.44 C7.68 -0.69, 6.55 0.15, 6.52 0.36 M5.98 0.16 C7.53 -0.25, 9.81 0.07, 11.26 0.69 C12.7 1.31, 14.25 2.69, 14.66 3.88 C15.06 5.07, 14.27 6.71, 13.68 7.84 C13.1 8.96, 12.38 9.95, 11.15 10.62 C9.92 11.29, 7.88 12.03, 6.28 11.85 C4.69 11.68, 2.58 10.6, 1.59 9.56 C0.6 8.52, 0.41 6.7, 0.34 5.6 C0.27 4.5, 0.36 3.95, 1.17 2.96 C1.98 1.96, 4.47 0.1, 5.19 -0.38 C5.92 -0.87, 5.37 -0.21, 5.51 0.03" stroke="#868e96" stroke-width="4" fill="none"></path></g><g stroke-linecap="round" transform="translate(290 136.57412849569846) rotate(0 8.950581002867807 6.71293575215077)"><path d="M0.69 4.57 C0.69 4.57, 0.69 4.57, 0.69 4.57 M0.69 4.57 C0.69 4.57, 0.69 4.57, 0.69 4.57 M1.12 9.39 C1.12 9.39, 1.12 9.39, 1.12 9.39 M1.12 9.39 C1.12 9.39, 1.12 9.39, 1.12 9.39" stroke="#ffffff" stroke-width="2" fill="none"></path><path d="M9.97 -0.19 C11.73 -0.05, 14.32 1.27, 15.58 2.44 C16.84 3.61, 17.42 5.4, 17.52 6.84 C17.62 8.28, 17.24 9.99, 16.16 11.09 C15.09 12.19, 12.92 13.24, 11.05 13.42 C9.18 13.6, 6.6 12.85, 4.94 12.18 C3.29 11.5, 1.85 10.64, 1.13 9.4 C0.4 8.15, 0.01 6.17, 0.58 4.7 C1.16 3.22, 2.94 1.27, 4.55 0.55 C6.17 -0.18, 9.22 0.35, 10.28 0.34 C11.34 0.33, 10.97 0.44, 10.92 0.49 M11.17 0.13 C13.06 0.33, 15.48 1.54, 16.52 2.68 C17.56 3.82, 17.53 5.6, 17.41 6.98 C17.29 8.35, 16.95 9.82, 15.79 10.92 C14.63 12.02, 12.4 13.34, 10.46 13.58 C8.52 13.81, 5.74 13.16, 4.14 12.32 C2.54 11.47, 1.51 9.72, 0.86 8.52 C0.21 7.31, -0.31 6.44, 0.21 5.08 C0.73 3.72, 2.31 1.23, 3.99 0.37 C5.68 -0.5, 9.2 -0.14, 10.31 -0.11 C11.42 -0.07, 10.64 0.44, 10.63 0.59" stroke="#868e96" stroke-width="4" fill="none"></path></g><g stroke-linecap="round" transform="translate(313.34510054535485 140.1666181528699) rotate(0 4.4752905014339035 4.475290501433847)"><path d="M3.78 -0.26 C4.68 -0.41, 6.24 0.21, 7.02 0.7 C7.81 1.19, 8.26 1.8, 8.48 2.7 C8.7 3.59, 8.6 5.15, 8.35 6.08 C8.1 7, 7.74 7.75, 6.97 8.25 C6.2 8.75, 4.73 9.22, 3.75 9.07 C2.78 8.91, 1.72 8.13, 1.1 7.32 C0.48 6.51, 0.01 5.15, 0.03 4.22 C0.05 3.3, 0.59 2.45, 1.25 1.76 C1.9 1.07, 3.51 0.31, 3.96 0.08 C4.41 -0.15, 3.95 0.3, 3.94 0.39 M3.84 0.07 C4.68 -0.06, 6.31 0.39, 7.06 0.87 C7.81 1.35, 8.08 1.98, 8.36 2.93 C8.64 3.88, 9.03 5.68, 8.76 6.56 C8.48 7.44, 7.66 7.87, 6.71 8.2 C5.76 8.53, 4.08 8.67, 3.09 8.54 C2.09 8.41, 1.27 8.12, 0.73 7.45 C0.18 6.77, -0.3 5.57, -0.21 4.51 C-0.11 3.45, 0.6 1.82, 1.27 1.11 C1.94 0.39, 3.34 0.31, 3.82 0.22 C4.31 0.13, 4.17 0.51, 4.17 0.57" stroke="none" stroke-width="0" fill="#ffffff"></path><path d="M4.5 0.13 C5.4 0.15, 6.39 0.68, 7.14 1.31 C7.89 1.93, 8.78 2.98, 9.01 3.9 C9.24 4.83, 8.99 6.1, 8.51 6.85 C8.02 7.6, 6.99 8.07, 6.1 8.4 C5.22 8.72, 4.13 9.07, 3.22 8.79 C2.31 8.51, 1.15 7.63, 0.66 6.72 C0.17 5.81, 0.16 4.26, 0.29 3.34 C0.42 2.41, 0.72 1.7, 1.46 1.17 C2.2 0.63, 4.2 0.33, 4.71 0.14 C5.22 -0.05, 4.47 -0.05, 4.49 0.02 M4.95 0.17 C5.74 0.14, 6.39 0.64, 7.04 1.22 C7.7 1.79, 8.68 2.69, 8.9 3.63 C9.11 4.58, 8.86 6.08, 8.34 6.9 C7.82 7.72, 6.65 8.32, 5.78 8.56 C4.92 8.81, 4.05 8.6, 3.14 8.37 C2.24 8.13, 0.93 7.99, 0.36 7.15 C-0.21 6.31, -0.46 4.37, -0.28 3.33 C-0.09 2.28, 0.65 1.4, 1.46 0.89 C2.27 0.37, 4.08 0.36, 4.58 0.23 C5.07 0.1, 4.47 0.07, 4.42 0.08" stroke="#868e96" stroke-width="4" fill="none"></path></g><g stroke-linecap="round"><g transform="translate(322.2956815482228 131.21603715000174) rotate(0 0 8.950581002867693)"><path d="M0 0 C-0.42 5.93, -0.04 13.15, 0 17.9 M0 0 C0.26 4.26, 0.18 8.23, 0 17.9" stroke="#868e96" stroke-width="4" fill="none"></path></g></g><mask></mask></svg>