<svg version="1.1" xmlns="http://www.w3.org/2000/svg" viewBox="0 0 1620 920" width="3240" height="1840">
  <!-- svg-source:excalidraw -->
  
  <defs>
    <style class="style-fonts">
      
    </style>
    
  </defs>
  <g stroke-linecap="round" transform="translate(10 10) rotate(0 800 450)"><path d="M32 0 C377.64 -12.09, 721.92 -9.71, 1568 0 C1589.74 0.67, 1601.06 7.78, 1600 32 C1598.65 357.97, 1598.2 682.86, 1600 868 C1598.14 887.85, 1587.52 900.98, 1568 900 C1010.31 904.3, 453.95 903.89, 32 900 C10.65 898.05, -3.53 888.76, 0 868 C5.2 634.05, 6.12 403.88, 0 32 C-1.61 9.74, 11.12 -0.35, 32 0" stroke="none" stroke-width="0" fill="#ffffff"></path><path d="M32 0 C599.14 2.41, 1166.87 1.87, 1568 0 M32 0 C610.54 6.14, 1188.8 5.72, 1568 0 M1568 0 C1587.68 -1.45, 1599.32 9.32, 1600 32 M1568 0 C1588.46 0.21, 1600.61 12.52, 1600 32 M1600 32 C1599.77 264.7, 1599.12 497.36, 1600 868 M1600 32 C1598.29 292.01, 1598.77 552.83, 1600 868 M1600 868 C1601.09 891.02, 1590.93 900.88, 1568 900 M1600 868 C1600.56 890.6, 1587.04 901.96, 1568 900 M1568 900 C953.66 902.28, 339.8 902.08, 32 900 M1568 900 C1102.68 905.83, 637.32 906.02, 32 900 M32 900 C11.58 899.33, -0.79 887.96, 0 868 M32 900 C11.54 900.8, 1.74 891.45, 0 868 M0 868 C-1.26 675.2, -1.95 481.02, 0 32 M0 868 C-3.31 681.76, -2.83 495.79, 0 32 M0 32 C-0.82 10.64, 11.14 -1.39, 32 0 M0 32 C-0.03 12.09, 9.74 1.47, 32 0" stroke="#ffffff" stroke-width="4" fill="none"></path></g><g stroke-linecap="round" transform="translate(20 294.35483870967755) rotate(0 790 89.19354838709683)"><path d="M1.93 -3.96 L1583.61 0.33 L1576.19 181.57 L0.07 180.9" stroke="none" stroke-width="0" fill="#ffffff"></path><path d="M1.47 -1.04 C632.03 -9.43, 1261.63 -9.78, 1581.02 -0.03 M-0.59 0.36 C360.83 4.08, 722.88 5.25, 1579.66 -0.67 M1583.36 -1.59 C1585.98 43.51, 1581.43 88.47, 1581.39 175.9 M1579.39 -0.31 C1581.05 60.16, 1582.08 118.3, 1579.45 179.44 M1579.04 178.62 C1054.15 175.38, 526.58 175.11, -1.38 178.73 M1579.3 178.84 C955.39 171.68, 330.4 170.5, -0.26 178.83 M-0.98 175.75 C0.56 123.42, -5.34 65.05, 2.05 1.1 M-0.5 176.92 C1.23 130.41, 1.11 86.56, -1.27 -0.21" stroke="#1e1e1e" stroke-width="4" fill="none"></path></g><g stroke-linecap="round" transform="translate(427.7419354838712 523.7096774193546) rotate(0 165.64516129032256 50.9677419354839)"><path d="M0.73 3.92 L327.45 -0.08 L329.62 99.02 L2.33 98.47" stroke="none" stroke-width="0" fill="#ffffff"></path><path d="M-0.67 -1.8 C109.36 -1.35, 212.79 -1.7, 332.69 0.75 M-0.34 -1 C85.06 -0.32, 171.01 1.37, 330.42 -0.15 M331.62 -3.81 C332.45 35.58, 331.79 71.6, 328.49 100.15 M329.42 0.49 C331.69 21.4, 334.44 46.87, 332.75 100.16 M329.62 101.5 C237.96 102.2, 144.27 102.74, -1.41 100.38 M330.07 100.94 C252.44 106.35, 173.53 106.64, 1.26 102.73 M-2.73 102.63 C-2.17 75, -0.75 42.29, -0.05 -0.58 M-0.84 100.68 C0.2 70.41, 1.98 38.47, -1.05 0.45" stroke="#1e1e1e" stroke-width="4" fill="none"></path></g><g stroke-linecap="round" transform="translate(810 523.7096774193546) rotate(0 165.64516129032256 50.9677419354839)"><path d="M-3.12 0.05 L333.17 -1.11 L330.51 104.7 L-3.07 104.57" stroke="none" stroke-width="0" fill="#ffffff"></path><path d="M-2.59 -0.75 C123.81 1.62, 245.51 1.1, 332.05 -2.6 M1.26 -0.47 C118.51 -2.51, 233.69 -1.8, 330.2 -0.53 M329.71 -1.33 C329.62 25.43, 327.84 44.37, 329.6 98.29 M330.82 -0.25 C329.99 31.53, 333.5 68.1, 329.69 103.33 M333.08 102.6 C222.01 103.68, 108.94 106.31, 1.09 101.37 M330.43 102.96 C231.11 105.93, 131.55 106.59, 1.35 101.09 M-0.1 98.68 C-0.85 76.05, 1.66 49.75, -0.66 1.2 M0.08 103.69 C-1.98 76.64, -1.98 53.08, 1.94 -0.15" stroke="#1e1e1e" stroke-width="4" fill="none"></path></g><g stroke-linecap="round"><g transform="translate(96.45161290322608 345.32258064516145) rotate(0 0 38.225806451612925)"><path d="M0 0 C-1.7 24.44, -1.65 46.25, 0 76.45 M0 0 C-0.1 16.64, 0.26 33.2, 0 76.45" stroke="#868e96" stroke-width="4" fill="none"></path></g></g><mask></mask><g transform="translate(477.5482815785849 565.7769649774732) rotate(0 96.55528971498117 8.519584386615861)" stroke="none"><path fill="#868e96" d="M 1.01,-2.02 Q 1.01,-2.02 2.62,-1.16 4.24,-0.30 5.92,1.05 7.60,2.40 8.44,3.92 9.29,5.45 11.50,6.77 13.71,8.09 15.04,9.39 16.37,10.70 16.54,10.88 16.72,11.06 16.84,11.28 16.97,11.51 17.04,11.75 17.11,12.00 17.12,12.25 17.13,12.50 17.08,12.75 17.02,13.00 16.91,13.23 16.80,13.46 16.64,13.66 16.48,13.85 16.28,14.01 16.07,14.16 15.84,14.26 15.60,14.36 15.35,14.40 15.10,14.44 14.85,14.41 14.59,14.39 14.35,14.31 14.11,14.23 13.90,14.09 13.68,13.96 13.91,11.52 14.13,9.09 14.31,6.88 14.48,4.66 14.67,2.52 14.85,0.38 15.00,-1.60 15.14,-3.59 16.11,-4.83 17.08,-6.08 17.44,-7.32 17.80,-8.56 18.03,-8.72 18.26,-8.88 18.52,-8.98 18.78,-9.08 19.05,-9.12 19.33,-9.15 19.61,-9.12 19.89,-9.09 20.15,-9.00 20.41,-8.90 20.64,-8.74 20.87,-8.59 21.06,-8.38 21.25,-8.17 21.38,-7.93 21.51,-7.68 21.58,-7.41 21.65,-7.14 21.66,-6.86 21.66,-6.58 21.59,-6.31 21.53,-6.04 21.40,-5.79 21.28,-5.54 21.09,-5.33 20.91,-5.12 21.33,-6.13 21.74,-7.14 23.67,-4.18 25.60,-1.23 27.63,2.10 29.66,5.43 31.34,8.55 33.03,11.68 34.48,13.74 35.93,15.80 37.40,18.40 38.87,21.00 40.36,22.08 41.86,23.15 41.93,23.33 42.01,23.51 42.04,23.70 42.08,23.89 42.06,24.09 42.05,24.28 41.98,24.47 41.92,24.65 41.82,24.82 41.72,24.98 41.58,25.12 41.44,25.25 41.27,25.35 41.10,25.45 40.91,25.51 40.73,25.56 40.53,25.57 40.34,25.58 40.14,25.54 39.95,25.50 39.78,25.42 39.60,25.34 39.45,25.21 39.30,25.09 39.18,24.93 39.06,24.78 39.60,22.82 40.13,20.86 40.36,18.21 40.59,15.57 40.73,13.53 40.87,11.49 40.95,9.61 41.04,7.74 41.96,6.59 42.89,5.45 44.40,3.51 45.91,1.58 47.88,1.40 49.86,1.21 52.48,3.86 55.10,6.50 59.95,10.75 64.79,15.01 68.44,17.64 72.08,20.28 74.19,21.36 76.29,22.44 76.75,19.31 77.21,16.19 77.51,12.20 77.80,8.22 78.53,7.53 79.25,6.83 79.28,6.62 79.32,6.41 79.41,6.21 79.49,6.02 79.62,5.85 79.75,5.67 79.92,5.54 80.09,5.41 80.28,5.31 80.48,5.22 80.69,5.18 80.90,5.14 81.11,5.15 81.33,5.16 81.53,5.22 81.74,5.28 81.92,5.39 82.11,5.50 82.26,5.65 82.42,5.80 82.53,5.98 82.64,6.17 82.71,6.37 82.78,6.57 82.79,6.79 82.81,7.00 84.54,9.43 86.28,11.87 88.61,13.79 90.95,15.71 91.87,16.73 92.79,17.75 93.45,16.42 94.10,15.09 95.79,14.21 97.48,13.34 100.88,14.81 104.29,16.28 108.32,18.61 112.34,20.93 113.91,19.52 115.47,18.11 117.52,14.98 119.56,11.86 121.32,11.99 123.08,12.13 126.37,14.02 129.66,15.92 131.02,16.85 132.39,17.78 133.05,16.45 133.71,15.13 135.17,14.24 136.63,13.36 139.05,13.12 141.47,12.87 144.90,12.82 148.33,12.76 151.31,12.79 154.30,12.81 156.07,11.31 157.84,9.81 159.55,8.33 161.25,6.84 162.96,6.01 164.67,5.18 167.17,4.89 169.66,4.59 172.36,4.50 175.06,4.41 178.90,6.07 182.74,7.73 185.07,9.23 187.39,10.73 187.53,10.81 187.67,10.90 187.79,11.02 187.91,11.13 188.00,11.28 188.08,11.42 188.13,11.58 188.18,11.74 188.20,11.90 188.21,12.07 188.18,12.23 188.15,12.40 188.08,12.55 188.01,12.70 187.91,12.84 187.81,12.97 187.68,13.07 187.54,13.17 187.39,13.24 187.24,13.31 187.08,13.34 186.91,13.37 186.75,13.36 186.58,13.35 186.42,13.31 186.26,13.26 186.94,10.44 187.63,7.62 189.66,7.68 191.70,7.75 191.81,7.59 191.93,7.44 192.07,7.31 192.22,7.19 192.39,7.10 192.56,7.01 192.75,6.97 192.94,6.93 193.13,6.93 193.32,6.93 193.51,6.98 193.70,7.03 193.86,7.12 194.03,7.21 194.18,7.34 194.32,7.47 194.42,7.63 194.53,7.79 194.60,7.98 194.66,8.16 194.68,8.35 194.70,8.54 194.68,8.73 194.65,8.92 194.58,9.10 194.51,9.28 194.51,8.52 194.51,7.75 194.59,8.00 194.68,8.24 194.68,8.50 194.68,8.76 194.60,9.00 194.52,9.25 194.37,9.46 194.22,9.66 194.00,9.81 193.79,9.96 193.54,10.03 193.29,10.10 193.04,10.09 192.78,10.08 192.54,9.98 192.30,9.89 192.10,9.73 191.90,9.56 191.76,9.34 191.63,9.12 191.57,8.87 191.51,8.62 191.54,8.36 191.56,8.10 191.67,7.87 191.77,7.63 191.95,7.44 192.13,7.25 192.35,7.13 192.58,7.01 192.84,6.96 193.09,6.92 193.35,6.96 193.60,7.00 193.83,7.11 194.06,7.23 194.24,7.42 194.42,7.61 194.53,7.84 194.64,8.07 194.67,8.33 194.70,8.59 194.65,8.84 194.60,9.09 194.46,9.31 194.33,9.54 194.14,9.71 193.94,9.88 193.70,9.97 193.46,10.07 193.21,10.09 192.95,10.10 192.70,10.04 192.45,9.97 192.23,9.83 192.02,9.68 191.86,8.72 191.70,7.75 191.81,7.59 191.93,7.44 192.07,7.31 192.22,7.19 192.39,7.10 192.56,7.01 192.75,6.97 192.94,6.93 193.13,6.93 193.32,6.93 193.51,6.98 193.70,7.03 193.86,7.12 194.03,7.21 194.18,7.34 194.32,7.47 194.42,7.63 194.53,7.79 194.60,7.98 194.66,8.16 194.68,8.35 194.70,8.54 194.68,8.73 194.65,8.92 194.58,9.10 194.51,9.28 192.24,9.19 189.98,9.10 188.68,9.92 187.39,10.73 187.53,10.81 187.67,10.90 187.79,11.02 187.91,11.13 188.00,11.28 188.08,11.42 188.13,11.58 188.18,11.74 188.20,11.90 188.21,12.07 188.18,12.23 188.15,12.40 188.08,12.55 188.01,12.70 187.91,12.84 187.81,12.97 187.68,13.07 187.54,13.17 187.39,13.24 187.24,13.31 187.08,13.34 186.91,13.37 186.75,13.36 186.58,13.35 186.42,13.31 186.26,13.26 183.93,11.78 181.59,10.30 178.32,8.79 175.05,7.28 172.53,7.42 170.02,7.57 167.93,7.82 165.85,8.08 164.47,8.54 163.09,8.99 161.36,10.55 159.63,12.10 157.17,13.90 154.71,15.70 151.57,15.81 148.43,15.93 145.14,16.07 141.84,16.22 139.04,16.68 136.23,17.14 135.08,18.45 133.93,19.75 131.03,19.18 128.14,18.60 125.25,16.96 122.35,15.31 121.09,14.80 119.83,14.30 118.61,17.35 117.40,20.40 115.12,21.99 112.84,23.58 107.84,21.45 102.84,19.32 99.74,18.17 96.64,17.03 95.70,18.23 94.77,19.42 91.94,18.69 89.12,17.97 86.47,15.78 83.83,13.60 81.54,10.22 79.25,6.83 79.28,6.62 79.32,6.41 79.41,6.21 79.49,6.02 79.62,5.85 79.75,5.67 79.92,5.54 80.09,5.41 80.28,5.31 80.48,5.22 80.69,5.18 80.90,5.14 81.11,5.15 81.33,5.16 81.53,5.22 81.74,5.28 81.92,5.39 82.11,5.50 82.26,5.65 82.42,5.80 82.53,5.98 82.64,6.17 82.71,6.37 82.77,6.57 82.79,6.79 82.81,7.00 81.74,7.99 80.67,8.98 80.60,12.79 80.53,16.61 79.89,20.35 79.26,24.09 77.42,24.73 75.59,25.36 72.87,24.21 70.15,23.05 66.28,20.42 62.41,17.80 57.26,13.51 52.11,9.22 50.42,7.14 48.73,5.05 47.63,5.27 46.53,5.48 45.27,7.05 44.01,8.63 44.00,10.14 43.99,11.66 43.91,13.76 43.82,15.86 42.84,19.50 41.86,23.15 41.93,23.33 42.01,23.51 42.04,23.70 42.08,23.89 42.06,24.09 42.05,24.28 41.98,24.47 41.92,24.65 41.82,24.82 41.72,24.98 41.58,25.12 41.44,25.25 41.27,25.35 41.10,25.45 40.91,25.50 40.73,25.56 40.53,25.57 40.34,25.58 40.14,25.54 39.95,25.50 39.78,25.42 39.60,25.34 39.45,25.21 39.30,25.09 39.18,24.93 39.06,24.78 37.67,23.70 36.28,22.63 34.80,20.17 33.32,17.71 31.67,15.55 30.02,13.39 28.25,10.43 26.49,7.47 24.23,4.17 21.98,0.87 20.82,-0.89 19.66,-2.66 18.61,-3.93 17.57,-5.20 17.68,-6.88 17.80,-8.56 18.03,-8.72 18.26,-8.88 18.52,-8.98 18.78,-9.08 19.05,-9.12 19.33,-9.15 19.61,-9.12 19.89,-9.09 20.15,-9.00 20.41,-8.90 20.64,-8.74 20.87,-8.59 21.06,-8.38 21.25,-8.17 21.38,-7.93 21.51,-7.68 21.58,-7.41 21.65,-7.14 21.66,-6.86 21.66,-6.58 21.59,-6.31 21.53,-6.04 21.40,-5.79 21.28,-5.54 21.09,-5.33 20.91,-5.12 19.89,-3.84 18.87,-2.57 18.98,-1.05 19.09,0.47 19.18,2.75 19.28,5.03 19.14,6.52 19.00,8.01 17.68,9.35 16.37,10.69 16.54,10.88 16.72,11.06 16.84,11.28 16.97,11.51 17.04,11.75 17.11,12.00 17.12,12.25 17.13,12.50 17.08,12.75 17.02,13.00 16.91,13.23 16.80,13.46 16.64,13.66 16.48,13.85 16.28,14.01 16.07,14.16 15.84,14.26 15.60,14.36 15.35,14.40 15.10,14.44 14.85,14.41 14.59,14.39 14.35,14.31 14.11,14.23 13.90,14.09 13.68,13.96 12.29,12.73 10.90,11.51 9.81,10.59 8.72,9.68 7.28,8.69 5.84,7.70 5.40,6.61 4.97,5.51 3.62,4.54 2.28,3.56 0.63,2.79 -1.01,2.02 -1.24,1.87 -1.47,1.72 -1.65,1.52 -1.84,1.32 -1.97,1.08 -2.10,0.84 -2.17,0.58 -2.24,0.31 -2.25,0.04 -2.25,-0.22 -2.19,-0.49 -2.13,-0.76 -2.01,-1.00 -1.89,-1.25 -1.71,-1.46 -1.53,-1.66 -1.31,-1.82 -1.09,-1.98 -0.84,-2.09 -0.58,-2.19 -0.31,-2.23 -0.04,-2.26 0.22,-2.24 0.49,-2.21 0.75,-2.12 1.01,-2.02 1.01,-2.02 L 1.01,-2.02 Z"></path></g><g transform="translate(890 576.6862561008893) rotate(0 75.77756914340296 6.686256100888386)" stroke="none"><path fill="#868e96" d="M 1.12,-2.25 Q 1.12,-2.25 2.41,-1.61 3.69,-0.96 5.11,0.13 6.52,1.22 7.26,2.52 8.00,3.81 9.67,4.73 11.33,5.65 12.39,6.66 13.44,7.67 13.66,7.89 13.87,8.12 14.03,8.39 14.18,8.66 14.27,8.96 14.36,9.27 14.37,9.58 14.38,9.89 14.32,10.20 14.25,10.51 14.12,10.79 13.98,11.07 13.78,11.31 13.58,11.55 13.33,11.74 13.08,11.93 12.79,12.05 12.50,12.17 12.19,12.22 11.88,12.27 11.57,12.24 11.26,12.22 10.96,12.12 10.67,12.02 10.40,11.85 10.14,11.68 10.22,9.20 10.30,6.72 10.38,5.16 10.47,3.59 10.58,1.93 10.70,0.28 10.86,-1.38 11.01,-3.05 11.87,-4.23 12.73,-5.41 13.04,-6.41 13.35,-7.40 13.62,-7.59 13.89,-7.79 14.19,-7.91 14.50,-8.03 14.83,-8.07 15.16,-8.11 15.49,-8.08 15.82,-8.04 16.13,-7.93 16.44,-7.81 16.72,-7.63 16.99,-7.44 17.21,-7.20 17.43,-6.95 17.59,-6.66 17.75,-6.37 17.83,-6.05 17.91,-5.73 17.92,-5.40 17.92,-5.06 17.85,-4.74 17.77,-4.42 17.62,-4.12 17.47,-3.83 17.25,-3.58 17.03,-3.33 17.47,-4.66 17.90,-5.99 19.39,-3.71 20.89,-1.42 22.40,1.21 23.91,3.85 25.19,6.35 26.47,8.85 27.57,10.45 28.66,12.05 29.79,14.14 30.92,16.22 32.14,17.04 33.36,17.87 33.45,18.08 33.54,18.28 33.57,18.50 33.61,18.72 33.59,18.95 33.58,19.17 33.51,19.38 33.44,19.60 33.32,19.79 33.20,19.98 33.04,20.13 32.88,20.29 32.68,20.40 32.49,20.51 32.27,20.58 32.06,20.64 31.83,20.65 31.61,20.66 31.39,20.62 31.17,20.57 30.97,20.48 30.76,20.38 30.59,20.24 30.42,20.10 30.28,19.92 30.14,19.74 30.58,17.94 31.01,16.13 31.20,14.16 31.38,12.18 31.42,10.58 31.46,8.98 31.54,7.44 31.62,5.89 32.40,4.85 33.19,3.81 34.46,2.21 35.73,0.61 37.52,0.48 39.31,0.35 41.50,2.52 43.69,4.69 47.44,8.03 51.19,11.38 54.01,13.46 56.83,15.53 58.40,16.37 59.97,17.21 60.08,14.93 60.18,12.65 60.45,9.50 60.71,6.36 61.24,5.85 61.76,5.34 61.80,5.12 61.84,4.91 61.93,4.70 62.01,4.50 62.15,4.33 62.28,4.15 62.45,4.01 62.62,3.88 62.82,3.78 63.02,3.69 63.24,3.65 63.46,3.60 63.68,3.61 63.90,3.63 64.11,3.69 64.32,3.75 64.51,3.86 64.70,3.97 64.86,4.13 65.01,4.28 65.13,4.47 65.25,4.66 65.32,4.87 65.38,5.08 65.40,5.29 65.42,5.51 66.71,7.31 68.00,9.11 69.79,10.59 71.58,12.07 74.01,11.01 76.44,9.94 79.25,11.13 82.06,12.32 85.08,14.19 88.10,16.06 89.20,14.94 90.30,13.83 92.05,11.38 93.79,8.93 95.25,8.98 96.71,9.02 99.34,10.56 101.98,12.10 102.79,12.84 103.61,13.58 104.04,12.54 104.47,11.49 105.72,10.70 106.97,9.90 108.96,9.63 110.95,9.36 113.67,9.38 116.39,9.39 118.71,9.47 121.02,9.55 122.30,8.43 123.58,7.32 124.88,6.13 126.18,4.94 127.59,4.21 129.00,3.48 131.04,3.21 133.07,2.93 135.23,2.89 137.39,2.85 140.51,4.22 143.63,5.58 145.44,6.79 147.25,8.00 147.41,8.09 147.57,8.19 147.70,8.32 147.83,8.45 147.93,8.61 148.03,8.77 148.08,8.95 148.14,9.13 148.15,9.31 148.16,9.50 148.13,9.68 148.10,9.86 148.02,10.04 147.95,10.21 147.83,10.35 147.72,10.50 147.57,10.62 147.43,10.73 147.26,10.81 147.09,10.88 146.90,10.92 146.72,10.95 146.53,10.94 146.35,10.93 146.17,10.88 145.99,10.82 146.35,8.23 146.72,5.64 148.20,5.60 149.68,5.56 149.81,5.38 149.94,5.20 150.10,5.06 150.27,4.91 150.47,4.81 150.67,4.71 150.88,4.66 151.10,4.61 151.32,4.62 151.54,4.62 151.75,4.68 151.97,4.73 152.16,4.84 152.36,4.95 152.52,5.10 152.68,5.24 152.81,5.43 152.93,5.61 153.01,5.82 153.08,6.03 153.10,6.25 153.13,6.47 153.10,6.69 153.07,6.91 152.98,7.11 152.90,7.32 152.90,6.44 152.90,5.56 153.00,5.85 153.10,6.13 153.10,6.42 153.11,6.72 153.01,7.00 152.92,7.28 152.74,7.52 152.57,7.76 152.32,7.93 152.08,8.10 151.79,8.18 151.51,8.26 151.21,8.25 150.91,8.24 150.64,8.13 150.36,8.02 150.13,7.83 149.90,7.64 149.75,7.39 149.59,7.14 149.53,6.85 149.46,6.56 149.49,6.26 149.52,5.97 149.64,5.70 149.76,5.42 149.96,5.21 150.17,4.99 150.43,4.85 150.69,4.71 150.98,4.66 151.27,4.60 151.57,4.65 151.86,4.69 152.12,4.83 152.39,4.97 152.59,5.18 152.80,5.40 152.93,5.66 153.06,5.93 153.09,6.23 153.13,6.52 153.06,6.81 153.00,7.10 152.85,7.36 152.70,7.62 152.48,7.81 152.25,8.00 151.98,8.12 151.70,8.23 151.41,8.25 151.11,8.27 150.82,8.19 150.54,8.11 150.29,7.95 150.04,7.79 149.86,6.67 149.68,5.56 149.81,5.38 149.94,5.20 150.10,5.06 150.27,4.91 150.47,4.81 150.67,4.71 150.88,4.66 151.10,4.61 151.32,4.62 151.54,4.62 151.75,4.68 151.97,4.73 152.16,4.84 152.36,4.95 152.52,5.09 152.68,5.24 152.81,5.43 152.93,5.61 153.01,5.82 153.08,6.03 153.10,6.25 153.13,6.47 153.10,6.69 153.07,6.91 152.99,7.11 152.90,7.32 151.27,7.40 149.63,7.48 148.44,7.74 147.25,8.00 147.41,8.09 147.57,8.19 147.70,8.32 147.83,8.45 147.93,8.61 148.03,8.77 148.08,8.95 148.14,9.13 148.15,9.31 148.16,9.50 148.13,9.68 148.10,9.86 148.02,10.03 147.95,10.21 147.83,10.35 147.72,10.50 147.57,10.62 147.43,10.73 147.26,10.81 147.09,10.88 146.90,10.92 146.72,10.95 146.53,10.94 146.35,10.93 146.17,10.88 145.99,10.82 144.15,9.69 142.30,8.56 139.84,7.44 137.38,6.32 135.45,6.47 133.51,6.61 130.94,7.05 128.36,7.49 126.97,8.68 125.57,9.87 123.53,11.35 121.49,12.83 119.00,12.98 116.51,13.12 113.95,13.29 111.40,13.47 109.39,13.65 107.38,13.83 106.39,14.85 105.40,15.87 102.87,15.43 100.34,14.99 97.21,13.29 94.08,11.59 93.27,13.99 92.45,16.39 90.54,17.63 88.63,18.87 84.56,17.24 80.49,15.61 78.38,14.65 76.27,13.69 75.49,14.61 74.71,15.53 72.22,14.94 69.73,14.36 67.62,12.62 65.50,10.88 63.63,8.11 61.76,5.34 61.80,5.12 61.84,4.91 61.93,4.70 62.01,4.50 62.15,4.33 62.28,4.15 62.45,4.01 62.62,3.88 62.82,3.78 63.02,3.69 63.24,3.65 63.46,3.60 63.68,3.61 63.90,3.63 64.11,3.69 64.32,3.75 64.51,3.86 64.70,3.97 64.86,4.13 65.01,4.28 65.13,4.47 65.25,4.66 65.32,4.87 65.38,5.07 65.40,5.29 65.42,5.51 64.54,6.32 63.66,7.13 63.63,10.11 63.61,13.09 63.07,16.11 62.52,19.13 60.88,19.71 59.23,20.30 57.01,19.38 54.79,18.47 51.72,16.42 48.64,14.36 44.55,11.01 40.45,7.65 38.75,6.14 37.06,4.63 36.09,5.79 35.13,6.95 35.13,8.06 35.13,9.18 35.00,10.83 34.86,12.49 34.11,15.18 33.36,17.87 33.45,18.08 33.54,18.28 33.57,18.50 33.61,18.72 33.59,18.95 33.58,19.17 33.51,19.38 33.44,19.60 33.32,19.79 33.20,19.98 33.04,20.13 32.88,20.29 32.68,20.40 32.49,20.51 32.27,20.58 32.06,20.64 31.83,20.65 31.61,20.66 31.39,20.62 31.17,20.57 30.97,20.48 30.76,20.38 30.59,20.24 30.42,20.10 30.28,19.92 30.15,19.74 29.10,18.88 28.05,18.02 26.86,16.13 25.68,14.24 24.34,12.53 23.00,10.82 21.57,8.55 20.15,6.28 18.30,3.71 16.46,1.15 15.60,-0.15 14.75,-1.47 13.85,-2.58 12.95,-3.69 13.15,-5.55 13.35,-7.40 13.62,-7.59 13.89,-7.79 14.19,-7.91 14.50,-8.03 14.83,-8.07 15.16,-8.11 15.49,-8.08 15.82,-8.04 16.13,-7.93 16.44,-7.81 16.71,-7.63 16.99,-7.44 17.21,-7.20 17.43,-6.95 17.59,-6.66 17.75,-6.37 17.83,-6.05 17.91,-5.73 17.92,-5.40 17.92,-5.06 17.85,-4.74 17.77,-4.42 17.62,-4.12 17.47,-3.83 17.25,-3.58 17.03,-3.33 16.36,-2.55 15.68,-1.78 15.80,-0.69 15.93,0.38 15.98,2.20 16.02,4.02 15.90,5.24 15.78,6.46 15.44,7.82 15.10,9.18 14.27,8.42 13.44,7.67 13.66,7.89 13.87,8.12 14.03,8.39 14.18,8.66 14.27,8.96 14.36,9.27 14.37,9.58 14.38,9.89 14.32,10.20 14.25,10.51 14.12,10.79 13.98,11.07 13.78,11.31 13.58,11.55 13.33,11.74 13.08,11.93 12.79,12.05 12.50,12.17 12.19,12.22 11.88,12.27 11.57,12.24 11.26,12.22 10.96,12.12 10.67,12.02 10.40,11.85 10.14,11.68 8.29,10.02 6.44,8.37 4.89,6.68 3.34,4.98 2.38,4.25 1.43,3.52 0.15,2.89 -1.12,2.25 -1.38,2.09 -1.63,1.92 -1.84,1.69 -2.04,1.47 -2.19,1.20 -2.34,0.94 -2.42,0.64 -2.50,0.35 -2.50,0.04 -2.51,-0.25 -2.44,-0.55 -2.37,-0.84 -2.24,-1.12 -2.10,-1.39 -1.90,-1.62 -1.71,-1.85 -1.46,-2.03 -1.21,-2.21 -0.93,-2.32 -0.65,-2.43 -0.35,-2.48 -0.04,-2.52 0.25,-2.49 0.55,-2.46 0.84,-2.36 1.12,-2.25 1.12,-2.25 L 1.12,-2.25 Z"></path></g></svg>