<svg version="1.1" xmlns="http://www.w3.org/2000/svg" viewBox="0 0 1620 920" width="3240" height="1840">
  <!-- svg-source:excalidraw -->
  
  <defs>
    <style class="style-fonts">
      
    </style>
    
  </defs>
  <g stroke-linecap="round" transform="translate(10 10) rotate(0 800 450)"><path d="M32 0 C502.09 4.74, 974.1 3.88, 1568 0 M32 0 C569.6 4.38, 1106.92 4.3, 1568 0 M1568 0 C1587.65 -0.97, 1601.78 9.84, 1600 32 M1568 0 C1591.61 1.58, 1600.91 11.32, 1600 32 M1600 32 C1600.87 248.44, 1601.15 465.47, 1600 868 M1600 32 C1596.79 321.73, 1596.76 611.18, 1600 868 M1600 868 C1598.94 888.5, 1589.47 900.92, 1568 900 M1600 868 C1600.22 891.53, 1591.54 900.26, 1568 900 M1568 900 C1060.78 906.3, 555.19 905.7, 32 900 M1568 900 C1258.02 895.92, 947.35 896.39, 32 900 M32 900 C9.31 900.41, -1.78 891.02, 0 868 M32 900 C10.1 898.48, -1.46 888.39, 0 868 M0 868 C-1.88 622.91, -1.78 377.47, 0 32 M0 868 C2.33 679.34, 2.75 490.95, 0 32 M0 32 C1.29 10.48, 8.72 1.69, 32 0 M0 32 C-1.22 12.12, 10.68 0.64, 32 0" stroke="transparent" stroke-width="4" fill="none"></path></g><g stroke-linecap="round" transform="translate(110 300) rotate(0 700 90)"><path d="M32 0 C530.28 -3.52, 1029.88 -2.63, 1368 0 M32 0 C388.57 3.9, 745.03 3.66, 1368 0 M1368 0 C1387.78 -0.29, 1398.11 10.31, 1400 32 M1368 0 C1391.45 -0.49, 1399.09 8.63, 1400 32 M1400 32 C1397.56 66.83, 1399.59 102.51, 1400 148 M1400 32 C1398.75 57.58, 1398.66 80.95, 1400 148 M1400 148 C1399.57 167.69, 1388.37 180.26, 1368 180 M1400 148 C1400.67 171.56, 1391.35 177.99, 1368 180 M1368 180 C863.87 176.05, 361.58 174.81, 32 180 M1368 180 C840.62 180.25, 312.85 180.14, 32 180 M32 180 C11 181.71, 0.21 168.35, 0 148 M32 180 C12.89 177.9, -0.63 170.19, 0 148 M0 148 C0.01 115.42, -1.23 85.97, 0 32 M0 148 C-0.76 113.14, -0.03 75.66, 0 32 M0 32 C-0.74 9.29, 11.99 0.96, 32 0 M0 32 C1.8 10.33, 11.51 -0.36, 32 0" stroke="#1971c2" stroke-width="4" fill="none"></path></g><g stroke-linecap="round" transform="translate(350 520) rotate(0 200 50)"><path d="M6 6.54 C6 6.54, 6 6.54, 6 6.54 M6 6.54 C6 6.54, 6 6.54, 6 6.54 M0.36 37.41 C13.42 24.05, 22.47 12.95, 32.51 0.43 M0.36 37.41 C13 24.22, 24.16 11, 32.51 0.43 M0.63 61.5 C21.31 39.35, 39.88 16.7, 53.77 0.36 M0.63 61.5 C12.89 48.72, 23.95 35.4, 53.77 0.36 M1.55 84.82 C19.69 62.88, 43.41 36.8, 74.37 1.05 M1.55 84.82 C19.16 64.37, 35.95 45.68, 74.37 1.05 M11.66 97.58 C42.25 61.35, 72.85 26.65, 95.63 0.98 M11.66 97.58 C39.46 65.2, 68.3 31.68, 95.63 0.98 M30.95 99.78 C58.73 65.69, 85.43 35.6, 116.89 0.91 M30.95 99.78 C53.11 75.73, 75.11 52.03, 116.89 0.91 M52.21 99.71 C77.01 70.61, 107.1 39.43, 138.15 0.84 M52.21 99.71 C83.94 63.67, 115.39 25.08, 138.15 0.84 M73.47 99.64 C101.11 67.7, 131.47 32.39, 159.41 0.77 M73.47 99.64 C105.09 63.19, 136.66 27.18, 159.41 0.77 M94.73 99.57 C122.78 64.91, 151.7 33.51, 180.67 0.7 M94.73 99.57 C115.94 75.34, 135.89 49.99, 180.67 0.7 M115.99 99.5 C142.89 69.76, 167.39 41.96, 201.93 0.64 M115.99 99.5 C143.17 69.37, 169.67 38.06, 201.93 0.64 M137.25 99.43 C170.28 59.38, 203.63 21.99, 223.19 0.57 M137.25 99.43 C161.25 70.25, 187.13 42.64, 223.19 0.57 M157.85 100.12 C185.19 69.92, 210.58 40.21, 244.45 0.5 M157.85 100.12 C178.3 75.42, 198.43 50.38, 244.45 0.5 M179.11 100.05 C211.74 65.87, 241.12 32.09, 265.06 1.18 M179.11 100.05 C207.96 68.28, 235.71 34.7, 265.06 1.18 M200.37 99.98 C233.45 59.83, 266.01 23.07, 286.32 1.11 M200.37 99.98 C225.1 71.14, 250.61 41.5, 286.32 1.11 M221.63 99.91 C251.13 69.16, 276.31 34.86, 307.58 1.05 M221.63 99.91 C240.77 77.44, 259.45 57.29, 307.58 1.05 M242.89 99.84 C267.84 67.66, 294.15 37.01, 328.84 0.98 M242.89 99.84 C263.7 77.42, 282.91 54.74, 328.84 0.98 M264.15 99.77 C295.29 66.83, 320.66 30.74, 350.1 0.91 M264.15 99.77 C288.03 72.86, 311.46 44.58, 350.1 0.91 M285.41 99.71 C313.14 68.82, 338.95 38.82, 371.36 0.84 M285.41 99.71 C318.21 62.23, 351.27 24.2, 371.36 0.84 M306.67 99.64 C326.54 76.84, 344.31 55.66, 389.99 3.79 M306.67 99.64 C329.11 74.85, 348.27 51.32, 389.99 3.79 M327.28 100.32 C343.19 84.26, 356.98 65.26, 399.44 17.3 M327.28 100.32 C350.08 72.91, 372.83 45.77, 399.44 17.3 M348.54 100.25 C367.3 79.51, 387.39 56.83, 400.37 40.63 M348.54 100.25 C367.91 77.66, 388.31 55.88, 400.37 40.63 M369.8 100.18 C379.34 89.9, 389.92 77.22, 399.98 65.47 M369.8 100.18 C381.78 87.97, 393.39 73.72, 399.98 65.47 M6.08 93.6 C6.08 93.6, 6.08 93.6, 6.08 93.6 M6.08 93.6 C6.08 93.6, 6.08 93.6, 6.08 93.6 M27.14 90.71 C17.51 83.4, 8.87 76.67, 3.75 70.38 M27.14 90.71 C21.18 85.95, 15.18 79.97, 3.75 70.38 M51.23 90.45 C34.67 77.45, 18.55 64.81, 3.68 49.12 M51.23 90.45 C36.4 78.1, 22.84 65.22, 3.68 49.12 M76.06 90.84 C59.88 76.11, 45.46 65.13, -0.16 24.58 M76.06 90.84 C46.01 67.01, 18.67 41.43, -0.16 24.58 M100.14 90.57 C65.08 60.06, 29.51 27.33, 5.81 8.56 M100.14 90.57 C63.33 59.44, 24.33 27.44, 5.81 8.56 M124.98 90.96 C86.33 58.6, 48.47 25.32, 17.81 -2.2 M124.98 90.96 C88.53 58.76, 52.47 27.5, 17.81 -2.2 M149.06 90.69 C110.14 56.16, 69.54 21.86, 33.59 -9.68 M149.06 90.69 C108.19 54.78, 69.15 19.43, 33.59 -9.68 M173.14 90.43 C135.38 57.18, 92.71 19.99, 57.67 -9.95 M173.14 90.43 C135.87 59.42, 101.09 28.55, 57.67 -9.95 M197.98 90.82 C160.13 56.86, 122.81 22.7, 82.51 -9.56 M197.98 90.82 C159.31 59.08, 122.26 26.88, 82.51 -9.56 M222.06 90.55 C187.09 62.95, 154 32.66, 106.59 -9.83 M222.06 90.55 C192.19 66.74, 165.83 42.13, 106.59 -9.83 M246.9 90.94 C214.67 63.88, 182.87 35.91, 131.43 -9.44 M246.9 90.94 C223.16 71.7, 198.86 50.62, 131.43 -9.44 M270.98 90.67 C245.23 69.6, 220.38 46.99, 155.51 -9.7 M270.98 90.67 C231.11 57.18, 190.95 22.75, 155.51 -9.7 M295.82 91.06 C259.71 58.77, 225.19 26.16, 180.35 -9.31 M295.82 91.06 C261.23 61.26, 226.22 29.98, 180.35 -9.31 M319.9 90.8 C283.14 57.57, 242.15 22.68, 204.43 -9.58 M319.9 90.8 C274.59 49.93, 228.63 9.3, 204.43 -9.58 M344.74 91.19 C298.76 52.75, 252.67 13.47, 228.51 -9.84 M344.74 91.19 C312.41 63.43, 282.39 37.61, 228.51 -9.84 M377.12 98.14 C331.1 58.53, 281.97 17, 253.35 -9.46 M377.12 98.14 C343.64 69.88, 310.93 41.67, 253.35 -9.46 M395.16 92.62 C367.95 70.08, 343.17 47.43, 277.43 -9.72 M395.16 92.62 C354.7 57.66, 314.09 23.86, 277.43 -9.72 M402.64 77.92 C375.85 52.94, 349.33 29.22, 302.26 -9.33 M402.64 77.92 C364.96 44.73, 327.34 12.08, 302.26 -9.33 M402.57 56.66 C374.99 33.2, 343.72 6.26, 326.35 -9.6 M402.57 56.66 C378.71 36.29, 355.21 14.52, 326.35 -9.6 M402.5 35.4 C390.07 25.72, 378.26 14.82, 351.18 -9.21 M402.5 35.4 C389.23 23.92, 377.82 12.56, 351.18 -9.21 M400.17 12.18 C392.52 5.74, 387.39 3.94, 383.57 -2.26 M400.17 12.18 C392.86 7.2, 387.85 0.6, 383.57 -2.26" stroke="#2f9e44" stroke-width="2" fill="none"></path><path d="M25 0 C121.56 1.47, 216.45 -0.03, 375 0 M25 0 C127.26 0.43, 228.84 0.36, 375 0 M375 0 C392.38 -1.96, 399.26 6.96, 400 25 M375 0 C393.19 1.11, 401.8 8, 400 25 M400 25 C398.85 41.06, 401.67 58.81, 400 75 M400 25 C400.53 44.16, 400.6 63.18, 400 75 M400 75 C399.42 93.58, 391.99 98.3, 375 100 M400 75 C400.55 93.42, 392.2 100.46, 375 100 M375 100 C263.07 100.89, 152.29 102.98, 25 100 M375 100 C252.23 102.17, 129.64 101.94, 25 100 M25 100 C9.21 100.84, 1.32 90.57, 0 75 M25 100 C8.88 101.38, 1.51 93.08, 0 75 M0 75 C1.14 54.87, -0.08 35.56, 0 25 M0 75 C0.05 64.16, -0.01 53.52, 0 25 M0 25 C-0.23 6.85, 8.45 -1.68, 25 0 M0 25 C1.34 6.29, 6.88 1.13, 25 0" stroke="#2f9e44" stroke-width="4" fill="none"></path></g><g stroke-linecap="round" transform="translate(830 520) rotate(0 200 50)"><path d="M6 6.54 C6 6.54, 6 6.54, 6 6.54 M6 6.54 C6 6.54, 6 6.54, 6 6.54 M0.36 37.41 C9.46 26.25, 21.33 16.08, 32.51 0.43 M0.36 37.41 C9.95 25.85, 20.27 14.82, 32.51 0.43 M0.63 61.5 C22.11 37.89, 41.35 17.11, 53.77 0.36 M0.63 61.5 C13.83 44.34, 29.18 27.33, 53.77 0.36 M1.55 84.82 C17.02 68.38, 34.02 50.31, 74.37 1.05 M1.55 84.82 C21.75 64.12, 40.72 41.8, 74.37 1.05 M11.66 97.58 C44 60.44, 71.98 27.89, 95.63 0.98 M11.66 97.58 C44.28 61.66, 75.08 25.47, 95.63 0.98 M30.95 99.78 C51.09 75.64, 72.13 53.91, 116.89 0.91 M30.95 99.78 C55.61 69.93, 82.4 39.26, 116.89 0.91 M52.21 99.71 C82.61 63, 110.9 29.88, 138.15 0.84 M52.21 99.71 C78.67 68.83, 105.91 37.6, 138.15 0.84 M73.47 99.64 C102.35 68.39, 128.78 36.21, 159.41 0.77 M73.47 99.64 C99.87 68.29, 127.59 36.82, 159.41 0.77 M94.73 99.57 C124.65 66.34, 157.04 29.47, 180.67 0.7 M94.73 99.57 C119 71.61, 143.27 44.31, 180.67 0.7 M115.99 99.5 C147.79 60.43, 178.66 25.87, 201.93 0.64 M115.99 99.5 C137.83 74.66, 159.68 50.21, 201.93 0.64 M137.25 99.43 C168.2 65, 195.89 34.04, 223.19 0.57 M137.25 99.43 C169.17 61.46, 202.68 24.11, 223.19 0.57 M157.85 100.12 C190.54 64, 221.4 26.63, 244.45 0.5 M157.85 100.12 C192.64 60.05, 225.37 21.22, 244.45 0.5 M179.11 100.05 C200.51 73.55, 226.41 46.48, 265.06 1.18 M179.11 100.05 C205.91 67.44, 234 34.85, 265.06 1.18 M200.37 99.98 C223.46 73.58, 246.14 49.16, 286.32 1.11 M200.37 99.98 C224.59 70.2, 247.67 42.95, 286.32 1.11 M221.63 99.91 C244.85 73.33, 265.2 49.24, 307.58 1.05 M221.63 99.91 C249.5 66.9, 278.23 34.57, 307.58 1.05 M242.89 99.84 C266.44 73.28, 288.99 46.08, 328.84 0.98 M242.89 99.84 C262.56 76.38, 282.78 53.54, 328.84 0.98 M264.15 99.77 C281.91 75.24, 302.07 52.82, 350.1 0.91 M264.15 99.77 C299.69 59.65, 333.32 20.91, 350.1 0.91 M285.41 99.71 C318.57 59.84, 351.82 23.14, 371.36 0.84 M285.41 99.71 C318.91 62.74, 351.13 25.31, 371.36 0.84 M306.67 99.64 C324.54 79.75, 344.07 58.69, 389.99 3.79 M306.67 99.64 C327.19 77.11, 346.37 54.82, 389.99 3.79 M327.28 100.32 C352.03 75.29, 372.48 49.34, 399.44 17.3 M327.28 100.32 C345.05 82.63, 360.06 62.75, 399.44 17.3 M348.54 100.25 C365.38 82.11, 378.72 63.42, 400.37 40.63 M348.54 100.25 C367.22 77.82, 386.32 56.22, 400.37 40.63 M369.8 100.18 C378.33 91.72, 386.78 81.34, 399.98 65.47 M369.8 100.18 C379.37 88.61, 389.04 77.67, 399.98 65.47 M6.08 93.6 C6.08 93.6, 6.08 93.6, 6.08 93.6 M6.08 93.6 C6.08 93.6, 6.08 93.6, 6.08 93.6 M36.2 98.59 C23.96 87.56, 8.73 75.64, 0.73 67.75 M36.2 98.59 C26.51 90.59, 15.49 81.69, 0.73 67.75 M61.04 98.98 C40.51 79.88, 20.56 64.31, 0.66 46.49 M61.04 98.98 C46.64 85.03, 31.63 73.19, 0.66 46.49 M85.12 98.71 C57.47 74.02, 29.02 49.65, -0.16 24.58 M85.12 98.71 C56.79 74.85, 28.2 49.66, -0.16 24.58 M109.96 99.1 C81.57 74.71, 53.44 51.19, 5.05 7.91 M109.96 99.1 C77.74 70.04, 42.41 41.32, 5.05 7.91 M134.04 98.83 C97.23 66.41, 60.69 33.02, 20.83 0.42 M134.04 98.83 C100.6 69.6, 66.2 40.35, 20.83 0.42 M158.87 99.22 C115.78 59.81, 73.55 24.33, 44.16 -0.5 M158.87 99.22 C116.65 60.06, 72.06 21.84, 44.16 -0.5 M182.96 98.96 C140.66 62.43, 97.83 23.34, 68.24 -0.76 M182.96 98.96 C151.09 70.32, 118.08 40.5, 68.24 -0.76 M207.79 99.35 C163.15 59.88, 115.99 18.85, 93.08 -0.37 M207.79 99.35 C164.25 59.42, 118.72 21.62, 93.08 -0.37 M231.87 99.08 C192.46 63.91, 152.62 30.4, 117.16 -0.64 M231.87 99.08 C197.52 70.07, 162.54 39.36, 117.16 -0.64 M255.96 98.81 C228.35 75.95, 200.65 53.54, 141.24 -0.91 M255.96 98.81 C218.33 65.95, 178.93 33.75, 141.24 -0.91 M280.79 99.2 C241.12 66.6, 198.89 31.7, 166.08 -0.52 M280.79 99.2 C247.8 68.4, 213.64 38.95, 166.08 -0.52 M304.87 98.94 C258.86 58.34, 215.05 20.7, 190.16 -0.78 M304.87 98.94 C265.42 65.44, 226.45 32.24, 190.16 -0.78 M329.71 99.33 C285.2 61.11, 241.28 20.88, 214.99 -0.39 M329.71 99.33 C293.39 67.1, 256.53 35.08, 214.99 -0.39 M353.79 99.06 C307.91 59.82, 265.72 22.65, 239.08 -0.66 M353.79 99.06 C315.49 67.97, 278.25 35.51, 239.08 -0.66 M377.87 98.79 C350.62 75.43, 323.78 51.9, 263.91 -0.27 M377.87 98.79 C333.79 61.18, 289.26 24.19, 263.91 -0.27 M394.41 91.97 C361.78 62.42, 325.18 31.32, 287.99 -0.54 M394.41 91.97 C355.41 59.02, 316.58 24.17, 287.99 -0.54 M399.62 75.3 C380.53 58.94, 360.62 41.9, 312.83 -0.15 M399.62 75.3 C366.81 46.93, 337.1 20.89, 312.83 -0.15 M399.55 54.04 C382.25 38.04, 361.17 20.8, 336.91 -0.41 M399.55 54.04 C378.59 36.08, 357.55 17.81, 336.91 -0.41 M400.24 33.44 C390.46 27.02, 382.57 19.1, 361.75 -0.02 M400.24 33.44 C387.37 21.61, 375.94 11.67, 361.75 -0.02 M395.64 8.24 C394.47 6.97, 392.54 4.5, 388.85 2.33 M395.64 8.24 C393.5 6.64, 392.23 4.91, 388.85 2.33" stroke="#868e96" stroke-width="2" fill="none"></path><path d="M25 0 C118.79 -0.06, 215.78 -0.07, 375 0 M25 0 C137.46 -2.24, 248.52 -2.14, 375 0 M375 0 C393.6 1.02, 400.33 10.05, 400 25 M375 0 C391.91 0.8, 401.08 8.31, 400 25 M400 25 C399.12 42.65, 401.41 60.67, 400 75 M400 25 C401.28 43.63, 399.83 61.08, 400 75 M400 75 C398.53 89.99, 392.57 98.11, 375 100 M400 75 C400.64 91.56, 392.16 100.25, 375 100 M375 100 C272.85 100.89, 171.73 99.31, 25 100 M375 100 C253.15 100.4, 130.46 100.19, 25 100 M25 100 C8.18 100.59, 1.57 90.41, 0 75 M25 100 C10.61 98.86, 0.03 90.51, 0 75 M0 75 C-1.46 65.96, -0.98 53.1, 0 25 M0 75 C-1.21 58.56, -0.48 40.74, 0 25 M0 25 C-0.19 9.82, 8.39 0.79, 25 0 M0 25 C0.92 9.43, 7.73 1.37, 25 0" stroke="#343a40" stroke-width="4" fill="none"></path></g><g stroke-linecap="round"><g transform="translate(170 340) rotate(0 0 50)"><path d="M0.54 0.82 C0.54 17.35, -0.14 82.98, -0.05 99.37 M-0.63 0.21 C-0.79 16.86, -1.28 83.93, -1.02 100.58" stroke="#ced4da" stroke-width="4" fill="none"></path></g></g><mask></mask></svg>