<svg version="1.1" xmlns="http://www.w3.org/2000/svg" viewBox="0 0 1051.1111111111113 600" width="2102.2222222222226" height="1200">
  <!-- svg-source:excalidraw -->
  
  <defs>
    <style class="style-fonts">
      @font-face {
        font-family: "Virgil";
        src: url("https://excalidraw.com/Virgil.woff2");
      }
      @font-face {
        font-family: "Cascadia";
        src: url("https://excalidraw.com/Cascadia.woff2");
      }
      @font-face {
        font-family: "Assistant";
        src: url("https://excalidraw.com/Assistant-Regular.woff2");
      }
    </style>
    
  </defs>
  <g stroke-linecap="round" transform="translate(10 10) rotate(0 515.5555555555557 290)"><path d="M32 0 C267.33 2.47, 504.84 1.9, 999.11 0 C1021.48 -3.07, 1029.34 11.1, 1031.11 32 C1027.84 152.6, 1028.95 273.14, 1031.11 548 C1027.9 569.15, 1023.59 581.54, 999.11 580 C739.23 575.31, 482.41 576.56, 32 580 C9.75 579.44, -2.05 568.64, 0 548 C-1.02 422.61, -3.48 299.06, 0 32 C2.11 7.99, 11.96 3.08, 32 0" stroke="none" stroke-width="0" fill="#ffffff"></path><path d="M32 0 C399.42 3.19, 767.52 2.5, 999.11 0 M32 0 C373.34 -0.18, 713.83 0.24, 999.11 0 M999.11 0 C1021.91 -0.79, 1029.43 10.93, 1031.11 32 M999.11 0 C1019.07 -0.18, 1033.39 11.56, 1031.11 32 M1031.11 32 C1029.58 179.1, 1029.81 325.15, 1031.11 548 M1031.11 32 C1030.94 200.78, 1031.45 369.52, 1031.11 548 M1031.11 548 C1029.37 568.76, 1021.88 581.41, 999.11 580 M1031.11 548 C1032.12 567.26, 1020.45 580.8, 999.11 580 M999.11 580 C679.65 584.64, 359.17 583.8, 32 580 M999.11 580 C712.36 579.29, 425.72 579.33, 32 580 M32 580 C9.03 579.98, -0.84 568.44, 0 548 M32 580 C9.8 580.48, -1.26 568.57, 0 548 M0 548 C0.08 380.7, -1.02 212.07, 0 32 M0 548 C1.51 400.24, 1.19 252.55, 0 32 M0 32 C0.68 9.1, 11.96 -0.82, 32 0 M0 32 C-1.44 10.01, 11.55 1.79, 32 0" stroke="#1971c2" stroke-width="4" fill="none"></path></g><g stroke-opacity="0.3" fill-opacity="0.3" stroke-linecap="round" transform="translate(742.5332961005461 110.89594441195163) rotate(0 88.86776800506254 88.86776800506254)"><path d="M63.36 4.03 C73.2 -0.4, 83.66 0.73, 95.09 1.98 C106.52 3.23, 121.78 6.84, 131.94 11.54 C142.1 16.24, 148.85 21.92, 156.05 30.18 C163.26 38.45, 171.46 50.2, 175.18 61.14 C178.9 72.07, 179.34 84.26, 178.38 95.8 C177.42 107.35, 174.83 120.25, 169.44 130.41 C164.06 140.57, 154.86 149.34, 146.07 156.75 C137.27 164.16, 127.85 171.72, 116.66 174.88 C105.48 178.03, 90.35 176.63, 78.95 175.68 C67.55 174.74, 58.11 174.05, 48.27 169.21 C38.42 164.38, 27.05 155.52, 19.88 146.7 C12.71 137.87, 8.82 127.31, 5.25 116.24 C1.68 105.18, -2.15 91.86, -1.53 80.29 C-0.92 68.72, 3.29 56.46, 8.94 46.83 C14.59 37.21, 20.49 30.27, 32.36 22.55 C44.24 14.83, 69.52 4.21, 80.21 0.54 C90.89 -3.14, 96.48 -0.9, 96.46 0.49 M89 -0.01 C100.04 -0.85, 111.54 3.92, 122.16 8.38 C132.77 12.84, 145.08 19.42, 152.67 26.75 C160.26 34.08, 163.59 42.08, 167.68 52.36 C171.77 62.65, 176.9 76.77, 177.22 88.45 C177.54 100.13, 173.55 112.29, 169.59 122.46 C165.63 132.62, 160.96 141.77, 153.45 149.43 C145.94 157.09, 135.25 164.04, 124.55 168.42 C113.84 172.79, 100.87 174.95, 89.22 175.7 C77.56 176.44, 64.84 176.55, 54.62 172.87 C44.39 169.19, 35.94 161.9, 27.85 153.61 C19.77 145.31, 10.77 133.66, 6.1 123.1 C1.42 112.54, -0.05 101.33, -0.2 90.23 C-0.36 79.13, 0.48 67.23, 5.16 56.49 C9.84 45.74, 19.37 34.32, 27.85 25.78 C36.34 17.24, 46.57 10.02, 56.07 5.26 C65.57 0.5, 79.94 -2.21, 84.88 -2.78 C89.81 -3.35, 84.78 -0.21, 85.67 1.84" stroke="#086789" stroke-width="4" fill="none"></path></g><g stroke-opacity="0.3" fill-opacity="0.3" stroke-linecap="round" transform="translate(753.409187349479 121.00952352033505) rotate(0 77.84801895750297 77.84801895750286)"><path d="M60.25 2.32 C70.07 -0.89, 83.56 0.4, 94.13 2.31 C104.71 4.21, 115.31 7.91, 123.71 13.75 C132.1 19.6, 139.36 28.08, 144.48 37.37 C149.6 46.65, 152.98 58.92, 154.42 69.46 C155.86 80, 156.25 90.6, 153.13 100.63 C150 110.66, 142.69 121.69, 135.69 129.65 C128.69 137.61, 120.51 144.05, 111.13 148.38 C101.75 152.71, 90.06 155.42, 79.43 155.62 C68.79 155.83, 57.08 153.67, 47.31 149.61 C37.55 145.55, 27.89 139.21, 20.83 131.24 C13.77 123.28, 8.37 111.79, 4.93 101.83 C1.49 91.87, -0.8 81.74, 0.2 71.49 C1.19 61.24, 5.87 49.84, 10.91 40.33 C15.96 30.82, 20.57 20.93, 30.46 14.41 C40.35 7.9, 61.78 3.32, 70.24 1.25 C78.7 -0.83, 80.99 0.77, 81.23 1.97 M47.18 8.31 C56.01 3.02, 68.63 -0.88, 78.76 -1.19 C88.89 -1.51, 98.76 1.78, 107.96 6.42 C117.15 11.06, 126.82 18.97, 133.94 26.64 C141.06 34.31, 147.15 42.78, 150.69 52.44 C154.23 62.1, 156.16 73.86, 155.2 84.6 C154.25 95.34, 149.91 107.52, 144.96 116.87 C140.01 126.23, 133.81 134.45, 125.48 140.73 C117.15 147.02, 105.37 152.49, 94.98 154.58 C84.6 156.68, 73.62 155.75, 63.18 153.3 C52.75 150.85, 41.25 145.89, 32.38 139.9 C23.5 133.91, 15.11 126.09, 9.93 117.36 C4.76 108.63, 2.15 98.05, 1.33 87.53 C0.51 77, 1.74 64.21, 5.01 54.2 C8.28 44.2, 14.07 35.59, 20.96 27.51 C27.84 19.43, 41.84 8.79, 46.3 5.72 C50.77 2.65, 47.21 7.91, 47.76 9.1" stroke="none" stroke-width="0" fill="#086789"></path><path d="M98.5 3.84 C108.53 5.59, 120.72 12.44, 128.86 18.95 C137 25.46, 142.74 33.64, 147.33 42.91 C151.92 52.18, 155.87 63.98, 156.4 74.59 C156.93 85.19, 154.44 96.65, 150.51 106.56 C146.57 116.47, 140.47 126.67, 132.81 134.05 C125.15 141.43, 114.51 147.18, 104.54 150.86 C94.57 154.53, 83.71 156.96, 73 156.1 C62.28 155.24, 49.64 150.64, 40.27 145.71 C30.9 140.78, 23.17 134.65, 16.78 126.54 C10.38 118.43, 4.41 107.37, 1.91 97.06 C-0.59 86.75, 0.04 75.22, 1.79 64.7 C3.54 54.18, 6.69 42.84, 12.4 33.96 C18.1 25.07, 26.89 16.77, 36.04 11.39 C45.19 6.01, 56.19 2.97, 67.3 1.69 C78.41 0.42, 96.49 3.15, 102.7 3.76 C108.91 4.37, 105.06 4.16, 104.57 5.36 M78.01 -0.01 C88.18 -0.92, 99.54 3.19, 109.25 7.55 C118.96 11.92, 129.43 18.65, 136.28 26.16 C143.13 33.67, 147.2 42.66, 150.33 52.61 C153.47 62.57, 156.04 75.2, 155.09 85.88 C154.14 96.56, 149.73 107.7, 144.62 116.69 C139.52 125.69, 132.78 133.82, 124.48 139.85 C116.18 145.88, 105.28 150.67, 94.82 152.88 C84.36 155.09, 72.23 154.96, 61.72 153.12 C51.22 151.29, 40.23 147.78, 31.8 141.89 C23.36 135.99, 16.45 127.07, 11.13 117.77 C5.8 108.46, 1.13 96.63, -0.14 86.06 C-1.42 75.49, 0.3 64.29, 3.49 54.34 C6.69 44.39, 11.77 34.36, 19.03 26.35 C26.28 18.35, 37.11 10.89, 47.02 6.33 C56.93 1.76, 73.66 -0.03, 78.49 -1.06 C83.31 -2.09, 76.31 -1.32, 75.96 0.16" stroke="#086789" stroke-width="2" fill="none"></path></g><g stroke-linecap="round"><g stroke-opacity="0.3" fill-opacity="0.3" transform="translate(760.4698813629666 167.70808484704276) rotate(0 68.96012580392107 37.476023998300434)" fill-rule="evenodd"><path d="M-1.77 -1.78 L6.02 -11.41 L32.14 -13.15 L36.26 -6.04 L23.16 -6.73 L51.6 76.12 L67.41 26.85 L57.77 -6.06 L46.61 -6.38 L45.84 -14.39 L92.83 -12.68 L91.38 -8.52 L81.72 -6.66 L108.73 74.67 L123.84 23.02 L121.2 12.13 L116.32 4.34 L111.46 -5.46 L106.97 -14.05 L107.74 -21.19 L113.58 -26.31 L121.82 -29.3 L125.39 -22.1 L131.67 -12.48 L136.51 -6.44 L137.25 -1.75 L137.71 9.09 L108.55 93.68 L93.24 102.34 L70.12 35.85 L50.29 101.27 L36.53 98.36 L-2.11 -0.3" stroke="none" stroke-width="0" fill="#fff" fill-rule="evenodd"></path><path d="M0 0 C2.59 -3.36, 2.46 -5.52, 6.6 -12.27 M0 0 C1.91 -4.27, 4.69 -9.26, 6.6 -12.27 M6.6 -12.27 C13.44 -12.93, 21.1 -11.7, 33.13 -13.44 M6.6 -12.27 C12.76 -12.97, 17.72 -12.22, 33.13 -13.44 M33.13 -13.44 C33.54 -11.57, 34.96 -8.52, 35.66 -7.2 M33.13 -13.44 C33.85 -10.97, 34.98 -8.67, 35.66 -7.2 M35.66 -7.2 C32.57 -6.48, 30.36 -5.59, 24.11 -5.83 M35.66 -7.2 C31.38 -6.52, 26.93 -6.05, 24.11 -5.83 M24.11 -5.83 C31.21 19.66, 39.84 45.69, 51.2 76.23 M24.11 -5.83 C33.18 21.87, 42.84 50.39, 51.2 76.23 M51.2 76.23 C54.61 64.58, 58.48 47.92, 67.57 26.4 M51.2 76.23 C55.78 66.13, 57.8 54.78, 67.57 26.4 M67.57 26.4 C66.14 18.32, 62.47 5.83, 56.17 -5.95 M67.57 26.4 C65.41 18.82, 61.37 8.8, 56.17 -5.95 M56.17 -5.95 C53.5 -6.4, 49.63 -6.34, 45.71 -7 M56.17 -5.95 C52.28 -6.29, 49.79 -6.09, 45.71 -7 M45.71 -7 C45.34 -8.87, 45.98 -11.8, 45.89 -13.79 M45.71 -7 C45.8 -9.23, 46.12 -10.83, 45.89 -13.79 M45.89 -13.79 C63.52 -15.07, 83.12 -14.26, 91.03 -13.05 M45.89 -13.79 C56.41 -12.99, 68.65 -13.03, 91.03 -13.05 M91.03 -13.05 C91.38 -11.01, 91.86 -9.18, 93.07 -6.68 M91.03 -13.05 C92 -11.1, 92.62 -8.81, 93.07 -6.68 M93.07 -6.68 C89.76 -5.68, 84.38 -6.51, 81.61 -5.57 M93.07 -6.68 C90.12 -6.43, 86.35 -6.55, 81.61 -5.57 M81.61 -5.57 C90.02 26.24, 99.72 56.72, 108.22 75.29 M81.61 -5.57 C90.42 17.39, 98.11 40.25, 108.22 75.29 M108.22 75.29 C112.47 59.35, 117.82 45.77, 122.39 23.08 M108.22 75.29 C111.89 58.51, 116.47 42.39, 122.39 23.08 M122.39 23.08 C121.76 20.46, 122.24 19.03, 119.77 12.41 M122.39 23.08 C121.68 19.74, 120.8 16.13, 119.77 12.41 M119.77 12.41 C117.89 8.3, 116.68 5.37, 114.86 2.73 M119.77 12.41 C119.11 10.31, 117.87 8.91, 114.86 2.73 M114.86 2.73 C113.35 -0.52, 111.39 -3.13, 110.47 -4.79 M114.86 2.73 C113.33 0.34, 112.27 -1.27, 110.47 -4.79 M110.47 -4.79 C108.65 -7.65, 108.78 -8.87, 107.13 -12.59 M110.47 -4.79 C109.45 -7.96, 107.99 -10.89, 107.13 -12.59 M107.13 -12.59 C107.17 -14.74, 108.1 -18.86, 109.6 -21.02 M107.13 -12.59 C108.09 -14.64, 108.53 -17.27, 109.6 -21.02 M109.6 -21.02 C111.19 -23.44, 112.8 -23.8, 115.3 -26.13 M109.6 -21.02 C110.94 -22.34, 112.53 -24.03, 115.3 -26.13 M115.3 -26.13 C116.65 -26.7, 118.19 -27.24, 120.98 -27.56 M115.3 -26.13 C116.76 -26.76, 118.27 -26.82, 120.98 -27.56 M120.98 -27.56 C123.03 -25.18, 124.04 -24.62, 126.85 -21.13 M120.98 -27.56 C122.03 -25.8, 123.44 -24.69, 126.85 -21.13 M126.85 -21.13 C127.62 -18.06, 130.78 -15.99, 131.56 -13.7 M126.85 -21.13 C128.74 -18.55, 129.73 -15.83, 131.56 -13.7 M131.56 -13.7 C133.12 -12.09, 135.29 -9.16, 136.14 -6.63 M131.56 -13.7 C132.4 -12.19, 133.74 -10.36, 136.14 -6.63 M136.14 -6.63 C136.16 -4.86, 137.11 -2.88, 137.26 -0.44 M136.14 -6.63 C136.48 -4.99, 137.03 -2.6, 137.26 -0.44 M137.26 -0.44 C137.23 2.34, 137.52 6.35, 138.12 9.28 M137.26 -0.44 C137.29 3.37, 137.57 6.57, 138.12 9.28 M138.12 9.28 C131.13 32.12, 124.53 54.32, 109 95.52 M138.12 9.28 C127.86 43.6, 114.78 77.1, 109 95.52 M109 95.52 C102.79 98.09, 98.37 100.36, 95.21 101.48 M109 95.52 C102.89 98.11, 97.27 99.56, 95.21 101.48 M95.21 101.48 C89.38 82.18, 81.93 64.05, 71.23 37.25 M95.21 101.48 C85.12 76.76, 77.17 51.34, 71.23 37.25 M71.23 37.25 C62.66 57.64, 57.69 81.63, 48.72 102.52 M71.23 37.25 C63.12 59.46, 57.33 79.48, 48.72 102.52 M48.72 102.52 C43.62 100.1, 39.84 98.67, 35.41 97.94 M48.72 102.52 C44.1 101.08, 39.74 99.01, 35.41 97.94 M35.41 97.94 C24.24 61.05, 8.92 26.09, -0.2 0.28 M35.41 97.94 C26.16 73.94, 17.38 48.49, -0.2 0.28 M-0.2 0.28 C-0.1 0.19, -0.03 0.03, 0 0 M-0.2 0.28 C-0.13 0.17, -0.04 0.09, 0 0" stroke="#086789" stroke-width="1" fill="none"></path></g></g><mask></mask><g stroke-opacity="0.3" fill-opacity="0.3" stroke-linecap="round" transform="translate(741.023653440629 110) rotate(0 90 90.00000000000011)"><path d="M154.35 26.43 C162.8 32.96, 171.13 45.83, 175.57 56.67 C180 67.51, 181.23 79.74, 180.97 91.48 C180.71 103.21, 178.82 116.46, 174.01 127.06 C169.19 137.65, 160.52 147.02, 152.09 155.05 C143.65 163.08, 134.49 171.39, 123.4 175.26 C112.31 179.13, 97.13 178.52, 85.54 178.27 C73.96 178.02, 64.17 178.04, 53.89 173.78 C43.61 169.52, 31.64 161.18, 23.85 152.72 C16.06 144.25, 11.41 133.95, 7.13 122.98 C2.85 112, -1.77 98.64, -1.85 86.88 C-1.93 75.13, 1.56 62.51, 6.64 52.45 C11.72 42.39, 19.79 34.28, 28.61 26.52 C37.43 18.75, 48.65 10.53, 59.55 5.86 C70.45 1.2, 82.71 -1.7, 94 -1.47 C105.29 -1.23, 116.31 1.63, 127.27 7.3 C138.24 12.96, 154.16 26.95, 159.78 32.53 C165.4 38.11, 162.15 39.62, 160.99 40.76 M147.73 22.25 C156.32 28.43, 165.8 41.92, 170.83 52.65 C175.87 63.37, 177.16 75.51, 177.92 86.59 C178.67 97.67, 178.88 108.82, 175.39 119.13 C171.89 129.45, 164.94 140.11, 156.93 148.47 C148.91 156.83, 137.98 163.86, 127.28 169.31 C116.59 174.77, 103.89 180.15, 92.75 181.19 C81.6 182.23, 71.16 179.83, 60.42 175.54 C49.68 171.26, 36.97 163.36, 28.31 155.48 C19.64 147.61, 13.31 138.44, 8.45 128.3 C3.58 118.16, -0.86 106.28, -0.9 94.62 C-0.94 82.96, 3.71 69.54, 8.18 58.35 C12.66 47.15, 19.14 36.22, 25.95 27.47 C32.77 18.73, 39.42 10.42, 49.07 5.87 C58.73 1.31, 71.56 0.16, 83.89 0.16 C96.22 0.16, 112.17 2.43, 123.03 5.86 C133.9 9.29, 144.73 17.94, 149.09 20.75 C153.44 23.57, 149.73 20.78, 149.16 22.76" stroke="#086789" stroke-width="4" fill="none"></path></g><g stroke-linecap="round" transform="translate(710 350) rotate(0 111.62707225224722 85.68713847001993)"><path d="M11.82 48.7 C11.82 48.7, 11.82 48.7, 11.82 48.7 M11.82 48.7 C11.82 48.7, 11.82 48.7, 11.82 48.7 M1.59 84.85 C16.79 65.8, 33.58 48.53, 67.19 9.38 M1.59 84.85 C24.04 57.9, 47.53 31.68, 67.19 9.38 M4.48 105.92 C31.97 73.27, 60.58 44.94, 93.7 3.28 M4.48 105.92 C34.74 71.71, 64.71 38.01, 93.7 3.28 M11.96 121.7 C51.69 75.25, 92 26.49, 117.59 0.19 M11.96 121.7 C38.89 90.59, 66.92 58.77, 117.59 0.19 M21.41 135.21 C67.59 85.73, 108.94 33.74, 135.57 3.89 M21.41 135.21 C59.81 89.15, 100.31 43, 135.57 3.89 M32.83 146.47 C79.73 92.53, 127.41 34.81, 153.55 7.6 M32.83 146.47 C70.53 103.71, 106.63 62.61, 153.55 7.6 M46.87 154.7 C92.57 100.36, 142.6 44.62, 169.56 13.57 M46.87 154.7 C88.2 107.17, 129.72 62.09, 169.56 13.57 M60.92 162.93 C98.99 117.54, 142.79 67.91, 183.6 21.8 M60.92 162.93 C105.55 108.4, 152.29 55.81, 183.6 21.8 M78.9 166.64 C122.05 119.47, 166.26 68.98, 196.99 30.79 M78.9 166.64 C123.59 115.36, 165.45 66.17, 196.99 30.79 M96.88 170.34 C124.3 139.65, 152.23 106.19, 206.44 44.3 M96.88 170.34 C139.81 120.69, 182.91 69.36, 206.44 44.3 M118.14 170.27 C154.06 127.34, 192.1 87.92, 216.55 57.06 M118.14 170.27 C140.37 146.14, 160.89 123.01, 216.55 57.06 M141.37 167.94 C170.59 135.53, 198.42 103.43, 220.75 76.62 M141.37 167.94 C171.87 132.89, 201.39 99.14, 220.75 76.62 M173.12 155.79 C188.74 137.83, 204.19 120.97, 220.36 101.45 M173.12 155.79 C190.58 135.96, 209.11 115.49, 220.36 101.45" stroke="#ced4da" stroke-width="2" fill="none"></path><path d="M118.11 -0.07 C131.87 -0.66, 148.36 3.51, 161.37 8.53 C174.38 13.55, 187.03 21.94, 196.18 30.04 C205.33 38.14, 211.76 46.92, 216.28 57.14 C220.79 67.36, 223.87 80.44, 223.28 91.37 C222.69 102.31, 219.14 112.9, 212.73 122.76 C206.31 132.63, 195.66 143.19, 184.78 150.56 C173.9 157.92, 160.82 163.43, 147.45 166.94 C134.07 170.44, 118.72 172.24, 104.53 171.61 C90.33 170.98, 75.21 167.91, 62.27 163.16 C49.33 158.42, 36.42 151.53, 26.9 143.14 C17.38 134.74, 9.63 123.21, 5.16 112.79 C0.69 102.37, -1.06 91.31, 0.07 80.61 C1.2 69.91, 5.48 58.44, 11.92 48.58 C18.36 38.72, 28.04 28.72, 38.69 21.43 C49.34 14.13, 61.57 8.21, 75.84 4.8 C90.1 1.39, 115.62 1.49, 124.29 0.97 C132.95 0.45, 128.23 0.23, 127.83 1.68 M100.22 0.66 C113.34 -1.55, 129.88 -0.11, 143.51 3.14 C157.15 6.39, 170.71 13.09, 182.03 20.17 C193.35 27.25, 204.71 35.99, 211.42 45.65 C218.13 55.3, 221.32 67.36, 222.3 78.11 C223.28 88.85, 221.63 99.75, 217.31 110.12 C212.99 120.49, 205.26 132.01, 196.39 140.32 C187.52 148.63, 176.31 154.87, 164.09 159.99 C151.87 165.11, 137.46 169.99, 123.07 171.03 C108.69 172.07, 91.72 169.27, 77.77 166.23 C63.82 163.2, 49.96 159.51, 39.37 152.83 C28.79 146.16, 20.81 136.2, 14.27 126.18 C7.73 116.16, 1.73 103.55, 0.14 92.71 C-1.45 81.86, 0.66 71.24, 4.73 61.1 C8.8 50.96, 15.6 40.49, 24.54 31.86 C33.49 23.24, 45.52 14.59, 58.41 9.34 C71.3 4.08, 94.89 1.78, 101.89 0.33 C108.89 -1.12, 100.19 -0.97, 100.41 0.66" stroke="#1864ab" stroke-width="4" fill="none"></path></g><g stroke-linecap="round"><g transform="translate(749.3515649524325 450.36121801064223) rotate(0 42.22161579811677 12.406180603772668)"><path d="M0.15 -0.36 C4.58 3.69, 11.37 22.97, 25.37 24.07 C39.37 25.18, 74.35 9.19, 84.15 6.27 M-1.23 -1.6 C3.69 2.61, 13.59 24.24, 27.66 25.22 C41.74 26.2, 73.79 7.73, 83.22 4.27" stroke="#1864ab" stroke-width="4" fill="none"></path></g></g><mask></mask><g stroke-linecap="round"><g transform="translate(755.0333919035484 412.33721223273596) rotate(0 9.770146997004986 -4.208213879745699)"><path d="M-0.37 -0.34 C1.68 -1.76, 9.08 -8.91, 12.37 -8.69 C15.67 -8.46, 18.13 -0.47, 19.41 0.98 M0.45 0.67 C2.41 -0.89, 8.78 -9.41, 11.87 -9.5 C14.96 -9.59, 17.84 -1.49, 18.99 0.13" stroke="#1864ab" stroke-width="4" fill="none"></path></g></g><mask></mask><g stroke-linecap="round"><g transform="translate(817.6475992087007 412.68905246649206) rotate(0 9.770146997004986 -4.208213879745699)"><path d="M-0.14 0.3 C1.99 -1.07, 9.01 -8.52, 12.38 -8.57 C15.75 -8.61, 18.96 -1.52, 20.07 0.02 M0.8 -0.02 C2.87 -1.51, 8.68 -9.38, 11.88 -9.32 C15.08 -9.26, 18.82 -1.42, 19.99 0.34" stroke="#1864ab" stroke-width="4" fill="none"></path></g></g><mask></mask><g stroke-linecap="round"><g transform="translate(450 270) rotate(0 120 60)"><path d="M-2.07 0.04 C38.35 20.28, 200.96 100.59, 241.42 120.2 M2 -2.4 C42.28 18.44, 200.4 103.61, 239.95 123.94" stroke="#1e1e1e" stroke-width="4" fill="none"></path></g><g transform="translate(450 270) rotate(0 120 60)"><path d="M240.15 124.97 L226.52 122.85 L232.33 113.74 L238.08 125.39" stroke="none" stroke-width="0" fill="#1e1e1e" fill-rule="evenodd"></path><path d="M239.97 124.7 C236.18 124.02, 230.97 122.96, 224.47 122.85 M239.22 124.12 C236.71 124.57, 232.83 123.71, 224.3 123.39 M225 122.36 C224.93 121.67, 228.66 117.31, 229.89 113.01 M224.36 123.16 C226.43 119.33, 228.49 116.48, 231.14 111.41 M229.86 113.2 C232.73 116.72, 237.59 120.08, 241.25 124.93 M230.88 111.31 C233.32 115.94, 237.26 120.21, 240.27 124.03 M239.95 123.94 C239.95 123.94, 239.95 123.94, 239.95 123.94 M239.95 123.94 C239.95 123.94, 239.95 123.94, 239.95 123.94" stroke="#1e1e1e" stroke-width="4" fill="none"></path></g></g><mask></mask><g stroke-linecap="round"><g stroke-opacity="0.6" fill-opacity="0.6" transform="translate(410 190) rotate(0 140 0)"><path d="M2.26 -1.51 C49.66 -0.73, 235.71 2.1, 282.39 2.76" stroke="#1e1e1e" stroke-width="4.5" fill="none" stroke-dasharray="8 12"></path></g><g stroke-opacity="0.6" fill-opacity="0.6" transform="translate(410 190) rotate(0 140 0)"><path d="M283.94 2.41 L270.15 10.65 L267.01 -2.33 L283.52 2.56" stroke="none" stroke-width="0" fill="#1e1e1e" fill-rule="evenodd"></path><path d="M281.58 4.04 C280.69 5.53, 277.39 6.66, 269.01 7.73 M268.06 9.13 C269.88 5.84, 269.36 0.96, 267.72 -3.25 M269.17 -4.58 C270.84 -3.68, 274.73 -0.61, 283.87 2.96 M282.39 2.76 C282.39 2.76, 282.39 2.76, 282.39 2.76" stroke="#1e1e1e" stroke-width="4.5" fill="none"></path></g></g><mask></mask><g transform="translate(73.315395669076 244.22475894554464) rotate(0 0.00004999999998744897 0.00004999999998744897)" stroke="none"><path fill="#1e1e1e" d="M 6.28,-6.28 Q 6.28,-6.28 7.11,-5.11 7.95,-3.94 8.37,-2.57 8.80,-1.19 8.76,0.23 8.72,1.67 8.22,3.02 7.73,4.37 6.83,5.49 5.93,6.61 4.72,7.38 3.50,8.15 2.11,8.50 0.72,8.85 -0.71,8.73 -2.14,8.61 -3.46,8.05 -4.78,7.48 -5.85,6.52 -6.92,5.56 -7.63,4.31 -8.33,3.06 -8.60,1.65 -8.87,0.23 -8.68,-1.18 -8.49,-2.60 -7.85,-3.89 -7.21,-5.18 -6.19,-6.19 -5.18,-7.21 -3.89,-7.85 -2.60,-8.49 -1.18,-8.68 0.24,-8.87 1.65,-8.60 3.06,-8.33 4.31,-7.62 5.56,-6.92 6.52,-5.85 7.48,-4.78 8.05,-3.46 8.62,-2.14 8.73,-0.70 8.85,0.72 8.50,2.11 8.15,3.51 7.38,4.72 6.61,5.93 5.49,6.83 4.36,7.73 3.02,8.22 1.67,8.72 0.23,8.76 -1.20,8.80 -2.57,8.37 -3.94,7.95 -5.11,7.11 -6.28,6.27 -6.28,6.28 -6.28,6.28 -6.94,5.43 -7.60,4.59 -8.04,3.61 -8.48,2.64 -8.67,1.58 -8.86,0.53 -8.80,-0.53 -8.73,-1.60 -8.41,-2.62 -8.09,-3.64 -7.54,-4.56 -6.99,-5.47 -6.23,-6.23 -5.47,-6.99 -4.56,-7.54 -3.64,-8.10 -2.62,-8.41 -1.60,-8.73 -0.53,-8.80 0.53,-8.86 1.59,-8.67 2.64,-8.48 3.61,-8.04 4.59,-7.60 5.43,-6.94 6.28,-6.28 6.28,-6.28 L 6.28,-6.28 Z"></path></g><g transform="translate(161.315395669076 204.22475894554464) rotate(0 -17.5 15.5)" stroke="none"><path fill="#1e1e1e" d="M -4.83,1.93 Q -4.83,1.93 -5.48,0.53 -6.13,-0.87 -8.27,-2.45 -10.41,-4.03 -11.72,-5.78 -13.03,-7.53 -14.97,-9.15 -16.92,-10.77 -19.88,-11.49 -22.84,-12.21 -26.92,-12.30 -31.00,-12.38 -34.42,-12.40 -37.84,-12.42 -38.87,-9.06 -39.91,-5.69 -40.41,-3.48 -40.92,-1.28 -40.91,0.97 -40.91,3.23 -41.37,6.75 -41.83,10.27 -41.80,12.45 -41.76,14.63 -41.75,17.12 -41.74,19.60 -40.10,22.80 -38.46,26.00 -36.60,27.96 -34.74,29.91 -32.09,31.17 -29.44,32.43 -26.08,33.90 -22.73,35.38 -18.97,36.93 -15.20,38.48 -11.81,39.64 -8.42,40.81 -5.86,41.43 -3.31,42.05 -0.19,42.53 2.92,43.02 6.02,43.09 9.12,43.17 11.57,43.15 14.03,43.13 15.12,43.31 16.22,43.50 17.20,44.02 18.18,44.55 18.94,45.36 19.70,46.17 20.16,47.18 20.62,48.19 20.73,49.30 20.85,50.40 20.60,51.48 20.36,52.57 19.78,53.52 19.21,54.47 18.36,55.18 17.51,55.89 16.47,56.30 15.44,56.71 14.33,56.76 13.22,56.82 12.15,56.51 11.08,56.21 10.17,55.58 9.25,54.96 8.58,54.07 7.91,53.18 7.56,52.13 7.21,51.07 7.22,49.96 7.23,48.85 7.59,47.80 7.95,46.75 8.62,45.87 9.30,44.99 10.22,44.37 11.14,43.75 12.22,43.46 13.29,43.17 14.40,43.23 15.50,43.30 16.53,43.71 17.56,44.13 18.41,44.85 19.25,45.58 19.82,46.53 20.39,47.49 20.62,48.57 20.85,49.66 20.73,50.76 20.60,51.87 20.13,52.87 19.66,53.88 18.89,54.68 18.12,55.48 17.14,56.00 16.15,56.51 15.06,56.69 13.96,56.86 13.96,56.86 13.96,56.86 12.30,56.83 10.63,56.81 8.28,56.74 5.93,56.67 2.70,56.34 -0.53,56.00 -2.88,55.64 -5.23,55.28 -7.33,54.92 -9.43,54.56 -12.72,53.50 -16.01,52.43 -20.00,51.04 -24.00,49.65 -26.27,48.93 -28.54,48.21 -31.76,46.97 -34.98,45.72 -38.55,44.07 -42.12,42.43 -44.53,40.48 -46.94,38.53 -48.50,36.89 -50.06,35.24 -51.35,33.26 -52.64,31.27 -53.87,29.11 -55.10,26.95 -55.69,23.96 -56.27,20.97 -56.25,18.45 -56.23,15.92 -56.17,13.11 -56.11,10.31 -55.61,7.77 -55.12,5.23 -55.05,2.89 -54.98,0.55 -54.51,-2.59 -54.05,-5.73 -53.37,-8.06 -52.69,-10.39 -51.84,-14.08 -50.99,-17.76 -49.42,-19.71 -47.84,-21.66 -44.82,-23.26 -41.81,-24.86 -38.41,-25.20 -35.01,-25.54 -30.96,-25.60 -26.90,-25.66 -23.17,-25.68 -19.45,-25.69 -17.27,-25.41 -15.10,-25.12 -11.86,-22.97 -8.63,-20.83 -7.06,-19.04 -5.50,-17.25 -4.21,-15.32 -2.92,-13.40 -1.40,-11.67 0.12,-9.95 1.97,-7.41 3.83,-4.87 4.33,-3.40 4.83,-1.93 4.99,-1.32 5.15,-0.72 5.16,-0.09 5.17,0.53 5.03,1.14 4.89,1.75 4.61,2.31 4.33,2.87 3.92,3.35 3.51,3.83 3.00,4.19 2.50,4.56 1.91,4.79 1.33,5.02 0.71,5.11 0.09,5.20 -0.53,5.13 -1.15,5.07 -1.74,4.86 -2.33,4.64 -2.85,4.30 -3.37,3.95 -3.80,3.49 -4.22,3.03 -4.52,2.48 -4.83,1.93 -4.83,1.93 L -4.83,1.93 Z"></path></g><g transform="translate(219.315395669076 191.22475894554464) rotate(0 20 24)" stroke="none"><path fill="#1e1e1e" d="M 1.42,5.00 Q 1.42,5.00 -0.54,5.62 -2.51,6.24 -2.64,8.88 -2.78,11.51 -3.14,14.45 -3.50,17.40 -3.88,19.57 -4.26,21.75 -4.88,24.14 -5.49,26.54 -5.36,28.67 -5.22,30.80 -4.82,33.70 -4.41,36.60 -1.06,36.72 2.29,36.83 4.88,37.81 7.46,38.79 10.77,39.64 14.07,40.49 17.68,41.49 21.30,42.49 24.39,43.19 27.48,43.88 30.07,43.11 32.66,42.33 35.68,40.24 38.71,38.15 40.85,36.17 42.98,34.19 43.83,30.61 44.68,27.03 44.91,24.23 45.15,21.43 44.62,18.81 44.09,16.19 41.83,14.20 39.57,12.22 36.16,10.68 32.74,9.15 30.40,8.20 28.05,7.26 24.01,6.09 19.98,4.91 16.78,4.24 13.59,3.57 10.78,3.54 7.98,3.51 5.27,4.48 2.57,5.45 1.63,5.72 0.70,5.99 -0.27,5.94 -1.25,5.90 -2.16,5.55 -3.07,5.19 -3.81,4.56 -4.56,3.94 -5.07,3.11 -5.58,2.27 -5.80,1.32 -6.02,0.37 -5.92,-0.59 -5.82,-1.56 -5.42,-2.45 -5.02,-3.34 -4.35,-4.06 -3.69,-4.77 -2.83,-5.24 -1.97,-5.70 -1.00,-5.86 -0.04,-6.03 0.91,-5.88 1.88,-5.73 2.74,-5.28 3.61,-4.83 4.29,-4.12 4.96,-3.42 5.38,-2.54 5.80,-1.65 5.91,-0.68 6.02,0.27 5.82,1.23 5.62,2.19 5.12,3.03 4.63,3.87 3.89,4.50 3.15,5.14 2.24,5.51 1.34,5.88 0.36,5.94 -0.60,6.00 -1.54,5.75 -2.49,5.49 -3.30,4.95 -4.11,4.41 -4.71,3.64 -5.31,2.86 -5.62,1.94 -5.94,1.02 -5.95,0.04 -5.96,-0.93 -5.65,-1.85 -5.35,-2.78 -4.76,-3.56 -4.18,-4.34 -3.37,-4.90 -2.57,-5.45 -2.57,-5.45 -2.57,-5.45 3.65,-7.41 9.88,-9.36 12.58,-9.13 15.28,-8.91 19.09,-8.08 22.90,-7.25 25.43,-6.70 27.96,-6.14 30.25,-5.47 32.55,-4.80 34.67,-4.07 36.80,-3.35 38.99,-2.64 41.19,-1.94 43.67,-0.73 46.14,0.46 48.43,2.69 50.72,4.92 52.74,6.77 54.77,8.61 55.91,10.95 57.06,13.28 57.53,15.36 57.99,17.44 58.28,19.75 58.57,22.05 58.47,24.20 58.38,26.34 57.57,30.48 56.77,34.61 56.15,36.68 55.53,38.76 54.21,41.29 52.89,43.83 50.92,45.70 48.94,47.57 46.80,49.15 44.65,50.73 41.48,52.87 38.32,55.00 35.59,56.05 32.87,57.09 29.29,57.29 25.72,57.49 21.98,56.77 18.25,56.06 14.02,55.14 9.80,54.22 7.68,53.59 5.57,52.96 2.78,52.28 -0.00,51.60 -2.25,50.69 -4.50,49.78 -7.37,48.77 -10.24,47.77 -12.52,46.31 -14.81,44.85 -16.38,41.95 -17.94,39.05 -18.37,35.81 -18.79,32.56 -18.67,29.85 -18.55,27.14 -17.88,24.28 -17.20,21.41 -16.67,19.05 -16.14,16.68 -15.53,13.73 -14.91,10.77 -14.19,7.36 -13.46,3.94 -12.04,1.46 -10.62,-1.02 -8.08,-2.48 -5.53,-3.94 -3.48,-4.47 -1.42,-5.00 -0.81,-5.10 -0.19,-5.20 0.43,-5.14 1.05,-5.09 1.65,-4.89 2.24,-4.69 2.77,-4.35 3.30,-4.01 3.73,-3.56 4.17,-3.11 4.48,-2.56 4.79,-2.02 4.96,-1.41 5.14,-0.81 5.16,-0.18 5.18,0.43 5.05,1.05 4.93,1.66 4.65,2.23 4.38,2.79 3.99,3.28 3.59,3.76 3.08,4.14 2.58,4.51 2.00,4.76 1.42,5.00 1.42,5.00 L 1.42,5.00 Z"></path></g><g transform="translate(293.315395669076 197.22475894554464) rotate(0 42.5 22.5)" stroke="none"><path fill="#1e1e1e" d="M 5.14,0 Q 5.14,0 5.08,3.16 5.01,6.32 4.92,9.67 4.83,13.03 5.15,15.33 5.47,17.64 5.84,20.76 6.22,23.88 6.41,26.54 6.59,29.19 7.12,31.43 7.64,33.66 7.86,35.82 8.08,37.97 4.88,38.55 1.67,39.12 2.31,36.72 2.95,34.32 4.85,30.58 6.74,26.83 9.06,22.54 11.37,18.26 13.32,14.54 15.27,10.83 16.21,8.55 17.15,6.27 19.10,3.89 21.05,1.50 23.20,0.12 25.35,-1.25 27.60,-1.47 29.85,-1.70 32.95,-2.31 36.06,-2.91 37.97,-1.29 39.89,0.33 40.18,3.22 40.46,6.10 39.60,9.73 38.74,13.36 38.56,16.66 38.38,19.95 38.56,22.39 38.74,24.83 39.40,27.15 40.05,29.47 37.70,29.65 35.34,29.84 36.95,26.01 38.56,22.19 40.12,19.62 41.68,17.05 43.35,14.93 45.03,12.81 46.86,10.66 48.70,8.51 51.20,5.28 53.70,2.06 55.14,0.37 56.57,-1.31 58.66,-3.10 60.75,-4.89 63.13,-6.41 65.51,-7.93 69.24,-8.37 72.97,-8.81 75.34,-7.69 77.71,-6.57 78.96,-4.57 80.21,-2.56 81.25,0.25 82.29,3.07 82.71,6.52 83.13,9.96 83.66,12.22 84.19,14.47 84.47,17.82 84.75,21.16 85.03,24.00 85.31,26.83 85.44,29.73 85.58,32.63 86.10,34.70 86.62,36.78 87.52,39.91 88.42,43.05 88.46,43.11 88.51,43.16 89.19,43.85 89.87,44.54 90.29,45.40 90.72,46.27 90.84,47.23 90.97,48.19 90.78,49.14 90.59,50.09 90.11,50.93 89.63,51.77 88.91,52.41 88.19,53.05 87.30,53.43 86.40,53.80 85.44,53.88 84.48,53.95 83.54,53.71 82.60,53.47 81.79,52.95 80.98,52.42 80.38,51.66 79.78,50.91 79.45,50.00 79.12,49.09 79.10,48.12 79.08,47.15 79.37,46.23 79.66,45.31 80.22,44.53 80.79,43.74 81.58,43.18 82.37,42.63 83.30,42.35 84.22,42.07 85.19,42.10 86.15,42.13 87.06,42.47 87.97,42.81 88.72,43.42 89.47,44.03 89.98,44.85 90.50,45.66 90.73,46.60 90.95,47.54 90.87,48.51 90.79,49.47 90.40,50.36 90.01,51.24 89.36,51.96 88.71,52.68 87.87,53.15 87.02,53.62 86.07,53.79 85.12,53.97 84.16,53.83 83.21,53.70 82.34,53.26 81.48,52.83 81.48,52.83 81.48,52.83 79.03,48.27 76.58,43.71 76.01,41.65 75.45,39.60 74.67,36.52 73.89,33.44 73.67,30.98 73.45,28.52 72.90,25.51 72.34,22.50 72.02,20.21 71.69,17.92 70.79,15.03 69.89,12.15 69.43,8.48 68.98,4.81 66.70,6.59 64.42,8.37 62.65,10.28 60.88,12.20 59.50,14.09 58.12,15.99 56.46,18.24 54.80,20.49 52.63,23.78 50.47,27.07 49.37,29.97 48.26,32.88 47.08,34.94 45.89,37.00 43.77,39.28 41.64,41.55 38.75,42.01 35.86,42.46 32.13,39.26 28.40,36.05 27.85,33.42 27.29,30.79 26.55,27.32 25.81,23.85 25.83,21.67 25.85,19.50 25.92,17.07 25.98,14.65 26.28,12.31 26.57,9.96 28.02,7.43 29.47,4.90 32.71,6.10 35.94,7.29 33.30,8.50 30.67,9.71 28.29,9.98 25.91,10.25 24.87,12.39 23.83,14.52 22.47,18.49 21.11,22.47 19.69,26.80 18.28,31.13 16.16,35.97 14.03,40.81 12.83,42.86 11.62,44.92 9.35,46.71 7.08,48.50 3.26,48.46 -0.54,48.41 -1.90,45.14 -3.27,41.87 -3.64,38.39 -4.01,34.92 -4.31,32.12 -4.62,29.33 -4.50,26.82 -4.37,24.31 -4.34,21.52 -4.32,18.73 -4.57,15.88 -4.83,13.04 -4.92,9.68 -5.01,6.32 -5.08,3.16 -5.14,0 -5.07,-0.61 -5.00,-1.23 -4.78,-1.81 -4.56,-2.39 -4.20,-2.90 -3.85,-3.41 -3.39,-3.82 -2.92,-4.23 -2.37,-4.52 -1.82,-4.81 -1.22,-4.96 -0.62,-5.11 0.00,-5.11 0.62,-5.11 1.22,-4.96 1.82,-4.81 2.37,-4.52 2.92,-4.23 3.39,-3.82 3.85,-3.41 4.20,-2.90 4.56,-2.39 4.78,-1.81 5.00,-1.23 5.07,-0.61 5.14,0.00 5.14,0.00 L 5.14,0 Z"></path></g></svg>