<svg version="1.1" xmlns="http://www.w3.org/2000/svg" viewBox="0 0 1051.111111111111 600" width="2102.222222222222" height="1200">
  <!-- svg-source:excalidraw -->
  
  <defs>
    <style class="style-fonts">
      @font-face {
        font-family: "Virgil";
        src: url("https://excalidraw.com/Virgil.woff2");
      }
      @font-face {
        font-family: "Cascadia";
        src: url("https://excalidraw.com/Cascadia.woff2");
      }
      @font-face {
        font-family: "Assistant";
        src: url("https://excalidraw.com/Assistant-Regular.woff2");
      }
    </style>
    
  </defs>
  <g stroke-linecap="round" transform="translate(10 10) rotate(0 515.5555555555555 290)"><path d="M32 0 C320.61 1.3, 607.97 1.53, 999.11 0 C1018.84 -1.29, 1028.33 12.92, 1031.11 32 C1031.02 136.54, 1030.99 239.57, 1031.11 548 C1034.63 571.53, 1017.22 577.23, 999.11 580 C792.49 573.67, 584.17 575.89, 32 580 C8.22 578.61, 2.44 566.88, 0 548 C-1.94 411.76, -2.78 279.23, 0 32 C-2 7.75, 7.82 -1.63, 32 0" stroke="none" stroke-width="0" fill="#ffffff"></path><path d="M32 0 C413.3 -0.97, 793.2 -1.23, 999.11 0 M32 0 C253.22 3.57, 475.2 3.53, 999.11 0 M999.11 0 C1020.34 -0.66, 1030.35 12.55, 1031.11 32 M999.11 0 C1022.24 -0.23, 1030.54 11.27, 1031.11 32 M1031.11 32 C1031.85 217.92, 1031.68 403.81, 1031.11 548 M1031.11 32 C1030.92 186.9, 1031.21 342.3, 1031.11 548 M1031.11 548 C1032.51 570.78, 1019.35 580.01, 999.11 580 M1031.11 548 C1029.91 568.3, 1020.39 579.13, 999.11 580 M999.11 580 C729.19 581.09, 458.02 581.38, 32 580 M999.11 580 C700.2 577.85, 401.16 577.72, 32 580 M32 580 C9.37 578.78, -0.76 571.19, 0 548 M32 580 C11.7 582.2, -0.29 568.86, 0 548 M0 548 C-0.59 367.06, -0.51 185.63, 0 32 M0 548 C0.77 363.81, 1.27 179.72, 0 32 M0 32 C0.12 9.2, 10.79 1.14, 32 0 M0 32 C0.16 10.82, 10.51 1.57, 32 0" stroke="#1971c2" stroke-width="4" fill="none"></path></g><g stroke-opacity="0" fill-opacity="0" stroke-linecap="round" transform="translate(130 10) rotate(0 170 170)"><path d="M92.41 18.06 C105.27 8.39, 123.48 4.95, 139.97 2.07 C156.45 -0.81, 174.69 -1.47, 191.31 0.8 C207.93 3.06, 224.37 8.6, 239.71 15.65 C255.05 22.69, 270.69 31.98, 283.36 43.08 C296.02 54.18, 307.13 68.14, 315.7 82.25 C324.27 96.37, 330.82 111.9, 334.76 127.78 C338.71 143.66, 340.13 160.91, 339.39 177.55 C338.65 194.19, 335.85 211.85, 330.34 227.62 C324.82 243.39, 316.55 258.71, 306.29 272.19 C296.03 285.66, 282.51 298.73, 268.78 308.47 C255.05 318.2, 239.53 325.26, 223.92 330.59 C208.32 335.92, 191.67 339.98, 175.13 340.43 C158.59 340.89, 140.82 337.95, 124.7 333.3 C108.58 328.65, 92.68 321.59, 78.41 312.54 C64.14 303.5, 49.96 291.87, 39.09 279.04 C28.22 266.21, 19.62 251.06, 13.2 235.56 C6.77 220.06, 2.24 202.67, 0.54 186.04 C-1.17 169.4, -0.33 152.01, 2.96 135.75 C6.25 119.49, 12.23 103, 20.28 88.47 C28.33 73.95, 36.95 61.39, 51.25 48.6 C65.55 35.8, 94.32 18.25, 106.1 11.71 C117.88 5.18, 120.67 6.83, 121.91 9.39 M176.59 -0.02 C192.57 -2.15, 210.78 2.74, 226.23 8.42 C241.67 14.09, 256.08 24.19, 269.26 34.03 C282.44 43.87, 295.21 54.52, 305.3 67.45 C315.38 80.38, 323.82 95.52, 329.77 111.62 C335.71 127.71, 340.33 147.2, 340.96 164.03 C341.58 180.85, 337.96 196.6, 333.53 212.55 C329.1 228.51, 323.16 245.56, 314.39 259.77 C305.63 273.98, 293.39 286.66, 280.93 297.82 C268.48 308.98, 254.78 320.01, 239.67 326.73 C224.57 333.45, 207.22 336.51, 190.3 338.15 C173.38 339.79, 154.85 339.62, 138.14 336.56 C121.43 333.49, 104.43 327.38, 90.04 319.78 C75.65 312.18, 63.29 302.45, 51.79 290.96 C40.29 279.48, 29.21 265.43, 21.04 250.87 C12.87 236.32, 5.88 220.13, 2.76 203.62 C-0.37 187.11, 0.41 168.73, 2.29 151.81 C4.18 134.88, 7.48 117.34, 14.06 102.07 C20.64 86.8, 31.05 72.59, 41.78 60.17 C52.51 47.74, 64.27 36.66, 78.42 27.53 C92.57 18.39, 110.4 9.89, 126.67 5.36 C142.94 0.83, 167.73 0.88, 176.06 0.35 C184.39 -0.17, 177.06 -0.7, 176.67 2.19" stroke="#1e1e1e" stroke-width="1" fill="none"></path></g><g stroke-opacity="0" fill-opacity="0" stroke-linecap="round" transform="translate(410 310) rotate(0 120.00000000000017 120.00000000000011)"><path d="M72.7 9.02 C83.65 2.15, 98.61 1.4, 111.99 0.7 C125.37 -0.01, 139.87 0.97, 153 4.8 C166.13 8.63, 179.7 15.55, 190.77 23.68 C201.84 31.81, 211.84 42.22, 219.41 53.58 C226.97 64.93, 233 78.53, 236.17 91.8 C239.34 105.07, 239.88 119.55, 238.41 133.18 C236.94 146.81, 233.31 161.37, 227.35 173.57 C221.39 185.78, 212.57 196.97, 202.64 206.43 C192.7 215.9, 180.17 224.84, 167.74 230.37 C155.31 235.91, 141.68 238.8, 128.06 239.62 C114.44 240.44, 99.2 239.31, 86.02 235.3 C72.84 231.29, 59.96 223.71, 48.97 215.58 C37.99 207.46, 27.86 197.83, 20.13 186.55 C12.39 175.27, 5.86 161.41, 2.55 147.91 C-0.76 134.4, -1.41 119.03, 0.27 105.52 C1.94 92.01, 6.36 78.88, 12.57 66.82 C18.77 54.76, 26.17 43.29, 37.49 33.17 C48.82 23.05, 71.96 10.64, 80.51 6.09 C89.06 1.54, 88.1 3.69, 88.8 5.86 M77.9 8.48 C89.65 2.02, 105.23 -0.9, 118.66 -1.04 C132.1 -1.18, 145.6 2.92, 158.5 7.64 C171.4 12.35, 185.09 18.68, 196.08 27.27 C207.06 35.85, 217.28 47.16, 224.41 59.15 C231.54 71.15, 236.68 85.63, 238.85 99.25 C241.01 112.87, 239.64 127.57, 237.4 140.89 C235.16 154.21, 232.06 167.51, 225.43 179.17 C218.79 190.84, 207.98 201.94, 197.59 210.88 C187.21 219.82, 175.82 228.19, 163.11 232.8 C150.4 237.41, 135.07 238.24, 121.33 238.55 C107.58 238.85, 93.72 238.9, 80.63 234.61 C67.55 230.32, 53.61 221.75, 42.84 212.82 C32.07 203.88, 22.83 192.97, 16.01 181 C9.19 169.03, 4.58 154.34, 1.93 141.01 C-0.73 127.68, -2.34 114.14, 0.1 101.03 C2.53 87.92, 9.69 74.44, 16.54 62.35 C23.38 50.27, 30.92 37.73, 41.18 28.51 C51.43 19.29, 72.08 10, 78.05 7.05 C84.03 4.1, 76.54 8.77, 77.01 10.8" stroke="#1e1e1e" stroke-width="1" fill="none"></path></g><g stroke-linecap="round"><g stroke-opacity="0.8" fill-opacity="0.8" transform="translate(430.8100860619078 69.86498565634884) rotate(0 115.88363992811452 5.276809832682261)"><path d="M-1.76 -0.32 C18.28 -3.23, 82.36 -23.7, 121.17 -19.01 C159.98 -14.33, 212.7 19.23, 231.09 27.77 M2.48 -2.96 C22.25 -6.62, 82.27 -28.96, 120.01 -23.56 C157.75 -18.16, 210.26 20.99, 228.91 29.45" stroke="#1e1e1e" stroke-width="4" fill="none"></path></g><g stroke-opacity="0.8" fill-opacity="0.8" transform="translate(430.8100860619078 69.86498565634884) rotate(0 115.88363992811452 5.276809832682261)"><path d="M227.7 29.82 L214.05 29.72 L219.22 18.29 L228.02 27.9" stroke="none" stroke-width="0" fill="#1e1e1e" fill-rule="evenodd"></path><path d="M228.74 30.51 C224.41 28.57, 217.58 28.36, 214.94 28.19 M228.3 28.85 C222.73 28.41, 217.09 28.45, 213.23 28.21 M213.18 27.56 C216.19 25.86, 217.54 24.2, 219.88 16.15 M214.3 28.58 C215.39 26.05, 216.64 22.82, 220.46 17.78 M219.5 18.56 C221.55 19.3, 224.21 24, 230.14 28.67 M220.48 16.82 C223.11 20.05, 224.69 23.8, 229.58 28.95 M228.91 29.45 C228.91 29.45, 228.91 29.45, 228.91 29.45 M228.91 29.45 C228.91 29.45, 228.91 29.45, 228.91 29.45" stroke="#1e1e1e" stroke-width="4" fill="none"></path></g></g><mask></mask><g stroke-linecap="round"><g stroke-opacity="0.8" fill-opacity="0.8" transform="translate(211.76025194786484 394.5255479445432) rotate(227.73343591590623 116.28868295906841 5.141795489031097)"><path d="M2.11 0.38 C21.33 -2.83, 79.3 -25.66, 117.78 -20.99 C156.26 -16.32, 213.89 19.49, 233 28.4 M-0.19 -1.88 C19.67 -4.54, 84.38 -23.3, 122.98 -17.9 C161.58 -12.51, 213.09 22.91, 231.42 30.49" stroke="#1e1e1e" stroke-width="4" fill="none"></path></g><g stroke-opacity="0.8" fill-opacity="0.8" transform="translate(211.76025194786484 394.5255479445432) rotate(227.73343591590623 116.28868295906841 5.141795489031097)"><path d="M232.26 32.16 L217.74 28.2 L223.59 17.53 L230.06 28.79" stroke="none" stroke-width="0" fill="#1e1e1e" fill-rule="evenodd"></path><path d="M231.62 29.3 C225.07 30.54, 218.77 29.96, 217.6 30.39 M231.89 30.75 C226.41 30.15, 221.44 29.41, 217.14 29.1 M216.7 29.01 C218.8 25.35, 219.54 21.71, 222.65 19.08 M216.13 29.13 C218.25 26.96, 219.85 24.77, 222.8 18.3 M221.96 17.44 C224.25 23.03, 227.29 26.51, 230.4 30.3 M221.98 18.92 C225.85 22.3, 229.08 26.85, 230.77 31.04 M231.42 30.49 C231.42 30.49, 231.42 30.49, 231.42 30.49 M231.42 30.49 C231.42 30.49, 231.42 30.49, 231.42 30.49" stroke="#1e1e1e" stroke-width="4" fill="none"></path></g></g><mask></mask><g stroke-linecap="round"><g stroke-opacity="0.8" fill-opacity="0.8" transform="translate(635.3509647927863 455.91959958001576) rotate(145.48703967452337 103.44639480900153 -25.913883068200107)"><path d="M-2.13 -1.64 C16.29 -11.06, 72.9 -52.89, 108.12 -54.15 C143.35 -55.4, 192.8 -17, 209.24 -9.16 M1.91 3.65 C20.4 -4.29, 72.77 -49.99, 107.24 -51.78 C141.7 -53.57, 192.03 -14.97, 208.7 -7.08" stroke="#1e1e1e" stroke-width="4" fill="none"></path></g><g stroke-opacity="0.8" fill-opacity="0.8" transform="translate(635.3509647927863 455.91959958001576) rotate(145.48703967452337 103.44639480900153 -25.913883068200107)"><path d="M206.81 -6.44 L194.17 -10.21 L200.75 -18.59 L210.08 -6.26" stroke="none" stroke-width="0" fill="#1e1e1e" fill-rule="evenodd"></path><path d="M207.83 -5.74 C204.23 -6.25, 201.25 -7.89, 193.85 -7.36 M208.97 -7.66 C205.27 -7.35, 201.74 -7.83, 193.62 -8.48 M193.5 -9.68 C197.19 -11.92, 198.03 -18.09, 200.89 -18.61 M193.24 -8.37 C195.18 -11.56, 196.82 -13.75, 200.73 -19.65 M199.41 -19.84 C201.55 -16.24, 204.84 -14.11, 207.9 -6.15 M200.87 -19.75 C204.09 -14.24, 207.26 -9.83, 207.99 -6.38 M208.7 -7.08 C208.7 -7.08, 208.7 -7.08, 208.7 -7.08 M208.7 -7.08 C208.7 -7.08, 208.7 -7.08, 208.7 -7.08" stroke="#1e1e1e" stroke-width="4" fill="none"></path></g></g><mask></mask><g stroke-linecap="round" transform="translate(288.2686567164185 50) rotate(0 26.746268656716666 26.746268656716666)"><path d="M16.02 1.76 C20.6 -0.98, 27.36 -1.54, 32.77 0.08 C38.18 1.7, 45.16 6.61, 48.48 11.5 C51.8 16.38, 53.21 23.61, 52.71 29.39 C52.2 35.17, 49.2 42.29, 45.46 46.18 C41.72 50.08, 35.93 52.35, 30.26 52.75 C24.58 53.16, 16.38 51.87, 11.4 48.59 C6.41 45.31, 1.78 38.67, 0.36 33.05 C-1.07 27.44, 0.31 20.07, 2.84 14.91 C5.38 9.76, 13.01 4.25, 15.56 2.12 C18.12 -0.01, 17.95 1.75, 18.19 2.13 M15.48 2.64 C20.84 0.28, 30.38 -1.36, 36.17 0.36 C41.96 2.07, 47.39 7.78, 50.22 12.91 C53.05 18.05, 53.86 25.62, 53.18 31.18 C52.49 36.74, 50.26 42.56, 46.08 46.28 C41.9 49.99, 34.29 53.15, 28.11 53.45 C21.94 53.75, 13.67 51.46, 9.01 48.06 C4.36 44.67, 0.99 38.88, 0.18 33.08 C-0.63 27.28, 1.47 18.65, 4.14 13.26 C6.82 7.88, 13.86 2.68, 16.22 0.77 C18.59 -1.15, 18.14 0.94, 18.31 1.79" stroke="none" stroke-width="0" fill="#ffc9c9"></path><path d="M17.24 2.22 C22.18 0.17, 30.41 -0.16, 36.01 1.68 C41.62 3.52, 47.88 8.42, 50.85 13.26 C53.82 18.1, 54.86 25.19, 53.83 30.72 C52.8 36.26, 49.07 42.75, 44.66 46.47 C40.24 50.18, 33.26 52.93, 27.34 53.02 C21.42 53.11, 13.57 50.49, 9.15 47 C4.74 43.51, 1.74 37.56, 0.87 32.07 C0 26.59, 0.84 19.3, 3.94 14.09 C7.05 8.88, 16.7 2.8, 19.5 0.82 C22.3 -1.17, 20.63 1.53, 20.75 2.18 M15.64 1.95 C20.45 -0.95, 29.38 -1.37, 34.89 0.1 C40.41 1.57, 45.88 6.02, 48.71 10.76 C51.55 15.49, 52.3 22.58, 51.91 28.49 C51.52 34.41, 50.38 42.14, 46.35 46.26 C42.32 50.37, 33.76 52.78, 27.74 53.19 C21.73 53.6, 14.94 52.22, 10.24 48.69 C5.54 45.17, 0.69 37.7, -0.44 32.07 C-1.57 26.43, 0.84 19.78, 3.45 14.87 C6.05 9.96, 13.05 4.57, 15.18 2.61 C17.31 0.64, 15.94 2.83, 16.25 3.09" stroke="#1e1e1e" stroke-width="1" fill="none"></path></g><g stroke-linecap="round" transform="translate(288.2686567164185 131.91044776119406) rotate(0 26.746268656716666 26.746268656716666)"><path d="M22.78 -0.56 C28 -1.39, 36.44 1.25, 41.24 4.58 C46.05 7.91, 49.98 13.89, 51.61 19.44 C53.24 24.98, 52.98 32.77, 51.02 37.86 C49.06 42.94, 44.94 47.49, 39.87 49.95 C34.79 52.4, 26.41 53.93, 20.56 52.61 C14.72 51.29, 8.14 46.69, 4.79 42.03 C1.44 37.37, 0.2 30.22, 0.47 24.64 C0.74 19.06, 1.95 12.66, 6.4 8.54 C10.86 4.43, 23.36 1.29, 27.2 -0.04 C31.03 -1.38, 29.64 0.24, 29.42 0.53 M19.15 0.58 C24.51 -1.58, 31.89 -0.17, 37.04 2.14 C42.18 4.45, 47.11 9.57, 50 14.45 C52.89 19.33, 55.39 25.93, 54.4 31.42 C53.4 36.92, 48.92 43.71, 44.03 47.42 C39.15 51.13, 30.94 53.63, 25.09 53.68 C19.23 53.73, 12.83 51.65, 8.89 47.71 C4.94 43.77, 2.33 36.04, 1.4 30.07 C0.48 24.09, 0.33 16.75, 3.33 11.88 C6.32 7, 16.97 2.23, 19.37 0.82 C21.77 -0.59, 17.83 2.9, 17.73 3.41" stroke="none" stroke-width="0" fill="#a5d8ff"></path><path d="M16.74 2.11 C21.86 -0.39, 30.26 -0.42, 35.82 1.2 C41.37 2.82, 47.05 7.09, 50.07 11.82 C53.09 16.55, 54.72 23.87, 53.93 29.57 C53.13 35.27, 49.72 42.09, 45.3 46.03 C40.88 49.97, 33.15 52.77, 27.41 53.19 C21.67 53.61, 15.27 51.89, 10.87 48.55 C6.47 45.21, 2.16 38.92, 1.01 33.14 C-0.14 27.36, 0.64 19.15, 3.97 13.88 C7.3 8.62, 17.57 3.61, 20.99 1.56 C24.41 -0.48, 24.69 1.18, 24.5 1.61 M37.05 0.79 C42.26 2.3, 47.49 7.68, 49.92 12.67 C52.34 17.66, 52.47 24.89, 51.6 30.74 C50.73 36.59, 49.02 44.02, 44.67 47.78 C40.32 51.53, 31.52 53.35, 25.48 53.27 C19.45 53.2, 12.85 51.21, 8.45 47.31 C4.05 43.4, -0.26 35.59, -0.91 29.85 C-1.57 24.12, 1.47 17.56, 4.5 12.87 C7.54 8.19, 11.96 3.59, 17.28 1.75 C22.6 -0.08, 33.28 1.89, 36.42 1.85 C39.56 1.81, 36.56 1.34, 36.13 1.52" stroke="#1e1e1e" stroke-width="1" fill="none"></path></g><g stroke-linecap="round" transform="translate(288.2686567164185 208.8059701492548) rotate(0 26.746268656716666 26.746268656716666)"><path d="M15.74 2.64 C20.56 0.32, 27.86 -0.07, 33.32 1.56 C38.78 3.18, 45 7.86, 48.5 12.4 C52 16.95, 54.85 23.28, 54.3 28.83 C53.75 34.38, 49.56 41.76, 45.19 45.71 C40.83 49.67, 33.7 52.24, 28.09 52.58 C22.48 52.91, 16.22 50.91, 11.54 47.7 C6.87 44.49, 1.45 38.76, 0.06 33.32 C-1.32 27.88, -0.17 20.54, 3.24 15.07 C6.64 9.6, 16.81 3.07, 20.5 0.49 C24.18 -2.09, 25.3 -0.76, 25.35 -0.43 M33.44 1.06 C38.6 2.21, 44.37 6.88, 47.94 11.32 C51.5 15.75, 55.03 22.1, 54.83 27.69 C54.64 33.28, 51.1 40.54, 46.77 44.84 C42.43 49.13, 34.65 52.61, 28.84 53.46 C23.03 54.31, 16.33 53.24, 11.9 49.95 C7.47 46.66, 3.98 39.51, 2.27 33.72 C0.56 27.94, -0.63 20.47, 1.64 15.24 C3.92 10, 10.82 4.51, 15.92 2.31 C21.02 0.11, 29.49 2.27, 32.24 2.05 C34.99 1.84, 32.31 0.59, 32.43 1.03" stroke="none" stroke-width="0" fill="#ffd8a8"></path><path d="M35.45 1.08 C40.85 2.21, 46.77 6.81, 49.86 11.49 C52.95 16.17, 54.69 23.47, 53.98 29.18 C53.26 34.9, 49.95 41.77, 45.59 45.76 C41.22 49.76, 33.53 52.67, 27.79 53.17 C22.06 53.68, 15.63 52.06, 11.18 48.78 C6.73 45.51, 2.33 39.28, 1.1 33.52 C-0.13 27.76, 1.11 19.34, 3.79 14.23 C6.48 9.12, 11.6 4.78, 17.19 2.86 C22.78 0.94, 33.99 2.56, 37.35 2.72 C40.71 2.89, 37.53 3.58, 37.35 3.85 M22.5 -0.49 C27.41 -1.67, 33.99 -0.13, 39.06 3.03 C44.12 6.19, 50.95 12.98, 52.87 18.49 C54.79 24, 52.95 30.81, 50.59 36.11 C48.23 41.41, 43.76 47.71, 38.72 50.29 C33.68 52.88, 25.67 52.78, 20.35 51.6 C15.03 50.42, 10.28 47.39, 6.82 43.2 C3.35 39.01, -0.47 32.11, -0.44 26.47 C-0.42 20.84, 3.07 13.85, 6.96 9.39 C10.84 4.92, 20.45 1.32, 22.86 -0.32 C25.26 -1.95, 21.6 -1.06, 21.39 -0.4" stroke="#1e1e1e" stroke-width="1" fill="none"></path></g><g stroke-linecap="round" transform="translate(170 86.77611940298448) rotate(0 26.746268656716666 26.746268656716666)"><path d="M16.01 2.5 C20.88 0.21, 28.91 0.42, 34.64 2 C40.36 3.57, 47.3 7.24, 50.36 11.95 C53.43 16.66, 54.09 24.62, 53.03 30.25 C51.98 35.89, 48.18 42.02, 44.03 45.77 C39.88 49.52, 33.88 52.39, 28.13 52.73 C22.38 53.08, 14.03 51.25, 9.53 47.84 C5.04 44.43, 2.28 37.91, 1.16 32.28 C0.04 26.64, 0.1 19.33, 2.8 14.03 C5.49 8.72, 14.62 2.68, 17.32 0.47 C20.01 -1.75, 18.62 0.02, 18.97 0.74 M18.56 2.06 C23.73 -0.03, 32.91 -0.32, 38.28 1.72 C43.65 3.76, 48.57 9.15, 50.78 14.3 C52.99 19.45, 52.89 26.93, 51.54 32.64 C50.19 38.36, 46.81 45.3, 42.67 48.6 C38.53 51.9, 32.44 53.01, 26.71 52.46 C20.99 51.92, 12.48 49.11, 8.32 45.3 C4.15 41.5, 2.46 34.88, 1.71 29.64 C0.95 24.39, 0.98 18.6, 3.79 13.85 C6.6 9.1, 15.92 2.89, 18.57 1.12 C21.23 -0.65, 19.71 2.88, 19.71 3.22" stroke="none" stroke-width="0" fill="#b2f2bb"></path><path d="M28.71 -0.58 C34.11 -0.78, 41.35 2.44, 45.53 6.34 C49.71 10.24, 53.25 17.08, 53.8 22.84 C54.35 28.6, 51.92 35.88, 48.82 40.89 C45.72 45.9, 40.52 51.02, 35.19 52.89 C29.86 54.76, 22.06 54.48, 16.85 52.09 C11.64 49.71, 6.45 43.66, 3.92 38.58 C1.38 33.5, 0.39 26.96, 1.63 21.6 C2.88 16.23, 6.27 9.74, 11.37 6.38 C16.48 3.02, 27.74 2.02, 32.26 1.45 C36.78 0.88, 38.52 2.55, 38.5 2.98 M17.66 0.32 C22.93 -1.35, 32.91 0.29, 38.22 2.66 C43.54 5.04, 47.29 9.5, 49.54 14.57 C51.8 19.65, 53.12 27.75, 51.76 33.12 C50.4 38.5, 45.67 43.51, 41.38 46.83 C37.08 50.15, 31.57 53.14, 25.99 53.06 C20.41 52.98, 12.14 50.2, 7.91 46.35 C3.67 42.51, 1.1 35.82, 0.57 29.99 C0.04 24.15, 1.84 16.38, 4.73 11.36 C7.61 6.34, 15.68 1.36, 17.88 -0.15 C20.08 -1.66, 17.67 1.46, 17.94 2.3" stroke="#1e1e1e" stroke-width="1" fill="none"></path></g><g stroke-linecap="round" transform="translate(170 167.85074626865799) rotate(0 26.746268656716666 26.746268656716666)"><path d="M30.21 0.97 C35.92 1.22, 43.79 4.19, 47.63 8.31 C51.48 12.44, 53.36 20.03, 53.28 25.72 C53.19 31.41, 50.58 38.04, 47.14 42.45 C43.7 46.86, 38.28 50.87, 32.64 52.19 C27.01 53.5, 18.37 52.91, 13.34 50.32 C8.31 47.73, 4.54 41.98, 2.48 36.63 C0.43 31.27, -0.55 23.8, 1.01 18.21 C2.58 12.61, 6.65 6.07, 11.89 3.04 C17.13 0, 28.45 0.03, 32.44 -0.01 C36.44 -0.04, 35.96 2.19, 35.86 2.84 M31.82 -0.03 C37.33 0.25, 43.57 4.47, 46.95 8.81 C50.34 13.14, 52.06 20.13, 52.14 25.98 C52.22 31.82, 50.54 39.56, 47.41 43.88 C44.29 48.2, 38.98 51.02, 33.38 51.9 C27.78 52.78, 18.78 51.79, 13.79 49.16 C8.8 46.52, 5.56 40.98, 3.42 36.1 C1.28 31.23, -0.57 25.27, 0.95 19.91 C2.46 14.55, 7.43 6.97, 12.5 3.94 C17.57 0.9, 28.54 2.34, 31.37 1.71 C34.21 1.08, 29.9 -0.08, 29.5 0.14" stroke="none" stroke-width="0" fill="#eebefa"></path><path d="M26.66 -0.71 C32.05 -1.19, 39.57 1.67, 43.88 5.3 C48.18 8.93, 51.35 15.28, 52.49 21.08 C53.64 26.87, 53.32 34.87, 50.73 40.07 C48.15 45.27, 42.24 50.34, 37 52.27 C31.75 54.2, 24.58 53.47, 19.24 51.67 C13.9 49.87, 7.97 46.12, 4.96 41.47 C1.94 36.82, 0.62 29.41, 1.15 23.74 C1.67 18.07, 2.75 11.28, 8.12 7.43 C13.49 3.59, 28.32 1.22, 33.36 0.67 C38.41 0.11, 38.71 3.68, 38.39 4.11 M20.37 1.45 C25.58 -0.26, 31.74 -0.15, 36.65 2.16 C41.57 4.48, 47.41 10.36, 49.86 15.33 C52.31 20.3, 52.47 26.52, 51.36 31.98 C50.25 37.44, 47.7 44.5, 43.18 48.1 C38.67 51.7, 30.05 53.94, 24.26 53.6 C18.47 53.26, 12.42 50.2, 8.44 46.05 C4.47 41.91, 1.26 34.67, 0.43 28.73 C-0.41 22.78, 0.46 14.9, 3.42 10.39 C6.38 5.88, 15.55 2.95, 18.2 1.66 C20.85 0.38, 19.18 2.54, 19.31 2.69" stroke="#1e1e1e" stroke-width="1" fill="none"></path></g><g stroke-linecap="round" transform="translate(396.5074626865668 131.91044776119406) rotate(0 26.746268656716666 26.746268656716666)"><path d="M34.93 0.39 C40.29 1.38, 45.68 6.78, 48.64 11.48 C51.61 16.18, 53.2 22.95, 52.74 28.57 C52.28 34.18, 49.98 41.01, 45.86 45.15 C41.73 49.29, 33.68 52.88, 27.99 53.43 C22.29 53.97, 16.28 51.8, 11.7 48.42 C7.12 45.04, 2.14 38.88, 0.5 33.17 C-1.14 27.46, -0.55 19.43, 1.87 14.17 C4.3 8.91, 9.35 3.55, 15.07 1.59 C20.8 -0.37, 32.62 2.12, 36.23 2.4 C39.83 2.69, 36.88 3.05, 36.7 3.32 M34.14 0.92 C39.03 2.1, 44.26 6.87, 47.39 11.7 C50.53 16.53, 53.09 24.38, 52.96 29.89 C52.83 35.4, 50.69 41.03, 46.62 44.74 C42.55 48.46, 34.17 51.66, 28.53 52.19 C22.89 52.71, 17.44 50.77, 12.77 47.9 C8.1 45.03, 2.23 40.4, 0.52 34.95 C-1.19 29.5, -0.15 20.36, 2.51 15.19 C5.17 10.01, 11.42 6.38, 16.48 3.9 C21.55 1.42, 30.24 0.69, 32.92 0.3 C35.6 -0.09, 32.58 0.85, 32.57 1.56" stroke="none" stroke-width="0" fill="#e9ecef"></path><path d="M19.29 0.74 C24.2 -1.13, 31.32 -0.61, 36.59 1.78 C41.87 4.17, 48.18 9.82, 50.95 15.07 C53.73 20.32, 54.41 27.85, 53.24 33.26 C52.06 38.67, 48.36 44.06, 43.9 47.54 C39.44 51.03, 32.24 54.2, 26.5 54.16 C20.77 54.12, 14.01 51.19, 9.49 47.31 C4.97 43.42, 0.12 36.68, -0.64 30.85 C-1.4 25.02, 0.83 17.33, 4.93 12.33 C9.04 7.32, 19.92 2.74, 23.98 0.8 C28.05 -1.14, 29.3 0.52, 29.3 0.68 M18.68 0.7 C23.54 -1.09, 31.87 0.43, 37.04 2.66 C42.2 4.88, 46.95 8.92, 49.68 14.02 C52.41 19.12, 54.78 27.47, 53.44 33.27 C52.1 39.07, 46.42 45.45, 41.66 48.83 C36.89 52.22, 30.42 54.21, 24.83 53.58 C19.25 52.95, 12.47 49.32, 8.14 45.03 C3.82 40.74, -0.37 33.33, -1.14 27.84 C-1.92 22.35, 0.06 16.39, 3.49 12.1 C6.92 7.81, 16.9 4.05, 19.43 2.1 C21.96 0.16, 18.69 0.21, 18.68 0.43" stroke="#1e1e1e" stroke-width="1" fill="none"></path></g><g stroke-linecap="round"><g transform="translate(215.97014925373196 95.97014925373173) rotate(0 36.34071076208227 -8.780493951270614)"><path d="M0 0 C22.6 -6.18, 43.71 -10.85, 72.68 -17.56 M0 0 C19.2 -4.42, 37.78 -8.36, 72.68 -17.56" stroke="#1e1e1e" stroke-width="1" fill="none"></path></g></g><mask></mask><g stroke-linecap="round"><g transform="translate(342.1878535741836 78.42665954433278) rotate(0 34.7166307768519 29.59175989259063)"><path d="M0 0 C18.07 13.72, 32.74 28.28, 69.43 59.18 M0 0 C25.01 21.09, 47.86 41.6, 69.43 59.18" stroke="#1e1e1e" stroke-width="1" fill="none"></path></g></g><mask></mask><g stroke-linecap="round"><g transform="translate(342.1791044776131 158.6982648185076) rotate(0 27.649923267963914 0.41353589947573255)"><path d="M0 0 C11.68 -0.11, 26.07 1.87, 55.3 0.83 M0 0 C18.3 0.76, 38.21 0.91, 55.3 0.83" stroke="#1e1e1e" stroke-width="1" fill="none"></path></g></g><mask></mask><g stroke-linecap="round"><g transform="translate(338.02624728971387 228.0298507462703) rotate(0 31.496449206680893 -23.402985074627054)"><path d="M0 0 C17.02 -10.41, 32.8 -22.14, 62.99 -46.81 M0 0 C25.63 -18.12, 50.53 -38.2, 62.99 -46.81" stroke="#1e1e1e" stroke-width="1" fill="none"></path></g></g><mask></mask><g stroke-linecap="round"><g transform="translate(225.16417910447797 110.17910447761187) rotate(0 32.50730846822188 18.473391610359045)"><path d="M0 0 C18.65 10.97, 37.41 18.79, 65.01 36.95 M0 0 C27.06 13.31, 52.77 29.6, 65.01 36.95" stroke="#1e1e1e" stroke-width="1" fill="none"></path></g></g><mask></mask><g stroke-linecap="round"><g transform="translate(216.80597014925422 130.23880597014931) rotate(0 37.26623811475696 43.79526510605956)"><path d="M0 0 C29.14 30.26, 56.22 64.25, 74.53 87.59 M0 0 C30.23 35.16, 58.33 67.96, 74.53 87.59" stroke="#1e1e1e" stroke-width="1" fill="none"></path></g></g><mask></mask><g stroke-linecap="round"><g transform="translate(219.84292248216173 176.89161049481277) rotate(0 38.16989272600409 -40.86989197173102)"><path d="M0 0 C29.15 -28.16, 56.84 -57.7, 76.34 -81.74 M0 0 C15.81 -18.37, 32.84 -36.15, 76.34 -81.74" stroke="#1e1e1e" stroke-width="1" fill="none"></path></g></g><mask></mask><g stroke-linecap="round"><g transform="translate(222.65671641791107 193.76119402985137) rotate(0 34.53357395185503 -12.545922973075335)"><path d="M0 0 C19 -5.07, 33.08 -11.85, 69.07 -25.09 M0 0 C26.3 -9.67, 51.18 -18.94, 69.07 -25.09" stroke="#1e1e1e" stroke-width="1" fill="none"></path></g></g><mask></mask><g stroke-linecap="round"><g transform="translate(214.21241206029208 204.93285209629084) rotate(0 36.3881330115654 16.554675601553186)"><path d="M0 0 C25.48 12.96, 55.52 23.85, 72.78 33.11 M0 0 C19.73 8.77, 38.34 17.68, 72.78 33.11" stroke="#1e1e1e" stroke-width="1" fill="none"></path></g></g><mask></mask><g stroke-linecap="round" transform="translate(450 330) rotate(0 70 110)"><path d="M32 0 C50.52 -1.09, 72.57 1.16, 108 0 C131.12 -3.15, 139.41 7.66, 140 32 C143.62 88.78, 141.35 139.44, 140 188 C141.21 211.58, 131.71 223.92, 108 220 C83.11 218.38, 57.21 219.55, 32 220 C13.1 223.22, -5.19 214.6, 0 188 C-0.85 142.24, 0.88 95.41, 0 32 C0.34 15.68, 12.22 -3.07, 32 0" stroke="none" stroke-width="0" fill="#e9ecef"></path><path d="M32 0 C47.52 -0.49, 64.68 -0.68, 108 0 M32 0 C60.68 -2.7, 90.29 -1.82, 108 0 M108 0 C127.23 -0.58, 142.4 7.84, 140 32 M108 0 C129.6 -0.58, 140.8 7.54, 140 32 M140 32 C136.07 78.75, 139.96 128.49, 140 188 M140 32 C136.8 63.49, 135.05 100.06, 140 188 M140 188 C139.47 207.44, 130.84 220.6, 108 220 M140 188 C144.58 204.77, 127.47 216.94, 108 220 M108 220 C85.46 219.99, 67.31 219.65, 32 220 M108 220 C84.79 219.4, 57.93 218.74, 32 220 M32 220 C11.71 216.88, 3.21 209.59, 0 188 M32 220 C7.38 216.33, -3.02 212.32, 0 188 M0 188 C-0.59 146.53, -0.91 102.76, 0 32 M0 188 C3.34 128.28, 3.72 68.58, 0 32 M0 32 C3.77 12.91, 9.9 2.78, 32 0 M0 32 C-0.41 7.13, 10.05 -3.44, 32 0" stroke="#1e1e1e" stroke-width="4" fill="none"></path></g><g stroke-linecap="round" transform="translate(470 450) rotate(0 10 10)"><path d="M6.23 1.04 C8.05 0.3, 10.59 -0.29, 12.55 0.39 C14.5 1.07, 16.73 3.37, 17.96 5.13 C19.19 6.89, 20.04 8.8, 19.93 10.96 C19.82 13.12, 18.86 16.55, 17.3 18.09 C15.74 19.63, 12.76 20.16, 10.55 20.19 C8.34 20.22, 5.69 19.51, 4.04 18.27 C2.39 17.03, 1.11 14.87, 0.64 12.76 C0.17 10.64, 0.21 7.68, 1.21 5.58 C2.21 3.47, 5.53 1.11, 6.63 0.11 C7.73 -0.89, 7.66 -0.71, 7.79 -0.42 M12.94 1.86 C15.24 2.23, 17.61 3.61, 18.87 5.38 C20.13 7.15, 20.69 10.5, 20.5 12.49 C20.31 14.49, 19.15 16.02, 17.73 17.34 C16.3 18.66, 14.38 20.32, 11.96 20.4 C9.54 20.47, 5.21 19.13, 3.24 17.77 C1.26 16.42, 0.48 14.08, 0.13 12.26 C-0.22 10.45, 0.3 8.58, 1.13 6.89 C1.96 5.19, 3.25 3.2, 5.11 2.07 C6.97 0.95, 10.96 0.18, 12.27 0.15 C13.58 0.11, 12.78 1.74, 12.99 1.86" stroke="none" stroke-width="0" fill="#e9ecef"></path><path d="M13.36 0.61 C15.53 1.01, 18.39 1.95, 19.42 3.62 C20.44 5.28, 20.04 8.23, 19.51 10.62 C18.98 13.01, 17.7 16.56, 16.22 17.95 C14.75 19.35, 12.75 19.16, 10.68 19.01 C8.62 18.87, 5.61 18.18, 3.84 17.09 C2.07 16.01, 0.43 14.41, 0.07 12.5 C-0.29 10.59, 0.51 7.67, 1.69 5.64 C2.86 3.6, 5.17 1.27, 7.13 0.29 C9.09 -0.69, 12.33 -0.21, 13.46 -0.24 C14.58 -0.27, 13.81 -0.2, 13.86 0.11 M7.48 0.14 C9.42 -0.53, 10.88 -0.23, 12.6 0.58 C14.32 1.39, 16.76 3.29, 17.82 5.02 C18.87 6.75, 18.97 9.1, 18.94 10.98 C18.91 12.85, 19.04 14.69, 17.65 16.25 C16.26 17.82, 13.05 20.03, 10.6 20.39 C8.15 20.74, 4.93 19.58, 2.97 18.39 C1.02 17.19, -1 15.49, -1.14 13.23 C-1.28 10.96, 0.69 6.9, 2.14 4.78 C3.59 2.66, 7 1.19, 7.55 0.5 C8.1 -0.2, 5.72 0.44, 5.42 0.62" stroke="#1e1e1e" stroke-width="4" fill="none"></path></g><g stroke-linecap="round"><g transform="translate(570 390) rotate(0 -50 0)"><path d="M-0.8 -0.92 C-17.55 -1.25, -83.99 -1.3, -100.54 -1.08 M0.99 1.22 C-15.97 0.91, -84.79 0.39, -101.76 -0.11" stroke="#1e1e1e" stroke-width="4" fill="none"></path></g></g><mask></mask><g stroke-linecap="round"><g transform="translate(571.764075063318 351.211033063435) rotate(0 -50 0)"><path d="M0.04 0.35 C-16.8 0.14, -83.82 -0.17, -100.52 -0.4 M-1.4 -0.51 C-18.49 -0.62, -85.14 0.88, -101.74 0.93" stroke="#1e1e1e" stroke-width="4" fill="none"></path></g></g><mask></mask><g stroke-linecap="round"><g transform="translate(571.764075063318 371.211033063435) rotate(0 -50 0)"><path d="M0.43 0.72 C-16.17 0.71, -82.92 1.2, -99.55 1.09 M-0.8 0.06 C-17.53 0.25, -83.77 -0.68, -100.26 -0.45" stroke="#1e1e1e" stroke-width="4" fill="none"></path></g></g><mask></mask><g stroke-linecap="round"><g transform="translate(571.764075063318 411.211033063435) rotate(0 -50 0)"><path d="M-0.06 0.07 C-16.51 -0.03, -82.44 -0.63, -98.93 -0.72 M-1.55 -0.94 C-18.05 -0.89, -83.03 0.18, -99.31 0.44" stroke="#1e1e1e" stroke-width="4" fill="none"></path></g></g><mask></mask><g stroke-linecap="round"><g transform="translate(789.4780011334269 61.215108265600065) rotate(0 -3.527227684353477 117.48381440961828)" fill-rule="evenodd"><path d="M-2.03 -2.13 C1.83 -1.81, 16.68 -0.02, 23.14 2.65 C29.6 5.32, 34.17 9.73, 36.74 13.89 C39.32 18.06, 35.85 23.02, 38.57 27.65 C41.3 32.28, 47.73 41.05, 53.1 41.69 C58.47 42.34, 65.19 32.32, 70.82 31.53 C76.46 30.75, 79.95 29.25, 86.91 36.99 C93.88 44.72, 108.81 68.39, 112.6 77.96 C116.4 87.53, 112.31 89.49, 109.68 94.42 C107.04 99.36, 99.82 102.57, 96.81 107.58 C93.8 112.58, 89.31 119.21, 91.61 124.46 C93.92 129.71, 107.7 133.66, 110.65 139.08 C113.6 144.5, 113.14 147.53, 109.31 156.96 C105.47 166.39, 93.85 187.79, 87.64 195.66 C81.42 203.53, 77.38 204.43, 72 204.17 C66.62 203.9, 61.18 193.91, 55.36 194.06 C49.54 194.22, 40.24 200.44, 37.08 205.12 C33.92 209.79, 37.99 217.26, 36.4 222.12 C34.82 226.98, 38.43 232.37, 27.54 234.27 C16.65 236.16, -17.51 234.96, -28.93 233.5 C-40.36 232.05, -38.56 229.68, -41.02 225.54 C-43.47 221.4, -40.1 213.38, -43.64 208.67 C-47.18 203.96, -56.95 197.72, -62.25 197.29 C-67.56 196.87, -71.07 205.77, -75.49 206.11 C-79.91 206.46, -82.11 207.19, -88.75 199.36 C-95.39 191.52, -111.24 168.96, -115.3 159.11 C-119.36 149.26, -115.66 145.84, -113.1 140.26 C-110.55 134.69, -102.6 130.91, -100 125.65 C-97.4 120.39, -95.68 113.09, -97.5 108.71 C-99.32 104.33, -107.65 103.45, -110.93 99.35 C-114.22 95.25, -120.89 94.07, -117.19 84.1 C-113.49 74.12, -95.81 47.86, -88.75 39.5 C-81.69 31.13, -79.57 33.52, -74.86 33.9 C-70.15 34.27, -66.48 42.47, -60.49 41.75 C-54.5 41.02, -42.06 34.28, -38.91 29.55 C-35.76 24.82, -42.63 17.77, -41.59 13.36 C-40.56 8.94, -39.75 5.53, -32.7 3.06 C-25.65 0.59, -4.39 -1.36, 0.7 -1.48" stroke="none" stroke-width="0" fill="#868e96" fill-rule="evenodd"></path><path d="M-0.51 0.88 C3.96 1.33, 19.92 0.09, 26.31 1.97 C32.69 3.85, 36.15 7.63, 37.81 12.16 C39.48 16.68, 33.71 24.45, 36.29 29.12 C38.87 33.8, 47.42 39.57, 53.3 40.22 C59.18 40.87, 66.35 33.47, 71.58 33.04 C76.81 32.61, 78.22 30.35, 84.68 37.63 C91.14 44.92, 105.77 67.08, 110.35 76.76 C114.93 86.44, 114.58 90.72, 112.16 95.71 C109.73 100.69, 99.23 101.81, 95.79 106.66 C92.36 111.51, 89.12 119.62, 91.53 124.81 C93.93 130, 106.88 132.86, 110.23 137.81 C113.57 142.77, 115.34 144.41, 111.6 154.53 C107.86 164.66, 94.57 190.14, 87.77 198.56 C80.96 206.99, 76.51 205.42, 70.8 205.08 C65.08 204.74, 58.99 196.38, 53.45 196.55 C47.91 196.72, 40.56 201.89, 37.54 206.09 C34.52 210.3, 36.56 216.85, 35.31 221.78 C34.06 226.7, 40.73 233.41, 30.02 235.66 C19.31 237.92, -17.09 236.86, -28.93 235.31 C-40.77 233.76, -38.87 230.26, -41.01 226.36 C-43.15 222.46, -38.48 216.96, -41.75 211.9 C-45.02 206.83, -54.93 197.16, -60.62 195.95 C-66.32 194.75, -71.45 204.25, -75.93 204.65 C-80.41 205.06, -81.1 206.22, -87.53 198.39 C-93.96 190.55, -110.07 167.39, -114.53 157.64 C-119 147.88, -117.22 144.84, -114.32 139.86 C-111.42 134.89, -99.8 133.34, -97.13 127.79 C-94.46 122.23, -96.25 111.28, -98.3 106.55 C-100.36 101.82, -106.07 103.68, -109.44 99.42 C-112.81 95.16, -121.76 91.32, -118.52 80.99 C-115.28 70.67, -97.02 45.37, -90.01 37.47 C-83 29.58, -81.37 33.19, -76.45 33.6 C-71.53 34.01, -66.46 40.53, -60.48 39.93 C-54.51 39.33, -43.75 34.28, -40.6 30.01 C-37.44 25.74, -42.97 19.16, -41.53 14.3 C-40.1 9.44, -38.9 3.36, -31.99 0.85 C-25.07 -1.67, -5.32 -0.79, -0.05 -0.78 M1.42 0.29 C5.85 0.48, 19.76 -1.9, 25.78 0.32 C31.8 2.53, 35.78 9.14, 37.52 13.59 C39.26 18.05, 33.31 22.58, 36.22 27.04 C39.13 31.5, 49.37 39.45, 54.98 40.36 C60.6 41.28, 64.92 33.2, 69.88 32.54 C74.85 31.88, 78.17 29.05, 84.76 36.39 C91.35 43.72, 105.05 66.36, 109.42 76.55 C113.79 86.74, 113.08 92.5, 110.97 97.52 C108.85 102.53, 99.96 101.99, 96.71 106.65 C93.46 111.32, 89.4 120.39, 91.47 125.51 C93.54 130.63, 105.71 132.69, 109.14 137.38 C112.56 142.07, 115.71 143.44, 112.02 153.64 C108.32 163.85, 93.83 190.11, 86.98 198.63 C80.14 207.16, 76.41 204.91, 70.97 204.78 C65.53 204.66, 60.11 197.58, 54.34 197.86 C48.57 198.15, 39.21 202.46, 36.34 206.49 C33.47 210.53, 38.36 217.09, 37.14 222.05 C35.92 227.02, 40.01 234.34, 29.01 236.28 C18.02 238.22, -17.04 234.99, -28.82 233.71 C-40.6 232.43, -39.54 232.38, -41.69 228.59 C-43.84 224.8, -38.63 216.59, -41.73 210.97 C-44.83 205.34, -54.76 196.03, -60.28 194.83 C-65.8 193.64, -70.05 203.18, -74.84 203.8 C-79.64 204.42, -82.53 206.26, -89.05 198.56 C-95.57 190.87, -109.45 167.4, -113.97 157.63 C-118.48 147.85, -118.67 145.09, -116.14 139.91 C-113.62 134.74, -101.75 131.97, -98.82 126.59 C-95.88 121.21, -97.01 111.83, -98.53 107.65 C-100.06 103.47, -104.56 105.73, -107.97 101.51 C-111.38 97.29, -122.08 92.76, -119.01 82.31 C-115.93 71.86, -96.88 46.94, -89.51 38.83 C-82.15 30.72, -79.93 33.29, -74.83 33.65 C-69.73 34.01, -64.83 41.73, -58.9 40.98 C-52.97 40.23, -42.19 33.34, -39.25 29.14 C-36.31 24.94, -42.19 20.19, -41.25 15.8 C-40.32 11.41, -40.62 5.14, -33.64 2.81 C-26.65 0.48, -4.75 2.55, 0.65 1.81" stroke="#1e1e1e" stroke-width="1" fill="none"></path></g></g><mask></mask><g stroke-linecap="round"><g transform="translate(784.6924778954733 181.53304799313514) rotate(0 2.170601651909493 -2.1706016519098057)" fill-rule="evenodd"><path d="M-0.8 2.41 C1.75 3.49, 6.39 10.8, 13.39 7.57 C20.38 4.35, 36.5 -16.49, 41.15 -16.93 C45.8 -17.37, 43.67 -2.47, 41.31 4.94 C38.95 12.36, 32.77 22.23, 27 27.56 C21.22 32.89, 12.74 36.08, 6.66 36.93 C0.59 37.78, -2.12 29.85, -9.47 32.64 C-16.82 35.43, -36.72 47.76, -37.43 53.67 C-38.13 59.57, -23.24 66.1, -13.71 68.09 C-4.17 70.07, 9.57 68.98, 19.78 65.56 C30 62.13, 39.85 56.15, 47.59 47.53 C55.34 38.91, 62.96 25.35, 66.26 13.83 C69.56 2.31, 69.95 -10.58, 67.38 -21.6 C64.81 -32.61, 57.49 -44.94, 50.84 -52.26 C44.19 -59.58, 37.45 -62.44, 27.48 -65.51 C17.51 -68.57, 3.93 -73.32, -8.98 -70.66 C-21.89 -68.01, -40.67 -58.11, -49.96 -49.58 C-59.26 -41.05, -62.03 -29.76, -64.76 -19.48 C-67.49 -9.19, -68.03 3.38, -66.35 12.11 C-64.68 20.84, -60.14 32.7, -54.69 32.88 C-49.24 33.06, -36.71 19.18, -33.65 13.17 C-30.59 7.17, -37.27 3.35, -36.32 -3.13 C-35.37 -9.61, -32.79 -18.94, -27.94 -25.69 C-23.09 -32.45, -14.51 -41.56, -7.19 -43.66 C0.13 -45.75, 16.51 -43.83, 15.97 -38.25 C15.44 -32.68, -7.71 -16.87, -10.4 -10.22 C-13.09 -3.56, -1.77 -0.4, -0.17 1.69" stroke="none" stroke-width="0" fill="#fff" fill-rule="evenodd"></path><path d="M0.89 0.35 C2.72 1.69, 4.81 10.55, 11.4 8.03 C17.98 5.51, 35.09 -14.25, 40.42 -14.78 C45.75 -15.31, 45.21 -2.32, 43.37 4.84 C41.53 11.99, 35.79 22.82, 29.36 28.14 C22.94 33.46, 11.66 35.85, 4.84 36.76 C-1.99 37.67, -4.71 30.66, -11.58 33.61 C-18.44 36.55, -35.51 48.91, -36.36 54.43 C-37.22 59.95, -25.92 64.91, -16.7 66.74 C-7.49 68.56, 7.83 68.62, 18.93 65.36 C30.04 62.11, 41.67 55.49, 49.95 47.21 C58.23 38.92, 65.38 27.51, 68.61 15.64 C71.85 3.76, 72.07 -12.9, 69.36 -24.07 C66.65 -35.24, 59.36 -44.3, 52.33 -51.4 C45.3 -58.5, 37.55 -63.64, 27.17 -66.66 C16.78 -69.68, 2.59 -71.98, -9.97 -69.5 C-22.53 -67.01, -39.14 -59.89, -48.2 -51.76 C-57.26 -43.62, -61.47 -31.63, -64.33 -20.7 C-67.19 -9.77, -67.11 4.95, -65.36 13.84 C-63.62 22.73, -59.14 33.09, -53.87 32.66 C-48.6 32.22, -37.19 17.68, -33.73 11.24 C-30.28 4.81, -34.48 0.24, -33.12 -5.96 C-31.76 -12.17, -30.34 -19.91, -25.57 -25.97 C-20.81 -32.04, -11.85 -39.85, -4.54 -42.36 C2.76 -44.88, 18.86 -45.97, 18.23 -41.06 C17.61 -36.15, -5.18 -19.85, -8.29 -12.88 C-11.41 -5.91, -1.96 -1.33, -0.47 0.78 M-0.1 -0.51 C2.06 0.97, 6.94 11.91, 13.54 9.23 C20.14 6.54, 34.45 -16.07, 39.51 -16.62 C44.57 -17.17, 45.72 -1.56, 43.88 5.91 C42.05 13.39, 34.82 23.21, 28.5 28.21 C22.17 33.21, 12.58 35.21, 5.94 35.93 C-0.69 36.65, -4.61 29.48, -11.31 32.52 C-18.02 35.56, -33.65 48.61, -34.3 54.17 C-34.95 59.74, -24.26 64.06, -15.22 65.92 C-6.18 67.78, 8.99 68.23, 19.96 65.32 C30.92 62.42, 42.68 56.83, 50.57 48.47 C58.46 40.11, 64.12 27.4, 67.33 15.16 C70.53 2.91, 72.46 -13.84, 69.82 -24.99 C67.18 -36.15, 58.52 -44.77, 51.47 -51.8 C44.42 -58.83, 37.6 -63.87, 27.52 -67.17 C17.43 -70.48, 3.21 -74.27, -9.04 -71.64 C-21.3 -69.01, -36.57 -59.99, -46.03 -51.4 C-55.48 -42.81, -62.86 -31.03, -65.77 -20.09 C-68.69 -9.15, -65.6 5.69, -63.5 14.24 C-61.41 22.79, -58 31.87, -53.18 31.21 C-48.36 30.55, -37.46 16.12, -34.58 10.26 C-31.71 4.4, -37.43 2.29, -35.93 -3.94 C-34.44 -10.16, -30.55 -20.63, -25.63 -27.09 C-20.7 -33.55, -13.4 -40.34, -6.39 -42.7 C0.61 -45.06, 16.54 -46.15, 16.4 -41.24 C16.26 -36.33, -4.61 -20.24, -7.22 -13.24 C-9.83 -6.24, -0.24 -1.74, 0.75 0.75" stroke="#1e1e1e" stroke-width="1" fill="none"></path></g></g><mask></mask></svg>