<svg version="1.1" xmlns="http://www.w3.org/2000/svg" viewBox="0 0 1051.111111111111 600" width="2102.222222222222" height="1200">
  <!-- svg-source:excalidraw -->
  
  <defs>
    <style class="style-fonts">
      @font-face {
        font-family: "Virgil";
        src: url("https://excalidraw.com/Virgil.woff2");
      }
      @font-face {
        font-family: "Cascadia";
        src: url("https://excalidraw.com/Cascadia.woff2");
      }
      @font-face {
        font-family: "Assistant";
        src: url("https://excalidraw.com/Assistant-Regular.woff2");
      }
    </style>
    
  </defs>
  <g stroke-linecap="round" transform="translate(10 10) rotate(0 515.5555555555555 290)"><path d="M32 0 C315.64 -5.56, 601.31 -4.22, 999.11 0 C1020.87 -3.5, 1031.4 9.52, 1031.11 32 C1026.36 205.8, 1026.59 380.53, 1031.11 548 C1033.12 572.82, 1020.35 580.31, 999.11 580 C731.85 582.74, 463.41 581.18, 32 580 C9.98 580.9, -3.55 567.18, 0 548 C-0.98 442.6, -1.61 335.31, 0 32 C0.12 10.3, 9.77 0.97, 32 0" stroke="none" stroke-width="0" fill="#ffffff"></path><path d="M32 0 C274.27 1.05, 516.45 0.65, 999.11 0 M32 0 C347.14 3.71, 661.98 3.39, 999.11 0 M999.11 0 C1020.11 -0.4, 1029.92 10.72, 1031.11 32 M999.11 0 C1021.85 -0.81, 1030.55 12.32, 1031.11 32 M1031.11 32 C1032.27 145.29, 1032.46 257.06, 1031.11 548 M1031.11 32 C1031.55 170.83, 1031.52 309.81, 1031.11 548 M1031.11 548 C1029.86 568.63, 1021.23 579.82, 999.11 580 M1031.11 548 C1032.36 567.05, 1022.4 578.79, 999.11 580 M999.11 580 C784.63 580.4, 569.44 580.35, 32 580 M999.11 580 C639.19 582.71, 279.02 582.52, 32 580 M32 580 C12.45 581.19, 1.65 568.03, 0 548 M32 580 C12.38 581.69, 1.58 569.33, 0 548 M0 548 C-0.16 423.6, -0.27 298.26, 0 32 M0 548 C-1.83 372.88, -2.04 197.85, 0 32 M0 32 C0.06 10.55, 10.33 1.43, 32 0 M0 32 C-0.13 9.99, 12.24 0.15, 32 0" stroke="#1971c2" stroke-width="4" fill="none"></path></g><g stroke-opacity="0.8" fill-opacity="0.8" stroke-linecap="round" transform="translate(51.84511880656555 196.71244661079186) rotate(0 108.61616089507643 108.6161608950764)"><path d="M170.92 18.9 C182.17 24.65, 192.5 35.53, 199.52 46.18 C206.55 56.82, 210.58 69.96, 213.08 82.76 C215.58 95.56, 216.49 109.52, 214.52 122.96 C212.55 136.4, 207.16 151.77, 201.27 163.39 C195.39 175.02, 189.03 184.71, 179.22 192.72 C169.42 200.72, 155.2 207.3, 142.42 211.42 C129.64 215.55, 115.58 217.76, 102.55 217.45 C89.51 217.14, 76.27 215.05, 64.21 209.57 C52.14 204.09, 39.44 194.14, 30.15 184.57 C20.87 175, 13.85 164.32, 8.5 152.14 C3.16 139.96, -1.15 124.55, -1.89 111.51 C-2.64 98.47, -0.85 86, 4.04 73.9 C8.92 61.8, 18.52 49.09, 27.41 38.9 C36.3 28.72, 46.37 19.12, 57.39 12.8 C68.4 6.48, 80.71 2.69, 93.51 0.99 C106.31 -0.71, 118.92 -2.36, 134.18 2.6 C149.45 7.57, 175.01 23.82, 185.1 30.78 C195.19 37.74, 195.85 43.38, 194.71 44.38 M18.66 45.08 C24.06 34.35, 35.75 26.48, 46.16 18.96 C56.57 11.45, 68.18 2.5, 81.12 -0.02 C94.05 -2.53, 110.04 1.17, 123.76 3.88 C137.48 6.6, 152.41 10.67, 163.42 16.25 C174.44 21.84, 181.51 27.37, 189.86 37.42 C198.2 47.47, 209.03 63.95, 213.5 76.56 C217.96 89.18, 217.32 100.66, 216.64 113.12 C215.95 125.57, 214.43 138.86, 209.37 151.29 C204.31 163.72, 195.87 178.59, 186.28 187.71 C176.7 196.83, 164.13 201.23, 151.87 206.01 C139.61 210.79, 125.95 215.07, 112.74 216.37 C99.52 217.67, 84.36 217.66, 72.57 213.81 C60.79 209.96, 51.53 202.01, 42.05 193.28 C32.57 184.55, 22.73 173.45, 15.68 161.44 C8.64 149.43, 2.14 134.26, -0.2 121.22 C-2.54 108.19, -2.01 95.11, 1.66 83.21 C5.34 71.3, 18.22 55.35, 21.84 49.78 C25.45 44.21, 22.81 48.74, 23.34 49.79" stroke="#086789" stroke-width="4" fill="none"></path></g><g stroke-opacity="0.8" fill-opacity="0.8" stroke-linecap="round" transform="translate(65.13787477748315 209.07348774326078) rotate(0 95.14757872583687 95.14757872583687)"><path d="M105.19 0.15 C116.79 -0.26, 129.78 4.62, 140.28 10.47 C150.79 16.32, 160.42 25.72, 168.22 35.25 C176.02 44.79, 183.53 56.1, 187.08 67.69 C190.64 79.27, 190.85 92.78, 189.58 104.76 C188.3 116.74, 184.95 128.91, 179.42 139.56 C173.9 150.2, 165.97 160.83, 156.42 168.62 C146.88 176.42, 133.82 182.76, 122.16 186.34 C110.5 189.93, 98.39 191.46, 86.45 190.13 C74.5 188.8, 61.4 184.21, 50.51 178.36 C39.63 172.5, 28.92 164.24, 21.13 154.99 C13.34 145.74, 7.15 134.41, 3.77 122.85 C0.4 111.29, -0.4 97.67, 0.88 85.63 C2.16 73.6, 5.94 61.17, 11.45 50.65 C16.95 40.14, 24.76 30.33, 33.91 22.53 C43.05 14.74, 53.45 7.28, 66.33 3.9 C79.21 0.52, 102.54 2.25, 111.19 2.24 C119.84 2.22, 118.4 2.23, 118.25 3.8 M118.91 3.66 C130.41 4.74, 142.41 10.46, 151.99 17.36 C161.58 24.26, 170.42 34.29, 176.42 45.06 C182.43 55.83, 186.22 69.55, 188.04 81.97 C189.85 94.39, 189.82 108.09, 187.3 119.58 C184.78 131.07, 180.37 141.29, 172.9 150.93 C165.43 160.57, 153.03 170.91, 142.48 177.44 C131.94 183.97, 121.55 188.34, 109.62 190.13 C97.69 191.91, 82.93 191.24, 70.92 188.14 C58.91 185.03, 47.01 178.84, 37.54 171.48 C28.08 164.12, 20.34 154.51, 14.13 143.97 C7.93 133.43, 2.19 120.38, 0.34 108.25 C-1.51 96.12, -0.3 82.81, 3.02 71.17 C6.34 59.53, 13.24 48, 20.28 38.39 C27.32 28.77, 35.17 19.61, 45.28 13.48 C55.39 7.35, 68.92 3.37, 80.93 1.61 C92.93 -0.15, 111 2.26, 117.31 2.92 C123.62 3.58, 118.85 3.89, 118.78 5.57" stroke="none" stroke-width="0" fill="#086789"></path><path d="M51.03 10.14 C60.4 3.35, 73.58 0.59, 85.47 -0.53 C97.37 -1.65, 110.8 -0.4, 122.37 3.42 C133.95 7.24, 145.28 14.54, 154.92 22.4 C164.56 30.27, 174.37 40.02, 180.21 50.62 C186.05 61.21, 188.99 73.86, 189.96 85.98 C190.93 98.1, 189.58 111.53, 186.02 123.33 C182.46 135.13, 176.42 147.49, 168.6 156.8 C160.79 166.1, 149.93 173.59, 139.15 179.15 C128.36 184.7, 116.06 189.07, 103.89 190.13 C91.73 191.18, 77.89 189.04, 66.17 185.48 C54.44 181.93, 42.58 176.39, 33.54 168.79 C24.5 161.18, 17.38 150.67, 11.93 139.85 C6.48 129.02, 2.2 115.95, 0.83 103.84 C-0.55 91.73, 0.22 78.79, 3.7 67.19 C7.19 55.59, 12.36 44.31, 21.75 34.24 C31.13 24.16, 52 11.66, 60.01 6.74 C68.03 1.82, 69.19 3.39, 69.85 4.72 M50.62 9.93 C60.02 3.49, 73.95 1.6, 85.84 0.42 C97.73 -0.77, 110.28 -0.99, 121.97 2.84 C133.66 6.67, 146.26 15.19, 155.98 23.4 C165.7 31.6, 174.81 41.72, 180.26 52.06 C185.72 62.41, 187.58 73.4, 188.69 85.47 C189.8 97.55, 190.38 112.82, 186.94 124.52 C183.51 136.21, 175.87 146.62, 168.07 155.65 C160.28 164.68, 150.81 172.8, 140.19 178.68 C129.56 184.57, 116.59 189.94, 104.35 190.99 C92.1 192.04, 78.43 188.85, 66.7 185.01 C54.96 181.16, 43.35 175.34, 33.94 167.93 C24.53 160.53, 15.6 151.17, 10.25 140.59 C4.91 130.01, 2.69 116.73, 1.86 104.46 C1.04 92.19, 2.04 78.87, 5.29 66.99 C8.54 55.11, 13.89 42.56, 21.37 33.19 C28.86 23.81, 44.92 13.95, 50.21 10.74 C55.49 7.54, 52.05 12.41, 53.1 13.96" stroke="#086789" stroke-width="2" fill="none"></path></g><g stroke-linecap="round"><g stroke-opacity="0.8" fill-opacity="0.8" transform="translate(73.76761190507955 266.14950714257) rotate(0 84.28459820479233 45.80402933125606)" fill-rule="evenodd"><path d="M-1.48 -1.39 L6.09 -13.6 L40.41 -14.68 L42.85 -10.18 L30.59 -7.99 L62.23 93.74 L81.77 30.54 L69.91 -7.73 L57.52 -8.87 L57.64 -17.02 L111.78 -16.99 L113.32 -8.39 L98 -6.12 L134 93.76 L151.39 28.71 L146.35 13.28 L140.94 2.42 L136.69 -4.53 L131.33 -15.29 L133.67 -23.83 L142.6 -31.65 L146.26 -35.51 L156.23 -26.41 L160.34 -17.91 L164.64 -9.85 L168.17 -0.18 L169.39 11.97 L132.95 118.08 L114.76 123.44 L86.76 45.93 L57.95 123.74 L43.28 117.89 L1.51 -0.98" stroke="none" stroke-width="0" fill="#fff" fill-rule="evenodd"></path><path d="M0 0 C3.03 -5.87, 6.47 -12.3, 8.07 -14.99 M0 0 C1.3 -4.09, 4.27 -5.9, 8.07 -14.99 M8.07 -14.99 C17.59 -14.97, 27.67 -13.8, 40.5 -16.43 M8.07 -14.99 C16.42 -16.28, 23.66 -16.59, 40.5 -16.43 M40.5 -16.43 C41.93 -14.08, 42.21 -11.31, 43.58 -8.79 M40.5 -16.43 C41.33 -14.19, 41.98 -11.74, 43.58 -8.79 M43.58 -8.79 C39.38 -8.64, 36.87 -8.67, 29.47 -7.13 M43.58 -8.79 C39.32 -7.76, 35.51 -7.34, 29.47 -7.13 M29.47 -7.13 C37.66 14.38, 42.94 37.7, 62.58 93.17 M29.47 -7.13 C38.1 17.62, 46.48 43.72, 62.58 93.17 M62.58 93.17 C67.98 78.88, 72.32 61.28, 82.58 32.27 M62.58 93.17 C68.24 80.41, 72.64 66.32, 82.58 32.27 M82.58 32.27 C80.65 23.66, 78.6 15.87, 68.66 -7.28 M82.58 32.27 C78.61 19.28, 73.45 4.12, 68.66 -7.28 M68.66 -7.28 C65.01 -7.64, 58.45 -7.93, 55.86 -8.56 M68.66 -7.28 C63.82 -8.12, 59.59 -8.4, 55.86 -8.56 M55.86 -8.56 C56.17 -10.8, 55.39 -12.62, 56.09 -16.86 M55.86 -8.56 C56.28 -10.21, 55.57 -11.77, 56.09 -16.86 M56.09 -16.86 C78.19 -15.97, 100.05 -16.22, 111.26 -15.95 M56.09 -16.86 C66.37 -15.78, 78.26 -15.24, 111.26 -15.95 M111.26 -15.95 C112.51 -12.47, 113.63 -10.28, 113.75 -8.17 M111.26 -15.95 C112.28 -13.22, 112.78 -10.7, 113.75 -8.17 M113.75 -8.17 C109.49 -8.65, 105.15 -7.6, 99.75 -6.81 M113.75 -8.17 C109.35 -7.32, 104.57 -6.84, 99.75 -6.81 M99.75 -6.81 C110.14 20.25, 121.03 49.05, 132.27 92.03 M99.75 -6.81 C111.28 25.2, 120.21 56.15, 132.27 92.03 M132.27 92.03 C137.28 76.02, 142.12 60.09, 149.59 28.2 M132.27 92.03 C137.08 71.37, 142.99 51.51, 149.59 28.2 M149.59 28.2 C148.04 25.81, 148.45 21.73, 146.38 15.17 M149.59 28.2 C148.16 24.36, 147.11 19.56, 146.38 15.17 M146.38 15.17 C143.85 10.2, 140.66 7.33, 140.39 3.34 M146.38 15.17 C144.91 12.53, 143.83 9.11, 140.39 3.34 M140.39 3.34 C138.62 0.99, 137.27 -3.23, 135.01 -5.86 M140.39 3.34 C139.5 1.59, 138.32 -0.6, 135.01 -5.86 M135.01 -5.86 C134.74 -8.11, 131.91 -11.67, 130.94 -15.39 M135.01 -5.86 C134.03 -9.31, 132.11 -13.09, 130.94 -15.39 M130.94 -15.39 C131.06 -17.81, 132.95 -20.52, 133.96 -25.69 M130.94 -15.39 C131.75 -18.91, 133.44 -22.45, 133.96 -25.69 M133.96 -25.69 C136.68 -27.92, 137.66 -28.62, 140.93 -31.94 M133.96 -25.69 C135.97 -27.96, 138.64 -29.11, 140.93 -31.94 M140.93 -31.94 C143.85 -32.77, 145.88 -32.83, 147.86 -33.69 M140.93 -31.94 C142.45 -32.39, 144.64 -32.65, 147.86 -33.69 M147.86 -33.69 C149.64 -31.52, 153.05 -29.53, 155.04 -25.82 M147.86 -33.69 C149.85 -31.87, 151.78 -29.41, 155.04 -25.82 M155.04 -25.82 C157.41 -23.57, 158.13 -19.19, 160.79 -16.74 M155.04 -25.82 C156.93 -22.94, 159.44 -18.78, 160.79 -16.74 M160.79 -16.74 C162.59 -13.67, 163.33 -12.64, 166.4 -8.11 M160.79 -16.74 C161.72 -14.48, 163.95 -12.16, 166.4 -8.11 M166.4 -8.11 C167.22 -6.58, 166.45 -5.09, 167.76 -0.53 M166.4 -8.11 C166.63 -5.78, 166.97 -3.35, 167.76 -0.53 M167.76 -0.53 C167.24 3.06, 168.32 6.99, 168.82 11.34 M167.76 -0.53 C167.79 4.06, 168.51 8.4, 168.82 11.34 M168.82 11.34 C156.84 39.6, 149.41 68.5, 133.23 116.74 M168.82 11.34 C160.66 35.97, 151.93 62.15, 133.23 116.74 M133.23 116.74 C128.95 119.53, 126.42 121.76, 116.36 124.03 M133.23 116.74 C126.83 118.51, 121.81 121.11, 116.36 124.03 M116.36 124.03 C104.86 95.7, 93.53 67.39, 87.06 45.53 M116.36 124.03 C107.91 99.88, 98.16 77.7, 87.06 45.53 M87.06 45.53 C80.04 64.56, 72.59 81.76, 59.55 125.3 M87.06 45.53 C76.55 75.23, 66.62 104.88, 59.55 125.3 M59.55 125.3 C53.87 124.01, 48.21 122.97, 43.28 119.71 M59.55 125.3 C53.67 124.04, 48.59 121.41, 43.28 119.71 M43.28 119.71 C29.8 82.61, 14.95 41.99, -0.25 0.34 M43.28 119.71 C32.99 94.19, 24.65 68.41, -0.25 0.34 M-0.25 0.34 C-0.14 0.19, -0.03 0.08, 0 0 M-0.25 0.34 C-0.19 0.28, -0.15 0.19, 0 0" stroke="#086789" stroke-width="1" fill="none"></path></g></g><mask></mask><g stroke-opacity="0.8" fill-opacity="0.8" stroke-linecap="round" transform="translate(50 195.61740344062923) rotate(0 110.00000000000006 110.00000000000011)"><path d="M21.49 41.08 C27.79 30.58, 39.52 23.48, 51.45 16.9 C63.37 10.32, 79.65 4.13, 93.03 1.59 C106.4 -0.96, 119.04 -1.01, 131.68 1.66 C144.33 4.32, 157.71 10.05, 168.91 17.56 C180.11 25.07, 191.18 36.17, 198.89 46.74 C206.59 57.31, 211.79 68.44, 215.15 80.98 C218.5 93.52, 220.56 108.96, 219.02 121.97 C217.48 134.98, 212.2 147.2, 205.9 159.02 C199.6 170.83, 190.5 183.79, 181.23 192.86 C171.96 201.93, 162.21 208.99, 150.25 213.43 C138.3 217.87, 123.19 219.72, 109.48 219.51 C95.78 219.3, 80.47 217.09, 68.01 212.16 C55.55 207.22, 44.14 198.98, 34.72 189.9 C25.3 180.81, 17.18 169.74, 11.49 157.66 C5.79 145.58, 1.46 130.91, 0.53 117.42 C-0.41 103.92, -1.86 93.12, 5.86 76.69 C13.58 60.25, 34.57 30.62, 46.85 18.8 C59.13 6.98, 78.45 4.41, 79.56 5.77 M111.1 2.83 C124.47 2.13, 140.69 6.17, 152.59 10.29 C164.49 14.41, 172.8 18.54, 182.5 27.54 C192.2 36.54, 204.69 52.16, 210.8 64.29 C216.91 76.41, 218.13 87.7, 219.15 100.29 C220.18 112.88, 220.46 126.66, 216.94 139.83 C213.43 153.01, 206.49 168.98, 198.08 179.35 C189.67 189.73, 178.1 195.7, 166.48 202.07 C154.86 208.44, 141.57 214.55, 128.37 217.57 C115.18 220.59, 99.7 222.41, 87.32 220.17 C74.93 217.93, 64.71 211.58, 54.09 204.13 C43.47 196.68, 32.15 186.72, 23.58 175.5 C15.02 164.27, 6.73 149.64, 2.68 136.78 C-1.36 123.93, -2.69 110.71, -0.68 98.35 C1.34 85.99, 8.14 74.14, 14.78 62.65 C21.42 51.16, 30.25 38.22, 39.17 29.41 C48.1 20.6, 56.22 14.41, 68.3 9.82 C80.39 5.22, 104.72 2.62, 111.67 1.84 C118.62 1.07, 110.27 3.37, 110.01 5.16" stroke="#086789" stroke-width="4" fill="none"></path></g><g stroke-linecap="round"><g transform="translate(490 208.77224018158768) rotate(0 78.47025301105873 90.06244947860148)" fill-rule="evenodd"><path d="M0 0 L156.94 -0.89 L145.35 160.06 L79.36 181.02 L11.59 161.4 L0 0" stroke="none" stroke-width="0" fill="#e44d26" fill-rule="evenodd"></path><path d="M0 0 C32.65 -0.19, 65.29 -0.37, 156.94 -0.89 M0 0 C51.61 -0.29, 103.21 -0.59, 156.94 -0.89 M156.94 -0.89 C152.35 62.8, 147.77 126.5, 145.35 160.06 M156.94 -0.89 C152.64 58.83, 148.34 118.55, 145.35 160.06 M145.35 160.06 C120.45 167.97, 95.55 175.88, 79.36 181.02 M145.35 160.06 C120.52 167.95, 95.69 175.83, 79.36 181.02 M79.36 181.02 C55.88 174.22, 32.4 167.42, 11.59 161.4 M79.36 181.02 C63.4 176.4, 47.43 171.77, 11.59 161.4 M11.59 161.4 C8.88 123.57, 6.16 85.74, 0 0 M11.59 161.4 C7.24 100.75, 2.88 40.1, 0 0 M0 0 C0 0, 0 0, 0 0 M0 0 C0 0, 0 0, 0 0" stroke="#e44d26" stroke-width="1" fill="none"></path></g></g><mask></mask><g stroke-linecap="round"><g transform="translate(566.2409844596075 222.14785149029058) rotate(0 34.10780883719315 73.3429353427224)" fill-rule="evenodd"><path d="M0 0 L4.46 148.02 L60.19 132.42 L68.22 -1.34 L0 0" stroke="none" stroke-width="0" fill="#f16529" fill-rule="evenodd"></path><path d="M0 0 C1.34 44.46, 2.68 88.91, 4.46 148.02 M0 0 C0.96 31.89, 1.92 63.79, 4.46 148.02 M4.46 148.02 C19.28 143.87, 34.11 139.72, 60.19 132.42 M4.46 148.02 C22.55 142.96, 40.65 137.89, 60.19 132.42 M60.19 132.42 C62.97 86.15, 65.74 39.88, 68.22 -1.34 M60.19 132.42 C62.77 89.37, 65.36 46.32, 68.22 -1.34 M68.22 -1.34 C44.01 -0.86, 19.8 -0.39, 0 0 M68.22 -1.34 C50.07 -0.98, 31.92 -0.63, 0 0 M0 0 C0 0, 0 0, 0 0 M0 0 C0 0, 0 0, 0 0" stroke="#f16529" stroke-width="1" fill="none"></path></g></g><mask></mask><g stroke-linecap="round"><g stroke-opacity="0.6" fill-opacity="0.6" transform="translate(605.919292892894 227.45668338450173) rotate(0 -35.97288003203579 58.50135035512892)" fill-rule="evenodd"><path d="M-0.92 1.68 L-0.85 18.56 L-47.87 15.7 L-47.56 38.73 L1.01 40.55 L-1.82 105.11 L-34.02 116.55 L-66.57 104.71 L-74.42 73.81 L-54.88 73.6 L-53.51 89.66 L-33.55 99.41 L-12.95 85.45 L-14.14 57.27 L-73.5 55.23 L-70.13 1.76 L-1.32 -0.22" stroke="none" stroke-width="0" fill="#fff" fill-rule="evenodd"></path><path d="M0 0 C-2.23 4.84, -2.75 13.2, -2.18 18.17 M0 0 C-0.86 6.66, -0.57 11.71, -2.18 18.17 M-2.18 18.17 C-14.08 16.76, -27.39 15.33, -47.96 15.99 M-2.18 18.17 C-19.82 18.68, -38.08 16.76, -47.96 15.99 M-47.96 15.99 C-47.71 19.32, -50.21 25.61, -49.42 37.06 M-47.96 15.99 C-47.77 22.19, -49.21 28.93, -49.42 37.06 M-49.42 37.06 C-31.55 38.86, -12.63 39, 0.73 42.15 M-49.42 37.06 C-37.61 38.35, -24.07 38.88, 0.73 42.15 M0.73 42.15 C-0.88 59.19, 0.37 71.61, 0 103.92 M0.73 42.15 C0.7 64.16, 1.01 86.76, 0 103.92 M0 103.92 C-7.36 106.64, -18.57 110.57, -33.43 117 M0 103.92 C-12.09 109, -23.36 112.76, -33.43 117 M-33.43 117 C-39.69 116.3, -48.63 112.37, -65.41 106.47 M-33.43 117 C-40.37 113.98, -48.41 112.54, -65.41 106.47 M-65.41 106.47 C-69.53 94.87, -70.87 88.11, -72.67 73.4 M-65.41 106.47 C-68.65 96.47, -71.09 85.09, -72.67 73.4 M-72.67 73.4 C-66.54 74.14, -60.51 72, -55.23 73.04 M-72.67 73.4 C-67.24 73.92, -62.58 73.86, -55.23 73.04 M-55.23 73.04 C-53.11 79.58, -55.88 82.57, -54.14 89.93 M-55.23 73.04 C-54.29 78.5, -54.9 82.11, -54.14 89.93 M-54.14 89.93 C-48.6 93.41, -43.48 94.02, -34.88 101.01 M-54.14 89.93 C-48.45 93.61, -43.13 96.47, -34.88 101.01 M-34.88 101.01 C-28.2 95.9, -25.86 93.61, -12.35 85.75 M-34.88 101.01 C-28.68 97.29, -22.54 92.95, -12.35 85.75 M-12.35 85.75 C-11.37 77.6, -14.51 70.67, -14.53 58.86 M-12.35 85.75 C-12.42 75.96, -13.16 68.91, -14.53 58.86 M-14.53 58.86 C-32.39 59.13, -52.43 55.11, -71.95 55.23 M-14.53 58.86 C-32.3 58.83, -49.15 56.32, -71.95 55.23 M-71.95 55.23 C-72.15 33.65, -68.52 12.77, -68.31 0 M-71.95 55.23 C-71.31 39.49, -68.94 25.66, -68.31 0 M-68.31 0 C-40.72 -0.39, -15.71 1.05, 0 0 M-68.31 0 C-50.82 0.4, -33.03 0.35, 0 0 M0 0 C0 0, 0 0, 0 0 M0 0 C0 0, 0 0, 0 0" stroke="#0000" stroke-width="1" fill="none"></path></g></g><mask></mask><g stroke-linecap="round"><g transform="translate(664.413963791689 208.2271965447385) rotate(0 78.47025301105873 90.06244947860148)" fill-rule="evenodd"><path d="M0 0 L156.94 -0.89 L145.35 160.06 L79.36 181.02 L11.59 161.4 L0 0" stroke="none" stroke-width="0" fill="#e7c62f" fill-rule="evenodd"></path><path d="M0 0 C59.22 -0.34, 118.43 -0.67, 156.94 -0.89 M0 0 C59.05 -0.34, 118.1 -0.67, 156.94 -0.89 M156.94 -0.89 C152.92 54.87, 148.91 110.63, 145.35 160.06 M156.94 -0.89 C154.21 37.02, 151.48 74.94, 145.35 160.06 M145.35 160.06 C129.88 164.97, 114.41 169.89, 79.36 181.02 M145.35 160.06 C120.55 167.94, 95.76 175.81, 79.36 181.02 M79.36 181.02 C53.06 173.4, 26.75 165.79, 11.59 161.4 M79.36 181.02 C63.67 176.47, 47.98 171.93, 11.59 161.4 M11.59 161.4 C7.55 105.14, 3.51 48.87, 0 0 M11.59 161.4 C9.08 126.38, 6.56 91.35, 0 0 M0 0 C0 0, 0 0, 0 0 M0 0 C0 0, 0 0, 0 0" stroke="#e7c62f" stroke-width="1" fill="none"></path></g></g><mask></mask><g stroke-linecap="round"><g transform="translate(740.6549482512962 221.60280785344185) rotate(0 34.10780883719315 73.3429353427224)" fill-rule="evenodd"><path d="M0 0 L4.46 148.02 L60.19 132.42 L68.22 -1.34 L0 0" stroke="none" stroke-width="0" fill="#fedd25" fill-rule="evenodd"></path><path d="M0 0 C1.54 51.21, 3.08 102.41, 4.46 148.02 M0 0 C1.43 47.64, 2.87 95.28, 4.46 148.02 M4.46 148.02 C24.24 142.49, 44.01 136.95, 60.19 132.42 M4.46 148.02 C19.29 143.87, 34.11 139.72, 60.19 132.42 M60.19 132.42 C62.13 100.05, 64.07 67.69, 68.22 -1.34 M60.19 132.42 C61.84 104.95, 63.49 77.49, 68.22 -1.34 M68.22 -1.34 C49.87 -0.98, 31.52 -0.62, 0 0 M68.22 -1.34 C44.43 -0.87, 20.65 -0.4, 0 0 M0 0 C0 0, 0 0, 0 0 M0 0 C0 0, 0 0, 0 0" stroke="#fedd25" stroke-width="1" fill="none"></path></g></g><mask></mask><g stroke-linecap="round"><g stroke-opacity="0.5" fill-opacity="0.5" transform="translate(712.3617731392021 235.74588869491413) rotate(0 -4.905392731641257 56.68453823229902)" fill-rule="evenodd"><path d="M0 0 L18.53 0 L18.53 113.37 L-28.34 103.56 L-28.34 82.85 L2.18 90.48 L0 0" stroke="none" stroke-width="0" fill="#fff" fill-rule="evenodd"></path><path d="M0 0 C4.33 0, 8.67 0, 18.53 0 M0 0 C5.8 0, 11.6 0, 18.53 0 M18.53 0 C18.53 42.01, 18.53 84.03, 18.53 113.37 M18.53 0 C18.53 28.09, 18.53 56.18, 18.53 113.37 M18.53 113.37 C6.83 110.92, -4.87 108.47, -28.34 103.56 M18.53 113.37 C1.85 109.88, -14.82 106.39, -28.34 103.56 M-28.34 103.56 C-28.34 98.45, -28.34 93.34, -28.34 82.85 M-28.34 103.56 C-28.34 96.1, -28.34 88.64, -28.34 82.85 M-28.34 82.85 C-21.57 84.54, -14.8 86.23, 2.18 90.48 M-28.34 82.85 C-21.54 84.55, -14.73 86.25, 2.18 90.48 M2.18 90.48 C1.53 63.53, 0.88 36.59, 0 0 M2.18 90.48 C1.49 61.79, 0.8 33.1, 0 0 M0 0 C0 0, 0 0, 0 0 M0 0 C0 0, 0 0, 0 0" stroke="#0000" stroke-width="1" fill="none"></path></g></g><mask></mask><g stroke-linecap="round"><g stroke-opacity="0.6" fill-opacity="0.6" transform="translate(799.5687550350465 240.10623778970626) rotate(0 -26.16209456875339 52.32418913750678)" fill-rule="evenodd"><path d="M0 0 L-52.32 0 L-50.98 59 L-22.14 55.66 L-24.15 76.82 L-50.31 85.72 L-48.8 104.65 L-10.06 97.97 L-4.02 37.85 L-36.9 36.74 L-36.22 18.93 L-2.68 17.81 L0 0" stroke="none" stroke-width="0" fill="#fff" fill-rule="evenodd"></path><path d="M0 0 C-13.86 0, -27.72 0, -52.32 0 M0 0 C-16.02 0, -32.04 0, -52.32 0 M-52.32 0 C-51.93 17.35, -51.54 34.69, -50.98 59 M-52.32 0 C-51.89 18.91, -51.46 37.82, -50.98 59 M-50.98 59 C-40.48 57.79, -29.98 56.57, -22.14 55.66 M-50.98 59 C-42.96 58.08, -34.94 57.15, -22.14 55.66 M-22.14 55.66 C-22.64 60.95, -23.14 66.24, -24.15 76.82 M-22.14 55.66 C-22.62 60.78, -23.11 65.9, -24.15 76.82 M-24.15 76.82 C-32.2 79.56, -40.26 82.3, -50.31 85.72 M-24.15 76.82 C-31.15 79.2, -38.15 81.58, -50.31 85.72 M-50.31 85.72 C-49.78 92.41, -49.25 99.09, -48.8 104.65 M-50.31 85.72 C-49.9 90.9, -49.49 96.09, -48.8 104.65 M-48.8 104.65 C-39.54 103.05, -30.28 101.46, -10.06 97.97 M-48.8 104.65 C-40.44 103.21, -32.08 101.77, -10.06 97.97 M-10.06 97.97 C-8.04 77.87, -6.02 57.77, -4.02 37.85 M-10.06 97.97 C-7.91 76.56, -5.76 55.14, -4.02 37.85 M-4.02 37.85 C-13.95 37.52, -23.87 37.18, -36.9 36.74 M-4.02 37.85 C-11.83 37.59, -19.63 37.32, -36.9 36.74 M-36.9 36.74 C-36.64 30.04, -36.39 23.33, -36.22 18.93 M-36.9 36.74 C-36.66 30.45, -36.42 24.16, -36.22 18.93 M-36.22 18.93 C-24.74 18.54, -13.25 18.16, -2.68 17.81 M-36.22 18.93 C-25.48 18.57, -14.74 18.21, -2.68 17.81 M-2.68 17.81 C-2.11 14.01, -1.54 10.22, 0 0 M-2.68 17.81 C-1.74 11.55, -0.8 5.29, 0 0 M0 0 C0 0, 0 0, 0 0 M0 0 C0 0, 0 0, 0 0" stroke="#0000" stroke-width="1" fill="none"></path></g></g><mask></mask><g stroke-linecap="round"><g transform="translate(830 208.77224018158745) rotate(0 78.47025301105873 90.06244947860148)" fill-rule="evenodd"><path d="M0 0 L156.94 -0.89 L145.35 160.06 L79.36 181.02 L11.59 161.4 L0 0" stroke="none" stroke-width="0" fill="#007cc3" fill-rule="evenodd"></path><path d="M0 0 C36.79 -0.21, 73.57 -0.42, 156.94 -0.89 M0 0 C58.98 -0.34, 117.95 -0.67, 156.94 -0.89 M156.94 -0.89 C152.44 61.58, 147.94 124.06, 145.35 160.06 M156.94 -0.89 C154.26 36.37, 151.57 73.64, 145.35 160.06 M145.35 160.06 C122.35 167.37, 99.34 174.67, 79.36 181.02 M145.35 160.06 C131.03 164.61, 116.71 169.16, 79.36 181.02 M79.36 181.02 C57.1 174.57, 34.84 168.13, 11.59 161.4 M79.36 181.02 C52.4 173.21, 25.44 165.41, 11.59 161.4 M11.59 161.4 C7.06 98.32, 2.53 35.24, 0 0 M11.59 161.4 C8.54 118.96, 5.5 76.51, 0 0 M0 0 C0 0, 0 0, 0 0 M0 0 C0 0, 0 0, 0 0" stroke="#007cc3" stroke-width="1" fill="none"></path></g></g><mask></mask><g stroke-linecap="round"><g transform="translate(906.2409844596068 222.1478514902908) rotate(0 34.10780883719315 73.34293534272228)" fill-rule="evenodd"><path d="M0 0 L4.46 148.02 L60.19 132.42 L68.22 -1.34 L0 0" stroke="none" stroke-width="0" fill="#008dd2" fill-rule="evenodd"></path><path d="M0 0 C1.08 35.82, 2.16 71.63, 4.46 148.02 M0 0 C0.92 30.39, 1.83 60.79, 4.46 148.02 M4.46 148.02 C19.45 143.83, 34.44 139.63, 60.19 132.42 M4.46 148.02 C23.89 142.58, 43.32 137.14, 60.19 132.42 M60.19 132.42 C62.5 93.86, 64.82 55.3, 68.22 -1.34 M60.19 132.42 C62.9 87.27, 65.61 42.12, 68.22 -1.34 M68.22 -1.34 C46.3 -0.91, 24.38 -0.48, 0 0 M68.22 -1.34 C53.32 -1.05, 38.43 -0.75, 0 0 M0 0 C0 0, 0 0, 0 0 M0 0 C0 0, 0 0, 0 0" stroke="#008dd2" stroke-width="1" fill="none"></path></g></g><mask></mask><g stroke-linecap="round"><g stroke-opacity="0.6" fill-opacity="0.6" transform="translate(867.2539973421362 239.21325394299856) rotate(0 39.298070695760316 57.32042247528955)" fill-rule="evenodd"><path d="M0 0 L85.78 0 L85.78 18.39 L45.46 37.85 L85.78 36.77 L82.15 98.03 L44.48 114.64 L3.18 99.5 L-1.06 72.46 L13.77 72.46 L19.06 90.85 L45.08 99.35 L65.36 89.3 L64.6 59.48 L-2.12 58.4 L-3.18 42.18 L46.75 20.63 L-2.12 20.55 L-7.19 0" stroke="none" stroke-width="0" fill="#fff" fill-rule="evenodd"></path><path d="M0 0 C21.42 0, 42.83 0, 85.78 0 M0 0 C30.52 0, 61.04 0, 85.78 0 M85.78 0 C85.78 4.54, 85.78 9.07, 85.78 18.39 M85.78 0 C85.78 6.62, 85.78 13.24, 85.78 18.39 M85.78 18.39 C76.84 22.71, 67.89 27.02, 45.46 37.85 M85.78 18.39 C76.8 22.73, 67.81 27.06, 45.46 37.85 M45.46 37.85 C57.47 37.53, 69.48 37.21, 85.78 36.77 M45.46 37.85 C58.25 37.51, 71.03 37.17, 85.78 36.77 M85.78 36.77 C84.56 57.47, 83.33 78.18, 82.15 98.03 M85.78 36.77 C84.7 55.05, 83.62 73.32, 82.15 98.03 M82.15 98.03 C69.93 103.42, 57.7 108.81, 44.48 114.64 M82.15 98.03 C71.72 102.63, 61.29 107.23, 44.48 114.64 M44.48 114.64 C34.7 111.06, 24.93 107.47, 3.18 99.5 M44.48 114.64 C32.52 110.26, 20.55 105.87, 3.18 99.5 M3.18 99.5 C2.21 93.31, 1.24 87.12, -1.06 72.46 M3.18 99.5 C2.03 92.16, 0.88 84.82, -1.06 72.46 M-1.06 72.46 C3.52 72.46, 8.09 72.46, 13.77 72.46 M-1.06 72.46 C3.8 72.46, 8.66 72.46, 13.77 72.46 M13.77 72.46 C15.43 78.25, 17.1 84.04, 19.06 90.85 M13.77 72.46 C15.39 78.09, 17.01 83.72, 19.06 90.85 M19.06 90.85 C29.36 94.21, 39.66 97.57, 45.08 99.35 M19.06 90.85 C26.03 93.12, 32.99 95.39, 45.08 99.35 M45.08 99.35 C52.94 95.45, 60.8 91.56, 65.36 89.3 M45.08 99.35 C50.34 96.74, 55.6 94.14, 65.36 89.3 M65.36 89.3 C65.14 80.6, 64.92 71.9, 64.6 59.48 M65.36 89.3 C65.07 77.78, 64.77 66.25, 64.6 59.48 M64.6 59.48 C47.66 59.21, 30.72 58.93, -2.12 58.4 M64.6 59.48 C39.02 59.07, 13.43 58.65, -2.12 58.4 M-2.12 58.4 C-2.37 54.48, -2.63 50.56, -3.18 42.18 M-2.12 58.4 C-2.42 53.76, -2.72 49.12, -3.18 42.18 M-3.18 42.18 C7.92 37.39, 19.02 32.6, 46.75 20.63 M-3.18 42.18 C7 37.78, 17.18 33.39, 46.75 20.63 M46.75 20.63 C34.92 20.61, 23.1 20.59, -2.12 20.55 M46.75 20.63 C27.63 20.6, 8.52 20.57, -2.12 20.55 M-2.12 20.55 C-3.15 16.38, -4.17 12.21, -7.19 0 M-2.12 20.55 C-3.23 16.03, -4.34 11.52, -7.19 0 M-7.19 0 C-4.73 0, -2.28 0, 0 0 M-7.19 0 C-5.39 0, -3.59 0, 0 0" stroke="#0000" stroke-width="1" fill="none"></path></g></g><mask></mask><g stroke-linecap="round"><g stroke-opacity="0.8" fill-opacity="0.8" transform="translate(328.0331341756387 310.0000000000002) rotate(0 60.98343291218066 -1.1368683772161603e-13)"><path d="M2.57 1.28 C22.56 1.84, 99.62 1.88, 119.66 1.48 M0.52 -0.5 C21.39 -0.58, 104.66 -3.04, 124.81 -2.73" stroke="#1e1e1e" stroke-width="4" fill="none"></path></g><g stroke-opacity="0.8" fill-opacity="0.8" transform="translate(328.0331341756387 310.0000000000002) rotate(0 60.98343291218066 -1.1368683772161603e-13)"><path d="M123.43 -0.73 L110.11 3.06 L109.25 -8.86 L125.44 -0.92" stroke="none" stroke-width="0" fill="#1e1e1e" fill-rule="evenodd"></path><path d="M125.5 -3.96 C121.63 -0.28, 116.3 0.26, 110.3 2.36 M125.31 -3.06 C120.48 0.06, 115.64 1.95, 111 3.99 M112.09 3.88 C111.02 -0.02, 112.21 -2.1, 111.56 -9.82 M111.79 4.33 C110.65 0.94, 111.14 -2.18, 110.59 -9.14 M111.78 -9.59 C114.59 -7.93, 120.51 -4.61, 126.06 -1.46 M111.79 -9.49 C115.87 -6.84, 120.28 -5.17, 124.7 -3.12 M124.81 -2.73 C124.81 -2.73, 124.81 -2.73, 124.81 -2.73 M124.81 -2.73 C124.81 -2.73, 124.81 -2.73, 124.81 -2.73" stroke="#1e1e1e" stroke-width="4" fill="none"></path></g></g><mask></mask></svg>